%TF.GenerationSoftware,KiCad,Pcbnew,10.0.4*%
%TF.CreationDate,2026-09-15T22:59:37-03:00*%
%TF.ProjectId,tia-fpga,7469612d-6670-4676-912e-6b696361645f,B*%
%TF.SameCoordinates,Original*%
%TF.FileFunction,Legend,Bot*%
%TF.FilePolarity,Positive*%
%FSLAX46Y46*%
G04 Gerber Fmt 4.6, Leading zero omitted, Abs format (unit mm)*
G04 Created by KiCad (PCBNEW 10.0.4) date 2026-09-15 22:59:37*
%MOMM*%
%LPD*%
G01*
G04 APERTURE LIST*
%ADD10C,0.120000*%
%ADD11R,1.700000X1.700000*%
%ADD12C,1.700000*%
G04 APERTURE END LIST*
D10*
X4409523Y-1763855D02*
X4409523Y-2411474D01*
X4409523Y-2411474D02*
X4371428Y-2487664D01*
X4371428Y-2487664D02*
X4333333Y-2525760D01*
X4333333Y-2525760D02*
X4257142Y-2563855D01*
X4257142Y-2563855D02*
X4104761Y-2563855D01*
X4104761Y-2563855D02*
X4028571Y-2525760D01*
X4028571Y-2525760D02*
X3990476Y-2487664D01*
X3990476Y-2487664D02*
X3952380Y-2411474D01*
X3952380Y-2411474D02*
X3952380Y-1763855D01*
X3190476Y-1763855D02*
X3571428Y-1763855D01*
X3571428Y-1763855D02*
X3609524Y-2144807D01*
X3609524Y-2144807D02*
X3571428Y-2106712D01*
X3571428Y-2106712D02*
X3495238Y-2068617D01*
X3495238Y-2068617D02*
X3304762Y-2068617D01*
X3304762Y-2068617D02*
X3228571Y-2106712D01*
X3228571Y-2106712D02*
X3190476Y-2144807D01*
X3190476Y-2144807D02*
X3152381Y-2220998D01*
X3152381Y-2220998D02*
X3152381Y-2411474D01*
X3152381Y-2411474D02*
X3190476Y-2487664D01*
X3190476Y-2487664D02*
X3228571Y-2525760D01*
X3228571Y-2525760D02*
X3304762Y-2563855D01*
X3304762Y-2563855D02*
X3495238Y-2563855D01*
X3495238Y-2563855D02*
X3571428Y-2525760D01*
X3571428Y-2525760D02*
X3609524Y-2487664D01*
X26909523Y-1763855D02*
X26909523Y-2411474D01*
X26909523Y-2411474D02*
X26871428Y-2487664D01*
X26871428Y-2487664D02*
X26833333Y-2525760D01*
X26833333Y-2525760D02*
X26757142Y-2563855D01*
X26757142Y-2563855D02*
X26604761Y-2563855D01*
X26604761Y-2563855D02*
X26528571Y-2525760D01*
X26528571Y-2525760D02*
X26490476Y-2487664D01*
X26490476Y-2487664D02*
X26452380Y-2411474D01*
X26452380Y-2411474D02*
X26452380Y-1763855D01*
X25957143Y-2106712D02*
X26033333Y-2068617D01*
X26033333Y-2068617D02*
X26071428Y-2030521D01*
X26071428Y-2030521D02*
X26109524Y-1954331D01*
X26109524Y-1954331D02*
X26109524Y-1916236D01*
X26109524Y-1916236D02*
X26071428Y-1840045D01*
X26071428Y-1840045D02*
X26033333Y-1801950D01*
X26033333Y-1801950D02*
X25957143Y-1763855D01*
X25957143Y-1763855D02*
X25804762Y-1763855D01*
X25804762Y-1763855D02*
X25728571Y-1801950D01*
X25728571Y-1801950D02*
X25690476Y-1840045D01*
X25690476Y-1840045D02*
X25652381Y-1916236D01*
X25652381Y-1916236D02*
X25652381Y-1954331D01*
X25652381Y-1954331D02*
X25690476Y-2030521D01*
X25690476Y-2030521D02*
X25728571Y-2068617D01*
X25728571Y-2068617D02*
X25804762Y-2106712D01*
X25804762Y-2106712D02*
X25957143Y-2106712D01*
X25957143Y-2106712D02*
X26033333Y-2144807D01*
X26033333Y-2144807D02*
X26071428Y-2182902D01*
X26071428Y-2182902D02*
X26109524Y-2259093D01*
X26109524Y-2259093D02*
X26109524Y-2411474D01*
X26109524Y-2411474D02*
X26071428Y-2487664D01*
X26071428Y-2487664D02*
X26033333Y-2525760D01*
X26033333Y-2525760D02*
X25957143Y-2563855D01*
X25957143Y-2563855D02*
X25804762Y-2563855D01*
X25804762Y-2563855D02*
X25728571Y-2525760D01*
X25728571Y-2525760D02*
X25690476Y-2487664D01*
X25690476Y-2487664D02*
X25652381Y-2411474D01*
X25652381Y-2411474D02*
X25652381Y-2259093D01*
X25652381Y-2259093D02*
X25690476Y-2182902D01*
X25690476Y-2182902D02*
X25728571Y-2144807D01*
X25728571Y-2144807D02*
X25804762Y-2106712D01*
X49890475Y-2563855D02*
X49890475Y-1763855D01*
X49890475Y-1763855D02*
X49699999Y-1763855D01*
X49699999Y-1763855D02*
X49585713Y-1801950D01*
X49585713Y-1801950D02*
X49509523Y-1878140D01*
X49509523Y-1878140D02*
X49471428Y-1954331D01*
X49471428Y-1954331D02*
X49433332Y-2106712D01*
X49433332Y-2106712D02*
X49433332Y-2220998D01*
X49433332Y-2220998D02*
X49471428Y-2373379D01*
X49471428Y-2373379D02*
X49509523Y-2449569D01*
X49509523Y-2449569D02*
X49585713Y-2525760D01*
X49585713Y-2525760D02*
X49699999Y-2563855D01*
X49699999Y-2563855D02*
X49890475Y-2563855D01*
X48671428Y-2563855D02*
X49128571Y-2563855D01*
X48899999Y-2563855D02*
X48899999Y-1763855D01*
X48899999Y-1763855D02*
X48976190Y-1878140D01*
X48976190Y-1878140D02*
X49052380Y-1954331D01*
X49052380Y-1954331D02*
X49128571Y-1992426D01*
X22933332Y-2487664D02*
X22971428Y-2525760D01*
X22971428Y-2525760D02*
X23085713Y-2563855D01*
X23085713Y-2563855D02*
X23161904Y-2563855D01*
X23161904Y-2563855D02*
X23276190Y-2525760D01*
X23276190Y-2525760D02*
X23352380Y-2449569D01*
X23352380Y-2449569D02*
X23390475Y-2373379D01*
X23390475Y-2373379D02*
X23428571Y-2220998D01*
X23428571Y-2220998D02*
X23428571Y-2106712D01*
X23428571Y-2106712D02*
X23390475Y-1954331D01*
X23390475Y-1954331D02*
X23352380Y-1878140D01*
X23352380Y-1878140D02*
X23276190Y-1801950D01*
X23276190Y-1801950D02*
X23161904Y-1763855D01*
X23161904Y-1763855D02*
X23085713Y-1763855D01*
X23085713Y-1763855D02*
X22971428Y-1801950D01*
X22971428Y-1801950D02*
X22933332Y-1840045D01*
X22476190Y-2106712D02*
X22552380Y-2068617D01*
X22552380Y-2068617D02*
X22590475Y-2030521D01*
X22590475Y-2030521D02*
X22628571Y-1954331D01*
X22628571Y-1954331D02*
X22628571Y-1916236D01*
X22628571Y-1916236D02*
X22590475Y-1840045D01*
X22590475Y-1840045D02*
X22552380Y-1801950D01*
X22552380Y-1801950D02*
X22476190Y-1763855D01*
X22476190Y-1763855D02*
X22323809Y-1763855D01*
X22323809Y-1763855D02*
X22247618Y-1801950D01*
X22247618Y-1801950D02*
X22209523Y-1840045D01*
X22209523Y-1840045D02*
X22171428Y-1916236D01*
X22171428Y-1916236D02*
X22171428Y-1954331D01*
X22171428Y-1954331D02*
X22209523Y-2030521D01*
X22209523Y-2030521D02*
X22247618Y-2068617D01*
X22247618Y-2068617D02*
X22323809Y-2106712D01*
X22323809Y-2106712D02*
X22476190Y-2106712D01*
X22476190Y-2106712D02*
X22552380Y-2144807D01*
X22552380Y-2144807D02*
X22590475Y-2182902D01*
X22590475Y-2182902D02*
X22628571Y-2259093D01*
X22628571Y-2259093D02*
X22628571Y-2411474D01*
X22628571Y-2411474D02*
X22590475Y-2487664D01*
X22590475Y-2487664D02*
X22552380Y-2525760D01*
X22552380Y-2525760D02*
X22476190Y-2563855D01*
X22476190Y-2563855D02*
X22323809Y-2563855D01*
X22323809Y-2563855D02*
X22247618Y-2525760D01*
X22247618Y-2525760D02*
X22209523Y-2487664D01*
X22209523Y-2487664D02*
X22171428Y-2411474D01*
X22171428Y-2411474D02*
X22171428Y-2259093D01*
X22171428Y-2259093D02*
X22209523Y-2182902D01*
X22209523Y-2182902D02*
X22247618Y-2144807D01*
X22247618Y-2144807D02*
X22323809Y-2106712D01*
X15933332Y-2487664D02*
X15971428Y-2525760D01*
X15971428Y-2525760D02*
X16085713Y-2563855D01*
X16085713Y-2563855D02*
X16161904Y-2563855D01*
X16161904Y-2563855D02*
X16276190Y-2525760D01*
X16276190Y-2525760D02*
X16352380Y-2449569D01*
X16352380Y-2449569D02*
X16390475Y-2373379D01*
X16390475Y-2373379D02*
X16428571Y-2220998D01*
X16428571Y-2220998D02*
X16428571Y-2106712D01*
X16428571Y-2106712D02*
X16390475Y-1954331D01*
X16390475Y-1954331D02*
X16352380Y-1878140D01*
X16352380Y-1878140D02*
X16276190Y-1801950D01*
X16276190Y-1801950D02*
X16161904Y-1763855D01*
X16161904Y-1763855D02*
X16085713Y-1763855D01*
X16085713Y-1763855D02*
X15971428Y-1801950D01*
X15971428Y-1801950D02*
X15933332Y-1840045D01*
X15666666Y-1763855D02*
X15133332Y-1763855D01*
X15133332Y-1763855D02*
X15476190Y-2563855D01*
X37409523Y-1763855D02*
X37409523Y-2411474D01*
X37409523Y-2411474D02*
X37371428Y-2487664D01*
X37371428Y-2487664D02*
X37333333Y-2525760D01*
X37333333Y-2525760D02*
X37257142Y-2563855D01*
X37257142Y-2563855D02*
X37104761Y-2563855D01*
X37104761Y-2563855D02*
X37028571Y-2525760D01*
X37028571Y-2525760D02*
X36990476Y-2487664D01*
X36990476Y-2487664D02*
X36952380Y-2411474D01*
X36952380Y-2411474D02*
X36952380Y-1763855D01*
X36533333Y-2563855D02*
X36380952Y-2563855D01*
X36380952Y-2563855D02*
X36304762Y-2525760D01*
X36304762Y-2525760D02*
X36266666Y-2487664D01*
X36266666Y-2487664D02*
X36190476Y-2373379D01*
X36190476Y-2373379D02*
X36152381Y-2220998D01*
X36152381Y-2220998D02*
X36152381Y-1916236D01*
X36152381Y-1916236D02*
X36190476Y-1840045D01*
X36190476Y-1840045D02*
X36228571Y-1801950D01*
X36228571Y-1801950D02*
X36304762Y-1763855D01*
X36304762Y-1763855D02*
X36457143Y-1763855D01*
X36457143Y-1763855D02*
X36533333Y-1801950D01*
X36533333Y-1801950D02*
X36571428Y-1840045D01*
X36571428Y-1840045D02*
X36609524Y-1916236D01*
X36609524Y-1916236D02*
X36609524Y-2106712D01*
X36609524Y-2106712D02*
X36571428Y-2182902D01*
X36571428Y-2182902D02*
X36533333Y-2220998D01*
X36533333Y-2220998D02*
X36457143Y-2259093D01*
X36457143Y-2259093D02*
X36304762Y-2259093D01*
X36304762Y-2259093D02*
X36228571Y-2220998D01*
X36228571Y-2220998D02*
X36190476Y-2182902D01*
X36190476Y-2182902D02*
X36152381Y-2106712D01*
X19909523Y-1763855D02*
X19909523Y-2411474D01*
X19909523Y-2411474D02*
X19871428Y-2487664D01*
X19871428Y-2487664D02*
X19833333Y-2525760D01*
X19833333Y-2525760D02*
X19757142Y-2563855D01*
X19757142Y-2563855D02*
X19604761Y-2563855D01*
X19604761Y-2563855D02*
X19528571Y-2525760D01*
X19528571Y-2525760D02*
X19490476Y-2487664D01*
X19490476Y-2487664D02*
X19452380Y-2411474D01*
X19452380Y-2411474D02*
X19452380Y-1763855D01*
X19147619Y-1763855D02*
X18614285Y-1763855D01*
X18614285Y-1763855D02*
X18957143Y-2563855D01*
X40814285Y-2487664D02*
X40852381Y-2525760D01*
X40852381Y-2525760D02*
X40966666Y-2563855D01*
X40966666Y-2563855D02*
X41042857Y-2563855D01*
X41042857Y-2563855D02*
X41157143Y-2525760D01*
X41157143Y-2525760D02*
X41233333Y-2449569D01*
X41233333Y-2449569D02*
X41271428Y-2373379D01*
X41271428Y-2373379D02*
X41309524Y-2220998D01*
X41309524Y-2220998D02*
X41309524Y-2106712D01*
X41309524Y-2106712D02*
X41271428Y-1954331D01*
X41271428Y-1954331D02*
X41233333Y-1878140D01*
X41233333Y-1878140D02*
X41157143Y-1801950D01*
X41157143Y-1801950D02*
X41042857Y-1763855D01*
X41042857Y-1763855D02*
X40966666Y-1763855D01*
X40966666Y-1763855D02*
X40852381Y-1801950D01*
X40852381Y-1801950D02*
X40814285Y-1840045D01*
X40052381Y-2563855D02*
X40509524Y-2563855D01*
X40280952Y-2563855D02*
X40280952Y-1763855D01*
X40280952Y-1763855D02*
X40357143Y-1878140D01*
X40357143Y-1878140D02*
X40433333Y-1954331D01*
X40433333Y-1954331D02*
X40509524Y-1992426D01*
X39557142Y-1763855D02*
X39480952Y-1763855D01*
X39480952Y-1763855D02*
X39404761Y-1801950D01*
X39404761Y-1801950D02*
X39366666Y-1840045D01*
X39366666Y-1840045D02*
X39328571Y-1916236D01*
X39328571Y-1916236D02*
X39290476Y-2068617D01*
X39290476Y-2068617D02*
X39290476Y-2259093D01*
X39290476Y-2259093D02*
X39328571Y-2411474D01*
X39328571Y-2411474D02*
X39366666Y-2487664D01*
X39366666Y-2487664D02*
X39404761Y-2525760D01*
X39404761Y-2525760D02*
X39480952Y-2563855D01*
X39480952Y-2563855D02*
X39557142Y-2563855D01*
X39557142Y-2563855D02*
X39633333Y-2525760D01*
X39633333Y-2525760D02*
X39671428Y-2487664D01*
X39671428Y-2487664D02*
X39709523Y-2411474D01*
X39709523Y-2411474D02*
X39747619Y-2259093D01*
X39747619Y-2259093D02*
X39747619Y-2068617D01*
X39747619Y-2068617D02*
X39709523Y-1916236D01*
X39709523Y-1916236D02*
X39671428Y-1840045D01*
X39671428Y-1840045D02*
X39633333Y-1801950D01*
X39633333Y-1801950D02*
X39557142Y-1763855D01*
X12909523Y-1763855D02*
X12909523Y-2411474D01*
X12909523Y-2411474D02*
X12871428Y-2487664D01*
X12871428Y-2487664D02*
X12833333Y-2525760D01*
X12833333Y-2525760D02*
X12757142Y-2563855D01*
X12757142Y-2563855D02*
X12604761Y-2563855D01*
X12604761Y-2563855D02*
X12528571Y-2525760D01*
X12528571Y-2525760D02*
X12490476Y-2487664D01*
X12490476Y-2487664D02*
X12452380Y-2411474D01*
X12452380Y-2411474D02*
X12452380Y-1763855D01*
X11728571Y-1763855D02*
X11880952Y-1763855D01*
X11880952Y-1763855D02*
X11957143Y-1801950D01*
X11957143Y-1801950D02*
X11995238Y-1840045D01*
X11995238Y-1840045D02*
X12071428Y-1954331D01*
X12071428Y-1954331D02*
X12109524Y-2106712D01*
X12109524Y-2106712D02*
X12109524Y-2411474D01*
X12109524Y-2411474D02*
X12071428Y-2487664D01*
X12071428Y-2487664D02*
X12033333Y-2525760D01*
X12033333Y-2525760D02*
X11957143Y-2563855D01*
X11957143Y-2563855D02*
X11804762Y-2563855D01*
X11804762Y-2563855D02*
X11728571Y-2525760D01*
X11728571Y-2525760D02*
X11690476Y-2487664D01*
X11690476Y-2487664D02*
X11652381Y-2411474D01*
X11652381Y-2411474D02*
X11652381Y-2220998D01*
X11652381Y-2220998D02*
X11690476Y-2144807D01*
X11690476Y-2144807D02*
X11728571Y-2106712D01*
X11728571Y-2106712D02*
X11804762Y-2068617D01*
X11804762Y-2068617D02*
X11957143Y-2068617D01*
X11957143Y-2068617D02*
X12033333Y-2106712D01*
X12033333Y-2106712D02*
X12071428Y-2144807D01*
X12071428Y-2144807D02*
X12109524Y-2220998D01*
X29933332Y-2487664D02*
X29971428Y-2525760D01*
X29971428Y-2525760D02*
X30085713Y-2563855D01*
X30085713Y-2563855D02*
X30161904Y-2563855D01*
X30161904Y-2563855D02*
X30276190Y-2525760D01*
X30276190Y-2525760D02*
X30352380Y-2449569D01*
X30352380Y-2449569D02*
X30390475Y-2373379D01*
X30390475Y-2373379D02*
X30428571Y-2220998D01*
X30428571Y-2220998D02*
X30428571Y-2106712D01*
X30428571Y-2106712D02*
X30390475Y-1954331D01*
X30390475Y-1954331D02*
X30352380Y-1878140D01*
X30352380Y-1878140D02*
X30276190Y-1801950D01*
X30276190Y-1801950D02*
X30161904Y-1763855D01*
X30161904Y-1763855D02*
X30085713Y-1763855D01*
X30085713Y-1763855D02*
X29971428Y-1801950D01*
X29971428Y-1801950D02*
X29933332Y-1840045D01*
X29552380Y-2563855D02*
X29399999Y-2563855D01*
X29399999Y-2563855D02*
X29323809Y-2525760D01*
X29323809Y-2525760D02*
X29285713Y-2487664D01*
X29285713Y-2487664D02*
X29209523Y-2373379D01*
X29209523Y-2373379D02*
X29171428Y-2220998D01*
X29171428Y-2220998D02*
X29171428Y-1916236D01*
X29171428Y-1916236D02*
X29209523Y-1840045D01*
X29209523Y-1840045D02*
X29247618Y-1801950D01*
X29247618Y-1801950D02*
X29323809Y-1763855D01*
X29323809Y-1763855D02*
X29476190Y-1763855D01*
X29476190Y-1763855D02*
X29552380Y-1801950D01*
X29552380Y-1801950D02*
X29590475Y-1840045D01*
X29590475Y-1840045D02*
X29628571Y-1916236D01*
X29628571Y-1916236D02*
X29628571Y-2106712D01*
X29628571Y-2106712D02*
X29590475Y-2182902D01*
X29590475Y-2182902D02*
X29552380Y-2220998D01*
X29552380Y-2220998D02*
X29476190Y-2259093D01*
X29476190Y-2259093D02*
X29323809Y-2259093D01*
X29323809Y-2259093D02*
X29247618Y-2220998D01*
X29247618Y-2220998D02*
X29209523Y-2182902D01*
X29209523Y-2182902D02*
X29171428Y-2106712D01*
%TO.C,J3*%
X5290000Y-26270000D02*
X5290000Y-23510000D01*
X53660000Y-23510000D02*
X5290000Y-23510000D01*
X53660000Y-26270000D02*
X5290000Y-26270000D01*
X53660000Y-26270000D02*
X53660000Y-23510000D01*
X54930000Y-26270000D02*
X56310000Y-26270000D01*
X56310000Y-26270000D02*
X56310000Y-24890000D01*
%TO.C,J2*%
X5290000Y-8270000D02*
X5290000Y-9650000D01*
X6670000Y-8270000D02*
X5290000Y-8270000D01*
X7940000Y-8270000D02*
X7940000Y-11030000D01*
X7940000Y-8270000D02*
X56310000Y-8270000D01*
X7940000Y-11030000D02*
X56310000Y-11030000D01*
X56310000Y-8270000D02*
X56310000Y-11030000D01*
%TD*%
%LPC*%
D11*
%TO.C,J4*%
X1590000Y-28700000D03*
D12*
X4130000Y-28700000D03*
X6670000Y-28700000D03*
X9210000Y-28700000D03*
X11750000Y-28700000D03*
X14290000Y-28700000D03*
X16830000Y-28700000D03*
X19370000Y-28700000D03*
X21910000Y-28700000D03*
X24450000Y-28700000D03*
X26990000Y-28700000D03*
X29530000Y-28700000D03*
X32070000Y-28700000D03*
X34610000Y-28700000D03*
X37150000Y-28700000D03*
X39690000Y-28700000D03*
X42230000Y-28700000D03*
X44770000Y-28700000D03*
X47310000Y-28700000D03*
X49850000Y-28700000D03*
X52390000Y-28700000D03*
X54930000Y-28700000D03*
X57470000Y-28700000D03*
X60010000Y-28700000D03*
%TD*%
D11*
%TO.C,J1*%
X1590000Y-5840000D03*
D12*
X4130000Y-5840000D03*
X6670000Y-5840000D03*
X9210000Y-5840000D03*
X11750000Y-5840000D03*
X14290000Y-5840000D03*
X16830000Y-5840000D03*
X19370000Y-5840000D03*
X21910000Y-5840000D03*
X24450000Y-5840000D03*
X26990000Y-5840000D03*
X29530000Y-5840000D03*
X32070000Y-5840000D03*
X34610000Y-5840000D03*
X37150000Y-5840000D03*
X39690000Y-5840000D03*
X42230000Y-5840000D03*
X44770000Y-5840000D03*
X47310000Y-5840000D03*
X49850000Y-5840000D03*
X52390000Y-5840000D03*
X54930000Y-5840000D03*
X57470000Y-5840000D03*
X60010000Y-5840000D03*
%TD*%
D11*
%TO.C,J3*%
X54930000Y-24890000D03*
D12*
X52390000Y-24890000D03*
X49850000Y-24890000D03*
X47310000Y-24890000D03*
X44770000Y-24890000D03*
X42230000Y-24890000D03*
X39690000Y-24890000D03*
X37150000Y-24890000D03*
X34610000Y-24890000D03*
X32070000Y-24890000D03*
X29530000Y-24890000D03*
X26990000Y-24890000D03*
X24450000Y-24890000D03*
X21910000Y-24890000D03*
X19370000Y-24890000D03*
X16830000Y-24890000D03*
X14290000Y-24890000D03*
X11750000Y-24890000D03*
X9210000Y-24890000D03*
X6670000Y-24890000D03*
%TD*%
D11*
%TO.C,J2*%
X6670000Y-9650000D03*
D12*
X9210000Y-9650000D03*
X11750000Y-9650000D03*
X14290000Y-9650000D03*
X16830000Y-9650000D03*
X19370000Y-9650000D03*
X21910000Y-9650000D03*
X24450000Y-9650000D03*
X26990000Y-9650000D03*
X29530000Y-9650000D03*
X32070000Y-9650000D03*
X34610000Y-9650000D03*
X37150000Y-9650000D03*
X39690000Y-9650000D03*
X42230000Y-9650000D03*
X44770000Y-9650000D03*
X47310000Y-9650000D03*
X49850000Y-9650000D03*
X52390000Y-9650000D03*
X54930000Y-9650000D03*
%TD*%
%LPD*%
M02*
