%TF.GenerationSoftware,KiCad,Pcbnew,10.0.4*%
%TF.CreationDate,2026-09-15T23:23:50-03:00*%
%TF.ProjectId,tia-fpga,7469612d-6670-4676-912e-6b696361645f,B*%
%TF.SameCoordinates,Original*%
%TF.FileFunction,Copper,L2,Bot*%
%TF.FilePolarity,Positive*%
%FSLAX46Y46*%
G04 Gerber Fmt 4.6, Leading zero omitted, Abs format (unit mm)*
G04 Created by KiCad (PCBNEW 10.0.4) date 2026-09-15 23:23:50*
%MOMM*%
%LPD*%
G01*
G04 APERTURE LIST*
%TA.AperFunction,ComponentPad*%
%ADD10R,1.700000X1.700000*%
%TD*%
%TA.AperFunction,ComponentPad*%
%ADD11C,1.700000*%
%TD*%
%TA.AperFunction,ViaPad*%
%ADD12C,0.600000*%
%TD*%
%TA.AperFunction,Conductor*%
%ADD13C,0.180000*%
%TD*%
G04 APERTURE END LIST*
D10*
%TO.P,J4,1*%
%TO.N,/F_PHI0*%
X1590000Y-28700000D03*
D11*
%TO.P,J4,2*%
%TO.N,/F_CS_N*%
X4130000Y-28700000D03*
%TO.P,J4,3*%
%TO.N,/F_RDY*%
X6670000Y-28700000D03*
%TO.P,J4,4*%
%TO.N,/F_CSYNC*%
X9210000Y-28700000D03*
%TO.P,J4,5*%
%TO.N,/F_LUM1*%
X11750000Y-28700000D03*
%TO.P,J4,6*%
%TO.N,/F_LUM2*%
X14290000Y-28700000D03*
%TO.P,J4,7*%
%TO.N,/F_BLK*%
X16830000Y-28700000D03*
%TO.P,J4,8*%
%TO.N,/F_I4*%
X19370000Y-28700000D03*
%TO.P,J4,9*%
%TO.N,/F_I5*%
X21910000Y-28700000D03*
%TO.P,J4,10*%
%TO.N,/F_A3*%
X24450000Y-28700000D03*
%TO.P,J4,11*%
%TO.N,/F_A0*%
X26990000Y-28700000D03*
%TO.P,J4,12*%
%TO.N,/F_A1*%
X29530000Y-28700000D03*
%TO.P,J4,13*%
%TO.N,/F_A2*%
X32070000Y-28700000D03*
%TO.P,J4,14*%
%TO.N,/F_A4*%
X34610000Y-28700000D03*
%TO.P,J4,15*%
%TO.N,/F_RW*%
X37150000Y-28700000D03*
%TO.P,J4,16*%
%TO.N,/F_D1*%
X39690000Y-28700000D03*
%TO.P,J4,17*%
%TO.N,/F_D0*%
X42230000Y-28700000D03*
%TO.P,J4,18*%
%TO.N,/F_D2*%
X44770000Y-28700000D03*
%TO.P,J4,19*%
%TO.N,/F_D3*%
X47310000Y-28700000D03*
%TO.P,J4,20*%
%TO.N,/F_D5*%
X49850000Y-28700000D03*
%TO.P,J4,21*%
%TO.N,/F_D7*%
X52390000Y-28700000D03*
%TO.P,J4,22*%
%TO.N,/F_D6*%
X54930000Y-28700000D03*
%TO.P,J4,23*%
%TO.N,unconnected-(J4-Pin_23-Pad23)*%
X57470000Y-28700000D03*
%TO.P,J4,24*%
%TO.N,unconnected-(J4-Pin_24-Pad24)*%
X60010000Y-28700000D03*
%TD*%
D10*
%TO.P,J1,1*%
%TO.N,/F_OSC*%
X1590000Y-5840000D03*
D11*
%TO.P,J1,2*%
%TO.N,unconnected-(J1-Pin_2-Pad2)*%
X4130000Y-5840000D03*
%TO.P,J1,3*%
%TO.N,unconnected-(J1-Pin_3-Pad3)*%
X6670000Y-5840000D03*
%TO.P,J1,4*%
%TO.N,unconnected-(J1-Pin_4-Pad4)*%
X9210000Y-5840000D03*
%TO.P,J1,5*%
%TO.N,unconnected-(J1-Pin_5-Pad5)*%
X11750000Y-5840000D03*
%TO.P,J1,6*%
%TO.N,unconnected-(J1-Pin_6-Pad6)*%
X14290000Y-5840000D03*
%TO.P,J1,7*%
%TO.N,unconnected-(J1-Pin_7-Pad7)*%
X16830000Y-5840000D03*
%TO.P,J1,8*%
%TO.N,unconnected-(J1-Pin_8-Pad8)*%
X19370000Y-5840000D03*
%TO.P,J1,9*%
%TO.N,unconnected-(J1-Pin_9-Pad9)*%
X21910000Y-5840000D03*
%TO.P,J1,10*%
%TO.N,/F_COL*%
X24450000Y-5840000D03*
%TO.P,J1,11*%
%TO.N,/F_LUM0*%
X26990000Y-5840000D03*
%TO.P,J1,12*%
%TO.N,unconnected-(J1-Pin_12-Pad12)*%
X29530000Y-5840000D03*
%TO.P,J1,13*%
%TO.N,unconnected-(J1-Pin_13-Pad13)*%
X32070000Y-5840000D03*
%TO.P,J1,14*%
%TO.N,unconnected-(J1-Pin_14-Pad14)*%
X34610000Y-5840000D03*
%TO.P,J1,15*%
%TO.N,unconnected-(J1-Pin_15-Pad15)*%
X37150000Y-5840000D03*
%TO.P,J1,16*%
%TO.N,unconnected-(J1-Pin_16-Pad16)*%
X39690000Y-5840000D03*
%TO.P,J1,17*%
%TO.N,unconnected-(J1-Pin_17-Pad17)*%
X42230000Y-5840000D03*
%TO.P,J1,18*%
%TO.N,/TN_5V*%
X44770000Y-5840000D03*
%TO.P,J1,19*%
%TO.N,/F_AU1*%
X47310000Y-5840000D03*
%TO.P,J1,20*%
%TO.N,/F_AU0*%
X49850000Y-5840000D03*
%TO.P,J1,21*%
%TO.N,/F_A5*%
X52390000Y-5840000D03*
%TO.P,J1,22*%
%TO.N,/F_D4*%
X54930000Y-5840000D03*
%TO.P,J1,23*%
%TO.N,GND*%
X57470000Y-5840000D03*
%TO.P,J1,24*%
%TO.N,+3V3*%
X60010000Y-5840000D03*
%TD*%
D10*
%TO.P,J3,1*%
%TO.N,/TIA_CS3_N*%
X54930000Y-24890000D03*
D11*
%TO.P,J3,2*%
%TO.N,GND*%
X52390000Y-24890000D03*
%TO.P,J3,3*%
%TO.N,+5V*%
X49850000Y-24890000D03*
%TO.P,J3,4*%
%TO.N,/TIA_CS0_N*%
X47310000Y-24890000D03*
%TO.P,J3,5*%
%TO.N,/TIA_RW*%
X44770000Y-24890000D03*
%TO.P,J3,6*%
%TO.N,/TIA_PHI2*%
X42230000Y-24890000D03*
%TO.P,J3,7*%
%TO.N,/TIA_A5*%
X39690000Y-24890000D03*
%TO.P,J3,8*%
%TO.N,/TIA_A4*%
X37150000Y-24890000D03*
%TO.P,J3,9*%
%TO.N,/TIA_A3*%
X34610000Y-24890000D03*
%TO.P,J3,10*%
%TO.N,/TIA_A2*%
X32070000Y-24890000D03*
%TO.P,J3,11*%
%TO.N,/TIA_A1*%
X29530000Y-24890000D03*
%TO.P,J3,12*%
%TO.N,/TIA_A0*%
X26990000Y-24890000D03*
%TO.P,J3,13*%
%TO.N,/TIA_D6*%
X24450000Y-24890000D03*
%TO.P,J3,14*%
%TO.N,/TIA_D7*%
X21910000Y-24890000D03*
%TO.P,J3,15*%
%TO.N,/TIA_I5*%
X19370000Y-24890000D03*
%TO.P,J3,16*%
%TO.N,/TIA_I4*%
X16830000Y-24890000D03*
%TO.P,J3,17*%
%TO.N,unconnected-(J3-Pin_17-Pad17)*%
X14290000Y-24890000D03*
%TO.P,J3,18*%
%TO.N,unconnected-(J3-Pin_18-Pad18)*%
X11750000Y-24890000D03*
%TO.P,J3,19*%
%TO.N,unconnected-(J3-Pin_19-Pad19)*%
X9210000Y-24890000D03*
%TO.P,J3,20*%
%TO.N,unconnected-(J3-Pin_20-Pad20)*%
X6670000Y-24890000D03*
%TD*%
D10*
%TO.P,J2,1*%
%TO.N,GND*%
X6670000Y-9650000D03*
D11*
%TO.P,J2,2*%
%TO.N,/TIA_CSYNC*%
X9210000Y-9650000D03*
%TO.P,J2,3*%
%TO.N,/TIA_RDY*%
X11750000Y-9650000D03*
%TO.P,J2,4*%
%TO.N,/TIA_PHI0*%
X14290000Y-9650000D03*
%TO.P,J2,5*%
%TO.N,/TIA_LUM1*%
X16830000Y-9650000D03*
%TO.P,J2,6*%
%TO.N,/TIA_BLK*%
X19370000Y-9650000D03*
%TO.P,J2,7*%
%TO.N,/TIA_LUM2*%
X21910000Y-9650000D03*
%TO.P,J2,8*%
%TO.N,/TIA_LUM0*%
X24450000Y-9650000D03*
%TO.P,J2,9*%
%TO.N,/TIA_COL*%
X26990000Y-9650000D03*
%TO.P,J2,10*%
%TO.N,unconnected-(J2-Pin_10-Pad10)*%
X29530000Y-9650000D03*
%TO.P,J2,11*%
%TO.N,/TIA_OSC*%
X32070000Y-9650000D03*
%TO.P,J2,12*%
%TO.N,/TIA_AU1*%
X34610000Y-9650000D03*
%TO.P,J2,13*%
%TO.N,/TIA_AU0*%
X37150000Y-9650000D03*
%TO.P,J2,14*%
%TO.N,/TIA_D0*%
X39690000Y-9650000D03*
%TO.P,J2,15*%
%TO.N,/TIA_D1*%
X42230000Y-9650000D03*
%TO.P,J2,16*%
%TO.N,/TIA_D2*%
X44770000Y-9650000D03*
%TO.P,J2,17*%
%TO.N,/TIA_D3*%
X47310000Y-9650000D03*
%TO.P,J2,18*%
%TO.N,/TIA_D4*%
X49850000Y-9650000D03*
%TO.P,J2,19*%
%TO.N,/TIA_D5*%
X52390000Y-9650000D03*
%TO.P,J2,20*%
%TO.N,+5V*%
X54930000Y-9650000D03*
%TD*%
D12*
%TO.N,GND*%
X52444200Y-814200D03*
X9877200Y-11201000D03*
X4697400Y-2200000D03*
X39515000Y-21629900D03*
X50612400Y-32040000D03*
%TO.N,/F_CS_N*%
X3798900Y-3269500D03*
X5979600Y-16676000D03*
%TO.N,+3V3*%
X13836000Y-4368700D03*
X36800000Y-2155900D03*
X27110400Y-12702100D03*
X9739100Y-1129700D03*
X26609200Y-32987700D03*
%TO.N,/F_CSYNC*%
X10851800Y-4747800D03*
%TO.N,/F_LUM1*%
X11312800Y-3887100D03*
%TO.N,/F_LUM2*%
X17012700Y-3345300D03*
%TO.N,/F_BLK*%
X17050800Y-1145800D03*
%TO.N,/F_I4*%
X18611800Y-11309200D03*
%TO.N,/F_I5*%
X21025400Y-11325800D03*
%TO.N,/F_A3*%
X25333000Y-15509500D03*
%TO.N,/F_A0*%
X30645100Y-14118600D03*
%TO.N,/F_A1*%
X31924900Y-14102400D03*
%TO.N,/F_A2*%
X33374000Y-14078100D03*
%TO.N,/F_A4*%
X36019500Y-14087600D03*
%TO.N,/F_RW*%
X40251000Y-13470200D03*
%TO.N,/TIA_CS0_N*%
X38877200Y-26582300D03*
%TO.N,/TIA_CS3_N*%
X16625000Y-23404800D03*
%TO.N,/TIA_OSC*%
X26198700Y-23118100D03*
%TO.N,/F_AU1*%
X34556300Y-1203400D03*
%TO.N,/TIA_AU0*%
X38927400Y-3659800D03*
%TO.N,/TIA_AU1*%
X39047300Y-1529900D03*
%TO.N,/TIA_D7*%
X22788200Y-20052200D03*
%TO.N,/TIA_D6*%
X24924400Y-19477900D03*
%TO.N,/TIA_D0*%
X41087200Y-11047200D03*
%TO.N,/TIA_PHI0*%
X10416900Y-7502800D03*
X5161800Y-18554200D03*
%TO.N,/TIA_RDY*%
X8917900Y-20987300D03*
%TO.N,/TIA_CSYNC*%
X12335400Y-1251600D03*
%TO.N,/TIA_RW*%
X38532300Y-23385300D03*
%TO.N,/TIA_PHI2*%
X40474700Y-23491600D03*
%TD*%
%TO.N,GND*%
D13*
X6670000Y-9650000D02*
X7741700Y-9650000D01*
X57470000Y-5840000D02*
X57470000Y-19810000D01*
X5598300Y-3100900D02*
X4697400Y-2200000D01*
X57470000Y-5840000D02*
X52444200Y-814200D01*
X6670000Y-9650000D02*
X6670000Y-8578300D01*
X6670000Y-8578300D02*
X5598300Y-7506600D01*
X57470000Y-19810000D02*
X52390000Y-24890000D01*
X5598300Y-7506600D02*
X5598300Y-3100900D01*
X7741700Y-9650000D02*
X7741700Y-9784000D01*
X7741700Y-9784000D02*
X9158700Y-11201000D01*
X9158700Y-11201000D02*
X9877200Y-11201000D01*
%TO.N,/F_CS_N*%
X4130000Y-16676200D02*
X4130000Y-28700000D01*
X3033500Y-4034900D02*
X3033500Y-15579700D01*
X4130000Y-16676200D02*
X5979400Y-16676200D01*
X3798900Y-3269500D02*
X3033500Y-4034900D01*
X5979400Y-16676200D02*
X5979600Y-16676000D01*
X3033500Y-15579700D02*
X4130000Y-16676200D01*
%TO.N,+3V3*%
X12622800Y-729800D02*
X10139000Y-729800D01*
X13836000Y-1943000D02*
X12622800Y-729800D01*
X27995100Y-12702100D02*
X30800100Y-9897100D01*
X25871000Y-32249500D02*
X26609200Y-32987700D01*
X13836000Y-4368700D02*
X13836000Y-1943000D01*
X10139000Y-729800D02*
X9739100Y-1129700D01*
X33340100Y-5523300D02*
X36707500Y-2155900D01*
X25871000Y-22708000D02*
X25677000Y-22902000D01*
X36707500Y-2155900D02*
X36800000Y-2155900D01*
X27110400Y-12702100D02*
X27995100Y-12702100D01*
X25677000Y-22902000D02*
X25677000Y-23334200D01*
X33340100Y-6800000D02*
X33340100Y-5523300D01*
X25677000Y-23334200D02*
X25871000Y-23528200D01*
X25871000Y-23528200D02*
X25871000Y-32249500D01*
X27110400Y-12702100D02*
X25871000Y-13941500D01*
X30800100Y-9897100D02*
X30800100Y-9340000D01*
X30800100Y-9340000D02*
X33340100Y-6800000D01*
X25871000Y-13941500D02*
X25871000Y-22708000D01*
%TO.N,+5V*%
X54930000Y-9650000D02*
X49850000Y-14730000D01*
X49850000Y-14730000D02*
X49850000Y-24890000D01*
%TO.N,/F_CSYNC*%
X10645600Y-4954000D02*
X10645600Y-6432000D01*
X12821700Y-8608100D02*
X12821700Y-19758300D01*
X10851800Y-4747800D02*
X10645600Y-4954000D01*
X10645600Y-6432000D02*
X12821700Y-8608100D01*
X10480000Y-27430000D02*
X9210000Y-28700000D01*
X12821700Y-19758300D02*
X10480000Y-22100000D01*
X10480000Y-22100000D02*
X10480000Y-27430000D01*
%TO.N,/F_LUM1*%
X13133400Y-5707700D02*
X11312800Y-3887100D01*
X11750000Y-28700000D02*
X13133400Y-27316600D01*
X13133400Y-27316600D02*
X13133400Y-5707700D01*
%TO.N,/F_LUM2*%
X15362900Y-27627100D02*
X15362900Y-4995100D01*
X14290000Y-28700000D02*
X15362900Y-27627100D01*
X15362900Y-4995100D02*
X17012700Y-3345300D01*
%TO.N,/F_BLK*%
X17901700Y-1996700D02*
X17050800Y-1145800D01*
X17901700Y-27628300D02*
X17901700Y-1996700D01*
X16830000Y-28700000D02*
X17901700Y-27628300D01*
%TO.N,/F_I4*%
X19370000Y-28700000D02*
X18261300Y-27591300D01*
X18261300Y-27591300D02*
X18261300Y-11659700D01*
X18261300Y-11659700D02*
X18611800Y-11309200D01*
%TO.N,/F_I5*%
X20814800Y-27604800D02*
X21910000Y-28700000D01*
X21025400Y-11325800D02*
X20814800Y-11536400D01*
X20814800Y-11536400D02*
X20814800Y-27604800D01*
%TO.N,/F_A3*%
X25365300Y-22772800D02*
X25365300Y-23463400D01*
X25452900Y-22685200D02*
X25365300Y-22772800D01*
X25540500Y-27609500D02*
X24450000Y-28700000D01*
X25333000Y-15509500D02*
X25452900Y-15629400D01*
X25452900Y-15629400D02*
X25452900Y-22685200D01*
X25365300Y-23463400D02*
X25540500Y-23638600D01*
X25540500Y-23638600D02*
X25540500Y-27609500D01*
%TO.N,/F_A0*%
X28260000Y-16503700D02*
X30645100Y-14118600D01*
X28260000Y-27430000D02*
X28260000Y-16503700D01*
X26990000Y-28700000D02*
X28260000Y-27430000D01*
%TO.N,/F_A1*%
X30897600Y-27332400D02*
X30897600Y-15129700D01*
X30897600Y-15129700D02*
X31924900Y-14102400D01*
X29530000Y-28700000D02*
X30897600Y-27332400D01*
%TO.N,/F_A2*%
X32070000Y-28700000D02*
X33374000Y-27396000D01*
X33374000Y-27396000D02*
X33374000Y-14078100D01*
%TO.N,/F_A4*%
X34610000Y-28700000D02*
X36019500Y-27290500D01*
X36019500Y-27290500D02*
X36019500Y-14087600D01*
%TO.N,/F_RW*%
X37987900Y-15733300D02*
X40251000Y-13470200D01*
X38244900Y-24307700D02*
X37987900Y-24050700D01*
X37987900Y-24050700D02*
X37987900Y-15733300D01*
X38244900Y-27605100D02*
X38244900Y-24307700D01*
X37150000Y-28700000D02*
X38244900Y-27605100D01*
%TO.N,/TIA_CS0_N*%
X47310000Y-24890000D02*
X45617700Y-26582300D01*
X45617700Y-26582300D02*
X38877200Y-26582300D01*
%TO.N,/TIA_CS3_N*%
X20130200Y-33516600D02*
X15758300Y-29144700D01*
X46040000Y-28990100D02*
X41513500Y-33516600D01*
X48461700Y-25961700D02*
X46040000Y-28383400D01*
X46040000Y-28383400D02*
X46040000Y-28990100D01*
X54930000Y-24890000D02*
X53858300Y-24890000D01*
X53858300Y-24890000D02*
X53858300Y-25024100D01*
X52920700Y-25961700D02*
X48461700Y-25961700D01*
X41513500Y-33516600D02*
X20130200Y-33516600D01*
X15758300Y-24271500D02*
X16625000Y-23404800D01*
X15758300Y-29144700D02*
X15758300Y-24271500D01*
X53858300Y-25024100D02*
X52920700Y-25961700D01*
%TO.N,/TIA_OSC*%
X26198700Y-23118100D02*
X26198700Y-15521300D01*
X26198700Y-15521300D02*
X32070000Y-9650000D01*
%TO.N,/F_AU1*%
X47310000Y-5840000D02*
X42468400Y-998400D01*
X42468400Y-998400D02*
X34761300Y-998400D01*
X34761300Y-998400D02*
X34556300Y-1203400D01*
%TO.N,/TIA_AU0*%
X38221700Y-4365500D02*
X38927400Y-3659800D01*
X37150000Y-9650000D02*
X38221700Y-8578300D01*
X38221700Y-8578300D02*
X38221700Y-4365500D01*
%TO.N,/TIA_AU1*%
X35880000Y-4697200D02*
X39047300Y-1529900D01*
X34610000Y-9650000D02*
X35880000Y-8380000D01*
X35880000Y-8380000D02*
X35880000Y-4697200D01*
%TO.N,/TIA_D7*%
X21910000Y-20930400D02*
X22788200Y-20052200D01*
X21910000Y-24890000D02*
X21910000Y-20930400D01*
%TO.N,/TIA_D6*%
X24450000Y-19952300D02*
X24924400Y-19477900D01*
X24450000Y-24890000D02*
X24450000Y-19952300D01*
%TO.N,/TIA_D0*%
X39690000Y-9650000D02*
X41087200Y-11047200D01*
%TO.N,/TIA_PHI0*%
X10416900Y-13299100D02*
X5161800Y-18554200D01*
X10416900Y-7502800D02*
X10416900Y-13299100D01*
%TO.N,/TIA_RDY*%
X11750000Y-9650000D02*
X11750000Y-18155200D01*
X11750000Y-18155200D02*
X8917900Y-20987300D01*
%TO.N,/TIA_CSYNC*%
X9210000Y-7624900D02*
X10300100Y-6534800D01*
X9210000Y-9650000D02*
X9210000Y-7624900D01*
X10300100Y-6534800D02*
X10300100Y-3286900D01*
X10300100Y-3286900D02*
X12335400Y-1251600D01*
%TO.N,/TIA_RW*%
X38981200Y-22936400D02*
X38532300Y-23385300D01*
X44770000Y-24890000D02*
X42816400Y-22936400D01*
X42816400Y-22936400D02*
X38981200Y-22936400D01*
%TO.N,/TIA_PHI2*%
X40831600Y-23491600D02*
X40474700Y-23491600D01*
X42230000Y-24890000D02*
X40831600Y-23491600D01*
%TD*%
%TA.AperFunction,Conductor*%
%TO.N,GND*%
G36*
X61058691Y-519407D02*
G01*
X61094655Y-568907D01*
X61099500Y-599500D01*
X61099500Y-5162594D01*
X61080593Y-5220785D01*
X61031093Y-5256749D01*
X60969907Y-5256749D01*
X60920408Y-5220785D01*
X60849418Y-5123077D01*
X60849416Y-5123075D01*
X60849414Y-5123072D01*
X60726928Y-5000586D01*
X60586788Y-4898768D01*
X60586787Y-4898767D01*
X60586785Y-4898766D01*
X60432441Y-4820125D01*
X60432438Y-4820123D01*
X60267706Y-4766598D01*
X60267702Y-4766597D01*
X60096614Y-4739500D01*
X60096611Y-4739500D01*
X59923389Y-4739500D01*
X59923386Y-4739500D01*
X59752297Y-4766597D01*
X59752293Y-4766598D01*
X59587561Y-4820123D01*
X59587558Y-4820125D01*
X59433214Y-4898766D01*
X59293073Y-5000585D01*
X59170585Y-5123073D01*
X59068766Y-5263214D01*
X58990125Y-5417558D01*
X58990123Y-5417561D01*
X58936598Y-5582293D01*
X58936597Y-5582297D01*
X58909501Y-5753378D01*
X58909500Y-5753384D01*
X58909500Y-5926614D01*
X58936597Y-6097702D01*
X58936598Y-6097706D01*
X58990123Y-6262438D01*
X58990125Y-6262441D01*
X59068765Y-6416784D01*
X59068768Y-6416788D01*
X59170586Y-6556928D01*
X59293072Y-6679414D01*
X59433212Y-6781232D01*
X59587555Y-6859873D01*
X59587557Y-6859873D01*
X59587558Y-6859874D01*
X59587561Y-6859876D01*
X59752293Y-6913401D01*
X59752297Y-6913402D01*
X59923386Y-6940500D01*
X59923389Y-6940500D01*
X60096614Y-6940500D01*
X60267702Y-6913402D01*
X60267706Y-6913401D01*
X60432438Y-6859876D01*
X60432440Y-6859874D01*
X60432445Y-6859873D01*
X60586788Y-6781232D01*
X60726928Y-6679414D01*
X60849414Y-6556928D01*
X60920408Y-6459213D01*
X60969907Y-6423250D01*
X61031093Y-6423250D01*
X61080593Y-6459214D01*
X61099500Y-6517405D01*
X61099500Y-28022594D01*
X61080593Y-28080785D01*
X61031093Y-28116749D01*
X60969907Y-28116749D01*
X60920408Y-28080785D01*
X60849418Y-27983077D01*
X60849416Y-27983075D01*
X60849414Y-27983072D01*
X60726928Y-27860586D01*
X60586788Y-27758768D01*
X60586787Y-27758767D01*
X60586785Y-27758766D01*
X60432441Y-27680125D01*
X60432438Y-27680123D01*
X60267706Y-27626598D01*
X60267702Y-27626597D01*
X60096614Y-27599500D01*
X60096611Y-27599500D01*
X59923389Y-27599500D01*
X59923386Y-27599500D01*
X59752297Y-27626597D01*
X59752293Y-27626598D01*
X59587561Y-27680123D01*
X59587558Y-27680125D01*
X59433214Y-27758766D01*
X59293073Y-27860585D01*
X59170585Y-27983073D01*
X59068766Y-28123214D01*
X58990125Y-28277558D01*
X58990123Y-28277561D01*
X58936598Y-28442293D01*
X58936597Y-28442297D01*
X58909500Y-28613385D01*
X58909500Y-28786614D01*
X58936597Y-28957702D01*
X58936598Y-28957706D01*
X58990123Y-29122438D01*
X58990125Y-29122441D01*
X59068765Y-29276784D01*
X59068768Y-29276788D01*
X59170586Y-29416928D01*
X59293072Y-29539414D01*
X59433212Y-29641232D01*
X59587555Y-29719873D01*
X59587557Y-29719873D01*
X59587558Y-29719874D01*
X59587561Y-29719876D01*
X59752293Y-29773401D01*
X59752297Y-29773402D01*
X59923386Y-29800500D01*
X59923389Y-29800500D01*
X60096614Y-29800500D01*
X60267702Y-29773402D01*
X60267706Y-29773401D01*
X60432438Y-29719876D01*
X60432440Y-29719874D01*
X60432445Y-29719873D01*
X60586788Y-29641232D01*
X60726928Y-29539414D01*
X60849414Y-29416928D01*
X60920408Y-29319213D01*
X60969907Y-29283250D01*
X61031093Y-29283250D01*
X61080593Y-29319214D01*
X61099500Y-29377405D01*
X61099500Y-33940500D01*
X61080593Y-33998691D01*
X61031093Y-34034655D01*
X61000500Y-34039500D01*
X41629580Y-34039500D01*
X41571389Y-34020593D01*
X41535425Y-33971093D01*
X41535425Y-33909907D01*
X41571389Y-33860407D01*
X41603956Y-33844874D01*
X41644924Y-33833896D01*
X41644923Y-33833896D01*
X41644928Y-33833895D01*
X41722572Y-33789068D01*
X46230452Y-29281185D01*
X46284967Y-29253410D01*
X46345399Y-29262981D01*
X46380546Y-29292999D01*
X46470586Y-29416928D01*
X46593072Y-29539414D01*
X46733212Y-29641232D01*
X46887555Y-29719873D01*
X46887557Y-29719873D01*
X46887558Y-29719874D01*
X46887561Y-29719876D01*
X47052293Y-29773401D01*
X47052297Y-29773402D01*
X47223386Y-29800500D01*
X47223389Y-29800500D01*
X47396614Y-29800500D01*
X47567702Y-29773402D01*
X47567706Y-29773401D01*
X47732438Y-29719876D01*
X47732440Y-29719874D01*
X47732445Y-29719873D01*
X47886788Y-29641232D01*
X48026928Y-29539414D01*
X48149414Y-29416928D01*
X48251232Y-29276788D01*
X48329873Y-29122445D01*
X48329874Y-29122440D01*
X48329876Y-29122438D01*
X48383401Y-28957706D01*
X48383402Y-28957702D01*
X48410500Y-28786614D01*
X48410500Y-28613385D01*
X48749500Y-28613385D01*
X48749500Y-28786614D01*
X48776597Y-28957702D01*
X48776598Y-28957706D01*
X48830123Y-29122438D01*
X48830125Y-29122441D01*
X48908765Y-29276784D01*
X48908768Y-29276788D01*
X49010586Y-29416928D01*
X49133072Y-29539414D01*
X49273212Y-29641232D01*
X49427555Y-29719873D01*
X49427557Y-29719873D01*
X49427558Y-29719874D01*
X49427561Y-29719876D01*
X49592293Y-29773401D01*
X49592297Y-29773402D01*
X49763386Y-29800500D01*
X49763389Y-29800500D01*
X49936614Y-29800500D01*
X50107702Y-29773402D01*
X50107706Y-29773401D01*
X50272438Y-29719876D01*
X50272440Y-29719874D01*
X50272445Y-29719873D01*
X50426788Y-29641232D01*
X50566928Y-29539414D01*
X50689414Y-29416928D01*
X50791232Y-29276788D01*
X50869873Y-29122445D01*
X50869874Y-29122440D01*
X50869876Y-29122438D01*
X50923401Y-28957706D01*
X50923402Y-28957702D01*
X50950500Y-28786614D01*
X50950500Y-28613385D01*
X51289500Y-28613385D01*
X51289500Y-28786614D01*
X51316597Y-28957702D01*
X51316598Y-28957706D01*
X51370123Y-29122438D01*
X51370125Y-29122441D01*
X51448765Y-29276784D01*
X51448768Y-29276788D01*
X51550586Y-29416928D01*
X51673072Y-29539414D01*
X51813212Y-29641232D01*
X51967555Y-29719873D01*
X51967557Y-29719873D01*
X51967558Y-29719874D01*
X51967561Y-29719876D01*
X52132293Y-29773401D01*
X52132297Y-29773402D01*
X52303386Y-29800500D01*
X52303389Y-29800500D01*
X52476614Y-29800500D01*
X52647702Y-29773402D01*
X52647706Y-29773401D01*
X52812438Y-29719876D01*
X52812440Y-29719874D01*
X52812445Y-29719873D01*
X52966788Y-29641232D01*
X53106928Y-29539414D01*
X53229414Y-29416928D01*
X53331232Y-29276788D01*
X53409873Y-29122445D01*
X53409874Y-29122440D01*
X53409876Y-29122438D01*
X53463401Y-28957706D01*
X53463402Y-28957702D01*
X53490500Y-28786614D01*
X53490500Y-28613385D01*
X53829500Y-28613385D01*
X53829500Y-28786614D01*
X53856597Y-28957702D01*
X53856598Y-28957706D01*
X53910123Y-29122438D01*
X53910125Y-29122441D01*
X53988765Y-29276784D01*
X53988768Y-29276788D01*
X54090586Y-29416928D01*
X54213072Y-29539414D01*
X54353212Y-29641232D01*
X54507555Y-29719873D01*
X54507557Y-29719873D01*
X54507558Y-29719874D01*
X54507561Y-29719876D01*
X54672293Y-29773401D01*
X54672297Y-29773402D01*
X54843386Y-29800500D01*
X54843389Y-29800500D01*
X55016614Y-29800500D01*
X55187702Y-29773402D01*
X55187706Y-29773401D01*
X55352438Y-29719876D01*
X55352440Y-29719874D01*
X55352445Y-29719873D01*
X55506788Y-29641232D01*
X55646928Y-29539414D01*
X55769414Y-29416928D01*
X55871232Y-29276788D01*
X55949873Y-29122445D01*
X55949874Y-29122440D01*
X55949876Y-29122438D01*
X56003401Y-28957706D01*
X56003402Y-28957702D01*
X56030500Y-28786614D01*
X56030500Y-28613385D01*
X56369500Y-28613385D01*
X56369500Y-28786614D01*
X56396597Y-28957702D01*
X56396598Y-28957706D01*
X56450123Y-29122438D01*
X56450125Y-29122441D01*
X56528765Y-29276784D01*
X56528768Y-29276788D01*
X56630586Y-29416928D01*
X56753072Y-29539414D01*
X56893212Y-29641232D01*
X57047555Y-29719873D01*
X57047557Y-29719873D01*
X57047558Y-29719874D01*
X57047561Y-29719876D01*
X57212293Y-29773401D01*
X57212297Y-29773402D01*
X57383386Y-29800500D01*
X57383389Y-29800500D01*
X57556614Y-29800500D01*
X57727702Y-29773402D01*
X57727706Y-29773401D01*
X57892438Y-29719876D01*
X57892440Y-29719874D01*
X57892445Y-29719873D01*
X58046788Y-29641232D01*
X58186928Y-29539414D01*
X58309414Y-29416928D01*
X58411232Y-29276788D01*
X58489873Y-29122445D01*
X58489874Y-29122440D01*
X58489876Y-29122438D01*
X58543401Y-28957706D01*
X58543402Y-28957702D01*
X58570500Y-28786614D01*
X58570500Y-28613385D01*
X58543402Y-28442297D01*
X58543401Y-28442293D01*
X58489876Y-28277561D01*
X58489874Y-28277558D01*
X58489873Y-28277557D01*
X58489873Y-28277555D01*
X58411232Y-28123212D01*
X58309414Y-27983072D01*
X58186928Y-27860586D01*
X58046788Y-27758768D01*
X58046787Y-27758767D01*
X58046785Y-27758766D01*
X57892441Y-27680125D01*
X57892438Y-27680123D01*
X57727706Y-27626598D01*
X57727702Y-27626597D01*
X57556614Y-27599500D01*
X57556611Y-27599500D01*
X57383389Y-27599500D01*
X57383386Y-27599500D01*
X57212297Y-27626597D01*
X57212293Y-27626598D01*
X57047561Y-27680123D01*
X57047558Y-27680125D01*
X56893214Y-27758766D01*
X56753073Y-27860585D01*
X56630585Y-27983073D01*
X56528766Y-28123214D01*
X56450125Y-28277558D01*
X56450123Y-28277561D01*
X56396598Y-28442293D01*
X56396597Y-28442297D01*
X56369500Y-28613385D01*
X56030500Y-28613385D01*
X56003402Y-28442297D01*
X56003401Y-28442293D01*
X55949876Y-28277561D01*
X55949874Y-28277558D01*
X55949873Y-28277557D01*
X55949873Y-28277555D01*
X55871232Y-28123212D01*
X55769414Y-27983072D01*
X55646928Y-27860586D01*
X55506788Y-27758768D01*
X55506787Y-27758767D01*
X55506785Y-27758766D01*
X55352441Y-27680125D01*
X55352438Y-27680123D01*
X55187706Y-27626598D01*
X55187702Y-27626597D01*
X55016614Y-27599500D01*
X55016611Y-27599500D01*
X54843389Y-27599500D01*
X54843386Y-27599500D01*
X54672297Y-27626597D01*
X54672293Y-27626598D01*
X54507561Y-27680123D01*
X54507558Y-27680125D01*
X54353214Y-27758766D01*
X54213073Y-27860585D01*
X54090585Y-27983073D01*
X53988766Y-28123214D01*
X53910125Y-28277558D01*
X53910123Y-28277561D01*
X53856598Y-28442293D01*
X53856597Y-28442297D01*
X53829500Y-28613385D01*
X53490500Y-28613385D01*
X53463402Y-28442297D01*
X53463401Y-28442293D01*
X53409876Y-28277561D01*
X53409874Y-28277558D01*
X53409873Y-28277557D01*
X53409873Y-28277555D01*
X53331232Y-28123212D01*
X53229414Y-27983072D01*
X53106928Y-27860586D01*
X52966788Y-27758768D01*
X52966787Y-27758767D01*
X52966785Y-27758766D01*
X52812441Y-27680125D01*
X52812438Y-27680123D01*
X52647706Y-27626598D01*
X52647702Y-27626597D01*
X52476614Y-27599500D01*
X52476611Y-27599500D01*
X52303389Y-27599500D01*
X52303386Y-27599500D01*
X52132297Y-27626597D01*
X52132293Y-27626598D01*
X51967561Y-27680123D01*
X51967558Y-27680125D01*
X51813214Y-27758766D01*
X51673073Y-27860585D01*
X51550585Y-27983073D01*
X51448766Y-28123214D01*
X51370125Y-28277558D01*
X51370123Y-28277561D01*
X51316598Y-28442293D01*
X51316597Y-28442297D01*
X51289500Y-28613385D01*
X50950500Y-28613385D01*
X50923402Y-28442297D01*
X50923401Y-28442293D01*
X50869876Y-28277561D01*
X50869874Y-28277558D01*
X50869873Y-28277557D01*
X50869873Y-28277555D01*
X50791232Y-28123212D01*
X50689414Y-27983072D01*
X50566928Y-27860586D01*
X50426788Y-27758768D01*
X50426787Y-27758767D01*
X50426785Y-27758766D01*
X50272441Y-27680125D01*
X50272438Y-27680123D01*
X50107706Y-27626598D01*
X50107702Y-27626597D01*
X49936614Y-27599500D01*
X49936611Y-27599500D01*
X49763389Y-27599500D01*
X49763386Y-27599500D01*
X49592297Y-27626597D01*
X49592293Y-27626598D01*
X49427561Y-27680123D01*
X49427558Y-27680125D01*
X49273214Y-27758766D01*
X49133073Y-27860585D01*
X49010585Y-27983073D01*
X48908766Y-28123214D01*
X48830125Y-28277558D01*
X48830123Y-28277561D01*
X48776598Y-28442293D01*
X48776597Y-28442297D01*
X48749500Y-28613385D01*
X48410500Y-28613385D01*
X48383402Y-28442297D01*
X48383401Y-28442293D01*
X48329876Y-28277561D01*
X48329874Y-28277558D01*
X48329873Y-28277557D01*
X48329873Y-28277555D01*
X48251232Y-28123212D01*
X48149414Y-27983072D01*
X48026928Y-27860586D01*
X47886788Y-27758768D01*
X47886787Y-27758767D01*
X47886785Y-27758766D01*
X47732441Y-27680125D01*
X47732438Y-27680123D01*
X47567706Y-27626598D01*
X47567703Y-27626597D01*
X47509812Y-27617428D01*
X47455295Y-27589650D01*
X47427519Y-27535133D01*
X47437091Y-27474701D01*
X47455293Y-27449646D01*
X48573744Y-26331196D01*
X48628261Y-26303419D01*
X48643748Y-26302200D01*
X52965529Y-26302200D01*
X52965529Y-26302199D01*
X53052128Y-26278995D01*
X53129772Y-26234168D01*
X53660848Y-25703090D01*
X53715363Y-25675315D01*
X53775795Y-25684886D01*
X53819060Y-25728151D01*
X53828362Y-25759940D01*
X53828550Y-25759903D01*
X53828970Y-25762016D01*
X53829373Y-25763392D01*
X53829499Y-25764675D01*
X53844033Y-25837736D01*
X53844035Y-25837742D01*
X53899397Y-25920599D01*
X53899399Y-25920601D01*
X53982260Y-25975966D01*
X54037808Y-25987015D01*
X54055315Y-25990498D01*
X54055320Y-25990498D01*
X54055326Y-25990500D01*
X54055327Y-25990500D01*
X55804673Y-25990500D01*
X55804674Y-25990500D01*
X55877740Y-25975966D01*
X55960601Y-25920601D01*
X56015966Y-25837740D01*
X56030500Y-25764674D01*
X56030500Y-24015326D01*
X56015966Y-23942260D01*
X55992026Y-23906430D01*
X55960602Y-23859400D01*
X55960599Y-23859397D01*
X55877742Y-23804035D01*
X55877740Y-23804034D01*
X55877737Y-23804033D01*
X55877736Y-23804033D01*
X55804684Y-23789501D01*
X55804674Y-23789500D01*
X54055326Y-23789500D01*
X54055325Y-23789500D01*
X54055315Y-23789501D01*
X53982263Y-23804033D01*
X53982257Y-23804035D01*
X53899400Y-23859397D01*
X53899397Y-23859400D01*
X53844035Y-23942257D01*
X53844033Y-23942263D01*
X53829501Y-24015315D01*
X53829500Y-24015327D01*
X53829500Y-24469240D01*
X53810593Y-24527431D01*
X53774232Y-24558057D01*
X53765509Y-24562351D01*
X53726872Y-24572705D01*
X53649228Y-24617532D01*
X53645142Y-24621617D01*
X53632905Y-24627643D01*
X53611826Y-24630686D01*
X53591745Y-24637793D01*
X53582199Y-24634963D01*
X53572347Y-24636386D01*
X53553504Y-24626457D01*
X53533083Y-24620404D01*
X53527023Y-24612503D01*
X53518216Y-24607863D01*
X53508808Y-24588755D01*
X53495845Y-24571855D01*
X53495018Y-24569418D01*
X53455749Y-24448559D01*
X53373571Y-24287275D01*
X53332330Y-24230511D01*
X52858019Y-24704821D01*
X52855925Y-24697007D01*
X52790099Y-24582993D01*
X52697007Y-24489901D01*
X52582993Y-24424075D01*
X52575174Y-24421980D01*
X53049488Y-23947667D01*
X52992728Y-23906430D01*
X52831440Y-23824250D01*
X52659289Y-23768316D01*
X52480510Y-23740000D01*
X52299490Y-23740000D01*
X52120710Y-23768316D01*
X51948559Y-23824250D01*
X51787267Y-23906432D01*
X51730510Y-23947667D01*
X52204823Y-24421980D01*
X52197007Y-24424075D01*
X52082993Y-24489901D01*
X51989901Y-24582993D01*
X51924075Y-24697007D01*
X51921980Y-24704823D01*
X51447667Y-24230510D01*
X51406432Y-24287267D01*
X51324250Y-24448559D01*
X51268316Y-24620710D01*
X51240000Y-24799489D01*
X51240000Y-24980510D01*
X51268316Y-25159289D01*
X51324250Y-25331440D01*
X51398547Y-25477255D01*
X51408118Y-25537687D01*
X51380341Y-25592204D01*
X51325824Y-25619981D01*
X51310337Y-25621200D01*
X50873344Y-25621200D01*
X50815153Y-25602293D01*
X50779189Y-25552793D01*
X50779189Y-25491607D01*
X50789915Y-25470539D01*
X50789201Y-25470102D01*
X50791231Y-25466789D01*
X50791232Y-25466788D01*
X50869873Y-25312445D01*
X50869874Y-25312440D01*
X50869876Y-25312438D01*
X50923401Y-25147706D01*
X50923402Y-25147702D01*
X50950500Y-24976614D01*
X50950500Y-24803385D01*
X50923402Y-24632297D01*
X50923401Y-24632293D01*
X50869876Y-24467561D01*
X50869874Y-24467558D01*
X50869873Y-24467557D01*
X50869873Y-24467555D01*
X50791232Y-24313212D01*
X50689414Y-24173072D01*
X50566928Y-24050586D01*
X50426788Y-23948768D01*
X50426787Y-23948767D01*
X50426785Y-23948766D01*
X50272447Y-23870128D01*
X50272446Y-23870127D01*
X50272445Y-23870127D01*
X50258905Y-23865727D01*
X50209406Y-23829763D01*
X50190500Y-23771574D01*
X50190500Y-14912047D01*
X50209407Y-14853856D01*
X50219490Y-14842049D01*
X54379924Y-10681614D01*
X54434439Y-10653839D01*
X54494871Y-10663410D01*
X54494872Y-10663411D01*
X54507553Y-10669872D01*
X54507561Y-10669876D01*
X54672293Y-10723401D01*
X54672297Y-10723402D01*
X54843386Y-10750500D01*
X54843389Y-10750500D01*
X55016614Y-10750500D01*
X55187702Y-10723402D01*
X55187706Y-10723401D01*
X55352438Y-10669876D01*
X55352440Y-10669874D01*
X55352445Y-10669873D01*
X55506788Y-10591232D01*
X55646928Y-10489414D01*
X55769414Y-10366928D01*
X55871232Y-10226788D01*
X55949873Y-10072445D01*
X55949874Y-10072440D01*
X55949876Y-10072438D01*
X56003401Y-9907706D01*
X56003402Y-9907702D01*
X56030500Y-9736614D01*
X56030500Y-9563385D01*
X56003402Y-9392297D01*
X56003401Y-9392293D01*
X55949876Y-9227561D01*
X55949874Y-9227558D01*
X55949873Y-9227557D01*
X55949873Y-9227555D01*
X55871232Y-9073212D01*
X55769414Y-8933072D01*
X55646928Y-8810586D01*
X55506788Y-8708768D01*
X55506787Y-8708767D01*
X55506785Y-8708766D01*
X55352441Y-8630125D01*
X55352438Y-8630123D01*
X55187706Y-8576598D01*
X55187702Y-8576597D01*
X55016614Y-8549500D01*
X55016611Y-8549500D01*
X54843389Y-8549500D01*
X54843386Y-8549500D01*
X54672297Y-8576597D01*
X54672293Y-8576598D01*
X54507561Y-8630123D01*
X54507558Y-8630125D01*
X54353214Y-8708766D01*
X54213073Y-8810585D01*
X54090585Y-8933073D01*
X53988766Y-9073214D01*
X53910125Y-9227558D01*
X53910123Y-9227561D01*
X53856598Y-9392293D01*
X53856597Y-9392297D01*
X53829500Y-9563385D01*
X53829500Y-9736614D01*
X53856597Y-9907702D01*
X53856598Y-9907706D01*
X53910123Y-10072438D01*
X53910128Y-10072449D01*
X53916589Y-10085130D01*
X53926159Y-10145563D01*
X53898382Y-10200076D01*
X49640928Y-14457532D01*
X49640927Y-14457531D01*
X49577534Y-14520925D01*
X49577532Y-14520927D01*
X49577532Y-14520928D01*
X49564840Y-14542912D01*
X49532704Y-14598574D01*
X49532703Y-14598575D01*
X49509500Y-14685169D01*
X49509500Y-23771574D01*
X49490593Y-23829765D01*
X49441094Y-23865727D01*
X49435554Y-23867528D01*
X49427552Y-23870128D01*
X49273214Y-23948766D01*
X49133073Y-24050585D01*
X49010585Y-24173073D01*
X48908766Y-24313214D01*
X48830125Y-24467558D01*
X48830123Y-24467561D01*
X48776598Y-24632293D01*
X48776597Y-24632297D01*
X48749500Y-24803385D01*
X48749500Y-24976614D01*
X48776597Y-25147702D01*
X48776598Y-25147706D01*
X48830123Y-25312438D01*
X48830125Y-25312441D01*
X48908767Y-25466787D01*
X48910799Y-25470102D01*
X48909085Y-25471152D01*
X48925656Y-25522265D01*
X48906711Y-25580443D01*
X48857187Y-25616375D01*
X48826656Y-25621200D01*
X48506528Y-25621200D01*
X48416872Y-25621200D01*
X48406169Y-25624068D01*
X48341924Y-25641282D01*
X48280822Y-25638079D01*
X48233272Y-25599574D01*
X48217437Y-25540473D01*
X48236209Y-25487464D01*
X48251232Y-25466788D01*
X48329873Y-25312445D01*
X48329874Y-25312440D01*
X48329876Y-25312438D01*
X48383401Y-25147706D01*
X48383402Y-25147702D01*
X48410500Y-24976614D01*
X48410500Y-24803385D01*
X48383402Y-24632297D01*
X48383401Y-24632293D01*
X48329876Y-24467561D01*
X48329874Y-24467558D01*
X48329873Y-24467557D01*
X48329873Y-24467555D01*
X48251232Y-24313212D01*
X48149414Y-24173072D01*
X48026928Y-24050586D01*
X47886788Y-23948768D01*
X47886787Y-23948767D01*
X47886785Y-23948766D01*
X47732441Y-23870125D01*
X47732438Y-23870123D01*
X47567706Y-23816598D01*
X47567702Y-23816597D01*
X47396614Y-23789500D01*
X47396611Y-23789500D01*
X47223389Y-23789500D01*
X47223386Y-23789500D01*
X47052297Y-23816597D01*
X47052293Y-23816598D01*
X46887561Y-23870123D01*
X46887558Y-23870125D01*
X46733214Y-23948766D01*
X46593073Y-24050585D01*
X46470585Y-24173073D01*
X46368766Y-24313214D01*
X46290125Y-24467558D01*
X46290123Y-24467561D01*
X46236598Y-24632293D01*
X46236597Y-24632297D01*
X46209500Y-24803385D01*
X46209500Y-24976614D01*
X46236597Y-25147702D01*
X46236598Y-25147706D01*
X46290123Y-25312438D01*
X46290128Y-25312449D01*
X46296589Y-25325130D01*
X46306159Y-25385563D01*
X46278382Y-25440075D01*
X45505656Y-26212803D01*
X45451139Y-26240581D01*
X45435652Y-26241800D01*
X39356232Y-26241800D01*
X39298041Y-26222893D01*
X39286229Y-26212804D01*
X39215215Y-26141791D01*
X39215210Y-26141787D01*
X39089688Y-26069317D01*
X39089689Y-26069317D01*
X39044378Y-26057176D01*
X38949675Y-26031800D01*
X38804725Y-26031800D01*
X38710021Y-26057175D01*
X38648922Y-26053974D01*
X38601372Y-26015469D01*
X38585400Y-25961549D01*
X38585400Y-25546621D01*
X38604307Y-25488430D01*
X38653807Y-25452466D01*
X38714993Y-25452466D01*
X38764490Y-25488428D01*
X38850586Y-25606928D01*
X38973072Y-25729414D01*
X39113212Y-25831232D01*
X39267555Y-25909873D01*
X39267557Y-25909873D01*
X39267558Y-25909874D01*
X39267561Y-25909876D01*
X39432293Y-25963401D01*
X39432297Y-25963402D01*
X39603386Y-25990500D01*
X39603389Y-25990500D01*
X39776614Y-25990500D01*
X39947702Y-25963402D01*
X39947706Y-25963401D01*
X40112438Y-25909876D01*
X40112440Y-25909874D01*
X40112445Y-25909873D01*
X40266788Y-25831232D01*
X40406928Y-25729414D01*
X40529414Y-25606928D01*
X40631232Y-25466788D01*
X40709873Y-25312445D01*
X40709874Y-25312440D01*
X40709876Y-25312438D01*
X40763401Y-25147706D01*
X40763402Y-25147702D01*
X40790500Y-24976614D01*
X40790500Y-24803385D01*
X40763402Y-24632297D01*
X40763401Y-24632293D01*
X40709876Y-24467561D01*
X40709874Y-24467558D01*
X40709873Y-24467557D01*
X40709873Y-24467555D01*
X40631232Y-24313212D01*
X40537324Y-24183960D01*
X40528518Y-24156855D01*
X40518516Y-24130171D01*
X40519128Y-24127956D01*
X40518418Y-24125770D01*
X40527227Y-24098657D01*
X40534818Y-24071197D01*
X40536556Y-24069944D01*
X40537325Y-24067579D01*
X40582670Y-24033068D01*
X40587151Y-24031388D01*
X40687185Y-24004584D01*
X40739980Y-23974102D01*
X40747638Y-23971232D01*
X40770421Y-23970218D01*
X40792732Y-23965476D01*
X40800390Y-23968885D01*
X40808763Y-23968513D01*
X40827791Y-23981084D01*
X40848628Y-23990361D01*
X40852390Y-23993930D01*
X41198383Y-24339923D01*
X41226160Y-24394440D01*
X41216590Y-24454868D01*
X41210129Y-24467547D01*
X41210122Y-24467564D01*
X41156598Y-24632293D01*
X41156597Y-24632297D01*
X41129500Y-24803385D01*
X41129500Y-24976614D01*
X41156597Y-25147702D01*
X41156598Y-25147706D01*
X41210123Y-25312438D01*
X41210125Y-25312441D01*
X41281470Y-25452466D01*
X41288768Y-25466788D01*
X41390586Y-25606928D01*
X41513072Y-25729414D01*
X41653212Y-25831232D01*
X41807555Y-25909873D01*
X41807557Y-25909873D01*
X41807558Y-25909874D01*
X41807561Y-25909876D01*
X41972293Y-25963401D01*
X41972297Y-25963402D01*
X42143386Y-25990500D01*
X42143389Y-25990500D01*
X42316614Y-25990500D01*
X42487702Y-25963402D01*
X42487706Y-25963401D01*
X42652438Y-25909876D01*
X42652440Y-25909874D01*
X42652445Y-25909873D01*
X42806788Y-25831232D01*
X42946928Y-25729414D01*
X43069414Y-25606928D01*
X43171232Y-25466788D01*
X43249873Y-25312445D01*
X43249874Y-25312440D01*
X43249876Y-25312438D01*
X43303401Y-25147706D01*
X43303402Y-25147702D01*
X43330500Y-24976614D01*
X43330500Y-24803385D01*
X43303402Y-24632297D01*
X43303401Y-24632293D01*
X43249876Y-24467561D01*
X43249874Y-24467558D01*
X43249873Y-24467557D01*
X43249873Y-24467555D01*
X43171232Y-24313212D01*
X43069414Y-24173072D01*
X42946928Y-24050586D01*
X42806788Y-23948768D01*
X42806787Y-23948767D01*
X42806785Y-23948766D01*
X42652441Y-23870125D01*
X42652438Y-23870123D01*
X42487706Y-23816598D01*
X42487702Y-23816597D01*
X42316614Y-23789500D01*
X42316611Y-23789500D01*
X42143389Y-23789500D01*
X42143386Y-23789500D01*
X41972297Y-23816597D01*
X41972293Y-23816598D01*
X41807564Y-23870122D01*
X41807547Y-23870129D01*
X41794868Y-23876590D01*
X41734436Y-23886160D01*
X41679923Y-23858383D01*
X41267444Y-23445904D01*
X41239667Y-23391387D01*
X41249238Y-23330955D01*
X41292503Y-23287690D01*
X41337448Y-23276900D01*
X42634352Y-23276900D01*
X42692543Y-23295807D01*
X42704356Y-23305896D01*
X43738383Y-24339923D01*
X43766160Y-24394440D01*
X43756590Y-24454868D01*
X43750129Y-24467547D01*
X43750122Y-24467564D01*
X43696598Y-24632293D01*
X43696597Y-24632297D01*
X43669500Y-24803385D01*
X43669500Y-24976614D01*
X43696597Y-25147702D01*
X43696598Y-25147706D01*
X43750123Y-25312438D01*
X43750125Y-25312441D01*
X43821470Y-25452466D01*
X43828768Y-25466788D01*
X43930586Y-25606928D01*
X44053072Y-25729414D01*
X44193212Y-25831232D01*
X44347555Y-25909873D01*
X44347557Y-25909873D01*
X44347558Y-25909874D01*
X44347561Y-25909876D01*
X44512293Y-25963401D01*
X44512297Y-25963402D01*
X44683386Y-25990500D01*
X44683389Y-25990500D01*
X44856614Y-25990500D01*
X45027702Y-25963402D01*
X45027706Y-25963401D01*
X45192438Y-25909876D01*
X45192440Y-25909874D01*
X45192445Y-25909873D01*
X45346788Y-25831232D01*
X45486928Y-25729414D01*
X45609414Y-25606928D01*
X45711232Y-25466788D01*
X45789873Y-25312445D01*
X45789874Y-25312440D01*
X45789876Y-25312438D01*
X45843401Y-25147706D01*
X45843402Y-25147702D01*
X45870500Y-24976614D01*
X45870500Y-24803385D01*
X45843402Y-24632297D01*
X45843401Y-24632293D01*
X45789876Y-24467561D01*
X45789874Y-24467558D01*
X45789873Y-24467557D01*
X45789873Y-24467555D01*
X45711232Y-24313212D01*
X45609414Y-24173072D01*
X45486928Y-24050586D01*
X45346788Y-23948768D01*
X45346787Y-23948767D01*
X45346785Y-23948766D01*
X45192441Y-23870125D01*
X45192438Y-23870123D01*
X45027706Y-23816598D01*
X45027702Y-23816597D01*
X44856614Y-23789500D01*
X44856611Y-23789500D01*
X44683389Y-23789500D01*
X44683386Y-23789500D01*
X44512297Y-23816597D01*
X44512293Y-23816598D01*
X44347564Y-23870122D01*
X44347547Y-23870129D01*
X44334868Y-23876590D01*
X44274436Y-23886160D01*
X44219923Y-23858383D01*
X43638440Y-23276900D01*
X43025472Y-22663932D01*
X42947828Y-22619105D01*
X42947825Y-22619104D01*
X42947824Y-22619103D01*
X42861230Y-22595900D01*
X42861228Y-22595900D01*
X39026027Y-22595900D01*
X38936372Y-22595900D01*
X38936369Y-22595900D01*
X38849775Y-22619103D01*
X38849774Y-22619104D01*
X38849772Y-22619104D01*
X38849772Y-22619105D01*
X38788372Y-22654554D01*
X38772125Y-22663934D01*
X38630255Y-22805804D01*
X38624879Y-22808542D01*
X38621528Y-22813557D01*
X38601223Y-22820596D01*
X38575739Y-22833581D01*
X38564121Y-22834724D01*
X38562178Y-22834800D01*
X38459825Y-22834800D01*
X38442331Y-22839487D01*
X38431269Y-22839920D01*
X38411958Y-22834470D01*
X38391921Y-22833420D01*
X38383193Y-22826352D01*
X38372384Y-22823302D01*
X38359964Y-22807542D01*
X38344371Y-22794915D01*
X38340972Y-22783442D01*
X38334513Y-22775245D01*
X38333899Y-22759563D01*
X38328400Y-22740996D01*
X38328400Y-15915347D01*
X38347307Y-15857156D01*
X38357396Y-15845343D01*
X40153043Y-14049696D01*
X40207560Y-14021919D01*
X40223047Y-14020700D01*
X40323474Y-14020700D01*
X40323475Y-14020700D01*
X40463485Y-13983184D01*
X40463487Y-13983182D01*
X40463489Y-13983182D01*
X40589010Y-13910712D01*
X40589010Y-13910711D01*
X40589015Y-13910709D01*
X40691509Y-13808215D01*
X40716812Y-13764389D01*
X40763982Y-13682689D01*
X40763982Y-13682687D01*
X40763984Y-13682685D01*
X40801500Y-13542675D01*
X40801500Y-13397725D01*
X40763984Y-13257715D01*
X40763982Y-13257712D01*
X40763982Y-13257710D01*
X40691512Y-13132189D01*
X40691510Y-13132187D01*
X40691509Y-13132185D01*
X40589015Y-13029691D01*
X40589012Y-13029689D01*
X40589010Y-13029687D01*
X40463488Y-12957217D01*
X40463489Y-12957217D01*
X40433896Y-12949287D01*
X40323475Y-12919700D01*
X40178525Y-12919700D01*
X40116790Y-12936241D01*
X40038510Y-12957217D01*
X39912989Y-13029687D01*
X39810487Y-13132189D01*
X39738017Y-13257710D01*
X39700500Y-13397725D01*
X39700500Y-13498152D01*
X39681593Y-13556343D01*
X39671504Y-13568155D01*
X37778828Y-15460831D01*
X37778828Y-15460832D01*
X37778827Y-15460831D01*
X37715434Y-15524225D01*
X37715432Y-15524227D01*
X37715432Y-15524228D01*
X37670605Y-15601872D01*
X37670604Y-15601874D01*
X37670603Y-15601875D01*
X37647400Y-15688469D01*
X37647400Y-23758218D01*
X37628493Y-23816409D01*
X37578993Y-23852373D01*
X37517808Y-23852373D01*
X37407699Y-23816597D01*
X37407702Y-23816597D01*
X37236614Y-23789500D01*
X37236611Y-23789500D01*
X37063389Y-23789500D01*
X37063386Y-23789500D01*
X36892297Y-23816597D01*
X36892293Y-23816598D01*
X36727561Y-23870123D01*
X36727558Y-23870125D01*
X36573213Y-23948767D01*
X36559221Y-23958933D01*
X36526468Y-23982730D01*
X36517191Y-23989470D01*
X36459000Y-24008377D01*
X36400809Y-23989470D01*
X36364845Y-23939970D01*
X36360000Y-23909377D01*
X36360000Y-14566631D01*
X36378907Y-14508440D01*
X36388990Y-14496633D01*
X36460009Y-14425615D01*
X36532484Y-14300085D01*
X36570000Y-14160075D01*
X36570000Y-14015125D01*
X36532484Y-13875115D01*
X36532482Y-13875112D01*
X36532482Y-13875110D01*
X36460012Y-13749589D01*
X36460010Y-13749587D01*
X36460009Y-13749585D01*
X36357515Y-13647091D01*
X36357512Y-13647089D01*
X36357510Y-13647087D01*
X36231988Y-13574617D01*
X36231989Y-13574617D01*
X36163790Y-13556343D01*
X36091975Y-13537100D01*
X35947025Y-13537100D01*
X35891791Y-13551900D01*
X35807010Y-13574617D01*
X35681489Y-13647087D01*
X35578987Y-13749589D01*
X35506517Y-13875110D01*
X35477559Y-13983182D01*
X35469000Y-14015125D01*
X35469000Y-14160075D01*
X35472966Y-14174875D01*
X35506517Y-14300089D01*
X35578987Y-14425610D01*
X35578989Y-14425612D01*
X35578991Y-14425615D01*
X35650005Y-14496629D01*
X35677781Y-14551144D01*
X35679000Y-14566631D01*
X35679000Y-24184379D01*
X35660093Y-24242570D01*
X35610593Y-24278534D01*
X35549407Y-24278534D01*
X35499907Y-24242570D01*
X35449414Y-24173072D01*
X35326928Y-24050586D01*
X35186788Y-23948768D01*
X35186787Y-23948767D01*
X35186785Y-23948766D01*
X35032441Y-23870125D01*
X35032438Y-23870123D01*
X34867706Y-23816598D01*
X34867702Y-23816597D01*
X34696614Y-23789500D01*
X34696611Y-23789500D01*
X34523389Y-23789500D01*
X34523386Y-23789500D01*
X34352297Y-23816597D01*
X34352293Y-23816598D01*
X34187561Y-23870123D01*
X34187558Y-23870125D01*
X34033214Y-23948766D01*
X33904752Y-24042100D01*
X33893072Y-24050586D01*
X33883501Y-24060156D01*
X33828987Y-24087932D01*
X33768555Y-24078361D01*
X33725290Y-24035096D01*
X33714500Y-23990151D01*
X33714500Y-14557131D01*
X33733407Y-14498940D01*
X33743490Y-14487133D01*
X33814509Y-14416115D01*
X33872952Y-14314889D01*
X33886982Y-14290589D01*
X33886982Y-14290587D01*
X33886984Y-14290585D01*
X33924500Y-14150575D01*
X33924500Y-14005625D01*
X33886984Y-13865615D01*
X33886982Y-13865612D01*
X33886982Y-13865610D01*
X33814512Y-13740089D01*
X33814510Y-13740087D01*
X33814509Y-13740085D01*
X33712015Y-13637591D01*
X33712012Y-13637589D01*
X33712010Y-13637587D01*
X33586488Y-13565117D01*
X33586489Y-13565117D01*
X33502731Y-13542674D01*
X33446475Y-13527600D01*
X33301525Y-13527600D01*
X33266071Y-13537100D01*
X33161510Y-13565117D01*
X33035989Y-13637587D01*
X32933487Y-13740089D01*
X32861017Y-13865610D01*
X32852695Y-13896669D01*
X32823500Y-14005625D01*
X32823500Y-14150575D01*
X32841180Y-14216556D01*
X32861017Y-14290589D01*
X32933487Y-14416110D01*
X32933489Y-14416112D01*
X32933491Y-14416115D01*
X33004505Y-14487129D01*
X33032281Y-14541644D01*
X33033500Y-14557131D01*
X33033500Y-24058151D01*
X33014593Y-24116342D01*
X32965093Y-24152306D01*
X32903907Y-24152306D01*
X32864498Y-24128156D01*
X32786928Y-24050586D01*
X32646788Y-23948768D01*
X32646787Y-23948767D01*
X32646785Y-23948766D01*
X32492441Y-23870125D01*
X32492438Y-23870123D01*
X32327706Y-23816598D01*
X32327702Y-23816597D01*
X32156614Y-23789500D01*
X32156611Y-23789500D01*
X31983389Y-23789500D01*
X31983386Y-23789500D01*
X31812297Y-23816597D01*
X31812293Y-23816598D01*
X31647561Y-23870123D01*
X31647558Y-23870125D01*
X31493213Y-23948767D01*
X31395291Y-24019912D01*
X31337100Y-24038819D01*
X31278909Y-24019912D01*
X31242945Y-23970412D01*
X31238100Y-23939819D01*
X31238100Y-15311747D01*
X31257007Y-15253556D01*
X31267096Y-15241743D01*
X31826943Y-14681896D01*
X31881460Y-14654119D01*
X31896947Y-14652900D01*
X31997374Y-14652900D01*
X31997375Y-14652900D01*
X32137385Y-14615384D01*
X32137387Y-14615382D01*
X32137389Y-14615382D01*
X32262910Y-14542912D01*
X32262910Y-14542911D01*
X32262915Y-14542909D01*
X32365409Y-14440415D01*
X32437884Y-14314885D01*
X32475400Y-14174875D01*
X32475400Y-14029925D01*
X32437884Y-13889915D01*
X32437882Y-13889911D01*
X32437882Y-13889910D01*
X32365412Y-13764389D01*
X32365410Y-13764387D01*
X32365409Y-13764385D01*
X32262915Y-13661891D01*
X32262912Y-13661889D01*
X32262910Y-13661887D01*
X32137388Y-13589417D01*
X32137389Y-13589417D01*
X32070776Y-13571568D01*
X31997375Y-13551900D01*
X31852425Y-13551900D01*
X31790690Y-13568441D01*
X31712410Y-13589417D01*
X31586889Y-13661887D01*
X31484387Y-13764389D01*
X31411917Y-13889911D01*
X31411915Y-13889915D01*
X31378455Y-14014787D01*
X31345131Y-14066101D01*
X31288009Y-14088027D01*
X31228909Y-14072191D01*
X31190404Y-14024640D01*
X31187205Y-14014797D01*
X31158084Y-13906115D01*
X31158082Y-13906112D01*
X31158082Y-13906110D01*
X31085612Y-13780589D01*
X31085610Y-13780587D01*
X31085609Y-13780585D01*
X30983115Y-13678091D01*
X30983112Y-13678089D01*
X30983110Y-13678087D01*
X30857588Y-13605617D01*
X30857589Y-13605617D01*
X30741896Y-13574617D01*
X30717575Y-13568100D01*
X30572625Y-13568100D01*
X30548304Y-13574617D01*
X30432610Y-13605617D01*
X30307089Y-13678087D01*
X30204587Y-13780589D01*
X30132117Y-13906110D01*
X30094600Y-14046125D01*
X30094600Y-14146552D01*
X30075693Y-14204743D01*
X30065604Y-14216556D01*
X28050928Y-16231232D01*
X28050927Y-16231231D01*
X27987534Y-16294625D01*
X27987532Y-16294627D01*
X27987532Y-16294628D01*
X27962500Y-16337985D01*
X27942704Y-16372274D01*
X27942703Y-16372275D01*
X27919500Y-16458869D01*
X27919500Y-24024151D01*
X27900593Y-24082342D01*
X27851093Y-24118306D01*
X27789907Y-24118306D01*
X27750498Y-24094156D01*
X27706928Y-24050586D01*
X27566788Y-23948768D01*
X27566787Y-23948767D01*
X27566785Y-23948766D01*
X27412441Y-23870125D01*
X27412438Y-23870123D01*
X27247706Y-23816598D01*
X27247702Y-23816597D01*
X27076614Y-23789500D01*
X27076611Y-23789500D01*
X26903389Y-23789500D01*
X26903386Y-23789500D01*
X26732297Y-23816597D01*
X26732293Y-23816598D01*
X26567561Y-23870123D01*
X26567558Y-23870125D01*
X26413212Y-23948767D01*
X26413208Y-23948770D01*
X26368690Y-23981114D01*
X26353779Y-23985958D01*
X26341093Y-23995176D01*
X26325411Y-23995176D01*
X26310499Y-24000021D01*
X26295588Y-23995176D01*
X26279907Y-23995176D01*
X26267220Y-23985958D01*
X26252308Y-23981113D01*
X26243092Y-23968428D01*
X26230407Y-23959212D01*
X26225561Y-23944298D01*
X26216345Y-23931613D01*
X26211500Y-23901021D01*
X26211500Y-23760555D01*
X26230407Y-23702364D01*
X26279907Y-23666400D01*
X26284858Y-23664933D01*
X26411185Y-23631084D01*
X26411187Y-23631082D01*
X26411189Y-23631082D01*
X26536710Y-23558612D01*
X26536710Y-23558611D01*
X26536715Y-23558609D01*
X26639209Y-23456115D01*
X26676580Y-23391387D01*
X26711682Y-23330589D01*
X26711682Y-23330587D01*
X26711684Y-23330585D01*
X26749200Y-23190575D01*
X26749200Y-23045625D01*
X26711684Y-22905615D01*
X26711682Y-22905612D01*
X26711682Y-22905610D01*
X26639212Y-22780089D01*
X26639208Y-22780084D01*
X26568196Y-22709071D01*
X26540419Y-22654554D01*
X26539200Y-22639068D01*
X26539200Y-15703347D01*
X26558107Y-15645156D01*
X26568190Y-15633349D01*
X31519924Y-10681614D01*
X31574439Y-10653839D01*
X31634871Y-10663410D01*
X31634872Y-10663411D01*
X31647553Y-10669872D01*
X31647561Y-10669876D01*
X31812293Y-10723401D01*
X31812297Y-10723402D01*
X31983386Y-10750500D01*
X31983389Y-10750500D01*
X32156614Y-10750500D01*
X32327702Y-10723402D01*
X32327706Y-10723401D01*
X32492438Y-10669876D01*
X32492440Y-10669874D01*
X32492445Y-10669873D01*
X32646788Y-10591232D01*
X32786928Y-10489414D01*
X32909414Y-10366928D01*
X33011232Y-10226788D01*
X33089873Y-10072445D01*
X33089874Y-10072440D01*
X33089876Y-10072438D01*
X33143401Y-9907706D01*
X33143402Y-9907702D01*
X33170500Y-9736614D01*
X33170500Y-9563385D01*
X33143402Y-9392297D01*
X33143401Y-9392293D01*
X33089876Y-9227561D01*
X33089874Y-9227558D01*
X33089873Y-9227557D01*
X33089873Y-9227555D01*
X33011232Y-9073212D01*
X32909414Y-8933072D01*
X32786928Y-8810586D01*
X32646788Y-8708768D01*
X32646787Y-8708767D01*
X32646785Y-8708766D01*
X32492441Y-8630125D01*
X32492438Y-8630123D01*
X32327706Y-8576598D01*
X32327702Y-8576597D01*
X32275596Y-8568345D01*
X32221080Y-8540568D01*
X32193302Y-8486051D01*
X32202873Y-8425619D01*
X32221076Y-8400563D01*
X33612568Y-7009072D01*
X33657395Y-6931428D01*
X33680600Y-6844828D01*
X33680600Y-6755173D01*
X33680600Y-6705949D01*
X33699507Y-6647758D01*
X33749007Y-6611794D01*
X33810193Y-6611794D01*
X33849601Y-6635943D01*
X33893072Y-6679414D01*
X34033212Y-6781232D01*
X34187555Y-6859873D01*
X34187557Y-6859873D01*
X34187558Y-6859874D01*
X34187561Y-6859876D01*
X34352293Y-6913401D01*
X34352297Y-6913402D01*
X34523386Y-6940500D01*
X34523389Y-6940500D01*
X34696614Y-6940500D01*
X34867702Y-6913402D01*
X34867706Y-6913401D01*
X35032438Y-6859876D01*
X35032440Y-6859874D01*
X35032445Y-6859873D01*
X35186788Y-6781232D01*
X35326928Y-6679414D01*
X35370498Y-6635843D01*
X35425013Y-6608068D01*
X35485445Y-6617639D01*
X35528710Y-6660904D01*
X35539500Y-6705849D01*
X35539500Y-8197952D01*
X35520593Y-8256143D01*
X35510503Y-8267956D01*
X35160075Y-8618383D01*
X35105559Y-8646160D01*
X35045127Y-8636589D01*
X35045126Y-8636588D01*
X35032446Y-8630127D01*
X35032438Y-8630123D01*
X34867706Y-8576598D01*
X34867702Y-8576597D01*
X34696614Y-8549500D01*
X34696611Y-8549500D01*
X34523389Y-8549500D01*
X34523386Y-8549500D01*
X34352297Y-8576597D01*
X34352293Y-8576598D01*
X34187561Y-8630123D01*
X34187558Y-8630125D01*
X34033214Y-8708766D01*
X33893073Y-8810585D01*
X33770585Y-8933073D01*
X33668766Y-9073214D01*
X33590125Y-9227558D01*
X33590123Y-9227561D01*
X33536598Y-9392293D01*
X33536597Y-9392297D01*
X33509500Y-9563385D01*
X33509500Y-9736614D01*
X33536597Y-9907702D01*
X33536598Y-9907706D01*
X33590123Y-10072438D01*
X33590125Y-10072441D01*
X33668765Y-10226784D01*
X33668768Y-10226788D01*
X33770586Y-10366928D01*
X33893072Y-10489414D01*
X34033212Y-10591232D01*
X34187555Y-10669873D01*
X34187557Y-10669873D01*
X34187558Y-10669874D01*
X34187561Y-10669876D01*
X34352293Y-10723401D01*
X34352297Y-10723402D01*
X34523386Y-10750500D01*
X34523389Y-10750500D01*
X34696614Y-10750500D01*
X34867702Y-10723402D01*
X34867706Y-10723401D01*
X35032438Y-10669876D01*
X35032440Y-10669874D01*
X35032445Y-10669873D01*
X35186788Y-10591232D01*
X35326928Y-10489414D01*
X35449414Y-10366928D01*
X35551232Y-10226788D01*
X35629873Y-10072445D01*
X35629874Y-10072440D01*
X35629876Y-10072438D01*
X35683401Y-9907706D01*
X35683402Y-9907702D01*
X35710500Y-9736614D01*
X35710500Y-9563385D01*
X35683402Y-9392297D01*
X35683401Y-9392293D01*
X35629876Y-9227561D01*
X35629872Y-9227553D01*
X35623411Y-9214872D01*
X35613839Y-9154440D01*
X35641616Y-9099923D01*
X36152468Y-8589072D01*
X36197295Y-8511428D01*
X36220500Y-8424828D01*
X36220500Y-8335172D01*
X36220500Y-6705849D01*
X36239407Y-6647658D01*
X36288907Y-6611694D01*
X36350093Y-6611694D01*
X36389501Y-6635843D01*
X36433072Y-6679414D01*
X36573212Y-6781232D01*
X36727555Y-6859873D01*
X36727557Y-6859873D01*
X36727558Y-6859874D01*
X36727561Y-6859876D01*
X36892293Y-6913401D01*
X36892297Y-6913402D01*
X37063386Y-6940500D01*
X37063389Y-6940500D01*
X37236614Y-6940500D01*
X37407702Y-6913402D01*
X37407706Y-6913401D01*
X37572438Y-6859876D01*
X37572440Y-6859874D01*
X37572445Y-6859873D01*
X37726788Y-6781232D01*
X37726793Y-6781228D01*
X37730102Y-6779201D01*
X37731173Y-6780949D01*
X37782089Y-6764343D01*
X37840301Y-6783185D01*
X37876320Y-6832645D01*
X37881200Y-6863343D01*
X37881200Y-8396252D01*
X37862293Y-8454443D01*
X37852203Y-8466256D01*
X37700075Y-8618383D01*
X37645559Y-8646160D01*
X37585127Y-8636588D01*
X37585126Y-8636588D01*
X37572446Y-8630127D01*
X37572438Y-8630123D01*
X37407706Y-8576598D01*
X37407702Y-8576597D01*
X37236614Y-8549500D01*
X37236611Y-8549500D01*
X37063389Y-8549500D01*
X37063386Y-8549500D01*
X36892297Y-8576597D01*
X36892293Y-8576598D01*
X36727561Y-8630123D01*
X36727558Y-8630125D01*
X36573214Y-8708766D01*
X36433073Y-8810585D01*
X36310585Y-8933073D01*
X36208766Y-9073214D01*
X36130125Y-9227558D01*
X36130123Y-9227561D01*
X36076598Y-9392293D01*
X36076597Y-9392297D01*
X36049500Y-9563385D01*
X36049500Y-9736614D01*
X36076597Y-9907702D01*
X36076598Y-9907706D01*
X36130123Y-10072438D01*
X36130125Y-10072441D01*
X36208765Y-10226784D01*
X36208768Y-10226788D01*
X36310586Y-10366928D01*
X36433072Y-10489414D01*
X36573212Y-10591232D01*
X36727555Y-10669873D01*
X36727557Y-10669873D01*
X36727558Y-10669874D01*
X36727561Y-10669876D01*
X36892293Y-10723401D01*
X36892297Y-10723402D01*
X37063386Y-10750500D01*
X37063389Y-10750500D01*
X37236614Y-10750500D01*
X37407702Y-10723402D01*
X37407706Y-10723401D01*
X37572438Y-10669876D01*
X37572440Y-10669874D01*
X37572445Y-10669873D01*
X37726788Y-10591232D01*
X37866928Y-10489414D01*
X37989414Y-10366928D01*
X38091232Y-10226788D01*
X38169873Y-10072445D01*
X38169874Y-10072440D01*
X38169876Y-10072438D01*
X38223401Y-9907706D01*
X38223402Y-9907702D01*
X38250500Y-9736614D01*
X38250500Y-9563385D01*
X38589500Y-9563385D01*
X38589500Y-9736614D01*
X38616597Y-9907702D01*
X38616598Y-9907706D01*
X38670123Y-10072438D01*
X38670125Y-10072441D01*
X38748765Y-10226784D01*
X38748768Y-10226788D01*
X38850586Y-10366928D01*
X38973072Y-10489414D01*
X39113212Y-10591232D01*
X39267555Y-10669873D01*
X39267557Y-10669873D01*
X39267558Y-10669874D01*
X39267561Y-10669876D01*
X39432293Y-10723401D01*
X39432297Y-10723402D01*
X39603386Y-10750500D01*
X39603389Y-10750500D01*
X39776614Y-10750500D01*
X39947702Y-10723402D01*
X39947706Y-10723401D01*
X40112436Y-10669876D01*
X40112442Y-10669874D01*
X40112442Y-10669873D01*
X40112445Y-10669873D01*
X40125125Y-10663411D01*
X40185556Y-10653838D01*
X40240073Y-10681614D01*
X40240076Y-10681616D01*
X40507704Y-10949244D01*
X40535481Y-11003761D01*
X40536700Y-11019248D01*
X40536700Y-11119674D01*
X40574217Y-11259689D01*
X40646687Y-11385210D01*
X40646689Y-11385212D01*
X40646691Y-11385215D01*
X40749185Y-11487709D01*
X40749187Y-11487710D01*
X40749189Y-11487712D01*
X40874711Y-11560182D01*
X40874712Y-11560182D01*
X40874715Y-11560184D01*
X41014725Y-11597700D01*
X41014726Y-11597700D01*
X41159674Y-11597700D01*
X41159675Y-11597700D01*
X41299685Y-11560184D01*
X41299687Y-11560182D01*
X41299689Y-11560182D01*
X41425210Y-11487712D01*
X41425210Y-11487711D01*
X41425215Y-11487709D01*
X41527709Y-11385215D01*
X41529753Y-11381675D01*
X41600182Y-11259689D01*
X41600182Y-11259687D01*
X41600184Y-11259685D01*
X41637700Y-11119675D01*
X41637700Y-10974725D01*
X41600184Y-10834715D01*
X41546027Y-10740913D01*
X41533306Y-10681066D01*
X41558192Y-10625171D01*
X41611180Y-10594578D01*
X41672030Y-10600973D01*
X41676702Y-10603200D01*
X41807555Y-10669873D01*
X41807557Y-10669873D01*
X41807558Y-10669874D01*
X41807561Y-10669876D01*
X41972293Y-10723401D01*
X41972297Y-10723402D01*
X42143386Y-10750500D01*
X42143389Y-10750500D01*
X42316614Y-10750500D01*
X42487702Y-10723402D01*
X42487706Y-10723401D01*
X42652438Y-10669876D01*
X42652440Y-10669874D01*
X42652445Y-10669873D01*
X42806788Y-10591232D01*
X42946928Y-10489414D01*
X43069414Y-10366928D01*
X43171232Y-10226788D01*
X43249873Y-10072445D01*
X43249874Y-10072440D01*
X43249876Y-10072438D01*
X43303401Y-9907706D01*
X43303402Y-9907702D01*
X43330500Y-9736614D01*
X43330500Y-9563385D01*
X43669500Y-9563385D01*
X43669500Y-9736614D01*
X43696597Y-9907702D01*
X43696598Y-9907706D01*
X43750123Y-10072438D01*
X43750125Y-10072441D01*
X43828765Y-10226784D01*
X43828768Y-10226788D01*
X43930586Y-10366928D01*
X44053072Y-10489414D01*
X44193212Y-10591232D01*
X44347555Y-10669873D01*
X44347557Y-10669873D01*
X44347558Y-10669874D01*
X44347561Y-10669876D01*
X44512293Y-10723401D01*
X44512297Y-10723402D01*
X44683386Y-10750500D01*
X44683389Y-10750500D01*
X44856614Y-10750500D01*
X45027702Y-10723402D01*
X45027706Y-10723401D01*
X45192438Y-10669876D01*
X45192440Y-10669874D01*
X45192445Y-10669873D01*
X45346788Y-10591232D01*
X45486928Y-10489414D01*
X45609414Y-10366928D01*
X45711232Y-10226788D01*
X45789873Y-10072445D01*
X45789874Y-10072440D01*
X45789876Y-10072438D01*
X45843401Y-9907706D01*
X45843402Y-9907702D01*
X45870500Y-9736614D01*
X45870500Y-9563385D01*
X46209500Y-9563385D01*
X46209500Y-9736614D01*
X46236597Y-9907702D01*
X46236598Y-9907706D01*
X46290123Y-10072438D01*
X46290125Y-10072441D01*
X46368765Y-10226784D01*
X46368768Y-10226788D01*
X46470586Y-10366928D01*
X46593072Y-10489414D01*
X46733212Y-10591232D01*
X46887555Y-10669873D01*
X46887557Y-10669873D01*
X46887558Y-10669874D01*
X46887561Y-10669876D01*
X47052293Y-10723401D01*
X47052297Y-10723402D01*
X47223386Y-10750500D01*
X47223389Y-10750500D01*
X47396614Y-10750500D01*
X47567702Y-10723402D01*
X47567706Y-10723401D01*
X47732438Y-10669876D01*
X47732440Y-10669874D01*
X47732445Y-10669873D01*
X47886788Y-10591232D01*
X48026928Y-10489414D01*
X48149414Y-10366928D01*
X48251232Y-10226788D01*
X48329873Y-10072445D01*
X48329874Y-10072440D01*
X48329876Y-10072438D01*
X48383401Y-9907706D01*
X48383402Y-9907702D01*
X48410500Y-9736614D01*
X48410500Y-9563385D01*
X48749500Y-9563385D01*
X48749500Y-9736614D01*
X48776597Y-9907702D01*
X48776598Y-9907706D01*
X48830123Y-10072438D01*
X48830125Y-10072441D01*
X48908765Y-10226784D01*
X48908768Y-10226788D01*
X49010586Y-10366928D01*
X49133072Y-10489414D01*
X49273212Y-10591232D01*
X49427555Y-10669873D01*
X49427557Y-10669873D01*
X49427558Y-10669874D01*
X49427561Y-10669876D01*
X49592293Y-10723401D01*
X49592297Y-10723402D01*
X49763386Y-10750500D01*
X49763389Y-10750500D01*
X49936614Y-10750500D01*
X50107702Y-10723402D01*
X50107706Y-10723401D01*
X50272438Y-10669876D01*
X50272440Y-10669874D01*
X50272445Y-10669873D01*
X50426788Y-10591232D01*
X50566928Y-10489414D01*
X50689414Y-10366928D01*
X50791232Y-10226788D01*
X50869873Y-10072445D01*
X50869874Y-10072440D01*
X50869876Y-10072438D01*
X50923401Y-9907706D01*
X50923402Y-9907702D01*
X50950500Y-9736614D01*
X50950500Y-9563385D01*
X51289500Y-9563385D01*
X51289500Y-9736614D01*
X51316597Y-9907702D01*
X51316598Y-9907706D01*
X51370123Y-10072438D01*
X51370125Y-10072441D01*
X51448765Y-10226784D01*
X51448768Y-10226788D01*
X51550586Y-10366928D01*
X51673072Y-10489414D01*
X51813212Y-10591232D01*
X51967555Y-10669873D01*
X51967557Y-10669873D01*
X51967558Y-10669874D01*
X51967561Y-10669876D01*
X52132293Y-10723401D01*
X52132297Y-10723402D01*
X52303386Y-10750500D01*
X52303389Y-10750500D01*
X52476614Y-10750500D01*
X52647702Y-10723402D01*
X52647706Y-10723401D01*
X52812438Y-10669876D01*
X52812440Y-10669874D01*
X52812445Y-10669873D01*
X52966788Y-10591232D01*
X53106928Y-10489414D01*
X53229414Y-10366928D01*
X53331232Y-10226788D01*
X53409873Y-10072445D01*
X53409874Y-10072440D01*
X53409876Y-10072438D01*
X53463401Y-9907706D01*
X53463402Y-9907702D01*
X53490500Y-9736614D01*
X53490500Y-9563385D01*
X53463402Y-9392297D01*
X53463401Y-9392293D01*
X53409876Y-9227561D01*
X53409874Y-9227558D01*
X53409873Y-9227557D01*
X53409873Y-9227555D01*
X53331232Y-9073212D01*
X53229414Y-8933072D01*
X53106928Y-8810586D01*
X52966788Y-8708768D01*
X52966787Y-8708767D01*
X52966785Y-8708766D01*
X52812441Y-8630125D01*
X52812438Y-8630123D01*
X52647706Y-8576598D01*
X52647702Y-8576597D01*
X52476614Y-8549500D01*
X52476611Y-8549500D01*
X52303389Y-8549500D01*
X52303386Y-8549500D01*
X52132297Y-8576597D01*
X52132293Y-8576598D01*
X51967561Y-8630123D01*
X51967558Y-8630125D01*
X51813214Y-8708766D01*
X51673073Y-8810585D01*
X51550585Y-8933073D01*
X51448766Y-9073214D01*
X51370125Y-9227558D01*
X51370123Y-9227561D01*
X51316598Y-9392293D01*
X51316597Y-9392297D01*
X51289500Y-9563385D01*
X50950500Y-9563385D01*
X50923402Y-9392297D01*
X50923401Y-9392293D01*
X50869876Y-9227561D01*
X50869874Y-9227558D01*
X50869873Y-9227557D01*
X50869873Y-9227555D01*
X50791232Y-9073212D01*
X50689414Y-8933072D01*
X50566928Y-8810586D01*
X50426788Y-8708768D01*
X50426787Y-8708767D01*
X50426785Y-8708766D01*
X50272441Y-8630125D01*
X50272438Y-8630123D01*
X50107706Y-8576598D01*
X50107702Y-8576597D01*
X49936614Y-8549500D01*
X49936611Y-8549500D01*
X49763389Y-8549500D01*
X49763386Y-8549500D01*
X49592297Y-8576597D01*
X49592293Y-8576598D01*
X49427561Y-8630123D01*
X49427558Y-8630125D01*
X49273214Y-8708766D01*
X49133073Y-8810585D01*
X49010585Y-8933073D01*
X48908766Y-9073214D01*
X48830125Y-9227558D01*
X48830123Y-9227561D01*
X48776598Y-9392293D01*
X48776597Y-9392297D01*
X48749500Y-9563385D01*
X48410500Y-9563385D01*
X48383402Y-9392297D01*
X48383401Y-9392293D01*
X48329876Y-9227561D01*
X48329874Y-9227558D01*
X48329873Y-9227557D01*
X48329873Y-9227555D01*
X48251232Y-9073212D01*
X48149414Y-8933072D01*
X48026928Y-8810586D01*
X47886788Y-8708768D01*
X47886787Y-8708767D01*
X47886785Y-8708766D01*
X47732441Y-8630125D01*
X47732438Y-8630123D01*
X47567706Y-8576598D01*
X47567702Y-8576597D01*
X47396614Y-8549500D01*
X47396611Y-8549500D01*
X47223389Y-8549500D01*
X47223386Y-8549500D01*
X47052297Y-8576597D01*
X47052293Y-8576598D01*
X46887561Y-8630123D01*
X46887558Y-8630125D01*
X46733214Y-8708766D01*
X46593073Y-8810585D01*
X46470585Y-8933073D01*
X46368766Y-9073214D01*
X46290125Y-9227558D01*
X46290123Y-9227561D01*
X46236598Y-9392293D01*
X46236597Y-9392297D01*
X46209500Y-9563385D01*
X45870500Y-9563385D01*
X45843402Y-9392297D01*
X45843401Y-9392293D01*
X45789876Y-9227561D01*
X45789874Y-9227558D01*
X45789873Y-9227557D01*
X45789873Y-9227555D01*
X45711232Y-9073212D01*
X45609414Y-8933072D01*
X45486928Y-8810586D01*
X45346788Y-8708768D01*
X45346787Y-8708767D01*
X45346785Y-8708766D01*
X45192441Y-8630125D01*
X45192438Y-8630123D01*
X45027706Y-8576598D01*
X45027702Y-8576597D01*
X44856614Y-8549500D01*
X44856611Y-8549500D01*
X44683389Y-8549500D01*
X44683386Y-8549500D01*
X44512297Y-8576597D01*
X44512293Y-8576598D01*
X44347561Y-8630123D01*
X44347558Y-8630125D01*
X44193214Y-8708766D01*
X44053073Y-8810585D01*
X43930585Y-8933073D01*
X43828766Y-9073214D01*
X43750125Y-9227558D01*
X43750123Y-9227561D01*
X43696598Y-9392293D01*
X43696597Y-9392297D01*
X43669500Y-9563385D01*
X43330500Y-9563385D01*
X43303402Y-9392297D01*
X43303401Y-9392293D01*
X43249876Y-9227561D01*
X43249874Y-9227558D01*
X43249873Y-9227557D01*
X43249873Y-9227555D01*
X43171232Y-9073212D01*
X43069414Y-8933072D01*
X42946928Y-8810586D01*
X42806788Y-8708768D01*
X42806787Y-8708767D01*
X42806785Y-8708766D01*
X42652441Y-8630125D01*
X42652438Y-8630123D01*
X42487706Y-8576598D01*
X42487702Y-8576597D01*
X42316614Y-8549500D01*
X42316611Y-8549500D01*
X42143389Y-8549500D01*
X42143386Y-8549500D01*
X41972297Y-8576597D01*
X41972293Y-8576598D01*
X41807561Y-8630123D01*
X41807558Y-8630125D01*
X41653214Y-8708766D01*
X41513073Y-8810585D01*
X41390585Y-8933073D01*
X41288766Y-9073214D01*
X41210125Y-9227558D01*
X41210123Y-9227561D01*
X41156598Y-9392293D01*
X41156597Y-9392297D01*
X41129500Y-9563385D01*
X41129500Y-9736614D01*
X41156597Y-9907702D01*
X41156598Y-9907706D01*
X41210123Y-10072438D01*
X41210125Y-10072441D01*
X41288765Y-10226784D01*
X41288768Y-10226788D01*
X41390586Y-10366928D01*
X41391122Y-10367464D01*
X41391238Y-10367692D01*
X41393111Y-10369885D01*
X41392584Y-10370334D01*
X41418898Y-10421979D01*
X41409327Y-10482411D01*
X41366062Y-10525676D01*
X41305630Y-10535247D01*
X41295494Y-10533093D01*
X41289692Y-10531538D01*
X41159675Y-10496700D01*
X41159674Y-10496700D01*
X41059248Y-10496700D01*
X41001057Y-10477793D01*
X40989244Y-10467704D01*
X40721616Y-10200076D01*
X40693839Y-10145559D01*
X40703409Y-10085130D01*
X40709873Y-10072445D01*
X40717134Y-10050099D01*
X40763401Y-9907706D01*
X40763402Y-9907702D01*
X40790500Y-9736614D01*
X40790500Y-9563385D01*
X40763402Y-9392297D01*
X40763401Y-9392293D01*
X40709876Y-9227561D01*
X40709874Y-9227558D01*
X40709873Y-9227557D01*
X40709873Y-9227555D01*
X40631232Y-9073212D01*
X40529414Y-8933072D01*
X40406928Y-8810586D01*
X40266788Y-8708768D01*
X40266787Y-8708767D01*
X40266785Y-8708766D01*
X40112441Y-8630125D01*
X40112438Y-8630123D01*
X39947706Y-8576598D01*
X39947702Y-8576597D01*
X39776614Y-8549500D01*
X39776611Y-8549500D01*
X39603389Y-8549500D01*
X39603386Y-8549500D01*
X39432297Y-8576597D01*
X39432293Y-8576598D01*
X39267561Y-8630123D01*
X39267558Y-8630125D01*
X39113214Y-8708766D01*
X38973073Y-8810585D01*
X38850585Y-8933073D01*
X38748766Y-9073214D01*
X38670125Y-9227558D01*
X38670123Y-9227561D01*
X38616598Y-9392293D01*
X38616597Y-9392297D01*
X38589500Y-9563385D01*
X38250500Y-9563385D01*
X38223402Y-9392297D01*
X38223401Y-9392293D01*
X38169876Y-9227561D01*
X38169872Y-9227552D01*
X38163410Y-9214869D01*
X38153839Y-9154436D01*
X38181615Y-9099923D01*
X38430769Y-8850769D01*
X38430772Y-8850768D01*
X38494168Y-8787372D01*
X38538995Y-8709728D01*
X38562200Y-8623128D01*
X38562200Y-6462993D01*
X38581107Y-6404802D01*
X38630607Y-6368838D01*
X38691793Y-6368838D01*
X38741293Y-6404802D01*
X38746639Y-6413526D01*
X38746734Y-6413469D01*
X38748765Y-6416784D01*
X38760600Y-6433073D01*
X38850586Y-6556928D01*
X38973072Y-6679414D01*
X39113212Y-6781232D01*
X39267555Y-6859873D01*
X39267557Y-6859873D01*
X39267558Y-6859874D01*
X39267561Y-6859876D01*
X39432293Y-6913401D01*
X39432297Y-6913402D01*
X39603386Y-6940500D01*
X39603389Y-6940500D01*
X39776614Y-6940500D01*
X39947702Y-6913402D01*
X39947706Y-6913401D01*
X40112438Y-6859876D01*
X40112440Y-6859874D01*
X40112445Y-6859873D01*
X40266788Y-6781232D01*
X40406928Y-6679414D01*
X40529414Y-6556928D01*
X40631232Y-6416788D01*
X40709873Y-6262445D01*
X40709874Y-6262440D01*
X40709876Y-6262438D01*
X40763401Y-6097706D01*
X40763402Y-6097702D01*
X40790500Y-5926614D01*
X40790500Y-5753384D01*
X41129500Y-5753384D01*
X41129500Y-5926614D01*
X41156597Y-6097702D01*
X41156598Y-6097706D01*
X41210123Y-6262438D01*
X41210125Y-6262441D01*
X41288765Y-6416784D01*
X41288768Y-6416788D01*
X41390586Y-6556928D01*
X41513072Y-6679414D01*
X41653212Y-6781232D01*
X41807555Y-6859873D01*
X41807557Y-6859873D01*
X41807558Y-6859874D01*
X41807561Y-6859876D01*
X41972293Y-6913401D01*
X41972297Y-6913402D01*
X42143386Y-6940500D01*
X42143389Y-6940500D01*
X42316614Y-6940500D01*
X42487702Y-6913402D01*
X42487706Y-6913401D01*
X42652438Y-6859876D01*
X42652440Y-6859874D01*
X42652445Y-6859873D01*
X42806788Y-6781232D01*
X42946928Y-6679414D01*
X43069414Y-6556928D01*
X43171232Y-6416788D01*
X43249873Y-6262445D01*
X43249874Y-6262440D01*
X43249876Y-6262438D01*
X43303401Y-6097706D01*
X43303402Y-6097702D01*
X43330500Y-5926614D01*
X43330500Y-5753384D01*
X43669500Y-5753384D01*
X43669500Y-5926614D01*
X43696597Y-6097702D01*
X43696598Y-6097706D01*
X43750123Y-6262438D01*
X43750125Y-6262441D01*
X43828765Y-6416784D01*
X43828768Y-6416788D01*
X43930586Y-6556928D01*
X44053072Y-6679414D01*
X44193212Y-6781232D01*
X44347555Y-6859873D01*
X44347557Y-6859873D01*
X44347558Y-6859874D01*
X44347561Y-6859876D01*
X44512293Y-6913401D01*
X44512297Y-6913402D01*
X44683386Y-6940500D01*
X44683389Y-6940500D01*
X44856614Y-6940500D01*
X45027702Y-6913402D01*
X45027706Y-6913401D01*
X45192438Y-6859876D01*
X45192440Y-6859874D01*
X45192445Y-6859873D01*
X45346788Y-6781232D01*
X45486928Y-6679414D01*
X45609414Y-6556928D01*
X45711232Y-6416788D01*
X45789873Y-6262445D01*
X45789874Y-6262440D01*
X45789876Y-6262438D01*
X45843401Y-6097706D01*
X45843402Y-6097702D01*
X45870500Y-5926614D01*
X45870500Y-5753384D01*
X45870499Y-5753378D01*
X45843402Y-5582297D01*
X45843401Y-5582293D01*
X45789876Y-5417561D01*
X45789874Y-5417558D01*
X45789873Y-5417557D01*
X45789873Y-5417555D01*
X45711232Y-5263212D01*
X45609414Y-5123072D01*
X45486928Y-5000586D01*
X45346788Y-4898768D01*
X45346787Y-4898767D01*
X45346785Y-4898766D01*
X45192441Y-4820125D01*
X45192438Y-4820123D01*
X45027706Y-4766598D01*
X45027702Y-4766597D01*
X44856614Y-4739500D01*
X44856611Y-4739500D01*
X44683389Y-4739500D01*
X44683386Y-4739500D01*
X44512297Y-4766597D01*
X44512293Y-4766598D01*
X44347561Y-4820123D01*
X44347558Y-4820125D01*
X44193214Y-4898766D01*
X44053073Y-5000585D01*
X43930585Y-5123073D01*
X43828766Y-5263214D01*
X43750125Y-5417558D01*
X43750123Y-5417561D01*
X43696598Y-5582293D01*
X43696597Y-5582297D01*
X43669501Y-5753378D01*
X43669500Y-5753384D01*
X43330500Y-5753384D01*
X43330499Y-5753378D01*
X43303402Y-5582297D01*
X43303401Y-5582293D01*
X43249876Y-5417561D01*
X43249874Y-5417558D01*
X43249873Y-5417557D01*
X43249873Y-5417555D01*
X43171232Y-5263212D01*
X43069414Y-5123072D01*
X42946928Y-5000586D01*
X42806788Y-4898768D01*
X42806787Y-4898767D01*
X42806785Y-4898766D01*
X42652441Y-4820125D01*
X42652438Y-4820123D01*
X42487706Y-4766598D01*
X42487702Y-4766597D01*
X42316614Y-4739500D01*
X42316611Y-4739500D01*
X42143389Y-4739500D01*
X42143386Y-4739500D01*
X41972297Y-4766597D01*
X41972293Y-4766598D01*
X41807561Y-4820123D01*
X41807558Y-4820125D01*
X41653214Y-4898766D01*
X41513073Y-5000585D01*
X41390585Y-5123073D01*
X41288766Y-5263214D01*
X41210125Y-5417558D01*
X41210123Y-5417561D01*
X41156598Y-5582293D01*
X41156597Y-5582297D01*
X41129501Y-5753378D01*
X41129500Y-5753384D01*
X40790500Y-5753384D01*
X40790499Y-5753378D01*
X40763402Y-5582297D01*
X40763401Y-5582293D01*
X40709876Y-5417561D01*
X40709874Y-5417558D01*
X40709873Y-5417557D01*
X40709873Y-5417555D01*
X40631232Y-5263212D01*
X40529414Y-5123072D01*
X40406928Y-5000586D01*
X40266788Y-4898768D01*
X40266787Y-4898767D01*
X40266785Y-4898766D01*
X40112441Y-4820125D01*
X40112438Y-4820123D01*
X39947706Y-4766598D01*
X39947702Y-4766597D01*
X39776614Y-4739500D01*
X39776611Y-4739500D01*
X39603389Y-4739500D01*
X39603386Y-4739500D01*
X39432297Y-4766597D01*
X39432293Y-4766598D01*
X39267561Y-4820123D01*
X39267558Y-4820125D01*
X39113214Y-4898766D01*
X38973073Y-5000585D01*
X38850585Y-5123073D01*
X38748765Y-5263215D01*
X38746734Y-5266531D01*
X38745557Y-5265810D01*
X38706129Y-5305224D01*
X38645696Y-5314784D01*
X38591184Y-5286997D01*
X38563416Y-5232476D01*
X38562200Y-5217006D01*
X38562200Y-4547547D01*
X38581107Y-4489356D01*
X38591196Y-4477543D01*
X38829443Y-4239296D01*
X38883960Y-4211519D01*
X38899447Y-4210300D01*
X38999874Y-4210300D01*
X38999875Y-4210300D01*
X39139885Y-4172784D01*
X39139887Y-4172782D01*
X39139889Y-4172782D01*
X39265410Y-4100312D01*
X39265410Y-4100311D01*
X39265415Y-4100309D01*
X39367909Y-3997815D01*
X39367912Y-3997810D01*
X39440382Y-3872289D01*
X39440382Y-3872287D01*
X39440384Y-3872285D01*
X39477900Y-3732275D01*
X39477900Y-3587325D01*
X39440384Y-3447315D01*
X39440382Y-3447312D01*
X39440382Y-3447310D01*
X39367912Y-3321789D01*
X39367910Y-3321787D01*
X39367909Y-3321785D01*
X39265415Y-3219291D01*
X39265412Y-3219289D01*
X39265410Y-3219287D01*
X39139888Y-3146817D01*
X39139889Y-3146817D01*
X39087633Y-3132815D01*
X38999875Y-3109300D01*
X38854925Y-3109300D01*
X38793190Y-3125841D01*
X38714910Y-3146817D01*
X38589389Y-3219287D01*
X38486887Y-3321789D01*
X38414417Y-3447310D01*
X38376900Y-3587325D01*
X38376900Y-3687752D01*
X38357993Y-3745943D01*
X38347904Y-3757755D01*
X38012628Y-4093031D01*
X38012628Y-4093032D01*
X38012627Y-4093031D01*
X37949234Y-4156425D01*
X37949232Y-4156427D01*
X37949232Y-4156428D01*
X37904405Y-4234072D01*
X37904404Y-4234074D01*
X37904403Y-4234075D01*
X37881200Y-4320669D01*
X37881200Y-4816656D01*
X37862293Y-4874847D01*
X37812793Y-4910811D01*
X37751607Y-4910811D01*
X37730539Y-4900084D01*
X37730102Y-4900799D01*
X37726787Y-4898767D01*
X37572441Y-4820125D01*
X37572438Y-4820123D01*
X37407706Y-4766598D01*
X37407702Y-4766597D01*
X37236614Y-4739500D01*
X37236611Y-4739500D01*
X37063389Y-4739500D01*
X37063386Y-4739500D01*
X36892297Y-4766597D01*
X36892293Y-4766598D01*
X36727561Y-4820123D01*
X36727558Y-4820125D01*
X36573214Y-4898766D01*
X36436671Y-4997971D01*
X36433072Y-5000586D01*
X36389501Y-5044156D01*
X36368848Y-5054679D01*
X36350093Y-5068306D01*
X36342104Y-5068306D01*
X36334987Y-5071932D01*
X36312092Y-5068306D01*
X36288907Y-5068306D01*
X36282444Y-5063610D01*
X36274555Y-5062361D01*
X36258163Y-5045969D01*
X36239407Y-5032342D01*
X36236938Y-5024744D01*
X36231290Y-5019096D01*
X36220500Y-4974151D01*
X36220500Y-4879247D01*
X36239407Y-4821056D01*
X36249496Y-4809243D01*
X38949343Y-2109396D01*
X39003860Y-2081619D01*
X39019347Y-2080400D01*
X39119774Y-2080400D01*
X39119775Y-2080400D01*
X39259785Y-2042884D01*
X39259787Y-2042882D01*
X39259789Y-2042882D01*
X39385310Y-1970412D01*
X39385310Y-1970411D01*
X39385315Y-1970409D01*
X39487809Y-1867915D01*
X39525104Y-1803319D01*
X39560282Y-1742389D01*
X39560282Y-1742387D01*
X39560284Y-1742385D01*
X39597800Y-1602375D01*
X39597800Y-1457425D01*
X39597800Y-1457424D01*
X39596953Y-1450991D01*
X39600084Y-1450578D01*
X39602692Y-1402277D01*
X39641272Y-1354787D01*
X39695061Y-1338900D01*
X42286352Y-1338900D01*
X42344543Y-1357807D01*
X42356356Y-1367896D01*
X46278383Y-5289923D01*
X46306160Y-5344440D01*
X46296590Y-5404868D01*
X46290129Y-5417547D01*
X46290122Y-5417564D01*
X46236598Y-5582293D01*
X46236597Y-5582297D01*
X46209501Y-5753378D01*
X46209500Y-5753384D01*
X46209500Y-5926614D01*
X46236597Y-6097702D01*
X46236598Y-6097706D01*
X46290123Y-6262438D01*
X46290125Y-6262441D01*
X46368765Y-6416784D01*
X46368768Y-6416788D01*
X46470586Y-6556928D01*
X46593072Y-6679414D01*
X46733212Y-6781232D01*
X46887555Y-6859873D01*
X46887557Y-6859873D01*
X46887558Y-6859874D01*
X46887561Y-6859876D01*
X47052293Y-6913401D01*
X47052297Y-6913402D01*
X47223386Y-6940500D01*
X47223389Y-6940500D01*
X47396614Y-6940500D01*
X47567702Y-6913402D01*
X47567706Y-6913401D01*
X47732438Y-6859876D01*
X47732440Y-6859874D01*
X47732445Y-6859873D01*
X47886788Y-6781232D01*
X48026928Y-6679414D01*
X48149414Y-6556928D01*
X48251232Y-6416788D01*
X48329873Y-6262445D01*
X48329874Y-6262440D01*
X48329876Y-6262438D01*
X48383401Y-6097706D01*
X48383402Y-6097702D01*
X48410500Y-5926614D01*
X48410500Y-5753384D01*
X48749500Y-5753384D01*
X48749500Y-5926614D01*
X48776597Y-6097702D01*
X48776598Y-6097706D01*
X48830123Y-6262438D01*
X48830125Y-6262441D01*
X48908765Y-6416784D01*
X48908768Y-6416788D01*
X49010586Y-6556928D01*
X49133072Y-6679414D01*
X49273212Y-6781232D01*
X49427555Y-6859873D01*
X49427557Y-6859873D01*
X49427558Y-6859874D01*
X49427561Y-6859876D01*
X49592293Y-6913401D01*
X49592297Y-6913402D01*
X49763386Y-6940500D01*
X49763389Y-6940500D01*
X49936614Y-6940500D01*
X50107702Y-6913402D01*
X50107706Y-6913401D01*
X50272438Y-6859876D01*
X50272440Y-6859874D01*
X50272445Y-6859873D01*
X50426788Y-6781232D01*
X50566928Y-6679414D01*
X50689414Y-6556928D01*
X50791232Y-6416788D01*
X50869873Y-6262445D01*
X50869874Y-6262440D01*
X50869876Y-6262438D01*
X50923401Y-6097706D01*
X50923402Y-6097702D01*
X50950500Y-5926614D01*
X50950500Y-5753384D01*
X51289500Y-5753384D01*
X51289500Y-5926614D01*
X51316597Y-6097702D01*
X51316598Y-6097706D01*
X51370123Y-6262438D01*
X51370125Y-6262441D01*
X51448765Y-6416784D01*
X51448768Y-6416788D01*
X51550586Y-6556928D01*
X51673072Y-6679414D01*
X51813212Y-6781232D01*
X51967555Y-6859873D01*
X51967557Y-6859873D01*
X51967558Y-6859874D01*
X51967561Y-6859876D01*
X52132293Y-6913401D01*
X52132297Y-6913402D01*
X52303386Y-6940500D01*
X52303389Y-6940500D01*
X52476614Y-6940500D01*
X52647702Y-6913402D01*
X52647706Y-6913401D01*
X52812438Y-6859876D01*
X52812440Y-6859874D01*
X52812445Y-6859873D01*
X52966788Y-6781232D01*
X53106928Y-6679414D01*
X53229414Y-6556928D01*
X53331232Y-6416788D01*
X53409873Y-6262445D01*
X53409874Y-6262440D01*
X53409876Y-6262438D01*
X53463401Y-6097706D01*
X53463402Y-6097702D01*
X53490500Y-5926614D01*
X53490500Y-5753384D01*
X53829500Y-5753384D01*
X53829500Y-5926614D01*
X53856597Y-6097702D01*
X53856598Y-6097706D01*
X53910123Y-6262438D01*
X53910125Y-6262441D01*
X53988765Y-6416784D01*
X53988768Y-6416788D01*
X54090586Y-6556928D01*
X54213072Y-6679414D01*
X54353212Y-6781232D01*
X54507555Y-6859873D01*
X54507557Y-6859873D01*
X54507558Y-6859874D01*
X54507561Y-6859876D01*
X54672293Y-6913401D01*
X54672297Y-6913402D01*
X54843386Y-6940500D01*
X54843389Y-6940500D01*
X55016614Y-6940500D01*
X55187702Y-6913402D01*
X55187706Y-6913401D01*
X55352438Y-6859876D01*
X55352440Y-6859874D01*
X55352445Y-6859873D01*
X55506788Y-6781232D01*
X55646928Y-6679414D01*
X55769414Y-6556928D01*
X55871232Y-6416788D01*
X55949873Y-6262445D01*
X55949874Y-6262440D01*
X55949876Y-6262438D01*
X56003401Y-6097706D01*
X56003402Y-6097702D01*
X56030500Y-5926614D01*
X56030500Y-5753385D01*
X56029883Y-5749489D01*
X56320000Y-5749489D01*
X56320000Y-5930510D01*
X56348316Y-6109289D01*
X56404250Y-6281440D01*
X56486430Y-6442728D01*
X56527667Y-6499488D01*
X57001980Y-6025174D01*
X57004075Y-6032993D01*
X57069901Y-6147007D01*
X57162993Y-6240099D01*
X57277007Y-6305925D01*
X57284821Y-6308019D01*
X56810511Y-6782330D01*
X56867275Y-6823571D01*
X57028559Y-6905749D01*
X57200710Y-6961683D01*
X57379490Y-6990000D01*
X57560510Y-6990000D01*
X57739289Y-6961683D01*
X57911440Y-6905749D01*
X58072728Y-6823569D01*
X58129487Y-6782330D01*
X57655176Y-6308019D01*
X57662993Y-6305925D01*
X57777007Y-6240099D01*
X57870099Y-6147007D01*
X57935925Y-6032993D01*
X57938019Y-6025176D01*
X58412330Y-6499487D01*
X58453569Y-6442728D01*
X58535749Y-6281440D01*
X58591683Y-6109289D01*
X58620000Y-5930510D01*
X58620000Y-5749489D01*
X58591683Y-5570710D01*
X58535749Y-5398559D01*
X58453571Y-5237275D01*
X58412330Y-5180511D01*
X57938019Y-5654821D01*
X57935925Y-5647007D01*
X57870099Y-5532993D01*
X57777007Y-5439901D01*
X57662993Y-5374075D01*
X57655174Y-5371980D01*
X58129488Y-4897667D01*
X58072728Y-4856430D01*
X57911440Y-4774250D01*
X57739289Y-4718316D01*
X57560510Y-4690000D01*
X57379490Y-4690000D01*
X57200710Y-4718316D01*
X57028559Y-4774250D01*
X56867267Y-4856432D01*
X56810510Y-4897667D01*
X57284823Y-5371980D01*
X57277007Y-5374075D01*
X57162993Y-5439901D01*
X57069901Y-5532993D01*
X57004075Y-5647007D01*
X57001980Y-5654823D01*
X56527667Y-5180510D01*
X56486432Y-5237267D01*
X56404250Y-5398559D01*
X56348316Y-5570710D01*
X56320000Y-5749489D01*
X56029883Y-5749489D01*
X56003402Y-5582297D01*
X56003401Y-5582293D01*
X55949876Y-5417561D01*
X55949874Y-5417558D01*
X55949873Y-5417557D01*
X55949873Y-5417555D01*
X55871232Y-5263212D01*
X55769414Y-5123072D01*
X55646928Y-5000586D01*
X55506788Y-4898768D01*
X55506787Y-4898767D01*
X55506785Y-4898766D01*
X55352441Y-4820125D01*
X55352438Y-4820123D01*
X55187706Y-4766598D01*
X55187702Y-4766597D01*
X55016614Y-4739500D01*
X55016611Y-4739500D01*
X54843389Y-4739500D01*
X54843386Y-4739500D01*
X54672297Y-4766597D01*
X54672293Y-4766598D01*
X54507561Y-4820123D01*
X54507558Y-4820125D01*
X54353214Y-4898766D01*
X54213073Y-5000585D01*
X54090585Y-5123073D01*
X53988766Y-5263214D01*
X53910125Y-5417558D01*
X53910123Y-5417561D01*
X53856598Y-5582293D01*
X53856597Y-5582297D01*
X53829501Y-5753378D01*
X53829500Y-5753384D01*
X53490500Y-5753384D01*
X53490499Y-5753378D01*
X53463402Y-5582297D01*
X53463401Y-5582293D01*
X53409876Y-5417561D01*
X53409874Y-5417558D01*
X53409873Y-5417557D01*
X53409873Y-5417555D01*
X53331232Y-5263212D01*
X53229414Y-5123072D01*
X53106928Y-5000586D01*
X52966788Y-4898768D01*
X52966787Y-4898767D01*
X52966785Y-4898766D01*
X52812441Y-4820125D01*
X52812438Y-4820123D01*
X52647706Y-4766598D01*
X52647702Y-4766597D01*
X52476614Y-4739500D01*
X52476611Y-4739500D01*
X52303389Y-4739500D01*
X52303386Y-4739500D01*
X52132297Y-4766597D01*
X52132293Y-4766598D01*
X51967561Y-4820123D01*
X51967558Y-4820125D01*
X51813214Y-4898766D01*
X51673073Y-5000585D01*
X51550585Y-5123073D01*
X51448766Y-5263214D01*
X51370125Y-5417558D01*
X51370123Y-5417561D01*
X51316598Y-5582293D01*
X51316597Y-5582297D01*
X51289501Y-5753378D01*
X51289500Y-5753384D01*
X50950500Y-5753384D01*
X50950499Y-5753378D01*
X50923402Y-5582297D01*
X50923401Y-5582293D01*
X50869876Y-5417561D01*
X50869874Y-5417558D01*
X50869873Y-5417557D01*
X50869873Y-5417555D01*
X50791232Y-5263212D01*
X50689414Y-5123072D01*
X50566928Y-5000586D01*
X50426788Y-4898768D01*
X50426787Y-4898767D01*
X50426785Y-4898766D01*
X50272441Y-4820125D01*
X50272438Y-4820123D01*
X50107706Y-4766598D01*
X50107702Y-4766597D01*
X49936614Y-4739500D01*
X49936611Y-4739500D01*
X49763389Y-4739500D01*
X49763386Y-4739500D01*
X49592297Y-4766597D01*
X49592293Y-4766598D01*
X49427561Y-4820123D01*
X49427558Y-4820125D01*
X49273214Y-4898766D01*
X49133073Y-5000585D01*
X49010585Y-5123073D01*
X48908766Y-5263214D01*
X48830125Y-5417558D01*
X48830123Y-5417561D01*
X48776598Y-5582293D01*
X48776597Y-5582297D01*
X48749501Y-5753378D01*
X48749500Y-5753384D01*
X48410500Y-5753384D01*
X48410499Y-5753378D01*
X48383402Y-5582297D01*
X48383401Y-5582293D01*
X48329876Y-5417561D01*
X48329874Y-5417558D01*
X48329873Y-5417557D01*
X48329873Y-5417555D01*
X48251232Y-5263212D01*
X48149414Y-5123072D01*
X48026928Y-5000586D01*
X47886788Y-4898768D01*
X47886787Y-4898767D01*
X47886785Y-4898766D01*
X47732441Y-4820125D01*
X47732438Y-4820123D01*
X47567706Y-4766598D01*
X47567702Y-4766597D01*
X47396614Y-4739500D01*
X47396611Y-4739500D01*
X47223389Y-4739500D01*
X47223386Y-4739500D01*
X47052297Y-4766597D01*
X47052293Y-4766598D01*
X46887564Y-4820122D01*
X46887547Y-4820129D01*
X46874868Y-4826590D01*
X46814436Y-4836160D01*
X46759923Y-4808383D01*
X44746340Y-2794800D01*
X42677472Y-725932D01*
X42606982Y-685235D01*
X42566043Y-639767D01*
X42559647Y-578917D01*
X42590240Y-525929D01*
X42646135Y-501042D01*
X42656484Y-500500D01*
X61000500Y-500500D01*
X61058691Y-519407D01*
G37*
%TD.AperFunction*%
%TA.AperFunction,Conductor*%
G36*
X9416625Y-519407D02*
G01*
X9452589Y-568907D01*
X9452589Y-630093D01*
X9416625Y-679593D01*
X9407934Y-685236D01*
X9401089Y-689187D01*
X9298587Y-791689D01*
X9226117Y-917210D01*
X9188600Y-1057225D01*
X9188600Y-1202174D01*
X9226117Y-1342189D01*
X9298587Y-1467710D01*
X9298589Y-1467712D01*
X9298591Y-1467715D01*
X9401085Y-1570209D01*
X9401087Y-1570210D01*
X9401089Y-1570212D01*
X9526611Y-1642682D01*
X9526612Y-1642682D01*
X9526615Y-1642684D01*
X9666625Y-1680200D01*
X9666626Y-1680200D01*
X9811574Y-1680200D01*
X9811575Y-1680200D01*
X9951585Y-1642684D01*
X9951587Y-1642682D01*
X9951589Y-1642682D01*
X10077110Y-1570212D01*
X10077110Y-1570211D01*
X10077115Y-1570209D01*
X10179609Y-1467715D01*
X10209531Y-1415889D01*
X10252082Y-1342189D01*
X10252082Y-1342187D01*
X10252084Y-1342185D01*
X10289600Y-1202175D01*
X10289600Y-1169300D01*
X10308507Y-1111109D01*
X10358007Y-1075145D01*
X10388600Y-1070300D01*
X11686339Y-1070300D01*
X11701434Y-1075204D01*
X11717306Y-1075268D01*
X11729798Y-1084420D01*
X11744530Y-1089207D01*
X11753860Y-1102049D01*
X11766663Y-1111429D01*
X11769840Y-1124043D01*
X11780494Y-1138707D01*
X11785338Y-1169694D01*
X11785306Y-1177607D01*
X11784900Y-1179125D01*
X11784900Y-1279694D01*
X11784899Y-1279946D01*
X11775428Y-1308702D01*
X11765993Y-1337743D01*
X11765784Y-1337987D01*
X11765760Y-1338061D01*
X11765659Y-1338133D01*
X11755904Y-1349556D01*
X10091028Y-3014432D01*
X10091027Y-3014431D01*
X10027634Y-3077825D01*
X10027632Y-3077827D01*
X10027632Y-3077828D01*
X9987802Y-3146817D01*
X9982804Y-3155474D01*
X9982803Y-3155475D01*
X9959600Y-3242069D01*
X9959600Y-4830024D01*
X9940693Y-4888215D01*
X9891193Y-4924179D01*
X9830007Y-4924179D01*
X9802411Y-4910118D01*
X9786789Y-4898769D01*
X9786787Y-4898767D01*
X9632441Y-4820125D01*
X9632438Y-4820123D01*
X9467706Y-4766598D01*
X9467702Y-4766597D01*
X9296614Y-4739500D01*
X9296611Y-4739500D01*
X9123389Y-4739500D01*
X9123386Y-4739500D01*
X8952297Y-4766597D01*
X8952293Y-4766598D01*
X8787561Y-4820123D01*
X8787558Y-4820125D01*
X8633214Y-4898766D01*
X8493073Y-5000585D01*
X8370585Y-5123073D01*
X8268766Y-5263214D01*
X8190125Y-5417558D01*
X8190123Y-5417561D01*
X8136598Y-5582293D01*
X8136597Y-5582297D01*
X8109501Y-5753378D01*
X8109500Y-5753384D01*
X8109500Y-5926614D01*
X8136597Y-6097702D01*
X8136598Y-6097706D01*
X8190123Y-6262438D01*
X8190125Y-6262441D01*
X8268765Y-6416784D01*
X8268768Y-6416788D01*
X8370586Y-6556928D01*
X8493072Y-6679414D01*
X8633212Y-6781232D01*
X8787555Y-6859873D01*
X8787557Y-6859873D01*
X8787558Y-6859874D01*
X8787561Y-6859876D01*
X8952293Y-6913401D01*
X8952297Y-6913402D01*
X9123386Y-6940500D01*
X9173852Y-6940500D01*
X9232043Y-6959407D01*
X9268007Y-7008907D01*
X9268007Y-7070093D01*
X9243856Y-7109502D01*
X9000928Y-7352432D01*
X9000927Y-7352431D01*
X8937534Y-7415825D01*
X8937532Y-7415827D01*
X8937532Y-7415828D01*
X8917780Y-7450040D01*
X8892704Y-7493474D01*
X8892703Y-7493475D01*
X8869500Y-7580069D01*
X8869500Y-8531574D01*
X8850593Y-8589765D01*
X8801094Y-8625727D01*
X8795554Y-8627528D01*
X8787552Y-8630128D01*
X8633214Y-8708766D01*
X8493073Y-8810585D01*
X8370585Y-8933073D01*
X8268766Y-9073214D01*
X8190125Y-9227558D01*
X8190123Y-9227561D01*
X8136598Y-9392293D01*
X8136597Y-9392297D01*
X8109500Y-9563385D01*
X8109500Y-9736614D01*
X8136597Y-9907702D01*
X8136598Y-9907706D01*
X8190123Y-10072438D01*
X8190125Y-10072441D01*
X8268765Y-10226784D01*
X8268768Y-10226788D01*
X8370586Y-10366928D01*
X8493072Y-10489414D01*
X8633212Y-10591232D01*
X8787555Y-10669873D01*
X8787557Y-10669873D01*
X8787558Y-10669874D01*
X8787561Y-10669876D01*
X8952293Y-10723401D01*
X8952297Y-10723402D01*
X9123386Y-10750500D01*
X9123389Y-10750500D01*
X9296614Y-10750500D01*
X9467702Y-10723402D01*
X9467706Y-10723401D01*
X9632438Y-10669876D01*
X9632440Y-10669874D01*
X9632445Y-10669873D01*
X9786788Y-10591232D01*
X9919209Y-10495021D01*
X9977399Y-10476114D01*
X10035590Y-10495021D01*
X10071554Y-10544521D01*
X10076400Y-10575114D01*
X10076400Y-13117052D01*
X10057493Y-13175243D01*
X10047404Y-13187056D01*
X6672658Y-16561801D01*
X6618141Y-16589578D01*
X6557709Y-16580007D01*
X6514444Y-16536742D01*
X6507030Y-16517428D01*
X6492584Y-16463515D01*
X6492582Y-16463512D01*
X6492582Y-16463510D01*
X6420112Y-16337989D01*
X6420110Y-16337987D01*
X6420109Y-16337985D01*
X6317615Y-16235491D01*
X6317612Y-16235489D01*
X6317610Y-16235487D01*
X6192088Y-16163017D01*
X6192089Y-16163017D01*
X6162496Y-16155087D01*
X6052075Y-16125500D01*
X5907125Y-16125500D01*
X5845390Y-16142041D01*
X5767110Y-16163017D01*
X5641589Y-16235487D01*
X5641584Y-16235491D01*
X5570371Y-16306704D01*
X5515854Y-16334481D01*
X5500368Y-16335700D01*
X4312048Y-16335700D01*
X4253857Y-16316793D01*
X4242044Y-16306704D01*
X3402996Y-15467656D01*
X3375219Y-15413139D01*
X3374000Y-15397652D01*
X3374000Y-8755202D01*
X5520000Y-8755202D01*
X5520000Y-9449999D01*
X5520001Y-9450000D01*
X6208120Y-9450000D01*
X6204075Y-9457007D01*
X6170000Y-9584174D01*
X6170000Y-9715826D01*
X6204075Y-9842993D01*
X6208120Y-9850000D01*
X5520002Y-9850000D01*
X5520001Y-9850001D01*
X5520001Y-10544791D01*
X5522909Y-10569874D01*
X5568213Y-10672477D01*
X5647522Y-10751786D01*
X5750127Y-10797090D01*
X5775203Y-10799999D01*
X6469998Y-10799999D01*
X6470000Y-10799998D01*
X6470000Y-10111879D01*
X6477007Y-10115925D01*
X6604174Y-10150000D01*
X6735826Y-10150000D01*
X6862993Y-10115925D01*
X6870000Y-10111879D01*
X6870000Y-10799998D01*
X6870001Y-10799999D01*
X7564790Y-10799999D01*
X7564791Y-10799998D01*
X7589874Y-10797090D01*
X7692477Y-10751786D01*
X7771786Y-10672477D01*
X7817090Y-10569872D01*
X7819999Y-10544797D01*
X7820000Y-10544795D01*
X7820000Y-9850001D01*
X7819999Y-9850000D01*
X7131880Y-9850000D01*
X7135925Y-9842993D01*
X7170000Y-9715826D01*
X7170000Y-9584174D01*
X7135925Y-9457007D01*
X7131880Y-9450000D01*
X7819998Y-9450000D01*
X7819999Y-9449999D01*
X7819999Y-8755210D01*
X7819998Y-8755208D01*
X7817090Y-8730125D01*
X7771786Y-8627522D01*
X7692477Y-8548213D01*
X7589872Y-8502909D01*
X7564797Y-8500000D01*
X6870001Y-8500000D01*
X6870000Y-8500001D01*
X6870000Y-9188120D01*
X6862993Y-9184075D01*
X6735826Y-9150000D01*
X6604174Y-9150000D01*
X6477007Y-9184075D01*
X6470000Y-9188120D01*
X6470000Y-8500001D01*
X6469999Y-8500000D01*
X5775210Y-8500000D01*
X5775207Y-8500001D01*
X5750125Y-8502909D01*
X5647522Y-8548213D01*
X5568213Y-8627522D01*
X5522909Y-8730127D01*
X5520000Y-8755202D01*
X3374000Y-8755202D01*
X3374000Y-6845325D01*
X3392907Y-6787134D01*
X3442407Y-6751170D01*
X3503593Y-6751170D01*
X3531189Y-6765231D01*
X3553212Y-6781232D01*
X3707555Y-6859873D01*
X3707557Y-6859873D01*
X3707558Y-6859874D01*
X3707561Y-6859876D01*
X3872293Y-6913401D01*
X3872297Y-6913402D01*
X4043386Y-6940500D01*
X4043389Y-6940500D01*
X4216614Y-6940500D01*
X4387702Y-6913402D01*
X4387706Y-6913401D01*
X4552438Y-6859876D01*
X4552440Y-6859874D01*
X4552445Y-6859873D01*
X4706788Y-6781232D01*
X4846928Y-6679414D01*
X4969414Y-6556928D01*
X5071232Y-6416788D01*
X5149873Y-6262445D01*
X5149874Y-6262440D01*
X5149876Y-6262438D01*
X5203401Y-6097706D01*
X5203402Y-6097702D01*
X5230500Y-5926614D01*
X5230500Y-5753384D01*
X5569500Y-5753384D01*
X5569500Y-5926614D01*
X5596597Y-6097702D01*
X5596598Y-6097706D01*
X5650123Y-6262438D01*
X5650125Y-6262441D01*
X5728765Y-6416784D01*
X5728768Y-6416788D01*
X5830586Y-6556928D01*
X5953072Y-6679414D01*
X6093212Y-6781232D01*
X6247555Y-6859873D01*
X6247557Y-6859873D01*
X6247558Y-6859874D01*
X6247561Y-6859876D01*
X6412293Y-6913401D01*
X6412297Y-6913402D01*
X6583386Y-6940500D01*
X6583389Y-6940500D01*
X6756614Y-6940500D01*
X6927702Y-6913402D01*
X6927706Y-6913401D01*
X7092438Y-6859876D01*
X7092440Y-6859874D01*
X7092445Y-6859873D01*
X7246788Y-6781232D01*
X7386928Y-6679414D01*
X7509414Y-6556928D01*
X7611232Y-6416788D01*
X7689873Y-6262445D01*
X7689874Y-6262440D01*
X7689876Y-6262438D01*
X7743401Y-6097706D01*
X7743402Y-6097702D01*
X7770500Y-5926614D01*
X7770500Y-5753384D01*
X7770499Y-5753378D01*
X7743402Y-5582297D01*
X7743401Y-5582293D01*
X7689876Y-5417561D01*
X7689874Y-5417558D01*
X7689873Y-5417557D01*
X7689873Y-5417555D01*
X7611232Y-5263212D01*
X7509414Y-5123072D01*
X7386928Y-5000586D01*
X7246788Y-4898768D01*
X7246787Y-4898767D01*
X7246785Y-4898766D01*
X7092441Y-4820125D01*
X7092438Y-4820123D01*
X6927706Y-4766598D01*
X6927702Y-4766597D01*
X6756614Y-4739500D01*
X6756611Y-4739500D01*
X6583389Y-4739500D01*
X6583386Y-4739500D01*
X6412297Y-4766597D01*
X6412293Y-4766598D01*
X6247561Y-4820123D01*
X6247558Y-4820125D01*
X6093214Y-4898766D01*
X5953073Y-5000585D01*
X5830585Y-5123073D01*
X5728766Y-5263214D01*
X5650125Y-5417558D01*
X5650123Y-5417561D01*
X5596598Y-5582293D01*
X5596597Y-5582297D01*
X5569501Y-5753378D01*
X5569500Y-5753384D01*
X5230500Y-5753384D01*
X5230499Y-5753378D01*
X5203402Y-5582297D01*
X5203401Y-5582293D01*
X5149876Y-5417561D01*
X5149874Y-5417558D01*
X5149873Y-5417557D01*
X5149873Y-5417555D01*
X5071232Y-5263212D01*
X4969414Y-5123072D01*
X4846928Y-5000586D01*
X4706788Y-4898768D01*
X4706787Y-4898767D01*
X4706785Y-4898766D01*
X4552441Y-4820125D01*
X4552438Y-4820123D01*
X4387706Y-4766598D01*
X4387702Y-4766597D01*
X4216614Y-4739500D01*
X4216611Y-4739500D01*
X4043389Y-4739500D01*
X4043386Y-4739500D01*
X3872297Y-4766597D01*
X3872293Y-4766598D01*
X3707561Y-4820123D01*
X3707558Y-4820125D01*
X3553212Y-4898767D01*
X3553210Y-4898768D01*
X3531189Y-4914768D01*
X3472998Y-4933674D01*
X3414808Y-4914766D01*
X3378845Y-4865265D01*
X3374000Y-4834674D01*
X3374000Y-4216948D01*
X3392907Y-4158757D01*
X3402996Y-4146944D01*
X3700944Y-3848996D01*
X3755461Y-3821219D01*
X3770948Y-3820000D01*
X3871374Y-3820000D01*
X3871375Y-3820000D01*
X4011385Y-3782484D01*
X4011387Y-3782482D01*
X4011389Y-3782482D01*
X4136910Y-3710012D01*
X4136910Y-3710011D01*
X4136915Y-3710009D01*
X4239409Y-3607515D01*
X4239412Y-3607510D01*
X4311882Y-3481989D01*
X4311882Y-3481987D01*
X4311884Y-3481985D01*
X4349400Y-3341975D01*
X4349400Y-3197025D01*
X4311884Y-3057015D01*
X4311882Y-3057012D01*
X4311882Y-3057010D01*
X4239412Y-2931489D01*
X4239410Y-2931487D01*
X4239409Y-2931485D01*
X4136915Y-2828991D01*
X4136912Y-2828989D01*
X4136910Y-2828987D01*
X4011388Y-2756517D01*
X4011389Y-2756517D01*
X3905000Y-2728010D01*
X3871375Y-2719000D01*
X3726425Y-2719000D01*
X3692800Y-2728010D01*
X3586410Y-2756517D01*
X3460889Y-2828987D01*
X3358387Y-2931489D01*
X3285917Y-3057010D01*
X3248400Y-3197025D01*
X3248400Y-3297452D01*
X3229493Y-3355643D01*
X3219404Y-3367456D01*
X2824428Y-3762432D01*
X2824427Y-3762431D01*
X2761034Y-3825825D01*
X2761032Y-3825827D01*
X2761032Y-3825828D01*
X2719931Y-3897019D01*
X2716204Y-3903474D01*
X2716203Y-3903475D01*
X2693000Y-3990069D01*
X2693000Y-4672559D01*
X2674093Y-4730750D01*
X2624593Y-4766714D01*
X2563407Y-4766714D01*
X2539000Y-4754875D01*
X2537745Y-4754036D01*
X2537740Y-4754034D01*
X2537737Y-4754033D01*
X2537736Y-4754033D01*
X2464684Y-4739501D01*
X2464674Y-4739500D01*
X715326Y-4739500D01*
X715325Y-4739500D01*
X715315Y-4739501D01*
X642260Y-4754033D01*
X637377Y-4756056D01*
X576380Y-4760850D01*
X524214Y-4728876D01*
X500804Y-4672346D01*
X500500Y-4664588D01*
X500500Y-599500D01*
X519407Y-541309D01*
X568907Y-505345D01*
X599500Y-500500D01*
X9358434Y-500500D01*
X9416625Y-519407D01*
G37*
%TD.AperFunction*%
%TD*%
M02*
