%TF.GenerationSoftware,KiCad,Pcbnew,10.0.4*%
%TF.CreationDate,2026-09-14T23:59:09-03:00*%
%TF.ProjectId,tia-fpga,7469612d-6670-4676-912e-6b696361645f,B*%
%TF.SameCoordinates,Original*%
%TF.FileFunction,Drillmap*%
%TF.FilePolarity,Positive*%
%FSLAX45Y45*%
G04 Gerber Fmt 4.5, Leading zero omitted, Abs format (unit mm)*
G04 Created by KiCad (PCBNEW 10.0.4) date 2026-09-14 23:59:09*
%MOMM*%
%LPD*%
G01*
G04 APERTURE LIST*
%ADD10C,0.100000*%
%ADD11C,0.200000*%
G04 APERTURE END LIST*
D10*
X0Y0D02*
X7000000Y0D01*
X0Y-3200000D02*
X0Y0D01*
X7000000Y0D02*
X7000000Y-3200000D01*
X7000000Y-3200000D02*
X0Y-3200000D01*
D11*
D10*
X542330Y-1952410D02*
X572330Y-1982410D01*
X572330Y-1952410D02*
X542330Y-1982410D01*
X782060Y-185470D02*
X812060Y-215470D01*
X812060Y-185470D02*
X782060Y-215470D01*
X911590Y-1960160D02*
X941590Y-1990160D01*
X941590Y-1960160D02*
X911590Y-1990160D01*
X1258630Y-152280D02*
X1288630Y-182280D01*
X1288630Y-152280D02*
X1258630Y-182280D01*
X1377020Y-146950D02*
X1407020Y-176950D01*
X1407020Y-146950D02*
X1377020Y-176950D01*
X1451740Y-471900D02*
X1481740Y-501900D01*
X1481740Y-471900D02*
X1451740Y-501900D01*
X1666320Y-368110D02*
X1696320Y-398110D01*
X1696320Y-368110D02*
X1666320Y-398110D01*
X1775180Y-962000D02*
X1805180Y-992000D01*
X1805180Y-962000D02*
X1775180Y-992000D01*
X1866900Y-300010D02*
X1896900Y-330010D01*
X1896900Y-300010D02*
X1866900Y-330010D01*
X1877000Y-1244150D02*
X1907000Y-1274150D01*
X1907000Y-1244150D02*
X1877000Y-1274150D01*
X2023550Y-2191000D02*
X2053550Y-2221000D01*
X2053550Y-2191000D02*
X2023550Y-2221000D01*
X2205710Y-705290D02*
X2235710Y-735290D01*
X2235710Y-705290D02*
X2205710Y-735290D01*
X2537130Y-974160D02*
X2567130Y-1004160D01*
X2567130Y-974160D02*
X2537130Y-1004160D01*
X2560180Y-109940D02*
X2590180Y-139940D01*
X2590180Y-109940D02*
X2560180Y-139940D01*
X2856940Y-374210D02*
X2886940Y-404210D01*
X2886940Y-374210D02*
X2856940Y-404210D01*
X3594500Y-1266190D02*
X3624500Y-1296190D01*
X3624500Y-1266190D02*
X3594500Y-1296190D01*
X3860740Y-95390D02*
X3890740Y-125390D01*
X3890740Y-95390D02*
X3860740Y-125390D01*
X4203190Y-398190D02*
X4233190Y-428190D01*
X4233190Y-398190D02*
X4203190Y-428190D01*
X4276370Y-374800D02*
X4306370Y-404800D01*
X4306370Y-374800D02*
X4276370Y-404800D01*
X4282870Y-984920D02*
X4312870Y-1014920D01*
X4312870Y-984920D02*
X4282870Y-1014920D01*
X4308260Y-110000D02*
X4338260Y-140000D01*
X4338260Y-110000D02*
X4308260Y-140000D01*
X4521933Y-133294D02*
X4551933Y-163294D01*
X4551933Y-133294D02*
X4521933Y-163294D01*
X4842730Y-1904010D02*
X4872730Y-1934010D01*
X4872730Y-1904010D02*
X4842730Y-1934010D01*
X4994500Y-1902470D02*
X5024500Y-1932470D01*
X5024500Y-1902470D02*
X4994500Y-1932470D01*
X5206460Y-1793110D02*
X5236460Y-1823110D01*
X5236460Y-1793110D02*
X5206460Y-1823110D01*
X5254360Y-1301500D02*
X5284360Y-1331500D01*
X5284360Y-1301500D02*
X5254360Y-1331500D01*
X5285000Y-115000D02*
X5315000Y-145000D01*
X5315000Y-115000D02*
X5285000Y-145000D01*
X5337690Y-1873830D02*
X5367690Y-1903830D01*
X5367690Y-1873830D02*
X5337690Y-1903830D01*
X5615900Y-973480D02*
X5645900Y-1003480D01*
X5645900Y-973480D02*
X5615900Y-1003480D01*
X629000Y-584000D02*
G75*
G02*
X529000Y-584000I-50000J0D01*
G01*
X529000Y-584000D02*
G75*
G02*
X629000Y-584000I50000J0D01*
G01*
X629000Y-2616000D02*
G75*
G02*
X529000Y-2616000I-50000J0D01*
G01*
X529000Y-2616000D02*
G75*
G02*
X629000Y-2616000I50000J0D01*
G01*
X883000Y-584000D02*
G75*
G02*
X783000Y-584000I-50000J0D01*
G01*
X783000Y-584000D02*
G75*
G02*
X883000Y-584000I50000J0D01*
G01*
X883000Y-2616000D02*
G75*
G02*
X783000Y-2616000I-50000J0D01*
G01*
X783000Y-2616000D02*
G75*
G02*
X883000Y-2616000I50000J0D01*
G01*
X1137000Y-584000D02*
G75*
G02*
X1037000Y-584000I-50000J0D01*
G01*
X1037000Y-584000D02*
G75*
G02*
X1137000Y-584000I50000J0D01*
G01*
X1137000Y-838000D02*
G75*
G02*
X1037000Y-838000I-50000J0D01*
G01*
X1037000Y-838000D02*
G75*
G02*
X1137000Y-838000I50000J0D01*
G01*
X1137000Y-2362000D02*
G75*
G02*
X1037000Y-2362000I-50000J0D01*
G01*
X1037000Y-2362000D02*
G75*
G02*
X1137000Y-2362000I50000J0D01*
G01*
X1137000Y-2616000D02*
G75*
G02*
X1037000Y-2616000I-50000J0D01*
G01*
X1037000Y-2616000D02*
G75*
G02*
X1137000Y-2616000I50000J0D01*
G01*
X1391000Y-584000D02*
G75*
G02*
X1291000Y-584000I-50000J0D01*
G01*
X1291000Y-584000D02*
G75*
G02*
X1391000Y-584000I50000J0D01*
G01*
X1391000Y-838000D02*
G75*
G02*
X1291000Y-838000I-50000J0D01*
G01*
X1291000Y-838000D02*
G75*
G02*
X1391000Y-838000I50000J0D01*
G01*
X1391000Y-2362000D02*
G75*
G02*
X1291000Y-2362000I-50000J0D01*
G01*
X1291000Y-2362000D02*
G75*
G02*
X1391000Y-2362000I50000J0D01*
G01*
X1391000Y-2616000D02*
G75*
G02*
X1291000Y-2616000I-50000J0D01*
G01*
X1291000Y-2616000D02*
G75*
G02*
X1391000Y-2616000I50000J0D01*
G01*
X1645000Y-584000D02*
G75*
G02*
X1545000Y-584000I-50000J0D01*
G01*
X1545000Y-584000D02*
G75*
G02*
X1645000Y-584000I50000J0D01*
G01*
X1645000Y-838000D02*
G75*
G02*
X1545000Y-838000I-50000J0D01*
G01*
X1545000Y-838000D02*
G75*
G02*
X1645000Y-838000I50000J0D01*
G01*
X1645000Y-2362000D02*
G75*
G02*
X1545000Y-2362000I-50000J0D01*
G01*
X1545000Y-2362000D02*
G75*
G02*
X1645000Y-2362000I50000J0D01*
G01*
X1645000Y-2616000D02*
G75*
G02*
X1545000Y-2616000I-50000J0D01*
G01*
X1545000Y-2616000D02*
G75*
G02*
X1645000Y-2616000I50000J0D01*
G01*
X1899000Y-584000D02*
G75*
G02*
X1799000Y-584000I-50000J0D01*
G01*
X1799000Y-584000D02*
G75*
G02*
X1899000Y-584000I50000J0D01*
G01*
X1899000Y-838000D02*
G75*
G02*
X1799000Y-838000I-50000J0D01*
G01*
X1799000Y-838000D02*
G75*
G02*
X1899000Y-838000I50000J0D01*
G01*
X1899000Y-2362000D02*
G75*
G02*
X1799000Y-2362000I-50000J0D01*
G01*
X1799000Y-2362000D02*
G75*
G02*
X1899000Y-2362000I50000J0D01*
G01*
X1899000Y-2616000D02*
G75*
G02*
X1799000Y-2616000I-50000J0D01*
G01*
X1799000Y-2616000D02*
G75*
G02*
X1899000Y-2616000I50000J0D01*
G01*
X2153000Y-584000D02*
G75*
G02*
X2053000Y-584000I-50000J0D01*
G01*
X2053000Y-584000D02*
G75*
G02*
X2153000Y-584000I50000J0D01*
G01*
X2153000Y-838000D02*
G75*
G02*
X2053000Y-838000I-50000J0D01*
G01*
X2053000Y-838000D02*
G75*
G02*
X2153000Y-838000I50000J0D01*
G01*
X2153000Y-2362000D02*
G75*
G02*
X2053000Y-2362000I-50000J0D01*
G01*
X2053000Y-2362000D02*
G75*
G02*
X2153000Y-2362000I50000J0D01*
G01*
X2153000Y-2616000D02*
G75*
G02*
X2053000Y-2616000I-50000J0D01*
G01*
X2053000Y-2616000D02*
G75*
G02*
X2153000Y-2616000I50000J0D01*
G01*
X2407000Y-584000D02*
G75*
G02*
X2307000Y-584000I-50000J0D01*
G01*
X2307000Y-584000D02*
G75*
G02*
X2407000Y-584000I50000J0D01*
G01*
X2407000Y-838000D02*
G75*
G02*
X2307000Y-838000I-50000J0D01*
G01*
X2307000Y-838000D02*
G75*
G02*
X2407000Y-838000I50000J0D01*
G01*
X2407000Y-2362000D02*
G75*
G02*
X2307000Y-2362000I-50000J0D01*
G01*
X2307000Y-2362000D02*
G75*
G02*
X2407000Y-2362000I50000J0D01*
G01*
X2407000Y-2616000D02*
G75*
G02*
X2307000Y-2616000I-50000J0D01*
G01*
X2307000Y-2616000D02*
G75*
G02*
X2407000Y-2616000I50000J0D01*
G01*
X2661000Y-584000D02*
G75*
G02*
X2561000Y-584000I-50000J0D01*
G01*
X2561000Y-584000D02*
G75*
G02*
X2661000Y-584000I50000J0D01*
G01*
X2661000Y-838000D02*
G75*
G02*
X2561000Y-838000I-50000J0D01*
G01*
X2561000Y-838000D02*
G75*
G02*
X2661000Y-838000I50000J0D01*
G01*
X2661000Y-2362000D02*
G75*
G02*
X2561000Y-2362000I-50000J0D01*
G01*
X2561000Y-2362000D02*
G75*
G02*
X2661000Y-2362000I50000J0D01*
G01*
X2661000Y-2616000D02*
G75*
G02*
X2561000Y-2616000I-50000J0D01*
G01*
X2561000Y-2616000D02*
G75*
G02*
X2661000Y-2616000I50000J0D01*
G01*
X2915000Y-584000D02*
G75*
G02*
X2815000Y-584000I-50000J0D01*
G01*
X2815000Y-584000D02*
G75*
G02*
X2915000Y-584000I50000J0D01*
G01*
X2915000Y-838000D02*
G75*
G02*
X2815000Y-838000I-50000J0D01*
G01*
X2815000Y-838000D02*
G75*
G02*
X2915000Y-838000I50000J0D01*
G01*
X2915000Y-2362000D02*
G75*
G02*
X2815000Y-2362000I-50000J0D01*
G01*
X2815000Y-2362000D02*
G75*
G02*
X2915000Y-2362000I50000J0D01*
G01*
X2915000Y-2616000D02*
G75*
G02*
X2815000Y-2616000I-50000J0D01*
G01*
X2815000Y-2616000D02*
G75*
G02*
X2915000Y-2616000I50000J0D01*
G01*
X3169000Y-584000D02*
G75*
G02*
X3069000Y-584000I-50000J0D01*
G01*
X3069000Y-584000D02*
G75*
G02*
X3169000Y-584000I50000J0D01*
G01*
X3169000Y-838000D02*
G75*
G02*
X3069000Y-838000I-50000J0D01*
G01*
X3069000Y-838000D02*
G75*
G02*
X3169000Y-838000I50000J0D01*
G01*
X3169000Y-2362000D02*
G75*
G02*
X3069000Y-2362000I-50000J0D01*
G01*
X3069000Y-2362000D02*
G75*
G02*
X3169000Y-2362000I50000J0D01*
G01*
X3169000Y-2616000D02*
G75*
G02*
X3069000Y-2616000I-50000J0D01*
G01*
X3069000Y-2616000D02*
G75*
G02*
X3169000Y-2616000I50000J0D01*
G01*
X3423000Y-584000D02*
G75*
G02*
X3323000Y-584000I-50000J0D01*
G01*
X3323000Y-584000D02*
G75*
G02*
X3423000Y-584000I50000J0D01*
G01*
X3423000Y-838000D02*
G75*
G02*
X3323000Y-838000I-50000J0D01*
G01*
X3323000Y-838000D02*
G75*
G02*
X3423000Y-838000I50000J0D01*
G01*
X3423000Y-2362000D02*
G75*
G02*
X3323000Y-2362000I-50000J0D01*
G01*
X3323000Y-2362000D02*
G75*
G02*
X3423000Y-2362000I50000J0D01*
G01*
X3423000Y-2616000D02*
G75*
G02*
X3323000Y-2616000I-50000J0D01*
G01*
X3323000Y-2616000D02*
G75*
G02*
X3423000Y-2616000I50000J0D01*
G01*
X3677000Y-584000D02*
G75*
G02*
X3577000Y-584000I-50000J0D01*
G01*
X3577000Y-584000D02*
G75*
G02*
X3677000Y-584000I50000J0D01*
G01*
X3677000Y-838000D02*
G75*
G02*
X3577000Y-838000I-50000J0D01*
G01*
X3577000Y-838000D02*
G75*
G02*
X3677000Y-838000I50000J0D01*
G01*
X3677000Y-2362000D02*
G75*
G02*
X3577000Y-2362000I-50000J0D01*
G01*
X3577000Y-2362000D02*
G75*
G02*
X3677000Y-2362000I50000J0D01*
G01*
X3677000Y-2616000D02*
G75*
G02*
X3577000Y-2616000I-50000J0D01*
G01*
X3577000Y-2616000D02*
G75*
G02*
X3677000Y-2616000I50000J0D01*
G01*
X3931000Y-584000D02*
G75*
G02*
X3831000Y-584000I-50000J0D01*
G01*
X3831000Y-584000D02*
G75*
G02*
X3931000Y-584000I50000J0D01*
G01*
X3931000Y-838000D02*
G75*
G02*
X3831000Y-838000I-50000J0D01*
G01*
X3831000Y-838000D02*
G75*
G02*
X3931000Y-838000I50000J0D01*
G01*
X3931000Y-2362000D02*
G75*
G02*
X3831000Y-2362000I-50000J0D01*
G01*
X3831000Y-2362000D02*
G75*
G02*
X3931000Y-2362000I50000J0D01*
G01*
X3931000Y-2616000D02*
G75*
G02*
X3831000Y-2616000I-50000J0D01*
G01*
X3831000Y-2616000D02*
G75*
G02*
X3931000Y-2616000I50000J0D01*
G01*
X4185000Y-584000D02*
G75*
G02*
X4085000Y-584000I-50000J0D01*
G01*
X4085000Y-584000D02*
G75*
G02*
X4185000Y-584000I50000J0D01*
G01*
X4185000Y-838000D02*
G75*
G02*
X4085000Y-838000I-50000J0D01*
G01*
X4085000Y-838000D02*
G75*
G02*
X4185000Y-838000I50000J0D01*
G01*
X4185000Y-2362000D02*
G75*
G02*
X4085000Y-2362000I-50000J0D01*
G01*
X4085000Y-2362000D02*
G75*
G02*
X4185000Y-2362000I50000J0D01*
G01*
X4185000Y-2616000D02*
G75*
G02*
X4085000Y-2616000I-50000J0D01*
G01*
X4085000Y-2616000D02*
G75*
G02*
X4185000Y-2616000I50000J0D01*
G01*
X4439000Y-584000D02*
G75*
G02*
X4339000Y-584000I-50000J0D01*
G01*
X4339000Y-584000D02*
G75*
G02*
X4439000Y-584000I50000J0D01*
G01*
X4439000Y-838000D02*
G75*
G02*
X4339000Y-838000I-50000J0D01*
G01*
X4339000Y-838000D02*
G75*
G02*
X4439000Y-838000I50000J0D01*
G01*
X4439000Y-2362000D02*
G75*
G02*
X4339000Y-2362000I-50000J0D01*
G01*
X4339000Y-2362000D02*
G75*
G02*
X4439000Y-2362000I50000J0D01*
G01*
X4439000Y-2616000D02*
G75*
G02*
X4339000Y-2616000I-50000J0D01*
G01*
X4339000Y-2616000D02*
G75*
G02*
X4439000Y-2616000I50000J0D01*
G01*
X4693000Y-584000D02*
G75*
G02*
X4593000Y-584000I-50000J0D01*
G01*
X4593000Y-584000D02*
G75*
G02*
X4693000Y-584000I50000J0D01*
G01*
X4693000Y-838000D02*
G75*
G02*
X4593000Y-838000I-50000J0D01*
G01*
X4593000Y-838000D02*
G75*
G02*
X4693000Y-838000I50000J0D01*
G01*
X4693000Y-2362000D02*
G75*
G02*
X4593000Y-2362000I-50000J0D01*
G01*
X4593000Y-2362000D02*
G75*
G02*
X4693000Y-2362000I50000J0D01*
G01*
X4693000Y-2616000D02*
G75*
G02*
X4593000Y-2616000I-50000J0D01*
G01*
X4593000Y-2616000D02*
G75*
G02*
X4693000Y-2616000I50000J0D01*
G01*
X4947000Y-584000D02*
G75*
G02*
X4847000Y-584000I-50000J0D01*
G01*
X4847000Y-584000D02*
G75*
G02*
X4947000Y-584000I50000J0D01*
G01*
X4947000Y-838000D02*
G75*
G02*
X4847000Y-838000I-50000J0D01*
G01*
X4847000Y-838000D02*
G75*
G02*
X4947000Y-838000I50000J0D01*
G01*
X4947000Y-2362000D02*
G75*
G02*
X4847000Y-2362000I-50000J0D01*
G01*
X4847000Y-2362000D02*
G75*
G02*
X4947000Y-2362000I50000J0D01*
G01*
X4947000Y-2616000D02*
G75*
G02*
X4847000Y-2616000I-50000J0D01*
G01*
X4847000Y-2616000D02*
G75*
G02*
X4947000Y-2616000I50000J0D01*
G01*
X5201000Y-584000D02*
G75*
G02*
X5101000Y-584000I-50000J0D01*
G01*
X5101000Y-584000D02*
G75*
G02*
X5201000Y-584000I50000J0D01*
G01*
X5201000Y-838000D02*
G75*
G02*
X5101000Y-838000I-50000J0D01*
G01*
X5101000Y-838000D02*
G75*
G02*
X5201000Y-838000I50000J0D01*
G01*
X5201000Y-2362000D02*
G75*
G02*
X5101000Y-2362000I-50000J0D01*
G01*
X5101000Y-2362000D02*
G75*
G02*
X5201000Y-2362000I50000J0D01*
G01*
X5201000Y-2616000D02*
G75*
G02*
X5101000Y-2616000I-50000J0D01*
G01*
X5101000Y-2616000D02*
G75*
G02*
X5201000Y-2616000I50000J0D01*
G01*
X5455000Y-584000D02*
G75*
G02*
X5355000Y-584000I-50000J0D01*
G01*
X5355000Y-584000D02*
G75*
G02*
X5455000Y-584000I50000J0D01*
G01*
X5455000Y-838000D02*
G75*
G02*
X5355000Y-838000I-50000J0D01*
G01*
X5355000Y-838000D02*
G75*
G02*
X5455000Y-838000I50000J0D01*
G01*
X5455000Y-2362000D02*
G75*
G02*
X5355000Y-2362000I-50000J0D01*
G01*
X5355000Y-2362000D02*
G75*
G02*
X5455000Y-2362000I50000J0D01*
G01*
X5455000Y-2616000D02*
G75*
G02*
X5355000Y-2616000I-50000J0D01*
G01*
X5355000Y-2616000D02*
G75*
G02*
X5455000Y-2616000I50000J0D01*
G01*
X5709000Y-584000D02*
G75*
G02*
X5609000Y-584000I-50000J0D01*
G01*
X5609000Y-584000D02*
G75*
G02*
X5709000Y-584000I50000J0D01*
G01*
X5709000Y-838000D02*
G75*
G02*
X5609000Y-838000I-50000J0D01*
G01*
X5609000Y-838000D02*
G75*
G02*
X5709000Y-838000I50000J0D01*
G01*
X5709000Y-2362000D02*
G75*
G02*
X5609000Y-2362000I-50000J0D01*
G01*
X5609000Y-2362000D02*
G75*
G02*
X5709000Y-2362000I50000J0D01*
G01*
X5709000Y-2616000D02*
G75*
G02*
X5609000Y-2616000I-50000J0D01*
G01*
X5609000Y-2616000D02*
G75*
G02*
X5709000Y-2616000I50000J0D01*
G01*
X5963000Y-584000D02*
G75*
G02*
X5863000Y-584000I-50000J0D01*
G01*
X5863000Y-584000D02*
G75*
G02*
X5963000Y-584000I50000J0D01*
G01*
X5963000Y-838000D02*
G75*
G02*
X5863000Y-838000I-50000J0D01*
G01*
X5863000Y-838000D02*
G75*
G02*
X5963000Y-838000I50000J0D01*
G01*
X5963000Y-2362000D02*
G75*
G02*
X5863000Y-2362000I-50000J0D01*
G01*
X5863000Y-2362000D02*
G75*
G02*
X5963000Y-2362000I50000J0D01*
G01*
X5963000Y-2616000D02*
G75*
G02*
X5863000Y-2616000I-50000J0D01*
G01*
X5863000Y-2616000D02*
G75*
G02*
X5963000Y-2616000I50000J0D01*
G01*
X6217000Y-584000D02*
G75*
G02*
X6117000Y-584000I-50000J0D01*
G01*
X6117000Y-584000D02*
G75*
G02*
X6217000Y-584000I50000J0D01*
G01*
X6217000Y-2616000D02*
G75*
G02*
X6117000Y-2616000I-50000J0D01*
G01*
X6117000Y-2616000D02*
G75*
G02*
X6217000Y-2616000I50000J0D01*
G01*
X6471000Y-584000D02*
G75*
G02*
X6371000Y-584000I-50000J0D01*
G01*
X6371000Y-584000D02*
G75*
G02*
X6471000Y-584000I50000J0D01*
G01*
X6471000Y-2616000D02*
G75*
G02*
X6371000Y-2616000I-50000J0D01*
G01*
X6371000Y-2616000D02*
G75*
G02*
X6471000Y-2616000I50000J0D01*
G01*
D11*
X255777Y-3516484D02*
X255777Y-3316484D01*
X255777Y-3316484D02*
X303396Y-3316484D01*
X303396Y-3316484D02*
X331967Y-3326008D01*
X331967Y-3326008D02*
X351015Y-3345055D01*
X351015Y-3345055D02*
X360539Y-3364103D01*
X360539Y-3364103D02*
X370062Y-3402198D01*
X370062Y-3402198D02*
X370062Y-3430769D01*
X370062Y-3430769D02*
X360539Y-3468865D01*
X360539Y-3468865D02*
X351015Y-3487912D01*
X351015Y-3487912D02*
X331967Y-3506960D01*
X331967Y-3506960D02*
X303396Y-3516484D01*
X303396Y-3516484D02*
X255777Y-3516484D01*
X455777Y-3516484D02*
X455777Y-3383150D01*
X455777Y-3421246D02*
X465301Y-3402198D01*
X465301Y-3402198D02*
X474824Y-3392674D01*
X474824Y-3392674D02*
X493872Y-3383150D01*
X493872Y-3383150D02*
X512920Y-3383150D01*
X579586Y-3516484D02*
X579586Y-3383150D01*
X579586Y-3316484D02*
X570063Y-3326008D01*
X570063Y-3326008D02*
X579586Y-3335531D01*
X579586Y-3335531D02*
X589110Y-3326008D01*
X589110Y-3326008D02*
X579586Y-3316484D01*
X579586Y-3316484D02*
X579586Y-3335531D01*
X703396Y-3516484D02*
X684348Y-3506960D01*
X684348Y-3506960D02*
X674824Y-3487912D01*
X674824Y-3487912D02*
X674824Y-3316484D01*
X808158Y-3516484D02*
X789110Y-3506960D01*
X789110Y-3506960D02*
X779586Y-3487912D01*
X779586Y-3487912D02*
X779586Y-3316484D01*
X1036729Y-3516484D02*
X1036729Y-3316484D01*
X1036729Y-3316484D02*
X1103396Y-3459341D01*
X1103396Y-3459341D02*
X1170063Y-3316484D01*
X1170063Y-3316484D02*
X1170063Y-3516484D01*
X1351015Y-3516484D02*
X1351015Y-3411722D01*
X1351015Y-3411722D02*
X1341491Y-3392674D01*
X1341491Y-3392674D02*
X1322444Y-3383150D01*
X1322444Y-3383150D02*
X1284348Y-3383150D01*
X1284348Y-3383150D02*
X1265301Y-3392674D01*
X1351015Y-3506960D02*
X1331967Y-3516484D01*
X1331967Y-3516484D02*
X1284348Y-3516484D01*
X1284348Y-3516484D02*
X1265301Y-3506960D01*
X1265301Y-3506960D02*
X1255777Y-3487912D01*
X1255777Y-3487912D02*
X1255777Y-3468865D01*
X1255777Y-3468865D02*
X1265301Y-3449817D01*
X1265301Y-3449817D02*
X1284348Y-3440293D01*
X1284348Y-3440293D02*
X1331967Y-3440293D01*
X1331967Y-3440293D02*
X1351015Y-3430769D01*
X1446253Y-3383150D02*
X1446253Y-3583150D01*
X1446253Y-3392674D02*
X1465301Y-3383150D01*
X1465301Y-3383150D02*
X1503396Y-3383150D01*
X1503396Y-3383150D02*
X1522443Y-3392674D01*
X1522443Y-3392674D02*
X1531967Y-3402198D01*
X1531967Y-3402198D02*
X1541491Y-3421246D01*
X1541491Y-3421246D02*
X1541491Y-3478388D01*
X1541491Y-3478388D02*
X1531967Y-3497436D01*
X1531967Y-3497436D02*
X1522443Y-3506960D01*
X1522443Y-3506960D02*
X1503396Y-3516484D01*
X1503396Y-3516484D02*
X1465301Y-3516484D01*
X1465301Y-3516484D02*
X1446253Y-3506960D01*
X1627205Y-3497436D02*
X1636729Y-3506960D01*
X1636729Y-3506960D02*
X1627205Y-3516484D01*
X1627205Y-3516484D02*
X1617682Y-3506960D01*
X1617682Y-3506960D02*
X1627205Y-3497436D01*
X1627205Y-3497436D02*
X1627205Y-3516484D01*
X1627205Y-3392674D02*
X1636729Y-3402198D01*
X1636729Y-3402198D02*
X1627205Y-3411722D01*
X1627205Y-3411722D02*
X1617682Y-3402198D01*
X1617682Y-3402198D02*
X1627205Y-3392674D01*
X1627205Y-3392674D02*
X1627205Y-3411722D01*
D10*
X-35000Y-3830000D02*
X-5000Y-3860000D01*
X-5000Y-3830000D02*
X-35000Y-3860000D01*
D11*
X293872Y-3736484D02*
X312920Y-3736484D01*
X312920Y-3736484D02*
X331967Y-3746008D01*
X331967Y-3746008D02*
X341491Y-3755531D01*
X341491Y-3755531D02*
X351015Y-3774579D01*
X351015Y-3774579D02*
X360539Y-3812674D01*
X360539Y-3812674D02*
X360539Y-3860293D01*
X360539Y-3860293D02*
X351015Y-3898388D01*
X351015Y-3898388D02*
X341491Y-3917436D01*
X341491Y-3917436D02*
X331967Y-3926960D01*
X331967Y-3926960D02*
X312920Y-3936484D01*
X312920Y-3936484D02*
X293872Y-3936484D01*
X293872Y-3936484D02*
X274824Y-3926960D01*
X274824Y-3926960D02*
X265301Y-3917436D01*
X265301Y-3917436D02*
X255777Y-3898388D01*
X255777Y-3898388D02*
X246253Y-3860293D01*
X246253Y-3860293D02*
X246253Y-3812674D01*
X246253Y-3812674D02*
X255777Y-3774579D01*
X255777Y-3774579D02*
X265301Y-3755531D01*
X265301Y-3755531D02*
X274824Y-3746008D01*
X274824Y-3746008D02*
X293872Y-3736484D01*
X455777Y-3926960D02*
X455777Y-3936484D01*
X455777Y-3936484D02*
X446253Y-3955531D01*
X446253Y-3955531D02*
X436729Y-3965055D01*
X522443Y-3736484D02*
X646253Y-3736484D01*
X646253Y-3736484D02*
X579586Y-3812674D01*
X579586Y-3812674D02*
X608158Y-3812674D01*
X608158Y-3812674D02*
X627205Y-3822198D01*
X627205Y-3822198D02*
X636729Y-3831722D01*
X636729Y-3831722D02*
X646253Y-3850769D01*
X646253Y-3850769D02*
X646253Y-3898388D01*
X646253Y-3898388D02*
X636729Y-3917436D01*
X636729Y-3917436D02*
X627205Y-3926960D01*
X627205Y-3926960D02*
X608158Y-3936484D01*
X608158Y-3936484D02*
X551015Y-3936484D01*
X551015Y-3936484D02*
X531967Y-3926960D01*
X531967Y-3926960D02*
X522443Y-3917436D01*
X770062Y-3736484D02*
X789110Y-3736484D01*
X789110Y-3736484D02*
X808158Y-3746008D01*
X808158Y-3746008D02*
X817682Y-3755531D01*
X817682Y-3755531D02*
X827205Y-3774579D01*
X827205Y-3774579D02*
X836729Y-3812674D01*
X836729Y-3812674D02*
X836729Y-3860293D01*
X836729Y-3860293D02*
X827205Y-3898388D01*
X827205Y-3898388D02*
X817682Y-3917436D01*
X817682Y-3917436D02*
X808158Y-3926960D01*
X808158Y-3926960D02*
X789110Y-3936484D01*
X789110Y-3936484D02*
X770062Y-3936484D01*
X770062Y-3936484D02*
X751015Y-3926960D01*
X751015Y-3926960D02*
X741491Y-3917436D01*
X741491Y-3917436D02*
X731967Y-3898388D01*
X731967Y-3898388D02*
X722443Y-3860293D01*
X722443Y-3860293D02*
X722443Y-3812674D01*
X722443Y-3812674D02*
X731967Y-3774579D01*
X731967Y-3774579D02*
X741491Y-3755531D01*
X741491Y-3755531D02*
X751015Y-3746008D01*
X751015Y-3746008D02*
X770062Y-3736484D01*
X960539Y-3736484D02*
X979586Y-3736484D01*
X979586Y-3736484D02*
X998634Y-3746008D01*
X998634Y-3746008D02*
X1008158Y-3755531D01*
X1008158Y-3755531D02*
X1017682Y-3774579D01*
X1017682Y-3774579D02*
X1027205Y-3812674D01*
X1027205Y-3812674D02*
X1027205Y-3860293D01*
X1027205Y-3860293D02*
X1017682Y-3898388D01*
X1017682Y-3898388D02*
X1008158Y-3917436D01*
X1008158Y-3917436D02*
X998634Y-3926960D01*
X998634Y-3926960D02*
X979586Y-3936484D01*
X979586Y-3936484D02*
X960539Y-3936484D01*
X960539Y-3936484D02*
X941491Y-3926960D01*
X941491Y-3926960D02*
X931967Y-3917436D01*
X931967Y-3917436D02*
X922443Y-3898388D01*
X922443Y-3898388D02*
X912920Y-3860293D01*
X912920Y-3860293D02*
X912920Y-3812674D01*
X912920Y-3812674D02*
X922443Y-3774579D01*
X922443Y-3774579D02*
X931967Y-3755531D01*
X931967Y-3755531D02*
X941491Y-3746008D01*
X941491Y-3746008D02*
X960539Y-3736484D01*
X1112920Y-3936484D02*
X1112920Y-3803150D01*
X1112920Y-3822198D02*
X1122444Y-3812674D01*
X1122444Y-3812674D02*
X1141491Y-3803150D01*
X1141491Y-3803150D02*
X1170063Y-3803150D01*
X1170063Y-3803150D02*
X1189110Y-3812674D01*
X1189110Y-3812674D02*
X1198634Y-3831722D01*
X1198634Y-3831722D02*
X1198634Y-3936484D01*
X1198634Y-3831722D02*
X1208158Y-3812674D01*
X1208158Y-3812674D02*
X1227205Y-3803150D01*
X1227205Y-3803150D02*
X1255777Y-3803150D01*
X1255777Y-3803150D02*
X1274825Y-3812674D01*
X1274825Y-3812674D02*
X1284348Y-3831722D01*
X1284348Y-3831722D02*
X1284348Y-3936484D01*
X1379586Y-3936484D02*
X1379586Y-3803150D01*
X1379586Y-3822198D02*
X1389110Y-3812674D01*
X1389110Y-3812674D02*
X1408158Y-3803150D01*
X1408158Y-3803150D02*
X1436729Y-3803150D01*
X1436729Y-3803150D02*
X1455777Y-3812674D01*
X1455777Y-3812674D02*
X1465301Y-3831722D01*
X1465301Y-3831722D02*
X1465301Y-3936484D01*
X1465301Y-3831722D02*
X1474824Y-3812674D01*
X1474824Y-3812674D02*
X1493872Y-3803150D01*
X1493872Y-3803150D02*
X1522443Y-3803150D01*
X1522443Y-3803150D02*
X1541491Y-3812674D01*
X1541491Y-3812674D02*
X1551015Y-3831722D01*
X1551015Y-3831722D02*
X1551015Y-3936484D01*
X1941491Y-3726960D02*
X1770063Y-3984103D01*
X2198634Y-3736484D02*
X2217682Y-3736484D01*
X2217682Y-3736484D02*
X2236729Y-3746008D01*
X2236729Y-3746008D02*
X2246253Y-3755531D01*
X2246253Y-3755531D02*
X2255777Y-3774579D01*
X2255777Y-3774579D02*
X2265301Y-3812674D01*
X2265301Y-3812674D02*
X2265301Y-3860293D01*
X2265301Y-3860293D02*
X2255777Y-3898388D01*
X2255777Y-3898388D02*
X2246253Y-3917436D01*
X2246253Y-3917436D02*
X2236729Y-3926960D01*
X2236729Y-3926960D02*
X2217682Y-3936484D01*
X2217682Y-3936484D02*
X2198634Y-3936484D01*
X2198634Y-3936484D02*
X2179587Y-3926960D01*
X2179587Y-3926960D02*
X2170063Y-3917436D01*
X2170063Y-3917436D02*
X2160539Y-3898388D01*
X2160539Y-3898388D02*
X2151015Y-3860293D01*
X2151015Y-3860293D02*
X2151015Y-3812674D01*
X2151015Y-3812674D02*
X2160539Y-3774579D01*
X2160539Y-3774579D02*
X2170063Y-3755531D01*
X2170063Y-3755531D02*
X2179587Y-3746008D01*
X2179587Y-3746008D02*
X2198634Y-3736484D01*
X2360539Y-3926960D02*
X2360539Y-3936484D01*
X2360539Y-3936484D02*
X2351015Y-3955531D01*
X2351015Y-3955531D02*
X2341491Y-3965055D01*
X2484348Y-3736484D02*
X2503396Y-3736484D01*
X2503396Y-3736484D02*
X2522444Y-3746008D01*
X2522444Y-3746008D02*
X2531968Y-3755531D01*
X2531968Y-3755531D02*
X2541491Y-3774579D01*
X2541491Y-3774579D02*
X2551015Y-3812674D01*
X2551015Y-3812674D02*
X2551015Y-3860293D01*
X2551015Y-3860293D02*
X2541491Y-3898388D01*
X2541491Y-3898388D02*
X2531968Y-3917436D01*
X2531968Y-3917436D02*
X2522444Y-3926960D01*
X2522444Y-3926960D02*
X2503396Y-3936484D01*
X2503396Y-3936484D02*
X2484348Y-3936484D01*
X2484348Y-3936484D02*
X2465301Y-3926960D01*
X2465301Y-3926960D02*
X2455777Y-3917436D01*
X2455777Y-3917436D02*
X2446253Y-3898388D01*
X2446253Y-3898388D02*
X2436729Y-3860293D01*
X2436729Y-3860293D02*
X2436729Y-3812674D01*
X2436729Y-3812674D02*
X2446253Y-3774579D01*
X2446253Y-3774579D02*
X2455777Y-3755531D01*
X2455777Y-3755531D02*
X2465301Y-3746008D01*
X2465301Y-3746008D02*
X2484348Y-3736484D01*
X2741491Y-3936484D02*
X2627206Y-3936484D01*
X2684348Y-3936484D02*
X2684348Y-3736484D01*
X2684348Y-3736484D02*
X2665301Y-3765055D01*
X2665301Y-3765055D02*
X2646253Y-3784103D01*
X2646253Y-3784103D02*
X2627206Y-3793627D01*
X2931967Y-3936484D02*
X2817682Y-3936484D01*
X2874825Y-3936484D02*
X2874825Y-3736484D01*
X2874825Y-3736484D02*
X2855777Y-3765055D01*
X2855777Y-3765055D02*
X2836729Y-3784103D01*
X2836729Y-3784103D02*
X2817682Y-3793627D01*
X3046253Y-3822198D02*
X3027206Y-3812674D01*
X3027206Y-3812674D02*
X3017682Y-3803150D01*
X3017682Y-3803150D02*
X3008158Y-3784103D01*
X3008158Y-3784103D02*
X3008158Y-3774579D01*
X3008158Y-3774579D02*
X3017682Y-3755531D01*
X3017682Y-3755531D02*
X3027206Y-3746008D01*
X3027206Y-3746008D02*
X3046253Y-3736484D01*
X3046253Y-3736484D02*
X3084348Y-3736484D01*
X3084348Y-3736484D02*
X3103396Y-3746008D01*
X3103396Y-3746008D02*
X3112920Y-3755531D01*
X3112920Y-3755531D02*
X3122444Y-3774579D01*
X3122444Y-3774579D02*
X3122444Y-3784103D01*
X3122444Y-3784103D02*
X3112920Y-3803150D01*
X3112920Y-3803150D02*
X3103396Y-3812674D01*
X3103396Y-3812674D02*
X3084348Y-3822198D01*
X3084348Y-3822198D02*
X3046253Y-3822198D01*
X3046253Y-3822198D02*
X3027206Y-3831722D01*
X3027206Y-3831722D02*
X3017682Y-3841246D01*
X3017682Y-3841246D02*
X3008158Y-3860293D01*
X3008158Y-3860293D02*
X3008158Y-3898388D01*
X3008158Y-3898388D02*
X3017682Y-3917436D01*
X3017682Y-3917436D02*
X3027206Y-3926960D01*
X3027206Y-3926960D02*
X3046253Y-3936484D01*
X3046253Y-3936484D02*
X3084348Y-3936484D01*
X3084348Y-3936484D02*
X3103396Y-3926960D01*
X3103396Y-3926960D02*
X3112920Y-3917436D01*
X3112920Y-3917436D02*
X3122444Y-3898388D01*
X3122444Y-3898388D02*
X3122444Y-3860293D01*
X3122444Y-3860293D02*
X3112920Y-3841246D01*
X3112920Y-3841246D02*
X3103396Y-3831722D01*
X3103396Y-3831722D02*
X3084348Y-3822198D01*
X3198634Y-3736484D02*
X3198634Y-3774579D01*
X3274825Y-3736484D02*
X3274825Y-3774579D01*
X3570063Y-4012674D02*
X3560539Y-4003150D01*
X3560539Y-4003150D02*
X3541491Y-3974579D01*
X3541491Y-3974579D02*
X3531968Y-3955531D01*
X3531968Y-3955531D02*
X3522444Y-3926960D01*
X3522444Y-3926960D02*
X3512920Y-3879341D01*
X3512920Y-3879341D02*
X3512920Y-3841246D01*
X3512920Y-3841246D02*
X3522444Y-3793627D01*
X3522444Y-3793627D02*
X3531968Y-3765055D01*
X3531968Y-3765055D02*
X3541491Y-3746008D01*
X3541491Y-3746008D02*
X3560539Y-3717436D01*
X3560539Y-3717436D02*
X3570063Y-3707912D01*
X3636729Y-3755531D02*
X3646253Y-3746008D01*
X3646253Y-3746008D02*
X3665301Y-3736484D01*
X3665301Y-3736484D02*
X3712920Y-3736484D01*
X3712920Y-3736484D02*
X3731968Y-3746008D01*
X3731968Y-3746008D02*
X3741491Y-3755531D01*
X3741491Y-3755531D02*
X3751015Y-3774579D01*
X3751015Y-3774579D02*
X3751015Y-3793627D01*
X3751015Y-3793627D02*
X3741491Y-3822198D01*
X3741491Y-3822198D02*
X3627206Y-3936484D01*
X3627206Y-3936484D02*
X3751015Y-3936484D01*
X3846253Y-3936484D02*
X3884348Y-3936484D01*
X3884348Y-3936484D02*
X3903396Y-3926960D01*
X3903396Y-3926960D02*
X3912920Y-3917436D01*
X3912920Y-3917436D02*
X3931968Y-3888865D01*
X3931968Y-3888865D02*
X3941491Y-3850769D01*
X3941491Y-3850769D02*
X3941491Y-3774579D01*
X3941491Y-3774579D02*
X3931968Y-3755531D01*
X3931968Y-3755531D02*
X3922444Y-3746008D01*
X3922444Y-3746008D02*
X3903396Y-3736484D01*
X3903396Y-3736484D02*
X3865301Y-3736484D01*
X3865301Y-3736484D02*
X3846253Y-3746008D01*
X3846253Y-3746008D02*
X3836729Y-3755531D01*
X3836729Y-3755531D02*
X3827206Y-3774579D01*
X3827206Y-3774579D02*
X3827206Y-3822198D01*
X3827206Y-3822198D02*
X3836729Y-3841246D01*
X3836729Y-3841246D02*
X3846253Y-3850769D01*
X3846253Y-3850769D02*
X3865301Y-3860293D01*
X3865301Y-3860293D02*
X3903396Y-3860293D01*
X3903396Y-3860293D02*
X3922444Y-3850769D01*
X3922444Y-3850769D02*
X3931968Y-3841246D01*
X3931968Y-3841246D02*
X3941491Y-3822198D01*
X4179587Y-3936484D02*
X4179587Y-3736484D01*
X4265301Y-3936484D02*
X4265301Y-3831722D01*
X4265301Y-3831722D02*
X4255777Y-3812674D01*
X4255777Y-3812674D02*
X4236730Y-3803150D01*
X4236730Y-3803150D02*
X4208158Y-3803150D01*
X4208158Y-3803150D02*
X4189110Y-3812674D01*
X4189110Y-3812674D02*
X4179587Y-3822198D01*
X4389111Y-3936484D02*
X4370063Y-3926960D01*
X4370063Y-3926960D02*
X4360539Y-3917436D01*
X4360539Y-3917436D02*
X4351015Y-3898388D01*
X4351015Y-3898388D02*
X4351015Y-3841246D01*
X4351015Y-3841246D02*
X4360539Y-3822198D01*
X4360539Y-3822198D02*
X4370063Y-3812674D01*
X4370063Y-3812674D02*
X4389111Y-3803150D01*
X4389111Y-3803150D02*
X4417682Y-3803150D01*
X4417682Y-3803150D02*
X4436730Y-3812674D01*
X4436730Y-3812674D02*
X4446253Y-3822198D01*
X4446253Y-3822198D02*
X4455777Y-3841246D01*
X4455777Y-3841246D02*
X4455777Y-3898388D01*
X4455777Y-3898388D02*
X4446253Y-3917436D01*
X4446253Y-3917436D02*
X4436730Y-3926960D01*
X4436730Y-3926960D02*
X4417682Y-3936484D01*
X4417682Y-3936484D02*
X4389111Y-3936484D01*
X4570063Y-3936484D02*
X4551015Y-3926960D01*
X4551015Y-3926960D02*
X4541492Y-3907912D01*
X4541492Y-3907912D02*
X4541492Y-3736484D01*
X4722444Y-3926960D02*
X4703396Y-3936484D01*
X4703396Y-3936484D02*
X4665301Y-3936484D01*
X4665301Y-3936484D02*
X4646253Y-3926960D01*
X4646253Y-3926960D02*
X4636730Y-3907912D01*
X4636730Y-3907912D02*
X4636730Y-3831722D01*
X4636730Y-3831722D02*
X4646253Y-3812674D01*
X4646253Y-3812674D02*
X4665301Y-3803150D01*
X4665301Y-3803150D02*
X4703396Y-3803150D01*
X4703396Y-3803150D02*
X4722444Y-3812674D01*
X4722444Y-3812674D02*
X4731968Y-3831722D01*
X4731968Y-3831722D02*
X4731968Y-3850769D01*
X4731968Y-3850769D02*
X4636730Y-3869817D01*
X4808158Y-3926960D02*
X4827206Y-3936484D01*
X4827206Y-3936484D02*
X4865301Y-3936484D01*
X4865301Y-3936484D02*
X4884349Y-3926960D01*
X4884349Y-3926960D02*
X4893873Y-3907912D01*
X4893873Y-3907912D02*
X4893873Y-3898388D01*
X4893873Y-3898388D02*
X4884349Y-3879341D01*
X4884349Y-3879341D02*
X4865301Y-3869817D01*
X4865301Y-3869817D02*
X4836730Y-3869817D01*
X4836730Y-3869817D02*
X4817682Y-3860293D01*
X4817682Y-3860293D02*
X4808158Y-3841246D01*
X4808158Y-3841246D02*
X4808158Y-3831722D01*
X4808158Y-3831722D02*
X4817682Y-3812674D01*
X4817682Y-3812674D02*
X4836730Y-3803150D01*
X4836730Y-3803150D02*
X4865301Y-3803150D01*
X4865301Y-3803150D02*
X4884349Y-3812674D01*
X4960539Y-4012674D02*
X4970063Y-4003150D01*
X4970063Y-4003150D02*
X4989111Y-3974579D01*
X4989111Y-3974579D02*
X4998634Y-3955531D01*
X4998634Y-3955531D02*
X5008158Y-3926960D01*
X5008158Y-3926960D02*
X5017682Y-3879341D01*
X5017682Y-3879341D02*
X5017682Y-3841246D01*
X5017682Y-3841246D02*
X5008158Y-3793627D01*
X5008158Y-3793627D02*
X4998634Y-3765055D01*
X4998634Y-3765055D02*
X4989111Y-3746008D01*
X4989111Y-3746008D02*
X4970063Y-3717436D01*
X4970063Y-3717436D02*
X4960539Y-3707912D01*
D10*
X-5000Y-4109000D02*
G75*
G02*
X-105000Y-4109000I-50000J0D01*
G01*
X-105000Y-4109000D02*
G75*
G02*
X-5000Y-4109000I50000J0D01*
G01*
D11*
X360539Y-4200484D02*
X246253Y-4200484D01*
X303396Y-4200484D02*
X303396Y-4000484D01*
X303396Y-4000484D02*
X284348Y-4029055D01*
X284348Y-4029055D02*
X265301Y-4048103D01*
X265301Y-4048103D02*
X246253Y-4057627D01*
X455777Y-4190960D02*
X455777Y-4200484D01*
X455777Y-4200484D02*
X446253Y-4219531D01*
X446253Y-4219531D02*
X436729Y-4229055D01*
X579586Y-4000484D02*
X598634Y-4000484D01*
X598634Y-4000484D02*
X617682Y-4010008D01*
X617682Y-4010008D02*
X627205Y-4019531D01*
X627205Y-4019531D02*
X636729Y-4038579D01*
X636729Y-4038579D02*
X646253Y-4076674D01*
X646253Y-4076674D02*
X646253Y-4124293D01*
X646253Y-4124293D02*
X636729Y-4162388D01*
X636729Y-4162388D02*
X627205Y-4181436D01*
X627205Y-4181436D02*
X617682Y-4190960D01*
X617682Y-4190960D02*
X598634Y-4200484D01*
X598634Y-4200484D02*
X579586Y-4200484D01*
X579586Y-4200484D02*
X560539Y-4190960D01*
X560539Y-4190960D02*
X551015Y-4181436D01*
X551015Y-4181436D02*
X541491Y-4162388D01*
X541491Y-4162388D02*
X531967Y-4124293D01*
X531967Y-4124293D02*
X531967Y-4076674D01*
X531967Y-4076674D02*
X541491Y-4038579D01*
X541491Y-4038579D02*
X551015Y-4019531D01*
X551015Y-4019531D02*
X560539Y-4010008D01*
X560539Y-4010008D02*
X579586Y-4000484D01*
X770062Y-4000484D02*
X789110Y-4000484D01*
X789110Y-4000484D02*
X808158Y-4010008D01*
X808158Y-4010008D02*
X817682Y-4019531D01*
X817682Y-4019531D02*
X827205Y-4038579D01*
X827205Y-4038579D02*
X836729Y-4076674D01*
X836729Y-4076674D02*
X836729Y-4124293D01*
X836729Y-4124293D02*
X827205Y-4162388D01*
X827205Y-4162388D02*
X817682Y-4181436D01*
X817682Y-4181436D02*
X808158Y-4190960D01*
X808158Y-4190960D02*
X789110Y-4200484D01*
X789110Y-4200484D02*
X770062Y-4200484D01*
X770062Y-4200484D02*
X751015Y-4190960D01*
X751015Y-4190960D02*
X741491Y-4181436D01*
X741491Y-4181436D02*
X731967Y-4162388D01*
X731967Y-4162388D02*
X722443Y-4124293D01*
X722443Y-4124293D02*
X722443Y-4076674D01*
X722443Y-4076674D02*
X731967Y-4038579D01*
X731967Y-4038579D02*
X741491Y-4019531D01*
X741491Y-4019531D02*
X751015Y-4010008D01*
X751015Y-4010008D02*
X770062Y-4000484D01*
X960539Y-4000484D02*
X979586Y-4000484D01*
X979586Y-4000484D02*
X998634Y-4010008D01*
X998634Y-4010008D02*
X1008158Y-4019531D01*
X1008158Y-4019531D02*
X1017682Y-4038579D01*
X1017682Y-4038579D02*
X1027205Y-4076674D01*
X1027205Y-4076674D02*
X1027205Y-4124293D01*
X1027205Y-4124293D02*
X1017682Y-4162388D01*
X1017682Y-4162388D02*
X1008158Y-4181436D01*
X1008158Y-4181436D02*
X998634Y-4190960D01*
X998634Y-4190960D02*
X979586Y-4200484D01*
X979586Y-4200484D02*
X960539Y-4200484D01*
X960539Y-4200484D02*
X941491Y-4190960D01*
X941491Y-4190960D02*
X931967Y-4181436D01*
X931967Y-4181436D02*
X922443Y-4162388D01*
X922443Y-4162388D02*
X912920Y-4124293D01*
X912920Y-4124293D02*
X912920Y-4076674D01*
X912920Y-4076674D02*
X922443Y-4038579D01*
X922443Y-4038579D02*
X931967Y-4019531D01*
X931967Y-4019531D02*
X941491Y-4010008D01*
X941491Y-4010008D02*
X960539Y-4000484D01*
X1112920Y-4200484D02*
X1112920Y-4067150D01*
X1112920Y-4086198D02*
X1122444Y-4076674D01*
X1122444Y-4076674D02*
X1141491Y-4067150D01*
X1141491Y-4067150D02*
X1170063Y-4067150D01*
X1170063Y-4067150D02*
X1189110Y-4076674D01*
X1189110Y-4076674D02*
X1198634Y-4095722D01*
X1198634Y-4095722D02*
X1198634Y-4200484D01*
X1198634Y-4095722D02*
X1208158Y-4076674D01*
X1208158Y-4076674D02*
X1227205Y-4067150D01*
X1227205Y-4067150D02*
X1255777Y-4067150D01*
X1255777Y-4067150D02*
X1274825Y-4076674D01*
X1274825Y-4076674D02*
X1284348Y-4095722D01*
X1284348Y-4095722D02*
X1284348Y-4200484D01*
X1379586Y-4200484D02*
X1379586Y-4067150D01*
X1379586Y-4086198D02*
X1389110Y-4076674D01*
X1389110Y-4076674D02*
X1408158Y-4067150D01*
X1408158Y-4067150D02*
X1436729Y-4067150D01*
X1436729Y-4067150D02*
X1455777Y-4076674D01*
X1455777Y-4076674D02*
X1465301Y-4095722D01*
X1465301Y-4095722D02*
X1465301Y-4200484D01*
X1465301Y-4095722D02*
X1474824Y-4076674D01*
X1474824Y-4076674D02*
X1493872Y-4067150D01*
X1493872Y-4067150D02*
X1522443Y-4067150D01*
X1522443Y-4067150D02*
X1541491Y-4076674D01*
X1541491Y-4076674D02*
X1551015Y-4095722D01*
X1551015Y-4095722D02*
X1551015Y-4200484D01*
X1941491Y-3990960D02*
X1770063Y-4248103D01*
X2198634Y-4000484D02*
X2217682Y-4000484D01*
X2217682Y-4000484D02*
X2236729Y-4010008D01*
X2236729Y-4010008D02*
X2246253Y-4019531D01*
X2246253Y-4019531D02*
X2255777Y-4038579D01*
X2255777Y-4038579D02*
X2265301Y-4076674D01*
X2265301Y-4076674D02*
X2265301Y-4124293D01*
X2265301Y-4124293D02*
X2255777Y-4162388D01*
X2255777Y-4162388D02*
X2246253Y-4181436D01*
X2246253Y-4181436D02*
X2236729Y-4190960D01*
X2236729Y-4190960D02*
X2217682Y-4200484D01*
X2217682Y-4200484D02*
X2198634Y-4200484D01*
X2198634Y-4200484D02*
X2179587Y-4190960D01*
X2179587Y-4190960D02*
X2170063Y-4181436D01*
X2170063Y-4181436D02*
X2160539Y-4162388D01*
X2160539Y-4162388D02*
X2151015Y-4124293D01*
X2151015Y-4124293D02*
X2151015Y-4076674D01*
X2151015Y-4076674D02*
X2160539Y-4038579D01*
X2160539Y-4038579D02*
X2170063Y-4019531D01*
X2170063Y-4019531D02*
X2179587Y-4010008D01*
X2179587Y-4010008D02*
X2198634Y-4000484D01*
X2360539Y-4190960D02*
X2360539Y-4200484D01*
X2360539Y-4200484D02*
X2351015Y-4219531D01*
X2351015Y-4219531D02*
X2341491Y-4229055D01*
X2484348Y-4000484D02*
X2503396Y-4000484D01*
X2503396Y-4000484D02*
X2522444Y-4010008D01*
X2522444Y-4010008D02*
X2531968Y-4019531D01*
X2531968Y-4019531D02*
X2541491Y-4038579D01*
X2541491Y-4038579D02*
X2551015Y-4076674D01*
X2551015Y-4076674D02*
X2551015Y-4124293D01*
X2551015Y-4124293D02*
X2541491Y-4162388D01*
X2541491Y-4162388D02*
X2531968Y-4181436D01*
X2531968Y-4181436D02*
X2522444Y-4190960D01*
X2522444Y-4190960D02*
X2503396Y-4200484D01*
X2503396Y-4200484D02*
X2484348Y-4200484D01*
X2484348Y-4200484D02*
X2465301Y-4190960D01*
X2465301Y-4190960D02*
X2455777Y-4181436D01*
X2455777Y-4181436D02*
X2446253Y-4162388D01*
X2446253Y-4162388D02*
X2436729Y-4124293D01*
X2436729Y-4124293D02*
X2436729Y-4076674D01*
X2436729Y-4076674D02*
X2446253Y-4038579D01*
X2446253Y-4038579D02*
X2455777Y-4019531D01*
X2455777Y-4019531D02*
X2465301Y-4010008D01*
X2465301Y-4010008D02*
X2484348Y-4000484D01*
X2617682Y-4000484D02*
X2741491Y-4000484D01*
X2741491Y-4000484D02*
X2674825Y-4076674D01*
X2674825Y-4076674D02*
X2703396Y-4076674D01*
X2703396Y-4076674D02*
X2722444Y-4086198D01*
X2722444Y-4086198D02*
X2731968Y-4095722D01*
X2731968Y-4095722D02*
X2741491Y-4114769D01*
X2741491Y-4114769D02*
X2741491Y-4162388D01*
X2741491Y-4162388D02*
X2731968Y-4181436D01*
X2731968Y-4181436D02*
X2722444Y-4190960D01*
X2722444Y-4190960D02*
X2703396Y-4200484D01*
X2703396Y-4200484D02*
X2646253Y-4200484D01*
X2646253Y-4200484D02*
X2627206Y-4190960D01*
X2627206Y-4190960D02*
X2617682Y-4181436D01*
X2836729Y-4200484D02*
X2874825Y-4200484D01*
X2874825Y-4200484D02*
X2893872Y-4190960D01*
X2893872Y-4190960D02*
X2903396Y-4181436D01*
X2903396Y-4181436D02*
X2922444Y-4152865D01*
X2922444Y-4152865D02*
X2931967Y-4114769D01*
X2931967Y-4114769D02*
X2931967Y-4038579D01*
X2931967Y-4038579D02*
X2922444Y-4019531D01*
X2922444Y-4019531D02*
X2912920Y-4010008D01*
X2912920Y-4010008D02*
X2893872Y-4000484D01*
X2893872Y-4000484D02*
X2855777Y-4000484D01*
X2855777Y-4000484D02*
X2836729Y-4010008D01*
X2836729Y-4010008D02*
X2827206Y-4019531D01*
X2827206Y-4019531D02*
X2817682Y-4038579D01*
X2817682Y-4038579D02*
X2817682Y-4086198D01*
X2817682Y-4086198D02*
X2827206Y-4105246D01*
X2827206Y-4105246D02*
X2836729Y-4114769D01*
X2836729Y-4114769D02*
X2855777Y-4124293D01*
X2855777Y-4124293D02*
X2893872Y-4124293D01*
X2893872Y-4124293D02*
X2912920Y-4114769D01*
X2912920Y-4114769D02*
X2922444Y-4105246D01*
X2922444Y-4105246D02*
X2931967Y-4086198D01*
X3103396Y-4067150D02*
X3103396Y-4200484D01*
X3055777Y-3990960D02*
X3008158Y-4133817D01*
X3008158Y-4133817D02*
X3131967Y-4133817D01*
X3198634Y-4000484D02*
X3198634Y-4038579D01*
X3274825Y-4000484D02*
X3274825Y-4038579D01*
X3570063Y-4276674D02*
X3560539Y-4267150D01*
X3560539Y-4267150D02*
X3541491Y-4238579D01*
X3541491Y-4238579D02*
X3531968Y-4219531D01*
X3531968Y-4219531D02*
X3522444Y-4190960D01*
X3522444Y-4190960D02*
X3512920Y-4143341D01*
X3512920Y-4143341D02*
X3512920Y-4105246D01*
X3512920Y-4105246D02*
X3522444Y-4057627D01*
X3522444Y-4057627D02*
X3531968Y-4029055D01*
X3531968Y-4029055D02*
X3541491Y-4010008D01*
X3541491Y-4010008D02*
X3560539Y-3981436D01*
X3560539Y-3981436D02*
X3570063Y-3971912D01*
X3674825Y-4086198D02*
X3655777Y-4076674D01*
X3655777Y-4076674D02*
X3646253Y-4067150D01*
X3646253Y-4067150D02*
X3636729Y-4048103D01*
X3636729Y-4048103D02*
X3636729Y-4038579D01*
X3636729Y-4038579D02*
X3646253Y-4019531D01*
X3646253Y-4019531D02*
X3655777Y-4010008D01*
X3655777Y-4010008D02*
X3674825Y-4000484D01*
X3674825Y-4000484D02*
X3712920Y-4000484D01*
X3712920Y-4000484D02*
X3731968Y-4010008D01*
X3731968Y-4010008D02*
X3741491Y-4019531D01*
X3741491Y-4019531D02*
X3751015Y-4038579D01*
X3751015Y-4038579D02*
X3751015Y-4048103D01*
X3751015Y-4048103D02*
X3741491Y-4067150D01*
X3741491Y-4067150D02*
X3731968Y-4076674D01*
X3731968Y-4076674D02*
X3712920Y-4086198D01*
X3712920Y-4086198D02*
X3674825Y-4086198D01*
X3674825Y-4086198D02*
X3655777Y-4095722D01*
X3655777Y-4095722D02*
X3646253Y-4105246D01*
X3646253Y-4105246D02*
X3636729Y-4124293D01*
X3636729Y-4124293D02*
X3636729Y-4162388D01*
X3636729Y-4162388D02*
X3646253Y-4181436D01*
X3646253Y-4181436D02*
X3655777Y-4190960D01*
X3655777Y-4190960D02*
X3674825Y-4200484D01*
X3674825Y-4200484D02*
X3712920Y-4200484D01*
X3712920Y-4200484D02*
X3731968Y-4190960D01*
X3731968Y-4190960D02*
X3741491Y-4181436D01*
X3741491Y-4181436D02*
X3751015Y-4162388D01*
X3751015Y-4162388D02*
X3751015Y-4124293D01*
X3751015Y-4124293D02*
X3741491Y-4105246D01*
X3741491Y-4105246D02*
X3731968Y-4095722D01*
X3731968Y-4095722D02*
X3712920Y-4086198D01*
X3865301Y-4086198D02*
X3846253Y-4076674D01*
X3846253Y-4076674D02*
X3836729Y-4067150D01*
X3836729Y-4067150D02*
X3827206Y-4048103D01*
X3827206Y-4048103D02*
X3827206Y-4038579D01*
X3827206Y-4038579D02*
X3836729Y-4019531D01*
X3836729Y-4019531D02*
X3846253Y-4010008D01*
X3846253Y-4010008D02*
X3865301Y-4000484D01*
X3865301Y-4000484D02*
X3903396Y-4000484D01*
X3903396Y-4000484D02*
X3922444Y-4010008D01*
X3922444Y-4010008D02*
X3931968Y-4019531D01*
X3931968Y-4019531D02*
X3941491Y-4038579D01*
X3941491Y-4038579D02*
X3941491Y-4048103D01*
X3941491Y-4048103D02*
X3931968Y-4067150D01*
X3931968Y-4067150D02*
X3922444Y-4076674D01*
X3922444Y-4076674D02*
X3903396Y-4086198D01*
X3903396Y-4086198D02*
X3865301Y-4086198D01*
X3865301Y-4086198D02*
X3846253Y-4095722D01*
X3846253Y-4095722D02*
X3836729Y-4105246D01*
X3836729Y-4105246D02*
X3827206Y-4124293D01*
X3827206Y-4124293D02*
X3827206Y-4162388D01*
X3827206Y-4162388D02*
X3836729Y-4181436D01*
X3836729Y-4181436D02*
X3846253Y-4190960D01*
X3846253Y-4190960D02*
X3865301Y-4200484D01*
X3865301Y-4200484D02*
X3903396Y-4200484D01*
X3903396Y-4200484D02*
X3922444Y-4190960D01*
X3922444Y-4190960D02*
X3931968Y-4181436D01*
X3931968Y-4181436D02*
X3941491Y-4162388D01*
X3941491Y-4162388D02*
X3941491Y-4124293D01*
X3941491Y-4124293D02*
X3931968Y-4105246D01*
X3931968Y-4105246D02*
X3922444Y-4095722D01*
X3922444Y-4095722D02*
X3903396Y-4086198D01*
X4179587Y-4200484D02*
X4179587Y-4000484D01*
X4265301Y-4200484D02*
X4265301Y-4095722D01*
X4265301Y-4095722D02*
X4255777Y-4076674D01*
X4255777Y-4076674D02*
X4236730Y-4067150D01*
X4236730Y-4067150D02*
X4208158Y-4067150D01*
X4208158Y-4067150D02*
X4189110Y-4076674D01*
X4189110Y-4076674D02*
X4179587Y-4086198D01*
X4389111Y-4200484D02*
X4370063Y-4190960D01*
X4370063Y-4190960D02*
X4360539Y-4181436D01*
X4360539Y-4181436D02*
X4351015Y-4162388D01*
X4351015Y-4162388D02*
X4351015Y-4105246D01*
X4351015Y-4105246D02*
X4360539Y-4086198D01*
X4360539Y-4086198D02*
X4370063Y-4076674D01*
X4370063Y-4076674D02*
X4389111Y-4067150D01*
X4389111Y-4067150D02*
X4417682Y-4067150D01*
X4417682Y-4067150D02*
X4436730Y-4076674D01*
X4436730Y-4076674D02*
X4446253Y-4086198D01*
X4446253Y-4086198D02*
X4455777Y-4105246D01*
X4455777Y-4105246D02*
X4455777Y-4162388D01*
X4455777Y-4162388D02*
X4446253Y-4181436D01*
X4446253Y-4181436D02*
X4436730Y-4190960D01*
X4436730Y-4190960D02*
X4417682Y-4200484D01*
X4417682Y-4200484D02*
X4389111Y-4200484D01*
X4570063Y-4200484D02*
X4551015Y-4190960D01*
X4551015Y-4190960D02*
X4541492Y-4171912D01*
X4541492Y-4171912D02*
X4541492Y-4000484D01*
X4722444Y-4190960D02*
X4703396Y-4200484D01*
X4703396Y-4200484D02*
X4665301Y-4200484D01*
X4665301Y-4200484D02*
X4646253Y-4190960D01*
X4646253Y-4190960D02*
X4636730Y-4171912D01*
X4636730Y-4171912D02*
X4636730Y-4095722D01*
X4636730Y-4095722D02*
X4646253Y-4076674D01*
X4646253Y-4076674D02*
X4665301Y-4067150D01*
X4665301Y-4067150D02*
X4703396Y-4067150D01*
X4703396Y-4067150D02*
X4722444Y-4076674D01*
X4722444Y-4076674D02*
X4731968Y-4095722D01*
X4731968Y-4095722D02*
X4731968Y-4114769D01*
X4731968Y-4114769D02*
X4636730Y-4133817D01*
X4808158Y-4190960D02*
X4827206Y-4200484D01*
X4827206Y-4200484D02*
X4865301Y-4200484D01*
X4865301Y-4200484D02*
X4884349Y-4190960D01*
X4884349Y-4190960D02*
X4893873Y-4171912D01*
X4893873Y-4171912D02*
X4893873Y-4162388D01*
X4893873Y-4162388D02*
X4884349Y-4143341D01*
X4884349Y-4143341D02*
X4865301Y-4133817D01*
X4865301Y-4133817D02*
X4836730Y-4133817D01*
X4836730Y-4133817D02*
X4817682Y-4124293D01*
X4817682Y-4124293D02*
X4808158Y-4105246D01*
X4808158Y-4105246D02*
X4808158Y-4095722D01*
X4808158Y-4095722D02*
X4817682Y-4076674D01*
X4817682Y-4076674D02*
X4836730Y-4067150D01*
X4836730Y-4067150D02*
X4865301Y-4067150D01*
X4865301Y-4067150D02*
X4884349Y-4076674D01*
X4960539Y-4276674D02*
X4970063Y-4267150D01*
X4970063Y-4267150D02*
X4989111Y-4238579D01*
X4989111Y-4238579D02*
X4998634Y-4219531D01*
X4998634Y-4219531D02*
X5008158Y-4190960D01*
X5008158Y-4190960D02*
X5017682Y-4143341D01*
X5017682Y-4143341D02*
X5017682Y-4105246D01*
X5017682Y-4105246D02*
X5008158Y-4057627D01*
X5008158Y-4057627D02*
X4998634Y-4029055D01*
X4998634Y-4029055D02*
X4989111Y-4010008D01*
X4989111Y-4010008D02*
X4970063Y-3981436D01*
X4970063Y-3981436D02*
X4960539Y-3971912D01*
M02*
