%TF.GenerationSoftware,KiCad,Pcbnew,10.0.4*%
%TF.CreationDate,2026-09-15T23:23:50-03:00*%
%TF.ProjectId,tia-fpga,7469612d-6670-4676-912e-6b696361645f,B*%
%TF.SameCoordinates,Original*%
%TF.FileFunction,Soldermask,Top*%
%TF.FilePolarity,Negative*%
%FSLAX46Y46*%
G04 Gerber Fmt 4.6, Leading zero omitted, Abs format (unit mm)*
G04 Created by KiCad (PCBNEW 10.0.4) date 2026-09-15 23:23:50*
%MOMM*%
%LPD*%
G01*
G04 APERTURE LIST*
G04 Aperture macros list*
%AMRoundRect*
0 Rectangle with rounded corners*
0 $1 Rounding radius*
0 $2 $3 $4 $5 $6 $7 $8 $9 X,Y pos of 4 corners*
0 Add a 4 corners polygon primitive as box body*
4,1,4,$2,$3,$4,$5,$6,$7,$8,$9,$2,$3,0*
0 Add four circle primitives for the rounded corners*
1,1,$1+$1,$2,$3*
1,1,$1+$1,$4,$5*
1,1,$1+$1,$6,$7*
1,1,$1+$1,$8,$9*
0 Add four rect primitives between the rounded corners*
20,1,$1+$1,$2,$3,$4,$5,0*
20,1,$1+$1,$4,$5,$6,$7,0*
20,1,$1+$1,$6,$7,$8,$9,0*
20,1,$1+$1,$8,$9,$2,$3,0*%
G04 Aperture macros list end*
%ADD10RoundRect,0.150000X-0.512500X-0.150000X0.512500X-0.150000X0.512500X0.150000X-0.512500X0.150000X0*%
%ADD11RoundRect,0.250000X-0.250000X-0.475000X0.250000X-0.475000X0.250000X0.475000X-0.250000X0.475000X0*%
%ADD12RoundRect,0.225000X-0.225000X-0.375000X0.225000X-0.375000X0.225000X0.375000X-0.225000X0.375000X0*%
%ADD13RoundRect,0.250000X0.475000X-0.250000X0.475000X0.250000X-0.475000X0.250000X-0.475000X-0.250000X0*%
%ADD14R,1.700000X1.700000*%
%ADD15C,1.700000*%
%ADD16RoundRect,0.150000X0.150000X-0.875000X0.150000X0.875000X-0.150000X0.875000X-0.150000X-0.875000X0*%
%ADD17RoundRect,0.150000X0.150000X-0.825000X0.150000X0.825000X-0.150000X0.825000X-0.150000X-0.825000X0*%
G04 APERTURE END LIST*
D10*
%TO.C,U5*%
X2662500Y-1250000D03*
X2662500Y-2200000D03*
X2662500Y-3150000D03*
X4937500Y-3150000D03*
X4937500Y-1250000D03*
%TD*%
%TO.C,U8*%
X25162500Y-1250000D03*
X25162500Y-2200000D03*
X25162500Y-3150000D03*
X27437500Y-3150000D03*
X27437500Y-2200000D03*
X27437500Y-1250000D03*
%TD*%
D11*
%TO.C,C3*%
X32850000Y-32040000D03*
X34750000Y-32040000D03*
%TD*%
D12*
%TO.C,D1*%
X47650000Y-2200000D03*
X50950000Y-2200000D03*
%TD*%
D11*
%TO.C,C1*%
X4850000Y-32040000D03*
X6750000Y-32040000D03*
%TD*%
%TO.C,C2*%
X18850000Y-32040000D03*
X20750000Y-32040000D03*
%TD*%
D13*
%TO.C,C8*%
X22800000Y-3150000D03*
X22800000Y-1250000D03*
%TD*%
D11*
%TO.C,C5*%
X10850000Y-32040000D03*
X12750000Y-32040000D03*
%TD*%
D13*
%TO.C,C7*%
X15800000Y-3150000D03*
X15800000Y-1250000D03*
%TD*%
D14*
%TO.C,J4*%
X1590000Y-28700000D03*
D15*
X4130000Y-28700000D03*
X6670000Y-28700000D03*
X9210000Y-28700000D03*
X11750000Y-28700000D03*
X14290000Y-28700000D03*
X16830000Y-28700000D03*
X19370000Y-28700000D03*
X21910000Y-28700000D03*
X24450000Y-28700000D03*
X26990000Y-28700000D03*
X29530000Y-28700000D03*
X32070000Y-28700000D03*
X34610000Y-28700000D03*
X37150000Y-28700000D03*
X39690000Y-28700000D03*
X42230000Y-28700000D03*
X44770000Y-28700000D03*
X47310000Y-28700000D03*
X49850000Y-28700000D03*
X52390000Y-28700000D03*
X54930000Y-28700000D03*
X57470000Y-28700000D03*
X60010000Y-28700000D03*
%TD*%
D16*
%TO.C,U4*%
X14085000Y-21920000D03*
X15355000Y-21920000D03*
X16625000Y-21920000D03*
X17895000Y-21920000D03*
X19165000Y-21920000D03*
X20435000Y-21920000D03*
X21705000Y-21920000D03*
X22975000Y-21920000D03*
X24245000Y-21920000D03*
X25515000Y-21920000D03*
X25515000Y-12620000D03*
X24245000Y-12620000D03*
X22975000Y-12620000D03*
X21705000Y-12620000D03*
X20435000Y-12620000D03*
X19165000Y-12620000D03*
X17895000Y-12620000D03*
X16625000Y-12620000D03*
X15355000Y-12620000D03*
X14085000Y-12620000D03*
%TD*%
D10*
%TO.C,U9*%
X35662500Y-1250000D03*
X35662500Y-2200000D03*
X35662500Y-3150000D03*
X37937500Y-3150000D03*
X37937500Y-2200000D03*
X37937500Y-1250000D03*
%TD*%
D16*
%TO.C,U2*%
X42085000Y-21920000D03*
X43355000Y-21920000D03*
X44625000Y-21920000D03*
X45895000Y-21920000D03*
X47165000Y-21920000D03*
X48435000Y-21920000D03*
X49705000Y-21920000D03*
X50975000Y-21920000D03*
X52245000Y-21920000D03*
X53515000Y-21920000D03*
X53515000Y-12620000D03*
X52245000Y-12620000D03*
X50975000Y-12620000D03*
X49705000Y-12620000D03*
X48435000Y-12620000D03*
X47165000Y-12620000D03*
X45895000Y-12620000D03*
X44625000Y-12620000D03*
X43355000Y-12620000D03*
X42085000Y-12620000D03*
%TD*%
D10*
%TO.C,U7*%
X18162500Y-1250000D03*
X18162500Y-2200000D03*
X18162500Y-3150000D03*
X20437500Y-3150000D03*
X20437500Y-2200000D03*
X20437500Y-1250000D03*
%TD*%
D11*
%TO.C,C6*%
X39850000Y-32040000D03*
X41750000Y-32040000D03*
%TD*%
%TO.C,C4*%
X46850000Y-32040000D03*
X48750000Y-32040000D03*
%TD*%
D13*
%TO.C,C10*%
X40300000Y-3150000D03*
X40300000Y-1250000D03*
%TD*%
D14*
%TO.C,J1*%
X1590000Y-5840000D03*
D15*
X4130000Y-5840000D03*
X6670000Y-5840000D03*
X9210000Y-5840000D03*
X11750000Y-5840000D03*
X14290000Y-5840000D03*
X16830000Y-5840000D03*
X19370000Y-5840000D03*
X21910000Y-5840000D03*
X24450000Y-5840000D03*
X26990000Y-5840000D03*
X29530000Y-5840000D03*
X32070000Y-5840000D03*
X34610000Y-5840000D03*
X37150000Y-5840000D03*
X39690000Y-5840000D03*
X42230000Y-5840000D03*
X44770000Y-5840000D03*
X47310000Y-5840000D03*
X49850000Y-5840000D03*
X52390000Y-5840000D03*
X54930000Y-5840000D03*
X57470000Y-5840000D03*
X60010000Y-5840000D03*
%TD*%
D17*
%TO.C,U1*%
X1990000Y-19745000D03*
X3260000Y-19745000D03*
X4530000Y-19745000D03*
X5800000Y-19745000D03*
X7070000Y-19745000D03*
X8340000Y-19745000D03*
X9610000Y-19745000D03*
X9610000Y-14795000D03*
X8340000Y-14795000D03*
X7070000Y-14795000D03*
X5800000Y-14795000D03*
X4530000Y-14795000D03*
X3260000Y-14795000D03*
X1990000Y-14795000D03*
%TD*%
D10*
%TO.C,U6*%
X11162500Y-1250000D03*
X11162500Y-2200000D03*
X11162500Y-3150000D03*
X13437500Y-3150000D03*
X13437500Y-2200000D03*
X13437500Y-1250000D03*
%TD*%
D16*
%TO.C,U3*%
X28085000Y-21920000D03*
X29355000Y-21920000D03*
X30625000Y-21920000D03*
X31895000Y-21920000D03*
X33165000Y-21920000D03*
X34435000Y-21920000D03*
X35705000Y-21920000D03*
X36975000Y-21920000D03*
X38245000Y-21920000D03*
X39515000Y-21920000D03*
X39515000Y-12620000D03*
X38245000Y-12620000D03*
X36975000Y-12620000D03*
X35705000Y-12620000D03*
X34435000Y-12620000D03*
X33165000Y-12620000D03*
X31895000Y-12620000D03*
X30625000Y-12620000D03*
X29355000Y-12620000D03*
X28085000Y-12620000D03*
%TD*%
D13*
%TO.C,C9*%
X29800000Y-3150000D03*
X29800000Y-1250000D03*
%TD*%
D14*
%TO.C,J3*%
X54930000Y-24890000D03*
D15*
X52390000Y-24890000D03*
X49850000Y-24890000D03*
X47310000Y-24890000D03*
X44770000Y-24890000D03*
X42230000Y-24890000D03*
X39690000Y-24890000D03*
X37150000Y-24890000D03*
X34610000Y-24890000D03*
X32070000Y-24890000D03*
X29530000Y-24890000D03*
X26990000Y-24890000D03*
X24450000Y-24890000D03*
X21910000Y-24890000D03*
X19370000Y-24890000D03*
X16830000Y-24890000D03*
X14290000Y-24890000D03*
X11750000Y-24890000D03*
X9210000Y-24890000D03*
X6670000Y-24890000D03*
%TD*%
D14*
%TO.C,J2*%
X6670000Y-9650000D03*
D15*
X9210000Y-9650000D03*
X11750000Y-9650000D03*
X14290000Y-9650000D03*
X16830000Y-9650000D03*
X19370000Y-9650000D03*
X21910000Y-9650000D03*
X24450000Y-9650000D03*
X26990000Y-9650000D03*
X29530000Y-9650000D03*
X32070000Y-9650000D03*
X34610000Y-9650000D03*
X37150000Y-9650000D03*
X39690000Y-9650000D03*
X42230000Y-9650000D03*
X44770000Y-9650000D03*
X47310000Y-9650000D03*
X49850000Y-9650000D03*
X52390000Y-9650000D03*
X54930000Y-9650000D03*
%TD*%
M02*
