%TF.GenerationSoftware,KiCad,Pcbnew,10.0.4*%
%TF.CreationDate,2026-09-11T23:24:11-03:00*%
%TF.ProjectId,tia-fpga,7469612d-6670-4676-912e-6b696361645f,rev?*%
%TF.SameCoordinates,Original*%
%TF.FileFunction,Copper,L1,Top*%
%TF.FilePolarity,Positive*%
%FSLAX46Y46*%
G04 Gerber Fmt 4.6, Leading zero omitted, Abs format (unit mm)*
G04 Created by KiCad (PCBNEW 10.0.4) date 2026-09-11 23:24:11*
%MOMM*%
%LPD*%
G01*
G04 APERTURE LIST*
G04 Aperture macros list*
%AMRoundRect*
0 Rectangle with rounded corners*
0 $1 Rounding radius*
0 $2 $3 $4 $5 $6 $7 $8 $9 X,Y pos of 4 corners*
0 Add a 4 corners polygon primitive as box body*
4,1,4,$2,$3,$4,$5,$6,$7,$8,$9,$2,$3,0*
0 Add four circle primitives for the rounded corners*
1,1,$1+$1,$2,$3*
1,1,$1+$1,$4,$5*
1,1,$1+$1,$6,$7*
1,1,$1+$1,$8,$9*
0 Add four rect primitives between the rounded corners*
20,1,$1+$1,$2,$3,$4,$5,0*
20,1,$1+$1,$4,$5,$6,$7,0*
20,1,$1+$1,$6,$7,$8,$9,0*
20,1,$1+$1,$8,$9,$2,$3,0*%
G04 Aperture macros list end*
%TA.AperFunction,SMDPad,CuDef*%
%ADD10RoundRect,0.250000X-0.250000X-0.475000X0.250000X-0.475000X0.250000X0.475000X-0.250000X0.475000X0*%
%TD*%
%TA.AperFunction,SMDPad,CuDef*%
%ADD11RoundRect,0.250000X-0.262500X-0.450000X0.262500X-0.450000X0.262500X0.450000X-0.262500X0.450000X0*%
%TD*%
%TA.AperFunction,SMDPad,CuDef*%
%ADD12RoundRect,0.150000X-0.875000X-0.150000X0.875000X-0.150000X0.875000X0.150000X-0.875000X0.150000X0*%
%TD*%
%TA.AperFunction,ComponentPad*%
%ADD13R,1.700000X1.700000*%
%TD*%
%TA.AperFunction,ComponentPad*%
%ADD14C,1.700000*%
%TD*%
%TA.AperFunction,SMDPad,CuDef*%
%ADD15RoundRect,0.150000X-0.512500X-0.150000X0.512500X-0.150000X0.512500X0.150000X-0.512500X0.150000X0*%
%TD*%
%TA.AperFunction,SMDPad,CuDef*%
%ADD16RoundRect,0.150000X-0.825000X-0.150000X0.825000X-0.150000X0.825000X0.150000X-0.825000X0.150000X0*%
%TD*%
%TA.AperFunction,ViaPad*%
%ADD17C,0.800000*%
%TD*%
%TA.AperFunction,ViaPad*%
%ADD18C,0.600000*%
%TD*%
%TA.AperFunction,Conductor*%
%ADD19C,0.600000*%
%TD*%
%TA.AperFunction,Conductor*%
%ADD20C,0.250000*%
%TD*%
G04 APERTURE END LIST*
D10*
%TO.P,C4,1*%
%TO.N,+3V3*%
X55050000Y-66000000D03*
%TO.P,C4,2*%
%TO.N,GND*%
X56950000Y-66000000D03*
%TD*%
D11*
%TO.P,R7,1*%
%TO.N,/F_LUM2*%
X55087500Y-40000000D03*
%TO.P,R7,2*%
%TO.N,GND*%
X56912500Y-40000000D03*
%TD*%
%TO.P,R1,1*%
%TO.N,/F_CSYNC*%
X7087500Y-40000000D03*
%TO.P,R1,2*%
%TO.N,/VIDEO_SUM*%
X8912500Y-40000000D03*
%TD*%
D10*
%TO.P,C3,1*%
%TO.N,+3V3*%
X49050000Y-66000000D03*
%TO.P,C3,2*%
%TO.N,GND*%
X50950000Y-66000000D03*
%TD*%
D12*
%TO.P,U4,1*%
%TO.N,GND*%
X53350000Y-46285000D03*
%TO.P,U4,2*%
%TO.N,/TIA_CS0_N*%
X53350000Y-47555000D03*
%TO.P,U4,3*%
%TO.N,/TIA_CS3_N*%
X53350000Y-48825000D03*
%TO.P,U4,4*%
%TO.N,/TIA_I4*%
X53350000Y-50095000D03*
%TO.P,U4,5*%
%TO.N,/TIA_I5*%
X53350000Y-51365000D03*
%TO.P,U4,6*%
%TO.N,/TIA_OSC*%
X53350000Y-52635000D03*
%TO.P,U4,7*%
%TO.N,GND*%
X53350000Y-53905000D03*
%TO.P,U4,8*%
X53350000Y-55175000D03*
%TO.P,U4,9*%
X53350000Y-56445000D03*
%TO.P,U4,10*%
X53350000Y-57715000D03*
%TO.P,U4,11*%
%TO.N,unconnected-(U4-Y7-Pad11)*%
X62650000Y-57715000D03*
%TO.P,U4,12*%
%TO.N,unconnected-(U4-Y6-Pad12)*%
X62650000Y-56445000D03*
%TO.P,U4,13*%
%TO.N,unconnected-(U4-Y5-Pad13)*%
X62650000Y-55175000D03*
%TO.P,U4,14*%
%TO.N,/F_OSC*%
X62650000Y-53905000D03*
%TO.P,U4,15*%
%TO.N,/F_I5*%
X62650000Y-52635000D03*
%TO.P,U4,16*%
%TO.N,/F_I4*%
X62650000Y-51365000D03*
%TO.P,U4,17*%
%TO.N,/F_CS3_N*%
X62650000Y-50095000D03*
%TO.P,U4,18*%
%TO.N,/F_CS0_N*%
X62650000Y-48825000D03*
%TO.P,U4,19*%
%TO.N,GND*%
X62650000Y-47555000D03*
%TO.P,U4,20*%
%TO.N,+3V3*%
X62650000Y-46285000D03*
%TD*%
D13*
%TO.P,J2,1*%
%TO.N,GND*%
X11870000Y-80000000D03*
D14*
%TO.P,J2,2*%
%TO.N,/F_CSYNC*%
X14410000Y-80000000D03*
%TO.P,J2,3*%
%TO.N,/TIA_RDY*%
X16950000Y-80000000D03*
%TO.P,J2,4*%
%TO.N,/TIA_PHI0*%
X19490000Y-80000000D03*
%TO.P,J2,5*%
%TO.N,/F_LUM1*%
X22030000Y-80000000D03*
%TO.P,J2,6*%
%TO.N,unconnected-(J2-Pin_6-Pad6)*%
X24570000Y-80000000D03*
%TO.P,J2,7*%
%TO.N,/F_LUM2*%
X27110000Y-80000000D03*
%TO.P,J2,8*%
%TO.N,/F_LUM0*%
X29650000Y-80000000D03*
%TO.P,J2,9*%
%TO.N,unconnected-(J2-Pin_9-Pad9)*%
X32190000Y-80000000D03*
%TO.P,J2,10*%
%TO.N,unconnected-(J2-Pin_10-Pad10)*%
X34730000Y-80000000D03*
%TO.P,J2,11*%
%TO.N,/TIA_OSC*%
X37270000Y-80000000D03*
%TO.P,J2,12*%
%TO.N,/F_AU1*%
X39810000Y-80000000D03*
%TO.P,J2,13*%
%TO.N,/F_AU0*%
X42350000Y-80000000D03*
%TO.P,J2,14*%
%TO.N,/TIA_D0*%
X44890000Y-80000000D03*
%TO.P,J2,15*%
%TO.N,/TIA_D1*%
X47430000Y-80000000D03*
%TO.P,J2,16*%
%TO.N,/TIA_D2*%
X49970000Y-80000000D03*
%TO.P,J2,17*%
%TO.N,/TIA_D3*%
X52510000Y-80000000D03*
%TO.P,J2,18*%
%TO.N,/TIA_D4*%
X55050000Y-80000000D03*
%TO.P,J2,19*%
%TO.N,/TIA_D5*%
X57590000Y-80000000D03*
%TO.P,J2,20*%
%TO.N,+5V*%
X60130000Y-80000000D03*
%TD*%
D11*
%TO.P,R8,1*%
%TO.N,/F_LUM0*%
X63087500Y-40000000D03*
%TO.P,R8,2*%
%TO.N,GND*%
X64912500Y-40000000D03*
%TD*%
%TO.P,R2,1*%
%TO.N,/F_LUM1*%
X15087500Y-40000000D03*
%TO.P,R2,2*%
%TO.N,/VIDEO_SUM*%
X16912500Y-40000000D03*
%TD*%
D10*
%TO.P,C1,1*%
%TO.N,+5V*%
X37050000Y-66000000D03*
%TO.P,C1,2*%
%TO.N,GND*%
X38950000Y-66000000D03*
%TD*%
D13*
%TO.P,J1,1*%
%TO.N,/F_D6*%
X6790000Y-10000000D03*
D14*
%TO.P,J1,2*%
%TO.N,/F_D7*%
X9330000Y-10000000D03*
%TO.P,J1,3*%
%TO.N,/F_AU1*%
X11870000Y-10000000D03*
%TO.P,J1,4*%
%TO.N,/F_I4*%
X14410000Y-10000000D03*
%TO.P,J1,5*%
%TO.N,/F_D0*%
X16950000Y-10000000D03*
%TO.P,J1,6*%
%TO.N,/F_D1*%
X19490000Y-10000000D03*
%TO.P,J1,7*%
%TO.N,/F_D2*%
X22030000Y-10000000D03*
%TO.P,J1,8*%
%TO.N,/F_D3*%
X24570000Y-10000000D03*
%TO.P,J1,9*%
%TO.N,/F_D4*%
X27110000Y-10000000D03*
%TO.P,J1,10*%
%TO.N,/F_D5*%
X29650000Y-10000000D03*
%TO.P,J1,11*%
%TO.N,/F_A0*%
X32190000Y-10000000D03*
%TO.P,J1,12*%
%TO.N,/F_A1*%
X34730000Y-10000000D03*
%TO.P,J1,13*%
%TO.N,/F_A2*%
X37270000Y-10000000D03*
%TO.P,J1,14*%
%TO.N,/F_A3*%
X39810000Y-10000000D03*
%TO.P,J1,15*%
%TO.N,/F_A4*%
X42350000Y-10000000D03*
%TO.P,J1,16*%
%TO.N,/F_A5*%
X44890000Y-10000000D03*
%TO.P,J1,17*%
%TO.N,/F_RW*%
X47430000Y-10000000D03*
%TO.P,J1,18*%
%TO.N,/F_CS0_N*%
X49970000Y-10000000D03*
%TO.P,J1,19*%
%TO.N,/F_CS3_N*%
X52510000Y-10000000D03*
%TO.P,J1,20*%
%TO.N,/F_PHI2*%
X55050000Y-10000000D03*
%TO.P,J1,21*%
%TO.N,/F_OSC*%
X57590000Y-10000000D03*
%TO.P,J1,22*%
%TO.N,/F_PHI0*%
X60130000Y-10000000D03*
%TO.P,J1,23*%
%TO.N,unconnected-(J1-Pin_23-Pad23)*%
X62670000Y-10000000D03*
%TO.P,J1,24*%
%TO.N,unconnected-(J1-Pin_24-Pad24)*%
X65210000Y-10000000D03*
%TD*%
D10*
%TO.P,C6,1*%
%TO.N,+3V3*%
X67050000Y-66000000D03*
%TO.P,C6,2*%
%TO.N,GND*%
X68950000Y-66000000D03*
%TD*%
D11*
%TO.P,R5,1*%
%TO.N,/F_CSYNC*%
X39087500Y-40000000D03*
%TO.P,R5,2*%
%TO.N,GND*%
X40912500Y-40000000D03*
%TD*%
D10*
%TO.P,C5,1*%
%TO.N,+5V*%
X61050000Y-66000000D03*
%TO.P,C5,2*%
%TO.N,GND*%
X62950000Y-66000000D03*
%TD*%
D12*
%TO.P,U3,1*%
%TO.N,GND*%
X9350000Y-46285000D03*
%TO.P,U3,2*%
%TO.N,/TIA_A0*%
X9350000Y-47555000D03*
%TO.P,U3,3*%
%TO.N,/TIA_A1*%
X9350000Y-48825000D03*
%TO.P,U3,4*%
%TO.N,/TIA_A2*%
X9350000Y-50095000D03*
%TO.P,U3,5*%
%TO.N,/TIA_A3*%
X9350000Y-51365000D03*
%TO.P,U3,6*%
%TO.N,/TIA_A4*%
X9350000Y-52635000D03*
%TO.P,U3,7*%
%TO.N,/TIA_A5*%
X9350000Y-53905000D03*
%TO.P,U3,8*%
%TO.N,/TIA_RW*%
X9350000Y-55175000D03*
%TO.P,U3,9*%
%TO.N,/TIA_PHI2*%
X9350000Y-56445000D03*
%TO.P,U3,10*%
%TO.N,GND*%
X9350000Y-57715000D03*
%TO.P,U3,11*%
%TO.N,/F_PHI2*%
X18650000Y-57715000D03*
%TO.P,U3,12*%
%TO.N,/F_RW*%
X18650000Y-56445000D03*
%TO.P,U3,13*%
%TO.N,/F_A5*%
X18650000Y-55175000D03*
%TO.P,U3,14*%
%TO.N,/F_A4*%
X18650000Y-53905000D03*
%TO.P,U3,15*%
%TO.N,/F_A3*%
X18650000Y-52635000D03*
%TO.P,U3,16*%
%TO.N,/F_A2*%
X18650000Y-51365000D03*
%TO.P,U3,17*%
%TO.N,/F_A1*%
X18650000Y-50095000D03*
%TO.P,U3,18*%
%TO.N,/F_A0*%
X18650000Y-48825000D03*
%TO.P,U3,19*%
%TO.N,GND*%
X18650000Y-47555000D03*
%TO.P,U3,20*%
%TO.N,+3V3*%
X18650000Y-46285000D03*
%TD*%
D15*
%TO.P,U5,1*%
%TO.N,/F_CS0_N*%
X26862500Y-65050000D03*
%TO.P,U5,2*%
%TO.N,/F_CS3_N*%
X26862500Y-66000000D03*
%TO.P,U5,3*%
%TO.N,GND*%
X26862500Y-66950000D03*
%TO.P,U5,4*%
%TO.N,/DBUS_OE_N*%
X29137500Y-66950000D03*
%TO.P,U5,5*%
%TO.N,+3V3*%
X29137500Y-65050000D03*
%TD*%
D12*
%TO.P,U2,1*%
%TO.N,/F_RW*%
X31350000Y-46285000D03*
%TO.P,U2,2*%
%TO.N,/F_D0*%
X31350000Y-47555000D03*
%TO.P,U2,3*%
%TO.N,/F_D1*%
X31350000Y-48825000D03*
%TO.P,U2,4*%
%TO.N,/F_D2*%
X31350000Y-50095000D03*
%TO.P,U2,5*%
%TO.N,/F_D3*%
X31350000Y-51365000D03*
%TO.P,U2,6*%
%TO.N,/F_D4*%
X31350000Y-52635000D03*
%TO.P,U2,7*%
%TO.N,/F_D5*%
X31350000Y-53905000D03*
%TO.P,U2,8*%
%TO.N,/F_D6*%
X31350000Y-55175000D03*
%TO.P,U2,9*%
%TO.N,/F_D7*%
X31350000Y-56445000D03*
%TO.P,U2,10*%
%TO.N,GND*%
X31350000Y-57715000D03*
%TO.P,U2,11*%
%TO.N,/TIA_D7*%
X40650000Y-57715000D03*
%TO.P,U2,12*%
%TO.N,/TIA_D6*%
X40650000Y-56445000D03*
%TO.P,U2,13*%
%TO.N,/TIA_D5*%
X40650000Y-55175000D03*
%TO.P,U2,14*%
%TO.N,/TIA_D4*%
X40650000Y-53905000D03*
%TO.P,U2,15*%
%TO.N,/TIA_D3*%
X40650000Y-52635000D03*
%TO.P,U2,16*%
%TO.N,/TIA_D2*%
X40650000Y-51365000D03*
%TO.P,U2,17*%
%TO.N,/TIA_D1*%
X40650000Y-50095000D03*
%TO.P,U2,18*%
%TO.N,/TIA_D0*%
X40650000Y-48825000D03*
%TO.P,U2,19*%
%TO.N,/DBUS_OE_N*%
X40650000Y-47555000D03*
%TO.P,U2,20*%
%TO.N,+3V3*%
X40650000Y-46285000D03*
%TD*%
D13*
%TO.P,J4,1*%
%TO.N,/F_RDY*%
X6790000Y-30320000D03*
D14*
%TO.P,J4,2*%
%TO.N,unconnected-(J4-Pin_2-Pad2)*%
X9330000Y-30320000D03*
%TO.P,J4,3*%
%TO.N,unconnected-(J4-Pin_3-Pad3)*%
X11870000Y-30320000D03*
%TO.P,J4,4*%
%TO.N,unconnected-(J4-Pin_4-Pad4)*%
X14410000Y-30320000D03*
%TO.P,J4,5*%
%TO.N,unconnected-(J4-Pin_5-Pad5)*%
X16950000Y-30320000D03*
%TO.P,J4,6*%
%TO.N,unconnected-(J4-Pin_6-Pad6)*%
X19490000Y-30320000D03*
%TO.P,J4,7*%
%TO.N,unconnected-(J4-Pin_7-Pad7)*%
X22030000Y-30320000D03*
%TO.P,J4,8*%
%TO.N,unconnected-(J4-Pin_8-Pad8)*%
X24570000Y-30320000D03*
%TO.P,J4,9*%
%TO.N,unconnected-(J4-Pin_9-Pad9)*%
X27110000Y-30320000D03*
%TO.P,J4,10*%
%TO.N,/F_I5*%
X29650000Y-30320000D03*
%TO.P,J4,11*%
%TO.N,/F_CSYNC*%
X32190000Y-30320000D03*
%TO.P,J4,12*%
%TO.N,unconnected-(J4-Pin_12-Pad12)*%
X34730000Y-30320000D03*
%TO.P,J4,13*%
%TO.N,unconnected-(J4-Pin_13-Pad13)*%
X37270000Y-30320000D03*
%TO.P,J4,14*%
%TO.N,unconnected-(J4-Pin_14-Pad14)*%
X39810000Y-30320000D03*
%TO.P,J4,15*%
%TO.N,unconnected-(J4-Pin_15-Pad15)*%
X42350000Y-30320000D03*
%TO.P,J4,16*%
%TO.N,unconnected-(J4-Pin_16-Pad16)*%
X44890000Y-30320000D03*
%TO.P,J4,17*%
%TO.N,unconnected-(J4-Pin_17-Pad17)*%
X47430000Y-30320000D03*
%TO.P,J4,18*%
%TO.N,unconnected-(J4-Pin_18-Pad18)*%
X49970000Y-30320000D03*
%TO.P,J4,19*%
%TO.N,/F_LUM0*%
X52510000Y-30320000D03*
%TO.P,J4,20*%
%TO.N,/F_LUM1*%
X55050000Y-30320000D03*
%TO.P,J4,21*%
%TO.N,/F_LUM2*%
X57590000Y-30320000D03*
%TO.P,J4,22*%
%TO.N,/F_AU0*%
X60130000Y-30320000D03*
%TO.P,J4,23*%
%TO.N,GND*%
X62670000Y-30320000D03*
%TO.P,J4,24*%
%TO.N,+3V3*%
X65210000Y-30320000D03*
%TD*%
D16*
%TO.P,U1,1*%
%TO.N,GND*%
X11525000Y-62190000D03*
%TO.P,U1,2*%
%TO.N,/F_PHI0*%
X11525000Y-63460000D03*
%TO.P,U1,3*%
%TO.N,/TIA_PHI0*%
X11525000Y-64730000D03*
%TO.P,U1,4*%
%TO.N,GND*%
X11525000Y-66000000D03*
%TO.P,U1,5*%
%TO.N,/F_RDY*%
X11525000Y-67270000D03*
%TO.P,U1,6*%
%TO.N,/TIA_RDY*%
X11525000Y-68540000D03*
%TO.P,U1,7*%
%TO.N,GND*%
X11525000Y-69810000D03*
%TO.P,U1,8*%
%TO.N,unconnected-(U1-Pad8)*%
X16475000Y-69810000D03*
%TO.P,U1,9*%
%TO.N,GND*%
X16475000Y-68540000D03*
%TO.P,U1,10*%
%TO.N,+5V*%
X16475000Y-67270000D03*
%TO.P,U1,11*%
%TO.N,unconnected-(U1-Pad11)*%
X16475000Y-66000000D03*
%TO.P,U1,12*%
%TO.N,GND*%
X16475000Y-64730000D03*
%TO.P,U1,13*%
%TO.N,+5V*%
X16475000Y-63460000D03*
%TO.P,U1,14*%
X16475000Y-62190000D03*
%TD*%
D11*
%TO.P,R6,1*%
%TO.N,/F_LUM1*%
X47087500Y-40000000D03*
%TO.P,R6,2*%
%TO.N,GND*%
X48912500Y-40000000D03*
%TD*%
D10*
%TO.P,C2,1*%
%TO.N,+3V3*%
X43050000Y-66000000D03*
%TO.P,C2,2*%
%TO.N,GND*%
X44950000Y-66000000D03*
%TD*%
D11*
%TO.P,R3,1*%
%TO.N,/F_LUM2*%
X23087500Y-40000000D03*
%TO.P,R3,2*%
%TO.N,/VIDEO_SUM*%
X24912500Y-40000000D03*
%TD*%
D13*
%TO.P,J3,1*%
%TO.N,/TIA_CS3_N*%
X60130000Y-95240000D03*
D14*
%TO.P,J3,2*%
%TO.N,GND*%
X57590000Y-95240000D03*
%TO.P,J3,3*%
%TO.N,+5V*%
X55050000Y-95240000D03*
%TO.P,J3,4*%
%TO.N,/TIA_CS0_N*%
X52510000Y-95240000D03*
%TO.P,J3,5*%
%TO.N,/TIA_RW*%
X49970000Y-95240000D03*
%TO.P,J3,6*%
%TO.N,/TIA_PHI2*%
X47430000Y-95240000D03*
%TO.P,J3,7*%
%TO.N,/TIA_A5*%
X44890000Y-95240000D03*
%TO.P,J3,8*%
%TO.N,/TIA_A4*%
X42350000Y-95240000D03*
%TO.P,J3,9*%
%TO.N,/TIA_A3*%
X39810000Y-95240000D03*
%TO.P,J3,10*%
%TO.N,/TIA_A2*%
X37270000Y-95240000D03*
%TO.P,J3,11*%
%TO.N,/TIA_A1*%
X34730000Y-95240000D03*
%TO.P,J3,12*%
%TO.N,/TIA_A0*%
X32190000Y-95240000D03*
%TO.P,J3,13*%
%TO.N,/TIA_D6*%
X29650000Y-95240000D03*
%TO.P,J3,14*%
%TO.N,/TIA_D7*%
X27110000Y-95240000D03*
%TO.P,J3,15*%
%TO.N,/TIA_I5*%
X24570000Y-95240000D03*
%TO.P,J3,16*%
%TO.N,/TIA_I4*%
X22030000Y-95240000D03*
%TO.P,J3,17*%
%TO.N,unconnected-(J3-Pin_17-Pad17)*%
X19490000Y-95240000D03*
%TO.P,J3,18*%
%TO.N,unconnected-(J3-Pin_18-Pad18)*%
X16950000Y-95240000D03*
%TO.P,J3,19*%
%TO.N,unconnected-(J3-Pin_19-Pad19)*%
X14410000Y-95240000D03*
%TO.P,J3,20*%
%TO.N,unconnected-(J3-Pin_20-Pad20)*%
X11870000Y-95240000D03*
%TD*%
D11*
%TO.P,R4,1*%
%TO.N,/F_LUM0*%
X31087500Y-40000000D03*
%TO.P,R4,2*%
%TO.N,/VIDEO_SUM*%
X32912500Y-40000000D03*
%TD*%
D17*
%TO.N,+3V3*%
X43291900Y-48154200D03*
%TO.N,GND*%
X11556100Y-74022200D03*
D18*
%TO.N,/F_LUM2*%
X24728300Y-48877700D03*
X29468900Y-69023100D03*
%TO.N,/F_CSYNC*%
X36402800Y-32890800D03*
X28826200Y-34934400D03*
%TO.N,/F_OSC*%
X61262100Y-54394000D03*
%TO.N,/F_I5*%
X61156600Y-52779600D03*
%TO.N,/F_I4*%
X61351400Y-51946600D03*
%TO.N,/F_CS3_N*%
X26126400Y-64277600D03*
X61147100Y-51149200D03*
X56095700Y-42330000D03*
%TO.N,/F_CS0_N*%
X53245800Y-45324800D03*
X61167300Y-48663400D03*
X26878200Y-64242300D03*
%TO.N,/TIA_PHI0*%
X12766800Y-65331900D03*
%TO.N,/F_LUM1*%
X12848300Y-47836500D03*
X25967300Y-47638600D03*
%TO.N,/F_LUM0*%
X63087500Y-33545200D03*
X31958300Y-39129200D03*
X28699500Y-69154500D03*
%TO.N,/TIA_D0*%
X37507300Y-60242200D03*
%TO.N,/TIA_D1*%
X37909000Y-62657600D03*
%TO.N,/TIA_D2*%
X39077900Y-63786400D03*
%TO.N,/TIA_D3*%
X39712400Y-70850200D03*
%TO.N,/TIA_D4*%
X42521400Y-57258200D03*
%TO.N,/TIA_D5*%
X41937400Y-55812900D03*
D17*
%TO.N,+5V*%
X36253800Y-60420000D03*
X54578200Y-70549900D03*
D18*
%TO.N,/F_D6*%
X25800900Y-41185500D03*
X23604400Y-35559700D03*
%TO.N,/F_D7*%
X24941700Y-42813100D03*
X20713800Y-38401800D03*
X12455300Y-17340300D03*
%TO.N,/F_D1*%
X28598200Y-12736900D03*
%TO.N,/F_D2*%
X28238600Y-11752700D03*
X32172600Y-28619300D03*
X30714000Y-31806500D03*
%TO.N,/F_A0*%
X17145200Y-48513700D03*
%TO.N,/F_A1*%
X17180000Y-49265500D03*
%TO.N,/F_A2*%
X16612800Y-51226100D03*
X36488200Y-27861600D03*
%TO.N,/F_A3*%
X37277800Y-28028700D03*
X17310700Y-50826800D03*
%TO.N,/F_A4*%
X20169600Y-47561400D03*
%TO.N,/F_A5*%
X38683300Y-33260300D03*
X21826700Y-50074800D03*
%TO.N,/F_RW*%
X22980300Y-50319100D03*
X31350000Y-45506500D03*
%TO.N,/F_PHI2*%
X20552900Y-49077800D03*
%TO.N,/F_PHI0*%
X13357300Y-51252300D03*
%TO.N,/TIA_A0*%
X7461500Y-81775000D03*
%TO.N,/TIA_A1*%
X7829100Y-55399400D03*
%TO.N,/TIA_A2*%
X12616400Y-57315700D03*
%TO.N,/TIA_A3*%
X10854000Y-52590900D03*
%TO.N,/TIA_A4*%
X11599300Y-53168300D03*
%TO.N,/TIA_A5*%
X11272800Y-57315700D03*
%TO.N,/TIA_RW*%
X7750200Y-63168700D03*
%TO.N,/TIA_PHI2*%
X8326900Y-80726300D03*
%TO.N,/F_RDY*%
X6230400Y-60075000D03*
X9489600Y-62097700D03*
%TD*%
%TO.N,+3V3*%
D19*
X35717500Y-50575000D02*
X35717500Y-55280100D01*
X29137500Y-65050000D02*
X29137500Y-59220500D01*
X64140200Y-47099700D02*
X64140200Y-64019800D01*
X43290300Y-48154200D02*
X43291900Y-48154200D01*
X44248100Y-67198100D02*
X47851900Y-67198100D01*
X63325500Y-46285000D02*
X64140200Y-47099700D01*
X40007500Y-46285000D02*
X35717500Y-50575000D01*
X62093200Y-45728200D02*
X62650000Y-46285000D01*
X43050000Y-66000000D02*
X43290300Y-65759700D01*
X40650000Y-46285000D02*
X40007500Y-46285000D01*
X62093200Y-33436800D02*
X62093200Y-45728200D01*
X43290300Y-48154200D02*
X41421100Y-46285000D01*
X20009300Y-46285000D02*
X18650000Y-46285000D01*
X29890700Y-58467300D02*
X23732000Y-52308600D01*
X32530300Y-58467300D02*
X29890700Y-58467300D01*
X57030200Y-64019800D02*
X55050000Y-66000000D01*
X65210000Y-30320000D02*
X62093200Y-33436800D01*
X67050000Y-66000000D02*
X65069800Y-64019800D01*
X23732000Y-50007700D02*
X20009300Y-46285000D01*
X23732000Y-52308600D02*
X23732000Y-50007700D01*
X43290300Y-65759700D02*
X43290300Y-48154200D01*
X43050000Y-66000000D02*
X44248100Y-67198100D01*
X65069800Y-64019800D02*
X64140200Y-64019800D01*
X47851900Y-67198100D02*
X49050000Y-66000000D01*
X41421100Y-46285000D02*
X40650000Y-46285000D01*
X62650000Y-46285000D02*
X63325500Y-46285000D01*
X64140200Y-64019800D02*
X57030200Y-64019800D01*
X35717500Y-55280100D02*
X32530300Y-58467300D01*
X29137500Y-59220500D02*
X29890700Y-58467300D01*
%TO.N,GND*%
X68950000Y-66000000D02*
X68950000Y-44037500D01*
X17135800Y-45902000D02*
X17135800Y-47555000D01*
X62950000Y-66000000D02*
X62950000Y-67187200D01*
X14118200Y-49845800D02*
X14118200Y-65068200D01*
X46133100Y-64816900D02*
X50950000Y-64816900D01*
X68950000Y-44037500D02*
X64912500Y-40000000D01*
X11556100Y-69841100D02*
X11525000Y-69810000D01*
X66530100Y-38382400D02*
X66530100Y-29719300D01*
X62650000Y-47555000D02*
X61745000Y-47555000D01*
X48912500Y-41177800D02*
X48912500Y-40000000D01*
X17912300Y-67668200D02*
X17040500Y-68540000D01*
X10091600Y-65123400D02*
X10091600Y-62558800D01*
X11525000Y-69810000D02*
X12081800Y-69810000D01*
X53350000Y-46285000D02*
X51870300Y-46285000D01*
X40912500Y-40776000D02*
X40912500Y-40000000D01*
X65803700Y-28992900D02*
X63997100Y-28992900D01*
X16475000Y-64730000D02*
X17075700Y-64730000D01*
X53350000Y-46285000D02*
X56912500Y-42722500D01*
X51870300Y-46285000D02*
X51870300Y-53055200D01*
X50950000Y-64816900D02*
X50950000Y-60115000D01*
X51870300Y-53055200D02*
X52720100Y-53905000D01*
X10091600Y-62558800D02*
X10241300Y-62409100D01*
X20275300Y-45487900D02*
X17549900Y-45487900D01*
X48912500Y-43327200D02*
X48912500Y-41177800D01*
X17040500Y-68540000D02*
X16475000Y-68540000D01*
X24483700Y-49696300D02*
X20275300Y-45487900D01*
X58144700Y-64805300D02*
X56950000Y-66000000D01*
X64912500Y-40000000D02*
X66530100Y-38382400D01*
X52720100Y-53905000D02*
X53350000Y-53905000D01*
X62950000Y-66000000D02*
X61755300Y-64805300D01*
X67762800Y-67187200D02*
X62950000Y-67187200D01*
X10241300Y-62190000D02*
X11525000Y-62190000D01*
X31350000Y-57715000D02*
X31963300Y-57715000D01*
X14118200Y-49845800D02*
X13648600Y-49845800D01*
X38950000Y-66000000D02*
X38950000Y-66517500D01*
X53350000Y-57715000D02*
X53350000Y-56445000D01*
X13648600Y-49845800D02*
X10087800Y-46285000D01*
X30666800Y-57715000D02*
X24483700Y-51531900D01*
X27634700Y-67722200D02*
X26862500Y-66950000D01*
X41314300Y-41177800D02*
X40912500Y-40776000D01*
X68950000Y-66000000D02*
X67762800Y-67187200D01*
X17912300Y-66950000D02*
X26862500Y-66950000D01*
X12974800Y-66846400D02*
X12657400Y-66529000D01*
X10241300Y-58606300D02*
X9350000Y-57715000D01*
X62950000Y-89880000D02*
X57590000Y-95240000D01*
X10241300Y-62190000D02*
X10241300Y-58606300D01*
X12974800Y-68917000D02*
X12974800Y-68540000D01*
X66530100Y-29719300D02*
X65803700Y-28992900D01*
X48912500Y-41177800D02*
X41314300Y-41177800D01*
X53350000Y-56445000D02*
X53350000Y-55175000D01*
X12081800Y-69810000D02*
X12974800Y-68917000D01*
X10087800Y-46285000D02*
X9350000Y-46285000D01*
X17549900Y-45487900D02*
X17135800Y-45902000D01*
X16409000Y-47555000D02*
X14118200Y-49845800D01*
X61745000Y-47555000D02*
X56912500Y-42722500D01*
X11525000Y-66000000D02*
X10968200Y-66000000D01*
X62950000Y-67187200D02*
X62950000Y-89880000D01*
X51870300Y-46285000D02*
X48912500Y-43327200D01*
X16475000Y-68540000D02*
X12974800Y-68540000D01*
X31350000Y-57715000D02*
X30666800Y-57715000D01*
X10241300Y-62409100D02*
X10241300Y-62190000D01*
X18650000Y-47555000D02*
X17135800Y-47555000D01*
X12974800Y-68540000D02*
X12974800Y-66846400D01*
X14118200Y-65068200D02*
X12657400Y-66529000D01*
X44950000Y-66000000D02*
X46133100Y-64816900D01*
X50950000Y-60115000D02*
X53350000Y-57715000D01*
X17912300Y-65566600D02*
X17912300Y-66950000D01*
X10968200Y-66000000D02*
X10091600Y-65123400D01*
X17135800Y-47555000D02*
X16409000Y-47555000D01*
X37745300Y-67722200D02*
X27634700Y-67722200D01*
X11556100Y-74022200D02*
X11556100Y-69841100D01*
X56912500Y-42722500D02*
X56912500Y-40000000D01*
X17912300Y-66950000D02*
X17912300Y-67668200D01*
X12657400Y-66529000D02*
X12128400Y-66000000D01*
X50950000Y-64816900D02*
X50950000Y-66000000D01*
X31963300Y-57715000D02*
X34730000Y-54948300D01*
X24483700Y-51531900D02*
X24483700Y-49696300D01*
X62670000Y-30320000D02*
X56912500Y-36077500D01*
X38950000Y-66517500D02*
X37745300Y-67722200D01*
X34730000Y-54948300D02*
X34730000Y-47762100D01*
X12128400Y-66000000D02*
X11525000Y-66000000D01*
X34730000Y-47762100D02*
X41314300Y-41177800D01*
X53350000Y-55175000D02*
X53350000Y-53905000D01*
X61755300Y-64805300D02*
X58144700Y-64805300D01*
X56912500Y-36077500D02*
X56912500Y-40000000D01*
X63997100Y-28992900D02*
X62670000Y-30320000D01*
X17075700Y-64730000D02*
X17912300Y-65566600D01*
%TO.N,/F_LUM2*%
D20*
X23087500Y-47236900D02*
X24728300Y-48877700D01*
X29468900Y-69023100D02*
X28994000Y-68548200D01*
X55087500Y-32822500D02*
X57590000Y-30320000D01*
X28994000Y-68548200D02*
X28446000Y-68548200D01*
X23087500Y-40000000D02*
X23087500Y-47236900D01*
X27110000Y-69884200D02*
X27110000Y-80000000D01*
X55087500Y-40000000D02*
X55087500Y-32822500D01*
X28446000Y-68548200D02*
X27110000Y-69884200D01*
%TO.N,/F_CSYNC*%
X7246300Y-82387500D02*
X6711800Y-81853000D01*
X7087500Y-40000000D02*
X8518000Y-38569500D01*
X21313800Y-38546700D02*
X22752900Y-37107600D01*
X20937300Y-38993900D02*
X21313800Y-38617400D01*
X6777400Y-59806400D02*
X6777400Y-40310100D01*
X8518000Y-38569500D02*
X20061300Y-38569500D01*
X6711800Y-81853000D02*
X6711800Y-60743600D01*
X6711800Y-60743600D02*
X6843000Y-60612400D01*
X21313800Y-38617400D02*
X21313800Y-38546700D01*
X6843000Y-60612400D02*
X6843000Y-59872000D01*
X20061300Y-38569500D02*
X20485700Y-38993900D01*
X22752900Y-37107600D02*
X26653000Y-37107600D01*
X6777400Y-40310100D02*
X7087500Y-40000000D01*
X36402800Y-32890800D02*
X36402800Y-37315300D01*
X26653000Y-37107600D02*
X28826200Y-34934400D01*
X12022500Y-82387500D02*
X7246300Y-82387500D01*
X6843000Y-59872000D02*
X6777400Y-59806400D01*
X14410000Y-80000000D02*
X12022500Y-82387500D01*
X20485700Y-38993900D02*
X20937300Y-38993900D01*
X36402800Y-37315300D02*
X39087500Y-40000000D01*
%TO.N,/VIDEO_SUM*%
X32912500Y-40000000D02*
X31927500Y-40985000D01*
X21881900Y-38617400D02*
X21881900Y-38617300D01*
X31927500Y-40985000D02*
X26465600Y-40985000D01*
X21881900Y-38617300D02*
X23813800Y-38617300D01*
X20499300Y-40000000D02*
X21881900Y-38617400D01*
X16912500Y-40000000D02*
X20499300Y-40000000D01*
X15899500Y-38987000D02*
X16912500Y-40000000D01*
X23813800Y-38617300D02*
X24912500Y-39716000D01*
X26465600Y-40985000D02*
X25480600Y-40000000D01*
X9925500Y-38987000D02*
X15899500Y-38987000D01*
X25480600Y-40000000D02*
X24912500Y-40000000D01*
X8912500Y-40000000D02*
X9925500Y-38987000D01*
X24912500Y-39716000D02*
X24912500Y-40000000D01*
%TO.N,/TIA_CS0_N*%
X53726400Y-47555000D02*
X53350000Y-47555000D01*
X52510000Y-95240000D02*
X53901500Y-93848500D01*
X56279800Y-60395900D02*
X56279800Y-50108400D01*
X53901500Y-62774200D02*
X56279800Y-60395900D01*
X53901500Y-93848500D02*
X53901500Y-62774200D01*
X56279800Y-50108400D02*
X53726400Y-47555000D01*
%TO.N,/TIA_CS3_N*%
X52062000Y-96392300D02*
X51342700Y-95673000D01*
X59003300Y-95521700D02*
X58132700Y-96392300D01*
X60130000Y-95240000D02*
X59003300Y-95240000D01*
X59003300Y-95240000D02*
X59003300Y-95521700D01*
X55878100Y-50993700D02*
X53709400Y-48825000D01*
X53499800Y-76615000D02*
X53499800Y-62240100D01*
X55878100Y-59861800D02*
X55878100Y-50993700D01*
X58132700Y-96392300D02*
X52062000Y-96392300D01*
X53499800Y-62240100D02*
X55878100Y-59861800D01*
X51342700Y-95673000D02*
X51342700Y-78772100D01*
X51342700Y-78772100D02*
X53499800Y-76615000D01*
X53709400Y-48825000D02*
X53350000Y-48825000D01*
%TO.N,/TIA_I4*%
X55476300Y-59693600D02*
X53098100Y-62071800D01*
X53350000Y-50095000D02*
X53709700Y-50095000D01*
X53709700Y-50095000D02*
X55476300Y-51861600D01*
X36000000Y-95586000D02*
X34364300Y-97221700D01*
X46016700Y-83073300D02*
X36000000Y-93090000D01*
X36000000Y-93090000D02*
X36000000Y-95586000D01*
X34364300Y-97221700D02*
X24011700Y-97221700D01*
X55476300Y-51861600D02*
X55476300Y-59693600D01*
X46016700Y-77649300D02*
X46016700Y-83073300D01*
X24011700Y-97221700D02*
X22030000Y-95240000D01*
X53098100Y-70567900D02*
X46016700Y-77649300D01*
X53098100Y-62071800D02*
X53098100Y-70567900D01*
%TO.N,/TIA_I5*%
X53350000Y-51365000D02*
X53805000Y-51365000D01*
X32233000Y-96797200D02*
X26127200Y-96797200D01*
X26127200Y-96797200D02*
X24570000Y-95240000D01*
X52696400Y-60633100D02*
X52696400Y-70315100D01*
X52696400Y-70315100D02*
X43620000Y-79391500D01*
X55074600Y-58254900D02*
X52696400Y-60633100D01*
X33365200Y-93730600D02*
X33365200Y-95665000D01*
X43620000Y-83475800D02*
X33365200Y-93730600D01*
X43620000Y-79391500D02*
X43620000Y-83475800D01*
X33365200Y-95665000D02*
X32233000Y-96797200D01*
X55074600Y-52634600D02*
X55074600Y-58254900D01*
X53805000Y-51365000D02*
X55074600Y-52634600D01*
%TO.N,/TIA_OSC*%
X37270000Y-80000000D02*
X49062400Y-68207600D01*
X52152800Y-66293500D02*
X52152800Y-60608600D01*
X54672900Y-58088500D02*
X54672900Y-53529200D01*
X54672900Y-53529200D02*
X53778700Y-52635000D01*
X49062400Y-68207600D02*
X50238700Y-68207600D01*
X50238700Y-68207600D02*
X52152800Y-66293500D01*
X52152800Y-60608600D02*
X54672900Y-58088500D01*
X53778700Y-52635000D02*
X53350000Y-52635000D01*
%TO.N,/F_OSC*%
X62161000Y-54394000D02*
X62650000Y-53905000D01*
X61262100Y-54394000D02*
X62161000Y-54394000D01*
%TO.N,/F_I5*%
X62505400Y-52779600D02*
X61156600Y-52779600D01*
X62650000Y-52635000D02*
X62505400Y-52779600D01*
%TO.N,/F_I4*%
X61351400Y-51946600D02*
X62068400Y-51946600D01*
X62068400Y-51946600D02*
X62650000Y-51365000D01*
%TO.N,/F_CS3_N*%
X56095700Y-33883600D02*
X58753800Y-31225500D01*
X58753800Y-16243800D02*
X52510000Y-10000000D01*
X26862500Y-66000000D02*
X26498600Y-66000000D01*
X25856700Y-64547300D02*
X26126400Y-64277600D01*
X56095700Y-42330000D02*
X56095700Y-33883600D01*
X58753800Y-31225500D02*
X58753800Y-16243800D01*
X25856700Y-65358100D02*
X25856700Y-64547300D01*
X62650000Y-50095000D02*
X62201300Y-50095000D01*
X62201300Y-50095000D02*
X61147100Y-51149200D01*
X26498600Y-66000000D02*
X25856700Y-65358100D01*
%TO.N,/F_CS0_N*%
X62650000Y-48825000D02*
X62488400Y-48663400D01*
X62488400Y-48663400D02*
X61167300Y-48663400D01*
X56186400Y-16216400D02*
X56186400Y-31062100D01*
X56186400Y-31062100D02*
X53245800Y-34002700D01*
X26862500Y-65050000D02*
X26862500Y-64258000D01*
X53245800Y-34002700D02*
X53245800Y-45324800D01*
X49970000Y-10000000D02*
X56186400Y-16216400D01*
X26862500Y-64258000D02*
X26878200Y-64242300D01*
%TO.N,/TIA_RDY*%
X10258800Y-69489200D02*
X10258800Y-73681800D01*
X10258800Y-73681800D02*
X16577000Y-80000000D01*
X11208000Y-68540000D02*
X10258800Y-69489200D01*
X16577000Y-80000000D02*
X16950000Y-80000000D01*
X11525000Y-68540000D02*
X11208000Y-68540000D01*
%TO.N,/TIA_PHI0*%
X12766800Y-65331900D02*
X12126900Y-65331900D01*
X12126900Y-65331900D02*
X11525000Y-64730000D01*
%TO.N,/F_LUM1*%
X22048400Y-39019000D02*
X23578000Y-39019000D01*
X15087500Y-40000000D02*
X15087500Y-45597300D01*
X15087500Y-40000000D02*
X16070800Y-40983300D01*
X16070800Y-40983300D02*
X20084100Y-40983300D01*
X15087500Y-45597300D02*
X12848300Y-47836500D01*
X24000000Y-45671300D02*
X25967300Y-47638600D01*
X20084100Y-40983300D02*
X22048400Y-39019000D01*
X23578000Y-39019000D02*
X24000000Y-39441000D01*
X24000000Y-39441000D02*
X24000000Y-45671300D01*
X55050000Y-30320000D02*
X47087500Y-38282500D01*
X47087500Y-38282500D02*
X47087500Y-40000000D01*
%TO.N,/F_LUM0*%
X28699500Y-79049500D02*
X29650000Y-80000000D01*
X28699500Y-69154500D02*
X28699500Y-79049500D01*
X63087500Y-40000000D02*
X63087500Y-33545200D01*
X31087500Y-40000000D02*
X31958300Y-39129200D01*
%TO.N,/TIA_D0*%
X40284000Y-48825000D02*
X37507300Y-51601700D01*
X37507300Y-51601700D02*
X37507300Y-60242200D01*
X40650000Y-48825000D02*
X40284000Y-48825000D01*
%TO.N,/TIA_D1*%
X40650000Y-50095000D02*
X40246900Y-50095000D01*
X40246900Y-50095000D02*
X38084100Y-52257800D01*
X38084100Y-62482500D02*
X37909000Y-62657600D01*
X38084100Y-52257800D02*
X38084100Y-62482500D01*
%TO.N,/TIA_D2*%
X39645900Y-53270000D02*
X41685800Y-53270000D01*
X41997600Y-52958200D02*
X41997600Y-52304900D01*
X41997600Y-52304900D02*
X41057700Y-51365000D01*
X39077900Y-63786400D02*
X38887500Y-63596000D01*
X38887500Y-63596000D02*
X38887500Y-54028400D01*
X41057700Y-51365000D02*
X40650000Y-51365000D01*
X41685800Y-53270000D02*
X41997600Y-52958200D01*
X38887500Y-54028400D02*
X39645900Y-53270000D01*
%TO.N,/TIA_D3*%
X39758600Y-65282600D02*
X39758600Y-70804000D01*
X39758600Y-70804000D02*
X39712400Y-70850200D01*
X39642100Y-52635000D02*
X38485800Y-53791300D01*
X38485800Y-64009800D02*
X39758600Y-65282600D01*
X38485800Y-53791300D02*
X38485800Y-64009800D01*
X40650000Y-52635000D02*
X39642100Y-52635000D01*
%TO.N,/TIA_D4*%
X42521400Y-55337000D02*
X41089400Y-53905000D01*
X41089400Y-53905000D02*
X40650000Y-53905000D01*
X42521400Y-57258200D02*
X42521400Y-55337000D01*
%TO.N,/TIA_D5*%
X41937400Y-55812900D02*
X41299500Y-55175000D01*
X41299500Y-55175000D02*
X40650000Y-55175000D01*
%TO.N,+5V*%
D19*
X15023800Y-64345000D02*
X15023800Y-66422800D01*
X27159000Y-63460000D02*
X16475000Y-63460000D01*
X28000000Y-65495200D02*
X28000000Y-64301000D01*
X28504800Y-66000000D02*
X28000000Y-65495200D01*
X60130000Y-90160000D02*
X60130000Y-80000000D01*
X60130000Y-66920000D02*
X61050000Y-66000000D01*
X16475000Y-63460000D02*
X16475000Y-62190000D01*
X36253800Y-60420000D02*
X36253800Y-65203800D01*
X60130000Y-80000000D02*
X60130000Y-70549900D01*
X15908800Y-63460000D02*
X15023800Y-64345000D01*
X60130000Y-70549900D02*
X54578200Y-70549900D01*
X15023800Y-66422800D02*
X15871000Y-67270000D01*
X60130000Y-70549900D02*
X60130000Y-66920000D01*
X15871000Y-67270000D02*
X16475000Y-67270000D01*
X28000000Y-64301000D02*
X27159000Y-63460000D01*
X37050000Y-66000000D02*
X28504800Y-66000000D01*
X16475000Y-63460000D02*
X15908800Y-63460000D01*
X36253800Y-65203800D02*
X37050000Y-66000000D01*
X55050000Y-95240000D02*
X60130000Y-90160000D01*
%TO.N,/F_D6*%
D20*
X26945700Y-42330300D02*
X25800900Y-41185500D01*
X23604400Y-35559700D02*
X23216900Y-35172200D01*
X26945700Y-51136800D02*
X26945700Y-42330300D01*
X23216900Y-35172200D02*
X23216900Y-27286300D01*
X23216900Y-27286300D02*
X7057300Y-11126700D01*
X7057300Y-11126700D02*
X6790000Y-11126700D01*
X30983900Y-55175000D02*
X26945700Y-51136800D01*
X31350000Y-55175000D02*
X30983900Y-55175000D01*
X6790000Y-10000000D02*
X6790000Y-11126700D01*
%TO.N,/F_D7*%
X26544000Y-52113400D02*
X30875600Y-56445000D01*
X30875600Y-56445000D02*
X31350000Y-56445000D01*
X12455300Y-17340300D02*
X20713800Y-25598800D01*
X26544000Y-44415400D02*
X26544000Y-52113400D01*
X24941700Y-42813100D02*
X26544000Y-44415400D01*
X20713800Y-25598800D02*
X20713800Y-38401800D01*
%TO.N,/F_D0*%
X31350000Y-47555000D02*
X30280800Y-47555000D01*
X35393300Y-41329500D02*
X35393300Y-33891100D01*
X30280800Y-47555000D02*
X29619500Y-46893700D01*
X33460000Y-31957800D02*
X33460000Y-16141900D01*
X35393300Y-33891100D02*
X33460000Y-31957800D01*
X27084300Y-8367800D02*
X18582200Y-8367800D01*
X29619500Y-46893700D02*
X29619500Y-45684300D01*
X18582200Y-8367800D02*
X16950000Y-10000000D01*
X33460000Y-16141900D02*
X28380000Y-11061900D01*
X28380000Y-11061900D02*
X28380000Y-9663500D01*
X28380000Y-9663500D02*
X27084300Y-8367800D01*
X32588100Y-44134700D02*
X35393300Y-41329500D01*
X31169100Y-44134700D02*
X32588100Y-44134700D01*
X29619500Y-45684300D02*
X31169100Y-44134700D01*
%TO.N,/F_D1*%
X31002700Y-43733000D02*
X32421700Y-43733000D01*
X29217800Y-45517900D02*
X31002700Y-43733000D01*
X30920000Y-15058700D02*
X28598200Y-12736900D01*
X31350000Y-48825000D02*
X30924500Y-48825000D01*
X34991600Y-34971600D02*
X30920000Y-30900000D01*
X30920000Y-30900000D02*
X30920000Y-15058700D01*
X34991600Y-41163100D02*
X34991600Y-34971600D01*
X30924500Y-48825000D02*
X29217800Y-47118300D01*
X32421700Y-43733000D02*
X34991600Y-41163100D01*
X29217800Y-47118300D02*
X29217800Y-45517900D01*
%TO.N,/F_D2*%
X28432100Y-11752700D02*
X32172600Y-15493200D01*
X34589900Y-35682400D02*
X34589900Y-40996700D01*
X28238600Y-11752700D02*
X28432100Y-11752700D01*
X32255300Y-43331300D02*
X30836300Y-43331300D01*
X32172600Y-15493200D02*
X32172600Y-28619300D01*
X28816100Y-47925000D02*
X30986100Y-50095000D01*
X30714000Y-31806500D02*
X34589900Y-35682400D01*
X34589900Y-40996700D02*
X32255300Y-43331300D01*
X30986100Y-50095000D02*
X31350000Y-50095000D01*
X28816100Y-45351500D02*
X28816100Y-47925000D01*
X30836300Y-43331300D02*
X28816100Y-45351500D01*
%TO.N,/F_D3*%
X32030000Y-42929600D02*
X30669900Y-42929600D01*
X30883000Y-51365000D02*
X31350000Y-51365000D01*
X28414400Y-45185100D02*
X28414400Y-48896400D01*
X30669900Y-42929600D02*
X28414400Y-45185100D01*
X34156900Y-40802700D02*
X32030000Y-42929600D01*
X28380000Y-32233000D02*
X34156900Y-38009900D01*
X24570000Y-10000000D02*
X28380000Y-13810000D01*
X28380000Y-13810000D02*
X28380000Y-32233000D01*
X34156900Y-38009900D02*
X34156900Y-40802700D01*
X28414400Y-48896400D02*
X30883000Y-51365000D01*
%TO.N,/F_D4*%
X25933900Y-8823900D02*
X24141500Y-8823900D01*
X31860600Y-42527900D02*
X30503500Y-42527900D01*
X30962500Y-52635000D02*
X31350000Y-52635000D01*
X24141500Y-8823900D02*
X23405200Y-9560200D01*
X23405200Y-9560200D02*
X23405200Y-16455200D01*
X27110000Y-10000000D02*
X25933900Y-8823900D01*
X25969300Y-19019300D02*
X25969300Y-31261900D01*
X28012700Y-45018700D02*
X28012700Y-49685200D01*
X23405200Y-16455200D02*
X25969300Y-19019300D01*
X33755200Y-39047800D02*
X33755200Y-40633300D01*
X30503500Y-42527900D02*
X28012700Y-45018700D01*
X33755200Y-40633300D02*
X31860600Y-42527900D01*
X25969300Y-31261900D02*
X33755200Y-39047800D01*
X28012700Y-49685200D02*
X30962500Y-52635000D01*
%TO.N,/F_D5*%
X32655700Y-47172400D02*
X32403300Y-46920000D01*
X31753900Y-53905000D02*
X32655700Y-53003200D01*
X30282700Y-46920000D02*
X30021200Y-46658500D01*
X31406200Y-44536400D02*
X32754500Y-44536400D01*
X30021200Y-46658500D02*
X30021200Y-45921400D01*
X32655700Y-53003200D02*
X32655700Y-47172400D01*
X35867100Y-32611000D02*
X35867100Y-16217100D01*
X35867100Y-16217100D02*
X29650000Y-10000000D01*
X31350000Y-53905000D02*
X31753900Y-53905000D01*
X35795000Y-32683100D02*
X35867100Y-32611000D01*
X32754500Y-44536400D02*
X35795000Y-41495900D01*
X30021200Y-45921400D02*
X31406200Y-44536400D01*
X32403300Y-46920000D02*
X30282700Y-46920000D01*
X35795000Y-41495900D02*
X35795000Y-32683100D01*
%TO.N,/F_A0*%
X18650000Y-48825000D02*
X18338700Y-48513700D01*
X18338700Y-48513700D02*
X17145200Y-48513700D01*
%TO.N,/F_A1*%
X18650000Y-50095000D02*
X18009500Y-50095000D01*
X18009500Y-50095000D02*
X17180000Y-49265500D01*
%TO.N,/F_A2*%
X19966200Y-52259200D02*
X19966200Y-52995300D01*
X19072000Y-51365000D02*
X19966200Y-52259200D01*
X19966200Y-52995300D02*
X19741600Y-53219900D01*
X18650000Y-51365000D02*
X19072000Y-51365000D01*
X17538000Y-53219900D02*
X16612800Y-52294700D01*
X36488200Y-10781800D02*
X36488200Y-27861600D01*
X37270000Y-10000000D02*
X36488200Y-10781800D01*
X16612800Y-52294700D02*
X16612800Y-51226100D01*
X19741600Y-53219900D02*
X17538000Y-53219900D01*
%TO.N,/F_A3*%
X18218200Y-52635000D02*
X17310700Y-51727500D01*
X18650000Y-52635000D02*
X18218200Y-52635000D01*
X37277800Y-12532200D02*
X37277800Y-28028700D01*
X17310700Y-51727500D02*
X17310700Y-50826800D01*
X39810000Y-10000000D02*
X37277800Y-12532200D01*
%TO.N,/F_A4*%
X20367900Y-52092800D02*
X19966200Y-51691100D01*
X20367900Y-53161700D02*
X20367900Y-52092800D01*
X19966200Y-47764800D02*
X20169600Y-47561400D01*
X19624600Y-53905000D02*
X20367900Y-53161700D01*
X19966200Y-51691100D02*
X19966200Y-47764800D01*
X18650000Y-53905000D02*
X19624600Y-53905000D01*
%TO.N,/F_A5*%
X38683300Y-33260300D02*
X38683300Y-16206700D01*
X21826700Y-53031900D02*
X21826700Y-50074800D01*
X19683600Y-55175000D02*
X21826700Y-53031900D01*
X38683300Y-16206700D02*
X44890000Y-10000000D01*
X18650000Y-55175000D02*
X19683600Y-55175000D01*
%TO.N,/F_RW*%
X40062000Y-39285800D02*
X41081500Y-38266300D01*
X41081500Y-16348500D02*
X47430000Y-10000000D01*
X34338500Y-46285000D02*
X40062000Y-40561500D01*
X19028700Y-56445000D02*
X22980300Y-52493400D01*
X22980300Y-52493400D02*
X22980300Y-50319100D01*
X40062000Y-40561500D02*
X40062000Y-39285800D01*
X31350000Y-46285000D02*
X31350000Y-45506500D01*
X18650000Y-56445000D02*
X19028700Y-56445000D01*
X31350000Y-46285000D02*
X34338500Y-46285000D01*
X41081500Y-38266300D02*
X41081500Y-16348500D01*
%TO.N,/F_PHI2*%
X17587600Y-54571900D02*
X19673800Y-54571900D01*
X17314200Y-56799100D02*
X17314200Y-54845300D01*
X19673800Y-54571900D02*
X20769600Y-53476100D01*
X20769600Y-49294500D02*
X20552900Y-49077800D01*
X17314200Y-54845300D02*
X17587600Y-54571900D01*
X18650000Y-57715000D02*
X18230100Y-57715000D01*
X18230100Y-57715000D02*
X17314200Y-56799100D01*
X20769600Y-53476100D02*
X20769600Y-49294500D01*
%TO.N,/F_PHI0*%
X13357300Y-61987700D02*
X13357300Y-51252300D01*
X11885000Y-63460000D02*
X13357300Y-61987700D01*
X11525000Y-63460000D02*
X11885000Y-63460000D01*
%TO.N,/TIA_A0*%
X7149900Y-81463400D02*
X7149900Y-60873600D01*
X7149900Y-60873600D02*
X7291200Y-60732300D01*
X8943500Y-47555000D02*
X9350000Y-47555000D01*
X7206400Y-59667300D02*
X7206400Y-49292100D01*
X7291200Y-60732300D02*
X7291200Y-59752100D01*
X7291200Y-59752100D02*
X7206400Y-59667300D01*
X7461500Y-81775000D02*
X7149900Y-81463400D01*
X7206400Y-49292100D02*
X8943500Y-47555000D01*
%TO.N,/TIA_A1*%
X9350000Y-48825000D02*
X8986500Y-48825000D01*
X8986500Y-48825000D02*
X7829100Y-49982400D01*
X7829100Y-49982400D02*
X7829100Y-55399400D01*
%TO.N,/TIA_A2*%
X9350000Y-50095000D02*
X9743800Y-50095000D01*
X9743800Y-50095000D02*
X12616400Y-52967600D01*
X12616400Y-52967600D02*
X12616400Y-57315700D01*
%TO.N,/TIA_A3*%
X9786900Y-51365000D02*
X10854000Y-52432100D01*
X9350000Y-51365000D02*
X9786900Y-51365000D01*
X10854000Y-52432100D02*
X10854000Y-52590900D01*
%TO.N,/TIA_A4*%
X9883300Y-53168300D02*
X11599300Y-53168300D01*
X9350000Y-52635000D02*
X9883300Y-53168300D01*
%TO.N,/TIA_A5*%
X9350000Y-53905000D02*
X9763300Y-53905000D01*
X9763300Y-53905000D02*
X11272800Y-55414500D01*
X11272800Y-55414500D02*
X11272800Y-57315700D01*
%TO.N,/TIA_RW*%
X7615500Y-59508300D02*
X7615500Y-56443100D01*
X7750200Y-59643000D02*
X7615500Y-59508300D01*
X8883600Y-55175000D02*
X9350000Y-55175000D01*
X7615500Y-56443100D02*
X8883600Y-55175000D01*
X7750200Y-63168700D02*
X7750200Y-59643000D01*
%TO.N,/TIA_PHI2*%
X8326900Y-59651600D02*
X8038900Y-59363600D01*
X8326900Y-80726300D02*
X8326900Y-59651600D01*
X8038900Y-57308100D02*
X8902000Y-56445000D01*
X8902000Y-56445000D02*
X9350000Y-56445000D01*
X8038900Y-59363600D02*
X8038900Y-57308100D01*
%TO.N,/DBUS_OE_N*%
X29222600Y-67035100D02*
X29137500Y-66950000D01*
X40214100Y-47555000D02*
X36930600Y-50838500D01*
X36930600Y-50838500D02*
X36930600Y-62494700D01*
X40650000Y-47555000D02*
X40214100Y-47555000D01*
X37495300Y-67035100D02*
X29222600Y-67035100D01*
X37865200Y-63429300D02*
X37865200Y-66665200D01*
X36930600Y-62494700D02*
X37865200Y-63429300D01*
X37865200Y-66665200D02*
X37495300Y-67035100D01*
%TO.N,/TIA_D7*%
X30152600Y-96386200D02*
X30920000Y-95618800D01*
X30920000Y-95618800D02*
X30920000Y-94727400D01*
X40763600Y-72093500D02*
X40763600Y-57828600D01*
X27110000Y-95240000D02*
X28256200Y-96386200D01*
X36000000Y-76857100D02*
X40763600Y-72093500D01*
X30920000Y-94727400D02*
X36000000Y-89647400D01*
X40763600Y-57828600D02*
X40650000Y-57715000D01*
X28256200Y-96386200D02*
X30152600Y-96386200D01*
X36000000Y-89647400D02*
X36000000Y-76857100D01*
%TO.N,/TIA_D6*%
X33460000Y-91430000D02*
X33460000Y-77918200D01*
X39333100Y-57310000D02*
X40198100Y-56445000D01*
X33460000Y-77918200D02*
X40334500Y-71043700D01*
X40334500Y-63351500D02*
X39333100Y-62350100D01*
X40198100Y-56445000D02*
X40650000Y-56445000D01*
X40334500Y-71043700D02*
X40334500Y-63351500D01*
X29650000Y-95240000D02*
X33460000Y-91430000D01*
X39333100Y-62350100D02*
X39333100Y-57310000D01*
%TO.N,/F_RDY*%
X6230400Y-60075000D02*
X6230400Y-32006300D01*
X11525000Y-67270000D02*
X11131500Y-67270000D01*
X6230400Y-32006300D02*
X6790000Y-31446700D01*
X11131500Y-67270000D02*
X9489600Y-65628100D01*
X9489600Y-65628100D02*
X9489600Y-62097700D01*
X6790000Y-30320000D02*
X6790000Y-31446700D01*
%TD*%
M02*
