%TF.GenerationSoftware,KiCad,Pcbnew,10.0.4*%
%TF.CreationDate,2026-09-12T00:26:13-03:00*%
%TF.ProjectId,tia-fpga,7469612d-6670-4676-912e-6b696361645f,rev?*%
%TF.SameCoordinates,Original*%
%TF.FileFunction,Copper,L1,Top*%
%TF.FilePolarity,Positive*%
%FSLAX46Y46*%
G04 Gerber Fmt 4.6, Leading zero omitted, Abs format (unit mm)*
G04 Created by KiCad (PCBNEW 10.0.4) date 2026-09-12 00:26:13*
%MOMM*%
%LPD*%
G01*
G04 APERTURE LIST*
G04 Aperture macros list*
%AMRoundRect*
0 Rectangle with rounded corners*
0 $1 Rounding radius*
0 $2 $3 $4 $5 $6 $7 $8 $9 X,Y pos of 4 corners*
0 Add a 4 corners polygon primitive as box body*
4,1,4,$2,$3,$4,$5,$6,$7,$8,$9,$2,$3,0*
0 Add four circle primitives for the rounded corners*
1,1,$1+$1,$2,$3*
1,1,$1+$1,$4,$5*
1,1,$1+$1,$6,$7*
1,1,$1+$1,$8,$9*
0 Add four rect primitives between the rounded corners*
20,1,$1+$1,$2,$3,$4,$5,0*
20,1,$1+$1,$4,$5,$6,$7,0*
20,1,$1+$1,$6,$7,$8,$9,0*
20,1,$1+$1,$8,$9,$2,$3,0*%
G04 Aperture macros list end*
%TA.AperFunction,SMDPad,CuDef*%
%ADD10RoundRect,0.150000X-0.512500X-0.150000X0.512500X-0.150000X0.512500X0.150000X-0.512500X0.150000X0*%
%TD*%
%TA.AperFunction,SMDPad,CuDef*%
%ADD11RoundRect,0.250000X-0.262500X-0.450000X0.262500X-0.450000X0.262500X0.450000X-0.262500X0.450000X0*%
%TD*%
%TA.AperFunction,SMDPad,CuDef*%
%ADD12RoundRect,0.250000X-0.250000X-0.475000X0.250000X-0.475000X0.250000X0.475000X-0.250000X0.475000X0*%
%TD*%
%TA.AperFunction,ComponentPad*%
%ADD13R,1.700000X1.700000*%
%TD*%
%TA.AperFunction,ComponentPad*%
%ADD14C,1.700000*%
%TD*%
%TA.AperFunction,SMDPad,CuDef*%
%ADD15RoundRect,0.150000X0.150000X-0.875000X0.150000X0.875000X-0.150000X0.875000X-0.150000X-0.875000X0*%
%TD*%
%TA.AperFunction,SMDPad,CuDef*%
%ADD16RoundRect,0.150000X0.150000X-0.825000X0.150000X0.825000X-0.150000X0.825000X-0.150000X-0.825000X0*%
%TD*%
%TA.AperFunction,ViaPad*%
%ADD17C,0.600000*%
%TD*%
%TA.AperFunction,Conductor*%
%ADD18C,0.180000*%
%TD*%
G04 APERTURE END LIST*
D10*
%TO.P,U5,1*%
%TO.N,/F_CS0_N*%
X6862500Y-1550000D03*
%TO.P,U5,2*%
%TO.N,/F_CS3_N*%
X6862500Y-2500000D03*
%TO.P,U5,3*%
%TO.N,GND*%
X6862500Y-3450000D03*
%TO.P,U5,4*%
%TO.N,/DBUS_OE_N*%
X9137500Y-3450000D03*
%TO.P,U5,5*%
%TO.N,+3V3*%
X9137500Y-1550000D03*
%TD*%
D11*
%TO.P,R5,1*%
%TO.N,/F_CSYNC*%
X35087500Y-29500000D03*
%TO.P,R5,2*%
%TO.N,GND*%
X36912500Y-29500000D03*
%TD*%
%TO.P,R2,1*%
%TO.N,/F_LUM1*%
X14087500Y-29500000D03*
%TO.P,R2,2*%
%TO.N,/VIDEO_SUM*%
X15912500Y-29500000D03*
%TD*%
%TO.P,R6,1*%
%TO.N,/F_LUM1*%
X42087500Y-29500000D03*
%TO.P,R6,2*%
%TO.N,GND*%
X43912500Y-29500000D03*
%TD*%
D12*
%TO.P,C3,1*%
%TO.N,+3V3*%
X31050000Y-2500000D03*
%TO.P,C3,2*%
%TO.N,GND*%
X32950000Y-2500000D03*
%TD*%
%TO.P,C1,1*%
%TO.N,+5V*%
X15050000Y-2500000D03*
%TO.P,C1,2*%
%TO.N,GND*%
X16950000Y-2500000D03*
%TD*%
%TO.P,C2,1*%
%TO.N,+3V3*%
X23050000Y-2500000D03*
%TO.P,C2,2*%
%TO.N,GND*%
X24950000Y-2500000D03*
%TD*%
%TO.P,C5,1*%
%TO.N,+5V*%
X47050000Y-2500000D03*
%TO.P,C5,2*%
%TO.N,GND*%
X48950000Y-2500000D03*
%TD*%
D13*
%TO.P,J4,1*%
%TO.N,/F_LUM1*%
X5790000Y-26160000D03*
D14*
%TO.P,J4,2*%
%TO.N,unconnected-(J4-Pin_2-Pad2)*%
X8330000Y-26160000D03*
%TO.P,J4,3*%
%TO.N,unconnected-(J4-Pin_3-Pad3)*%
X10870000Y-26160000D03*
%TO.P,J4,4*%
%TO.N,unconnected-(J4-Pin_4-Pad4)*%
X13410000Y-26160000D03*
%TO.P,J4,5*%
%TO.N,unconnected-(J4-Pin_5-Pad5)*%
X15950000Y-26160000D03*
%TO.P,J4,6*%
%TO.N,unconnected-(J4-Pin_6-Pad6)*%
X18490000Y-26160000D03*
%TO.P,J4,7*%
%TO.N,unconnected-(J4-Pin_7-Pad7)*%
X21030000Y-26160000D03*
%TO.P,J4,8*%
%TO.N,unconnected-(J4-Pin_8-Pad8)*%
X23570000Y-26160000D03*
%TO.P,J4,9*%
%TO.N,unconnected-(J4-Pin_9-Pad9)*%
X26110000Y-26160000D03*
%TO.P,J4,10*%
%TO.N,/F_LUM0*%
X28650000Y-26160000D03*
%TO.P,J4,11*%
%TO.N,/F_AU1*%
X31190000Y-26160000D03*
%TO.P,J4,12*%
%TO.N,unconnected-(J4-Pin_12-Pad12)*%
X33730000Y-26160000D03*
%TO.P,J4,13*%
%TO.N,unconnected-(J4-Pin_13-Pad13)*%
X36270000Y-26160000D03*
%TO.P,J4,14*%
%TO.N,unconnected-(J4-Pin_14-Pad14)*%
X38810000Y-26160000D03*
%TO.P,J4,15*%
%TO.N,unconnected-(J4-Pin_15-Pad15)*%
X41350000Y-26160000D03*
%TO.P,J4,16*%
%TO.N,unconnected-(J4-Pin_16-Pad16)*%
X43890000Y-26160000D03*
%TO.P,J4,17*%
%TO.N,unconnected-(J4-Pin_17-Pad17)*%
X46430000Y-26160000D03*
%TO.P,J4,18*%
%TO.N,unconnected-(J4-Pin_18-Pad18)*%
X48970000Y-26160000D03*
%TO.P,J4,19*%
%TO.N,/F_D1*%
X51510000Y-26160000D03*
%TO.P,J4,20*%
%TO.N,/F_D3*%
X54050000Y-26160000D03*
%TO.P,J4,21*%
%TO.N,/F_CS0_N*%
X56590000Y-26160000D03*
%TO.P,J4,22*%
%TO.N,/F_D5*%
X59130000Y-26160000D03*
%TO.P,J4,23*%
%TO.N,GND*%
X61670000Y-26160000D03*
%TO.P,J4,24*%
%TO.N,+3V3*%
X64210000Y-26160000D03*
%TD*%
D15*
%TO.P,U4,1*%
%TO.N,GND*%
X18285000Y-20650000D03*
%TO.P,U4,2*%
%TO.N,/TIA_CS0_N*%
X19555000Y-20650000D03*
%TO.P,U4,3*%
%TO.N,/TIA_CS3_N*%
X20825000Y-20650000D03*
%TO.P,U4,4*%
%TO.N,/TIA_I4*%
X22095000Y-20650000D03*
%TO.P,U4,5*%
%TO.N,/TIA_I5*%
X23365000Y-20650000D03*
%TO.P,U4,6*%
%TO.N,/TIA_OSC*%
X24635000Y-20650000D03*
%TO.P,U4,7*%
%TO.N,GND*%
X25905000Y-20650000D03*
%TO.P,U4,8*%
X27175000Y-20650000D03*
%TO.P,U4,9*%
X28445000Y-20650000D03*
%TO.P,U4,10*%
X29715000Y-20650000D03*
%TO.P,U4,11*%
%TO.N,unconnected-(U4-Y7-Pad11)*%
X29715000Y-11350000D03*
%TO.P,U4,12*%
%TO.N,unconnected-(U4-Y6-Pad12)*%
X28445000Y-11350000D03*
%TO.P,U4,13*%
%TO.N,unconnected-(U4-Y5-Pad13)*%
X27175000Y-11350000D03*
%TO.P,U4,14*%
%TO.N,/F_OSC*%
X25905000Y-11350000D03*
%TO.P,U4,15*%
%TO.N,/F_I5*%
X24635000Y-11350000D03*
%TO.P,U4,16*%
%TO.N,/F_I4*%
X23365000Y-11350000D03*
%TO.P,U4,17*%
%TO.N,/F_CS3_N*%
X22095000Y-11350000D03*
%TO.P,U4,18*%
%TO.N,/F_CS0_N*%
X20825000Y-11350000D03*
%TO.P,U4,19*%
%TO.N,GND*%
X19555000Y-11350000D03*
%TO.P,U4,20*%
%TO.N,+3V3*%
X18285000Y-11350000D03*
%TD*%
D11*
%TO.P,R4,1*%
%TO.N,/F_LUM0*%
X28087500Y-29500000D03*
%TO.P,R4,2*%
%TO.N,/VIDEO_SUM*%
X29912500Y-29500000D03*
%TD*%
D15*
%TO.P,U2,1*%
%TO.N,/F_RW*%
X46285000Y-20650000D03*
%TO.P,U2,2*%
%TO.N,/F_D0*%
X47555000Y-20650000D03*
%TO.P,U2,3*%
%TO.N,/F_D1*%
X48825000Y-20650000D03*
%TO.P,U2,4*%
%TO.N,/F_D2*%
X50095000Y-20650000D03*
%TO.P,U2,5*%
%TO.N,/F_D3*%
X51365000Y-20650000D03*
%TO.P,U2,6*%
%TO.N,/F_D4*%
X52635000Y-20650000D03*
%TO.P,U2,7*%
%TO.N,/F_D5*%
X53905000Y-20650000D03*
%TO.P,U2,8*%
%TO.N,/F_D6*%
X55175000Y-20650000D03*
%TO.P,U2,9*%
%TO.N,/F_D7*%
X56445000Y-20650000D03*
%TO.P,U2,10*%
%TO.N,GND*%
X57715000Y-20650000D03*
%TO.P,U2,11*%
%TO.N,/TIA_D7*%
X57715000Y-11350000D03*
%TO.P,U2,12*%
%TO.N,/TIA_D6*%
X56445000Y-11350000D03*
%TO.P,U2,13*%
%TO.N,/TIA_D5*%
X55175000Y-11350000D03*
%TO.P,U2,14*%
%TO.N,/TIA_D4*%
X53905000Y-11350000D03*
%TO.P,U2,15*%
%TO.N,/TIA_D3*%
X52635000Y-11350000D03*
%TO.P,U2,16*%
%TO.N,/TIA_D2*%
X51365000Y-11350000D03*
%TO.P,U2,17*%
%TO.N,/TIA_D1*%
X50095000Y-11350000D03*
%TO.P,U2,18*%
%TO.N,/TIA_D0*%
X48825000Y-11350000D03*
%TO.P,U2,19*%
%TO.N,/DBUS_OE_N*%
X47555000Y-11350000D03*
%TO.P,U2,20*%
%TO.N,+3V3*%
X46285000Y-11350000D03*
%TD*%
D12*
%TO.P,C6,1*%
%TO.N,+3V3*%
X55050000Y-2500000D03*
%TO.P,C6,2*%
%TO.N,GND*%
X56950000Y-2500000D03*
%TD*%
%TO.P,C4,1*%
%TO.N,+3V3*%
X39050000Y-2500000D03*
%TO.P,C4,2*%
%TO.N,GND*%
X40950000Y-2500000D03*
%TD*%
D11*
%TO.P,R8,1*%
%TO.N,/F_LUM0*%
X56087500Y-29500000D03*
%TO.P,R8,2*%
%TO.N,GND*%
X57912500Y-29500000D03*
%TD*%
%TO.P,R7,1*%
%TO.N,/F_LUM2*%
X49087500Y-29500000D03*
%TO.P,R7,2*%
%TO.N,GND*%
X50912500Y-29500000D03*
%TD*%
D13*
%TO.P,J1,1*%
%TO.N,/F_PHI0*%
X5790000Y-5840000D03*
D14*
%TO.P,J1,2*%
%TO.N,/F_CSYNC*%
X8330000Y-5840000D03*
%TO.P,J1,3*%
%TO.N,/F_RDY*%
X10870000Y-5840000D03*
%TO.P,J1,4*%
%TO.N,/F_OSC*%
X13410000Y-5840000D03*
%TO.P,J1,5*%
%TO.N,/F_LUM2*%
X15950000Y-5840000D03*
%TO.P,J1,6*%
%TO.N,/F_I4*%
X18490000Y-5840000D03*
%TO.P,J1,7*%
%TO.N,/F_COL*%
X21030000Y-5840000D03*
%TO.P,J1,8*%
%TO.N,/F_I5*%
X23570000Y-5840000D03*
%TO.P,J1,9*%
%TO.N,/F_D7*%
X26110000Y-5840000D03*
%TO.P,J1,10*%
%TO.N,/F_D6*%
X28650000Y-5840000D03*
%TO.P,J1,11*%
%TO.N,/F_A0*%
X31190000Y-5840000D03*
%TO.P,J1,12*%
%TO.N,/F_A1*%
X33730000Y-5840000D03*
%TO.P,J1,13*%
%TO.N,/F_A2*%
X36270000Y-5840000D03*
%TO.P,J1,14*%
%TO.N,/F_A3*%
X38810000Y-5840000D03*
%TO.P,J1,15*%
%TO.N,/F_A4*%
X41350000Y-5840000D03*
%TO.P,J1,16*%
%TO.N,/F_D0*%
X43890000Y-5840000D03*
%TO.P,J1,17*%
%TO.N,/F_A5*%
X46430000Y-5840000D03*
%TO.P,J1,18*%
%TO.N,/F_D2*%
X48970000Y-5840000D03*
%TO.P,J1,19*%
%TO.N,/F_RW*%
X51510000Y-5840000D03*
%TO.P,J1,20*%
%TO.N,/F_D4*%
X54050000Y-5840000D03*
%TO.P,J1,21*%
%TO.N,/F_AU0*%
X56590000Y-5840000D03*
%TO.P,J1,22*%
%TO.N,/F_CS3_N*%
X59130000Y-5840000D03*
%TO.P,J1,23*%
%TO.N,unconnected-(J1-Pin_23-Pad23)*%
X61670000Y-5840000D03*
%TO.P,J1,24*%
%TO.N,unconnected-(J1-Pin_24-Pad24)*%
X64210000Y-5840000D03*
%TD*%
D16*
%TO.P,U1,1*%
%TO.N,GND*%
X6190000Y-18475000D03*
%TO.P,U1,2*%
%TO.N,/F_PHI0*%
X7460000Y-18475000D03*
%TO.P,U1,3*%
%TO.N,/TIA_PHI0*%
X8730000Y-18475000D03*
%TO.P,U1,4*%
%TO.N,GND*%
X10000000Y-18475000D03*
%TO.P,U1,5*%
%TO.N,/F_RDY*%
X11270000Y-18475000D03*
%TO.P,U1,6*%
%TO.N,/TIA_RDY*%
X12540000Y-18475000D03*
%TO.P,U1,7*%
%TO.N,GND*%
X13810000Y-18475000D03*
%TO.P,U1,8*%
%TO.N,unconnected-(U1-Pad8)*%
X13810000Y-13525000D03*
%TO.P,U1,9*%
%TO.N,GND*%
X12540000Y-13525000D03*
%TO.P,U1,10*%
%TO.N,+5V*%
X11270000Y-13525000D03*
%TO.P,U1,11*%
%TO.N,unconnected-(U1-Pad11)*%
X10000000Y-13525000D03*
%TO.P,U1,12*%
%TO.N,GND*%
X8730000Y-13525000D03*
%TO.P,U1,13*%
%TO.N,+5V*%
X7460000Y-13525000D03*
%TO.P,U1,14*%
X6190000Y-13525000D03*
%TD*%
D11*
%TO.P,R1,1*%
%TO.N,/F_CSYNC*%
X7087500Y-29500000D03*
%TO.P,R1,2*%
%TO.N,/VIDEO_SUM*%
X8912500Y-29500000D03*
%TD*%
D15*
%TO.P,U3,1*%
%TO.N,GND*%
X32285000Y-20650000D03*
%TO.P,U3,2*%
%TO.N,/TIA_A0*%
X33555000Y-20650000D03*
%TO.P,U3,3*%
%TO.N,/TIA_A1*%
X34825000Y-20650000D03*
%TO.P,U3,4*%
%TO.N,/TIA_A2*%
X36095000Y-20650000D03*
%TO.P,U3,5*%
%TO.N,/TIA_A3*%
X37365000Y-20650000D03*
%TO.P,U3,6*%
%TO.N,/TIA_A4*%
X38635000Y-20650000D03*
%TO.P,U3,7*%
%TO.N,/TIA_A5*%
X39905000Y-20650000D03*
%TO.P,U3,8*%
%TO.N,/TIA_RW*%
X41175000Y-20650000D03*
%TO.P,U3,9*%
%TO.N,/TIA_PHI2*%
X42445000Y-20650000D03*
%TO.P,U3,10*%
%TO.N,GND*%
X43715000Y-20650000D03*
%TO.P,U3,11*%
%TO.N,unconnected-(U3-Y7-Pad11)*%
X43715000Y-11350000D03*
%TO.P,U3,12*%
%TO.N,/F_RW*%
X42445000Y-11350000D03*
%TO.P,U3,13*%
%TO.N,/F_A5*%
X41175000Y-11350000D03*
%TO.P,U3,14*%
%TO.N,/F_A4*%
X39905000Y-11350000D03*
%TO.P,U3,15*%
%TO.N,/F_A3*%
X38635000Y-11350000D03*
%TO.P,U3,16*%
%TO.N,/F_A2*%
X37365000Y-11350000D03*
%TO.P,U3,17*%
%TO.N,/F_A1*%
X36095000Y-11350000D03*
%TO.P,U3,18*%
%TO.N,/F_A0*%
X34825000Y-11350000D03*
%TO.P,U3,19*%
%TO.N,GND*%
X33555000Y-11350000D03*
%TO.P,U3,20*%
%TO.N,+3V3*%
X32285000Y-11350000D03*
%TD*%
D11*
%TO.P,R9,1*%
%TO.N,/F_COL*%
X63087500Y-29500000D03*
%TO.P,R9,2*%
%TO.N,/VIDEO_SUM*%
X64912500Y-29500000D03*
%TD*%
%TO.P,R3,1*%
%TO.N,/F_LUM2*%
X21087500Y-29500000D03*
%TO.P,R3,2*%
%TO.N,/VIDEO_SUM*%
X22912500Y-29500000D03*
%TD*%
D13*
%TO.P,J3,1*%
%TO.N,/TIA_CS3_N*%
X59130000Y-23620000D03*
D14*
%TO.P,J3,2*%
%TO.N,GND*%
X56590000Y-23620000D03*
%TO.P,J3,3*%
%TO.N,+5V*%
X54050000Y-23620000D03*
%TO.P,J3,4*%
%TO.N,/TIA_CS0_N*%
X51510000Y-23620000D03*
%TO.P,J3,5*%
%TO.N,/TIA_RW*%
X48970000Y-23620000D03*
%TO.P,J3,6*%
%TO.N,/TIA_PHI2*%
X46430000Y-23620000D03*
%TO.P,J3,7*%
%TO.N,/TIA_A5*%
X43890000Y-23620000D03*
%TO.P,J3,8*%
%TO.N,/TIA_A4*%
X41350000Y-23620000D03*
%TO.P,J3,9*%
%TO.N,/TIA_A3*%
X38810000Y-23620000D03*
%TO.P,J3,10*%
%TO.N,/TIA_A2*%
X36270000Y-23620000D03*
%TO.P,J3,11*%
%TO.N,/TIA_A1*%
X33730000Y-23620000D03*
%TO.P,J3,12*%
%TO.N,/TIA_A0*%
X31190000Y-23620000D03*
%TO.P,J3,13*%
%TO.N,/TIA_D6*%
X28650000Y-23620000D03*
%TO.P,J3,14*%
%TO.N,/TIA_D7*%
X26110000Y-23620000D03*
%TO.P,J3,15*%
%TO.N,/TIA_I5*%
X23570000Y-23620000D03*
%TO.P,J3,16*%
%TO.N,/TIA_I4*%
X21030000Y-23620000D03*
%TO.P,J3,17*%
%TO.N,unconnected-(J3-Pin_17-Pad17)*%
X18490000Y-23620000D03*
%TO.P,J3,18*%
%TO.N,unconnected-(J3-Pin_18-Pad18)*%
X15950000Y-23620000D03*
%TO.P,J3,19*%
%TO.N,unconnected-(J3-Pin_19-Pad19)*%
X13410000Y-23620000D03*
%TO.P,J3,20*%
%TO.N,unconnected-(J3-Pin_20-Pad20)*%
X10870000Y-23620000D03*
%TD*%
D13*
%TO.P,J2,1*%
%TO.N,GND*%
X10870000Y-8380000D03*
D14*
%TO.P,J2,2*%
%TO.N,/F_CSYNC*%
X13410000Y-8380000D03*
%TO.P,J2,3*%
%TO.N,/TIA_RDY*%
X15950000Y-8380000D03*
%TO.P,J2,4*%
%TO.N,/TIA_PHI0*%
X18490000Y-8380000D03*
%TO.P,J2,5*%
%TO.N,/F_LUM1*%
X21030000Y-8380000D03*
%TO.P,J2,6*%
%TO.N,unconnected-(J2-Pin_6-Pad6)*%
X23570000Y-8380000D03*
%TO.P,J2,7*%
%TO.N,/F_LUM2*%
X26110000Y-8380000D03*
%TO.P,J2,8*%
%TO.N,/F_LUM0*%
X28650000Y-8380000D03*
%TO.P,J2,9*%
%TO.N,/F_COL*%
X31190000Y-8380000D03*
%TO.P,J2,10*%
%TO.N,unconnected-(J2-Pin_10-Pad10)*%
X33730000Y-8380000D03*
%TO.P,J2,11*%
%TO.N,/TIA_OSC*%
X36270000Y-8380000D03*
%TO.P,J2,12*%
%TO.N,/F_AU1*%
X38810000Y-8380000D03*
%TO.P,J2,13*%
%TO.N,/F_AU0*%
X41350000Y-8380000D03*
%TO.P,J2,14*%
%TO.N,/TIA_D0*%
X43890000Y-8380000D03*
%TO.P,J2,15*%
%TO.N,/TIA_D1*%
X46430000Y-8380000D03*
%TO.P,J2,16*%
%TO.N,/TIA_D2*%
X48970000Y-8380000D03*
%TO.P,J2,17*%
%TO.N,/TIA_D3*%
X51510000Y-8380000D03*
%TO.P,J2,18*%
%TO.N,/TIA_D4*%
X54050000Y-8380000D03*
%TO.P,J2,19*%
%TO.N,/TIA_D5*%
X56590000Y-8380000D03*
%TO.P,J2,20*%
%TO.N,+5V*%
X59130000Y-8380000D03*
%TD*%
D17*
%TO.N,/F_CS0_N*%
X14104000Y-2287300D03*
X17392800Y-6595900D03*
%TO.N,/F_CS3_N*%
X56215600Y-4196800D03*
%TO.N,GND*%
X32652800Y-9886500D03*
X28094400Y-19167700D03*
X33890300Y-2537900D03*
X18013900Y-9778400D03*
X53747800Y-30461700D03*
%TO.N,/DBUS_OE_N*%
X10731000Y-4450300D03*
X29472000Y-4715400D03*
X46986700Y-10043300D03*
X45160000Y-6401500D03*
%TO.N,+3V3*%
X60400000Y-13135900D03*
X56000000Y-2165600D03*
X19725900Y-3423200D03*
X19789800Y-4878600D03*
%TO.N,/F_CSYNC*%
X4718300Y-24900800D03*
%TO.N,+5V*%
X15371700Y-3681800D03*
X10664800Y-12290200D03*
%TO.N,/TIA_OSC*%
X24635000Y-19182300D03*
%TO.N,/F_RW*%
X52114300Y-12700600D03*
X52614700Y-18264200D03*
%TO.N,/F_D0*%
X48032400Y-19276400D03*
%TO.N,/F_D2*%
X50558400Y-19247700D03*
%TO.N,/F_D4*%
X53106200Y-19264800D03*
%TO.N,/F_D6*%
X54862300Y-19127500D03*
%TO.N,/TIA_D7*%
X58461400Y-10603600D03*
%TO.N,/TIA_D6*%
X44414400Y-13255800D03*
%TO.N,/F_LUM2*%
X20168000Y-30263100D03*
%TO.N,/F_PHI0*%
X5573300Y-19674100D03*
%TO.N,/TIA_PHI0*%
X9229600Y-19783900D03*
%TD*%
%TO.N,/F_CS0_N*%
D18*
X17392800Y-12081600D02*
X18246500Y-12935300D01*
X20825000Y-12085900D02*
X20825000Y-11350000D01*
X18246500Y-12935300D02*
X19975600Y-12935300D01*
X19975600Y-12935300D02*
X20825000Y-12085900D01*
X17392800Y-6595900D02*
X17392800Y-12081600D01*
X6862500Y-1550000D02*
X7874700Y-1550000D01*
X8612000Y-2287300D02*
X14104000Y-2287300D01*
X7874700Y-1550000D02*
X8612000Y-2287300D01*
%TO.N,/F_CS3_N*%
X22095000Y-12087900D02*
X22925400Y-12918300D01*
X25038300Y-4362500D02*
X24975200Y-4299400D01*
X9946300Y-2927700D02*
X7290200Y-2927700D01*
X25160300Y-12376800D02*
X25160300Y-9790000D01*
X29255900Y-4193700D02*
X29087100Y-4362500D01*
X11318000Y-4299400D02*
X9946300Y-2927700D01*
X29087100Y-4362500D02*
X25038300Y-4362500D01*
X25038300Y-9668000D02*
X25038300Y-4362500D01*
X22925400Y-12918300D02*
X24618800Y-12918300D01*
X25160300Y-9790000D02*
X25038300Y-9668000D01*
X7290200Y-2927700D02*
X6862500Y-2500000D01*
X24618800Y-12918300D02*
X25160300Y-12376800D01*
X56215600Y-4196800D02*
X56212500Y-4193700D01*
X56212500Y-4193700D02*
X29255900Y-4193700D01*
X22095000Y-11350000D02*
X22095000Y-12087900D01*
X24975200Y-4299400D02*
X11318000Y-4299400D01*
%TO.N,GND*%
X50912500Y-29500000D02*
X49969800Y-28557300D01*
X9674600Y-14722700D02*
X10000000Y-14722700D01*
X5977700Y-2804300D02*
X6623400Y-3450000D01*
X49952900Y-3502900D02*
X48950000Y-2500000D01*
X10870000Y-9451700D02*
X12539900Y-11121600D01*
X32950000Y-2500000D02*
X32987900Y-2537900D01*
X6623400Y-3450000D02*
X6862500Y-3450000D01*
X32285000Y-20650000D02*
X32285000Y-20320400D01*
X12539900Y-13525000D02*
X12540000Y-13525000D01*
X10000000Y-14722700D02*
X10000000Y-17222700D01*
X43715000Y-20309700D02*
X46282300Y-17742400D01*
X40950000Y-2500000D02*
X42233200Y-1216800D01*
X10870000Y-8380000D02*
X10870000Y-7308300D01*
X6190000Y-18232300D02*
X6190000Y-18475000D01*
X19555000Y-11033000D02*
X18300400Y-9778400D01*
X54593800Y-21623800D02*
X56590000Y-23620000D01*
X12539900Y-11121600D02*
X12539900Y-13525000D01*
X10870000Y-8380000D02*
X10870000Y-9451700D01*
X31976600Y-1526600D02*
X32950000Y-2500000D01*
X40000200Y-1550200D02*
X40950000Y-2500000D01*
X8730000Y-13525000D02*
X8730000Y-13778100D01*
X43912500Y-28557300D02*
X37855200Y-28557300D01*
X24950000Y-1526600D02*
X17923400Y-1526600D01*
X10000000Y-17222700D02*
X10000000Y-18475000D01*
X28094400Y-20650000D02*
X28094400Y-19167700D01*
X55730800Y-3502900D02*
X49952900Y-3502900D01*
X49969800Y-28557300D02*
X43912500Y-28557300D01*
X6233800Y-989600D02*
X5977700Y-1245700D01*
X32285000Y-20320400D02*
X33252200Y-19353200D01*
X42758500Y-19353200D02*
X43715000Y-20309700D01*
X8730000Y-13778100D02*
X9674600Y-14722700D01*
X55794000Y-1216800D02*
X56950000Y-2372800D01*
X32987900Y-2537900D02*
X33890300Y-2537900D01*
X28445000Y-20650000D02*
X28094400Y-20650000D01*
X7199600Y-17222700D02*
X6190000Y-18232300D01*
X50912500Y-29500000D02*
X51874200Y-30461700D01*
X51874200Y-30461700D02*
X53747800Y-30461700D01*
X33899800Y-1550200D02*
X40000200Y-1550200D01*
X54340600Y-19226700D02*
X54340600Y-19343600D01*
X33555000Y-11350000D02*
X33555000Y-10788700D01*
X28094400Y-20650000D02*
X27175000Y-20650000D01*
X24950000Y-2500000D02*
X24950000Y-1526600D01*
X5977700Y-1245700D02*
X5977700Y-2804300D01*
X11606100Y-14722700D02*
X12540000Y-13788800D01*
X54593800Y-19596800D02*
X54593800Y-21623800D01*
X13810000Y-18475000D02*
X16110000Y-18475000D01*
X46282300Y-17742400D02*
X52856300Y-17742400D01*
X32950000Y-2500000D02*
X33899800Y-1550200D01*
X10000000Y-18475000D02*
X10000000Y-18731200D01*
X10000000Y-18731200D02*
X10977200Y-19708400D01*
X56950000Y-2500000D02*
X56733700Y-2500000D01*
X43912500Y-28557300D02*
X43912500Y-29500000D01*
X10977200Y-19708400D02*
X12842300Y-19708400D01*
X33252200Y-19353200D02*
X42758500Y-19353200D01*
X61670000Y-24086800D02*
X58233200Y-20650000D01*
X58233200Y-20650000D02*
X57715000Y-20650000D01*
X18300400Y-9778400D02*
X18013900Y-9778400D01*
X43715000Y-20309700D02*
X43715000Y-20650000D01*
X10870000Y-7308300D02*
X10735900Y-7308300D01*
X37855200Y-28557300D02*
X36912500Y-29500000D01*
X10000000Y-14722700D02*
X11606100Y-14722700D01*
X16110000Y-18475000D02*
X18285000Y-20650000D01*
X29715000Y-20650000D02*
X28445000Y-20650000D01*
X7457600Y-3450000D02*
X6862500Y-3450000D01*
X52856300Y-17742400D02*
X54340600Y-19226700D01*
X24950000Y-1526600D02*
X31976600Y-1526600D01*
X33555000Y-10788700D02*
X32652800Y-9886500D01*
X58330000Y-29500000D02*
X57912500Y-29500000D01*
X9798300Y-6370700D02*
X9798300Y-5790700D01*
X15439600Y-989600D02*
X6233800Y-989600D01*
X17923400Y-1526600D02*
X16950000Y-2500000D01*
X10000000Y-17222700D02*
X7199600Y-17222700D01*
X61670000Y-26160000D02*
X61670000Y-24086800D01*
X27175000Y-20650000D02*
X25905000Y-20650000D01*
X10735900Y-7308300D02*
X9798300Y-6370700D01*
X61670000Y-26160000D02*
X58330000Y-29500000D01*
X12842300Y-19708400D02*
X13810000Y-18740700D01*
X56950000Y-2372800D02*
X56950000Y-2500000D01*
X19555000Y-11350000D02*
X19555000Y-11033000D01*
X13810000Y-18740700D02*
X13810000Y-18475000D01*
X9798300Y-5790700D02*
X7457600Y-3450000D01*
X42233200Y-1216800D02*
X55794000Y-1216800D01*
X54340600Y-19343600D02*
X54593800Y-19596800D01*
X32285000Y-20650000D02*
X29715000Y-20650000D01*
X16950000Y-2500000D02*
X15439600Y-989600D01*
X12540000Y-13788800D02*
X12540000Y-13525000D01*
X56733700Y-2500000D02*
X55730800Y-3502900D01*
%TO.N,/DBUS_OE_N*%
X45160000Y-6401500D02*
X45160000Y-5509700D01*
X47555000Y-10611600D02*
X46986700Y-10043300D01*
X10137800Y-4450300D02*
X9137500Y-3450000D01*
X10731000Y-4450300D02*
X10137800Y-4450300D01*
X44365700Y-4715400D02*
X29472000Y-4715400D01*
X47555000Y-11350000D02*
X47555000Y-10611600D01*
X45160000Y-5509700D02*
X44365700Y-4715400D01*
%TO.N,+3V3*%
X39050000Y-3503300D02*
X44165500Y-3503300D01*
X15523100Y-1550000D02*
X9137500Y-1550000D01*
X15798100Y-2770000D02*
X15798100Y-1825000D01*
X42118300Y-10088800D02*
X45023800Y-10088800D01*
X20773600Y-7110000D02*
X21279500Y-7110000D01*
X44165500Y-3503300D02*
X46125800Y-1543000D01*
X16475800Y-3447700D02*
X15798100Y-2770000D01*
X46125800Y-1543000D02*
X54093000Y-1543000D01*
X22736400Y-12288400D02*
X22736400Y-10429300D01*
X23050000Y-3447700D02*
X19725900Y-3447700D01*
X23054600Y-12606600D02*
X22736400Y-12288400D01*
X19789800Y-6126200D02*
X20773600Y-7110000D01*
X59757100Y-13778800D02*
X60400000Y-13135900D01*
X41789200Y-12316000D02*
X41789200Y-10417900D01*
X18285000Y-11641800D02*
X18285000Y-11350000D01*
X32053300Y-3503300D02*
X31050000Y-2500000D01*
X32285000Y-11350000D02*
X32285000Y-11709200D01*
X22409700Y-8843100D02*
X23940900Y-10374300D01*
X19266800Y-12623600D02*
X18285000Y-11641800D01*
X20197900Y-10365700D02*
X20197900Y-12272100D01*
X32285000Y-11709200D02*
X33243700Y-12667900D01*
X41789200Y-10417900D02*
X42118300Y-10088800D01*
X22409700Y-8240200D02*
X22409700Y-8843100D01*
X45023800Y-10088800D02*
X46285000Y-11350000D01*
X39050000Y-3503300D02*
X32053300Y-3503300D01*
X23675100Y-12606600D02*
X23054600Y-12606600D01*
X15798100Y-1825000D02*
X15523100Y-1550000D01*
X20197900Y-12272100D02*
X19846400Y-12623600D01*
X30102300Y-3447700D02*
X23050000Y-3447700D01*
X23050000Y-2500000D02*
X23050000Y-3447700D01*
X54093000Y-1543000D02*
X55050000Y-2500000D01*
X22409200Y-10102100D02*
X20461500Y-10102100D01*
X56000000Y-2165600D02*
X55384400Y-2165600D01*
X41789200Y-12316000D02*
X43252000Y-13778800D01*
X31050000Y-2500000D02*
X30102300Y-3447700D01*
X23940900Y-10374300D02*
X23940900Y-12340800D01*
X20461500Y-10102100D02*
X20197900Y-10365700D01*
X19789800Y-4878600D02*
X19789800Y-6126200D01*
X33243700Y-12667900D02*
X41437300Y-12667900D01*
X55384400Y-2165600D02*
X55050000Y-2500000D01*
X19725900Y-3447700D02*
X16475800Y-3447700D01*
X19725900Y-3447700D02*
X19725900Y-3423200D01*
X23940900Y-12340800D02*
X23675100Y-12606600D01*
X21279500Y-7110000D02*
X22409700Y-8240200D01*
X41437300Y-12667900D02*
X41789200Y-12316000D01*
X43252000Y-13778800D02*
X59757100Y-13778800D01*
X19846400Y-12623600D02*
X19266800Y-12623600D01*
X39050000Y-2500000D02*
X39050000Y-3503300D01*
X22736400Y-10429300D02*
X22409200Y-10102100D01*
%TO.N,/F_CSYNC*%
X11007100Y-27858900D02*
X9600000Y-26451800D01*
X8832400Y-25088300D02*
X4718300Y-25088300D01*
X4718300Y-25088300D02*
X4718300Y-24900800D01*
X27508900Y-30438800D02*
X24929000Y-27858900D01*
X4718300Y-27130800D02*
X4718300Y-25088300D01*
X9600000Y-25855900D02*
X8832400Y-25088300D01*
X24929000Y-27858900D02*
X11007100Y-27858900D01*
X35087500Y-29500000D02*
X34148700Y-30438800D01*
X7087500Y-29500000D02*
X4718300Y-27130800D01*
X34148700Y-30438800D02*
X27508900Y-30438800D01*
X9600000Y-26451800D02*
X9600000Y-25855900D01*
%TO.N,/F_LUM1*%
X17820300Y-30809000D02*
X20063000Y-28566300D01*
X6861700Y-26294100D02*
X8738200Y-28170600D01*
X21540200Y-28566300D02*
X21890300Y-28916400D01*
X6861700Y-26160000D02*
X6861700Y-26294100D01*
X8738200Y-28170600D02*
X12758100Y-28170600D01*
X35511000Y-31067300D02*
X35879500Y-30698800D01*
X8172900Y-28735900D02*
X8172900Y-30174300D01*
X21890300Y-28916400D02*
X21890300Y-29860300D01*
X12758100Y-28170600D02*
X14087500Y-29500000D01*
X25091500Y-31067300D02*
X35511000Y-31067300D01*
X35879500Y-30698800D02*
X40888700Y-30698800D01*
X8172900Y-30174300D02*
X8807600Y-30809000D01*
X22780500Y-30750500D02*
X24774700Y-30750500D01*
X5790000Y-26160000D02*
X6861700Y-26160000D01*
X21890300Y-29860300D02*
X22780500Y-30750500D01*
X40888700Y-30698800D02*
X42087500Y-29500000D01*
X24774700Y-30750500D02*
X25091500Y-31067300D01*
X8738200Y-28170600D02*
X8172900Y-28735900D01*
X20063000Y-28566300D02*
X21540200Y-28566300D01*
X8807600Y-30809000D02*
X17820300Y-30809000D01*
%TO.N,/VIDEO_SUM*%
X22411000Y-28998500D02*
X22411000Y-28557600D01*
X9473800Y-29878700D02*
X9382500Y-29970000D01*
X14342600Y-30452400D02*
X14341100Y-30450900D01*
X35830500Y-28832700D02*
X35565900Y-28568100D01*
X22411000Y-28557600D02*
X22058000Y-28204600D01*
X19646400Y-28387100D02*
X19646400Y-28516300D01*
X22058000Y-28204600D02*
X19828900Y-28204600D01*
X10267600Y-30450900D02*
X10267600Y-30414200D01*
X9382500Y-29970000D02*
X8912500Y-29500000D01*
X30844400Y-28568100D02*
X29912500Y-29500000D01*
X23549400Y-29954400D02*
X23458200Y-30045600D01*
X19646400Y-28516300D02*
X16896200Y-28516300D01*
X63974900Y-30437600D02*
X54481800Y-30437600D01*
X15912500Y-29500000D02*
X14960100Y-30452400D01*
X19828900Y-28204600D02*
X19646400Y-28387100D01*
X35830500Y-28832700D02*
X35830500Y-30186500D01*
X64912500Y-29500000D02*
X63974900Y-30437600D01*
X24292200Y-30438800D02*
X23807800Y-29954400D01*
X36453100Y-28210100D02*
X35830500Y-28832700D01*
X16896200Y-28516300D02*
X15912500Y-29500000D01*
X24910800Y-30438800D02*
X24292200Y-30438800D01*
X14960100Y-30452400D02*
X14342600Y-30452400D01*
X22912500Y-29500000D02*
X22411000Y-28998500D01*
X10267600Y-30414200D02*
X10176600Y-30323200D01*
X35266500Y-30750500D02*
X25222500Y-30750500D01*
X52254300Y-28210100D02*
X36453100Y-28210100D01*
X35565900Y-28568100D02*
X30844400Y-28568100D01*
X54481800Y-30437600D02*
X52254300Y-28210100D01*
X23458200Y-30045600D02*
X22912500Y-29500000D01*
X9732200Y-29878700D02*
X9473800Y-29878700D01*
X35830500Y-30186500D02*
X35266500Y-30750500D01*
X25222500Y-30750500D02*
X24910800Y-30438800D01*
X14341100Y-30450900D02*
X10267600Y-30450900D01*
X10176600Y-30323200D02*
X10176600Y-30323100D01*
X10176600Y-30323100D02*
X9732200Y-29878700D01*
X23807800Y-29954400D02*
X23549400Y-29954400D01*
%TO.N,+5V*%
X15634800Y-3944900D02*
X15371700Y-3681800D01*
X56431800Y-3675100D02*
X55999500Y-3675100D01*
X29063800Y-3944900D02*
X15634800Y-3944900D01*
X29185300Y-3823400D02*
X29063800Y-3944900D01*
X8411300Y-12290200D02*
X10664800Y-12290200D01*
X55851200Y-3823400D02*
X47050000Y-3823400D01*
X55999500Y-3675100D02*
X55851200Y-3823400D01*
X6190000Y-13525000D02*
X7460000Y-13525000D01*
X7460000Y-13241500D02*
X8411300Y-12290200D01*
X15371700Y-2821700D02*
X15050000Y-2500000D01*
X7460000Y-13525000D02*
X7460000Y-13241500D01*
X57860000Y-5103300D02*
X56431800Y-3675100D01*
X10664800Y-12919800D02*
X11270000Y-13525000D01*
X47050000Y-3823400D02*
X29185300Y-3823400D01*
X10664800Y-12290200D02*
X10664800Y-12919800D01*
X57860000Y-7110000D02*
X57860000Y-5103300D01*
X59130000Y-8380000D02*
X57860000Y-7110000D01*
X15371700Y-3681800D02*
X15371700Y-2821700D01*
X47050000Y-2500000D02*
X47050000Y-3823400D01*
%TO.N,/F_LUM0*%
X28650000Y-28937500D02*
X28087500Y-29500000D01*
X54485900Y-27898400D02*
X28650000Y-27898400D01*
X28650000Y-26160000D02*
X28650000Y-27898400D01*
X28650000Y-27898400D02*
X28650000Y-28937500D01*
X56087500Y-29500000D02*
X54485900Y-27898400D01*
%TO.N,/F_D1*%
X52581700Y-23176000D02*
X51949900Y-22544200D01*
X51949900Y-22544200D02*
X50433000Y-22544200D01*
X52581700Y-25088300D02*
X52581700Y-23176000D01*
X51510000Y-26160000D02*
X52581700Y-25088300D01*
X50433000Y-22544200D02*
X48825000Y-20936200D01*
X48825000Y-20936200D02*
X48825000Y-20650000D01*
%TO.N,/F_D3*%
X51365000Y-21517600D02*
X51365000Y-20650000D01*
X54050000Y-26160000D02*
X52965800Y-25075800D01*
X52965800Y-25075800D02*
X52965800Y-23118400D01*
X52965800Y-23118400D02*
X51365000Y-21517600D01*
%TO.N,/F_D5*%
X53905000Y-20650000D02*
X53905000Y-21800600D01*
X53905000Y-21800600D02*
X55429800Y-23325400D01*
X58036300Y-25066300D02*
X59130000Y-26160000D01*
X55429800Y-24014600D02*
X56481500Y-25066300D01*
X56481500Y-25066300D02*
X58036300Y-25066300D01*
X55429800Y-23325400D02*
X55429800Y-24014600D01*
%TO.N,/TIA_CS0_N*%
X19913800Y-24032200D02*
X20949500Y-25067900D01*
X19555000Y-20650000D02*
X19913800Y-21008800D01*
X20949500Y-25067900D02*
X50062100Y-25067900D01*
X50062100Y-25067900D02*
X51510000Y-23620000D01*
X19913800Y-21008800D02*
X19913800Y-24032200D01*
%TO.N,/TIA_CS3_N*%
X57120700Y-22548300D02*
X56729900Y-22548300D01*
X56729900Y-22548300D02*
X55830200Y-21648600D01*
X59130000Y-23620000D02*
X58058300Y-23620000D01*
X58058300Y-23485900D02*
X57120700Y-22548300D01*
X55830200Y-19357500D02*
X53903400Y-17430700D01*
X23732800Y-17430700D02*
X20825000Y-20338500D01*
X53903400Y-17430700D02*
X23732800Y-17430700D01*
X58058300Y-23620000D02*
X58058300Y-23485900D01*
X55830200Y-21648600D02*
X55830200Y-19357500D01*
X20825000Y-20338500D02*
X20825000Y-20650000D01*
%TO.N,/TIA_I4*%
X21030000Y-23620000D02*
X22095000Y-22555000D01*
X22095000Y-22555000D02*
X22095000Y-20650000D01*
%TO.N,/TIA_I5*%
X23570000Y-23620000D02*
X23365000Y-23415000D01*
X23365000Y-23415000D02*
X23365000Y-20650000D01*
%TO.N,/TIA_OSC*%
X24635000Y-19182300D02*
X24635000Y-20650000D01*
%TO.N,/F_OSC*%
X24731000Y-13247000D02*
X25905000Y-12073000D01*
X17061600Y-12191300D02*
X18117300Y-13247000D01*
X18117300Y-13247000D02*
X24731000Y-13247000D01*
X17061600Y-7971800D02*
X17061600Y-12191300D01*
X13410000Y-5840000D02*
X14680000Y-7110000D01*
X16199800Y-7110000D02*
X17061600Y-7971800D01*
X14680000Y-7110000D02*
X16199800Y-7110000D01*
X25905000Y-12073000D02*
X25905000Y-11350000D01*
%TO.N,/F_I5*%
X24686200Y-6956200D02*
X23570000Y-5840000D01*
X24686200Y-11298800D02*
X24686200Y-6956200D01*
X24635000Y-11350000D02*
X24686200Y-11298800D01*
%TO.N,/F_I4*%
X22213500Y-9465500D02*
X20547700Y-9465500D01*
X19760000Y-8677800D02*
X19760000Y-7110000D01*
X23365000Y-10617000D02*
X22213500Y-9465500D01*
X20547700Y-9465500D02*
X19760000Y-8677800D01*
X23365000Y-11350000D02*
X23365000Y-10617000D01*
X19760000Y-7110000D02*
X18490000Y-5840000D01*
%TO.N,/F_RW*%
X46285000Y-20650000D02*
X46285000Y-20219900D01*
X42445000Y-11721500D02*
X43424100Y-12700600D01*
X46285000Y-20219900D02*
X48240700Y-18264200D01*
X43424100Y-12700600D02*
X52114300Y-12700600D01*
X48240700Y-18264200D02*
X52614700Y-18264200D01*
X42445000Y-11350000D02*
X42445000Y-11721500D01*
%TO.N,/F_D0*%
X47555000Y-20650000D02*
X48032400Y-20172600D01*
X48032400Y-20172600D02*
X48032400Y-19276400D01*
%TO.N,/F_D2*%
X50558400Y-20186600D02*
X50558400Y-19247700D01*
X50095000Y-20650000D02*
X50558400Y-20186600D01*
%TO.N,/F_D4*%
X52635000Y-20650000D02*
X53106200Y-20178800D01*
X53106200Y-20178800D02*
X53106200Y-19264800D01*
%TO.N,/F_D6*%
X55175000Y-20650000D02*
X55175000Y-19440200D01*
X55175000Y-19440200D02*
X54862300Y-19127500D01*
%TO.N,/F_D7*%
X27380100Y-8671600D02*
X27380100Y-7110100D01*
X56445000Y-20650000D02*
X56445000Y-19531400D01*
X27380100Y-7110100D02*
X26110000Y-5840000D01*
X28448000Y-9739500D02*
X27380100Y-8671600D01*
X56445000Y-19531400D02*
X53846800Y-16933200D01*
X53846800Y-16933200D02*
X35813300Y-16933200D01*
X29680300Y-9739500D02*
X28448000Y-9739500D01*
X30825000Y-10884200D02*
X29680300Y-9739500D01*
X30825000Y-11944900D02*
X30825000Y-10884200D01*
X35813300Y-16933200D02*
X30825000Y-11944900D01*
%TO.N,/TIA_D7*%
X58461400Y-10603600D02*
X57715000Y-11350000D01*
%TO.N,/TIA_D6*%
X56445000Y-11717000D02*
X54906200Y-13255800D01*
X56445000Y-11350000D02*
X56445000Y-11717000D01*
X54906200Y-13255800D02*
X44414400Y-13255800D01*
%TO.N,/TIA_D5*%
X55175000Y-9795000D02*
X55175000Y-11350000D01*
X56590000Y-8380000D02*
X55175000Y-9795000D01*
%TO.N,/TIA_D4*%
X54050000Y-8380000D02*
X53905000Y-8525000D01*
X53905000Y-8525000D02*
X53905000Y-11350000D01*
%TO.N,/TIA_D3*%
X51510000Y-8380000D02*
X52635000Y-9505000D01*
X52635000Y-9505000D02*
X52635000Y-11350000D01*
%TO.N,/TIA_D2*%
X48970000Y-8380000D02*
X51365000Y-10775000D01*
X51365000Y-10775000D02*
X51365000Y-11350000D01*
%TO.N,/TIA_D1*%
X50095000Y-11062400D02*
X50095000Y-11350000D01*
X47412600Y-8380000D02*
X50095000Y-11062400D01*
X46430000Y-8380000D02*
X47412600Y-8380000D01*
%TO.N,/TIA_D0*%
X48825000Y-11001300D02*
X47308200Y-9484500D01*
X48825000Y-11350000D02*
X48825000Y-11001300D01*
X47308200Y-9484500D02*
X44994500Y-9484500D01*
X44994500Y-9484500D02*
X43890000Y-8380000D01*
%TO.N,/F_LUM2*%
X24624900Y-31067300D02*
X24624900Y-31196500D01*
X21087500Y-29500000D02*
X21984300Y-30396800D01*
X20168000Y-30263100D02*
X20324400Y-30263100D01*
X24807400Y-31379000D02*
X35795400Y-31379000D01*
X47520200Y-31067300D02*
X49087500Y-29500000D01*
X21984300Y-30399000D02*
X22318200Y-30732900D01*
X35795400Y-31379000D02*
X36107100Y-31067300D01*
X22318200Y-30732900D02*
X22320400Y-30732900D01*
X36107100Y-31067300D02*
X47520200Y-31067300D01*
X21984300Y-30396800D02*
X21984300Y-30399000D01*
X22320400Y-30732900D02*
X22654800Y-31067300D01*
X20324400Y-30263100D02*
X21087500Y-29500000D01*
X24624900Y-31196500D02*
X24807400Y-31379000D01*
X22654800Y-31067300D02*
X24624900Y-31067300D01*
%TO.N,/F_PHI0*%
X6552300Y-19674100D02*
X5573300Y-19674100D01*
X7460000Y-18766400D02*
X6552300Y-19674100D01*
X7460000Y-18475000D02*
X7460000Y-18766400D01*
%TO.N,/F_RDY*%
X12028100Y-9348400D02*
X12028100Y-6998100D01*
X13066600Y-15081900D02*
X13066600Y-10386900D01*
X11270000Y-16878500D02*
X13066600Y-15081900D01*
X12028100Y-6998100D02*
X10870000Y-5840000D01*
X13066600Y-10386900D02*
X12028100Y-9348400D01*
X11270000Y-18475000D02*
X11270000Y-16878500D01*
%TO.N,/F_COL*%
X33530800Y-14152000D02*
X52842200Y-14152000D01*
X31190000Y-8380000D02*
X31190000Y-11811200D01*
X31190000Y-11811200D02*
X33530800Y-14152000D01*
X63087500Y-24397300D02*
X63087500Y-29500000D01*
X52842200Y-14152000D02*
X63087500Y-24397300D01*
%TO.N,/F_A0*%
X34825000Y-10990700D02*
X32596700Y-8762400D01*
X32596700Y-8762400D02*
X32596700Y-7246700D01*
X32596700Y-7246700D02*
X31190000Y-5840000D01*
X34825000Y-11350000D02*
X34825000Y-10990700D01*
%TO.N,/F_A1*%
X37384200Y-7949100D02*
X37384200Y-8855900D01*
X36390100Y-6955000D02*
X37384200Y-7949100D01*
X34845000Y-6955000D02*
X36390100Y-6955000D01*
X36095000Y-10145100D02*
X36095000Y-11350000D01*
X37384200Y-8855900D02*
X36095000Y-10145100D01*
X33730000Y-5840000D02*
X34845000Y-6955000D01*
%TO.N,/F_A2*%
X37717100Y-10997900D02*
X37717100Y-7287100D01*
X37365000Y-11350000D02*
X37717100Y-10997900D01*
X37717100Y-7287100D02*
X36270000Y-5840000D01*
%TO.N,/F_A3*%
X39921200Y-6951200D02*
X39921200Y-8790500D01*
X38810000Y-5840000D02*
X39921200Y-6951200D01*
X38635000Y-10076700D02*
X38635000Y-11350000D01*
X39921200Y-8790500D02*
X38635000Y-10076700D01*
%TO.N,/F_A4*%
X39905000Y-11350000D02*
X40255500Y-10999500D01*
X40255500Y-6934500D02*
X41350000Y-5840000D01*
X40255500Y-10999500D02*
X40255500Y-6934500D01*
%TO.N,/F_A5*%
X46430000Y-5928900D02*
X46430000Y-5840000D01*
X43706400Y-6982700D02*
X45376200Y-6982700D01*
X42775000Y-8481600D02*
X42775000Y-7914100D01*
X45376200Y-6982700D02*
X46430000Y-5928900D01*
X41175000Y-11350000D02*
X41175000Y-10081600D01*
X42775000Y-7914100D02*
X43706400Y-6982700D01*
X41175000Y-10081600D02*
X42775000Y-8481600D01*
%TO.N,/TIA_PHI0*%
X9229600Y-19783900D02*
X8730000Y-19284300D01*
X8730000Y-19284300D02*
X8730000Y-18475000D01*
%TO.N,/TIA_RDY*%
X15950000Y-12911000D02*
X15950000Y-8380000D01*
X12540000Y-18475000D02*
X12540000Y-16321000D01*
X12540000Y-16321000D02*
X15950000Y-12911000D01*
%TO.N,/TIA_A0*%
X33555000Y-21255000D02*
X33555000Y-20650000D01*
X31190000Y-23620000D02*
X33555000Y-21255000D01*
%TO.N,/TIA_A1*%
X33730000Y-23620000D02*
X34825000Y-22525000D01*
X34825000Y-22525000D02*
X34825000Y-20650000D01*
%TO.N,/TIA_A2*%
X36095000Y-23445000D02*
X36095000Y-20650000D01*
X36270000Y-23620000D02*
X36095000Y-23445000D01*
%TO.N,/TIA_A3*%
X37365000Y-22175000D02*
X37365000Y-20650000D01*
X38810000Y-23620000D02*
X37365000Y-22175000D01*
%TO.N,/TIA_A4*%
X41350000Y-23620000D02*
X41238100Y-23620000D01*
X38635000Y-21016900D02*
X38635000Y-20650000D01*
X41238100Y-23620000D02*
X38635000Y-21016900D01*
%TO.N,/TIA_A5*%
X39905000Y-20650000D02*
X39905000Y-20965500D01*
X41181500Y-22242000D02*
X42512000Y-22242000D01*
X42512000Y-22242000D02*
X43890000Y-23620000D01*
X39905000Y-20965500D02*
X41181500Y-22242000D01*
%TO.N,/TIA_RW*%
X47854000Y-24736000D02*
X45971000Y-24736000D01*
X42677100Y-21930300D02*
X42156600Y-21930300D01*
X45160000Y-23301500D02*
X44140900Y-22282400D01*
X42156600Y-21930300D02*
X41175000Y-20948700D01*
X44140900Y-22282400D02*
X43029200Y-22282400D01*
X41175000Y-20948700D02*
X41175000Y-20650000D01*
X43029200Y-22282400D02*
X42677100Y-21930300D01*
X45971000Y-24736000D02*
X45160000Y-23925000D01*
X48970000Y-23620000D02*
X47854000Y-24736000D01*
X45160000Y-23925000D02*
X45160000Y-23301500D01*
%TO.N,/TIA_PHI2*%
X43426600Y-21930300D02*
X42445000Y-20948700D01*
X44740300Y-21930300D02*
X43426600Y-21930300D01*
X46430000Y-23620000D02*
X44740300Y-21930300D01*
X42445000Y-20948700D02*
X42445000Y-20650000D01*
%TD*%
M02*
