%TF.GenerationSoftware,KiCad,Pcbnew,10.0.4*%
%TF.CreationDate,2026-09-12T00:26:13-03:00*%
%TF.ProjectId,tia-fpga,7469612d-6670-4676-912e-6b696361645f,rev?*%
%TF.SameCoordinates,Original*%
%TF.FileFunction,Legend,Top*%
%TF.FilePolarity,Positive*%
%FSLAX46Y46*%
G04 Gerber Fmt 4.6, Leading zero omitted, Abs format (unit mm)*
G04 Created by KiCad (PCBNEW 10.0.4) date 2026-09-12 00:26:13*
%MOMM*%
%LPD*%
G01*
G04 APERTURE LIST*
G04 Aperture macros list*
%AMRoundRect*
0 Rectangle with rounded corners*
0 $1 Rounding radius*
0 $2 $3 $4 $5 $6 $7 $8 $9 X,Y pos of 4 corners*
0 Add a 4 corners polygon primitive as box body*
4,1,4,$2,$3,$4,$5,$6,$7,$8,$9,$2,$3,0*
0 Add four circle primitives for the rounded corners*
1,1,$1+$1,$2,$3*
1,1,$1+$1,$4,$5*
1,1,$1+$1,$6,$7*
1,1,$1+$1,$8,$9*
0 Add four rect primitives between the rounded corners*
20,1,$1+$1,$2,$3,$4,$5,0*
20,1,$1+$1,$4,$5,$6,$7,0*
20,1,$1+$1,$6,$7,$8,$9,0*
20,1,$1+$1,$8,$9,$2,$3,0*%
G04 Aperture macros list end*
%ADD10C,0.120000*%
%ADD11RoundRect,0.150000X-0.512500X-0.150000X0.512500X-0.150000X0.512500X0.150000X-0.512500X0.150000X0*%
%ADD12RoundRect,0.250000X-0.262500X-0.450000X0.262500X-0.450000X0.262500X0.450000X-0.262500X0.450000X0*%
%ADD13RoundRect,0.250000X-0.250000X-0.475000X0.250000X-0.475000X0.250000X0.475000X-0.250000X0.475000X0*%
%ADD14R,1.700000X1.700000*%
%ADD15C,1.700000*%
%ADD16RoundRect,0.150000X0.150000X-0.875000X0.150000X0.875000X-0.150000X0.875000X-0.150000X-0.875000X0*%
%ADD17RoundRect,0.150000X0.150000X-0.825000X0.150000X0.825000X-0.150000X0.825000X-0.150000X-0.825000X0*%
G04 APERTURE END LIST*
D10*
X7390476Y-2063855D02*
X7390476Y-2711474D01*
X7390476Y-2711474D02*
X7428571Y-2787664D01*
X7428571Y-2787664D02*
X7466666Y-2825760D01*
X7466666Y-2825760D02*
X7542857Y-2863855D01*
X7542857Y-2863855D02*
X7695238Y-2863855D01*
X7695238Y-2863855D02*
X7771428Y-2825760D01*
X7771428Y-2825760D02*
X7809523Y-2787664D01*
X7809523Y-2787664D02*
X7847619Y-2711474D01*
X7847619Y-2711474D02*
X7847619Y-2063855D01*
X8609523Y-2063855D02*
X8228571Y-2063855D01*
X8228571Y-2063855D02*
X8190475Y-2444807D01*
X8190475Y-2444807D02*
X8228571Y-2406712D01*
X8228571Y-2406712D02*
X8304761Y-2368617D01*
X8304761Y-2368617D02*
X8495237Y-2368617D01*
X8495237Y-2368617D02*
X8571428Y-2406712D01*
X8571428Y-2406712D02*
X8609523Y-2444807D01*
X8609523Y-2444807D02*
X8647618Y-2520998D01*
X8647618Y-2520998D02*
X8647618Y-2711474D01*
X8647618Y-2711474D02*
X8609523Y-2787664D01*
X8609523Y-2787664D02*
X8571428Y-2825760D01*
X8571428Y-2825760D02*
X8495237Y-2863855D01*
X8495237Y-2863855D02*
X8304761Y-2863855D01*
X8304761Y-2863855D02*
X8228571Y-2825760D01*
X8228571Y-2825760D02*
X8190475Y-2787664D01*
X38566667Y-29863855D02*
X38300000Y-29482902D01*
X38109524Y-29863855D02*
X38109524Y-29063855D01*
X38109524Y-29063855D02*
X38414286Y-29063855D01*
X38414286Y-29063855D02*
X38490476Y-29101950D01*
X38490476Y-29101950D02*
X38528571Y-29140045D01*
X38528571Y-29140045D02*
X38566667Y-29216236D01*
X38566667Y-29216236D02*
X38566667Y-29330521D01*
X38566667Y-29330521D02*
X38528571Y-29406712D01*
X38528571Y-29406712D02*
X38490476Y-29444807D01*
X38490476Y-29444807D02*
X38414286Y-29482902D01*
X38414286Y-29482902D02*
X38109524Y-29482902D01*
X39290476Y-29063855D02*
X38909524Y-29063855D01*
X38909524Y-29063855D02*
X38871428Y-29444807D01*
X38871428Y-29444807D02*
X38909524Y-29406712D01*
X38909524Y-29406712D02*
X38985714Y-29368617D01*
X38985714Y-29368617D02*
X39176190Y-29368617D01*
X39176190Y-29368617D02*
X39252381Y-29406712D01*
X39252381Y-29406712D02*
X39290476Y-29444807D01*
X39290476Y-29444807D02*
X39328571Y-29520998D01*
X39328571Y-29520998D02*
X39328571Y-29711474D01*
X39328571Y-29711474D02*
X39290476Y-29787664D01*
X39290476Y-29787664D02*
X39252381Y-29825760D01*
X39252381Y-29825760D02*
X39176190Y-29863855D01*
X39176190Y-29863855D02*
X38985714Y-29863855D01*
X38985714Y-29863855D02*
X38909524Y-29825760D01*
X38909524Y-29825760D02*
X38871428Y-29787664D01*
X17566667Y-29863855D02*
X17300000Y-29482902D01*
X17109524Y-29863855D02*
X17109524Y-29063855D01*
X17109524Y-29063855D02*
X17414286Y-29063855D01*
X17414286Y-29063855D02*
X17490476Y-29101950D01*
X17490476Y-29101950D02*
X17528571Y-29140045D01*
X17528571Y-29140045D02*
X17566667Y-29216236D01*
X17566667Y-29216236D02*
X17566667Y-29330521D01*
X17566667Y-29330521D02*
X17528571Y-29406712D01*
X17528571Y-29406712D02*
X17490476Y-29444807D01*
X17490476Y-29444807D02*
X17414286Y-29482902D01*
X17414286Y-29482902D02*
X17109524Y-29482902D01*
X17871428Y-29140045D02*
X17909524Y-29101950D01*
X17909524Y-29101950D02*
X17985714Y-29063855D01*
X17985714Y-29063855D02*
X18176190Y-29063855D01*
X18176190Y-29063855D02*
X18252381Y-29101950D01*
X18252381Y-29101950D02*
X18290476Y-29140045D01*
X18290476Y-29140045D02*
X18328571Y-29216236D01*
X18328571Y-29216236D02*
X18328571Y-29292426D01*
X18328571Y-29292426D02*
X18290476Y-29406712D01*
X18290476Y-29406712D02*
X17833333Y-29863855D01*
X17833333Y-29863855D02*
X18328571Y-29863855D01*
X45566667Y-29863855D02*
X45300000Y-29482902D01*
X45109524Y-29863855D02*
X45109524Y-29063855D01*
X45109524Y-29063855D02*
X45414286Y-29063855D01*
X45414286Y-29063855D02*
X45490476Y-29101950D01*
X45490476Y-29101950D02*
X45528571Y-29140045D01*
X45528571Y-29140045D02*
X45566667Y-29216236D01*
X45566667Y-29216236D02*
X45566667Y-29330521D01*
X45566667Y-29330521D02*
X45528571Y-29406712D01*
X45528571Y-29406712D02*
X45490476Y-29444807D01*
X45490476Y-29444807D02*
X45414286Y-29482902D01*
X45414286Y-29482902D02*
X45109524Y-29482902D01*
X46252381Y-29063855D02*
X46100000Y-29063855D01*
X46100000Y-29063855D02*
X46023809Y-29101950D01*
X46023809Y-29101950D02*
X45985714Y-29140045D01*
X45985714Y-29140045D02*
X45909524Y-29254331D01*
X45909524Y-29254331D02*
X45871428Y-29406712D01*
X45871428Y-29406712D02*
X45871428Y-29711474D01*
X45871428Y-29711474D02*
X45909524Y-29787664D01*
X45909524Y-29787664D02*
X45947619Y-29825760D01*
X45947619Y-29825760D02*
X46023809Y-29863855D01*
X46023809Y-29863855D02*
X46176190Y-29863855D01*
X46176190Y-29863855D02*
X46252381Y-29825760D01*
X46252381Y-29825760D02*
X46290476Y-29787664D01*
X46290476Y-29787664D02*
X46328571Y-29711474D01*
X46328571Y-29711474D02*
X46328571Y-29520998D01*
X46328571Y-29520998D02*
X46290476Y-29444807D01*
X46290476Y-29444807D02*
X46252381Y-29406712D01*
X46252381Y-29406712D02*
X46176190Y-29368617D01*
X46176190Y-29368617D02*
X46023809Y-29368617D01*
X46023809Y-29368617D02*
X45947619Y-29406712D01*
X45947619Y-29406712D02*
X45909524Y-29444807D01*
X45909524Y-29444807D02*
X45871428Y-29520998D01*
X34566667Y-2787664D02*
X34528571Y-2825760D01*
X34528571Y-2825760D02*
X34414286Y-2863855D01*
X34414286Y-2863855D02*
X34338095Y-2863855D01*
X34338095Y-2863855D02*
X34223809Y-2825760D01*
X34223809Y-2825760D02*
X34147619Y-2749569D01*
X34147619Y-2749569D02*
X34109524Y-2673379D01*
X34109524Y-2673379D02*
X34071428Y-2520998D01*
X34071428Y-2520998D02*
X34071428Y-2406712D01*
X34071428Y-2406712D02*
X34109524Y-2254331D01*
X34109524Y-2254331D02*
X34147619Y-2178140D01*
X34147619Y-2178140D02*
X34223809Y-2101950D01*
X34223809Y-2101950D02*
X34338095Y-2063855D01*
X34338095Y-2063855D02*
X34414286Y-2063855D01*
X34414286Y-2063855D02*
X34528571Y-2101950D01*
X34528571Y-2101950D02*
X34566667Y-2140045D01*
X34833333Y-2063855D02*
X35328571Y-2063855D01*
X35328571Y-2063855D02*
X35061905Y-2368617D01*
X35061905Y-2368617D02*
X35176190Y-2368617D01*
X35176190Y-2368617D02*
X35252381Y-2406712D01*
X35252381Y-2406712D02*
X35290476Y-2444807D01*
X35290476Y-2444807D02*
X35328571Y-2520998D01*
X35328571Y-2520998D02*
X35328571Y-2711474D01*
X35328571Y-2711474D02*
X35290476Y-2787664D01*
X35290476Y-2787664D02*
X35252381Y-2825760D01*
X35252381Y-2825760D02*
X35176190Y-2863855D01*
X35176190Y-2863855D02*
X34947619Y-2863855D01*
X34947619Y-2863855D02*
X34871428Y-2825760D01*
X34871428Y-2825760D02*
X34833333Y-2787664D01*
X18566667Y-2787664D02*
X18528571Y-2825760D01*
X18528571Y-2825760D02*
X18414286Y-2863855D01*
X18414286Y-2863855D02*
X18338095Y-2863855D01*
X18338095Y-2863855D02*
X18223809Y-2825760D01*
X18223809Y-2825760D02*
X18147619Y-2749569D01*
X18147619Y-2749569D02*
X18109524Y-2673379D01*
X18109524Y-2673379D02*
X18071428Y-2520998D01*
X18071428Y-2520998D02*
X18071428Y-2406712D01*
X18071428Y-2406712D02*
X18109524Y-2254331D01*
X18109524Y-2254331D02*
X18147619Y-2178140D01*
X18147619Y-2178140D02*
X18223809Y-2101950D01*
X18223809Y-2101950D02*
X18338095Y-2063855D01*
X18338095Y-2063855D02*
X18414286Y-2063855D01*
X18414286Y-2063855D02*
X18528571Y-2101950D01*
X18528571Y-2101950D02*
X18566667Y-2140045D01*
X19328571Y-2863855D02*
X18871428Y-2863855D01*
X19100000Y-2863855D02*
X19100000Y-2063855D01*
X19100000Y-2063855D02*
X19023809Y-2178140D01*
X19023809Y-2178140D02*
X18947619Y-2254331D01*
X18947619Y-2254331D02*
X18871428Y-2292426D01*
X26566667Y-2787664D02*
X26528571Y-2825760D01*
X26528571Y-2825760D02*
X26414286Y-2863855D01*
X26414286Y-2863855D02*
X26338095Y-2863855D01*
X26338095Y-2863855D02*
X26223809Y-2825760D01*
X26223809Y-2825760D02*
X26147619Y-2749569D01*
X26147619Y-2749569D02*
X26109524Y-2673379D01*
X26109524Y-2673379D02*
X26071428Y-2520998D01*
X26071428Y-2520998D02*
X26071428Y-2406712D01*
X26071428Y-2406712D02*
X26109524Y-2254331D01*
X26109524Y-2254331D02*
X26147619Y-2178140D01*
X26147619Y-2178140D02*
X26223809Y-2101950D01*
X26223809Y-2101950D02*
X26338095Y-2063855D01*
X26338095Y-2063855D02*
X26414286Y-2063855D01*
X26414286Y-2063855D02*
X26528571Y-2101950D01*
X26528571Y-2101950D02*
X26566667Y-2140045D01*
X26871428Y-2140045D02*
X26909524Y-2101950D01*
X26909524Y-2101950D02*
X26985714Y-2063855D01*
X26985714Y-2063855D02*
X27176190Y-2063855D01*
X27176190Y-2063855D02*
X27252381Y-2101950D01*
X27252381Y-2101950D02*
X27290476Y-2140045D01*
X27290476Y-2140045D02*
X27328571Y-2216236D01*
X27328571Y-2216236D02*
X27328571Y-2292426D01*
X27328571Y-2292426D02*
X27290476Y-2406712D01*
X27290476Y-2406712D02*
X26833333Y-2863855D01*
X26833333Y-2863855D02*
X27328571Y-2863855D01*
X50566667Y-2787664D02*
X50528571Y-2825760D01*
X50528571Y-2825760D02*
X50414286Y-2863855D01*
X50414286Y-2863855D02*
X50338095Y-2863855D01*
X50338095Y-2863855D02*
X50223809Y-2825760D01*
X50223809Y-2825760D02*
X50147619Y-2749569D01*
X50147619Y-2749569D02*
X50109524Y-2673379D01*
X50109524Y-2673379D02*
X50071428Y-2520998D01*
X50071428Y-2520998D02*
X50071428Y-2406712D01*
X50071428Y-2406712D02*
X50109524Y-2254331D01*
X50109524Y-2254331D02*
X50147619Y-2178140D01*
X50147619Y-2178140D02*
X50223809Y-2101950D01*
X50223809Y-2101950D02*
X50338095Y-2063855D01*
X50338095Y-2063855D02*
X50414286Y-2063855D01*
X50414286Y-2063855D02*
X50528571Y-2101950D01*
X50528571Y-2101950D02*
X50566667Y-2140045D01*
X51290476Y-2063855D02*
X50909524Y-2063855D01*
X50909524Y-2063855D02*
X50871428Y-2444807D01*
X50871428Y-2444807D02*
X50909524Y-2406712D01*
X50909524Y-2406712D02*
X50985714Y-2368617D01*
X50985714Y-2368617D02*
X51176190Y-2368617D01*
X51176190Y-2368617D02*
X51252381Y-2406712D01*
X51252381Y-2406712D02*
X51290476Y-2444807D01*
X51290476Y-2444807D02*
X51328571Y-2520998D01*
X51328571Y-2520998D02*
X51328571Y-2711474D01*
X51328571Y-2711474D02*
X51290476Y-2787664D01*
X51290476Y-2787664D02*
X51252381Y-2825760D01*
X51252381Y-2825760D02*
X51176190Y-2863855D01*
X51176190Y-2863855D02*
X50985714Y-2863855D01*
X50985714Y-2863855D02*
X50909524Y-2825760D01*
X50909524Y-2825760D02*
X50871428Y-2787664D01*
X23563855Y-16609523D02*
X24211474Y-16609523D01*
X24211474Y-16609523D02*
X24287664Y-16571428D01*
X24287664Y-16571428D02*
X24325760Y-16533333D01*
X24325760Y-16533333D02*
X24363855Y-16457142D01*
X24363855Y-16457142D02*
X24363855Y-16304761D01*
X24363855Y-16304761D02*
X24325760Y-16228571D01*
X24325760Y-16228571D02*
X24287664Y-16190476D01*
X24287664Y-16190476D02*
X24211474Y-16152380D01*
X24211474Y-16152380D02*
X23563855Y-16152380D01*
X23830521Y-15428571D02*
X24363855Y-15428571D01*
X23525760Y-15619047D02*
X24097188Y-15809524D01*
X24097188Y-15809524D02*
X24097188Y-15314285D01*
X31566667Y-29863855D02*
X31300000Y-29482902D01*
X31109524Y-29863855D02*
X31109524Y-29063855D01*
X31109524Y-29063855D02*
X31414286Y-29063855D01*
X31414286Y-29063855D02*
X31490476Y-29101950D01*
X31490476Y-29101950D02*
X31528571Y-29140045D01*
X31528571Y-29140045D02*
X31566667Y-29216236D01*
X31566667Y-29216236D02*
X31566667Y-29330521D01*
X31566667Y-29330521D02*
X31528571Y-29406712D01*
X31528571Y-29406712D02*
X31490476Y-29444807D01*
X31490476Y-29444807D02*
X31414286Y-29482902D01*
X31414286Y-29482902D02*
X31109524Y-29482902D01*
X32252381Y-29330521D02*
X32252381Y-29863855D01*
X32061905Y-29025760D02*
X31871428Y-29597188D01*
X31871428Y-29597188D02*
X32366667Y-29597188D01*
X51563855Y-16609523D02*
X52211474Y-16609523D01*
X52211474Y-16609523D02*
X52287664Y-16571428D01*
X52287664Y-16571428D02*
X52325760Y-16533333D01*
X52325760Y-16533333D02*
X52363855Y-16457142D01*
X52363855Y-16457142D02*
X52363855Y-16304761D01*
X52363855Y-16304761D02*
X52325760Y-16228571D01*
X52325760Y-16228571D02*
X52287664Y-16190476D01*
X52287664Y-16190476D02*
X52211474Y-16152380D01*
X52211474Y-16152380D02*
X51563855Y-16152380D01*
X51640045Y-15809524D02*
X51601950Y-15771428D01*
X51601950Y-15771428D02*
X51563855Y-15695238D01*
X51563855Y-15695238D02*
X51563855Y-15504762D01*
X51563855Y-15504762D02*
X51601950Y-15428571D01*
X51601950Y-15428571D02*
X51640045Y-15390476D01*
X51640045Y-15390476D02*
X51716236Y-15352381D01*
X51716236Y-15352381D02*
X51792426Y-15352381D01*
X51792426Y-15352381D02*
X51906712Y-15390476D01*
X51906712Y-15390476D02*
X52363855Y-15847619D01*
X52363855Y-15847619D02*
X52363855Y-15352381D01*
X58566667Y-2787664D02*
X58528571Y-2825760D01*
X58528571Y-2825760D02*
X58414286Y-2863855D01*
X58414286Y-2863855D02*
X58338095Y-2863855D01*
X58338095Y-2863855D02*
X58223809Y-2825760D01*
X58223809Y-2825760D02*
X58147619Y-2749569D01*
X58147619Y-2749569D02*
X58109524Y-2673379D01*
X58109524Y-2673379D02*
X58071428Y-2520998D01*
X58071428Y-2520998D02*
X58071428Y-2406712D01*
X58071428Y-2406712D02*
X58109524Y-2254331D01*
X58109524Y-2254331D02*
X58147619Y-2178140D01*
X58147619Y-2178140D02*
X58223809Y-2101950D01*
X58223809Y-2101950D02*
X58338095Y-2063855D01*
X58338095Y-2063855D02*
X58414286Y-2063855D01*
X58414286Y-2063855D02*
X58528571Y-2101950D01*
X58528571Y-2101950D02*
X58566667Y-2140045D01*
X59252381Y-2063855D02*
X59100000Y-2063855D01*
X59100000Y-2063855D02*
X59023809Y-2101950D01*
X59023809Y-2101950D02*
X58985714Y-2140045D01*
X58985714Y-2140045D02*
X58909524Y-2254331D01*
X58909524Y-2254331D02*
X58871428Y-2406712D01*
X58871428Y-2406712D02*
X58871428Y-2711474D01*
X58871428Y-2711474D02*
X58909524Y-2787664D01*
X58909524Y-2787664D02*
X58947619Y-2825760D01*
X58947619Y-2825760D02*
X59023809Y-2863855D01*
X59023809Y-2863855D02*
X59176190Y-2863855D01*
X59176190Y-2863855D02*
X59252381Y-2825760D01*
X59252381Y-2825760D02*
X59290476Y-2787664D01*
X59290476Y-2787664D02*
X59328571Y-2711474D01*
X59328571Y-2711474D02*
X59328571Y-2520998D01*
X59328571Y-2520998D02*
X59290476Y-2444807D01*
X59290476Y-2444807D02*
X59252381Y-2406712D01*
X59252381Y-2406712D02*
X59176190Y-2368617D01*
X59176190Y-2368617D02*
X59023809Y-2368617D01*
X59023809Y-2368617D02*
X58947619Y-2406712D01*
X58947619Y-2406712D02*
X58909524Y-2444807D01*
X58909524Y-2444807D02*
X58871428Y-2520998D01*
X42566667Y-2787664D02*
X42528571Y-2825760D01*
X42528571Y-2825760D02*
X42414286Y-2863855D01*
X42414286Y-2863855D02*
X42338095Y-2863855D01*
X42338095Y-2863855D02*
X42223809Y-2825760D01*
X42223809Y-2825760D02*
X42147619Y-2749569D01*
X42147619Y-2749569D02*
X42109524Y-2673379D01*
X42109524Y-2673379D02*
X42071428Y-2520998D01*
X42071428Y-2520998D02*
X42071428Y-2406712D01*
X42071428Y-2406712D02*
X42109524Y-2254331D01*
X42109524Y-2254331D02*
X42147619Y-2178140D01*
X42147619Y-2178140D02*
X42223809Y-2101950D01*
X42223809Y-2101950D02*
X42338095Y-2063855D01*
X42338095Y-2063855D02*
X42414286Y-2063855D01*
X42414286Y-2063855D02*
X42528571Y-2101950D01*
X42528571Y-2101950D02*
X42566667Y-2140045D01*
X43252381Y-2330521D02*
X43252381Y-2863855D01*
X43061905Y-2025760D02*
X42871428Y-2597188D01*
X42871428Y-2597188D02*
X43366667Y-2597188D01*
X59566667Y-29863855D02*
X59300000Y-29482902D01*
X59109524Y-29863855D02*
X59109524Y-29063855D01*
X59109524Y-29063855D02*
X59414286Y-29063855D01*
X59414286Y-29063855D02*
X59490476Y-29101950D01*
X59490476Y-29101950D02*
X59528571Y-29140045D01*
X59528571Y-29140045D02*
X59566667Y-29216236D01*
X59566667Y-29216236D02*
X59566667Y-29330521D01*
X59566667Y-29330521D02*
X59528571Y-29406712D01*
X59528571Y-29406712D02*
X59490476Y-29444807D01*
X59490476Y-29444807D02*
X59414286Y-29482902D01*
X59414286Y-29482902D02*
X59109524Y-29482902D01*
X60023809Y-29406712D02*
X59947619Y-29368617D01*
X59947619Y-29368617D02*
X59909524Y-29330521D01*
X59909524Y-29330521D02*
X59871428Y-29254331D01*
X59871428Y-29254331D02*
X59871428Y-29216236D01*
X59871428Y-29216236D02*
X59909524Y-29140045D01*
X59909524Y-29140045D02*
X59947619Y-29101950D01*
X59947619Y-29101950D02*
X60023809Y-29063855D01*
X60023809Y-29063855D02*
X60176190Y-29063855D01*
X60176190Y-29063855D02*
X60252381Y-29101950D01*
X60252381Y-29101950D02*
X60290476Y-29140045D01*
X60290476Y-29140045D02*
X60328571Y-29216236D01*
X60328571Y-29216236D02*
X60328571Y-29254331D01*
X60328571Y-29254331D02*
X60290476Y-29330521D01*
X60290476Y-29330521D02*
X60252381Y-29368617D01*
X60252381Y-29368617D02*
X60176190Y-29406712D01*
X60176190Y-29406712D02*
X60023809Y-29406712D01*
X60023809Y-29406712D02*
X59947619Y-29444807D01*
X59947619Y-29444807D02*
X59909524Y-29482902D01*
X59909524Y-29482902D02*
X59871428Y-29559093D01*
X59871428Y-29559093D02*
X59871428Y-29711474D01*
X59871428Y-29711474D02*
X59909524Y-29787664D01*
X59909524Y-29787664D02*
X59947619Y-29825760D01*
X59947619Y-29825760D02*
X60023809Y-29863855D01*
X60023809Y-29863855D02*
X60176190Y-29863855D01*
X60176190Y-29863855D02*
X60252381Y-29825760D01*
X60252381Y-29825760D02*
X60290476Y-29787664D01*
X60290476Y-29787664D02*
X60328571Y-29711474D01*
X60328571Y-29711474D02*
X60328571Y-29559093D01*
X60328571Y-29559093D02*
X60290476Y-29482902D01*
X60290476Y-29482902D02*
X60252381Y-29444807D01*
X60252381Y-29444807D02*
X60176190Y-29406712D01*
X52566667Y-29863855D02*
X52300000Y-29482902D01*
X52109524Y-29863855D02*
X52109524Y-29063855D01*
X52109524Y-29063855D02*
X52414286Y-29063855D01*
X52414286Y-29063855D02*
X52490476Y-29101950D01*
X52490476Y-29101950D02*
X52528571Y-29140045D01*
X52528571Y-29140045D02*
X52566667Y-29216236D01*
X52566667Y-29216236D02*
X52566667Y-29330521D01*
X52566667Y-29330521D02*
X52528571Y-29406712D01*
X52528571Y-29406712D02*
X52490476Y-29444807D01*
X52490476Y-29444807D02*
X52414286Y-29482902D01*
X52414286Y-29482902D02*
X52109524Y-29482902D01*
X52833333Y-29063855D02*
X53366667Y-29063855D01*
X53366667Y-29063855D02*
X53023809Y-29863855D01*
X9563855Y-16609523D02*
X10211474Y-16609523D01*
X10211474Y-16609523D02*
X10287664Y-16571428D01*
X10287664Y-16571428D02*
X10325760Y-16533333D01*
X10325760Y-16533333D02*
X10363855Y-16457142D01*
X10363855Y-16457142D02*
X10363855Y-16304761D01*
X10363855Y-16304761D02*
X10325760Y-16228571D01*
X10325760Y-16228571D02*
X10287664Y-16190476D01*
X10287664Y-16190476D02*
X10211474Y-16152380D01*
X10211474Y-16152380D02*
X9563855Y-16152380D01*
X10363855Y-15352381D02*
X10363855Y-15809524D01*
X10363855Y-15580952D02*
X9563855Y-15580952D01*
X9563855Y-15580952D02*
X9678140Y-15657143D01*
X9678140Y-15657143D02*
X9754331Y-15733333D01*
X9754331Y-15733333D02*
X9792426Y-15809524D01*
X10566667Y-29863855D02*
X10300000Y-29482902D01*
X10109524Y-29863855D02*
X10109524Y-29063855D01*
X10109524Y-29063855D02*
X10414286Y-29063855D01*
X10414286Y-29063855D02*
X10490476Y-29101950D01*
X10490476Y-29101950D02*
X10528571Y-29140045D01*
X10528571Y-29140045D02*
X10566667Y-29216236D01*
X10566667Y-29216236D02*
X10566667Y-29330521D01*
X10566667Y-29330521D02*
X10528571Y-29406712D01*
X10528571Y-29406712D02*
X10490476Y-29444807D01*
X10490476Y-29444807D02*
X10414286Y-29482902D01*
X10414286Y-29482902D02*
X10109524Y-29482902D01*
X11328571Y-29863855D02*
X10871428Y-29863855D01*
X11100000Y-29863855D02*
X11100000Y-29063855D01*
X11100000Y-29063855D02*
X11023809Y-29178140D01*
X11023809Y-29178140D02*
X10947619Y-29254331D01*
X10947619Y-29254331D02*
X10871428Y-29292426D01*
X37563855Y-16609523D02*
X38211474Y-16609523D01*
X38211474Y-16609523D02*
X38287664Y-16571428D01*
X38287664Y-16571428D02*
X38325760Y-16533333D01*
X38325760Y-16533333D02*
X38363855Y-16457142D01*
X38363855Y-16457142D02*
X38363855Y-16304761D01*
X38363855Y-16304761D02*
X38325760Y-16228571D01*
X38325760Y-16228571D02*
X38287664Y-16190476D01*
X38287664Y-16190476D02*
X38211474Y-16152380D01*
X38211474Y-16152380D02*
X37563855Y-16152380D01*
X37563855Y-15847619D02*
X37563855Y-15352381D01*
X37563855Y-15352381D02*
X37868617Y-15619047D01*
X37868617Y-15619047D02*
X37868617Y-15504762D01*
X37868617Y-15504762D02*
X37906712Y-15428571D01*
X37906712Y-15428571D02*
X37944807Y-15390476D01*
X37944807Y-15390476D02*
X38020998Y-15352381D01*
X38020998Y-15352381D02*
X38211474Y-15352381D01*
X38211474Y-15352381D02*
X38287664Y-15390476D01*
X38287664Y-15390476D02*
X38325760Y-15428571D01*
X38325760Y-15428571D02*
X38363855Y-15504762D01*
X38363855Y-15504762D02*
X38363855Y-15733333D01*
X38363855Y-15733333D02*
X38325760Y-15809524D01*
X38325760Y-15809524D02*
X38287664Y-15847619D01*
X66566667Y-29863855D02*
X66300000Y-29482902D01*
X66109524Y-29863855D02*
X66109524Y-29063855D01*
X66109524Y-29063855D02*
X66414286Y-29063855D01*
X66414286Y-29063855D02*
X66490476Y-29101950D01*
X66490476Y-29101950D02*
X66528571Y-29140045D01*
X66528571Y-29140045D02*
X66566667Y-29216236D01*
X66566667Y-29216236D02*
X66566667Y-29330521D01*
X66566667Y-29330521D02*
X66528571Y-29406712D01*
X66528571Y-29406712D02*
X66490476Y-29444807D01*
X66490476Y-29444807D02*
X66414286Y-29482902D01*
X66414286Y-29482902D02*
X66109524Y-29482902D01*
X66947619Y-29863855D02*
X67100000Y-29863855D01*
X67100000Y-29863855D02*
X67176190Y-29825760D01*
X67176190Y-29825760D02*
X67214286Y-29787664D01*
X67214286Y-29787664D02*
X67290476Y-29673379D01*
X67290476Y-29673379D02*
X67328571Y-29520998D01*
X67328571Y-29520998D02*
X67328571Y-29216236D01*
X67328571Y-29216236D02*
X67290476Y-29140045D01*
X67290476Y-29140045D02*
X67252381Y-29101950D01*
X67252381Y-29101950D02*
X67176190Y-29063855D01*
X67176190Y-29063855D02*
X67023809Y-29063855D01*
X67023809Y-29063855D02*
X66947619Y-29101950D01*
X66947619Y-29101950D02*
X66909524Y-29140045D01*
X66909524Y-29140045D02*
X66871428Y-29216236D01*
X66871428Y-29216236D02*
X66871428Y-29406712D01*
X66871428Y-29406712D02*
X66909524Y-29482902D01*
X66909524Y-29482902D02*
X66947619Y-29520998D01*
X66947619Y-29520998D02*
X67023809Y-29559093D01*
X67023809Y-29559093D02*
X67176190Y-29559093D01*
X67176190Y-29559093D02*
X67252381Y-29520998D01*
X67252381Y-29520998D02*
X67290476Y-29482902D01*
X67290476Y-29482902D02*
X67328571Y-29406712D01*
X24566667Y-29863855D02*
X24300000Y-29482902D01*
X24109524Y-29863855D02*
X24109524Y-29063855D01*
X24109524Y-29063855D02*
X24414286Y-29063855D01*
X24414286Y-29063855D02*
X24490476Y-29101950D01*
X24490476Y-29101950D02*
X24528571Y-29140045D01*
X24528571Y-29140045D02*
X24566667Y-29216236D01*
X24566667Y-29216236D02*
X24566667Y-29330521D01*
X24566667Y-29330521D02*
X24528571Y-29406712D01*
X24528571Y-29406712D02*
X24490476Y-29444807D01*
X24490476Y-29444807D02*
X24414286Y-29482902D01*
X24414286Y-29482902D02*
X24109524Y-29482902D01*
X24833333Y-29063855D02*
X25328571Y-29063855D01*
X25328571Y-29063855D02*
X25061905Y-29368617D01*
X25061905Y-29368617D02*
X25176190Y-29368617D01*
X25176190Y-29368617D02*
X25252381Y-29406712D01*
X25252381Y-29406712D02*
X25290476Y-29444807D01*
X25290476Y-29444807D02*
X25328571Y-29520998D01*
X25328571Y-29520998D02*
X25328571Y-29711474D01*
X25328571Y-29711474D02*
X25290476Y-29787664D01*
X25290476Y-29787664D02*
X25252381Y-29825760D01*
X25252381Y-29825760D02*
X25176190Y-29863855D01*
X25176190Y-29863855D02*
X24947619Y-29863855D01*
X24947619Y-29863855D02*
X24871428Y-29825760D01*
X24871428Y-29825760D02*
X24833333Y-29787664D01*
%TO.C,U5*%
X7090000Y-940000D02*
X8910000Y-940000D01*
X7090000Y-990000D02*
X7090000Y-940000D01*
X7090000Y-4060000D02*
X7090000Y-4010000D01*
X8910000Y-940000D02*
X8910000Y-990000D01*
X8910000Y-2110000D02*
X8910000Y-2890000D01*
X8910000Y-4010000D02*
X8910000Y-4060000D01*
X8910000Y-4060000D02*
X7090000Y-4060000D01*
X6550000Y-990000D02*
X6310000Y-660000D01*
X6790000Y-660000D01*
X6550000Y-990000D01*
G36*
X6550000Y-990000D02*
G01*
X6310000Y-660000D01*
X6790000Y-660000D01*
X6550000Y-990000D01*
G37*
%TO.C,R5*%
X35772936Y-28765000D02*
X36227064Y-28765000D01*
X35772936Y-30235000D02*
X36227064Y-30235000D01*
%TO.C,R2*%
X14772936Y-28765000D02*
X15227064Y-28765000D01*
X14772936Y-30235000D02*
X15227064Y-30235000D01*
%TO.C,R6*%
X42772936Y-28765000D02*
X43227064Y-28765000D01*
X42772936Y-30235000D02*
X43227064Y-30235000D01*
%TO.C,C3*%
X31738748Y-1765000D02*
X32261252Y-1765000D01*
X31738748Y-3235000D02*
X32261252Y-3235000D01*
%TO.C,C1*%
X15738748Y-1765000D02*
X16261252Y-1765000D01*
X15738748Y-3235000D02*
X16261252Y-3235000D01*
%TO.C,C2*%
X23738748Y-1765000D02*
X24261252Y-1765000D01*
X23738748Y-3235000D02*
X24261252Y-3235000D01*
%TO.C,C5*%
X47738748Y-1765000D02*
X48261252Y-1765000D01*
X47738748Y-3235000D02*
X48261252Y-3235000D01*
%TO.C,J4*%
X4460000Y-24830000D02*
X5790000Y-24830000D01*
X4460000Y-26160000D02*
X4460000Y-24830000D01*
X7060000Y-24830000D02*
X65540000Y-24830000D01*
X7060000Y-27490000D02*
X7060000Y-24830000D01*
X7060000Y-27490000D02*
X65540000Y-27490000D01*
X65540000Y-27490000D02*
X65540000Y-24830000D01*
%TO.C,U4*%
X17490000Y-12140000D02*
X17725000Y-12140000D01*
X17490000Y-19860000D02*
X17490000Y-12140000D01*
X17725000Y-19860000D02*
X17490000Y-19860000D01*
X30275000Y-12140000D02*
X30510000Y-12140000D01*
X30510000Y-12140000D02*
X30510000Y-19860000D01*
X30510000Y-19860000D02*
X30275000Y-19860000D01*
X17720000Y-20650000D02*
X17250000Y-20990000D01*
X17250000Y-20310000D01*
X17720000Y-20650000D01*
G36*
X17720000Y-20650000D02*
G01*
X17250000Y-20990000D01*
X17250000Y-20310000D01*
X17720000Y-20650000D01*
G37*
%TO.C,R4*%
X28772936Y-28765000D02*
X29227064Y-28765000D01*
X28772936Y-30235000D02*
X29227064Y-30235000D01*
%TO.C,U2*%
X45490000Y-12140000D02*
X45725000Y-12140000D01*
X45490000Y-19860000D02*
X45490000Y-12140000D01*
X45725000Y-19860000D02*
X45490000Y-19860000D01*
X58275000Y-12140000D02*
X58510000Y-12140000D01*
X58510000Y-12140000D02*
X58510000Y-19860000D01*
X58510000Y-19860000D02*
X58275000Y-19860000D01*
X45720000Y-20650000D02*
X45250000Y-20990000D01*
X45250000Y-20310000D01*
X45720000Y-20650000D01*
G36*
X45720000Y-20650000D02*
G01*
X45250000Y-20990000D01*
X45250000Y-20310000D01*
X45720000Y-20650000D01*
G37*
%TO.C,C6*%
X55738748Y-1765000D02*
X56261252Y-1765000D01*
X55738748Y-3235000D02*
X56261252Y-3235000D01*
%TO.C,C4*%
X39738748Y-1765000D02*
X40261252Y-1765000D01*
X39738748Y-3235000D02*
X40261252Y-3235000D01*
%TO.C,R8*%
X56772936Y-28765000D02*
X57227064Y-28765000D01*
X56772936Y-30235000D02*
X57227064Y-30235000D01*
%TO.C,R7*%
X49772936Y-28765000D02*
X50227064Y-28765000D01*
X49772936Y-30235000D02*
X50227064Y-30235000D01*
%TO.C,J1*%
X4460000Y-4510000D02*
X5790000Y-4510000D01*
X4460000Y-5840000D02*
X4460000Y-4510000D01*
X7060000Y-4510000D02*
X65540000Y-4510000D01*
X7060000Y-7170000D02*
X7060000Y-4510000D01*
X7060000Y-7170000D02*
X65540000Y-7170000D01*
X65540000Y-7170000D02*
X65540000Y-4510000D01*
%TO.C,U1*%
X5565000Y-13940000D02*
X5630000Y-13940000D01*
X5565000Y-18060000D02*
X5565000Y-13940000D01*
X5630000Y-18060000D02*
X5565000Y-18060000D01*
X14370000Y-13940000D02*
X14435000Y-13940000D01*
X14435000Y-13940000D02*
X14435000Y-18060000D01*
X14435000Y-18060000D02*
X14370000Y-18060000D01*
X5630000Y-18600000D02*
X5300000Y-18840000D01*
X5300000Y-18360000D01*
X5630000Y-18600000D01*
G36*
X5630000Y-18600000D02*
G01*
X5300000Y-18840000D01*
X5300000Y-18360000D01*
X5630000Y-18600000D01*
G37*
%TO.C,R1*%
X7772936Y-28765000D02*
X8227064Y-28765000D01*
X7772936Y-30235000D02*
X8227064Y-30235000D01*
%TO.C,U3*%
X31490000Y-12140000D02*
X31725000Y-12140000D01*
X31490000Y-19860000D02*
X31490000Y-12140000D01*
X31725000Y-19860000D02*
X31490000Y-19860000D01*
X44275000Y-12140000D02*
X44510000Y-12140000D01*
X44510000Y-12140000D02*
X44510000Y-19860000D01*
X44510000Y-19860000D02*
X44275000Y-19860000D01*
X31720000Y-20650000D02*
X31250000Y-20990000D01*
X31250000Y-20310000D01*
X31720000Y-20650000D01*
G36*
X31720000Y-20650000D02*
G01*
X31250000Y-20990000D01*
X31250000Y-20310000D01*
X31720000Y-20650000D01*
G37*
%TO.C,R9*%
X63772936Y-28765000D02*
X64227064Y-28765000D01*
X63772936Y-30235000D02*
X64227064Y-30235000D01*
%TO.C,R3*%
X21772936Y-28765000D02*
X22227064Y-28765000D01*
X21772936Y-30235000D02*
X22227064Y-30235000D01*
%TD*%
%LPC*%
D11*
%TO.C,U5*%
X6862500Y-1550000D03*
X6862500Y-2500000D03*
X6862500Y-3450000D03*
X9137500Y-3450000D03*
X9137500Y-1550000D03*
%TD*%
D12*
%TO.C,R5*%
X35087500Y-29500000D03*
X36912500Y-29500000D03*
%TD*%
%TO.C,R2*%
X14087500Y-29500000D03*
X15912500Y-29500000D03*
%TD*%
%TO.C,R6*%
X42087500Y-29500000D03*
X43912500Y-29500000D03*
%TD*%
D13*
%TO.C,C3*%
X31050000Y-2500000D03*
X32950000Y-2500000D03*
%TD*%
%TO.C,C1*%
X15050000Y-2500000D03*
X16950000Y-2500000D03*
%TD*%
%TO.C,C2*%
X23050000Y-2500000D03*
X24950000Y-2500000D03*
%TD*%
%TO.C,C5*%
X47050000Y-2500000D03*
X48950000Y-2500000D03*
%TD*%
D14*
%TO.C,J4*%
X5790000Y-26160000D03*
D15*
X8330000Y-26160000D03*
X10870000Y-26160000D03*
X13410000Y-26160000D03*
X15950000Y-26160000D03*
X18490000Y-26160000D03*
X21030000Y-26160000D03*
X23570000Y-26160000D03*
X26110000Y-26160000D03*
X28650000Y-26160000D03*
X31190000Y-26160000D03*
X33730000Y-26160000D03*
X36270000Y-26160000D03*
X38810000Y-26160000D03*
X41350000Y-26160000D03*
X43890000Y-26160000D03*
X46430000Y-26160000D03*
X48970000Y-26160000D03*
X51510000Y-26160000D03*
X54050000Y-26160000D03*
X56590000Y-26160000D03*
X59130000Y-26160000D03*
X61670000Y-26160000D03*
X64210000Y-26160000D03*
%TD*%
D16*
%TO.C,U4*%
X18285000Y-20650000D03*
X19555000Y-20650000D03*
X20825000Y-20650000D03*
X22095000Y-20650000D03*
X23365000Y-20650000D03*
X24635000Y-20650000D03*
X25905000Y-20650000D03*
X27175000Y-20650000D03*
X28445000Y-20650000D03*
X29715000Y-20650000D03*
X29715000Y-11350000D03*
X28445000Y-11350000D03*
X27175000Y-11350000D03*
X25905000Y-11350000D03*
X24635000Y-11350000D03*
X23365000Y-11350000D03*
X22095000Y-11350000D03*
X20825000Y-11350000D03*
X19555000Y-11350000D03*
X18285000Y-11350000D03*
%TD*%
D12*
%TO.C,R4*%
X28087500Y-29500000D03*
X29912500Y-29500000D03*
%TD*%
D16*
%TO.C,U2*%
X46285000Y-20650000D03*
X47555000Y-20650000D03*
X48825000Y-20650000D03*
X50095000Y-20650000D03*
X51365000Y-20650000D03*
X52635000Y-20650000D03*
X53905000Y-20650000D03*
X55175000Y-20650000D03*
X56445000Y-20650000D03*
X57715000Y-20650000D03*
X57715000Y-11350000D03*
X56445000Y-11350000D03*
X55175000Y-11350000D03*
X53905000Y-11350000D03*
X52635000Y-11350000D03*
X51365000Y-11350000D03*
X50095000Y-11350000D03*
X48825000Y-11350000D03*
X47555000Y-11350000D03*
X46285000Y-11350000D03*
%TD*%
D13*
%TO.C,C6*%
X55050000Y-2500000D03*
X56950000Y-2500000D03*
%TD*%
%TO.C,C4*%
X39050000Y-2500000D03*
X40950000Y-2500000D03*
%TD*%
D12*
%TO.C,R8*%
X56087500Y-29500000D03*
X57912500Y-29500000D03*
%TD*%
%TO.C,R7*%
X49087500Y-29500000D03*
X50912500Y-29500000D03*
%TD*%
D14*
%TO.C,J1*%
X5790000Y-5840000D03*
D15*
X8330000Y-5840000D03*
X10870000Y-5840000D03*
X13410000Y-5840000D03*
X15950000Y-5840000D03*
X18490000Y-5840000D03*
X21030000Y-5840000D03*
X23570000Y-5840000D03*
X26110000Y-5840000D03*
X28650000Y-5840000D03*
X31190000Y-5840000D03*
X33730000Y-5840000D03*
X36270000Y-5840000D03*
X38810000Y-5840000D03*
X41350000Y-5840000D03*
X43890000Y-5840000D03*
X46430000Y-5840000D03*
X48970000Y-5840000D03*
X51510000Y-5840000D03*
X54050000Y-5840000D03*
X56590000Y-5840000D03*
X59130000Y-5840000D03*
X61670000Y-5840000D03*
X64210000Y-5840000D03*
%TD*%
D17*
%TO.C,U1*%
X6190000Y-18475000D03*
X7460000Y-18475000D03*
X8730000Y-18475000D03*
X10000000Y-18475000D03*
X11270000Y-18475000D03*
X12540000Y-18475000D03*
X13810000Y-18475000D03*
X13810000Y-13525000D03*
X12540000Y-13525000D03*
X11270000Y-13525000D03*
X10000000Y-13525000D03*
X8730000Y-13525000D03*
X7460000Y-13525000D03*
X6190000Y-13525000D03*
%TD*%
D12*
%TO.C,R1*%
X7087500Y-29500000D03*
X8912500Y-29500000D03*
%TD*%
D16*
%TO.C,U3*%
X32285000Y-20650000D03*
X33555000Y-20650000D03*
X34825000Y-20650000D03*
X36095000Y-20650000D03*
X37365000Y-20650000D03*
X38635000Y-20650000D03*
X39905000Y-20650000D03*
X41175000Y-20650000D03*
X42445000Y-20650000D03*
X43715000Y-20650000D03*
X43715000Y-11350000D03*
X42445000Y-11350000D03*
X41175000Y-11350000D03*
X39905000Y-11350000D03*
X38635000Y-11350000D03*
X37365000Y-11350000D03*
X36095000Y-11350000D03*
X34825000Y-11350000D03*
X33555000Y-11350000D03*
X32285000Y-11350000D03*
%TD*%
D12*
%TO.C,R9*%
X63087500Y-29500000D03*
X64912500Y-29500000D03*
%TD*%
%TO.C,R3*%
X21087500Y-29500000D03*
X22912500Y-29500000D03*
%TD*%
D14*
%TO.C,J3*%
X59130000Y-23620000D03*
D15*
X56590000Y-23620000D03*
X54050000Y-23620000D03*
X51510000Y-23620000D03*
X48970000Y-23620000D03*
X46430000Y-23620000D03*
X43890000Y-23620000D03*
X41350000Y-23620000D03*
X38810000Y-23620000D03*
X36270000Y-23620000D03*
X33730000Y-23620000D03*
X31190000Y-23620000D03*
X28650000Y-23620000D03*
X26110000Y-23620000D03*
X23570000Y-23620000D03*
X21030000Y-23620000D03*
X18490000Y-23620000D03*
X15950000Y-23620000D03*
X13410000Y-23620000D03*
X10870000Y-23620000D03*
%TD*%
D14*
%TO.C,J2*%
X10870000Y-8380000D03*
D15*
X13410000Y-8380000D03*
X15950000Y-8380000D03*
X18490000Y-8380000D03*
X21030000Y-8380000D03*
X23570000Y-8380000D03*
X26110000Y-8380000D03*
X28650000Y-8380000D03*
X31190000Y-8380000D03*
X33730000Y-8380000D03*
X36270000Y-8380000D03*
X38810000Y-8380000D03*
X41350000Y-8380000D03*
X43890000Y-8380000D03*
X46430000Y-8380000D03*
X48970000Y-8380000D03*
X51510000Y-8380000D03*
X54050000Y-8380000D03*
X56590000Y-8380000D03*
X59130000Y-8380000D03*
%TD*%
%LPD*%
M02*
