%TF.GenerationSoftware,KiCad,Pcbnew,10.0.4*%
%TF.CreationDate,2026-09-12T00:06:02-03:00*%
%TF.ProjectId,tia-fpga,7469612d-6670-4676-912e-6b696361645f,rev?*%
%TF.SameCoordinates,Original*%
%TF.FileFunction,Soldermask,Bot*%
%TF.FilePolarity,Negative*%
%FSLAX46Y46*%
G04 Gerber Fmt 4.6, Leading zero omitted, Abs format (unit mm)*
G04 Created by KiCad (PCBNEW 10.0.4) date 2026-09-12 00:06:02*
%MOMM*%
%LPD*%
G01*
G04 APERTURE LIST*
%ADD10C,2.200000*%
%ADD11R,1.700000X1.700000*%
%ADD12C,1.700000*%
G04 APERTURE END LIST*
D10*
%TO.C,H4*%
X72000000Y-32000000D03*
%TD*%
%TO.C,H1*%
X4000000Y-4000000D03*
%TD*%
%TO.C,H3*%
X4000000Y-32000000D03*
%TD*%
%TO.C,H2*%
X72000000Y-4000000D03*
%TD*%
D11*
%TO.C,J1*%
X8790000Y-7840000D03*
D12*
X11330000Y-7840000D03*
X13870000Y-7840000D03*
X16410000Y-7840000D03*
X18950000Y-7840000D03*
X21490000Y-7840000D03*
X24030000Y-7840000D03*
X26570000Y-7840000D03*
X29110000Y-7840000D03*
X31650000Y-7840000D03*
X34190000Y-7840000D03*
X36730000Y-7840000D03*
X39270000Y-7840000D03*
X41810000Y-7840000D03*
X44350000Y-7840000D03*
X46890000Y-7840000D03*
X49430000Y-7840000D03*
X51970000Y-7840000D03*
X54510000Y-7840000D03*
X57050000Y-7840000D03*
X59590000Y-7840000D03*
X62130000Y-7840000D03*
X64670000Y-7840000D03*
X67210000Y-7840000D03*
%TD*%
D11*
%TO.C,J4*%
X8790000Y-28160000D03*
D12*
X11330000Y-28160000D03*
X13870000Y-28160000D03*
X16410000Y-28160000D03*
X18950000Y-28160000D03*
X21490000Y-28160000D03*
X24030000Y-28160000D03*
X26570000Y-28160000D03*
X29110000Y-28160000D03*
X31650000Y-28160000D03*
X34190000Y-28160000D03*
X36730000Y-28160000D03*
X39270000Y-28160000D03*
X41810000Y-28160000D03*
X44350000Y-28160000D03*
X46890000Y-28160000D03*
X49430000Y-28160000D03*
X51970000Y-28160000D03*
X54510000Y-28160000D03*
X57050000Y-28160000D03*
X59590000Y-28160000D03*
X62130000Y-28160000D03*
X64670000Y-28160000D03*
X67210000Y-28160000D03*
%TD*%
D11*
%TO.C,J2*%
X13870000Y-10380000D03*
D12*
X16410000Y-10380000D03*
X18950000Y-10380000D03*
X21490000Y-10380000D03*
X24030000Y-10380000D03*
X26570000Y-10380000D03*
X29110000Y-10380000D03*
X31650000Y-10380000D03*
X34190000Y-10380000D03*
X36730000Y-10380000D03*
X39270000Y-10380000D03*
X41810000Y-10380000D03*
X44350000Y-10380000D03*
X46890000Y-10380000D03*
X49430000Y-10380000D03*
X51970000Y-10380000D03*
X54510000Y-10380000D03*
X57050000Y-10380000D03*
X59590000Y-10380000D03*
X62130000Y-10380000D03*
%TD*%
D11*
%TO.C,J3*%
X62130000Y-25620000D03*
D12*
X59590000Y-25620000D03*
X57050000Y-25620000D03*
X54510000Y-25620000D03*
X51970000Y-25620000D03*
X49430000Y-25620000D03*
X46890000Y-25620000D03*
X44350000Y-25620000D03*
X41810000Y-25620000D03*
X39270000Y-25620000D03*
X36730000Y-25620000D03*
X34190000Y-25620000D03*
X31650000Y-25620000D03*
X29110000Y-25620000D03*
X26570000Y-25620000D03*
X24030000Y-25620000D03*
X21490000Y-25620000D03*
X18950000Y-25620000D03*
X16410000Y-25620000D03*
X13870000Y-25620000D03*
%TD*%
M02*
