M48
; DRILL file KiCad 10.0.4 date 2026-09-12T00:06:03
; FORMAT={-:-/ absolute / metric / decimal}
; #@! TF.CreationDate,2026-09-12T00:06:03-03:00
; #@! TF.GenerationSoftware,Kicad,Pcbnew,10.0.4
; #@! TF.FileFunction,MixedPlating,1,2
FMAT,2
METRIC
; #@! TA.AperFunction,Plated,PTH,ViaDrill
T1C0.300
; #@! TA.AperFunction,Plated,PTH,ComponentDrill
T2C1.000
; #@! TA.AperFunction,NonPlated,NPTH,ComponentDrill
T3C2.200
%
G90
G05
T1
X12.669Y-4.641
X13.535Y-23.974
X13.546Y-14.607
X17.468Y-20.78
X18.171Y-19.314
X18.27Y-16.074
X19.52Y-19.317
X19.877Y-24.418
X19.929Y-21.362
X20.364Y-20.057
X21.199Y-21.362
X21.905Y-20.999
X24.042Y-31.196
X24.528Y-14.809
X27.183Y-13.562
X28.159Y-31.732
X29.962Y-11.525
X32.506Y-20.346
X32.699Y-29.046
X33.711Y-15.617
X33.855Y-30.329
X34.009Y-21.376
X35.014Y-11.873
X35.658Y-24.132
X37.505Y-19.799
X37.81Y-23.867
X40.46Y-21.354
X40.46Y-22.993
X40.478Y-18.856
X41.143Y-13.949
X41.2Y-20.019
X41.223Y-13.116
X44.546Y-18.891
X44.898Y-16.976
X45.841Y-16.962
X46.421Y-17.626
X47.489Y-15.559
X47.584Y-27.015
X47.711Y-1.915
X48.272Y-21.183
X48.402Y-2.513
X48.571Y-16.319
X49.763Y-20.873
X53.0Y-3.809
X58.117Y-32.203
X58.732Y-21.902
X63.806Y-19.053
T2
X8.79Y-7.84
X8.79Y-28.16
X11.33Y-7.84
X11.33Y-28.16
X13.87Y-7.84
X13.87Y-10.38
X13.87Y-25.62
X13.87Y-28.16
X16.41Y-7.84
X16.41Y-10.38
X16.41Y-25.62
X16.41Y-28.16
X18.95Y-7.84
X18.95Y-10.38
X18.95Y-25.62
X18.95Y-28.16
X21.49Y-7.84
X21.49Y-10.38
X21.49Y-25.62
X21.49Y-28.16
X24.03Y-7.84
X24.03Y-10.38
X24.03Y-25.62
X24.03Y-28.16
X26.57Y-7.84
X26.57Y-10.38
X26.57Y-25.62
X26.57Y-28.16
X29.11Y-7.84
X29.11Y-10.38
X29.11Y-25.62
X29.11Y-28.16
X31.65Y-7.84
X31.65Y-10.38
X31.65Y-25.62
X31.65Y-28.16
X34.19Y-7.84
X34.19Y-10.38
X34.19Y-25.62
X34.19Y-28.16
X36.73Y-7.84
X36.73Y-10.38
X36.73Y-25.62
X36.73Y-28.16
X39.27Y-7.84
X39.27Y-10.38
X39.27Y-25.62
X39.27Y-28.16
X41.81Y-7.84
X41.81Y-10.38
X41.81Y-25.62
X41.81Y-28.16
X44.35Y-7.84
X44.35Y-10.38
X44.35Y-25.62
X44.35Y-28.16
X46.89Y-7.84
X46.89Y-10.38
X46.89Y-25.62
X46.89Y-28.16
X49.43Y-7.84
X49.43Y-10.38
X49.43Y-25.62
X49.43Y-28.16
X51.97Y-7.84
X51.97Y-10.38
X51.97Y-25.62
X51.97Y-28.16
X54.51Y-7.84
X54.51Y-10.38
X54.51Y-25.62
X54.51Y-28.16
X57.05Y-7.84
X57.05Y-10.38
X57.05Y-25.62
X57.05Y-28.16
X59.59Y-7.84
X59.59Y-10.38
X59.59Y-25.62
X59.59Y-28.16
X62.13Y-7.84
X62.13Y-10.38
X62.13Y-25.62
X62.13Y-28.16
X64.67Y-7.84
X64.67Y-28.16
X67.21Y-7.84
X67.21Y-28.16
T3
X4.0Y-4.0
X4.0Y-32.0
X72.0Y-4.0
X72.0Y-32.0
M30
