%TF.GenerationSoftware,KiCad,Pcbnew,10.0.4*%
%TF.CreationDate,2026-09-14T23:59:08-03:00*%
%TF.ProjectId,tia-fpga,7469612d-6670-4676-912e-6b696361645f,B*%
%TF.SameCoordinates,Original*%
%TF.FileFunction,Copper,L2,Bot*%
%TF.FilePolarity,Positive*%
%FSLAX46Y46*%
G04 Gerber Fmt 4.6, Leading zero omitted, Abs format (unit mm)*
G04 Created by KiCad (PCBNEW 10.0.4) date 2026-09-14 23:59:08*
%MOMM*%
%LPD*%
G01*
G04 APERTURE LIST*
%TA.AperFunction,ComponentPad*%
%ADD10R,1.700000X1.700000*%
%TD*%
%TA.AperFunction,ComponentPad*%
%ADD11C,1.700000*%
%TD*%
%TA.AperFunction,ViaPad*%
%ADD12C,0.600000*%
%TD*%
%TA.AperFunction,Conductor*%
%ADD13C,0.180000*%
%TD*%
G04 APERTURE END LIST*
D10*
%TO.P,J4,1*%
%TO.N,/F_OSC*%
X5790000Y-26160000D03*
D11*
%TO.P,J4,2*%
%TO.N,unconnected-(J4-Pin_2-Pad2)*%
X8330000Y-26160000D03*
%TO.P,J4,3*%
%TO.N,unconnected-(J4-Pin_3-Pad3)*%
X10870000Y-26160000D03*
%TO.P,J4,4*%
%TO.N,unconnected-(J4-Pin_4-Pad4)*%
X13410000Y-26160000D03*
%TO.P,J4,5*%
%TO.N,unconnected-(J4-Pin_5-Pad5)*%
X15950000Y-26160000D03*
%TO.P,J4,6*%
%TO.N,unconnected-(J4-Pin_6-Pad6)*%
X18490000Y-26160000D03*
%TO.P,J4,7*%
%TO.N,unconnected-(J4-Pin_7-Pad7)*%
X21030000Y-26160000D03*
%TO.P,J4,8*%
%TO.N,unconnected-(J4-Pin_8-Pad8)*%
X23570000Y-26160000D03*
%TO.P,J4,9*%
%TO.N,unconnected-(J4-Pin_9-Pad9)*%
X26110000Y-26160000D03*
%TO.P,J4,10*%
%TO.N,/F_D0*%
X28650000Y-26160000D03*
%TO.P,J4,11*%
%TO.N,/F_A1*%
X31190000Y-26160000D03*
%TO.P,J4,12*%
%TO.N,unconnected-(J4-Pin_12-Pad12)*%
X33730000Y-26160000D03*
%TO.P,J4,13*%
%TO.N,unconnected-(J4-Pin_13-Pad13)*%
X36270000Y-26160000D03*
%TO.P,J4,14*%
%TO.N,unconnected-(J4-Pin_14-Pad14)*%
X38810000Y-26160000D03*
%TO.P,J4,15*%
%TO.N,unconnected-(J4-Pin_15-Pad15)*%
X41350000Y-26160000D03*
%TO.P,J4,16*%
%TO.N,unconnected-(J4-Pin_16-Pad16)*%
X43890000Y-26160000D03*
%TO.P,J4,17*%
%TO.N,unconnected-(J4-Pin_17-Pad17)*%
X46430000Y-26160000D03*
%TO.P,J4,18*%
%TO.N,unconnected-(J4-Pin_18-Pad18)*%
X48970000Y-26160000D03*
%TO.P,J4,19*%
%TO.N,/F_D3*%
X51510000Y-26160000D03*
%TO.P,J4,20*%
%TO.N,/F_D4*%
X54050000Y-26160000D03*
%TO.P,J4,21*%
%TO.N,/F_D6*%
X56590000Y-26160000D03*
%TO.P,J4,22*%
%TO.N,/F_D7*%
X59130000Y-26160000D03*
%TO.P,J4,23*%
%TO.N,GND*%
X61670000Y-26160000D03*
%TO.P,J4,24*%
%TO.N,+3V3*%
X64210000Y-26160000D03*
%TD*%
D10*
%TO.P,J1,1*%
%TO.N,/F_PHI0*%
X5790000Y-5840000D03*
D11*
%TO.P,J1,2*%
%TO.N,/F_CS_N*%
X8330000Y-5840000D03*
%TO.P,J1,3*%
%TO.N,/F_RDY*%
X10870000Y-5840000D03*
%TO.P,J1,4*%
%TO.N,/F_LUM1*%
X13410000Y-5840000D03*
%TO.P,J1,5*%
%TO.N,/F_CSYNC*%
X15950000Y-5840000D03*
%TO.P,J1,6*%
%TO.N,/F_I4*%
X18490000Y-5840000D03*
%TO.P,J1,7*%
%TO.N,/F_LUM2*%
X21030000Y-5840000D03*
%TO.P,J1,8*%
%TO.N,/F_BLK*%
X23570000Y-5840000D03*
%TO.P,J1,9*%
%TO.N,/F_I5*%
X26110000Y-5840000D03*
%TO.P,J1,10*%
%TO.N,/F_LUM0*%
X28650000Y-5840000D03*
%TO.P,J1,11*%
%TO.N,/F_COL*%
X31190000Y-5840000D03*
%TO.P,J1,12*%
%TO.N,/F_A0*%
X33730000Y-5840000D03*
%TO.P,J1,13*%
%TO.N,/F_A2*%
X36270000Y-5840000D03*
%TO.P,J1,14*%
%TO.N,/F_A3*%
X38810000Y-5840000D03*
%TO.P,J1,15*%
%TO.N,/F_A4*%
X41350000Y-5840000D03*
%TO.P,J1,16*%
%TO.N,/F_AU0*%
X43890000Y-5840000D03*
%TO.P,J1,17*%
%TO.N,/F_RW*%
X46430000Y-5840000D03*
%TO.P,J1,18*%
%TO.N,/F_D1*%
X48970000Y-5840000D03*
%TO.P,J1,19*%
%TO.N,/F_D2*%
X51510000Y-5840000D03*
%TO.P,J1,20*%
%TO.N,/F_D5*%
X54050000Y-5840000D03*
%TO.P,J1,21*%
%TO.N,/F_AU1*%
X56590000Y-5840000D03*
%TO.P,J1,22*%
%TO.N,/F_A5*%
X59130000Y-5840000D03*
%TO.P,J1,23*%
%TO.N,unconnected-(J1-Pin_23-Pad23)*%
X61670000Y-5840000D03*
%TO.P,J1,24*%
%TO.N,unconnected-(J1-Pin_24-Pad24)*%
X64210000Y-5840000D03*
%TD*%
D10*
%TO.P,J3,1*%
%TO.N,/TIA_CS3_N*%
X59130000Y-23620000D03*
D11*
%TO.P,J3,2*%
%TO.N,GND*%
X56590000Y-23620000D03*
%TO.P,J3,3*%
%TO.N,+5V*%
X54050000Y-23620000D03*
%TO.P,J3,4*%
%TO.N,/TIA_CS0_N*%
X51510000Y-23620000D03*
%TO.P,J3,5*%
%TO.N,/TIA_RW*%
X48970000Y-23620000D03*
%TO.P,J3,6*%
%TO.N,/TIA_PHI2*%
X46430000Y-23620000D03*
%TO.P,J3,7*%
%TO.N,/TIA_A5*%
X43890000Y-23620000D03*
%TO.P,J3,8*%
%TO.N,/TIA_A4*%
X41350000Y-23620000D03*
%TO.P,J3,9*%
%TO.N,/TIA_A3*%
X38810000Y-23620000D03*
%TO.P,J3,10*%
%TO.N,/TIA_A2*%
X36270000Y-23620000D03*
%TO.P,J3,11*%
%TO.N,/TIA_A1*%
X33730000Y-23620000D03*
%TO.P,J3,12*%
%TO.N,/TIA_A0*%
X31190000Y-23620000D03*
%TO.P,J3,13*%
%TO.N,/TIA_D6*%
X28650000Y-23620000D03*
%TO.P,J3,14*%
%TO.N,/TIA_D7*%
X26110000Y-23620000D03*
%TO.P,J3,15*%
%TO.N,/TIA_I5*%
X23570000Y-23620000D03*
%TO.P,J3,16*%
%TO.N,/TIA_I4*%
X21030000Y-23620000D03*
%TO.P,J3,17*%
%TO.N,unconnected-(J3-Pin_17-Pad17)*%
X18490000Y-23620000D03*
%TO.P,J3,18*%
%TO.N,unconnected-(J3-Pin_18-Pad18)*%
X15950000Y-23620000D03*
%TO.P,J3,19*%
%TO.N,unconnected-(J3-Pin_19-Pad19)*%
X13410000Y-23620000D03*
%TO.P,J3,20*%
%TO.N,unconnected-(J3-Pin_20-Pad20)*%
X10870000Y-23620000D03*
%TD*%
D10*
%TO.P,J2,1*%
%TO.N,GND*%
X10870000Y-8380000D03*
D11*
%TO.P,J2,2*%
%TO.N,/TIA_CSYNC*%
X13410000Y-8380000D03*
%TO.P,J2,3*%
%TO.N,/TIA_RDY*%
X15950000Y-8380000D03*
%TO.P,J2,4*%
%TO.N,/TIA_PHI0*%
X18490000Y-8380000D03*
%TO.P,J2,5*%
%TO.N,/TIA_LUM1*%
X21030000Y-8380000D03*
%TO.P,J2,6*%
%TO.N,/TIA_BLK*%
X23570000Y-8380000D03*
%TO.P,J2,7*%
%TO.N,/TIA_LUM2*%
X26110000Y-8380000D03*
%TO.P,J2,8*%
%TO.N,/TIA_LUM0*%
X28650000Y-8380000D03*
%TO.P,J2,9*%
%TO.N,/TIA_COL*%
X31190000Y-8380000D03*
%TO.P,J2,10*%
%TO.N,unconnected-(J2-Pin_10-Pad10)*%
X33730000Y-8380000D03*
%TO.P,J2,11*%
%TO.N,/TIA_OSC*%
X36270000Y-8380000D03*
%TO.P,J2,12*%
%TO.N,/TIA_AU1*%
X38810000Y-8380000D03*
%TO.P,J2,13*%
%TO.N,/TIA_AU0*%
X41350000Y-8380000D03*
%TO.P,J2,14*%
%TO.N,/TIA_D0*%
X43890000Y-8380000D03*
%TO.P,J2,15*%
%TO.N,/TIA_D1*%
X46430000Y-8380000D03*
%TO.P,J2,16*%
%TO.N,/TIA_D2*%
X48970000Y-8380000D03*
%TO.P,J2,17*%
%TO.N,/TIA_D3*%
X51510000Y-8380000D03*
%TO.P,J2,18*%
%TO.N,/TIA_D4*%
X54050000Y-8380000D03*
%TO.P,J2,19*%
%TO.N,/TIA_D5*%
X56590000Y-8380000D03*
%TO.P,J2,20*%
%TO.N,+5V*%
X59130000Y-8380000D03*
%TD*%
D12*
%TO.N,/F_CS0_N*%
X18920000Y-12591500D03*
X13920200Y-1619500D03*
%TO.N,/F_CS3_N*%
X17901800Y-9770000D03*
X7970600Y-2004700D03*
%TO.N,GND*%
X45369333Y-1482937D03*
X53000000Y-1300000D03*
%TO.N,/F_CS_N*%
X42978700Y-9999200D03*
%TO.N,+3V3*%
X14667400Y-4869000D03*
X12736300Y-1672800D03*
%TO.N,/F_COL*%
X28719400Y-3892100D03*
%TO.N,/F_OSC*%
X25521300Y-9891600D03*
%TO.N,/F_D0*%
X52214600Y-18081100D03*
%TO.N,/F_A1*%
X36095000Y-12811900D03*
%TO.N,/TIA_CS3_N*%
X20385500Y-22060000D03*
%TO.N,/F_AU1*%
X38757400Y-1103900D03*
%TO.N,/F_AU0*%
X42181900Y-4131900D03*
%TO.N,/TIA_AU0*%
X42913700Y-3898000D03*
%TO.N,/TIA_AU1*%
X43232600Y-1250000D03*
%TO.N,/F_D1*%
X48577300Y-19190100D03*
%TO.N,/F_D2*%
X50095000Y-19174700D03*
%TO.N,/F_D5*%
X53526900Y-18888300D03*
%TO.N,/TIA_D7*%
X52693600Y-13165000D03*
%TO.N,/TIA_D6*%
X56309000Y-9884800D03*
%TO.N,/TIA_BLK*%
X25751800Y-1249400D03*
%TO.N,/F_PHI0*%
X5573300Y-19674100D03*
%TO.N,/TIA_PHI0*%
X9265900Y-19751600D03*
%TO.N,/TIA_LUM1*%
X22207100Y-7202900D03*
X18819000Y-3150100D03*
%TO.N,/TIA_CSYNC*%
X16813200Y-3831100D03*
%TD*%
%TO.N,/F_CS0_N*%
D13*
X17419800Y-3664400D02*
X17419800Y-4350200D01*
X17319900Y-4450100D02*
X17319900Y-6244800D01*
X18739600Y-7110000D02*
X19589000Y-7959400D01*
X17419800Y-4350200D02*
X17319900Y-4450100D01*
X15374900Y-1619500D02*
X17419800Y-3664400D01*
X19589000Y-11922500D02*
X18920000Y-12591500D01*
X13920200Y-1619500D02*
X15374900Y-1619500D01*
X19589000Y-7959400D02*
X19589000Y-11922500D01*
X18185100Y-7110000D02*
X18739600Y-7110000D01*
X17319900Y-6244800D02*
X18185100Y-7110000D01*
%TO.N,/F_CS3_N*%
X10214600Y-9770000D02*
X17901800Y-9770000D01*
X7970600Y-2004700D02*
X7258300Y-2717000D01*
X7258300Y-6813700D02*
X10214600Y-9770000D01*
X7258300Y-2717000D02*
X7258300Y-6813700D01*
%TO.N,GND*%
X57750200Y-24780200D02*
X60290200Y-24780200D01*
X56590000Y-23620000D02*
X57750200Y-24780200D01*
X60290200Y-24780200D02*
X61670000Y-26160000D01*
%TO.N,/F_CS_N*%
X27380000Y-8671900D02*
X27380000Y-8075000D01*
X12533000Y-1097800D02*
X8330000Y-5300800D01*
X28707300Y-9999200D02*
X27380000Y-8671900D01*
X23150700Y-9515800D02*
X22300000Y-8665100D01*
X25670000Y-7279400D02*
X24709800Y-8239600D01*
X20739900Y-7110000D02*
X19760000Y-6130100D01*
X8330000Y-5300800D02*
X8330000Y-5840000D01*
X24709800Y-8239600D02*
X24709800Y-8798000D01*
X21337800Y-7110000D02*
X20739900Y-7110000D01*
X15329500Y-1097800D02*
X12533000Y-1097800D01*
X22300000Y-8072200D02*
X21337800Y-7110000D01*
X27380000Y-8075000D02*
X26584400Y-7279400D01*
X24709800Y-8798000D02*
X23992000Y-9515800D01*
X26584400Y-7279400D02*
X25670000Y-7279400D01*
X19760000Y-5528300D02*
X15329500Y-1097800D01*
X23992000Y-9515800D02*
X23150700Y-9515800D01*
X42978700Y-9999200D02*
X28707300Y-9999200D01*
X19760000Y-6130100D02*
X19760000Y-5528300D01*
X22300000Y-8665100D02*
X22300000Y-8072200D01*
%TO.N,+3V3*%
X14667400Y-3603900D02*
X12736300Y-1672800D01*
X14667400Y-4869000D02*
X14667400Y-3603900D01*
%TO.N,/F_COL*%
X29242200Y-3892200D02*
X28719400Y-3892200D01*
X28719400Y-3892200D02*
X28719400Y-3892100D01*
X31190000Y-5840000D02*
X29242200Y-3892200D01*
%TO.N,+5V*%
X59130000Y-8380000D02*
X54050000Y-13460000D01*
X54050000Y-13460000D02*
X54050000Y-23620000D01*
%TO.N,/F_OSC*%
X22996100Y-9891600D02*
X25521300Y-9891600D01*
X6861700Y-26160000D02*
X6861700Y-26026000D01*
X6861700Y-26026000D02*
X22996100Y-9891600D01*
X5790000Y-26160000D02*
X6861700Y-26160000D01*
%TO.N,/F_D0*%
X52214600Y-18300600D02*
X47700000Y-22815200D01*
X45160000Y-26456600D02*
X44007500Y-27609100D01*
X45160000Y-25855000D02*
X45160000Y-26456600D01*
X47700000Y-23925000D02*
X46735000Y-24890000D01*
X46735000Y-24890000D02*
X46125000Y-24890000D01*
X52214600Y-18081100D02*
X52214600Y-18300600D01*
X30099100Y-27609100D02*
X28650000Y-26160000D01*
X47700000Y-22815200D02*
X47700000Y-23925000D01*
X46125000Y-24890000D02*
X45160000Y-25855000D01*
X44007500Y-27609100D02*
X30099100Y-27609100D01*
%TO.N,/F_A1*%
X31190000Y-26160000D02*
X32460000Y-24890000D01*
X32460000Y-16446900D02*
X36095000Y-12811900D01*
X32460000Y-24890000D02*
X32460000Y-16446900D01*
%TO.N,/TIA_CS3_N*%
X57085900Y-22513600D02*
X58058300Y-23486000D01*
X51315800Y-27920800D02*
X52780000Y-26456600D01*
X56129500Y-22513600D02*
X57085900Y-22513600D01*
X20996500Y-22060100D02*
X22190300Y-23253900D01*
X58058300Y-23486000D02*
X58058300Y-23620000D01*
X20385500Y-22060000D02*
X20385500Y-22060100D01*
X23320400Y-24890000D02*
X23823300Y-24890000D01*
X20385500Y-22060100D02*
X20996500Y-22060100D01*
X52780000Y-26456600D02*
X52780000Y-25855000D01*
X59130000Y-23620000D02*
X58058300Y-23620000D01*
X24840000Y-26413400D02*
X26347400Y-27920800D01*
X22190300Y-23253900D02*
X22190300Y-23759900D01*
X55518300Y-23124800D02*
X56129500Y-22513600D01*
X26347400Y-27920800D02*
X51315800Y-27920800D01*
X53745000Y-24890000D02*
X54349900Y-24890000D01*
X24840000Y-25906700D02*
X24840000Y-26413400D01*
X55518300Y-23721600D02*
X55518300Y-23124800D01*
X22190300Y-23759900D02*
X23320400Y-24890000D01*
X52780000Y-25855000D02*
X53745000Y-24890000D01*
X54349900Y-24890000D02*
X55518300Y-23721600D01*
X23823300Y-24890000D02*
X24840000Y-25906700D01*
%TO.N,/F_AU1*%
X39146500Y-714800D02*
X38757400Y-1103900D01*
X56590000Y-5840000D02*
X51464800Y-714800D01*
X51464800Y-714800D02*
X39146500Y-714800D01*
%TO.N,/F_AU0*%
X42181900Y-4131900D02*
X43890000Y-5840000D01*
%TO.N,/TIA_AU0*%
X42582500Y-3566800D02*
X42913700Y-3898000D01*
X42009000Y-3566800D02*
X42582500Y-3566800D01*
X41350000Y-8380000D02*
X40277000Y-7307000D01*
X40277000Y-7307000D02*
X40277000Y-5298800D01*
X40277000Y-5298800D02*
X42009000Y-3566800D01*
%TO.N,/TIA_AU1*%
X39881700Y-4600900D02*
X43232600Y-1250000D01*
X39881700Y-7308300D02*
X39881700Y-4600900D01*
X38810000Y-8380000D02*
X39881700Y-7308300D01*
%TO.N,/F_D1*%
X47866200Y-18479000D02*
X48577300Y-19190100D01*
X47866200Y-6943800D02*
X47866200Y-18479000D01*
X48970000Y-5840000D02*
X47866200Y-6943800D01*
%TO.N,/F_D2*%
X50095000Y-7255000D02*
X50095000Y-19174700D01*
X51510000Y-5840000D02*
X50095000Y-7255000D01*
%TO.N,/F_D5*%
X53526900Y-18888300D02*
X53526900Y-13260400D01*
X52974000Y-6916000D02*
X54050000Y-5840000D01*
X53526900Y-13260400D02*
X52974000Y-12707500D01*
X52974000Y-12707500D02*
X52974000Y-6916000D01*
%TO.N,/TIA_D7*%
X48736400Y-19797700D02*
X45050300Y-23483800D01*
X28955000Y-24890000D02*
X27380000Y-24890000D01*
X41835200Y-27254900D02*
X30724500Y-27254900D01*
X27380000Y-24890000D02*
X26110000Y-23620000D01*
X44139600Y-24890000D02*
X43590100Y-24890000D01*
X45050300Y-23483800D02*
X45050300Y-23979300D01*
X43590100Y-24890000D02*
X42421700Y-26058400D01*
X45050300Y-23979300D02*
X44139600Y-24890000D01*
X29920100Y-25855100D02*
X28955000Y-24890000D01*
X42421700Y-26058400D02*
X42421700Y-26668400D01*
X42421700Y-26668400D02*
X41835200Y-27254900D01*
X30724500Y-27254900D02*
X29920100Y-26450500D01*
X50260800Y-19797700D02*
X48736400Y-19797700D01*
X29920100Y-26450500D02*
X29920100Y-25855100D01*
X51692900Y-14165700D02*
X51692900Y-18365600D01*
X51692900Y-18365600D02*
X50260800Y-19797700D01*
X52693600Y-13165000D02*
X51692900Y-14165700D01*
%TO.N,/TIA_D6*%
X45160100Y-8075000D02*
X46125100Y-7110000D01*
X35868800Y-12282700D02*
X41549300Y-12282700D01*
X28650000Y-23620000D02*
X28650000Y-19501500D01*
X45160100Y-8671900D02*
X45160100Y-8075000D01*
X54425200Y-4696000D02*
X55210300Y-5481100D01*
X46125100Y-7110000D02*
X46726700Y-7110000D01*
X48594600Y-4696000D02*
X54425200Y-4696000D01*
X41549300Y-12282700D02*
X45160100Y-8671900D01*
X47866400Y-5424200D02*
X48594600Y-4696000D01*
X55210300Y-5481100D02*
X55210300Y-8786100D01*
X55210300Y-8786100D02*
X56309000Y-9884800D01*
X47866400Y-5970300D02*
X47866400Y-5424200D01*
X28650000Y-19501500D02*
X35868800Y-12282700D01*
X46726700Y-7110000D02*
X47866400Y-5970300D01*
%TO.N,/TIA_BLK*%
X23570000Y-8380000D02*
X24728100Y-7221900D01*
X24728100Y-2273100D02*
X25751800Y-1249400D01*
X24728100Y-7221900D02*
X24728100Y-2273100D01*
%TO.N,/F_PHI0*%
X5790000Y-5840000D02*
X5790000Y-19457400D01*
X5790000Y-19457400D02*
X5573300Y-19674100D01*
%TO.N,/TIA_PHI0*%
X9265900Y-19751600D02*
X18490000Y-10527500D01*
X18490000Y-10527500D02*
X18490000Y-8380000D01*
%TO.N,/TIA_LUM1*%
X19919900Y-3150100D02*
X22207100Y-5437300D01*
X18819000Y-3150100D02*
X19919900Y-3150100D01*
X22207100Y-5437300D02*
X22207100Y-7202900D01*
%TO.N,/TIA_CSYNC*%
X14686400Y-7103700D02*
X14686400Y-5588000D01*
X13410000Y-8380000D02*
X14686300Y-7103700D01*
X14686300Y-7103700D02*
X14686400Y-7103700D01*
X16443300Y-3831100D02*
X16813200Y-3831100D01*
X14686400Y-5588000D02*
X16443300Y-3831100D01*
%TD*%
%TA.AperFunction,Conductor*%
%TO.N,GND*%
G36*
X38401460Y-519407D02*
G01*
X38437424Y-568907D01*
X38437424Y-630093D01*
X38413274Y-669501D01*
X38346360Y-736416D01*
X38316888Y-765888D01*
X38316887Y-765889D01*
X38244417Y-891410D01*
X38244416Y-891415D01*
X38206900Y-1031425D01*
X38206900Y-1176375D01*
X38233957Y-1277352D01*
X38244417Y-1316389D01*
X38316887Y-1441910D01*
X38316889Y-1441912D01*
X38316891Y-1441915D01*
X38419385Y-1544409D01*
X38419387Y-1544410D01*
X38419389Y-1544412D01*
X38544911Y-1616882D01*
X38544912Y-1616882D01*
X38544915Y-1616884D01*
X38684925Y-1654400D01*
X38684926Y-1654400D01*
X38829874Y-1654400D01*
X38829875Y-1654400D01*
X38969885Y-1616884D01*
X38969887Y-1616882D01*
X38969889Y-1616882D01*
X39095410Y-1544412D01*
X39095410Y-1544411D01*
X39095415Y-1544409D01*
X39197909Y-1441915D01*
X39199996Y-1438300D01*
X39270382Y-1316389D01*
X39270382Y-1316387D01*
X39270384Y-1316385D01*
X39307900Y-1176375D01*
X39307900Y-1154300D01*
X39326807Y-1096109D01*
X39376307Y-1060145D01*
X39406900Y-1055300D01*
X42585831Y-1055300D01*
X42644022Y-1074207D01*
X42679986Y-1123707D01*
X42684807Y-1156486D01*
X42684543Y-1168404D01*
X42682100Y-1177525D01*
X42682100Y-1279051D01*
X42682076Y-1280138D01*
X42672328Y-1308025D01*
X42663193Y-1336143D01*
X42662021Y-1337514D01*
X42661888Y-1337897D01*
X42661414Y-1338225D01*
X42653104Y-1347956D01*
X39672628Y-4328432D01*
X39672627Y-4328431D01*
X39609234Y-4391825D01*
X39609232Y-4391827D01*
X39609232Y-4391828D01*
X39596606Y-4413698D01*
X39564404Y-4469474D01*
X39564403Y-4469475D01*
X39541200Y-4556069D01*
X39541200Y-4816656D01*
X39522293Y-4874847D01*
X39472793Y-4910811D01*
X39411607Y-4910811D01*
X39390539Y-4900084D01*
X39390102Y-4900799D01*
X39386787Y-4898767D01*
X39232441Y-4820125D01*
X39232438Y-4820123D01*
X39067706Y-4766598D01*
X39067702Y-4766597D01*
X38896614Y-4739500D01*
X38896611Y-4739500D01*
X38723389Y-4739500D01*
X38723386Y-4739500D01*
X38552297Y-4766597D01*
X38552293Y-4766598D01*
X38387561Y-4820123D01*
X38387558Y-4820125D01*
X38233214Y-4898766D01*
X38093073Y-5000585D01*
X37970585Y-5123073D01*
X37868766Y-5263214D01*
X37790125Y-5417558D01*
X37790123Y-5417561D01*
X37736598Y-5582293D01*
X37736597Y-5582297D01*
X37709500Y-5753385D01*
X37709500Y-5926614D01*
X37736597Y-6097702D01*
X37736598Y-6097706D01*
X37790123Y-6262438D01*
X37790125Y-6262441D01*
X37862218Y-6403934D01*
X37868768Y-6416788D01*
X37970586Y-6556928D01*
X38093072Y-6679414D01*
X38233212Y-6781232D01*
X38387555Y-6859873D01*
X38387557Y-6859873D01*
X38387558Y-6859874D01*
X38387561Y-6859876D01*
X38552293Y-6913401D01*
X38552297Y-6913402D01*
X38723386Y-6940500D01*
X38723389Y-6940500D01*
X38896614Y-6940500D01*
X39067702Y-6913402D01*
X39067706Y-6913401D01*
X39232438Y-6859876D01*
X39232440Y-6859874D01*
X39232445Y-6859873D01*
X39386788Y-6781232D01*
X39386793Y-6781228D01*
X39390102Y-6779201D01*
X39391173Y-6780949D01*
X39442089Y-6764343D01*
X39500301Y-6783185D01*
X39536320Y-6832645D01*
X39541200Y-6863343D01*
X39541200Y-7126252D01*
X39522293Y-7184443D01*
X39512203Y-7196256D01*
X39360075Y-7348383D01*
X39305559Y-7376160D01*
X39245127Y-7366588D01*
X39245126Y-7366588D01*
X39232446Y-7360127D01*
X39232438Y-7360123D01*
X39067706Y-7306598D01*
X39067702Y-7306597D01*
X38896614Y-7279500D01*
X38896611Y-7279500D01*
X38723389Y-7279500D01*
X38723386Y-7279500D01*
X38552297Y-7306597D01*
X38552293Y-7306598D01*
X38387561Y-7360123D01*
X38387558Y-7360125D01*
X38233214Y-7438766D01*
X38093073Y-7540585D01*
X37970585Y-7663073D01*
X37868766Y-7803214D01*
X37790125Y-7957558D01*
X37790123Y-7957561D01*
X37736598Y-8122293D01*
X37736597Y-8122297D01*
X37709500Y-8293385D01*
X37709500Y-8466614D01*
X37736597Y-8637702D01*
X37736598Y-8637706D01*
X37790123Y-8802438D01*
X37790125Y-8802441D01*
X37867652Y-8954599D01*
X37868768Y-8956788D01*
X37970586Y-9096928D01*
X38093072Y-9219414D01*
X38233212Y-9321232D01*
X38387555Y-9399873D01*
X38387557Y-9399873D01*
X38387558Y-9399874D01*
X38387561Y-9399876D01*
X38552293Y-9453401D01*
X38552297Y-9453402D01*
X38606070Y-9461919D01*
X38660587Y-9489696D01*
X38688364Y-9544213D01*
X38678793Y-9604645D01*
X38635528Y-9647910D01*
X38590583Y-9658700D01*
X36489417Y-9658700D01*
X36431226Y-9639793D01*
X36395262Y-9590293D01*
X36395262Y-9529107D01*
X36431226Y-9479607D01*
X36473930Y-9461919D01*
X36527702Y-9453402D01*
X36527706Y-9453401D01*
X36692438Y-9399876D01*
X36692440Y-9399874D01*
X36692445Y-9399873D01*
X36846788Y-9321232D01*
X36986928Y-9219414D01*
X37109414Y-9096928D01*
X37211232Y-8956788D01*
X37289873Y-8802445D01*
X37289874Y-8802440D01*
X37289876Y-8802438D01*
X37343401Y-8637706D01*
X37343402Y-8637702D01*
X37370500Y-8466614D01*
X37370500Y-8293385D01*
X37343402Y-8122297D01*
X37343401Y-8122293D01*
X37289876Y-7957561D01*
X37289874Y-7957558D01*
X37289873Y-7957557D01*
X37289873Y-7957555D01*
X37211232Y-7803212D01*
X37109414Y-7663072D01*
X36986928Y-7540586D01*
X36846788Y-7438768D01*
X36846787Y-7438767D01*
X36846785Y-7438766D01*
X36692441Y-7360125D01*
X36692438Y-7360123D01*
X36527706Y-7306598D01*
X36527702Y-7306597D01*
X36356614Y-7279500D01*
X36356611Y-7279500D01*
X36183389Y-7279500D01*
X36183386Y-7279500D01*
X36012297Y-7306597D01*
X36012293Y-7306598D01*
X35847561Y-7360123D01*
X35847558Y-7360125D01*
X35693214Y-7438766D01*
X35553073Y-7540585D01*
X35430585Y-7663073D01*
X35328766Y-7803214D01*
X35250125Y-7957558D01*
X35250123Y-7957561D01*
X35196598Y-8122293D01*
X35196597Y-8122297D01*
X35169500Y-8293385D01*
X35169500Y-8466614D01*
X35196597Y-8637702D01*
X35196598Y-8637706D01*
X35250123Y-8802438D01*
X35250125Y-8802441D01*
X35327652Y-8954599D01*
X35328768Y-8956788D01*
X35430586Y-9096928D01*
X35553072Y-9219414D01*
X35693212Y-9321232D01*
X35847555Y-9399873D01*
X35847557Y-9399873D01*
X35847558Y-9399874D01*
X35847561Y-9399876D01*
X36012293Y-9453401D01*
X36012297Y-9453402D01*
X36066070Y-9461919D01*
X36120587Y-9489696D01*
X36148364Y-9544213D01*
X36138793Y-9604645D01*
X36095528Y-9647910D01*
X36050583Y-9658700D01*
X33949417Y-9658700D01*
X33891226Y-9639793D01*
X33855262Y-9590293D01*
X33855262Y-9529107D01*
X33891226Y-9479607D01*
X33933930Y-9461919D01*
X33987702Y-9453402D01*
X33987706Y-9453401D01*
X34152438Y-9399876D01*
X34152440Y-9399874D01*
X34152445Y-9399873D01*
X34306788Y-9321232D01*
X34446928Y-9219414D01*
X34569414Y-9096928D01*
X34671232Y-8956788D01*
X34749873Y-8802445D01*
X34749874Y-8802440D01*
X34749876Y-8802438D01*
X34803401Y-8637706D01*
X34803402Y-8637702D01*
X34830500Y-8466614D01*
X34830500Y-8293385D01*
X34803402Y-8122297D01*
X34803401Y-8122293D01*
X34749876Y-7957561D01*
X34749874Y-7957558D01*
X34749873Y-7957557D01*
X34749873Y-7957555D01*
X34671232Y-7803212D01*
X34569414Y-7663072D01*
X34446928Y-7540586D01*
X34306788Y-7438768D01*
X34306787Y-7438767D01*
X34306785Y-7438766D01*
X34152441Y-7360125D01*
X34152438Y-7360123D01*
X33987706Y-7306598D01*
X33987702Y-7306597D01*
X33816614Y-7279500D01*
X33816611Y-7279500D01*
X33643389Y-7279500D01*
X33643386Y-7279500D01*
X33472297Y-7306597D01*
X33472293Y-7306598D01*
X33307561Y-7360123D01*
X33307558Y-7360125D01*
X33153214Y-7438766D01*
X33013073Y-7540585D01*
X32890585Y-7663073D01*
X32788766Y-7803214D01*
X32710125Y-7957558D01*
X32710123Y-7957561D01*
X32656598Y-8122293D01*
X32656597Y-8122297D01*
X32629500Y-8293385D01*
X32629500Y-8466614D01*
X32656597Y-8637702D01*
X32656598Y-8637706D01*
X32710123Y-8802438D01*
X32710125Y-8802441D01*
X32787652Y-8954599D01*
X32788768Y-8956788D01*
X32890586Y-9096928D01*
X33013072Y-9219414D01*
X33153212Y-9321232D01*
X33307555Y-9399873D01*
X33307557Y-9399873D01*
X33307558Y-9399874D01*
X33307561Y-9399876D01*
X33472293Y-9453401D01*
X33472297Y-9453402D01*
X33526070Y-9461919D01*
X33580587Y-9489696D01*
X33608364Y-9544213D01*
X33598793Y-9604645D01*
X33555528Y-9647910D01*
X33510583Y-9658700D01*
X31409417Y-9658700D01*
X31351226Y-9639793D01*
X31315262Y-9590293D01*
X31315262Y-9529107D01*
X31351226Y-9479607D01*
X31393930Y-9461919D01*
X31447702Y-9453402D01*
X31447706Y-9453401D01*
X31612438Y-9399876D01*
X31612440Y-9399874D01*
X31612445Y-9399873D01*
X31766788Y-9321232D01*
X31906928Y-9219414D01*
X32029414Y-9096928D01*
X32131232Y-8956788D01*
X32209873Y-8802445D01*
X32209874Y-8802440D01*
X32209876Y-8802438D01*
X32263401Y-8637706D01*
X32263402Y-8637702D01*
X32290500Y-8466614D01*
X32290500Y-8293385D01*
X32263402Y-8122297D01*
X32263401Y-8122293D01*
X32209876Y-7957561D01*
X32209874Y-7957558D01*
X32209873Y-7957557D01*
X32209873Y-7957555D01*
X32131232Y-7803212D01*
X32029414Y-7663072D01*
X31906928Y-7540586D01*
X31766788Y-7438768D01*
X31766787Y-7438767D01*
X31766785Y-7438766D01*
X31612441Y-7360125D01*
X31612438Y-7360123D01*
X31447706Y-7306598D01*
X31447702Y-7306597D01*
X31276614Y-7279500D01*
X31276611Y-7279500D01*
X31103389Y-7279500D01*
X31103386Y-7279500D01*
X30932297Y-7306597D01*
X30932293Y-7306598D01*
X30767561Y-7360123D01*
X30767558Y-7360125D01*
X30613214Y-7438766D01*
X30473073Y-7540585D01*
X30350585Y-7663073D01*
X30248766Y-7803214D01*
X30170125Y-7957558D01*
X30170123Y-7957561D01*
X30116598Y-8122293D01*
X30116597Y-8122297D01*
X30089500Y-8293385D01*
X30089500Y-8466614D01*
X30116597Y-8637702D01*
X30116598Y-8637706D01*
X30170123Y-8802438D01*
X30170125Y-8802441D01*
X30247652Y-8954599D01*
X30248768Y-8956788D01*
X30350586Y-9096928D01*
X30473072Y-9219414D01*
X30613212Y-9321232D01*
X30767555Y-9399873D01*
X30767557Y-9399873D01*
X30767558Y-9399874D01*
X30767561Y-9399876D01*
X30932293Y-9453401D01*
X30932297Y-9453402D01*
X30986070Y-9461919D01*
X31040587Y-9489696D01*
X31068364Y-9544213D01*
X31058793Y-9604645D01*
X31015528Y-9647910D01*
X30970583Y-9658700D01*
X28889347Y-9658700D01*
X28881749Y-9656231D01*
X28873860Y-9657481D01*
X28853204Y-9646956D01*
X28831156Y-9639793D01*
X28819343Y-9629704D01*
X28816617Y-9626978D01*
X28788840Y-9572461D01*
X28798411Y-9512029D01*
X28841676Y-9468764D01*
X28871129Y-9459194D01*
X28907701Y-9453402D01*
X28907706Y-9453400D01*
X28907708Y-9453400D01*
X29072438Y-9399876D01*
X29072440Y-9399874D01*
X29072445Y-9399873D01*
X29226788Y-9321232D01*
X29366928Y-9219414D01*
X29489414Y-9096928D01*
X29591232Y-8956788D01*
X29669873Y-8802445D01*
X29669874Y-8802440D01*
X29669876Y-8802438D01*
X29723401Y-8637706D01*
X29723402Y-8637702D01*
X29750500Y-8466614D01*
X29750500Y-8293385D01*
X29723402Y-8122297D01*
X29723401Y-8122293D01*
X29669876Y-7957561D01*
X29669874Y-7957558D01*
X29669873Y-7957557D01*
X29669873Y-7957555D01*
X29591232Y-7803212D01*
X29489414Y-7663072D01*
X29366928Y-7540586D01*
X29226788Y-7438768D01*
X29226787Y-7438767D01*
X29226785Y-7438766D01*
X29072441Y-7360125D01*
X29072438Y-7360123D01*
X28907706Y-7306598D01*
X28907702Y-7306597D01*
X28736614Y-7279500D01*
X28736611Y-7279500D01*
X28563389Y-7279500D01*
X28563386Y-7279500D01*
X28392297Y-7306597D01*
X28392293Y-7306598D01*
X28227561Y-7360123D01*
X28227558Y-7360125D01*
X28073214Y-7438766D01*
X27933073Y-7540585D01*
X27810581Y-7663077D01*
X27726817Y-7778368D01*
X27677317Y-7814332D01*
X27616132Y-7814331D01*
X27576721Y-7790181D01*
X27185783Y-7399243D01*
X26793472Y-7006932D01*
X26715828Y-6962105D01*
X26712834Y-6961302D01*
X26710973Y-6960094D01*
X26709833Y-6959622D01*
X26709920Y-6959410D01*
X26661522Y-6927979D01*
X26639596Y-6870858D01*
X26655432Y-6811757D01*
X26683965Y-6783964D01*
X26683641Y-6783518D01*
X26686718Y-6781282D01*
X26686739Y-6781262D01*
X26686784Y-6781234D01*
X26686783Y-6781234D01*
X26686788Y-6781232D01*
X26826928Y-6679414D01*
X26949414Y-6556928D01*
X27051232Y-6416788D01*
X27129873Y-6262445D01*
X27129874Y-6262440D01*
X27129876Y-6262438D01*
X27183401Y-6097706D01*
X27183402Y-6097702D01*
X27210500Y-5926614D01*
X27210500Y-5753385D01*
X27549500Y-5753385D01*
X27549500Y-5926614D01*
X27576597Y-6097702D01*
X27576598Y-6097706D01*
X27630123Y-6262438D01*
X27630125Y-6262441D01*
X27702218Y-6403934D01*
X27708768Y-6416788D01*
X27810586Y-6556928D01*
X27933072Y-6679414D01*
X28073212Y-6781232D01*
X28227555Y-6859873D01*
X28227557Y-6859873D01*
X28227558Y-6859874D01*
X28227561Y-6859876D01*
X28392293Y-6913401D01*
X28392297Y-6913402D01*
X28563386Y-6940500D01*
X28563389Y-6940500D01*
X28736614Y-6940500D01*
X28907702Y-6913402D01*
X28907706Y-6913401D01*
X29072438Y-6859876D01*
X29072440Y-6859874D01*
X29072445Y-6859873D01*
X29226788Y-6781232D01*
X29366928Y-6679414D01*
X29489414Y-6556928D01*
X29591232Y-6416788D01*
X29669873Y-6262445D01*
X29669874Y-6262440D01*
X29669876Y-6262438D01*
X29723401Y-6097706D01*
X29723402Y-6097702D01*
X29750500Y-5926614D01*
X29750500Y-5753385D01*
X29723402Y-5582297D01*
X29723401Y-5582293D01*
X29669876Y-5417561D01*
X29669874Y-5417558D01*
X29669873Y-5417557D01*
X29669873Y-5417555D01*
X29591232Y-5263212D01*
X29489414Y-5123072D01*
X29366928Y-5000586D01*
X29226788Y-4898768D01*
X29226787Y-4898767D01*
X29226785Y-4898766D01*
X29072441Y-4820125D01*
X29072438Y-4820123D01*
X28907706Y-4766598D01*
X28907702Y-4766597D01*
X28736614Y-4739500D01*
X28736611Y-4739500D01*
X28563389Y-4739500D01*
X28563386Y-4739500D01*
X28392297Y-4766597D01*
X28392293Y-4766598D01*
X28227561Y-4820123D01*
X28227558Y-4820125D01*
X28073214Y-4898766D01*
X27933073Y-5000585D01*
X27810585Y-5123073D01*
X27708766Y-5263214D01*
X27630125Y-5417558D01*
X27630123Y-5417561D01*
X27576598Y-5582293D01*
X27576597Y-5582297D01*
X27549500Y-5753385D01*
X27210500Y-5753385D01*
X27183402Y-5582297D01*
X27183401Y-5582293D01*
X27129876Y-5417561D01*
X27129874Y-5417558D01*
X27129873Y-5417557D01*
X27129873Y-5417555D01*
X27051232Y-5263212D01*
X26949414Y-5123072D01*
X26826928Y-5000586D01*
X26686788Y-4898768D01*
X26686787Y-4898767D01*
X26686785Y-4898766D01*
X26532441Y-4820125D01*
X26532438Y-4820123D01*
X26367706Y-4766598D01*
X26367702Y-4766597D01*
X26196614Y-4739500D01*
X26196611Y-4739500D01*
X26023389Y-4739500D01*
X26023386Y-4739500D01*
X25852297Y-4766597D01*
X25852293Y-4766598D01*
X25687561Y-4820123D01*
X25687558Y-4820125D01*
X25533214Y-4898766D01*
X25393073Y-5000585D01*
X25270581Y-5123077D01*
X25247692Y-5154582D01*
X25198192Y-5190546D01*
X25137007Y-5190545D01*
X25087507Y-5154581D01*
X25068600Y-5096391D01*
X25068600Y-3819625D01*
X28168900Y-3819625D01*
X28168900Y-3964574D01*
X28206417Y-4104589D01*
X28278887Y-4230110D01*
X28278889Y-4230112D01*
X28278891Y-4230115D01*
X28381385Y-4332609D01*
X28381387Y-4332610D01*
X28381389Y-4332612D01*
X28506911Y-4405082D01*
X28506912Y-4405082D01*
X28506915Y-4405084D01*
X28646925Y-4442600D01*
X28646926Y-4442600D01*
X28791874Y-4442600D01*
X28791875Y-4442600D01*
X28931885Y-4405084D01*
X28931887Y-4405082D01*
X28931889Y-4405082D01*
X29057410Y-4332612D01*
X29057410Y-4332611D01*
X29057415Y-4332609D01*
X29059234Y-4330789D01*
X29060875Y-4329953D01*
X29062561Y-4328660D01*
X29062800Y-4328972D01*
X29113746Y-4303009D01*
X29174179Y-4312576D01*
X29199245Y-4330785D01*
X30158383Y-5289923D01*
X30186160Y-5344440D01*
X30176590Y-5404868D01*
X30170129Y-5417547D01*
X30170122Y-5417564D01*
X30116598Y-5582293D01*
X30116597Y-5582297D01*
X30089500Y-5753385D01*
X30089500Y-5926614D01*
X30116597Y-6097702D01*
X30116598Y-6097706D01*
X30170123Y-6262438D01*
X30170125Y-6262441D01*
X30242218Y-6403934D01*
X30248768Y-6416788D01*
X30350586Y-6556928D01*
X30473072Y-6679414D01*
X30613212Y-6781232D01*
X30767555Y-6859873D01*
X30767557Y-6859873D01*
X30767558Y-6859874D01*
X30767561Y-6859876D01*
X30932293Y-6913401D01*
X30932297Y-6913402D01*
X31103386Y-6940500D01*
X31103389Y-6940500D01*
X31276614Y-6940500D01*
X31447702Y-6913402D01*
X31447706Y-6913401D01*
X31612438Y-6859876D01*
X31612440Y-6859874D01*
X31612445Y-6859873D01*
X31766788Y-6781232D01*
X31906928Y-6679414D01*
X32029414Y-6556928D01*
X32131232Y-6416788D01*
X32209873Y-6262445D01*
X32209874Y-6262440D01*
X32209876Y-6262438D01*
X32263401Y-6097706D01*
X32263402Y-6097702D01*
X32290500Y-5926614D01*
X32290500Y-5753385D01*
X32629500Y-5753385D01*
X32629500Y-5926614D01*
X32656597Y-6097702D01*
X32656598Y-6097706D01*
X32710123Y-6262438D01*
X32710125Y-6262441D01*
X32782218Y-6403934D01*
X32788768Y-6416788D01*
X32890586Y-6556928D01*
X33013072Y-6679414D01*
X33153212Y-6781232D01*
X33307555Y-6859873D01*
X33307557Y-6859873D01*
X33307558Y-6859874D01*
X33307561Y-6859876D01*
X33472293Y-6913401D01*
X33472297Y-6913402D01*
X33643386Y-6940500D01*
X33643389Y-6940500D01*
X33816614Y-6940500D01*
X33987702Y-6913402D01*
X33987706Y-6913401D01*
X34152438Y-6859876D01*
X34152440Y-6859874D01*
X34152445Y-6859873D01*
X34306788Y-6781232D01*
X34446928Y-6679414D01*
X34569414Y-6556928D01*
X34671232Y-6416788D01*
X34749873Y-6262445D01*
X34749874Y-6262440D01*
X34749876Y-6262438D01*
X34803401Y-6097706D01*
X34803402Y-6097702D01*
X34830500Y-5926614D01*
X34830500Y-5753385D01*
X35169500Y-5753385D01*
X35169500Y-5926614D01*
X35196597Y-6097702D01*
X35196598Y-6097706D01*
X35250123Y-6262438D01*
X35250125Y-6262441D01*
X35322218Y-6403934D01*
X35328768Y-6416788D01*
X35430586Y-6556928D01*
X35553072Y-6679414D01*
X35693212Y-6781232D01*
X35847555Y-6859873D01*
X35847557Y-6859873D01*
X35847558Y-6859874D01*
X35847561Y-6859876D01*
X36012293Y-6913401D01*
X36012297Y-6913402D01*
X36183386Y-6940500D01*
X36183389Y-6940500D01*
X36356614Y-6940500D01*
X36527702Y-6913402D01*
X36527706Y-6913401D01*
X36692438Y-6859876D01*
X36692440Y-6859874D01*
X36692445Y-6859873D01*
X36846788Y-6781232D01*
X36986928Y-6679414D01*
X37109414Y-6556928D01*
X37211232Y-6416788D01*
X37289873Y-6262445D01*
X37289874Y-6262440D01*
X37289876Y-6262438D01*
X37343401Y-6097706D01*
X37343402Y-6097702D01*
X37370500Y-5926614D01*
X37370500Y-5753385D01*
X37343402Y-5582297D01*
X37343401Y-5582293D01*
X37289876Y-5417561D01*
X37289874Y-5417558D01*
X37289873Y-5417557D01*
X37289873Y-5417555D01*
X37211232Y-5263212D01*
X37109414Y-5123072D01*
X36986928Y-5000586D01*
X36846788Y-4898768D01*
X36846787Y-4898767D01*
X36846785Y-4898766D01*
X36692441Y-4820125D01*
X36692438Y-4820123D01*
X36527706Y-4766598D01*
X36527702Y-4766597D01*
X36356614Y-4739500D01*
X36356611Y-4739500D01*
X36183389Y-4739500D01*
X36183386Y-4739500D01*
X36012297Y-4766597D01*
X36012293Y-4766598D01*
X35847561Y-4820123D01*
X35847558Y-4820125D01*
X35693214Y-4898766D01*
X35553073Y-5000585D01*
X35430585Y-5123073D01*
X35328766Y-5263214D01*
X35250125Y-5417558D01*
X35250123Y-5417561D01*
X35196598Y-5582293D01*
X35196597Y-5582297D01*
X35169500Y-5753385D01*
X34830500Y-5753385D01*
X34803402Y-5582297D01*
X34803401Y-5582293D01*
X34749876Y-5417561D01*
X34749874Y-5417558D01*
X34749873Y-5417557D01*
X34749873Y-5417555D01*
X34671232Y-5263212D01*
X34569414Y-5123072D01*
X34446928Y-5000586D01*
X34306788Y-4898768D01*
X34306787Y-4898767D01*
X34306785Y-4898766D01*
X34152441Y-4820125D01*
X34152438Y-4820123D01*
X33987706Y-4766598D01*
X33987702Y-4766597D01*
X33816614Y-4739500D01*
X33816611Y-4739500D01*
X33643389Y-4739500D01*
X33643386Y-4739500D01*
X33472297Y-4766597D01*
X33472293Y-4766598D01*
X33307561Y-4820123D01*
X33307558Y-4820125D01*
X33153214Y-4898766D01*
X33013073Y-5000585D01*
X32890585Y-5123073D01*
X32788766Y-5263214D01*
X32710125Y-5417558D01*
X32710123Y-5417561D01*
X32656598Y-5582293D01*
X32656597Y-5582297D01*
X32629500Y-5753385D01*
X32290500Y-5753385D01*
X32263402Y-5582297D01*
X32263401Y-5582293D01*
X32209876Y-5417561D01*
X32209874Y-5417558D01*
X32209873Y-5417557D01*
X32209873Y-5417555D01*
X32131232Y-5263212D01*
X32029414Y-5123072D01*
X31906928Y-5000586D01*
X31766788Y-4898768D01*
X31766787Y-4898767D01*
X31766785Y-4898766D01*
X31612441Y-4820125D01*
X31612438Y-4820123D01*
X31447706Y-4766598D01*
X31447702Y-4766597D01*
X31276614Y-4739500D01*
X31276611Y-4739500D01*
X31103389Y-4739500D01*
X31103386Y-4739500D01*
X30932297Y-4766597D01*
X30932293Y-4766598D01*
X30767564Y-4820122D01*
X30767547Y-4820129D01*
X30754868Y-4826590D01*
X30694436Y-4836160D01*
X30639923Y-4808383D01*
X30061650Y-4230110D01*
X29451272Y-3619732D01*
X29373628Y-3574905D01*
X29373625Y-3574904D01*
X29373624Y-3574903D01*
X29287030Y-3551700D01*
X29287028Y-3551700D01*
X29198532Y-3551700D01*
X29140341Y-3532793D01*
X29128529Y-3522704D01*
X29057415Y-3451591D01*
X29057410Y-3451587D01*
X28931888Y-3379117D01*
X28931889Y-3379117D01*
X28856614Y-3358947D01*
X28791875Y-3341600D01*
X28646925Y-3341600D01*
X28585190Y-3358141D01*
X28506910Y-3379117D01*
X28381389Y-3451587D01*
X28278887Y-3554089D01*
X28206417Y-3679610D01*
X28168900Y-3819625D01*
X25068600Y-3819625D01*
X25068600Y-2455148D01*
X25087507Y-2396957D01*
X25097596Y-2385144D01*
X25653844Y-1828896D01*
X25708361Y-1801119D01*
X25723848Y-1799900D01*
X25824274Y-1799900D01*
X25824275Y-1799900D01*
X25964285Y-1762384D01*
X25964287Y-1762382D01*
X25964289Y-1762382D01*
X26089810Y-1689912D01*
X26089810Y-1689911D01*
X26089815Y-1689909D01*
X26192309Y-1587415D01*
X26192312Y-1587410D01*
X26264782Y-1461889D01*
X26264782Y-1461887D01*
X26264784Y-1461885D01*
X26302300Y-1321875D01*
X26302300Y-1176925D01*
X26264784Y-1036915D01*
X26264782Y-1036912D01*
X26264782Y-1036910D01*
X26192312Y-911389D01*
X26192310Y-911387D01*
X26192309Y-911385D01*
X26089815Y-808891D01*
X26089812Y-808889D01*
X26089810Y-808887D01*
X25964288Y-736417D01*
X25964289Y-736417D01*
X25934696Y-728487D01*
X25824275Y-698900D01*
X25679325Y-698900D01*
X25617590Y-715441D01*
X25539310Y-736417D01*
X25413789Y-808887D01*
X25311287Y-911389D01*
X25238817Y-1036910D01*
X25201300Y-1176925D01*
X25201300Y-1277352D01*
X25182393Y-1335543D01*
X25172304Y-1347356D01*
X24519028Y-2000632D01*
X24519027Y-2000631D01*
X24455634Y-2064025D01*
X24455632Y-2064027D01*
X24455632Y-2064028D01*
X24416111Y-2132482D01*
X24410804Y-2141674D01*
X24410803Y-2141675D01*
X24387600Y-2228269D01*
X24387600Y-4879429D01*
X24368693Y-4937620D01*
X24319193Y-4973584D01*
X24258007Y-4973584D01*
X24230410Y-4959522D01*
X24146791Y-4898769D01*
X24146787Y-4898767D01*
X23992441Y-4820125D01*
X23992438Y-4820123D01*
X23827706Y-4766598D01*
X23827702Y-4766597D01*
X23656614Y-4739500D01*
X23656611Y-4739500D01*
X23483389Y-4739500D01*
X23483386Y-4739500D01*
X23312297Y-4766597D01*
X23312293Y-4766598D01*
X23147561Y-4820123D01*
X23147558Y-4820125D01*
X22993214Y-4898766D01*
X22853073Y-5000585D01*
X22730581Y-5123077D01*
X22646491Y-5238816D01*
X22596991Y-5274780D01*
X22535805Y-5274779D01*
X22486306Y-5238815D01*
X22480661Y-5230122D01*
X22479568Y-5228228D01*
X22459972Y-5208632D01*
X22416172Y-5164831D01*
X22416172Y-5164832D01*
X20128972Y-2877632D01*
X20051328Y-2832805D01*
X20051325Y-2832804D01*
X20051324Y-2832803D01*
X19964730Y-2809600D01*
X19964728Y-2809600D01*
X19298032Y-2809600D01*
X19239841Y-2790693D01*
X19228029Y-2780604D01*
X19157015Y-2709591D01*
X19157010Y-2709587D01*
X19031488Y-2637117D01*
X19031489Y-2637117D01*
X19001896Y-2629187D01*
X18891475Y-2599600D01*
X18746525Y-2599600D01*
X18684790Y-2616141D01*
X18606510Y-2637117D01*
X18480989Y-2709587D01*
X18378487Y-2812089D01*
X18306017Y-2937610D01*
X18306016Y-2937615D01*
X18268500Y-3077625D01*
X18268500Y-3222575D01*
X18294204Y-3318504D01*
X18294645Y-3320147D01*
X18291443Y-3381248D01*
X18252938Y-3428798D01*
X18193837Y-3444634D01*
X18136716Y-3422708D01*
X18129014Y-3415774D01*
X16845722Y-2132482D01*
X15538572Y-825332D01*
X15460928Y-780505D01*
X15460925Y-780504D01*
X15460924Y-780503D01*
X15374330Y-757300D01*
X15374328Y-757300D01*
X12488172Y-757300D01*
X12488169Y-757300D01*
X12401575Y-780503D01*
X12401574Y-780504D01*
X12401572Y-780504D01*
X12401572Y-780505D01*
X12352406Y-808891D01*
X12323925Y-825334D01*
X12260531Y-888727D01*
X12260532Y-888728D01*
X8438756Y-4710504D01*
X8384239Y-4738281D01*
X8368752Y-4739500D01*
X8243386Y-4739500D01*
X8072297Y-4766597D01*
X8072293Y-4766598D01*
X7907561Y-4820123D01*
X7907558Y-4820125D01*
X7753212Y-4898767D01*
X7749898Y-4900799D01*
X7748847Y-4899085D01*
X7697735Y-4915656D01*
X7639557Y-4896711D01*
X7603625Y-4847187D01*
X7598800Y-4816656D01*
X7598800Y-2899048D01*
X7617707Y-2840857D01*
X7627796Y-2829044D01*
X7872644Y-2584196D01*
X7927161Y-2556419D01*
X7942648Y-2555200D01*
X8043074Y-2555200D01*
X8043075Y-2555200D01*
X8183085Y-2517684D01*
X8183087Y-2517682D01*
X8183089Y-2517682D01*
X8308610Y-2445212D01*
X8308610Y-2445211D01*
X8308615Y-2445209D01*
X8411109Y-2342715D01*
X8463313Y-2252296D01*
X8483582Y-2217189D01*
X8483582Y-2217187D01*
X8483584Y-2217185D01*
X8521100Y-2077175D01*
X8521100Y-1932225D01*
X8483584Y-1792215D01*
X8483582Y-1792212D01*
X8483582Y-1792210D01*
X8411112Y-1666689D01*
X8411110Y-1666687D01*
X8411109Y-1666685D01*
X8308615Y-1564191D01*
X8308612Y-1564189D01*
X8308610Y-1564187D01*
X8183088Y-1491717D01*
X8183089Y-1491717D01*
X8153496Y-1483787D01*
X8043075Y-1454200D01*
X7898125Y-1454200D01*
X7836390Y-1470741D01*
X7758110Y-1491717D01*
X7632589Y-1564187D01*
X7530087Y-1666689D01*
X7457617Y-1792210D01*
X7420100Y-1932225D01*
X7420100Y-2032652D01*
X7401193Y-2090843D01*
X7391104Y-2102656D01*
X7049228Y-2444532D01*
X7049227Y-2444531D01*
X6985834Y-2507925D01*
X6985832Y-2507927D01*
X6985832Y-2507928D01*
X6941005Y-2585572D01*
X6941004Y-2585574D01*
X6941003Y-2585575D01*
X6917800Y-2672169D01*
X6917800Y-4689129D01*
X6898893Y-4747320D01*
X6849393Y-4783284D01*
X6788207Y-4783284D01*
X6763800Y-4771446D01*
X6737742Y-4754035D01*
X6737740Y-4754034D01*
X6737737Y-4754033D01*
X6737736Y-4754033D01*
X6664684Y-4739501D01*
X6664674Y-4739500D01*
X4915326Y-4739500D01*
X4915325Y-4739500D01*
X4915315Y-4739501D01*
X4842263Y-4754033D01*
X4842257Y-4754035D01*
X4759400Y-4809397D01*
X4759397Y-4809400D01*
X4704035Y-4892257D01*
X4704033Y-4892263D01*
X4689501Y-4965315D01*
X4689500Y-4965327D01*
X4689500Y-6714672D01*
X4689501Y-6714684D01*
X4704033Y-6787736D01*
X4704035Y-6787742D01*
X4759397Y-6870599D01*
X4759400Y-6870602D01*
X4795926Y-6895007D01*
X4842260Y-6925966D01*
X4881473Y-6933766D01*
X4915315Y-6940498D01*
X4915320Y-6940498D01*
X4915326Y-6940500D01*
X5350500Y-6940500D01*
X5408691Y-6959407D01*
X5444655Y-7008907D01*
X5449500Y-7039500D01*
X5449500Y-19061387D01*
X5430593Y-19119578D01*
X5381093Y-19155542D01*
X5376125Y-19157013D01*
X5360816Y-19161115D01*
X5360811Y-19161117D01*
X5235289Y-19233587D01*
X5132787Y-19336089D01*
X5060317Y-19461610D01*
X5022800Y-19601625D01*
X5022800Y-19746574D01*
X5060317Y-19886589D01*
X5132787Y-20012110D01*
X5132789Y-20012112D01*
X5132791Y-20012115D01*
X5235285Y-20114609D01*
X5235287Y-20114610D01*
X5235289Y-20114612D01*
X5360811Y-20187082D01*
X5360812Y-20187082D01*
X5360815Y-20187084D01*
X5500825Y-20224600D01*
X5500826Y-20224600D01*
X5645774Y-20224600D01*
X5645775Y-20224600D01*
X5785785Y-20187084D01*
X5785787Y-20187082D01*
X5785789Y-20187082D01*
X5911310Y-20114612D01*
X5911310Y-20114611D01*
X5911315Y-20114609D01*
X6013809Y-20012115D01*
X6086284Y-19886585D01*
X6123800Y-19746575D01*
X6123800Y-19601625D01*
X6120699Y-19590051D01*
X6120699Y-19538804D01*
X6130500Y-19502228D01*
X6130500Y-19412572D01*
X6130500Y-7039500D01*
X6149407Y-6981309D01*
X6198907Y-6945345D01*
X6229500Y-6940500D01*
X6664673Y-6940500D01*
X6664674Y-6940500D01*
X6737740Y-6925966D01*
X6756665Y-6913321D01*
X6790913Y-6890438D01*
X6849801Y-6873829D01*
X6907204Y-6895007D01*
X6937086Y-6939727D01*
X6938522Y-6939133D01*
X6941004Y-6945125D01*
X6941005Y-6945128D01*
X6985832Y-7022772D01*
X9942130Y-9979069D01*
X9942132Y-9979072D01*
X10005528Y-10042468D01*
X10056117Y-10071675D01*
X10083172Y-10087295D01*
X10083173Y-10087295D01*
X10083174Y-10087296D01*
X10144046Y-10103607D01*
X10169770Y-10110500D01*
X10169772Y-10110501D01*
X10169773Y-10110501D01*
X10265491Y-10110501D01*
X10265507Y-10110500D01*
X17422768Y-10110500D01*
X17480959Y-10129407D01*
X17492771Y-10139496D01*
X17563784Y-10210508D01*
X17563789Y-10210512D01*
X17689311Y-10282982D01*
X17689312Y-10282982D01*
X17689315Y-10282984D01*
X17829325Y-10320500D01*
X17829326Y-10320500D01*
X17976452Y-10320500D01*
X18034643Y-10339407D01*
X18070607Y-10388907D01*
X18070607Y-10450093D01*
X18046456Y-10489504D01*
X9363856Y-19172104D01*
X9309339Y-19199881D01*
X9293852Y-19201100D01*
X9193425Y-19201100D01*
X9131690Y-19217641D01*
X9053410Y-19238617D01*
X8927889Y-19311087D01*
X8825387Y-19413589D01*
X8752917Y-19539110D01*
X8715400Y-19679125D01*
X8715400Y-19824074D01*
X8752917Y-19964089D01*
X8825387Y-20089610D01*
X8825389Y-20089612D01*
X8825391Y-20089615D01*
X8927885Y-20192109D01*
X8927887Y-20192110D01*
X8927889Y-20192112D01*
X9053411Y-20264582D01*
X9053412Y-20264582D01*
X9053415Y-20264584D01*
X9193425Y-20302100D01*
X9193426Y-20302100D01*
X9338374Y-20302100D01*
X9338375Y-20302100D01*
X9478385Y-20264584D01*
X9478387Y-20264582D01*
X9478389Y-20264582D01*
X9603910Y-20192112D01*
X9603910Y-20192111D01*
X9603915Y-20192109D01*
X9706409Y-20089615D01*
X9778884Y-19964085D01*
X9816400Y-19824075D01*
X9816400Y-19723647D01*
X9835307Y-19665456D01*
X9845390Y-19653649D01*
X18762468Y-10736572D01*
X18807295Y-10658928D01*
X18830500Y-10572328D01*
X18830500Y-10482672D01*
X18830500Y-9498426D01*
X18849407Y-9440235D01*
X18898905Y-9404272D01*
X18912445Y-9399873D01*
X19066788Y-9321232D01*
X19091309Y-9303416D01*
X19149498Y-9284508D01*
X19207689Y-9303414D01*
X19243654Y-9352913D01*
X19248500Y-9383508D01*
X19248500Y-11740452D01*
X19229593Y-11798643D01*
X19219504Y-11810456D01*
X19017956Y-12012004D01*
X18963439Y-12039781D01*
X18947952Y-12041000D01*
X18847525Y-12041000D01*
X18799293Y-12053924D01*
X18707510Y-12078517D01*
X18581989Y-12150987D01*
X18479487Y-12253489D01*
X18407017Y-12379010D01*
X18407016Y-12379015D01*
X18369500Y-12519025D01*
X18369500Y-12663975D01*
X18388563Y-12735118D01*
X18407017Y-12803989D01*
X18479487Y-12929510D01*
X18479489Y-12929512D01*
X18479491Y-12929515D01*
X18581985Y-13032009D01*
X18581987Y-13032010D01*
X18581989Y-13032012D01*
X18707511Y-13104482D01*
X18707512Y-13104482D01*
X18707515Y-13104484D01*
X18847525Y-13142000D01*
X18847526Y-13142000D01*
X18992475Y-13142000D01*
X19006716Y-13138184D01*
X19067818Y-13141385D01*
X19115368Y-13179889D01*
X19131205Y-13238990D01*
X19109279Y-13296111D01*
X19102345Y-13303814D01*
X7059162Y-25346997D01*
X7004645Y-25374774D01*
X6944213Y-25365203D01*
X6900948Y-25321938D01*
X6891622Y-25290062D01*
X6891450Y-25290097D01*
X6891062Y-25288150D01*
X6890634Y-25286685D01*
X6890499Y-25285319D01*
X6879594Y-25230499D01*
X6875966Y-25212260D01*
X6842696Y-25162467D01*
X6820602Y-25129400D01*
X6820599Y-25129397D01*
X6737742Y-25074035D01*
X6737740Y-25074034D01*
X6737737Y-25074033D01*
X6737736Y-25074033D01*
X6664684Y-25059501D01*
X6664674Y-25059500D01*
X4915326Y-25059500D01*
X4915325Y-25059500D01*
X4915315Y-25059501D01*
X4842263Y-25074033D01*
X4842257Y-25074035D01*
X4759400Y-25129397D01*
X4759397Y-25129400D01*
X4704035Y-25212257D01*
X4704033Y-25212263D01*
X4689501Y-25285315D01*
X4689500Y-25285327D01*
X4689500Y-27034672D01*
X4689501Y-27034684D01*
X4704033Y-27107736D01*
X4704035Y-27107742D01*
X4759397Y-27190599D01*
X4759400Y-27190602D01*
X4823455Y-27233401D01*
X4842260Y-27245966D01*
X4897808Y-27257015D01*
X4915315Y-27260498D01*
X4915320Y-27260498D01*
X4915326Y-27260500D01*
X4915327Y-27260500D01*
X6664673Y-27260500D01*
X6664674Y-27260500D01*
X6737740Y-27245966D01*
X6820601Y-27190601D01*
X6875966Y-27107740D01*
X6890500Y-27034674D01*
X6890500Y-26580759D01*
X6909407Y-26522568D01*
X6958907Y-26486604D01*
X6963852Y-26485139D01*
X6993128Y-26477295D01*
X7070772Y-26432468D01*
X7100414Y-26402825D01*
X7154927Y-26375050D01*
X7215359Y-26384621D01*
X7258624Y-26427885D01*
X7264569Y-26442238D01*
X7310123Y-26582438D01*
X7310125Y-26582441D01*
X7388765Y-26736784D01*
X7388768Y-26736788D01*
X7490586Y-26876928D01*
X7613072Y-26999414D01*
X7753212Y-27101232D01*
X7907555Y-27179873D01*
X7907557Y-27179873D01*
X7907558Y-27179874D01*
X7907561Y-27179876D01*
X8072293Y-27233401D01*
X8072297Y-27233402D01*
X8243386Y-27260500D01*
X8243389Y-27260500D01*
X8416614Y-27260500D01*
X8587702Y-27233402D01*
X8587706Y-27233401D01*
X8752438Y-27179876D01*
X8752440Y-27179874D01*
X8752445Y-27179873D01*
X8906788Y-27101232D01*
X9046928Y-26999414D01*
X9169414Y-26876928D01*
X9271232Y-26736788D01*
X9349873Y-26582445D01*
X9349874Y-26582440D01*
X9349876Y-26582438D01*
X9403401Y-26417706D01*
X9403402Y-26417702D01*
X9430500Y-26246614D01*
X9430500Y-26073384D01*
X9769500Y-26073384D01*
X9769500Y-26246614D01*
X9796597Y-26417702D01*
X9796598Y-26417706D01*
X9850123Y-26582438D01*
X9850125Y-26582441D01*
X9928765Y-26736784D01*
X9928768Y-26736788D01*
X10030586Y-26876928D01*
X10153072Y-26999414D01*
X10293212Y-27101232D01*
X10447555Y-27179873D01*
X10447557Y-27179873D01*
X10447558Y-27179874D01*
X10447561Y-27179876D01*
X10612293Y-27233401D01*
X10612297Y-27233402D01*
X10783386Y-27260500D01*
X10783389Y-27260500D01*
X10956614Y-27260500D01*
X11127702Y-27233402D01*
X11127706Y-27233401D01*
X11292438Y-27179876D01*
X11292440Y-27179874D01*
X11292445Y-27179873D01*
X11446788Y-27101232D01*
X11586928Y-26999414D01*
X11709414Y-26876928D01*
X11811232Y-26736788D01*
X11889873Y-26582445D01*
X11889874Y-26582440D01*
X11889876Y-26582438D01*
X11943401Y-26417706D01*
X11943402Y-26417702D01*
X11970500Y-26246614D01*
X11970500Y-26073384D01*
X12309500Y-26073384D01*
X12309500Y-26246614D01*
X12336597Y-26417702D01*
X12336598Y-26417706D01*
X12390123Y-26582438D01*
X12390125Y-26582441D01*
X12468765Y-26736784D01*
X12468768Y-26736788D01*
X12570586Y-26876928D01*
X12693072Y-26999414D01*
X12833212Y-27101232D01*
X12987555Y-27179873D01*
X12987557Y-27179873D01*
X12987558Y-27179874D01*
X12987561Y-27179876D01*
X13152293Y-27233401D01*
X13152297Y-27233402D01*
X13323386Y-27260500D01*
X13323389Y-27260500D01*
X13496614Y-27260500D01*
X13667702Y-27233402D01*
X13667706Y-27233401D01*
X13832438Y-27179876D01*
X13832440Y-27179874D01*
X13832445Y-27179873D01*
X13986788Y-27101232D01*
X14126928Y-26999414D01*
X14249414Y-26876928D01*
X14351232Y-26736788D01*
X14429873Y-26582445D01*
X14429874Y-26582440D01*
X14429876Y-26582438D01*
X14483401Y-26417706D01*
X14483402Y-26417702D01*
X14510500Y-26246614D01*
X14510500Y-26073384D01*
X14849500Y-26073384D01*
X14849500Y-26246614D01*
X14876597Y-26417702D01*
X14876598Y-26417706D01*
X14930123Y-26582438D01*
X14930125Y-26582441D01*
X15008765Y-26736784D01*
X15008768Y-26736788D01*
X15110586Y-26876928D01*
X15233072Y-26999414D01*
X15373212Y-27101232D01*
X15527555Y-27179873D01*
X15527557Y-27179873D01*
X15527558Y-27179874D01*
X15527561Y-27179876D01*
X15692293Y-27233401D01*
X15692297Y-27233402D01*
X15863386Y-27260500D01*
X15863389Y-27260500D01*
X16036614Y-27260500D01*
X16207702Y-27233402D01*
X16207706Y-27233401D01*
X16372438Y-27179876D01*
X16372440Y-27179874D01*
X16372445Y-27179873D01*
X16526788Y-27101232D01*
X16666928Y-26999414D01*
X16789414Y-26876928D01*
X16891232Y-26736788D01*
X16969873Y-26582445D01*
X16969874Y-26582440D01*
X16969876Y-26582438D01*
X17023401Y-26417706D01*
X17023402Y-26417702D01*
X17050500Y-26246614D01*
X17050500Y-26073384D01*
X17389500Y-26073384D01*
X17389500Y-26246614D01*
X17416597Y-26417702D01*
X17416598Y-26417706D01*
X17470123Y-26582438D01*
X17470125Y-26582441D01*
X17548765Y-26736784D01*
X17548768Y-26736788D01*
X17650586Y-26876928D01*
X17773072Y-26999414D01*
X17913212Y-27101232D01*
X18067555Y-27179873D01*
X18067557Y-27179873D01*
X18067558Y-27179874D01*
X18067561Y-27179876D01*
X18232293Y-27233401D01*
X18232297Y-27233402D01*
X18403386Y-27260500D01*
X18403389Y-27260500D01*
X18576614Y-27260500D01*
X18747702Y-27233402D01*
X18747706Y-27233401D01*
X18912438Y-27179876D01*
X18912440Y-27179874D01*
X18912445Y-27179873D01*
X19066788Y-27101232D01*
X19206928Y-26999414D01*
X19329414Y-26876928D01*
X19431232Y-26736788D01*
X19509873Y-26582445D01*
X19509874Y-26582440D01*
X19509876Y-26582438D01*
X19563401Y-26417706D01*
X19563402Y-26417702D01*
X19590500Y-26246614D01*
X19590500Y-26073384D01*
X19929500Y-26073384D01*
X19929500Y-26246614D01*
X19956597Y-26417702D01*
X19956598Y-26417706D01*
X20010123Y-26582438D01*
X20010125Y-26582441D01*
X20088765Y-26736784D01*
X20088768Y-26736788D01*
X20190586Y-26876928D01*
X20313072Y-26999414D01*
X20453212Y-27101232D01*
X20607555Y-27179873D01*
X20607557Y-27179873D01*
X20607558Y-27179874D01*
X20607561Y-27179876D01*
X20772293Y-27233401D01*
X20772297Y-27233402D01*
X20943386Y-27260500D01*
X20943389Y-27260500D01*
X21116614Y-27260500D01*
X21287702Y-27233402D01*
X21287706Y-27233401D01*
X21452438Y-27179876D01*
X21452440Y-27179874D01*
X21452445Y-27179873D01*
X21606788Y-27101232D01*
X21746928Y-26999414D01*
X21869414Y-26876928D01*
X21971232Y-26736788D01*
X22049873Y-26582445D01*
X22049874Y-26582440D01*
X22049876Y-26582438D01*
X22103401Y-26417706D01*
X22103402Y-26417702D01*
X22130500Y-26246614D01*
X22130500Y-26073384D01*
X22130499Y-26073378D01*
X22103402Y-25902297D01*
X22103401Y-25902293D01*
X22049876Y-25737561D01*
X22049874Y-25737558D01*
X22049873Y-25737557D01*
X22049873Y-25737555D01*
X21971232Y-25583212D01*
X21869414Y-25443072D01*
X21746928Y-25320586D01*
X21606788Y-25218768D01*
X21606787Y-25218767D01*
X21606785Y-25218766D01*
X21452441Y-25140125D01*
X21452438Y-25140123D01*
X21287706Y-25086598D01*
X21287702Y-25086597D01*
X21116614Y-25059500D01*
X21116611Y-25059500D01*
X20943389Y-25059500D01*
X20943386Y-25059500D01*
X20772297Y-25086597D01*
X20772293Y-25086598D01*
X20607561Y-25140123D01*
X20607558Y-25140125D01*
X20453214Y-25218766D01*
X20313073Y-25320585D01*
X20190585Y-25443073D01*
X20088766Y-25583214D01*
X20010125Y-25737558D01*
X20010123Y-25737561D01*
X19956598Y-25902293D01*
X19956597Y-25902297D01*
X19929501Y-26073378D01*
X19929500Y-26073384D01*
X19590500Y-26073384D01*
X19590499Y-26073378D01*
X19563402Y-25902297D01*
X19563401Y-25902293D01*
X19509876Y-25737561D01*
X19509874Y-25737558D01*
X19509873Y-25737557D01*
X19509873Y-25737555D01*
X19431232Y-25583212D01*
X19329414Y-25443072D01*
X19206928Y-25320586D01*
X19066788Y-25218768D01*
X19066787Y-25218767D01*
X19066785Y-25218766D01*
X18912441Y-25140125D01*
X18912438Y-25140123D01*
X18747706Y-25086598D01*
X18747702Y-25086597D01*
X18576614Y-25059500D01*
X18576611Y-25059500D01*
X18403389Y-25059500D01*
X18403386Y-25059500D01*
X18232297Y-25086597D01*
X18232293Y-25086598D01*
X18067561Y-25140123D01*
X18067558Y-25140125D01*
X17913214Y-25218766D01*
X17773073Y-25320585D01*
X17650585Y-25443073D01*
X17548766Y-25583214D01*
X17470125Y-25737558D01*
X17470123Y-25737561D01*
X17416598Y-25902293D01*
X17416597Y-25902297D01*
X17389501Y-26073378D01*
X17389500Y-26073384D01*
X17050500Y-26073384D01*
X17050499Y-26073378D01*
X17023402Y-25902297D01*
X17023401Y-25902293D01*
X16969876Y-25737561D01*
X16969874Y-25737558D01*
X16969873Y-25737557D01*
X16969873Y-25737555D01*
X16891232Y-25583212D01*
X16789414Y-25443072D01*
X16666928Y-25320586D01*
X16526788Y-25218768D01*
X16526787Y-25218767D01*
X16526785Y-25218766D01*
X16372441Y-25140125D01*
X16372438Y-25140123D01*
X16207706Y-25086598D01*
X16207702Y-25086597D01*
X16036614Y-25059500D01*
X16036611Y-25059500D01*
X15863389Y-25059500D01*
X15863386Y-25059500D01*
X15692297Y-25086597D01*
X15692293Y-25086598D01*
X15527561Y-25140123D01*
X15527558Y-25140125D01*
X15373214Y-25218766D01*
X15233073Y-25320585D01*
X15110585Y-25443073D01*
X15008766Y-25583214D01*
X14930125Y-25737558D01*
X14930123Y-25737561D01*
X14876598Y-25902293D01*
X14876597Y-25902297D01*
X14849501Y-26073378D01*
X14849500Y-26073384D01*
X14510500Y-26073384D01*
X14510499Y-26073378D01*
X14483402Y-25902297D01*
X14483401Y-25902293D01*
X14429876Y-25737561D01*
X14429874Y-25737558D01*
X14429873Y-25737557D01*
X14429873Y-25737555D01*
X14351232Y-25583212D01*
X14249414Y-25443072D01*
X14126928Y-25320586D01*
X13986788Y-25218768D01*
X13986787Y-25218767D01*
X13986785Y-25218766D01*
X13832441Y-25140125D01*
X13832438Y-25140123D01*
X13667706Y-25086598D01*
X13667702Y-25086597D01*
X13496614Y-25059500D01*
X13496611Y-25059500D01*
X13323389Y-25059500D01*
X13323386Y-25059500D01*
X13152297Y-25086597D01*
X13152293Y-25086598D01*
X12987561Y-25140123D01*
X12987558Y-25140125D01*
X12833214Y-25218766D01*
X12693073Y-25320585D01*
X12570585Y-25443073D01*
X12468766Y-25583214D01*
X12390125Y-25737558D01*
X12390123Y-25737561D01*
X12336598Y-25902293D01*
X12336597Y-25902297D01*
X12309501Y-26073378D01*
X12309500Y-26073384D01*
X11970500Y-26073384D01*
X11970499Y-26073378D01*
X11943402Y-25902297D01*
X11943401Y-25902293D01*
X11889876Y-25737561D01*
X11889874Y-25737558D01*
X11889873Y-25737557D01*
X11889873Y-25737555D01*
X11811232Y-25583212D01*
X11709414Y-25443072D01*
X11586928Y-25320586D01*
X11446788Y-25218768D01*
X11446787Y-25218767D01*
X11446785Y-25218766D01*
X11292441Y-25140125D01*
X11292438Y-25140123D01*
X11127706Y-25086598D01*
X11127702Y-25086597D01*
X10956614Y-25059500D01*
X10956611Y-25059500D01*
X10783389Y-25059500D01*
X10783386Y-25059500D01*
X10612297Y-25086597D01*
X10612293Y-25086598D01*
X10447561Y-25140123D01*
X10447558Y-25140125D01*
X10293214Y-25218766D01*
X10153073Y-25320585D01*
X10030585Y-25443073D01*
X9928766Y-25583214D01*
X9850125Y-25737558D01*
X9850123Y-25737561D01*
X9796598Y-25902293D01*
X9796597Y-25902297D01*
X9769501Y-26073378D01*
X9769500Y-26073384D01*
X9430500Y-26073384D01*
X9430499Y-26073378D01*
X9403402Y-25902297D01*
X9403401Y-25902293D01*
X9349876Y-25737561D01*
X9349874Y-25737558D01*
X9349873Y-25737557D01*
X9349873Y-25737555D01*
X9271232Y-25583212D01*
X9169414Y-25443072D01*
X9046928Y-25320586D01*
X8906788Y-25218768D01*
X8906787Y-25218767D01*
X8906785Y-25218766D01*
X8752441Y-25140125D01*
X8752438Y-25140123D01*
X8587706Y-25086598D01*
X8587701Y-25086597D01*
X8516259Y-25075282D01*
X8461742Y-25047504D01*
X8433965Y-24992988D01*
X8443536Y-24932556D01*
X8461739Y-24907500D01*
X9617499Y-23751740D01*
X9672014Y-23723965D01*
X9732446Y-23733536D01*
X9775711Y-23776801D01*
X9785282Y-23806259D01*
X9796597Y-23877701D01*
X9796598Y-23877706D01*
X9850123Y-24042438D01*
X9850125Y-24042441D01*
X9927674Y-24194642D01*
X9928768Y-24196788D01*
X10030586Y-24336928D01*
X10153072Y-24459414D01*
X10293212Y-24561232D01*
X10447555Y-24639873D01*
X10447557Y-24639873D01*
X10447558Y-24639874D01*
X10447561Y-24639876D01*
X10612293Y-24693401D01*
X10612297Y-24693402D01*
X10783386Y-24720500D01*
X10783389Y-24720500D01*
X10956614Y-24720500D01*
X11127702Y-24693402D01*
X11127706Y-24693401D01*
X11292438Y-24639876D01*
X11292440Y-24639874D01*
X11292445Y-24639873D01*
X11446788Y-24561232D01*
X11586928Y-24459414D01*
X11709414Y-24336928D01*
X11811232Y-24196788D01*
X11889873Y-24042445D01*
X11889874Y-24042440D01*
X11889876Y-24042438D01*
X11943401Y-23877706D01*
X11943402Y-23877702D01*
X11970500Y-23706614D01*
X11970500Y-23533385D01*
X12309500Y-23533385D01*
X12309500Y-23706614D01*
X12336597Y-23877702D01*
X12336598Y-23877706D01*
X12390123Y-24042438D01*
X12390125Y-24042441D01*
X12467674Y-24194642D01*
X12468768Y-24196788D01*
X12570586Y-24336928D01*
X12693072Y-24459414D01*
X12833212Y-24561232D01*
X12987555Y-24639873D01*
X12987557Y-24639873D01*
X12987558Y-24639874D01*
X12987561Y-24639876D01*
X13152293Y-24693401D01*
X13152297Y-24693402D01*
X13323386Y-24720500D01*
X13323389Y-24720500D01*
X13496614Y-24720500D01*
X13667702Y-24693402D01*
X13667706Y-24693401D01*
X13832438Y-24639876D01*
X13832440Y-24639874D01*
X13832445Y-24639873D01*
X13986788Y-24561232D01*
X14126928Y-24459414D01*
X14249414Y-24336928D01*
X14351232Y-24196788D01*
X14429873Y-24042445D01*
X14429874Y-24042440D01*
X14429876Y-24042438D01*
X14483401Y-23877706D01*
X14483402Y-23877702D01*
X14510500Y-23706614D01*
X14510500Y-23533385D01*
X14849500Y-23533385D01*
X14849500Y-23706614D01*
X14876597Y-23877702D01*
X14876598Y-23877706D01*
X14930123Y-24042438D01*
X14930125Y-24042441D01*
X15007674Y-24194642D01*
X15008768Y-24196788D01*
X15110586Y-24336928D01*
X15233072Y-24459414D01*
X15373212Y-24561232D01*
X15527555Y-24639873D01*
X15527557Y-24639873D01*
X15527558Y-24639874D01*
X15527561Y-24639876D01*
X15692293Y-24693401D01*
X15692297Y-24693402D01*
X15863386Y-24720500D01*
X15863389Y-24720500D01*
X16036614Y-24720500D01*
X16207702Y-24693402D01*
X16207706Y-24693401D01*
X16372438Y-24639876D01*
X16372440Y-24639874D01*
X16372445Y-24639873D01*
X16526788Y-24561232D01*
X16666928Y-24459414D01*
X16789414Y-24336928D01*
X16891232Y-24196788D01*
X16969873Y-24042445D01*
X16969874Y-24042440D01*
X16969876Y-24042438D01*
X17023401Y-23877706D01*
X17023402Y-23877702D01*
X17050500Y-23706614D01*
X17050500Y-23533385D01*
X17389500Y-23533385D01*
X17389500Y-23706614D01*
X17416597Y-23877702D01*
X17416598Y-23877706D01*
X17470123Y-24042438D01*
X17470125Y-24042441D01*
X17547674Y-24194642D01*
X17548768Y-24196788D01*
X17650586Y-24336928D01*
X17773072Y-24459414D01*
X17913212Y-24561232D01*
X18067555Y-24639873D01*
X18067557Y-24639873D01*
X18067558Y-24639874D01*
X18067561Y-24639876D01*
X18232293Y-24693401D01*
X18232297Y-24693402D01*
X18403386Y-24720500D01*
X18403389Y-24720500D01*
X18576614Y-24720500D01*
X18747702Y-24693402D01*
X18747706Y-24693401D01*
X18912438Y-24639876D01*
X18912440Y-24639874D01*
X18912445Y-24639873D01*
X19066788Y-24561232D01*
X19206928Y-24459414D01*
X19329414Y-24336928D01*
X19431232Y-24196788D01*
X19509873Y-24042445D01*
X19509874Y-24042440D01*
X19509876Y-24042438D01*
X19563401Y-23877706D01*
X19563402Y-23877702D01*
X19590500Y-23706614D01*
X19590500Y-23533385D01*
X19563402Y-23362297D01*
X19563401Y-23362293D01*
X19509876Y-23197561D01*
X19509874Y-23197558D01*
X19509873Y-23197557D01*
X19509873Y-23197555D01*
X19431232Y-23043212D01*
X19329414Y-22903072D01*
X19206928Y-22780586D01*
X19066788Y-22678768D01*
X19066787Y-22678767D01*
X19066785Y-22678766D01*
X18912441Y-22600125D01*
X18912438Y-22600123D01*
X18747706Y-22546598D01*
X18747702Y-22546597D01*
X18576614Y-22519500D01*
X18576611Y-22519500D01*
X18403389Y-22519500D01*
X18403386Y-22519500D01*
X18232297Y-22546597D01*
X18232293Y-22546598D01*
X18067561Y-22600123D01*
X18067558Y-22600125D01*
X17913214Y-22678766D01*
X17773073Y-22780585D01*
X17650585Y-22903073D01*
X17548766Y-23043214D01*
X17470125Y-23197558D01*
X17470123Y-23197561D01*
X17416598Y-23362293D01*
X17416597Y-23362297D01*
X17389500Y-23533385D01*
X17050500Y-23533385D01*
X17023402Y-23362297D01*
X17023401Y-23362293D01*
X16969876Y-23197561D01*
X16969874Y-23197558D01*
X16969873Y-23197557D01*
X16969873Y-23197555D01*
X16891232Y-23043212D01*
X16789414Y-22903072D01*
X16666928Y-22780586D01*
X16526788Y-22678768D01*
X16526787Y-22678767D01*
X16526785Y-22678766D01*
X16372441Y-22600125D01*
X16372438Y-22600123D01*
X16207706Y-22546598D01*
X16207702Y-22546597D01*
X16036614Y-22519500D01*
X16036611Y-22519500D01*
X15863389Y-22519500D01*
X15863386Y-22519500D01*
X15692297Y-22546597D01*
X15692293Y-22546598D01*
X15527561Y-22600123D01*
X15527558Y-22600125D01*
X15373214Y-22678766D01*
X15233073Y-22780585D01*
X15110585Y-22903073D01*
X15008766Y-23043214D01*
X14930125Y-23197558D01*
X14930123Y-23197561D01*
X14876598Y-23362293D01*
X14876597Y-23362297D01*
X14849500Y-23533385D01*
X14510500Y-23533385D01*
X14483402Y-23362297D01*
X14483401Y-23362293D01*
X14429876Y-23197561D01*
X14429874Y-23197558D01*
X14429873Y-23197557D01*
X14429873Y-23197555D01*
X14351232Y-23043212D01*
X14249414Y-22903072D01*
X14126928Y-22780586D01*
X13986788Y-22678768D01*
X13986787Y-22678767D01*
X13986785Y-22678766D01*
X13832441Y-22600125D01*
X13832438Y-22600123D01*
X13667706Y-22546598D01*
X13667702Y-22546597D01*
X13496614Y-22519500D01*
X13496611Y-22519500D01*
X13323389Y-22519500D01*
X13323386Y-22519500D01*
X13152297Y-22546597D01*
X13152293Y-22546598D01*
X12987561Y-22600123D01*
X12987558Y-22600125D01*
X12833214Y-22678766D01*
X12693073Y-22780585D01*
X12570585Y-22903073D01*
X12468766Y-23043214D01*
X12390125Y-23197558D01*
X12390123Y-23197561D01*
X12336598Y-23362293D01*
X12336597Y-23362297D01*
X12309500Y-23533385D01*
X11970500Y-23533385D01*
X11943402Y-23362297D01*
X11943401Y-23362293D01*
X11889876Y-23197561D01*
X11889874Y-23197558D01*
X11889873Y-23197557D01*
X11889873Y-23197555D01*
X11811232Y-23043212D01*
X11709414Y-22903072D01*
X11586928Y-22780586D01*
X11446788Y-22678768D01*
X11446787Y-22678767D01*
X11446785Y-22678766D01*
X11292441Y-22600125D01*
X11292438Y-22600123D01*
X11127706Y-22546598D01*
X11127701Y-22546597D01*
X11056259Y-22535282D01*
X11001742Y-22507504D01*
X10973965Y-22452988D01*
X10983536Y-22392556D01*
X11001739Y-22367500D01*
X23108144Y-10261096D01*
X23162661Y-10233319D01*
X23178148Y-10232100D01*
X25042268Y-10232100D01*
X25100459Y-10251007D01*
X25112271Y-10261096D01*
X25183284Y-10332108D01*
X25183289Y-10332112D01*
X25308811Y-10404582D01*
X25308812Y-10404582D01*
X25308815Y-10404584D01*
X25448825Y-10442100D01*
X25448826Y-10442100D01*
X25593774Y-10442100D01*
X25593775Y-10442100D01*
X25733785Y-10404584D01*
X25733787Y-10404582D01*
X25733789Y-10404582D01*
X25859310Y-10332112D01*
X25859310Y-10332111D01*
X25859315Y-10332109D01*
X25961809Y-10229615D01*
X25972840Y-10210509D01*
X26034282Y-10104089D01*
X26034282Y-10104087D01*
X26034284Y-10104085D01*
X26071800Y-9964075D01*
X26071800Y-9819125D01*
X26034284Y-9679115D01*
X26029797Y-9671344D01*
X26005350Y-9629000D01*
X25992629Y-9569152D01*
X26017516Y-9513256D01*
X26070504Y-9482663D01*
X26091087Y-9480500D01*
X26196614Y-9480500D01*
X26367702Y-9453402D01*
X26367706Y-9453401D01*
X26532438Y-9399876D01*
X26532440Y-9399874D01*
X26532445Y-9399873D01*
X26686788Y-9321232D01*
X26826928Y-9219414D01*
X26949414Y-9096928D01*
X27038695Y-8974042D01*
X27088194Y-8938080D01*
X27149379Y-8938079D01*
X27188788Y-8962228D01*
X28434830Y-10208269D01*
X28434832Y-10208272D01*
X28498228Y-10271668D01*
X28575872Y-10316495D01*
X28575874Y-10316495D01*
X28575875Y-10316496D01*
X28619172Y-10328097D01*
X28662469Y-10339699D01*
X28662471Y-10339700D01*
X28662472Y-10339700D01*
X42499668Y-10339700D01*
X42502006Y-10340459D01*
X42504378Y-10339812D01*
X42516452Y-10345153D01*
X42557859Y-10358607D01*
X42561603Y-10361466D01*
X42565838Y-10364862D01*
X42640685Y-10439709D01*
X42706706Y-10477826D01*
X42712599Y-10482552D01*
X42725441Y-10502123D01*
X42741105Y-10519519D01*
X42741915Y-10527227D01*
X42746167Y-10533707D01*
X42745053Y-10557086D01*
X42747501Y-10580369D01*
X42743603Y-10587547D01*
X42743257Y-10594823D01*
X42732097Y-10608738D01*
X42720668Y-10629790D01*
X41437256Y-11913204D01*
X41382739Y-11940981D01*
X41367252Y-11942200D01*
X35823969Y-11942200D01*
X35737375Y-11965403D01*
X35737374Y-11965404D01*
X35659728Y-12010232D01*
X28440928Y-19229032D01*
X28440927Y-19229031D01*
X28377534Y-19292425D01*
X28377532Y-19292427D01*
X28377532Y-19292428D01*
X28352327Y-19336085D01*
X28332704Y-19370074D01*
X28332703Y-19370075D01*
X28309500Y-19456669D01*
X28309500Y-22501574D01*
X28290593Y-22559765D01*
X28241094Y-22595727D01*
X28227567Y-22600123D01*
X28227552Y-22600128D01*
X28073214Y-22678766D01*
X27933073Y-22780585D01*
X27810585Y-22903073D01*
X27708766Y-23043214D01*
X27630125Y-23197558D01*
X27630123Y-23197561D01*
X27576598Y-23362293D01*
X27576597Y-23362297D01*
X27549500Y-23533385D01*
X27549500Y-23706614D01*
X27576597Y-23877702D01*
X27576598Y-23877706D01*
X27630123Y-24042438D01*
X27630125Y-24042441D01*
X27707674Y-24194642D01*
X27708768Y-24196788D01*
X27810586Y-24336928D01*
X27854156Y-24380498D01*
X27881932Y-24435013D01*
X27872361Y-24495445D01*
X27829096Y-24538710D01*
X27784151Y-24549500D01*
X27562048Y-24549500D01*
X27503857Y-24530593D01*
X27492044Y-24520504D01*
X27141616Y-24170076D01*
X27113839Y-24115559D01*
X27123409Y-24055130D01*
X27129873Y-24042445D01*
X27149200Y-23982963D01*
X27183401Y-23877706D01*
X27183402Y-23877702D01*
X27210500Y-23706614D01*
X27210500Y-23533385D01*
X27183402Y-23362297D01*
X27183401Y-23362293D01*
X27129876Y-23197561D01*
X27129874Y-23197558D01*
X27129873Y-23197557D01*
X27129873Y-23197555D01*
X27051232Y-23043212D01*
X26949414Y-22903072D01*
X26826928Y-22780586D01*
X26686788Y-22678768D01*
X26686787Y-22678767D01*
X26686785Y-22678766D01*
X26532441Y-22600125D01*
X26532438Y-22600123D01*
X26367706Y-22546598D01*
X26367702Y-22546597D01*
X26196614Y-22519500D01*
X26196611Y-22519500D01*
X26023389Y-22519500D01*
X26023386Y-22519500D01*
X25852297Y-22546597D01*
X25852293Y-22546598D01*
X25687561Y-22600123D01*
X25687558Y-22600125D01*
X25533214Y-22678766D01*
X25393073Y-22780585D01*
X25270585Y-22903073D01*
X25168766Y-23043214D01*
X25090125Y-23197558D01*
X25090123Y-23197561D01*
X25036598Y-23362293D01*
X25036597Y-23362297D01*
X25009500Y-23533385D01*
X25009500Y-23706614D01*
X25036597Y-23877702D01*
X25036598Y-23877706D01*
X25090123Y-24042438D01*
X25090125Y-24042441D01*
X25167674Y-24194642D01*
X25168768Y-24196788D01*
X25270586Y-24336928D01*
X25393072Y-24459414D01*
X25533212Y-24561232D01*
X25687555Y-24639873D01*
X25687557Y-24639873D01*
X25687558Y-24639874D01*
X25687561Y-24639876D01*
X25852293Y-24693401D01*
X25852297Y-24693402D01*
X26023386Y-24720500D01*
X26023389Y-24720500D01*
X26196614Y-24720500D01*
X26367702Y-24693402D01*
X26367706Y-24693401D01*
X26532436Y-24639876D01*
X26532442Y-24639874D01*
X26532442Y-24639873D01*
X26532445Y-24639873D01*
X26545125Y-24633411D01*
X26605556Y-24623838D01*
X26660073Y-24651614D01*
X26660076Y-24651616D01*
X27170928Y-25162468D01*
X27248572Y-25207295D01*
X27248574Y-25207295D01*
X27248575Y-25207296D01*
X27267090Y-25212257D01*
X27335169Y-25230499D01*
X27335171Y-25230500D01*
X27335172Y-25230500D01*
X27424828Y-25230500D01*
X27784151Y-25230500D01*
X27842342Y-25249407D01*
X27878306Y-25298907D01*
X27878306Y-25360093D01*
X27854156Y-25399501D01*
X27810586Y-25443072D01*
X27810585Y-25443073D01*
X27708766Y-25583214D01*
X27630125Y-25737558D01*
X27630123Y-25737561D01*
X27576598Y-25902293D01*
X27576597Y-25902297D01*
X27549501Y-26073378D01*
X27549500Y-26073384D01*
X27549500Y-26246614D01*
X27576597Y-26417702D01*
X27576598Y-26417706D01*
X27630123Y-26582438D01*
X27630125Y-26582441D01*
X27708765Y-26736784D01*
X27708768Y-26736788D01*
X27810586Y-26876928D01*
X27933072Y-26999414D01*
X28073212Y-27101232D01*
X28227555Y-27179873D01*
X28227557Y-27179873D01*
X28227558Y-27179874D01*
X28227561Y-27179876D01*
X28392293Y-27233401D01*
X28392297Y-27233402D01*
X28563386Y-27260500D01*
X28563389Y-27260500D01*
X28736614Y-27260500D01*
X28907702Y-27233402D01*
X28907706Y-27233401D01*
X29072436Y-27179876D01*
X29072442Y-27179874D01*
X29072442Y-27179873D01*
X29072445Y-27179873D01*
X29085125Y-27173411D01*
X29145556Y-27163838D01*
X29200073Y-27191614D01*
X29200076Y-27191616D01*
X29419756Y-27411296D01*
X29447533Y-27465813D01*
X29437962Y-27526245D01*
X29394697Y-27569510D01*
X29349752Y-27580300D01*
X26529447Y-27580300D01*
X26471256Y-27561393D01*
X26459443Y-27551304D01*
X26309853Y-27401714D01*
X26282076Y-27347197D01*
X26291647Y-27286765D01*
X26334912Y-27243500D01*
X26364383Y-27233927D01*
X26367701Y-27233402D01*
X26367704Y-27233401D01*
X26367706Y-27233401D01*
X26532438Y-27179876D01*
X26532440Y-27179874D01*
X26532445Y-27179873D01*
X26686788Y-27101232D01*
X26826928Y-26999414D01*
X26949414Y-26876928D01*
X27051232Y-26736788D01*
X27129873Y-26582445D01*
X27129874Y-26582440D01*
X27129876Y-26582438D01*
X27183401Y-26417706D01*
X27183402Y-26417702D01*
X27210500Y-26246614D01*
X27210500Y-26073384D01*
X27210499Y-26073378D01*
X27183402Y-25902297D01*
X27183401Y-25902293D01*
X27129876Y-25737561D01*
X27129874Y-25737558D01*
X27129873Y-25737557D01*
X27129873Y-25737555D01*
X27051232Y-25583212D01*
X26949414Y-25443072D01*
X26826928Y-25320586D01*
X26686788Y-25218768D01*
X26686787Y-25218767D01*
X26686785Y-25218766D01*
X26532441Y-25140125D01*
X26532438Y-25140123D01*
X26367706Y-25086598D01*
X26367702Y-25086597D01*
X26196614Y-25059500D01*
X26196611Y-25059500D01*
X26023389Y-25059500D01*
X26023386Y-25059500D01*
X25852297Y-25086597D01*
X25852293Y-25086598D01*
X25687561Y-25140123D01*
X25687558Y-25140125D01*
X25533214Y-25218766D01*
X25435036Y-25290097D01*
X25393072Y-25320586D01*
X25270586Y-25443072D01*
X25169190Y-25582632D01*
X25166482Y-25586359D01*
X25165360Y-25585544D01*
X25122973Y-25621731D01*
X25061975Y-25626519D01*
X25015103Y-25600263D01*
X24129736Y-24714896D01*
X24101959Y-24660379D01*
X24111530Y-24599947D01*
X24144334Y-24564471D01*
X24143641Y-24563518D01*
X24146785Y-24561233D01*
X24146788Y-24561232D01*
X24286928Y-24459414D01*
X24409414Y-24336928D01*
X24511232Y-24196788D01*
X24589873Y-24042445D01*
X24589874Y-24042440D01*
X24589876Y-24042438D01*
X24643401Y-23877706D01*
X24643402Y-23877702D01*
X24670500Y-23706614D01*
X24670500Y-23533385D01*
X24643402Y-23362297D01*
X24643401Y-23362293D01*
X24589876Y-23197561D01*
X24589874Y-23197558D01*
X24589873Y-23197557D01*
X24589873Y-23197555D01*
X24511232Y-23043212D01*
X24409414Y-22903072D01*
X24286928Y-22780586D01*
X24146788Y-22678768D01*
X24146787Y-22678767D01*
X24146785Y-22678766D01*
X23992441Y-22600125D01*
X23992438Y-22600123D01*
X23827706Y-22546598D01*
X23827702Y-22546597D01*
X23656614Y-22519500D01*
X23656611Y-22519500D01*
X23483389Y-22519500D01*
X23483386Y-22519500D01*
X23312297Y-22546597D01*
X23312293Y-22546598D01*
X23147561Y-22600123D01*
X23147558Y-22600125D01*
X22993214Y-22678766D01*
X22853079Y-22780581D01*
X22853072Y-22780586D01*
X22730586Y-22903072D01*
X22640501Y-23027064D01*
X22626482Y-23046359D01*
X22625242Y-23045458D01*
X22583208Y-23081339D01*
X22522209Y-23086122D01*
X22470050Y-23054137D01*
X22466975Y-23049775D01*
X22466717Y-23049974D01*
X22462770Y-23044830D01*
X22399372Y-22981431D01*
X22399372Y-22981432D01*
X21205572Y-21787632D01*
X21127928Y-21742805D01*
X21127925Y-21742804D01*
X21127924Y-21742803D01*
X21041330Y-21719600D01*
X21041328Y-21719600D01*
X20864632Y-21719600D01*
X20806441Y-21700693D01*
X20794629Y-21690604D01*
X20723515Y-21619491D01*
X20723510Y-21619487D01*
X20597988Y-21547017D01*
X20597989Y-21547017D01*
X20568396Y-21539087D01*
X20457975Y-21509500D01*
X20313025Y-21509500D01*
X20251290Y-21526041D01*
X20173010Y-21547017D01*
X20047489Y-21619487D01*
X19944987Y-21721989D01*
X19872517Y-21847510D01*
X19872516Y-21847515D01*
X19835000Y-21987525D01*
X19835000Y-22132475D01*
X19864115Y-22241132D01*
X19872517Y-22272489D01*
X19944987Y-22398010D01*
X19944989Y-22398012D01*
X19944991Y-22398015D01*
X20047485Y-22500509D01*
X20047487Y-22500510D01*
X20047489Y-22500512D01*
X20173011Y-22572982D01*
X20173009Y-22572982D01*
X20173013Y-22572983D01*
X20173015Y-22572984D01*
X20283603Y-22602616D01*
X20334915Y-22635939D01*
X20356842Y-22693061D01*
X20341006Y-22752161D01*
X20316181Y-22778326D01*
X20313077Y-22780581D01*
X20190585Y-22903073D01*
X20088766Y-23043214D01*
X20010125Y-23197558D01*
X20010123Y-23197561D01*
X19956598Y-23362293D01*
X19956597Y-23362297D01*
X19929500Y-23533385D01*
X19929500Y-23706614D01*
X19956597Y-23877702D01*
X19956598Y-23877706D01*
X20010123Y-24042438D01*
X20010125Y-24042441D01*
X20087674Y-24194642D01*
X20088768Y-24196788D01*
X20190586Y-24336928D01*
X20313072Y-24459414D01*
X20453212Y-24561232D01*
X20607555Y-24639873D01*
X20607557Y-24639873D01*
X20607558Y-24639874D01*
X20607561Y-24639876D01*
X20772293Y-24693401D01*
X20772297Y-24693402D01*
X20943386Y-24720500D01*
X20943389Y-24720500D01*
X21116614Y-24720500D01*
X21287702Y-24693402D01*
X21287706Y-24693401D01*
X21452438Y-24639876D01*
X21452440Y-24639874D01*
X21452445Y-24639873D01*
X21606788Y-24561232D01*
X21746928Y-24459414D01*
X21869414Y-24336928D01*
X21971232Y-24196788D01*
X21971240Y-24196770D01*
X21971880Y-24195729D01*
X21972198Y-24195456D01*
X21973518Y-24193641D01*
X21973953Y-24193957D01*
X22018401Y-24155987D01*
X22079397Y-24151179D01*
X22126302Y-24177442D01*
X23012558Y-25063697D01*
X23040335Y-25118214D01*
X23030764Y-25178646D01*
X22996108Y-25216137D01*
X22996359Y-25216482D01*
X22994625Y-25217741D01*
X22994285Y-25218110D01*
X22993219Y-25218763D01*
X22853073Y-25320585D01*
X22730585Y-25443073D01*
X22628766Y-25583214D01*
X22550125Y-25737558D01*
X22550123Y-25737561D01*
X22496598Y-25902293D01*
X22496597Y-25902297D01*
X22469501Y-26073378D01*
X22469500Y-26073384D01*
X22469500Y-26246614D01*
X22496597Y-26417702D01*
X22496598Y-26417706D01*
X22550123Y-26582438D01*
X22550125Y-26582441D01*
X22628765Y-26736784D01*
X22628768Y-26736788D01*
X22730586Y-26876928D01*
X22853072Y-26999414D01*
X22993212Y-27101232D01*
X23147555Y-27179873D01*
X23147557Y-27179873D01*
X23147558Y-27179874D01*
X23147561Y-27179876D01*
X23312293Y-27233401D01*
X23312297Y-27233402D01*
X23483386Y-27260500D01*
X23483389Y-27260500D01*
X23656614Y-27260500D01*
X23827702Y-27233402D01*
X23827706Y-27233401D01*
X23992438Y-27179876D01*
X23992440Y-27179874D01*
X23992445Y-27179873D01*
X24146788Y-27101232D01*
X24286928Y-26999414D01*
X24409414Y-26876928D01*
X24511232Y-26736788D01*
X24511234Y-26736784D01*
X24513518Y-26733641D01*
X24514668Y-26734476D01*
X24556936Y-26698351D01*
X24617931Y-26693529D01*
X24664858Y-26719798D01*
X25395768Y-27450707D01*
X26074930Y-28129869D01*
X26074932Y-28129872D01*
X26138328Y-28193268D01*
X26215972Y-28238095D01*
X26215974Y-28238095D01*
X26215975Y-28238096D01*
X26231887Y-28242360D01*
X26231890Y-28242360D01*
X26239178Y-28244313D01*
X26302573Y-28261301D01*
X26392228Y-28261301D01*
X26392232Y-28261300D01*
X51270972Y-28261300D01*
X51360628Y-28261300D01*
X51360629Y-28261300D01*
X51360629Y-28261299D01*
X51447228Y-28238095D01*
X51524872Y-28193268D01*
X52973188Y-26744951D01*
X53027703Y-26717176D01*
X53088135Y-26726747D01*
X53123282Y-26756766D01*
X53210581Y-26876922D01*
X53210583Y-26876924D01*
X53210586Y-26876928D01*
X53333072Y-26999414D01*
X53473212Y-27101232D01*
X53627555Y-27179873D01*
X53627557Y-27179873D01*
X53627558Y-27179874D01*
X53627561Y-27179876D01*
X53792293Y-27233401D01*
X53792297Y-27233402D01*
X53963386Y-27260500D01*
X53963389Y-27260500D01*
X54136614Y-27260500D01*
X54307702Y-27233402D01*
X54307706Y-27233401D01*
X54472438Y-27179876D01*
X54472440Y-27179874D01*
X54472445Y-27179873D01*
X54626788Y-27101232D01*
X54766928Y-26999414D01*
X54889414Y-26876928D01*
X54991232Y-26736788D01*
X55069873Y-26582445D01*
X55069874Y-26582440D01*
X55069876Y-26582438D01*
X55123401Y-26417706D01*
X55123402Y-26417702D01*
X55150500Y-26246614D01*
X55150500Y-26073384D01*
X55489500Y-26073384D01*
X55489500Y-26246614D01*
X55516597Y-26417702D01*
X55516598Y-26417706D01*
X55570123Y-26582438D01*
X55570125Y-26582441D01*
X55648765Y-26736784D01*
X55648768Y-26736788D01*
X55750586Y-26876928D01*
X55873072Y-26999414D01*
X56013212Y-27101232D01*
X56167555Y-27179873D01*
X56167557Y-27179873D01*
X56167558Y-27179874D01*
X56167561Y-27179876D01*
X56332293Y-27233401D01*
X56332297Y-27233402D01*
X56503386Y-27260500D01*
X56503389Y-27260500D01*
X56676614Y-27260500D01*
X56847702Y-27233402D01*
X56847706Y-27233401D01*
X57012438Y-27179876D01*
X57012440Y-27179874D01*
X57012445Y-27179873D01*
X57166788Y-27101232D01*
X57306928Y-26999414D01*
X57429414Y-26876928D01*
X57531232Y-26736788D01*
X57609873Y-26582445D01*
X57609874Y-26582440D01*
X57609876Y-26582438D01*
X57663401Y-26417706D01*
X57663402Y-26417702D01*
X57690500Y-26246614D01*
X57690500Y-26073384D01*
X58029500Y-26073384D01*
X58029500Y-26246614D01*
X58056597Y-26417702D01*
X58056598Y-26417706D01*
X58110123Y-26582438D01*
X58110125Y-26582441D01*
X58188765Y-26736784D01*
X58188768Y-26736788D01*
X58290586Y-26876928D01*
X58413072Y-26999414D01*
X58553212Y-27101232D01*
X58707555Y-27179873D01*
X58707557Y-27179873D01*
X58707558Y-27179874D01*
X58707561Y-27179876D01*
X58872293Y-27233401D01*
X58872297Y-27233402D01*
X59043386Y-27260500D01*
X59043389Y-27260500D01*
X59216614Y-27260500D01*
X59387702Y-27233402D01*
X59387706Y-27233401D01*
X59552438Y-27179876D01*
X59552440Y-27179874D01*
X59552445Y-27179873D01*
X59706788Y-27101232D01*
X59846928Y-26999414D01*
X59969414Y-26876928D01*
X60071232Y-26736788D01*
X60149873Y-26582445D01*
X60149874Y-26582440D01*
X60149876Y-26582438D01*
X60203401Y-26417706D01*
X60203402Y-26417702D01*
X60230500Y-26246614D01*
X60230500Y-26073385D01*
X60229883Y-26069489D01*
X60520000Y-26069489D01*
X60520000Y-26250510D01*
X60548316Y-26429289D01*
X60604250Y-26601440D01*
X60686430Y-26762728D01*
X60727667Y-26819488D01*
X61201980Y-26345174D01*
X61204075Y-26352993D01*
X61269901Y-26467007D01*
X61362993Y-26560099D01*
X61477007Y-26625925D01*
X61484821Y-26628019D01*
X61010511Y-27102330D01*
X61067275Y-27143571D01*
X61228559Y-27225749D01*
X61400710Y-27281683D01*
X61579490Y-27310000D01*
X61760510Y-27310000D01*
X61939289Y-27281683D01*
X62111440Y-27225749D01*
X62272728Y-27143569D01*
X62329487Y-27102330D01*
X61855176Y-26628019D01*
X61862993Y-26625925D01*
X61977007Y-26560099D01*
X62070099Y-26467007D01*
X62135925Y-26352993D01*
X62138019Y-26345176D01*
X62612330Y-26819487D01*
X62653569Y-26762728D01*
X62735749Y-26601440D01*
X62791683Y-26429289D01*
X62820000Y-26250510D01*
X62820000Y-26073384D01*
X63109500Y-26073384D01*
X63109500Y-26246614D01*
X63136597Y-26417702D01*
X63136598Y-26417706D01*
X63190123Y-26582438D01*
X63190125Y-26582441D01*
X63268765Y-26736784D01*
X63268768Y-26736788D01*
X63370586Y-26876928D01*
X63493072Y-26999414D01*
X63633212Y-27101232D01*
X63787555Y-27179873D01*
X63787557Y-27179873D01*
X63787558Y-27179874D01*
X63787561Y-27179876D01*
X63952293Y-27233401D01*
X63952297Y-27233402D01*
X64123386Y-27260500D01*
X64123389Y-27260500D01*
X64296614Y-27260500D01*
X64467702Y-27233402D01*
X64467706Y-27233401D01*
X64632438Y-27179876D01*
X64632440Y-27179874D01*
X64632445Y-27179873D01*
X64786788Y-27101232D01*
X64926928Y-26999414D01*
X65049414Y-26876928D01*
X65151232Y-26736788D01*
X65229873Y-26582445D01*
X65229874Y-26582440D01*
X65229876Y-26582438D01*
X65283401Y-26417706D01*
X65283402Y-26417702D01*
X65310500Y-26246614D01*
X65310500Y-26073384D01*
X65310499Y-26073378D01*
X65283402Y-25902297D01*
X65283401Y-25902293D01*
X65229876Y-25737561D01*
X65229874Y-25737558D01*
X65229873Y-25737557D01*
X65229873Y-25737555D01*
X65151232Y-25583212D01*
X65049414Y-25443072D01*
X64926928Y-25320586D01*
X64786788Y-25218768D01*
X64786787Y-25218767D01*
X64786785Y-25218766D01*
X64632441Y-25140125D01*
X64632438Y-25140123D01*
X64467706Y-25086598D01*
X64467702Y-25086597D01*
X64296614Y-25059500D01*
X64296611Y-25059500D01*
X64123389Y-25059500D01*
X64123386Y-25059500D01*
X63952297Y-25086597D01*
X63952293Y-25086598D01*
X63787561Y-25140123D01*
X63787558Y-25140125D01*
X63633214Y-25218766D01*
X63493073Y-25320585D01*
X63370585Y-25443073D01*
X63268766Y-25583214D01*
X63190125Y-25737558D01*
X63190123Y-25737561D01*
X63136598Y-25902293D01*
X63136597Y-25902297D01*
X63109501Y-26073378D01*
X63109500Y-26073384D01*
X62820000Y-26073384D01*
X62820000Y-26069489D01*
X62791683Y-25890710D01*
X62735749Y-25718559D01*
X62653571Y-25557275D01*
X62612330Y-25500511D01*
X62138019Y-25974821D01*
X62135925Y-25967007D01*
X62070099Y-25852993D01*
X61977007Y-25759901D01*
X61862993Y-25694075D01*
X61855174Y-25691980D01*
X62329488Y-25217667D01*
X62272728Y-25176430D01*
X62111440Y-25094250D01*
X61939289Y-25038316D01*
X61760510Y-25010000D01*
X61579490Y-25010000D01*
X61400710Y-25038316D01*
X61228559Y-25094250D01*
X61067267Y-25176432D01*
X61010510Y-25217667D01*
X61484823Y-25691980D01*
X61477007Y-25694075D01*
X61362993Y-25759901D01*
X61269901Y-25852993D01*
X61204075Y-25967007D01*
X61201980Y-25974823D01*
X60727667Y-25500510D01*
X60686432Y-25557267D01*
X60604250Y-25718559D01*
X60548316Y-25890710D01*
X60520000Y-26069489D01*
X60229883Y-26069489D01*
X60203402Y-25902297D01*
X60203401Y-25902293D01*
X60149876Y-25737561D01*
X60149874Y-25737558D01*
X60149873Y-25737557D01*
X60149873Y-25737555D01*
X60071232Y-25583212D01*
X59969414Y-25443072D01*
X59846928Y-25320586D01*
X59706788Y-25218768D01*
X59706787Y-25218767D01*
X59706785Y-25218766D01*
X59552441Y-25140125D01*
X59552438Y-25140123D01*
X59387706Y-25086598D01*
X59387702Y-25086597D01*
X59216614Y-25059500D01*
X59216611Y-25059500D01*
X59043389Y-25059500D01*
X59043386Y-25059500D01*
X58872297Y-25086597D01*
X58872293Y-25086598D01*
X58707561Y-25140123D01*
X58707558Y-25140125D01*
X58553214Y-25218766D01*
X58413073Y-25320585D01*
X58290585Y-25443073D01*
X58188766Y-25583214D01*
X58110125Y-25737558D01*
X58110123Y-25737561D01*
X58056598Y-25902293D01*
X58056597Y-25902297D01*
X58029501Y-26073378D01*
X58029500Y-26073384D01*
X57690500Y-26073384D01*
X57690499Y-26073378D01*
X57663402Y-25902297D01*
X57663401Y-25902293D01*
X57609876Y-25737561D01*
X57609874Y-25737558D01*
X57609873Y-25737557D01*
X57609873Y-25737555D01*
X57531232Y-25583212D01*
X57429414Y-25443072D01*
X57306928Y-25320586D01*
X57166788Y-25218768D01*
X57166787Y-25218767D01*
X57166785Y-25218766D01*
X57012441Y-25140125D01*
X57012438Y-25140123D01*
X56847706Y-25086598D01*
X56847702Y-25086597D01*
X56676614Y-25059500D01*
X56676611Y-25059500D01*
X56503389Y-25059500D01*
X56503386Y-25059500D01*
X56332297Y-25086597D01*
X56332293Y-25086598D01*
X56167561Y-25140123D01*
X56167558Y-25140125D01*
X56013214Y-25218766D01*
X55873073Y-25320585D01*
X55750585Y-25443073D01*
X55648766Y-25583214D01*
X55570125Y-25737558D01*
X55570123Y-25737561D01*
X55516598Y-25902293D01*
X55516597Y-25902297D01*
X55489501Y-26073378D01*
X55489500Y-26073384D01*
X55150500Y-26073384D01*
X55150499Y-26073378D01*
X55123402Y-25902297D01*
X55123401Y-25902293D01*
X55069876Y-25737561D01*
X55069874Y-25737558D01*
X55069873Y-25737557D01*
X55069873Y-25737555D01*
X54991232Y-25583212D01*
X54889414Y-25443072D01*
X54766928Y-25320586D01*
X54648675Y-25234670D01*
X54612713Y-25185172D01*
X54612713Y-25123986D01*
X54636862Y-25084577D01*
X55479141Y-24242298D01*
X55533654Y-24214524D01*
X55594086Y-24224095D01*
X55629235Y-24254116D01*
X55647667Y-24279488D01*
X56121980Y-23805175D01*
X56124075Y-23812993D01*
X56189901Y-23927007D01*
X56282993Y-24020099D01*
X56397007Y-24085925D01*
X56404821Y-24088019D01*
X55930511Y-24562330D01*
X55987275Y-24603571D01*
X56148559Y-24685749D01*
X56320710Y-24741683D01*
X56499490Y-24770000D01*
X56680510Y-24770000D01*
X56859289Y-24741683D01*
X57031440Y-24685749D01*
X57192728Y-24603569D01*
X57249487Y-24562330D01*
X56775176Y-24088019D01*
X56782993Y-24085925D01*
X56897007Y-24020099D01*
X56990099Y-23927007D01*
X57055925Y-23812993D01*
X57058019Y-23805177D01*
X57532330Y-24279488D01*
X57573569Y-24222728D01*
X57655749Y-24061440D01*
X57695018Y-23940581D01*
X57730982Y-23891081D01*
X57789172Y-23872173D01*
X57832905Y-23882356D01*
X57845140Y-23888380D01*
X57849228Y-23892468D01*
X57926872Y-23937295D01*
X57965513Y-23947649D01*
X57974232Y-23951942D01*
X57989532Y-23966829D01*
X58007437Y-23978456D01*
X58010986Y-23987702D01*
X58018085Y-23994609D01*
X58021713Y-24015646D01*
X58029364Y-24035577D01*
X58029500Y-24040759D01*
X58029500Y-24494672D01*
X58029501Y-24494684D01*
X58044033Y-24567736D01*
X58044035Y-24567742D01*
X58099397Y-24650599D01*
X58099400Y-24650602D01*
X58182257Y-24705964D01*
X58182260Y-24705966D01*
X58237808Y-24717015D01*
X58255315Y-24720498D01*
X58255320Y-24720498D01*
X58255326Y-24720500D01*
X58255327Y-24720500D01*
X60004673Y-24720500D01*
X60004674Y-24720500D01*
X60077740Y-24705966D01*
X60160601Y-24650601D01*
X60215966Y-24567740D01*
X60230500Y-24494674D01*
X60230500Y-22745326D01*
X60215966Y-22672260D01*
X60171777Y-22606125D01*
X60160602Y-22589400D01*
X60160599Y-22589397D01*
X60077742Y-22534035D01*
X60077740Y-22534034D01*
X60077737Y-22534033D01*
X60077736Y-22534033D01*
X60004684Y-22519501D01*
X60004674Y-22519500D01*
X58255326Y-22519500D01*
X58255325Y-22519500D01*
X58255315Y-22519501D01*
X58182263Y-22534033D01*
X58182257Y-22534035D01*
X58099400Y-22589397D01*
X58099397Y-22589400D01*
X58044035Y-22672257D01*
X58044033Y-22672263D01*
X58029499Y-22745321D01*
X58029364Y-22746701D01*
X58029110Y-22747281D01*
X58028550Y-22750097D01*
X58027932Y-22749974D01*
X58004841Y-22802757D01*
X57952053Y-22833694D01*
X57891163Y-22827694D01*
X57860837Y-22806997D01*
X57587873Y-22534033D01*
X57294972Y-22241132D01*
X57217328Y-22196305D01*
X57217325Y-22196304D01*
X57217324Y-22196303D01*
X57130730Y-22173100D01*
X57130728Y-22173100D01*
X56174328Y-22173100D01*
X56084672Y-22173100D01*
X56084669Y-22173100D01*
X55998075Y-22196303D01*
X55998074Y-22196304D01*
X55920428Y-22241132D01*
X55309228Y-22852332D01*
X55309227Y-22852331D01*
X55245834Y-22915725D01*
X55245832Y-22915727D01*
X55245832Y-22915728D01*
X55201005Y-22993372D01*
X55201004Y-22993374D01*
X55186706Y-23046733D01*
X55153382Y-23098046D01*
X55096260Y-23119972D01*
X55037159Y-23104136D01*
X55002870Y-23066053D01*
X54991233Y-23043214D01*
X54991232Y-23043212D01*
X54889414Y-22903072D01*
X54766928Y-22780586D01*
X54626788Y-22678768D01*
X54626787Y-22678767D01*
X54626785Y-22678766D01*
X54472447Y-22600128D01*
X54472446Y-22600127D01*
X54472445Y-22600127D01*
X54458905Y-22595727D01*
X54409406Y-22559763D01*
X54390500Y-22501574D01*
X54390500Y-13642047D01*
X54409407Y-13583856D01*
X54419490Y-13572049D01*
X58579924Y-9411614D01*
X58634439Y-9383839D01*
X58694871Y-9393410D01*
X58694872Y-9393411D01*
X58707553Y-9399872D01*
X58707561Y-9399876D01*
X58872293Y-9453401D01*
X58872297Y-9453402D01*
X59043386Y-9480500D01*
X59043389Y-9480500D01*
X59216614Y-9480500D01*
X59387702Y-9453402D01*
X59387706Y-9453401D01*
X59552438Y-9399876D01*
X59552440Y-9399874D01*
X59552445Y-9399873D01*
X59706788Y-9321232D01*
X59846928Y-9219414D01*
X59969414Y-9096928D01*
X60071232Y-8956788D01*
X60149873Y-8802445D01*
X60149874Y-8802440D01*
X60149876Y-8802438D01*
X60203401Y-8637706D01*
X60203402Y-8637702D01*
X60230500Y-8466614D01*
X60230500Y-8293385D01*
X60203402Y-8122297D01*
X60203401Y-8122293D01*
X60149876Y-7957561D01*
X60149874Y-7957558D01*
X60149873Y-7957557D01*
X60149873Y-7957555D01*
X60071232Y-7803212D01*
X59969414Y-7663072D01*
X59846928Y-7540586D01*
X59706788Y-7438768D01*
X59706787Y-7438767D01*
X59706785Y-7438766D01*
X59552441Y-7360125D01*
X59552438Y-7360123D01*
X59387706Y-7306598D01*
X59387702Y-7306597D01*
X59216614Y-7279500D01*
X59216611Y-7279500D01*
X59043389Y-7279500D01*
X59043386Y-7279500D01*
X58872297Y-7306597D01*
X58872293Y-7306598D01*
X58707561Y-7360123D01*
X58707558Y-7360125D01*
X58553214Y-7438766D01*
X58413073Y-7540585D01*
X58290585Y-7663073D01*
X58188766Y-7803214D01*
X58110125Y-7957558D01*
X58110123Y-7957561D01*
X58056598Y-8122293D01*
X58056597Y-8122297D01*
X58029500Y-8293385D01*
X58029500Y-8466614D01*
X58056597Y-8637702D01*
X58056598Y-8637706D01*
X58110123Y-8802438D01*
X58110128Y-8802449D01*
X58116589Y-8815130D01*
X58126159Y-8875563D01*
X58098382Y-8930076D01*
X57028504Y-9999955D01*
X56973987Y-10027732D01*
X56913555Y-10018161D01*
X56870290Y-9974896D01*
X56859500Y-9929951D01*
X56859500Y-9812325D01*
X56845312Y-9759375D01*
X56821984Y-9672315D01*
X56821423Y-9671344D01*
X56780361Y-9600222D01*
X56767640Y-9540374D01*
X56792527Y-9484478D01*
X56844022Y-9454746D01*
X56843918Y-9454311D01*
X56845388Y-9453957D01*
X56845515Y-9453885D01*
X56846286Y-9453742D01*
X56847689Y-9453405D01*
X56847695Y-9453402D01*
X56847701Y-9453402D01*
X57012445Y-9399873D01*
X57166788Y-9321232D01*
X57306928Y-9219414D01*
X57429414Y-9096928D01*
X57531232Y-8956788D01*
X57609873Y-8802445D01*
X57609874Y-8802440D01*
X57609876Y-8802438D01*
X57663401Y-8637706D01*
X57663402Y-8637702D01*
X57690500Y-8466614D01*
X57690500Y-8293385D01*
X57663402Y-8122297D01*
X57663401Y-8122293D01*
X57609876Y-7957561D01*
X57609874Y-7957558D01*
X57609873Y-7957557D01*
X57609873Y-7957555D01*
X57531232Y-7803212D01*
X57429414Y-7663072D01*
X57306928Y-7540586D01*
X57166788Y-7438768D01*
X57166787Y-7438767D01*
X57166785Y-7438766D01*
X57012441Y-7360125D01*
X57012438Y-7360123D01*
X56847706Y-7306598D01*
X56847702Y-7306597D01*
X56676614Y-7279500D01*
X56676611Y-7279500D01*
X56503389Y-7279500D01*
X56503386Y-7279500D01*
X56332297Y-7306597D01*
X56332293Y-7306598D01*
X56167561Y-7360123D01*
X56167558Y-7360125D01*
X56013214Y-7438766D01*
X55873073Y-7540585D01*
X55750581Y-7663077D01*
X55729892Y-7691554D01*
X55680392Y-7727518D01*
X55619207Y-7727517D01*
X55569707Y-7691553D01*
X55550800Y-7633363D01*
X55550800Y-6586636D01*
X55569707Y-6528445D01*
X55619207Y-6492481D01*
X55680393Y-6492481D01*
X55729890Y-6528443D01*
X55750586Y-6556928D01*
X55873072Y-6679414D01*
X56013212Y-6781232D01*
X56167555Y-6859873D01*
X56167557Y-6859873D01*
X56167558Y-6859874D01*
X56167561Y-6859876D01*
X56332293Y-6913401D01*
X56332297Y-6913402D01*
X56503386Y-6940500D01*
X56503389Y-6940500D01*
X56676614Y-6940500D01*
X56847702Y-6913402D01*
X56847706Y-6913401D01*
X57012438Y-6859876D01*
X57012440Y-6859874D01*
X57012445Y-6859873D01*
X57166788Y-6781232D01*
X57306928Y-6679414D01*
X57429414Y-6556928D01*
X57531232Y-6416788D01*
X57609873Y-6262445D01*
X57609874Y-6262440D01*
X57609876Y-6262438D01*
X57663401Y-6097706D01*
X57663402Y-6097702D01*
X57690500Y-5926614D01*
X57690500Y-5753385D01*
X58029500Y-5753385D01*
X58029500Y-5926614D01*
X58056597Y-6097702D01*
X58056598Y-6097706D01*
X58110123Y-6262438D01*
X58110125Y-6262441D01*
X58182218Y-6403934D01*
X58188768Y-6416788D01*
X58290586Y-6556928D01*
X58413072Y-6679414D01*
X58553212Y-6781232D01*
X58707555Y-6859873D01*
X58707557Y-6859873D01*
X58707558Y-6859874D01*
X58707561Y-6859876D01*
X58872293Y-6913401D01*
X58872297Y-6913402D01*
X59043386Y-6940500D01*
X59043389Y-6940500D01*
X59216614Y-6940500D01*
X59387702Y-6913402D01*
X59387706Y-6913401D01*
X59552438Y-6859876D01*
X59552440Y-6859874D01*
X59552445Y-6859873D01*
X59706788Y-6781232D01*
X59846928Y-6679414D01*
X59969414Y-6556928D01*
X60071232Y-6416788D01*
X60149873Y-6262445D01*
X60149874Y-6262440D01*
X60149876Y-6262438D01*
X60203401Y-6097706D01*
X60203402Y-6097702D01*
X60230500Y-5926614D01*
X60230500Y-5753385D01*
X60569500Y-5753385D01*
X60569500Y-5926614D01*
X60596597Y-6097702D01*
X60596598Y-6097706D01*
X60650123Y-6262438D01*
X60650125Y-6262441D01*
X60722218Y-6403934D01*
X60728768Y-6416788D01*
X60830586Y-6556928D01*
X60953072Y-6679414D01*
X61093212Y-6781232D01*
X61247555Y-6859873D01*
X61247557Y-6859873D01*
X61247558Y-6859874D01*
X61247561Y-6859876D01*
X61412293Y-6913401D01*
X61412297Y-6913402D01*
X61583386Y-6940500D01*
X61583389Y-6940500D01*
X61756614Y-6940500D01*
X61927702Y-6913402D01*
X61927706Y-6913401D01*
X62092438Y-6859876D01*
X62092440Y-6859874D01*
X62092445Y-6859873D01*
X62246788Y-6781232D01*
X62386928Y-6679414D01*
X62509414Y-6556928D01*
X62611232Y-6416788D01*
X62689873Y-6262445D01*
X62689874Y-6262440D01*
X62689876Y-6262438D01*
X62743401Y-6097706D01*
X62743402Y-6097702D01*
X62770500Y-5926614D01*
X62770500Y-5753385D01*
X63109500Y-5753385D01*
X63109500Y-5926614D01*
X63136597Y-6097702D01*
X63136598Y-6097706D01*
X63190123Y-6262438D01*
X63190125Y-6262441D01*
X63262218Y-6403934D01*
X63268768Y-6416788D01*
X63370586Y-6556928D01*
X63493072Y-6679414D01*
X63633212Y-6781232D01*
X63787555Y-6859873D01*
X63787557Y-6859873D01*
X63787558Y-6859874D01*
X63787561Y-6859876D01*
X63952293Y-6913401D01*
X63952297Y-6913402D01*
X64123386Y-6940500D01*
X64123389Y-6940500D01*
X64296614Y-6940500D01*
X64467702Y-6913402D01*
X64467706Y-6913401D01*
X64632438Y-6859876D01*
X64632440Y-6859874D01*
X64632445Y-6859873D01*
X64786788Y-6781232D01*
X64926928Y-6679414D01*
X65049414Y-6556928D01*
X65151232Y-6416788D01*
X65229873Y-6262445D01*
X65229874Y-6262440D01*
X65229876Y-6262438D01*
X65283401Y-6097706D01*
X65283402Y-6097702D01*
X65310500Y-5926614D01*
X65310500Y-5753385D01*
X65283402Y-5582297D01*
X65283401Y-5582293D01*
X65229876Y-5417561D01*
X65229874Y-5417558D01*
X65229873Y-5417557D01*
X65229873Y-5417555D01*
X65151232Y-5263212D01*
X65049414Y-5123072D01*
X64926928Y-5000586D01*
X64786788Y-4898768D01*
X64786787Y-4898767D01*
X64786785Y-4898766D01*
X64632441Y-4820125D01*
X64632438Y-4820123D01*
X64467706Y-4766598D01*
X64467702Y-4766597D01*
X64296614Y-4739500D01*
X64296611Y-4739500D01*
X64123389Y-4739500D01*
X64123386Y-4739500D01*
X63952297Y-4766597D01*
X63952293Y-4766598D01*
X63787561Y-4820123D01*
X63787558Y-4820125D01*
X63633214Y-4898766D01*
X63493073Y-5000585D01*
X63370585Y-5123073D01*
X63268766Y-5263214D01*
X63190125Y-5417558D01*
X63190123Y-5417561D01*
X63136598Y-5582293D01*
X63136597Y-5582297D01*
X63109500Y-5753385D01*
X62770500Y-5753385D01*
X62743402Y-5582297D01*
X62743401Y-5582293D01*
X62689876Y-5417561D01*
X62689874Y-5417558D01*
X62689873Y-5417557D01*
X62689873Y-5417555D01*
X62611232Y-5263212D01*
X62509414Y-5123072D01*
X62386928Y-5000586D01*
X62246788Y-4898768D01*
X62246787Y-4898767D01*
X62246785Y-4898766D01*
X62092441Y-4820125D01*
X62092438Y-4820123D01*
X61927706Y-4766598D01*
X61927702Y-4766597D01*
X61756614Y-4739500D01*
X61756611Y-4739500D01*
X61583389Y-4739500D01*
X61583386Y-4739500D01*
X61412297Y-4766597D01*
X61412293Y-4766598D01*
X61247561Y-4820123D01*
X61247558Y-4820125D01*
X61093214Y-4898766D01*
X60953073Y-5000585D01*
X60830585Y-5123073D01*
X60728766Y-5263214D01*
X60650125Y-5417558D01*
X60650123Y-5417561D01*
X60596598Y-5582293D01*
X60596597Y-5582297D01*
X60569500Y-5753385D01*
X60230500Y-5753385D01*
X60203402Y-5582297D01*
X60203401Y-5582293D01*
X60149876Y-5417561D01*
X60149874Y-5417558D01*
X60149873Y-5417557D01*
X60149873Y-5417555D01*
X60071232Y-5263212D01*
X59969414Y-5123072D01*
X59846928Y-5000586D01*
X59706788Y-4898768D01*
X59706787Y-4898767D01*
X59706785Y-4898766D01*
X59552441Y-4820125D01*
X59552438Y-4820123D01*
X59387706Y-4766598D01*
X59387702Y-4766597D01*
X59216614Y-4739500D01*
X59216611Y-4739500D01*
X59043389Y-4739500D01*
X59043386Y-4739500D01*
X58872297Y-4766597D01*
X58872293Y-4766598D01*
X58707561Y-4820123D01*
X58707558Y-4820125D01*
X58553214Y-4898766D01*
X58413073Y-5000585D01*
X58290585Y-5123073D01*
X58188766Y-5263214D01*
X58110125Y-5417558D01*
X58110123Y-5417561D01*
X58056598Y-5582293D01*
X58056597Y-5582297D01*
X58029500Y-5753385D01*
X57690500Y-5753385D01*
X57663402Y-5582297D01*
X57663401Y-5582293D01*
X57609876Y-5417561D01*
X57609874Y-5417558D01*
X57609873Y-5417557D01*
X57609873Y-5417555D01*
X57531232Y-5263212D01*
X57429414Y-5123072D01*
X57306928Y-5000586D01*
X57166788Y-4898768D01*
X57166787Y-4898767D01*
X57166785Y-4898766D01*
X57012441Y-4820125D01*
X57012438Y-4820123D01*
X56847706Y-4766598D01*
X56847702Y-4766597D01*
X56676614Y-4739500D01*
X56676611Y-4739500D01*
X56503389Y-4739500D01*
X56503386Y-4739500D01*
X56332297Y-4766597D01*
X56332293Y-4766598D01*
X56167564Y-4820122D01*
X56167547Y-4820129D01*
X56154868Y-4826590D01*
X56094436Y-4836160D01*
X56039923Y-4808383D01*
X51901044Y-669504D01*
X51873267Y-614987D01*
X51882838Y-554555D01*
X51926103Y-511290D01*
X51971048Y-500500D01*
X69400500Y-500500D01*
X69458691Y-519407D01*
X69494655Y-568907D01*
X69499500Y-599500D01*
X69499500Y-31400500D01*
X69480593Y-31458691D01*
X69431093Y-31494655D01*
X69400500Y-31499500D01*
X599500Y-31499500D01*
X541309Y-31480593D01*
X505345Y-31431093D01*
X500500Y-31400500D01*
X500500Y-599500D01*
X519407Y-541309D01*
X568907Y-505345D01*
X599500Y-500500D01*
X38343269Y-500500D01*
X38401460Y-519407D01*
G37*
%TD.AperFunction*%
%TA.AperFunction,Conductor*%
G36*
X51340943Y-1074207D02*
G01*
X51352756Y-1084296D01*
X54454956Y-4186496D01*
X54482733Y-4241013D01*
X54473162Y-4301445D01*
X54429897Y-4344710D01*
X54384952Y-4355500D01*
X48549769Y-4355500D01*
X48463175Y-4378703D01*
X48463174Y-4378704D01*
X48463172Y-4378704D01*
X48463172Y-4378705D01*
X48417398Y-4405132D01*
X48385528Y-4423532D01*
X47657328Y-5151732D01*
X47657327Y-5151731D01*
X47593931Y-5215128D01*
X47553786Y-5284662D01*
X47508317Y-5325603D01*
X47447466Y-5331999D01*
X47394478Y-5301406D01*
X47379840Y-5280106D01*
X47371234Y-5263216D01*
X47371234Y-5263215D01*
X47371232Y-5263212D01*
X47269414Y-5123072D01*
X47146928Y-5000586D01*
X47006788Y-4898768D01*
X47006787Y-4898767D01*
X47006785Y-4898766D01*
X46852441Y-4820125D01*
X46852438Y-4820123D01*
X46687706Y-4766598D01*
X46687702Y-4766597D01*
X46516614Y-4739500D01*
X46516611Y-4739500D01*
X46343389Y-4739500D01*
X46343386Y-4739500D01*
X46172297Y-4766597D01*
X46172293Y-4766598D01*
X46007561Y-4820123D01*
X46007558Y-4820125D01*
X45853214Y-4898766D01*
X45713073Y-5000585D01*
X45590585Y-5123073D01*
X45488766Y-5263214D01*
X45410125Y-5417558D01*
X45410123Y-5417561D01*
X45356598Y-5582293D01*
X45356597Y-5582297D01*
X45329500Y-5753385D01*
X45329500Y-5926614D01*
X45356597Y-6097702D01*
X45356598Y-6097706D01*
X45410123Y-6262438D01*
X45410125Y-6262441D01*
X45482218Y-6403934D01*
X45488768Y-6416788D01*
X45590586Y-6556928D01*
X45713072Y-6679414D01*
X45713075Y-6679416D01*
X45713077Y-6679418D01*
X45828426Y-6763225D01*
X45864390Y-6812725D01*
X45864389Y-6873910D01*
X45840239Y-6913321D01*
X44963320Y-7790239D01*
X44908803Y-7818016D01*
X44848371Y-7808445D01*
X44813225Y-7778427D01*
X44729414Y-7663072D01*
X44606928Y-7540586D01*
X44466788Y-7438768D01*
X44466787Y-7438767D01*
X44466785Y-7438766D01*
X44312441Y-7360125D01*
X44312438Y-7360123D01*
X44147706Y-7306598D01*
X44147702Y-7306597D01*
X43976614Y-7279500D01*
X43976611Y-7279500D01*
X43803389Y-7279500D01*
X43803386Y-7279500D01*
X43632297Y-7306597D01*
X43632293Y-7306598D01*
X43467561Y-7360123D01*
X43467558Y-7360125D01*
X43313214Y-7438766D01*
X43173073Y-7540585D01*
X43050585Y-7663073D01*
X42948766Y-7803214D01*
X42870125Y-7957558D01*
X42870123Y-7957561D01*
X42816598Y-8122293D01*
X42816597Y-8122297D01*
X42789500Y-8293385D01*
X42789500Y-8466614D01*
X42816597Y-8637702D01*
X42816598Y-8637706D01*
X42870123Y-8802438D01*
X42870125Y-8802441D01*
X42947652Y-8954599D01*
X42948768Y-8956788D01*
X43050586Y-9096928D01*
X43173072Y-9219414D01*
X43313212Y-9321232D01*
X43467555Y-9399873D01*
X43467557Y-9399873D01*
X43467558Y-9399874D01*
X43467561Y-9399876D01*
X43632293Y-9453401D01*
X43632299Y-9453402D01*
X43668949Y-9459207D01*
X43682919Y-9466324D01*
X43698408Y-9468778D01*
X43709496Y-9479866D01*
X43723466Y-9486984D01*
X43730584Y-9500954D01*
X43741673Y-9512043D01*
X43744125Y-9527530D01*
X43751244Y-9541500D01*
X43748791Y-9556987D01*
X43751244Y-9572475D01*
X43744125Y-9586446D01*
X43741673Y-9601932D01*
X43723467Y-9626992D01*
X43609290Y-9741169D01*
X43554773Y-9768946D01*
X43494341Y-9759375D01*
X43453550Y-9720666D01*
X43419209Y-9661185D01*
X43316715Y-9558691D01*
X43316712Y-9558689D01*
X43316710Y-9558687D01*
X43191188Y-9486217D01*
X43191189Y-9486217D01*
X43126054Y-9468764D01*
X43051175Y-9448700D01*
X42906225Y-9448700D01*
X42867069Y-9459192D01*
X42766210Y-9486217D01*
X42640689Y-9558687D01*
X42640684Y-9558691D01*
X42569671Y-9629704D01*
X42515154Y-9657481D01*
X42499668Y-9658700D01*
X41569417Y-9658700D01*
X41511226Y-9639793D01*
X41475262Y-9590293D01*
X41475262Y-9529107D01*
X41511226Y-9479607D01*
X41553930Y-9461919D01*
X41607702Y-9453402D01*
X41607706Y-9453401D01*
X41772438Y-9399876D01*
X41772440Y-9399874D01*
X41772445Y-9399873D01*
X41926788Y-9321232D01*
X42066928Y-9219414D01*
X42189414Y-9096928D01*
X42291232Y-8956788D01*
X42369873Y-8802445D01*
X42369874Y-8802440D01*
X42369876Y-8802438D01*
X42423401Y-8637706D01*
X42423402Y-8637702D01*
X42450500Y-8466614D01*
X42450500Y-8293385D01*
X42423402Y-8122297D01*
X42423401Y-8122293D01*
X42369876Y-7957561D01*
X42369874Y-7957558D01*
X42369873Y-7957557D01*
X42369873Y-7957555D01*
X42291232Y-7803212D01*
X42189414Y-7663072D01*
X42066928Y-7540586D01*
X41926788Y-7438768D01*
X41926787Y-7438767D01*
X41926785Y-7438766D01*
X41772441Y-7360125D01*
X41772438Y-7360123D01*
X41607706Y-7306598D01*
X41607702Y-7306597D01*
X41436614Y-7279500D01*
X41436611Y-7279500D01*
X41263389Y-7279500D01*
X41263386Y-7279500D01*
X41092297Y-7306597D01*
X41092293Y-7306598D01*
X40927564Y-7360122D01*
X40927547Y-7360129D01*
X40914868Y-7366590D01*
X40854436Y-7376160D01*
X40799923Y-7348383D01*
X40646496Y-7194956D01*
X40618719Y-7140439D01*
X40617500Y-7124952D01*
X40617500Y-6862399D01*
X40636407Y-6804208D01*
X40685907Y-6768244D01*
X40747093Y-6768244D01*
X40769588Y-6779706D01*
X40769898Y-6779201D01*
X40773212Y-6781232D01*
X40927555Y-6859873D01*
X40927557Y-6859873D01*
X40927558Y-6859874D01*
X40927561Y-6859876D01*
X41092293Y-6913401D01*
X41092297Y-6913402D01*
X41263386Y-6940500D01*
X41263389Y-6940500D01*
X41436614Y-6940500D01*
X41607702Y-6913402D01*
X41607706Y-6913401D01*
X41772438Y-6859876D01*
X41772440Y-6859874D01*
X41772445Y-6859873D01*
X41926788Y-6781232D01*
X42066928Y-6679414D01*
X42189414Y-6556928D01*
X42291232Y-6416788D01*
X42369873Y-6262445D01*
X42369874Y-6262440D01*
X42369876Y-6262438D01*
X42423401Y-6097706D01*
X42423402Y-6097702D01*
X42450500Y-5926614D01*
X42450500Y-5753385D01*
X42423402Y-5582297D01*
X42423401Y-5582293D01*
X42369876Y-5417561D01*
X42369874Y-5417558D01*
X42369873Y-5417557D01*
X42369873Y-5417555D01*
X42291232Y-5263212D01*
X42189414Y-5123072D01*
X42066928Y-5000586D01*
X41926788Y-4898768D01*
X41926787Y-4898767D01*
X41926785Y-4898766D01*
X41772441Y-4820125D01*
X41772438Y-4820123D01*
X41607706Y-4766598D01*
X41607702Y-4766597D01*
X41525985Y-4753655D01*
X41512014Y-4746536D01*
X41496527Y-4744084D01*
X41485440Y-4732997D01*
X41471468Y-4725878D01*
X41464348Y-4711904D01*
X41453263Y-4700819D01*
X41450810Y-4685333D01*
X41443691Y-4671361D01*
X41446143Y-4655873D01*
X41443691Y-4640387D01*
X41450809Y-4626416D01*
X41453262Y-4610929D01*
X41471466Y-4585873D01*
X41594720Y-4462618D01*
X41649235Y-4434842D01*
X41709667Y-4444413D01*
X41735898Y-4466230D01*
X41736803Y-4465326D01*
X41741389Y-4469912D01*
X41741391Y-4469915D01*
X41843885Y-4572409D01*
X41843887Y-4572410D01*
X41843889Y-4572412D01*
X41969411Y-4644882D01*
X41969412Y-4644882D01*
X41969415Y-4644884D01*
X42109425Y-4682400D01*
X42209852Y-4682400D01*
X42268043Y-4701307D01*
X42279856Y-4711396D01*
X42858383Y-5289923D01*
X42886160Y-5344440D01*
X42876590Y-5404868D01*
X42870129Y-5417547D01*
X42870122Y-5417564D01*
X42816598Y-5582293D01*
X42816597Y-5582297D01*
X42789500Y-5753385D01*
X42789500Y-5926614D01*
X42816597Y-6097702D01*
X42816598Y-6097706D01*
X42870123Y-6262438D01*
X42870125Y-6262441D01*
X42942218Y-6403934D01*
X42948768Y-6416788D01*
X43050586Y-6556928D01*
X43173072Y-6679414D01*
X43313212Y-6781232D01*
X43467555Y-6859873D01*
X43467557Y-6859873D01*
X43467558Y-6859874D01*
X43467561Y-6859876D01*
X43632293Y-6913401D01*
X43632297Y-6913402D01*
X43803386Y-6940500D01*
X43803389Y-6940500D01*
X43976614Y-6940500D01*
X44147702Y-6913402D01*
X44147706Y-6913401D01*
X44312438Y-6859876D01*
X44312440Y-6859874D01*
X44312445Y-6859873D01*
X44466788Y-6781232D01*
X44606928Y-6679414D01*
X44729414Y-6556928D01*
X44831232Y-6416788D01*
X44909873Y-6262445D01*
X44909874Y-6262440D01*
X44909876Y-6262438D01*
X44963401Y-6097706D01*
X44963402Y-6097702D01*
X44990500Y-5926614D01*
X44990500Y-5753385D01*
X44963402Y-5582297D01*
X44963401Y-5582293D01*
X44909876Y-5417561D01*
X44909874Y-5417558D01*
X44909873Y-5417557D01*
X44909873Y-5417555D01*
X44831232Y-5263212D01*
X44729414Y-5123072D01*
X44606928Y-5000586D01*
X44466788Y-4898768D01*
X44466787Y-4898767D01*
X44466785Y-4898766D01*
X44312441Y-4820125D01*
X44312438Y-4820123D01*
X44147706Y-4766598D01*
X44147702Y-4766597D01*
X43976614Y-4739500D01*
X43976611Y-4739500D01*
X43803389Y-4739500D01*
X43803386Y-4739500D01*
X43632297Y-4766597D01*
X43632293Y-4766598D01*
X43467564Y-4820122D01*
X43467547Y-4820129D01*
X43454868Y-4826590D01*
X43394436Y-4836160D01*
X43339923Y-4808383D01*
X43100979Y-4569439D01*
X43073202Y-4514922D01*
X43082773Y-4454490D01*
X43121483Y-4413698D01*
X43126182Y-4410984D01*
X43126185Y-4410984D01*
X43251715Y-4338509D01*
X43354209Y-4236015D01*
X43357618Y-4230110D01*
X43426682Y-4110489D01*
X43426682Y-4110487D01*
X43426684Y-4110485D01*
X43464200Y-3970475D01*
X43464200Y-3825525D01*
X43426684Y-3685515D01*
X43426682Y-3685512D01*
X43426682Y-3685510D01*
X43354212Y-3559989D01*
X43354210Y-3559987D01*
X43354209Y-3559985D01*
X43251715Y-3457491D01*
X43251712Y-3457489D01*
X43251710Y-3457487D01*
X43126188Y-3385017D01*
X43126189Y-3385017D01*
X43028895Y-3358947D01*
X42986175Y-3347500D01*
X42986174Y-3347500D01*
X42885747Y-3347500D01*
X42827556Y-3328593D01*
X42815749Y-3318509D01*
X42791572Y-3294332D01*
X42713928Y-3249505D01*
X42713925Y-3249504D01*
X42713924Y-3249503D01*
X42627330Y-3226300D01*
X42627328Y-3226300D01*
X42053828Y-3226300D01*
X41976848Y-3226300D01*
X41918657Y-3207393D01*
X41882693Y-3157893D01*
X41882693Y-3096707D01*
X41906844Y-3057296D01*
X43134644Y-1829496D01*
X43189161Y-1801719D01*
X43204648Y-1800500D01*
X43305074Y-1800500D01*
X43305075Y-1800500D01*
X43445085Y-1762984D01*
X43445087Y-1762982D01*
X43445089Y-1762982D01*
X43570610Y-1690512D01*
X43570610Y-1690511D01*
X43570615Y-1690509D01*
X43673109Y-1588015D01*
X43673112Y-1588010D01*
X43745582Y-1462489D01*
X43745582Y-1462487D01*
X43745584Y-1462485D01*
X43783100Y-1322475D01*
X43783100Y-1177525D01*
X43783099Y-1177524D01*
X43782253Y-1171093D01*
X43784219Y-1170834D01*
X43786944Y-1118822D01*
X43825449Y-1071272D01*
X43879369Y-1055300D01*
X51282752Y-1055300D01*
X51340943Y-1074207D01*
G37*
%TD.AperFunction*%
%TA.AperFunction,Conductor*%
G36*
X12248402Y-1960678D02*
G01*
X12289192Y-1999386D01*
X12295789Y-2010812D01*
X12295791Y-2010815D01*
X12398285Y-2113309D01*
X12398287Y-2113310D01*
X12398289Y-2113312D01*
X12523811Y-2185782D01*
X12523812Y-2185782D01*
X12523815Y-2185784D01*
X12663825Y-2223300D01*
X12764252Y-2223300D01*
X12822443Y-2242207D01*
X12834256Y-2252296D01*
X14297904Y-3715944D01*
X14325681Y-3770461D01*
X14326900Y-3785948D01*
X14326900Y-4389968D01*
X14307993Y-4448159D01*
X14297904Y-4459971D01*
X14226891Y-4530984D01*
X14226887Y-4530989D01*
X14154417Y-4656510D01*
X14116900Y-4796525D01*
X14116900Y-4803509D01*
X14097993Y-4861700D01*
X14048493Y-4897664D01*
X13987307Y-4897664D01*
X13972956Y-4891719D01*
X13832447Y-4820127D01*
X13832438Y-4820123D01*
X13667706Y-4766598D01*
X13667702Y-4766597D01*
X13496614Y-4739500D01*
X13496611Y-4739500D01*
X13323389Y-4739500D01*
X13323386Y-4739500D01*
X13152297Y-4766597D01*
X13152293Y-4766598D01*
X12987561Y-4820123D01*
X12987558Y-4820125D01*
X12833214Y-4898766D01*
X12693073Y-5000585D01*
X12570585Y-5123073D01*
X12468766Y-5263214D01*
X12390125Y-5417558D01*
X12390123Y-5417561D01*
X12336598Y-5582293D01*
X12336597Y-5582297D01*
X12309500Y-5753385D01*
X12309500Y-5926614D01*
X12336597Y-6097702D01*
X12336598Y-6097706D01*
X12390123Y-6262438D01*
X12390125Y-6262441D01*
X12462218Y-6403934D01*
X12468768Y-6416788D01*
X12570586Y-6556928D01*
X12693072Y-6679414D01*
X12833212Y-6781232D01*
X12987555Y-6859873D01*
X12987557Y-6859873D01*
X12987558Y-6859874D01*
X12987561Y-6859876D01*
X13152293Y-6913401D01*
X13152297Y-6913402D01*
X13323386Y-6940500D01*
X13323389Y-6940500D01*
X13496614Y-6940500D01*
X13667702Y-6913402D01*
X13667706Y-6913401D01*
X13832438Y-6859876D01*
X13832440Y-6859874D01*
X13832445Y-6859873D01*
X13986788Y-6781232D01*
X14126928Y-6679414D01*
X14176898Y-6629443D01*
X14231413Y-6601668D01*
X14291845Y-6611239D01*
X14335110Y-6654504D01*
X14345900Y-6699449D01*
X14345900Y-6921552D01*
X14326993Y-6979743D01*
X14316903Y-6991556D01*
X13960075Y-7348383D01*
X13905559Y-7376160D01*
X13845127Y-7366589D01*
X13845126Y-7366588D01*
X13832446Y-7360127D01*
X13832438Y-7360123D01*
X13667706Y-7306598D01*
X13667702Y-7306597D01*
X13496614Y-7279500D01*
X13496611Y-7279500D01*
X13323389Y-7279500D01*
X13323386Y-7279500D01*
X13152297Y-7306597D01*
X13152293Y-7306598D01*
X12987561Y-7360123D01*
X12987558Y-7360125D01*
X12833214Y-7438766D01*
X12693073Y-7540585D01*
X12570585Y-7663073D01*
X12468766Y-7803214D01*
X12390125Y-7957558D01*
X12390123Y-7957561D01*
X12336598Y-8122293D01*
X12336597Y-8122297D01*
X12309500Y-8293385D01*
X12309500Y-8466614D01*
X12336597Y-8637702D01*
X12336598Y-8637706D01*
X12390123Y-8802438D01*
X12390125Y-8802441D01*
X12467652Y-8954599D01*
X12468768Y-8956788D01*
X12570586Y-9096928D01*
X12693072Y-9219414D01*
X12735732Y-9250408D01*
X12771695Y-9299907D01*
X12771695Y-9361093D01*
X12735731Y-9410593D01*
X12677540Y-9429500D01*
X12111356Y-9429500D01*
X12053165Y-9410593D01*
X12017201Y-9361093D01*
X12015829Y-9304507D01*
X12017090Y-9299870D01*
X12019999Y-9274797D01*
X12020000Y-9274795D01*
X12020000Y-8580001D01*
X12019999Y-8580000D01*
X11331880Y-8580000D01*
X11335925Y-8572993D01*
X11370000Y-8445826D01*
X11370000Y-8314174D01*
X11335925Y-8187007D01*
X11331880Y-8180000D01*
X12019998Y-8180000D01*
X12019999Y-8179999D01*
X12019999Y-7485210D01*
X12019998Y-7485208D01*
X12017090Y-7460125D01*
X11971786Y-7357522D01*
X11892477Y-7278213D01*
X11789872Y-7232909D01*
X11764797Y-7230000D01*
X11070001Y-7230000D01*
X11070000Y-7230001D01*
X11070000Y-7918120D01*
X11062993Y-7914075D01*
X10935826Y-7880000D01*
X10804174Y-7880000D01*
X10677007Y-7914075D01*
X10670000Y-7918120D01*
X10670000Y-7230001D01*
X10669999Y-7230000D01*
X9975210Y-7230000D01*
X9975207Y-7230001D01*
X9950125Y-7232909D01*
X9847522Y-7278213D01*
X9768213Y-7357522D01*
X9722909Y-7460127D01*
X9720000Y-7485202D01*
X9720000Y-8179999D01*
X9720001Y-8180000D01*
X10408120Y-8180000D01*
X10404075Y-8187007D01*
X10370000Y-8314174D01*
X10370000Y-8445826D01*
X10404075Y-8572993D01*
X10408120Y-8580000D01*
X9720002Y-8580000D01*
X9707894Y-8592107D01*
X9701089Y-8613049D01*
X9651587Y-8649010D01*
X9590401Y-8649006D01*
X9550996Y-8624857D01*
X8999132Y-8072993D01*
X8011187Y-7085047D01*
X7983411Y-7030532D01*
X7992982Y-6970100D01*
X8036247Y-6926835D01*
X8096679Y-6917264D01*
X8243386Y-6940500D01*
X8243389Y-6940500D01*
X8416614Y-6940500D01*
X8587702Y-6913402D01*
X8587706Y-6913401D01*
X8752438Y-6859876D01*
X8752440Y-6859874D01*
X8752445Y-6859873D01*
X8906788Y-6781232D01*
X9046928Y-6679414D01*
X9169414Y-6556928D01*
X9271232Y-6416788D01*
X9349873Y-6262445D01*
X9349874Y-6262440D01*
X9349876Y-6262438D01*
X9403401Y-6097706D01*
X9403402Y-6097702D01*
X9430500Y-5926614D01*
X9430500Y-5753385D01*
X9769500Y-5753385D01*
X9769500Y-5926614D01*
X9796597Y-6097702D01*
X9796598Y-6097706D01*
X9850123Y-6262438D01*
X9850125Y-6262441D01*
X9922218Y-6403934D01*
X9928768Y-6416788D01*
X10030586Y-6556928D01*
X10153072Y-6679414D01*
X10293212Y-6781232D01*
X10447555Y-6859873D01*
X10447557Y-6859873D01*
X10447558Y-6859874D01*
X10447561Y-6859876D01*
X10612293Y-6913401D01*
X10612297Y-6913402D01*
X10783386Y-6940500D01*
X10783389Y-6940500D01*
X10956614Y-6940500D01*
X11127702Y-6913402D01*
X11127706Y-6913401D01*
X11292438Y-6859876D01*
X11292440Y-6859874D01*
X11292445Y-6859873D01*
X11446788Y-6781232D01*
X11586928Y-6679414D01*
X11709414Y-6556928D01*
X11811232Y-6416788D01*
X11889873Y-6262445D01*
X11889874Y-6262440D01*
X11889876Y-6262438D01*
X11943401Y-6097706D01*
X11943402Y-6097702D01*
X11970500Y-5926614D01*
X11970500Y-5753385D01*
X11943402Y-5582297D01*
X11943401Y-5582293D01*
X11889876Y-5417561D01*
X11889874Y-5417558D01*
X11889873Y-5417557D01*
X11889873Y-5417555D01*
X11811232Y-5263212D01*
X11709414Y-5123072D01*
X11586928Y-5000586D01*
X11446788Y-4898768D01*
X11446787Y-4898767D01*
X11446785Y-4898766D01*
X11292441Y-4820125D01*
X11292438Y-4820123D01*
X11127706Y-4766598D01*
X11127702Y-4766597D01*
X10956614Y-4739500D01*
X10956611Y-4739500D01*
X10783389Y-4739500D01*
X10783386Y-4739500D01*
X10612297Y-4766597D01*
X10612293Y-4766598D01*
X10447561Y-4820123D01*
X10447558Y-4820125D01*
X10293214Y-4898766D01*
X10153073Y-5000585D01*
X10030585Y-5123073D01*
X9928766Y-5263214D01*
X9850125Y-5417558D01*
X9850123Y-5417561D01*
X9796598Y-5582293D01*
X9796597Y-5582297D01*
X9769500Y-5753385D01*
X9430500Y-5753385D01*
X9403402Y-5582297D01*
X9403401Y-5582293D01*
X9349876Y-5417561D01*
X9349874Y-5417558D01*
X9349873Y-5417557D01*
X9349873Y-5417555D01*
X9271232Y-5263212D01*
X9169414Y-5123072D01*
X9149341Y-5102999D01*
X9121566Y-5048485D01*
X9131137Y-4988053D01*
X9149340Y-4962997D01*
X12133455Y-1978882D01*
X12187970Y-1951107D01*
X12248402Y-1960678D01*
G37*
%TD.AperFunction*%
%TD*%
M02*
