%TF.GenerationSoftware,KiCad,Pcbnew,10.0.4*%
%TF.CreationDate,2026-09-15T20:31:29-03:00*%
%TF.ProjectId,tia-fpga,7469612d-6670-4676-912e-6b696361645f,B*%
%TF.SameCoordinates,Original*%
%TF.FileFunction,Copper,L1,Top*%
%TF.FilePolarity,Positive*%
%FSLAX46Y46*%
G04 Gerber Fmt 4.6, Leading zero omitted, Abs format (unit mm)*
G04 Created by KiCad (PCBNEW 10.0.4) date 2026-09-15 20:31:29*
%MOMM*%
%LPD*%
G01*
G04 APERTURE LIST*
G04 Aperture macros list*
%AMRoundRect*
0 Rectangle with rounded corners*
0 $1 Rounding radius*
0 $2 $3 $4 $5 $6 $7 $8 $9 X,Y pos of 4 corners*
0 Add a 4 corners polygon primitive as box body*
4,1,4,$2,$3,$4,$5,$6,$7,$8,$9,$2,$3,0*
0 Add four circle primitives for the rounded corners*
1,1,$1+$1,$2,$3*
1,1,$1+$1,$4,$5*
1,1,$1+$1,$6,$7*
1,1,$1+$1,$8,$9*
0 Add four rect primitives between the rounded corners*
20,1,$1+$1,$2,$3,$4,$5,0*
20,1,$1+$1,$4,$5,$6,$7,0*
20,1,$1+$1,$6,$7,$8,$9,0*
20,1,$1+$1,$8,$9,$2,$3,0*%
G04 Aperture macros list end*
%TA.AperFunction,SMDPad,CuDef*%
%ADD10RoundRect,0.150000X-0.512500X-0.150000X0.512500X-0.150000X0.512500X0.150000X-0.512500X0.150000X0*%
%TD*%
%TA.AperFunction,SMDPad,CuDef*%
%ADD11RoundRect,0.250000X-0.250000X-0.475000X0.250000X-0.475000X0.250000X0.475000X-0.250000X0.475000X0*%
%TD*%
%TA.AperFunction,SMDPad,CuDef*%
%ADD12RoundRect,0.225000X-0.225000X-0.375000X0.225000X-0.375000X0.225000X0.375000X-0.225000X0.375000X0*%
%TD*%
%TA.AperFunction,SMDPad,CuDef*%
%ADD13RoundRect,0.250000X0.475000X-0.250000X0.475000X0.250000X-0.475000X0.250000X-0.475000X-0.250000X0*%
%TD*%
%TA.AperFunction,ComponentPad*%
%ADD14R,1.700000X1.700000*%
%TD*%
%TA.AperFunction,ComponentPad*%
%ADD15C,1.700000*%
%TD*%
%TA.AperFunction,SMDPad,CuDef*%
%ADD16RoundRect,0.150000X0.150000X-0.875000X0.150000X0.875000X-0.150000X0.875000X-0.150000X-0.875000X0*%
%TD*%
%TA.AperFunction,SMDPad,CuDef*%
%ADD17RoundRect,0.150000X0.150000X-0.825000X0.150000X0.825000X-0.150000X0.825000X-0.150000X-0.825000X0*%
%TD*%
%TA.AperFunction,ViaPad*%
%ADD18C,0.600000*%
%TD*%
%TA.AperFunction,Conductor*%
%ADD19C,0.180000*%
%TD*%
G04 APERTURE END LIST*
D10*
%TO.P,U5,1*%
%TO.N,/F_CS0_N*%
X6862500Y-1250000D03*
%TO.P,U5,2*%
%TO.N,/F_CS3_N*%
X6862500Y-2200000D03*
%TO.P,U5,3*%
%TO.N,GND*%
X6862500Y-3150000D03*
%TO.P,U5,4*%
%TO.N,/F_CS_N*%
X9137500Y-3150000D03*
%TO.P,U5,5*%
%TO.N,+3V3*%
X9137500Y-1250000D03*
%TD*%
%TO.P,U8,1*%
%TO.N,/F_LUM0*%
X29362500Y-1250000D03*
%TO.P,U8,2*%
%TO.N,GND*%
X29362500Y-2200000D03*
%TO.P,U8,3*%
%TO.N,/F_COL*%
X29362500Y-3150000D03*
%TO.P,U8,4*%
%TO.N,/TIA_COL*%
X31637500Y-3150000D03*
%TO.P,U8,5*%
%TO.N,+3V3*%
X31637500Y-2200000D03*
%TO.P,U8,6*%
%TO.N,/TIA_LUM0*%
X31637500Y-1250000D03*
%TD*%
D11*
%TO.P,C3,1*%
%TO.N,+3V3*%
X37050000Y-32040000D03*
%TO.P,C3,2*%
%TO.N,GND*%
X38950000Y-32040000D03*
%TD*%
D12*
%TO.P,D1,1*%
%TO.N,/TN_5V*%
X51850000Y-2200000D03*
%TO.P,D1,2*%
%TO.N,+5V*%
X55150000Y-2200000D03*
%TD*%
D11*
%TO.P,C1,1*%
%TO.N,+5V*%
X9050000Y-32040000D03*
%TO.P,C1,2*%
%TO.N,GND*%
X10950000Y-32040000D03*
%TD*%
%TO.P,C2,1*%
%TO.N,+3V3*%
X23050000Y-32040000D03*
%TO.P,C2,2*%
%TO.N,GND*%
X24950000Y-32040000D03*
%TD*%
D13*
%TO.P,C8,1*%
%TO.N,+3V3*%
X27000000Y-3150000D03*
%TO.P,C8,2*%
%TO.N,GND*%
X27000000Y-1250000D03*
%TD*%
D11*
%TO.P,C5,1*%
%TO.N,+5V*%
X15050000Y-32040000D03*
%TO.P,C5,2*%
%TO.N,GND*%
X16950000Y-32040000D03*
%TD*%
D13*
%TO.P,C7,1*%
%TO.N,+3V3*%
X20000000Y-3150000D03*
%TO.P,C7,2*%
%TO.N,GND*%
X20000000Y-1250000D03*
%TD*%
D14*
%TO.P,J4,1*%
%TO.N,/F_PHI0*%
X5790000Y-28700000D03*
D15*
%TO.P,J4,2*%
%TO.N,/F_CS_N*%
X8330000Y-28700000D03*
%TO.P,J4,3*%
%TO.N,/F_RDY*%
X10870000Y-28700000D03*
%TO.P,J4,4*%
%TO.N,/F_CSYNC*%
X13410000Y-28700000D03*
%TO.P,J4,5*%
%TO.N,/F_LUM1*%
X15950000Y-28700000D03*
%TO.P,J4,6*%
%TO.N,/F_LUM2*%
X18490000Y-28700000D03*
%TO.P,J4,7*%
%TO.N,/F_BLK*%
X21030000Y-28700000D03*
%TO.P,J4,8*%
%TO.N,/F_I4*%
X23570000Y-28700000D03*
%TO.P,J4,9*%
%TO.N,/F_I5*%
X26110000Y-28700000D03*
%TO.P,J4,10*%
%TO.N,/F_A3*%
X28650000Y-28700000D03*
%TO.P,J4,11*%
%TO.N,/F_A0*%
X31190000Y-28700000D03*
%TO.P,J4,12*%
%TO.N,/F_A1*%
X33730000Y-28700000D03*
%TO.P,J4,13*%
%TO.N,/F_A2*%
X36270000Y-28700000D03*
%TO.P,J4,14*%
%TO.N,/F_A4*%
X38810000Y-28700000D03*
%TO.P,J4,15*%
%TO.N,/F_RW*%
X41350000Y-28700000D03*
%TO.P,J4,16*%
%TO.N,/F_D1*%
X43890000Y-28700000D03*
%TO.P,J4,17*%
%TO.N,/F_D0*%
X46430000Y-28700000D03*
%TO.P,J4,18*%
%TO.N,/F_D2*%
X48970000Y-28700000D03*
%TO.P,J4,19*%
%TO.N,/F_D3*%
X51510000Y-28700000D03*
%TO.P,J4,20*%
%TO.N,/F_D5*%
X54050000Y-28700000D03*
%TO.P,J4,21*%
%TO.N,/F_D7*%
X56590000Y-28700000D03*
%TO.P,J4,22*%
%TO.N,/F_D6*%
X59130000Y-28700000D03*
%TO.P,J4,23*%
%TO.N,unconnected-(J4-Pin_23-Pad23)*%
X61670000Y-28700000D03*
%TO.P,J4,24*%
%TO.N,unconnected-(J4-Pin_24-Pad24)*%
X64210000Y-28700000D03*
%TD*%
D16*
%TO.P,U4,1*%
%TO.N,GND*%
X18285000Y-20650000D03*
%TO.P,U4,2*%
%TO.N,/TIA_CS0_N*%
X19555000Y-20650000D03*
%TO.P,U4,3*%
%TO.N,/TIA_CS3_N*%
X20825000Y-20650000D03*
%TO.P,U4,4*%
%TO.N,/TIA_I4*%
X22095000Y-20650000D03*
%TO.P,U4,5*%
%TO.N,/TIA_I5*%
X23365000Y-20650000D03*
%TO.P,U4,6*%
%TO.N,/TIA_OSC*%
X24635000Y-20650000D03*
%TO.P,U4,7*%
%TO.N,GND*%
X25905000Y-20650000D03*
%TO.P,U4,8*%
X27175000Y-20650000D03*
%TO.P,U4,9*%
X28445000Y-20650000D03*
%TO.P,U4,10*%
X29715000Y-20650000D03*
%TO.P,U4,11*%
%TO.N,unconnected-(U4-Y7-Pad11)*%
X29715000Y-11350000D03*
%TO.P,U4,12*%
%TO.N,unconnected-(U4-Y6-Pad12)*%
X28445000Y-11350000D03*
%TO.P,U4,13*%
%TO.N,unconnected-(U4-Y5-Pad13)*%
X27175000Y-11350000D03*
%TO.P,U4,14*%
%TO.N,/F_OSC*%
X25905000Y-11350000D03*
%TO.P,U4,15*%
%TO.N,/F_I5*%
X24635000Y-11350000D03*
%TO.P,U4,16*%
%TO.N,/F_I4*%
X23365000Y-11350000D03*
%TO.P,U4,17*%
%TO.N,/F_CS3_N*%
X22095000Y-11350000D03*
%TO.P,U4,18*%
%TO.N,/F_CS0_N*%
X20825000Y-11350000D03*
%TO.P,U4,19*%
%TO.N,GND*%
X19555000Y-11350000D03*
%TO.P,U4,20*%
%TO.N,+3V3*%
X18285000Y-11350000D03*
%TD*%
D10*
%TO.P,U9,1*%
%TO.N,/F_AU1*%
X39862500Y-1250000D03*
%TO.P,U9,2*%
%TO.N,GND*%
X39862500Y-2200000D03*
%TO.P,U9,3*%
%TO.N,/F_AU0*%
X39862500Y-3150000D03*
%TO.P,U9,4*%
%TO.N,/TIA_AU0*%
X42137500Y-3150000D03*
%TO.P,U9,5*%
%TO.N,+3V3*%
X42137500Y-2200000D03*
%TO.P,U9,6*%
%TO.N,/TIA_AU1*%
X42137500Y-1250000D03*
%TD*%
D16*
%TO.P,U2,1*%
%TO.N,/F_RW*%
X46285000Y-20650000D03*
%TO.P,U2,2*%
%TO.N,/F_D0*%
X47555000Y-20650000D03*
%TO.P,U2,3*%
%TO.N,/F_D1*%
X48825000Y-20650000D03*
%TO.P,U2,4*%
%TO.N,/F_D2*%
X50095000Y-20650000D03*
%TO.P,U2,5*%
%TO.N,/F_D3*%
X51365000Y-20650000D03*
%TO.P,U2,6*%
%TO.N,/F_D4*%
X52635000Y-20650000D03*
%TO.P,U2,7*%
%TO.N,/F_D5*%
X53905000Y-20650000D03*
%TO.P,U2,8*%
%TO.N,/F_D6*%
X55175000Y-20650000D03*
%TO.P,U2,9*%
%TO.N,/F_D7*%
X56445000Y-20650000D03*
%TO.P,U2,10*%
%TO.N,GND*%
X57715000Y-20650000D03*
%TO.P,U2,11*%
%TO.N,/TIA_D7*%
X57715000Y-11350000D03*
%TO.P,U2,12*%
%TO.N,/TIA_D6*%
X56445000Y-11350000D03*
%TO.P,U2,13*%
%TO.N,/TIA_D5*%
X55175000Y-11350000D03*
%TO.P,U2,14*%
%TO.N,/TIA_D4*%
X53905000Y-11350000D03*
%TO.P,U2,15*%
%TO.N,/TIA_D3*%
X52635000Y-11350000D03*
%TO.P,U2,16*%
%TO.N,/TIA_D2*%
X51365000Y-11350000D03*
%TO.P,U2,17*%
%TO.N,/TIA_D1*%
X50095000Y-11350000D03*
%TO.P,U2,18*%
%TO.N,/TIA_D0*%
X48825000Y-11350000D03*
%TO.P,U2,19*%
%TO.N,/F_CS_N*%
X47555000Y-11350000D03*
%TO.P,U2,20*%
%TO.N,+3V3*%
X46285000Y-11350000D03*
%TD*%
D10*
%TO.P,U7,1*%
%TO.N,/F_BLK*%
X22362500Y-1250000D03*
%TO.P,U7,2*%
%TO.N,GND*%
X22362500Y-2200000D03*
%TO.P,U7,3*%
%TO.N,/F_LUM2*%
X22362500Y-3150000D03*
%TO.P,U7,4*%
%TO.N,/TIA_LUM2*%
X24637500Y-3150000D03*
%TO.P,U7,5*%
%TO.N,+3V3*%
X24637500Y-2200000D03*
%TO.P,U7,6*%
%TO.N,/TIA_BLK*%
X24637500Y-1250000D03*
%TD*%
D11*
%TO.P,C6,1*%
%TO.N,+3V3*%
X44050000Y-32040000D03*
%TO.P,C6,2*%
%TO.N,GND*%
X45950000Y-32040000D03*
%TD*%
%TO.P,C4,1*%
%TO.N,+3V3*%
X51050000Y-32040000D03*
%TO.P,C4,2*%
%TO.N,GND*%
X52950000Y-32040000D03*
%TD*%
D13*
%TO.P,C10,1*%
%TO.N,+3V3*%
X44500000Y-3150000D03*
%TO.P,C10,2*%
%TO.N,GND*%
X44500000Y-1250000D03*
%TD*%
D14*
%TO.P,J1,1*%
%TO.N,/F_OSC*%
X5790000Y-5840000D03*
D15*
%TO.P,J1,2*%
%TO.N,unconnected-(J1-Pin_2-Pad2)*%
X8330000Y-5840000D03*
%TO.P,J1,3*%
%TO.N,unconnected-(J1-Pin_3-Pad3)*%
X10870000Y-5840000D03*
%TO.P,J1,4*%
%TO.N,unconnected-(J1-Pin_4-Pad4)*%
X13410000Y-5840000D03*
%TO.P,J1,5*%
%TO.N,unconnected-(J1-Pin_5-Pad5)*%
X15950000Y-5840000D03*
%TO.P,J1,6*%
%TO.N,unconnected-(J1-Pin_6-Pad6)*%
X18490000Y-5840000D03*
%TO.P,J1,7*%
%TO.N,unconnected-(J1-Pin_7-Pad7)*%
X21030000Y-5840000D03*
%TO.P,J1,8*%
%TO.N,unconnected-(J1-Pin_8-Pad8)*%
X23570000Y-5840000D03*
%TO.P,J1,9*%
%TO.N,unconnected-(J1-Pin_9-Pad9)*%
X26110000Y-5840000D03*
%TO.P,J1,10*%
%TO.N,/F_COL*%
X28650000Y-5840000D03*
%TO.P,J1,11*%
%TO.N,/F_LUM0*%
X31190000Y-5840000D03*
%TO.P,J1,12*%
%TO.N,unconnected-(J1-Pin_12-Pad12)*%
X33730000Y-5840000D03*
%TO.P,J1,13*%
%TO.N,unconnected-(J1-Pin_13-Pad13)*%
X36270000Y-5840000D03*
%TO.P,J1,14*%
%TO.N,unconnected-(J1-Pin_14-Pad14)*%
X38810000Y-5840000D03*
%TO.P,J1,15*%
%TO.N,unconnected-(J1-Pin_15-Pad15)*%
X41350000Y-5840000D03*
%TO.P,J1,16*%
%TO.N,unconnected-(J1-Pin_16-Pad16)*%
X43890000Y-5840000D03*
%TO.P,J1,17*%
%TO.N,unconnected-(J1-Pin_17-Pad17)*%
X46430000Y-5840000D03*
%TO.P,J1,18*%
%TO.N,/TN_5V*%
X48970000Y-5840000D03*
%TO.P,J1,19*%
%TO.N,/F_AU1*%
X51510000Y-5840000D03*
%TO.P,J1,20*%
%TO.N,/F_AU0*%
X54050000Y-5840000D03*
%TO.P,J1,21*%
%TO.N,/F_A5*%
X56590000Y-5840000D03*
%TO.P,J1,22*%
%TO.N,/F_D4*%
X59130000Y-5840000D03*
%TO.P,J1,23*%
%TO.N,GND*%
X61670000Y-5840000D03*
%TO.P,J1,24*%
%TO.N,+3V3*%
X64210000Y-5840000D03*
%TD*%
D17*
%TO.P,U1,1*%
%TO.N,GND*%
X6190000Y-18475000D03*
%TO.P,U1,2*%
%TO.N,/F_PHI0*%
X7460000Y-18475000D03*
%TO.P,U1,3*%
%TO.N,/TIA_PHI0*%
X8730000Y-18475000D03*
%TO.P,U1,4*%
%TO.N,GND*%
X10000000Y-18475000D03*
%TO.P,U1,5*%
%TO.N,/F_RDY*%
X11270000Y-18475000D03*
%TO.P,U1,6*%
%TO.N,/TIA_RDY*%
X12540000Y-18475000D03*
%TO.P,U1,7*%
%TO.N,GND*%
X13810000Y-18475000D03*
%TO.P,U1,8*%
%TO.N,unconnected-(U1-Pad8)*%
X13810000Y-13525000D03*
%TO.P,U1,9*%
%TO.N,GND*%
X12540000Y-13525000D03*
%TO.P,U1,10*%
%TO.N,+5V*%
X11270000Y-13525000D03*
%TO.P,U1,11*%
%TO.N,unconnected-(U1-Pad11)*%
X10000000Y-13525000D03*
%TO.P,U1,12*%
%TO.N,GND*%
X8730000Y-13525000D03*
%TO.P,U1,13*%
%TO.N,+5V*%
X7460000Y-13525000D03*
%TO.P,U1,14*%
X6190000Y-13525000D03*
%TD*%
D10*
%TO.P,U6,1*%
%TO.N,/F_CSYNC*%
X15362500Y-1250000D03*
%TO.P,U6,2*%
%TO.N,GND*%
X15362500Y-2200000D03*
%TO.P,U6,3*%
%TO.N,/F_LUM1*%
X15362500Y-3150000D03*
%TO.P,U6,4*%
%TO.N,/TIA_LUM1*%
X17637500Y-3150000D03*
%TO.P,U6,5*%
%TO.N,+3V3*%
X17637500Y-2200000D03*
%TO.P,U6,6*%
%TO.N,/TIA_CSYNC*%
X17637500Y-1250000D03*
%TD*%
D16*
%TO.P,U3,1*%
%TO.N,GND*%
X32285000Y-20650000D03*
%TO.P,U3,2*%
%TO.N,/TIA_A0*%
X33555000Y-20650000D03*
%TO.P,U3,3*%
%TO.N,/TIA_A1*%
X34825000Y-20650000D03*
%TO.P,U3,4*%
%TO.N,/TIA_A2*%
X36095000Y-20650000D03*
%TO.P,U3,5*%
%TO.N,/TIA_A3*%
X37365000Y-20650000D03*
%TO.P,U3,6*%
%TO.N,/TIA_A4*%
X38635000Y-20650000D03*
%TO.P,U3,7*%
%TO.N,/TIA_A5*%
X39905000Y-20650000D03*
%TO.P,U3,8*%
%TO.N,/TIA_RW*%
X41175000Y-20650000D03*
%TO.P,U3,9*%
%TO.N,/TIA_PHI2*%
X42445000Y-20650000D03*
%TO.P,U3,10*%
%TO.N,GND*%
X43715000Y-20650000D03*
%TO.P,U3,11*%
%TO.N,unconnected-(U3-Y7-Pad11)*%
X43715000Y-11350000D03*
%TO.P,U3,12*%
%TO.N,/F_RW*%
X42445000Y-11350000D03*
%TO.P,U3,13*%
%TO.N,/F_A5*%
X41175000Y-11350000D03*
%TO.P,U3,14*%
%TO.N,/F_A4*%
X39905000Y-11350000D03*
%TO.P,U3,15*%
%TO.N,/F_A3*%
X38635000Y-11350000D03*
%TO.P,U3,16*%
%TO.N,/F_A2*%
X37365000Y-11350000D03*
%TO.P,U3,17*%
%TO.N,/F_A1*%
X36095000Y-11350000D03*
%TO.P,U3,18*%
%TO.N,/F_A0*%
X34825000Y-11350000D03*
%TO.P,U3,19*%
%TO.N,GND*%
X33555000Y-11350000D03*
%TO.P,U3,20*%
%TO.N,+3V3*%
X32285000Y-11350000D03*
%TD*%
D13*
%TO.P,C9,1*%
%TO.N,+3V3*%
X34000000Y-3150000D03*
%TO.P,C9,2*%
%TO.N,GND*%
X34000000Y-1250000D03*
%TD*%
D14*
%TO.P,J3,1*%
%TO.N,/TIA_CS3_N*%
X59130000Y-23620000D03*
D15*
%TO.P,J3,2*%
%TO.N,GND*%
X56590000Y-23620000D03*
%TO.P,J3,3*%
%TO.N,+5V*%
X54050000Y-23620000D03*
%TO.P,J3,4*%
%TO.N,/TIA_CS0_N*%
X51510000Y-23620000D03*
%TO.P,J3,5*%
%TO.N,/TIA_RW*%
X48970000Y-23620000D03*
%TO.P,J3,6*%
%TO.N,/TIA_PHI2*%
X46430000Y-23620000D03*
%TO.P,J3,7*%
%TO.N,/TIA_A5*%
X43890000Y-23620000D03*
%TO.P,J3,8*%
%TO.N,/TIA_A4*%
X41350000Y-23620000D03*
%TO.P,J3,9*%
%TO.N,/TIA_A3*%
X38810000Y-23620000D03*
%TO.P,J3,10*%
%TO.N,/TIA_A2*%
X36270000Y-23620000D03*
%TO.P,J3,11*%
%TO.N,/TIA_A1*%
X33730000Y-23620000D03*
%TO.P,J3,12*%
%TO.N,/TIA_A0*%
X31190000Y-23620000D03*
%TO.P,J3,13*%
%TO.N,/TIA_D6*%
X28650000Y-23620000D03*
%TO.P,J3,14*%
%TO.N,/TIA_D7*%
X26110000Y-23620000D03*
%TO.P,J3,15*%
%TO.N,/TIA_I5*%
X23570000Y-23620000D03*
%TO.P,J3,16*%
%TO.N,/TIA_I4*%
X21030000Y-23620000D03*
%TO.P,J3,17*%
%TO.N,unconnected-(J3-Pin_17-Pad17)*%
X18490000Y-23620000D03*
%TO.P,J3,18*%
%TO.N,unconnected-(J3-Pin_18-Pad18)*%
X15950000Y-23620000D03*
%TO.P,J3,19*%
%TO.N,unconnected-(J3-Pin_19-Pad19)*%
X13410000Y-23620000D03*
%TO.P,J3,20*%
%TO.N,unconnected-(J3-Pin_20-Pad20)*%
X10870000Y-23620000D03*
%TD*%
D14*
%TO.P,J2,1*%
%TO.N,GND*%
X10870000Y-8380000D03*
D15*
%TO.P,J2,2*%
%TO.N,/TIA_CSYNC*%
X13410000Y-8380000D03*
%TO.P,J2,3*%
%TO.N,/TIA_RDY*%
X15950000Y-8380000D03*
%TO.P,J2,4*%
%TO.N,/TIA_PHI0*%
X18490000Y-8380000D03*
%TO.P,J2,5*%
%TO.N,/TIA_LUM1*%
X21030000Y-8380000D03*
%TO.P,J2,6*%
%TO.N,/TIA_BLK*%
X23570000Y-8380000D03*
%TO.P,J2,7*%
%TO.N,/TIA_LUM2*%
X26110000Y-8380000D03*
%TO.P,J2,8*%
%TO.N,/TIA_LUM0*%
X28650000Y-8380000D03*
%TO.P,J2,9*%
%TO.N,/TIA_COL*%
X31190000Y-8380000D03*
%TO.P,J2,10*%
%TO.N,unconnected-(J2-Pin_10-Pad10)*%
X33730000Y-8380000D03*
%TO.P,J2,11*%
%TO.N,/TIA_OSC*%
X36270000Y-8380000D03*
%TO.P,J2,12*%
%TO.N,/TIA_AU1*%
X38810000Y-8380000D03*
%TO.P,J2,13*%
%TO.N,/TIA_AU0*%
X41350000Y-8380000D03*
%TO.P,J2,14*%
%TO.N,/TIA_D0*%
X43890000Y-8380000D03*
%TO.P,J2,15*%
%TO.N,/TIA_D1*%
X46430000Y-8380000D03*
%TO.P,J2,16*%
%TO.N,/TIA_D2*%
X48970000Y-8380000D03*
%TO.P,J2,17*%
%TO.N,/TIA_D3*%
X51510000Y-8380000D03*
%TO.P,J2,18*%
%TO.N,/TIA_D4*%
X54050000Y-8380000D03*
%TO.P,J2,19*%
%TO.N,/TIA_D5*%
X56590000Y-8380000D03*
%TO.P,J2,20*%
%TO.N,+5V*%
X59130000Y-8380000D03*
%TD*%
D18*
%TO.N,GND*%
X19073400Y-32816600D03*
X18104800Y-4349200D03*
X11768800Y-2200000D03*
X20279300Y-2200000D03*
X27219230Y-1469230D03*
X37381063Y-2263500D03*
%TO.N,/F_CS_N*%
X45494600Y-9735500D03*
X8000000Y-3224300D03*
%TO.N,+3V3*%
X55876700Y-7251800D03*
X57000600Y-32995000D03*
%TO.N,/TN_5V*%
X49974400Y-3700200D03*
%TO.N,/F_CSYNC*%
X14263300Y-1519500D03*
%TO.N,/F_LUM1*%
X15738500Y-3897700D03*
%TO.N,/F_LUM2*%
X21212700Y-3295000D03*
%TO.N,/F_BLK*%
X22881400Y-3900000D03*
%TO.N,/F_I4*%
X23951200Y-10084900D03*
%TO.N,/F_I5*%
X25238500Y-12657400D03*
%TO.N,/F_A3*%
X32921700Y-13940000D03*
%TO.N,/F_A0*%
X34825000Y-12825600D03*
%TO.N,/F_A1*%
X35998200Y-12818300D03*
%TO.N,/F_A2*%
X37145100Y-12843100D03*
%TO.N,/F_A4*%
X39864100Y-12808300D03*
%TO.N,/F_D3*%
X50696900Y-19401000D03*
%TO.N,/F_D7*%
X56544200Y-22129800D03*
%TO.N,/TIA_CS3_N*%
X46176300Y-24913000D03*
%TO.N,/TIA_OSC*%
X25544400Y-19105600D03*
%TO.N,/F_OSC*%
X24182200Y-4623100D03*
%TO.N,/F_AU1*%
X38815700Y-1697900D03*
%TO.N,/F_AU0*%
X38737900Y-3145100D03*
%TO.N,/TIA_D7*%
X46445300Y-13788500D03*
%TO.N,/TIA_D6*%
X53069700Y-12879500D03*
%TO.N,/TIA_BLK*%
X25737400Y-1487100D03*
%TO.N,/TIA_PHI0*%
X16473300Y-16271400D03*
%TO.N,/TIA_RDY*%
X15900900Y-19726100D03*
%TO.N,/TIA_CSYNC*%
X16899500Y-9454400D03*
X18737400Y-1519500D03*
%TO.N,/TIA_RW*%
X44772100Y-22464000D03*
%TD*%
%TO.N,/F_CS0_N*%
D19*
X17220100Y-8627800D02*
X17220100Y-8068100D01*
X12140000Y-6153200D02*
X12140000Y-5548000D01*
X17220100Y-8068100D02*
X16418600Y-7266600D01*
X12140000Y-5548000D02*
X10834400Y-4242400D01*
X20825000Y-11350000D02*
X20825000Y-11054400D01*
X13253400Y-7266600D02*
X12140000Y-6153200D01*
X5636700Y-2206900D02*
X6593600Y-1250000D01*
X6259200Y-4242400D02*
X5636700Y-3619900D01*
X20825000Y-11054400D02*
X19445300Y-9674700D01*
X16418600Y-7266600D02*
X13253400Y-7266600D01*
X19445300Y-9674700D02*
X18267000Y-9674700D01*
X18267000Y-9674700D02*
X17220100Y-8627800D01*
X6593600Y-1250000D02*
X6862500Y-1250000D01*
X5636700Y-3619900D02*
X5636700Y-2206900D01*
X10834400Y-4242400D02*
X6259200Y-4242400D01*
%TO.N,/F_CS3_N*%
X15460200Y-6932600D02*
X18593000Y-6932600D01*
X19760000Y-8673600D02*
X22095000Y-11008600D01*
X6862500Y-2200000D02*
X6544500Y-2200000D01*
X18593000Y-6932600D02*
X19760000Y-8099600D01*
X19760000Y-8099600D02*
X19760000Y-8673600D01*
X6323600Y-3862900D02*
X12994100Y-3862900D01*
X14680000Y-6152400D02*
X15460200Y-6932600D01*
X22095000Y-11008600D02*
X22095000Y-11350000D01*
X12994100Y-3862900D02*
X14680000Y-5548800D01*
X5960300Y-3499600D02*
X6323600Y-3862900D01*
X6544500Y-2200000D02*
X5960300Y-2784200D01*
X14680000Y-5548800D02*
X14680000Y-6152400D01*
X5960300Y-2784200D02*
X5960300Y-3499600D01*
%TO.N,GND*%
X6862500Y-3150000D02*
X7225000Y-3150000D01*
X24002300Y-31092300D02*
X20797700Y-31092300D01*
X18142900Y-20507800D02*
X18285000Y-20650000D01*
X60247500Y-29117300D02*
X57324800Y-32040000D01*
X6190000Y-18475000D02*
X6190000Y-18207300D01*
X32285000Y-20278300D02*
X33162400Y-19400900D01*
X18296800Y-32040000D02*
X16950000Y-32040000D01*
X26565100Y-20650000D02*
X25905000Y-20650000D01*
X32285000Y-20650000D02*
X32285000Y-20278300D01*
X16247500Y-2784400D02*
X16247500Y-3008900D01*
X7440900Y-16956400D02*
X7575900Y-16956400D01*
X8095000Y-17475500D02*
X8095000Y-19413400D01*
X9674600Y-14722700D02*
X11606100Y-14722700D01*
X16110000Y-18475000D02*
X18142900Y-20507800D01*
X7575900Y-16821400D02*
X9674600Y-14722700D01*
X10922000Y-17245500D02*
X10000000Y-18167500D01*
X52950000Y-32040000D02*
X51983900Y-31073900D01*
X7225000Y-3150000D02*
X8175000Y-2200000D01*
X8730000Y-13525000D02*
X8730000Y-13778100D01*
X26641500Y-18567100D02*
X33555000Y-11653600D01*
X19073400Y-32816600D02*
X18296800Y-32040000D01*
X7575900Y-16956400D02*
X7575900Y-16821400D01*
X15985800Y-33004200D02*
X11914200Y-33004200D01*
X56590000Y-23620000D02*
X60247500Y-27277500D01*
X10870000Y-9451700D02*
X12540000Y-11121700D01*
X13810000Y-18242800D02*
X12812700Y-17245500D01*
X12540000Y-13788800D02*
X12540000Y-13525000D01*
X27175000Y-20650000D02*
X26565100Y-20650000D01*
X39799000Y-2263500D02*
X39862500Y-2200000D01*
X57080000Y-1250000D02*
X44500000Y-1250000D01*
X33555000Y-11653600D02*
X33555000Y-11350000D01*
X8095000Y-19413400D02*
X8367500Y-19685900D01*
X29715000Y-20650000D02*
X28445000Y-20650000D01*
X24950000Y-32040000D02*
X24002300Y-31092300D01*
X8730000Y-13778100D02*
X9674600Y-14722700D01*
X20000000Y-1250000D02*
X20279300Y-1529300D01*
X16950000Y-32040000D02*
X15985800Y-33004200D01*
X34000000Y-1250000D02*
X35013500Y-2263500D01*
X61670000Y-5840000D02*
X57080000Y-1250000D01*
X57715000Y-20650000D02*
X57715000Y-22495000D01*
X13810000Y-18475000D02*
X13810000Y-18242800D01*
X19555000Y-11022700D02*
X18627000Y-10094700D01*
X20083600Y-18567100D02*
X18142900Y-20507800D01*
X8367500Y-19685900D02*
X9046700Y-19685900D01*
X6190000Y-18207300D02*
X7440900Y-16956400D01*
X38950000Y-31073900D02*
X38950000Y-32040000D01*
X27950000Y-2200000D02*
X29362500Y-2200000D01*
X17587800Y-4349200D02*
X18104800Y-4349200D01*
X15362500Y-2200000D02*
X11768800Y-2200000D01*
X10000000Y-18732600D02*
X10000000Y-18475000D01*
X20797700Y-31092300D02*
X19073400Y-32816600D01*
X9046700Y-19685900D02*
X10000000Y-18732600D01*
X27000000Y-1250000D02*
X27950000Y-2200000D01*
X25916100Y-31073900D02*
X24950000Y-32040000D01*
X57324800Y-32040000D02*
X52950000Y-32040000D01*
X15663100Y-2200000D02*
X16247500Y-2784400D01*
X35013500Y-2263500D02*
X39799000Y-2263500D01*
X10870000Y-8380000D02*
X10870000Y-9451700D01*
X26565100Y-20650000D02*
X26565100Y-18567100D01*
X12812700Y-17245500D02*
X10922000Y-17245500D01*
X12540000Y-11121700D02*
X12540000Y-13525000D01*
X11914200Y-33004200D02*
X10950000Y-32040000D01*
X32285000Y-20650000D02*
X29715000Y-20650000D01*
X10000000Y-18167500D02*
X10000000Y-18475000D01*
X28445000Y-20650000D02*
X27175000Y-20650000D01*
X45950000Y-31073900D02*
X38950000Y-31073900D01*
X38950000Y-31073900D02*
X25916100Y-31073900D01*
X26565100Y-18567100D02*
X26641500Y-18567100D01*
X13567000Y-10094700D02*
X12540000Y-11121700D01*
X13810000Y-18475000D02*
X16110000Y-18475000D01*
X7575900Y-16956400D02*
X8095000Y-17475500D01*
X57715000Y-22495000D02*
X56590000Y-23620000D01*
X20279300Y-2200000D02*
X22362500Y-2200000D01*
X26565100Y-18567100D02*
X20083600Y-18567100D01*
X20279300Y-1529300D02*
X20279300Y-2200000D01*
X45950000Y-31073900D02*
X45950000Y-32040000D01*
X15362500Y-2200000D02*
X15663100Y-2200000D01*
X43715000Y-20367600D02*
X43715000Y-20650000D01*
X51983900Y-31073900D02*
X45950000Y-31073900D01*
X33162400Y-19400900D02*
X42748300Y-19400900D01*
X16247500Y-3008900D02*
X17587800Y-4349200D01*
X18627000Y-10094700D02*
X13567000Y-10094700D01*
X11606100Y-14722700D02*
X12540000Y-13788800D01*
X19555000Y-11350000D02*
X19555000Y-11022700D01*
X8175000Y-2200000D02*
X11768800Y-2200000D01*
X42748300Y-19400900D02*
X43715000Y-20367600D01*
X60247500Y-27277500D02*
X60247500Y-29117300D01*
%TO.N,/F_CS_N*%
X47555000Y-11350000D02*
X47555000Y-11008600D01*
X8000000Y-3224300D02*
X9063200Y-3224300D01*
X46281900Y-9735500D02*
X45494600Y-9735500D01*
X47555000Y-11008600D02*
X46281900Y-9735500D01*
X9063200Y-3224300D02*
X9137500Y-3150000D01*
%TO.N,+3V3*%
X32468700Y-8641100D02*
X31022400Y-10087400D01*
X44963300Y-7297200D02*
X44963300Y-7251800D01*
X33416700Y-7110000D02*
X32595600Y-7931100D01*
X34035000Y-7110000D02*
X33416700Y-7110000D01*
X20000000Y-3150000D02*
X19050000Y-2200000D01*
X42620000Y-8671600D02*
X41807200Y-9484400D01*
X23688300Y-3845900D02*
X23108600Y-4425600D01*
X34828000Y-6317000D02*
X34035000Y-7110000D01*
X27190000Y-8459400D02*
X27190000Y-3340000D01*
X42620000Y-8109400D02*
X42620000Y-8671600D01*
X23997700Y-32987700D02*
X36102300Y-32987700D01*
X44963300Y-7251800D02*
X44963300Y-3613300D01*
X16247300Y-1077000D02*
X17370300Y-2200000D01*
X44963300Y-10028300D02*
X44963300Y-7297200D01*
X41807200Y-9484400D02*
X33311900Y-9484400D01*
X24389100Y-2200000D02*
X23688300Y-2900800D01*
X27190000Y-3340000D02*
X27000000Y-3150000D01*
X32285000Y-11350000D02*
X31022400Y-10087400D01*
X32595600Y-8514200D02*
X32468700Y-8641100D01*
X51050000Y-32995000D02*
X57000600Y-32995000D01*
X23050000Y-32040000D02*
X23997700Y-32987700D01*
X21275600Y-4425600D02*
X20000000Y-3150000D01*
X18285000Y-11350000D02*
X18285000Y-11676000D01*
X44963300Y-7297200D02*
X43432200Y-7297200D01*
X43432200Y-7297200D02*
X42620000Y-8109400D01*
X33311900Y-9484400D02*
X32468700Y-8641100D01*
X9137500Y-1250000D02*
X9659800Y-727700D01*
X19050000Y-2200000D02*
X17637500Y-2200000D01*
X34000000Y-3150000D02*
X33050000Y-2200000D01*
X28818000Y-10087400D02*
X27190000Y-8459400D01*
X44963300Y-7251800D02*
X55876700Y-7251800D01*
X32595600Y-7931100D02*
X32595600Y-8514200D01*
X19828300Y-13219300D02*
X30415700Y-13219300D01*
X38005000Y-32995000D02*
X37050000Y-32040000D01*
X46285000Y-11350000D02*
X44963300Y-10028300D01*
X44050000Y-32995000D02*
X51050000Y-32995000D01*
X18285000Y-11676000D02*
X19828300Y-13219300D01*
X16071100Y-727700D02*
X16247300Y-903900D01*
X34828000Y-3978000D02*
X34828000Y-6317000D01*
X26050000Y-2200000D02*
X24637500Y-2200000D01*
X30415700Y-13219300D02*
X32285000Y-11350000D01*
X51050000Y-32040000D02*
X51050000Y-32995000D01*
X43550000Y-2200000D02*
X44500000Y-3150000D01*
X17370300Y-2200000D02*
X17637500Y-2200000D01*
X23688300Y-2900800D02*
X23688300Y-3845900D01*
X36102300Y-32987700D02*
X37050000Y-32040000D01*
X42137500Y-2200000D02*
X43550000Y-2200000D01*
X16247300Y-903900D02*
X16247300Y-1077000D01*
X9659800Y-727700D02*
X16071100Y-727700D01*
X23108600Y-4425600D02*
X21275600Y-4425600D01*
X24637500Y-2200000D02*
X24389100Y-2200000D01*
X34000000Y-3150000D02*
X34828000Y-3978000D01*
X27000000Y-3150000D02*
X26050000Y-2200000D01*
X44050000Y-32995000D02*
X44050000Y-32040000D01*
X33050000Y-2200000D02*
X31637500Y-2200000D01*
X44963300Y-3613300D02*
X44500000Y-3150000D01*
X44050000Y-32995000D02*
X38005000Y-32995000D01*
X31022400Y-10087400D02*
X28818000Y-10087400D01*
%TO.N,/F_LUM0*%
X30413100Y-1989900D02*
X29673200Y-1250000D01*
X31190000Y-5840000D02*
X30413100Y-5063100D01*
X30413100Y-5063100D02*
X30413100Y-1989900D01*
X29673200Y-1250000D02*
X29362500Y-1250000D01*
%TO.N,/F_COL*%
X28650000Y-5840000D02*
X29362500Y-5127500D01*
X29362500Y-5127500D02*
X29362500Y-3150000D01*
%TO.N,/TIA_COL*%
X31190000Y-8380000D02*
X32617500Y-6952500D01*
X32617500Y-4130000D02*
X31637500Y-3150000D01*
X32617500Y-6952500D02*
X32617500Y-4130000D01*
%TO.N,/TIA_LUM0*%
X30752700Y-1887400D02*
X30752700Y-3629600D01*
X31637500Y-1250000D02*
X31390100Y-1250000D01*
X29920000Y-7110000D02*
X28650000Y-8380000D01*
X30752700Y-3629600D02*
X32305800Y-5182700D01*
X32305800Y-6292500D02*
X31488300Y-7110000D01*
X31390100Y-1250000D02*
X30752700Y-1887400D01*
X31488300Y-7110000D02*
X29920000Y-7110000D01*
X32305800Y-5182700D02*
X32305800Y-6292500D01*
%TO.N,/TN_5V*%
X50349800Y-3700200D02*
X51850000Y-2200000D01*
X49974400Y-3700200D02*
X50349800Y-3700200D01*
%TO.N,+5V*%
X15050000Y-32040000D02*
X14067800Y-31057800D01*
X9050000Y-31057800D02*
X9050000Y-32040000D01*
X6190000Y-13525000D02*
X7460000Y-13525000D01*
X4644400Y-29622800D02*
X4644400Y-15070600D01*
X55169700Y-27455500D02*
X55169700Y-29150200D01*
X6079400Y-31057800D02*
X4644400Y-29622800D01*
X16572300Y-30517700D02*
X15050000Y-32040000D01*
X53802200Y-30517700D02*
X16572300Y-30517700D01*
X10283200Y-12290200D02*
X11270000Y-13277000D01*
X57719800Y-6930400D02*
X57719800Y-4769800D01*
X54050000Y-23620000D02*
X54050000Y-26335800D01*
X54050000Y-26335800D02*
X55169700Y-27455500D01*
X7460000Y-13241500D02*
X8411300Y-12290200D01*
X4644400Y-15070600D02*
X6190000Y-13525000D01*
X14067800Y-31057800D02*
X9050000Y-31057800D01*
X59130000Y-8380000D02*
X57869900Y-7119900D01*
X9050000Y-31057800D02*
X6079400Y-31057800D01*
X57869900Y-7119900D02*
X57869900Y-7080500D01*
X57719800Y-4769800D02*
X55150000Y-2200000D01*
X57869900Y-7080500D02*
X57719800Y-6930400D01*
X7460000Y-13525000D02*
X7460000Y-13241500D01*
X8411300Y-12290200D02*
X10283200Y-12290200D01*
X55169700Y-29150200D02*
X53802200Y-30517700D01*
X11270000Y-13277000D02*
X11270000Y-13525000D01*
%TO.N,/F_PHI0*%
X7460000Y-18475000D02*
X7460000Y-25958300D01*
X5790000Y-28700000D02*
X5790000Y-27628300D01*
X7460000Y-25958300D02*
X5790000Y-27628300D01*
%TO.N,/F_RDY*%
X11270000Y-18475000D02*
X11976900Y-19181900D01*
X11976900Y-19181900D02*
X11976900Y-27593100D01*
X11976900Y-27593100D02*
X10870000Y-28700000D01*
%TO.N,/F_CSYNC*%
X14532800Y-1250000D02*
X14263300Y-1519500D01*
X15362500Y-1250000D02*
X14532800Y-1250000D01*
%TO.N,/F_LUM1*%
X15362500Y-3150000D02*
X15738500Y-3526000D01*
X15738500Y-3526000D02*
X15738500Y-3897700D01*
%TO.N,/F_LUM2*%
X21212700Y-3295000D02*
X22217500Y-3295000D01*
X22217500Y-3295000D02*
X22362500Y-3150000D01*
%TO.N,/F_BLK*%
X23285400Y-1907300D02*
X23285400Y-3496000D01*
X22362500Y-1250000D02*
X22628100Y-1250000D01*
X23285400Y-3496000D02*
X22881400Y-3900000D01*
X22628100Y-1250000D02*
X23285400Y-1907300D01*
%TO.N,/F_I4*%
X23365000Y-11350000D02*
X23365000Y-10671100D01*
X23365000Y-10671100D02*
X23951200Y-10084900D01*
%TO.N,/F_I5*%
X24635000Y-11350000D02*
X24635000Y-12053900D01*
X24635000Y-12053900D02*
X25238500Y-12657400D01*
%TO.N,/F_A3*%
X38635000Y-12177300D02*
X36872300Y-13940000D01*
X38635000Y-11350000D02*
X38635000Y-12177300D01*
X36872300Y-13940000D02*
X32921700Y-13940000D01*
%TO.N,/F_A0*%
X34825000Y-11350000D02*
X34825000Y-12825600D01*
%TO.N,/F_A1*%
X36095000Y-12721500D02*
X35998200Y-12818300D01*
X36095000Y-11350000D02*
X36095000Y-12721500D01*
%TO.N,/F_A2*%
X37145100Y-11569900D02*
X37145100Y-12843100D01*
X37365000Y-11350000D02*
X37145100Y-11569900D01*
%TO.N,/F_A4*%
X39905000Y-11350000D02*
X39864100Y-11390900D01*
X39864100Y-11390900D02*
X39864100Y-12808300D01*
%TO.N,/F_RW*%
X47517900Y-24309300D02*
X46392500Y-25434700D01*
X44615300Y-25434700D02*
X41350000Y-28700000D01*
X46285000Y-21807800D02*
X47517900Y-23040700D01*
X42445000Y-16810000D02*
X42445000Y-11350000D01*
X46392500Y-25434700D02*
X44615300Y-25434700D01*
X46285000Y-20650000D02*
X46285000Y-21807800D01*
X46285000Y-20650000D02*
X42445000Y-16810000D01*
X47517900Y-23040700D02*
X47517900Y-24309300D01*
%TO.N,/F_D1*%
X50095000Y-22919700D02*
X50095000Y-24084400D01*
X49107300Y-26461400D02*
X47877600Y-27691100D01*
X49107300Y-25072100D02*
X49107300Y-26461400D01*
X50095000Y-24084400D02*
X49107300Y-25072100D01*
X46931000Y-29780400D02*
X44970400Y-29780400D01*
X47877600Y-27691100D02*
X47877600Y-28833800D01*
X48825000Y-20650000D02*
X48825000Y-21649700D01*
X48825000Y-21649700D02*
X50095000Y-22919700D01*
X47877600Y-28833800D02*
X46931000Y-29780400D01*
X44970400Y-29780400D02*
X43890000Y-28700000D01*
%TO.N,/F_D0*%
X47863900Y-27263900D02*
X46430000Y-28697800D01*
X47863900Y-20958900D02*
X47863900Y-27263900D01*
X46430000Y-28697800D02*
X46430000Y-28700000D01*
X47555000Y-20650000D02*
X47863900Y-20958900D01*
%TO.N,/F_D2*%
X50096500Y-24523900D02*
X50406700Y-24213700D01*
X50406700Y-24213700D02*
X50406700Y-20961700D01*
X50096500Y-27573500D02*
X50096500Y-24523900D01*
X48970000Y-28700000D02*
X50096500Y-27573500D01*
X50406700Y-20961700D02*
X50095000Y-20650000D01*
%TO.N,/F_D3*%
X51365000Y-20650000D02*
X50696900Y-19981900D01*
X50696900Y-19981900D02*
X50696900Y-19401000D01*
%TO.N,/F_D5*%
X52965100Y-27615100D02*
X52965100Y-22740500D01*
X53905000Y-21800600D02*
X53905000Y-20650000D01*
X52965100Y-22740500D02*
X53905000Y-21800600D01*
X54050000Y-28700000D02*
X52965100Y-27615100D01*
%TO.N,/F_D7*%
X56544200Y-20749200D02*
X56544200Y-22129800D01*
X56445000Y-20650000D02*
X56544200Y-20749200D01*
%TO.N,/F_D6*%
X55175000Y-24745000D02*
X55175000Y-20650000D01*
X59130000Y-28700000D02*
X55175000Y-24745000D01*
%TO.N,/TIA_CS0_N*%
X41203800Y-30092100D02*
X49155600Y-30092100D01*
X40080000Y-28968300D02*
X41203800Y-30092100D01*
X40080000Y-28382700D02*
X40080000Y-28968300D01*
X50417600Y-28830100D02*
X50417600Y-24712400D01*
X19760000Y-20855000D02*
X19760000Y-23866400D01*
X21496800Y-25603200D02*
X37300500Y-25603200D01*
X19760000Y-23866400D02*
X21496800Y-25603200D01*
X50417600Y-24712400D02*
X51510000Y-23620000D01*
X19555000Y-20650000D02*
X19760000Y-20855000D01*
X37300500Y-25603200D02*
X40080000Y-28382700D01*
X49155600Y-30092100D02*
X50417600Y-28830100D01*
%TO.N,/TIA_CS3_N*%
X24840100Y-23908300D02*
X25844800Y-24913000D01*
X20825000Y-20650000D02*
X20825000Y-20336000D01*
X25844800Y-24913000D02*
X46176300Y-24913000D01*
X20825000Y-20336000D02*
X21771800Y-19389200D01*
X24000000Y-21575600D02*
X24840100Y-22415700D01*
X21771800Y-19389200D02*
X23752400Y-19389200D01*
X23752400Y-19389200D02*
X24000000Y-19636800D01*
X24000000Y-19636800D02*
X24000000Y-21575600D01*
X24840100Y-22415700D02*
X24840100Y-23908300D01*
%TO.N,/TIA_I4*%
X21030000Y-23620000D02*
X22095000Y-22555000D01*
X22095000Y-22555000D02*
X22095000Y-20650000D01*
%TO.N,/TIA_I5*%
X23365000Y-23415000D02*
X23365000Y-20650000D01*
X23570000Y-23620000D02*
X23365000Y-23415000D01*
%TO.N,/TIA_OSC*%
X24635000Y-20650000D02*
X24635000Y-20015000D01*
X24635000Y-20015000D02*
X25544400Y-19105600D01*
%TO.N,/F_OSC*%
X23869900Y-7110000D02*
X23270500Y-7110000D01*
X24685000Y-9233700D02*
X24685000Y-7925100D01*
X25905000Y-10453700D02*
X24685000Y-9233700D01*
X23270500Y-7110000D02*
X22498300Y-6337800D01*
X22498300Y-6337800D02*
X22498300Y-5332700D01*
X23078200Y-4752800D02*
X24052500Y-4752800D01*
X25905000Y-11350000D02*
X25905000Y-10453700D01*
X24685000Y-7925100D02*
X23869900Y-7110000D01*
X24052500Y-4752800D02*
X24182200Y-4623100D01*
X22498300Y-5332700D02*
X23078200Y-4752800D01*
%TO.N,/F_AU1*%
X39862500Y-1250000D02*
X39263600Y-1250000D01*
X39263600Y-1250000D02*
X38815700Y-1697900D01*
%TO.N,/F_AU0*%
X39857600Y-3145100D02*
X38737900Y-3145100D01*
X39862500Y-3150000D02*
X39857600Y-3145100D01*
%TO.N,/TIA_AU0*%
X42439100Y-3451600D02*
X42439100Y-7290900D01*
X42137500Y-3150000D02*
X42439100Y-3451600D01*
X42439100Y-7290900D02*
X41350000Y-8380000D01*
%TO.N,/TIA_AU1*%
X41889100Y-1250000D02*
X40955800Y-2183300D01*
X40955800Y-2183300D02*
X40955800Y-3307600D01*
X42137500Y-1250000D02*
X41889100Y-1250000D01*
X40080000Y-7110000D02*
X38810000Y-8380000D01*
X40080000Y-4183400D02*
X40080000Y-7110000D01*
X40955800Y-3307600D02*
X40080000Y-4183400D01*
%TO.N,/F_D4*%
X60232300Y-6942300D02*
X59130000Y-5840000D01*
X52635000Y-18434800D02*
X60232300Y-10837500D01*
X60232300Y-10837500D02*
X60232300Y-6942300D01*
X52635000Y-20650000D02*
X52635000Y-18434800D01*
%TO.N,/TIA_D7*%
X56097200Y-13788500D02*
X46445300Y-13788500D01*
X57715000Y-11350000D02*
X57715000Y-12170700D01*
X57715000Y-12170700D02*
X56097200Y-13788500D01*
%TO.N,/TIA_D6*%
X56445000Y-11704300D02*
X55269800Y-12879500D01*
X55269800Y-12879500D02*
X53069700Y-12879500D01*
X56445000Y-11350000D02*
X56445000Y-11704300D01*
%TO.N,/TIA_D5*%
X55175000Y-9795000D02*
X55175000Y-11350000D01*
X56590000Y-8380000D02*
X55175000Y-9795000D01*
%TO.N,/TIA_D4*%
X53905000Y-8525000D02*
X53905000Y-11350000D01*
X54050000Y-8380000D02*
X53905000Y-8525000D01*
%TO.N,/TIA_D3*%
X51510000Y-8380000D02*
X52635000Y-9505000D01*
X52635000Y-9505000D02*
X52635000Y-11350000D01*
%TO.N,/TIA_D2*%
X48970000Y-8380000D02*
X51365000Y-10775000D01*
X51365000Y-10775000D02*
X51365000Y-11350000D01*
%TO.N,/TIA_D1*%
X50095000Y-11062400D02*
X50095000Y-11350000D01*
X46430000Y-8380000D02*
X47412600Y-8380000D01*
X47412600Y-8380000D02*
X50095000Y-11062400D01*
%TO.N,/TIA_D0*%
X48825000Y-11661500D02*
X48825000Y-11350000D01*
X46021900Y-12643400D02*
X47843100Y-12643400D01*
X43890000Y-8380000D02*
X44565100Y-9055100D01*
X44565100Y-9055100D02*
X44565100Y-11186600D01*
X44565100Y-11186600D02*
X46021900Y-12643400D01*
X47843100Y-12643400D02*
X48825000Y-11661500D01*
%TO.N,/TIA_LUM2*%
X26110000Y-8380000D02*
X24840100Y-7110100D01*
X24840100Y-3352600D02*
X24637500Y-3150000D01*
X24840100Y-7110100D02*
X24840100Y-3352600D01*
%TO.N,/TIA_BLK*%
X24874600Y-1487100D02*
X25737400Y-1487100D01*
X24637500Y-1250000D02*
X24874600Y-1487100D01*
%TO.N,/F_A5*%
X55949600Y-13439400D02*
X57192700Y-12196300D01*
X57678900Y-8965500D02*
X57678900Y-7621700D01*
X50756500Y-13439400D02*
X55949600Y-13439400D01*
X41175000Y-11021100D02*
X42103600Y-10092500D01*
X57192700Y-12196300D02*
X57192700Y-9451700D01*
X44032600Y-13266600D02*
X50583700Y-13266600D01*
X57192700Y-9451700D02*
X57678900Y-8965500D01*
X43080000Y-10428100D02*
X43080000Y-12314000D01*
X42744400Y-10092500D02*
X43080000Y-10428100D01*
X41175000Y-11350000D02*
X41175000Y-11021100D01*
X50583700Y-13266600D02*
X50756500Y-13439400D01*
X57678900Y-7621700D02*
X56590000Y-6532800D01*
X56590000Y-6532800D02*
X56590000Y-5840000D01*
X43080000Y-12314000D02*
X44032600Y-13266600D01*
X42103600Y-10092500D02*
X42744400Y-10092500D01*
%TO.N,/TIA_PHI0*%
X10660900Y-16271400D02*
X16473300Y-16271400D01*
X8730000Y-18475000D02*
X8730000Y-18202300D01*
X8730000Y-18202300D02*
X10660900Y-16271400D01*
%TO.N,/TIA_RDY*%
X12540000Y-18708800D02*
X12540000Y-18475000D01*
X15900900Y-19726100D02*
X13557300Y-19726100D01*
X13557300Y-19726100D02*
X12540000Y-18708800D01*
%TO.N,/TIA_LUM1*%
X19869800Y-7219800D02*
X19869800Y-5376300D01*
X17643500Y-3150000D02*
X17637500Y-3150000D01*
X21030000Y-8380000D02*
X19869800Y-7219800D01*
X19869800Y-5376300D02*
X17643500Y-3150000D01*
%TO.N,/TIA_CSYNC*%
X13410000Y-8380000D02*
X14484400Y-9454400D01*
X17907000Y-1519500D02*
X18737400Y-1519500D01*
X14484400Y-9454400D02*
X16899500Y-9454400D01*
X17637500Y-1250000D02*
X17907000Y-1519500D01*
%TO.N,/TIA_A0*%
X33555000Y-21255000D02*
X33555000Y-20650000D01*
X31190000Y-23620000D02*
X33555000Y-21255000D01*
%TO.N,/TIA_A1*%
X34825000Y-22525000D02*
X34825000Y-20650000D01*
X33730000Y-23620000D02*
X34825000Y-22525000D01*
%TO.N,/TIA_A2*%
X36270000Y-23620000D02*
X36095000Y-23445000D01*
X36095000Y-23445000D02*
X36095000Y-20650000D01*
%TO.N,/TIA_A3*%
X38810000Y-23620000D02*
X37365000Y-22175000D01*
X37365000Y-22175000D02*
X37365000Y-20650000D01*
%TO.N,/TIA_A4*%
X41238100Y-23620000D02*
X38635000Y-21016900D01*
X38635000Y-21016900D02*
X38635000Y-20650000D01*
X41350000Y-23620000D02*
X41238100Y-23620000D01*
%TO.N,/TIA_A5*%
X42513500Y-22243500D02*
X43890000Y-23620000D01*
X39905000Y-20650000D02*
X39905000Y-20965500D01*
X39905000Y-20965500D02*
X41183000Y-22243500D01*
X41183000Y-22243500D02*
X42513500Y-22243500D01*
%TO.N,/TIA_RW*%
X42157200Y-21931800D02*
X41175000Y-20949600D01*
X41175000Y-20949600D02*
X41175000Y-20650000D01*
X42675600Y-21931800D02*
X42157200Y-21931800D01*
X43207800Y-22464000D02*
X42675600Y-21931800D01*
X44772100Y-22464000D02*
X43207800Y-22464000D01*
%TO.N,/TIA_PHI2*%
X46430000Y-23384000D02*
X44976300Y-21930300D01*
X44976300Y-21930300D02*
X43426600Y-21930300D01*
X42445000Y-20948700D02*
X42445000Y-20650000D01*
X46430000Y-23620000D02*
X46430000Y-23384000D01*
X43426600Y-21930300D02*
X42445000Y-20948700D01*
%TD*%
M02*
