%TF.GenerationSoftware,KiCad,Pcbnew,10.0.4*%
%TF.CreationDate,2026-09-15T23:23:50-03:00*%
%TF.ProjectId,tia-fpga,7469612d-6670-4676-912e-6b696361645f,B*%
%TF.SameCoordinates,Original*%
%TF.FileFunction,Drillmap*%
%TF.FilePolarity,Positive*%
%FSLAX45Y45*%
G04 Gerber Fmt 4.5, Leading zero omitted, Abs format (unit mm)*
G04 Created by KiCad (PCBNEW 10.0.4) date 2026-09-15 23:23:50*
%MOMM*%
%LPD*%
G01*
G04 APERTURE LIST*
%ADD10C,0.100000*%
%ADD11C,0.200000*%
G04 APERTURE END LIST*
D10*
X0Y0D02*
X6160000Y0D01*
X0Y-3454000D02*
X0Y0D01*
X6160000Y0D02*
X6160000Y-3454000D01*
X6160000Y-3454000D02*
X0Y-3454000D01*
D11*
D10*
X364890Y-311950D02*
X394890Y-341950D01*
X394890Y-311950D02*
X364890Y-341950D01*
X454740Y-205000D02*
X484740Y-235000D01*
X484740Y-205000D02*
X454740Y-235000D01*
X501180Y-1840420D02*
X531180Y-1870420D01*
X531180Y-1840420D02*
X501180Y-1870420D01*
X582960Y-1652600D02*
X612960Y-1682600D01*
X612960Y-1652600D02*
X582960Y-1682600D01*
X876790Y-2083730D02*
X906790Y-2113730D01*
X906790Y-2083730D02*
X876790Y-2113730D01*
X958910Y-97970D02*
X988910Y-127970D01*
X988910Y-97970D02*
X958910Y-127970D01*
X972720Y-1105100D02*
X1002720Y-1135100D01*
X1002720Y-1105100D02*
X972720Y-1135100D01*
X1026690Y-735280D02*
X1056690Y-765280D01*
X1056690Y-735280D02*
X1026690Y-765280D01*
X1070180Y-459780D02*
X1100180Y-489780D01*
X1100180Y-459780D02*
X1070180Y-489780D01*
X1116280Y-373710D02*
X1146280Y-403710D01*
X1146280Y-373710D02*
X1116280Y-403710D01*
X1218540Y-110160D02*
X1248540Y-140160D01*
X1248540Y-110160D02*
X1218540Y-140160D01*
X1368600Y-421870D02*
X1398600Y-451870D01*
X1398600Y-421870D02*
X1368600Y-451870D01*
X1647500Y-2325480D02*
X1677500Y-2355480D01*
X1677500Y-2325480D02*
X1647500Y-2355480D01*
X1686270Y-319530D02*
X1716270Y-349530D01*
X1716270Y-319530D02*
X1686270Y-349530D01*
X1690080Y-99580D02*
X1720080Y-129580D01*
X1720080Y-99580D02*
X1690080Y-129580D01*
X1846180Y-1115920D02*
X1876180Y-1145920D01*
X1876180Y-1115920D02*
X1846180Y-1145920D01*
X2087540Y-1117580D02*
X2117540Y-1147580D01*
X2117540Y-1117580D02*
X2087540Y-1147580D01*
X2263820Y-1990220D02*
X2293820Y-2020220D01*
X2293820Y-1990220D02*
X2263820Y-2020220D01*
X2477440Y-1932790D02*
X2507440Y-1962790D01*
X2507440Y-1932790D02*
X2477440Y-1962790D01*
X2518300Y-1535950D02*
X2548300Y-1565950D01*
X2548300Y-1535950D02*
X2518300Y-1565950D01*
X2604870Y-2296810D02*
X2634870Y-2326810D01*
X2634870Y-2296810D02*
X2604870Y-2326810D01*
X2645920Y-3283770D02*
X2675920Y-3313770D01*
X2675920Y-3283770D02*
X2645920Y-3313770D01*
X2696040Y-1255210D02*
X2726040Y-1285210D01*
X2726040Y-1255210D02*
X2696040Y-1285210D01*
X3049510Y-1396860D02*
X3079510Y-1426860D01*
X3079510Y-1396860D02*
X3049510Y-1426860D01*
X3177490Y-1395240D02*
X3207490Y-1425240D01*
X3207490Y-1395240D02*
X3177490Y-1425240D01*
X3322400Y-1392810D02*
X3352400Y-1422810D01*
X3352400Y-1392810D02*
X3322400Y-1422810D01*
X3440630Y-105340D02*
X3470630Y-135340D01*
X3470630Y-105340D02*
X3440630Y-135340D01*
X3586950Y-1393760D02*
X3616950Y-1423760D01*
X3616950Y-1393760D02*
X3586950Y-1423760D01*
X3665000Y-200590D02*
X3695000Y-230590D01*
X3695000Y-200590D02*
X3665000Y-230590D01*
X3838230Y-2323530D02*
X3868230Y-2353530D01*
X3868230Y-2323530D02*
X3838230Y-2353530D01*
X3872720Y-2643230D02*
X3902720Y-2673230D01*
X3902720Y-2643230D02*
X3872720Y-2673230D01*
X3877740Y-350980D02*
X3907740Y-380980D01*
X3907740Y-350980D02*
X3877740Y-380980D01*
X3889730Y-137990D02*
X3919730Y-167990D01*
X3919730Y-137990D02*
X3889730Y-167990D01*
X3936500Y-2147990D02*
X3966500Y-2177990D01*
X3966500Y-2147990D02*
X3936500Y-2177990D01*
X4010100Y-1332020D02*
X4040100Y-1362020D01*
X4040100Y-1332020D02*
X4010100Y-1362020D01*
X4032470Y-2334160D02*
X4062470Y-2364160D01*
X4062470Y-2334160D02*
X4032470Y-2364160D01*
X4093720Y-1089720D02*
X4123720Y-1119720D01*
X4123720Y-1089720D02*
X4093720Y-1119720D01*
X5046240Y-3189000D02*
X5076240Y-3219000D01*
X5076240Y-3189000D02*
X5046240Y-3219000D01*
X5229420Y-66420D02*
X5259420Y-96420D01*
X5259420Y-66420D02*
X5229420Y-96420D01*
X209000Y-584000D02*
G75*
G02*
X109000Y-584000I-50000J0D01*
G01*
X109000Y-584000D02*
G75*
G02*
X209000Y-584000I50000J0D01*
G01*
X209000Y-2870000D02*
G75*
G02*
X109000Y-2870000I-50000J0D01*
G01*
X109000Y-2870000D02*
G75*
G02*
X209000Y-2870000I50000J0D01*
G01*
X463000Y-584000D02*
G75*
G02*
X363000Y-584000I-50000J0D01*
G01*
X363000Y-584000D02*
G75*
G02*
X463000Y-584000I50000J0D01*
G01*
X463000Y-2870000D02*
G75*
G02*
X363000Y-2870000I-50000J0D01*
G01*
X363000Y-2870000D02*
G75*
G02*
X463000Y-2870000I50000J0D01*
G01*
X717000Y-584000D02*
G75*
G02*
X617000Y-584000I-50000J0D01*
G01*
X617000Y-584000D02*
G75*
G02*
X717000Y-584000I50000J0D01*
G01*
X717000Y-965000D02*
G75*
G02*
X617000Y-965000I-50000J0D01*
G01*
X617000Y-965000D02*
G75*
G02*
X717000Y-965000I50000J0D01*
G01*
X717000Y-2489000D02*
G75*
G02*
X617000Y-2489000I-50000J0D01*
G01*
X617000Y-2489000D02*
G75*
G02*
X717000Y-2489000I50000J0D01*
G01*
X717000Y-2870000D02*
G75*
G02*
X617000Y-2870000I-50000J0D01*
G01*
X617000Y-2870000D02*
G75*
G02*
X717000Y-2870000I50000J0D01*
G01*
X971000Y-584000D02*
G75*
G02*
X871000Y-584000I-50000J0D01*
G01*
X871000Y-584000D02*
G75*
G02*
X971000Y-584000I50000J0D01*
G01*
X971000Y-965000D02*
G75*
G02*
X871000Y-965000I-50000J0D01*
G01*
X871000Y-965000D02*
G75*
G02*
X971000Y-965000I50000J0D01*
G01*
X971000Y-2489000D02*
G75*
G02*
X871000Y-2489000I-50000J0D01*
G01*
X871000Y-2489000D02*
G75*
G02*
X971000Y-2489000I50000J0D01*
G01*
X971000Y-2870000D02*
G75*
G02*
X871000Y-2870000I-50000J0D01*
G01*
X871000Y-2870000D02*
G75*
G02*
X971000Y-2870000I50000J0D01*
G01*
X1225000Y-584000D02*
G75*
G02*
X1125000Y-584000I-50000J0D01*
G01*
X1125000Y-584000D02*
G75*
G02*
X1225000Y-584000I50000J0D01*
G01*
X1225000Y-965000D02*
G75*
G02*
X1125000Y-965000I-50000J0D01*
G01*
X1125000Y-965000D02*
G75*
G02*
X1225000Y-965000I50000J0D01*
G01*
X1225000Y-2489000D02*
G75*
G02*
X1125000Y-2489000I-50000J0D01*
G01*
X1125000Y-2489000D02*
G75*
G02*
X1225000Y-2489000I50000J0D01*
G01*
X1225000Y-2870000D02*
G75*
G02*
X1125000Y-2870000I-50000J0D01*
G01*
X1125000Y-2870000D02*
G75*
G02*
X1225000Y-2870000I50000J0D01*
G01*
X1479000Y-584000D02*
G75*
G02*
X1379000Y-584000I-50000J0D01*
G01*
X1379000Y-584000D02*
G75*
G02*
X1479000Y-584000I50000J0D01*
G01*
X1479000Y-965000D02*
G75*
G02*
X1379000Y-965000I-50000J0D01*
G01*
X1379000Y-965000D02*
G75*
G02*
X1479000Y-965000I50000J0D01*
G01*
X1479000Y-2489000D02*
G75*
G02*
X1379000Y-2489000I-50000J0D01*
G01*
X1379000Y-2489000D02*
G75*
G02*
X1479000Y-2489000I50000J0D01*
G01*
X1479000Y-2870000D02*
G75*
G02*
X1379000Y-2870000I-50000J0D01*
G01*
X1379000Y-2870000D02*
G75*
G02*
X1479000Y-2870000I50000J0D01*
G01*
X1733000Y-584000D02*
G75*
G02*
X1633000Y-584000I-50000J0D01*
G01*
X1633000Y-584000D02*
G75*
G02*
X1733000Y-584000I50000J0D01*
G01*
X1733000Y-965000D02*
G75*
G02*
X1633000Y-965000I-50000J0D01*
G01*
X1633000Y-965000D02*
G75*
G02*
X1733000Y-965000I50000J0D01*
G01*
X1733000Y-2489000D02*
G75*
G02*
X1633000Y-2489000I-50000J0D01*
G01*
X1633000Y-2489000D02*
G75*
G02*
X1733000Y-2489000I50000J0D01*
G01*
X1733000Y-2870000D02*
G75*
G02*
X1633000Y-2870000I-50000J0D01*
G01*
X1633000Y-2870000D02*
G75*
G02*
X1733000Y-2870000I50000J0D01*
G01*
X1987000Y-584000D02*
G75*
G02*
X1887000Y-584000I-50000J0D01*
G01*
X1887000Y-584000D02*
G75*
G02*
X1987000Y-584000I50000J0D01*
G01*
X1987000Y-965000D02*
G75*
G02*
X1887000Y-965000I-50000J0D01*
G01*
X1887000Y-965000D02*
G75*
G02*
X1987000Y-965000I50000J0D01*
G01*
X1987000Y-2489000D02*
G75*
G02*
X1887000Y-2489000I-50000J0D01*
G01*
X1887000Y-2489000D02*
G75*
G02*
X1987000Y-2489000I50000J0D01*
G01*
X1987000Y-2870000D02*
G75*
G02*
X1887000Y-2870000I-50000J0D01*
G01*
X1887000Y-2870000D02*
G75*
G02*
X1987000Y-2870000I50000J0D01*
G01*
X2241000Y-584000D02*
G75*
G02*
X2141000Y-584000I-50000J0D01*
G01*
X2141000Y-584000D02*
G75*
G02*
X2241000Y-584000I50000J0D01*
G01*
X2241000Y-965000D02*
G75*
G02*
X2141000Y-965000I-50000J0D01*
G01*
X2141000Y-965000D02*
G75*
G02*
X2241000Y-965000I50000J0D01*
G01*
X2241000Y-2489000D02*
G75*
G02*
X2141000Y-2489000I-50000J0D01*
G01*
X2141000Y-2489000D02*
G75*
G02*
X2241000Y-2489000I50000J0D01*
G01*
X2241000Y-2870000D02*
G75*
G02*
X2141000Y-2870000I-50000J0D01*
G01*
X2141000Y-2870000D02*
G75*
G02*
X2241000Y-2870000I50000J0D01*
G01*
X2495000Y-584000D02*
G75*
G02*
X2395000Y-584000I-50000J0D01*
G01*
X2395000Y-584000D02*
G75*
G02*
X2495000Y-584000I50000J0D01*
G01*
X2495000Y-965000D02*
G75*
G02*
X2395000Y-965000I-50000J0D01*
G01*
X2395000Y-965000D02*
G75*
G02*
X2495000Y-965000I50000J0D01*
G01*
X2495000Y-2489000D02*
G75*
G02*
X2395000Y-2489000I-50000J0D01*
G01*
X2395000Y-2489000D02*
G75*
G02*
X2495000Y-2489000I50000J0D01*
G01*
X2495000Y-2870000D02*
G75*
G02*
X2395000Y-2870000I-50000J0D01*
G01*
X2395000Y-2870000D02*
G75*
G02*
X2495000Y-2870000I50000J0D01*
G01*
X2749000Y-584000D02*
G75*
G02*
X2649000Y-584000I-50000J0D01*
G01*
X2649000Y-584000D02*
G75*
G02*
X2749000Y-584000I50000J0D01*
G01*
X2749000Y-965000D02*
G75*
G02*
X2649000Y-965000I-50000J0D01*
G01*
X2649000Y-965000D02*
G75*
G02*
X2749000Y-965000I50000J0D01*
G01*
X2749000Y-2489000D02*
G75*
G02*
X2649000Y-2489000I-50000J0D01*
G01*
X2649000Y-2489000D02*
G75*
G02*
X2749000Y-2489000I50000J0D01*
G01*
X2749000Y-2870000D02*
G75*
G02*
X2649000Y-2870000I-50000J0D01*
G01*
X2649000Y-2870000D02*
G75*
G02*
X2749000Y-2870000I50000J0D01*
G01*
X3003000Y-584000D02*
G75*
G02*
X2903000Y-584000I-50000J0D01*
G01*
X2903000Y-584000D02*
G75*
G02*
X3003000Y-584000I50000J0D01*
G01*
X3003000Y-965000D02*
G75*
G02*
X2903000Y-965000I-50000J0D01*
G01*
X2903000Y-965000D02*
G75*
G02*
X3003000Y-965000I50000J0D01*
G01*
X3003000Y-2489000D02*
G75*
G02*
X2903000Y-2489000I-50000J0D01*
G01*
X2903000Y-2489000D02*
G75*
G02*
X3003000Y-2489000I50000J0D01*
G01*
X3003000Y-2870000D02*
G75*
G02*
X2903000Y-2870000I-50000J0D01*
G01*
X2903000Y-2870000D02*
G75*
G02*
X3003000Y-2870000I50000J0D01*
G01*
X3257000Y-584000D02*
G75*
G02*
X3157000Y-584000I-50000J0D01*
G01*
X3157000Y-584000D02*
G75*
G02*
X3257000Y-584000I50000J0D01*
G01*
X3257000Y-965000D02*
G75*
G02*
X3157000Y-965000I-50000J0D01*
G01*
X3157000Y-965000D02*
G75*
G02*
X3257000Y-965000I50000J0D01*
G01*
X3257000Y-2489000D02*
G75*
G02*
X3157000Y-2489000I-50000J0D01*
G01*
X3157000Y-2489000D02*
G75*
G02*
X3257000Y-2489000I50000J0D01*
G01*
X3257000Y-2870000D02*
G75*
G02*
X3157000Y-2870000I-50000J0D01*
G01*
X3157000Y-2870000D02*
G75*
G02*
X3257000Y-2870000I50000J0D01*
G01*
X3511000Y-584000D02*
G75*
G02*
X3411000Y-584000I-50000J0D01*
G01*
X3411000Y-584000D02*
G75*
G02*
X3511000Y-584000I50000J0D01*
G01*
X3511000Y-965000D02*
G75*
G02*
X3411000Y-965000I-50000J0D01*
G01*
X3411000Y-965000D02*
G75*
G02*
X3511000Y-965000I50000J0D01*
G01*
X3511000Y-2489000D02*
G75*
G02*
X3411000Y-2489000I-50000J0D01*
G01*
X3411000Y-2489000D02*
G75*
G02*
X3511000Y-2489000I50000J0D01*
G01*
X3511000Y-2870000D02*
G75*
G02*
X3411000Y-2870000I-50000J0D01*
G01*
X3411000Y-2870000D02*
G75*
G02*
X3511000Y-2870000I50000J0D01*
G01*
X3765000Y-584000D02*
G75*
G02*
X3665000Y-584000I-50000J0D01*
G01*
X3665000Y-584000D02*
G75*
G02*
X3765000Y-584000I50000J0D01*
G01*
X3765000Y-965000D02*
G75*
G02*
X3665000Y-965000I-50000J0D01*
G01*
X3665000Y-965000D02*
G75*
G02*
X3765000Y-965000I50000J0D01*
G01*
X3765000Y-2489000D02*
G75*
G02*
X3665000Y-2489000I-50000J0D01*
G01*
X3665000Y-2489000D02*
G75*
G02*
X3765000Y-2489000I50000J0D01*
G01*
X3765000Y-2870000D02*
G75*
G02*
X3665000Y-2870000I-50000J0D01*
G01*
X3665000Y-2870000D02*
G75*
G02*
X3765000Y-2870000I50000J0D01*
G01*
X4019000Y-584000D02*
G75*
G02*
X3919000Y-584000I-50000J0D01*
G01*
X3919000Y-584000D02*
G75*
G02*
X4019000Y-584000I50000J0D01*
G01*
X4019000Y-965000D02*
G75*
G02*
X3919000Y-965000I-50000J0D01*
G01*
X3919000Y-965000D02*
G75*
G02*
X4019000Y-965000I50000J0D01*
G01*
X4019000Y-2489000D02*
G75*
G02*
X3919000Y-2489000I-50000J0D01*
G01*
X3919000Y-2489000D02*
G75*
G02*
X4019000Y-2489000I50000J0D01*
G01*
X4019000Y-2870000D02*
G75*
G02*
X3919000Y-2870000I-50000J0D01*
G01*
X3919000Y-2870000D02*
G75*
G02*
X4019000Y-2870000I50000J0D01*
G01*
X4273000Y-584000D02*
G75*
G02*
X4173000Y-584000I-50000J0D01*
G01*
X4173000Y-584000D02*
G75*
G02*
X4273000Y-584000I50000J0D01*
G01*
X4273000Y-965000D02*
G75*
G02*
X4173000Y-965000I-50000J0D01*
G01*
X4173000Y-965000D02*
G75*
G02*
X4273000Y-965000I50000J0D01*
G01*
X4273000Y-2489000D02*
G75*
G02*
X4173000Y-2489000I-50000J0D01*
G01*
X4173000Y-2489000D02*
G75*
G02*
X4273000Y-2489000I50000J0D01*
G01*
X4273000Y-2870000D02*
G75*
G02*
X4173000Y-2870000I-50000J0D01*
G01*
X4173000Y-2870000D02*
G75*
G02*
X4273000Y-2870000I50000J0D01*
G01*
X4527000Y-584000D02*
G75*
G02*
X4427000Y-584000I-50000J0D01*
G01*
X4427000Y-584000D02*
G75*
G02*
X4527000Y-584000I50000J0D01*
G01*
X4527000Y-965000D02*
G75*
G02*
X4427000Y-965000I-50000J0D01*
G01*
X4427000Y-965000D02*
G75*
G02*
X4527000Y-965000I50000J0D01*
G01*
X4527000Y-2489000D02*
G75*
G02*
X4427000Y-2489000I-50000J0D01*
G01*
X4427000Y-2489000D02*
G75*
G02*
X4527000Y-2489000I50000J0D01*
G01*
X4527000Y-2870000D02*
G75*
G02*
X4427000Y-2870000I-50000J0D01*
G01*
X4427000Y-2870000D02*
G75*
G02*
X4527000Y-2870000I50000J0D01*
G01*
X4781000Y-584000D02*
G75*
G02*
X4681000Y-584000I-50000J0D01*
G01*
X4681000Y-584000D02*
G75*
G02*
X4781000Y-584000I50000J0D01*
G01*
X4781000Y-965000D02*
G75*
G02*
X4681000Y-965000I-50000J0D01*
G01*
X4681000Y-965000D02*
G75*
G02*
X4781000Y-965000I50000J0D01*
G01*
X4781000Y-2489000D02*
G75*
G02*
X4681000Y-2489000I-50000J0D01*
G01*
X4681000Y-2489000D02*
G75*
G02*
X4781000Y-2489000I50000J0D01*
G01*
X4781000Y-2870000D02*
G75*
G02*
X4681000Y-2870000I-50000J0D01*
G01*
X4681000Y-2870000D02*
G75*
G02*
X4781000Y-2870000I50000J0D01*
G01*
X5035000Y-584000D02*
G75*
G02*
X4935000Y-584000I-50000J0D01*
G01*
X4935000Y-584000D02*
G75*
G02*
X5035000Y-584000I50000J0D01*
G01*
X5035000Y-965000D02*
G75*
G02*
X4935000Y-965000I-50000J0D01*
G01*
X4935000Y-965000D02*
G75*
G02*
X5035000Y-965000I50000J0D01*
G01*
X5035000Y-2489000D02*
G75*
G02*
X4935000Y-2489000I-50000J0D01*
G01*
X4935000Y-2489000D02*
G75*
G02*
X5035000Y-2489000I50000J0D01*
G01*
X5035000Y-2870000D02*
G75*
G02*
X4935000Y-2870000I-50000J0D01*
G01*
X4935000Y-2870000D02*
G75*
G02*
X5035000Y-2870000I50000J0D01*
G01*
X5289000Y-584000D02*
G75*
G02*
X5189000Y-584000I-50000J0D01*
G01*
X5189000Y-584000D02*
G75*
G02*
X5289000Y-584000I50000J0D01*
G01*
X5289000Y-965000D02*
G75*
G02*
X5189000Y-965000I-50000J0D01*
G01*
X5189000Y-965000D02*
G75*
G02*
X5289000Y-965000I50000J0D01*
G01*
X5289000Y-2489000D02*
G75*
G02*
X5189000Y-2489000I-50000J0D01*
G01*
X5189000Y-2489000D02*
G75*
G02*
X5289000Y-2489000I50000J0D01*
G01*
X5289000Y-2870000D02*
G75*
G02*
X5189000Y-2870000I-50000J0D01*
G01*
X5189000Y-2870000D02*
G75*
G02*
X5289000Y-2870000I50000J0D01*
G01*
X5543000Y-584000D02*
G75*
G02*
X5443000Y-584000I-50000J0D01*
G01*
X5443000Y-584000D02*
G75*
G02*
X5543000Y-584000I50000J0D01*
G01*
X5543000Y-965000D02*
G75*
G02*
X5443000Y-965000I-50000J0D01*
G01*
X5443000Y-965000D02*
G75*
G02*
X5543000Y-965000I50000J0D01*
G01*
X5543000Y-2489000D02*
G75*
G02*
X5443000Y-2489000I-50000J0D01*
G01*
X5443000Y-2489000D02*
G75*
G02*
X5543000Y-2489000I50000J0D01*
G01*
X5543000Y-2870000D02*
G75*
G02*
X5443000Y-2870000I-50000J0D01*
G01*
X5443000Y-2870000D02*
G75*
G02*
X5543000Y-2870000I50000J0D01*
G01*
X5797000Y-584000D02*
G75*
G02*
X5697000Y-584000I-50000J0D01*
G01*
X5697000Y-584000D02*
G75*
G02*
X5797000Y-584000I50000J0D01*
G01*
X5797000Y-2870000D02*
G75*
G02*
X5697000Y-2870000I-50000J0D01*
G01*
X5697000Y-2870000D02*
G75*
G02*
X5797000Y-2870000I50000J0D01*
G01*
X6051000Y-584000D02*
G75*
G02*
X5951000Y-584000I-50000J0D01*
G01*
X5951000Y-584000D02*
G75*
G02*
X6051000Y-584000I50000J0D01*
G01*
X6051000Y-2870000D02*
G75*
G02*
X5951000Y-2870000I-50000J0D01*
G01*
X5951000Y-2870000D02*
G75*
G02*
X6051000Y-2870000I50000J0D01*
G01*
D11*
X255777Y-3770484D02*
X255777Y-3570484D01*
X255777Y-3570484D02*
X303396Y-3570484D01*
X303396Y-3570484D02*
X331967Y-3580008D01*
X331967Y-3580008D02*
X351015Y-3599055D01*
X351015Y-3599055D02*
X360539Y-3618103D01*
X360539Y-3618103D02*
X370062Y-3656198D01*
X370062Y-3656198D02*
X370062Y-3684769D01*
X370062Y-3684769D02*
X360539Y-3722865D01*
X360539Y-3722865D02*
X351015Y-3741912D01*
X351015Y-3741912D02*
X331967Y-3760960D01*
X331967Y-3760960D02*
X303396Y-3770484D01*
X303396Y-3770484D02*
X255777Y-3770484D01*
X455777Y-3770484D02*
X455777Y-3637150D01*
X455777Y-3675246D02*
X465301Y-3656198D01*
X465301Y-3656198D02*
X474824Y-3646674D01*
X474824Y-3646674D02*
X493872Y-3637150D01*
X493872Y-3637150D02*
X512920Y-3637150D01*
X579586Y-3770484D02*
X579586Y-3637150D01*
X579586Y-3570484D02*
X570063Y-3580008D01*
X570063Y-3580008D02*
X579586Y-3589531D01*
X579586Y-3589531D02*
X589110Y-3580008D01*
X589110Y-3580008D02*
X579586Y-3570484D01*
X579586Y-3570484D02*
X579586Y-3589531D01*
X703396Y-3770484D02*
X684348Y-3760960D01*
X684348Y-3760960D02*
X674824Y-3741912D01*
X674824Y-3741912D02*
X674824Y-3570484D01*
X808158Y-3770484D02*
X789110Y-3760960D01*
X789110Y-3760960D02*
X779586Y-3741912D01*
X779586Y-3741912D02*
X779586Y-3570484D01*
X1036729Y-3770484D02*
X1036729Y-3570484D01*
X1036729Y-3570484D02*
X1103396Y-3713341D01*
X1103396Y-3713341D02*
X1170063Y-3570484D01*
X1170063Y-3570484D02*
X1170063Y-3770484D01*
X1351015Y-3770484D02*
X1351015Y-3665722D01*
X1351015Y-3665722D02*
X1341491Y-3646674D01*
X1341491Y-3646674D02*
X1322444Y-3637150D01*
X1322444Y-3637150D02*
X1284348Y-3637150D01*
X1284348Y-3637150D02*
X1265301Y-3646674D01*
X1351015Y-3760960D02*
X1331967Y-3770484D01*
X1331967Y-3770484D02*
X1284348Y-3770484D01*
X1284348Y-3770484D02*
X1265301Y-3760960D01*
X1265301Y-3760960D02*
X1255777Y-3741912D01*
X1255777Y-3741912D02*
X1255777Y-3722865D01*
X1255777Y-3722865D02*
X1265301Y-3703817D01*
X1265301Y-3703817D02*
X1284348Y-3694293D01*
X1284348Y-3694293D02*
X1331967Y-3694293D01*
X1331967Y-3694293D02*
X1351015Y-3684769D01*
X1446253Y-3637150D02*
X1446253Y-3837150D01*
X1446253Y-3646674D02*
X1465301Y-3637150D01*
X1465301Y-3637150D02*
X1503396Y-3637150D01*
X1503396Y-3637150D02*
X1522443Y-3646674D01*
X1522443Y-3646674D02*
X1531967Y-3656198D01*
X1531967Y-3656198D02*
X1541491Y-3675246D01*
X1541491Y-3675246D02*
X1541491Y-3732388D01*
X1541491Y-3732388D02*
X1531967Y-3751436D01*
X1531967Y-3751436D02*
X1522443Y-3760960D01*
X1522443Y-3760960D02*
X1503396Y-3770484D01*
X1503396Y-3770484D02*
X1465301Y-3770484D01*
X1465301Y-3770484D02*
X1446253Y-3760960D01*
X1627205Y-3751436D02*
X1636729Y-3760960D01*
X1636729Y-3760960D02*
X1627205Y-3770484D01*
X1627205Y-3770484D02*
X1617682Y-3760960D01*
X1617682Y-3760960D02*
X1627205Y-3751436D01*
X1627205Y-3751436D02*
X1627205Y-3770484D01*
X1627205Y-3646674D02*
X1636729Y-3656198D01*
X1636729Y-3656198D02*
X1627205Y-3665722D01*
X1627205Y-3665722D02*
X1617682Y-3656198D01*
X1617682Y-3656198D02*
X1627205Y-3646674D01*
X1627205Y-3646674D02*
X1627205Y-3665722D01*
D10*
X-35000Y-4084000D02*
X-5000Y-4114000D01*
X-5000Y-4084000D02*
X-35000Y-4114000D01*
D11*
X293872Y-3990484D02*
X312920Y-3990484D01*
X312920Y-3990484D02*
X331967Y-4000008D01*
X331967Y-4000008D02*
X341491Y-4009531D01*
X341491Y-4009531D02*
X351015Y-4028579D01*
X351015Y-4028579D02*
X360539Y-4066674D01*
X360539Y-4066674D02*
X360539Y-4114293D01*
X360539Y-4114293D02*
X351015Y-4152388D01*
X351015Y-4152388D02*
X341491Y-4171436D01*
X341491Y-4171436D02*
X331967Y-4180960D01*
X331967Y-4180960D02*
X312920Y-4190484D01*
X312920Y-4190484D02*
X293872Y-4190484D01*
X293872Y-4190484D02*
X274824Y-4180960D01*
X274824Y-4180960D02*
X265301Y-4171436D01*
X265301Y-4171436D02*
X255777Y-4152388D01*
X255777Y-4152388D02*
X246253Y-4114293D01*
X246253Y-4114293D02*
X246253Y-4066674D01*
X246253Y-4066674D02*
X255777Y-4028579D01*
X255777Y-4028579D02*
X265301Y-4009531D01*
X265301Y-4009531D02*
X274824Y-4000008D01*
X274824Y-4000008D02*
X293872Y-3990484D01*
X455777Y-4180960D02*
X455777Y-4190484D01*
X455777Y-4190484D02*
X446253Y-4209531D01*
X446253Y-4209531D02*
X436729Y-4219055D01*
X522443Y-3990484D02*
X646253Y-3990484D01*
X646253Y-3990484D02*
X579586Y-4066674D01*
X579586Y-4066674D02*
X608158Y-4066674D01*
X608158Y-4066674D02*
X627205Y-4076198D01*
X627205Y-4076198D02*
X636729Y-4085722D01*
X636729Y-4085722D02*
X646253Y-4104769D01*
X646253Y-4104769D02*
X646253Y-4152388D01*
X646253Y-4152388D02*
X636729Y-4171436D01*
X636729Y-4171436D02*
X627205Y-4180960D01*
X627205Y-4180960D02*
X608158Y-4190484D01*
X608158Y-4190484D02*
X551015Y-4190484D01*
X551015Y-4190484D02*
X531967Y-4180960D01*
X531967Y-4180960D02*
X522443Y-4171436D01*
X770062Y-3990484D02*
X789110Y-3990484D01*
X789110Y-3990484D02*
X808158Y-4000008D01*
X808158Y-4000008D02*
X817682Y-4009531D01*
X817682Y-4009531D02*
X827205Y-4028579D01*
X827205Y-4028579D02*
X836729Y-4066674D01*
X836729Y-4066674D02*
X836729Y-4114293D01*
X836729Y-4114293D02*
X827205Y-4152388D01*
X827205Y-4152388D02*
X817682Y-4171436D01*
X817682Y-4171436D02*
X808158Y-4180960D01*
X808158Y-4180960D02*
X789110Y-4190484D01*
X789110Y-4190484D02*
X770062Y-4190484D01*
X770062Y-4190484D02*
X751015Y-4180960D01*
X751015Y-4180960D02*
X741491Y-4171436D01*
X741491Y-4171436D02*
X731967Y-4152388D01*
X731967Y-4152388D02*
X722443Y-4114293D01*
X722443Y-4114293D02*
X722443Y-4066674D01*
X722443Y-4066674D02*
X731967Y-4028579D01*
X731967Y-4028579D02*
X741491Y-4009531D01*
X741491Y-4009531D02*
X751015Y-4000008D01*
X751015Y-4000008D02*
X770062Y-3990484D01*
X960539Y-3990484D02*
X979586Y-3990484D01*
X979586Y-3990484D02*
X998634Y-4000008D01*
X998634Y-4000008D02*
X1008158Y-4009531D01*
X1008158Y-4009531D02*
X1017682Y-4028579D01*
X1017682Y-4028579D02*
X1027205Y-4066674D01*
X1027205Y-4066674D02*
X1027205Y-4114293D01*
X1027205Y-4114293D02*
X1017682Y-4152388D01*
X1017682Y-4152388D02*
X1008158Y-4171436D01*
X1008158Y-4171436D02*
X998634Y-4180960D01*
X998634Y-4180960D02*
X979586Y-4190484D01*
X979586Y-4190484D02*
X960539Y-4190484D01*
X960539Y-4190484D02*
X941491Y-4180960D01*
X941491Y-4180960D02*
X931967Y-4171436D01*
X931967Y-4171436D02*
X922443Y-4152388D01*
X922443Y-4152388D02*
X912920Y-4114293D01*
X912920Y-4114293D02*
X912920Y-4066674D01*
X912920Y-4066674D02*
X922443Y-4028579D01*
X922443Y-4028579D02*
X931967Y-4009531D01*
X931967Y-4009531D02*
X941491Y-4000008D01*
X941491Y-4000008D02*
X960539Y-3990484D01*
X1112920Y-4190484D02*
X1112920Y-4057150D01*
X1112920Y-4076198D02*
X1122444Y-4066674D01*
X1122444Y-4066674D02*
X1141491Y-4057150D01*
X1141491Y-4057150D02*
X1170063Y-4057150D01*
X1170063Y-4057150D02*
X1189110Y-4066674D01*
X1189110Y-4066674D02*
X1198634Y-4085722D01*
X1198634Y-4085722D02*
X1198634Y-4190484D01*
X1198634Y-4085722D02*
X1208158Y-4066674D01*
X1208158Y-4066674D02*
X1227205Y-4057150D01*
X1227205Y-4057150D02*
X1255777Y-4057150D01*
X1255777Y-4057150D02*
X1274825Y-4066674D01*
X1274825Y-4066674D02*
X1284348Y-4085722D01*
X1284348Y-4085722D02*
X1284348Y-4190484D01*
X1379586Y-4190484D02*
X1379586Y-4057150D01*
X1379586Y-4076198D02*
X1389110Y-4066674D01*
X1389110Y-4066674D02*
X1408158Y-4057150D01*
X1408158Y-4057150D02*
X1436729Y-4057150D01*
X1436729Y-4057150D02*
X1455777Y-4066674D01*
X1455777Y-4066674D02*
X1465301Y-4085722D01*
X1465301Y-4085722D02*
X1465301Y-4190484D01*
X1465301Y-4085722D02*
X1474824Y-4066674D01*
X1474824Y-4066674D02*
X1493872Y-4057150D01*
X1493872Y-4057150D02*
X1522443Y-4057150D01*
X1522443Y-4057150D02*
X1541491Y-4066674D01*
X1541491Y-4066674D02*
X1551015Y-4085722D01*
X1551015Y-4085722D02*
X1551015Y-4190484D01*
X1941491Y-3980960D02*
X1770063Y-4238103D01*
X2198634Y-3990484D02*
X2217682Y-3990484D01*
X2217682Y-3990484D02*
X2236729Y-4000008D01*
X2236729Y-4000008D02*
X2246253Y-4009531D01*
X2246253Y-4009531D02*
X2255777Y-4028579D01*
X2255777Y-4028579D02*
X2265301Y-4066674D01*
X2265301Y-4066674D02*
X2265301Y-4114293D01*
X2265301Y-4114293D02*
X2255777Y-4152388D01*
X2255777Y-4152388D02*
X2246253Y-4171436D01*
X2246253Y-4171436D02*
X2236729Y-4180960D01*
X2236729Y-4180960D02*
X2217682Y-4190484D01*
X2217682Y-4190484D02*
X2198634Y-4190484D01*
X2198634Y-4190484D02*
X2179587Y-4180960D01*
X2179587Y-4180960D02*
X2170063Y-4171436D01*
X2170063Y-4171436D02*
X2160539Y-4152388D01*
X2160539Y-4152388D02*
X2151015Y-4114293D01*
X2151015Y-4114293D02*
X2151015Y-4066674D01*
X2151015Y-4066674D02*
X2160539Y-4028579D01*
X2160539Y-4028579D02*
X2170063Y-4009531D01*
X2170063Y-4009531D02*
X2179587Y-4000008D01*
X2179587Y-4000008D02*
X2198634Y-3990484D01*
X2360539Y-4180960D02*
X2360539Y-4190484D01*
X2360539Y-4190484D02*
X2351015Y-4209531D01*
X2351015Y-4209531D02*
X2341491Y-4219055D01*
X2484348Y-3990484D02*
X2503396Y-3990484D01*
X2503396Y-3990484D02*
X2522444Y-4000008D01*
X2522444Y-4000008D02*
X2531968Y-4009531D01*
X2531968Y-4009531D02*
X2541491Y-4028579D01*
X2541491Y-4028579D02*
X2551015Y-4066674D01*
X2551015Y-4066674D02*
X2551015Y-4114293D01*
X2551015Y-4114293D02*
X2541491Y-4152388D01*
X2541491Y-4152388D02*
X2531968Y-4171436D01*
X2531968Y-4171436D02*
X2522444Y-4180960D01*
X2522444Y-4180960D02*
X2503396Y-4190484D01*
X2503396Y-4190484D02*
X2484348Y-4190484D01*
X2484348Y-4190484D02*
X2465301Y-4180960D01*
X2465301Y-4180960D02*
X2455777Y-4171436D01*
X2455777Y-4171436D02*
X2446253Y-4152388D01*
X2446253Y-4152388D02*
X2436729Y-4114293D01*
X2436729Y-4114293D02*
X2436729Y-4066674D01*
X2436729Y-4066674D02*
X2446253Y-4028579D01*
X2446253Y-4028579D02*
X2455777Y-4009531D01*
X2455777Y-4009531D02*
X2465301Y-4000008D01*
X2465301Y-4000008D02*
X2484348Y-3990484D01*
X2741491Y-4190484D02*
X2627206Y-4190484D01*
X2684348Y-4190484D02*
X2684348Y-3990484D01*
X2684348Y-3990484D02*
X2665301Y-4019055D01*
X2665301Y-4019055D02*
X2646253Y-4038103D01*
X2646253Y-4038103D02*
X2627206Y-4047627D01*
X2931967Y-4190484D02*
X2817682Y-4190484D01*
X2874825Y-4190484D02*
X2874825Y-3990484D01*
X2874825Y-3990484D02*
X2855777Y-4019055D01*
X2855777Y-4019055D02*
X2836729Y-4038103D01*
X2836729Y-4038103D02*
X2817682Y-4047627D01*
X3046253Y-4076198D02*
X3027206Y-4066674D01*
X3027206Y-4066674D02*
X3017682Y-4057150D01*
X3017682Y-4057150D02*
X3008158Y-4038103D01*
X3008158Y-4038103D02*
X3008158Y-4028579D01*
X3008158Y-4028579D02*
X3017682Y-4009531D01*
X3017682Y-4009531D02*
X3027206Y-4000008D01*
X3027206Y-4000008D02*
X3046253Y-3990484D01*
X3046253Y-3990484D02*
X3084348Y-3990484D01*
X3084348Y-3990484D02*
X3103396Y-4000008D01*
X3103396Y-4000008D02*
X3112920Y-4009531D01*
X3112920Y-4009531D02*
X3122444Y-4028579D01*
X3122444Y-4028579D02*
X3122444Y-4038103D01*
X3122444Y-4038103D02*
X3112920Y-4057150D01*
X3112920Y-4057150D02*
X3103396Y-4066674D01*
X3103396Y-4066674D02*
X3084348Y-4076198D01*
X3084348Y-4076198D02*
X3046253Y-4076198D01*
X3046253Y-4076198D02*
X3027206Y-4085722D01*
X3027206Y-4085722D02*
X3017682Y-4095246D01*
X3017682Y-4095246D02*
X3008158Y-4114293D01*
X3008158Y-4114293D02*
X3008158Y-4152388D01*
X3008158Y-4152388D02*
X3017682Y-4171436D01*
X3017682Y-4171436D02*
X3027206Y-4180960D01*
X3027206Y-4180960D02*
X3046253Y-4190484D01*
X3046253Y-4190484D02*
X3084348Y-4190484D01*
X3084348Y-4190484D02*
X3103396Y-4180960D01*
X3103396Y-4180960D02*
X3112920Y-4171436D01*
X3112920Y-4171436D02*
X3122444Y-4152388D01*
X3122444Y-4152388D02*
X3122444Y-4114293D01*
X3122444Y-4114293D02*
X3112920Y-4095246D01*
X3112920Y-4095246D02*
X3103396Y-4085722D01*
X3103396Y-4085722D02*
X3084348Y-4076198D01*
X3198634Y-3990484D02*
X3198634Y-4028579D01*
X3274825Y-3990484D02*
X3274825Y-4028579D01*
X3570063Y-4266674D02*
X3560539Y-4257150D01*
X3560539Y-4257150D02*
X3541491Y-4228579D01*
X3541491Y-4228579D02*
X3531968Y-4209531D01*
X3531968Y-4209531D02*
X3522444Y-4180960D01*
X3522444Y-4180960D02*
X3512920Y-4133341D01*
X3512920Y-4133341D02*
X3512920Y-4095246D01*
X3512920Y-4095246D02*
X3522444Y-4047627D01*
X3522444Y-4047627D02*
X3531968Y-4019055D01*
X3531968Y-4019055D02*
X3541491Y-4000008D01*
X3541491Y-4000008D02*
X3560539Y-3971436D01*
X3560539Y-3971436D02*
X3570063Y-3961912D01*
X3627206Y-3990484D02*
X3751015Y-3990484D01*
X3751015Y-3990484D02*
X3684348Y-4066674D01*
X3684348Y-4066674D02*
X3712920Y-4066674D01*
X3712920Y-4066674D02*
X3731968Y-4076198D01*
X3731968Y-4076198D02*
X3741491Y-4085722D01*
X3741491Y-4085722D02*
X3751015Y-4104769D01*
X3751015Y-4104769D02*
X3751015Y-4152388D01*
X3751015Y-4152388D02*
X3741491Y-4171436D01*
X3741491Y-4171436D02*
X3731968Y-4180960D01*
X3731968Y-4180960D02*
X3712920Y-4190484D01*
X3712920Y-4190484D02*
X3655777Y-4190484D01*
X3655777Y-4190484D02*
X3636729Y-4180960D01*
X3636729Y-4180960D02*
X3627206Y-4171436D01*
X3846253Y-4190484D02*
X3884348Y-4190484D01*
X3884348Y-4190484D02*
X3903396Y-4180960D01*
X3903396Y-4180960D02*
X3912920Y-4171436D01*
X3912920Y-4171436D02*
X3931968Y-4142865D01*
X3931968Y-4142865D02*
X3941491Y-4104769D01*
X3941491Y-4104769D02*
X3941491Y-4028579D01*
X3941491Y-4028579D02*
X3931968Y-4009531D01*
X3931968Y-4009531D02*
X3922444Y-4000008D01*
X3922444Y-4000008D02*
X3903396Y-3990484D01*
X3903396Y-3990484D02*
X3865301Y-3990484D01*
X3865301Y-3990484D02*
X3846253Y-4000008D01*
X3846253Y-4000008D02*
X3836729Y-4009531D01*
X3836729Y-4009531D02*
X3827206Y-4028579D01*
X3827206Y-4028579D02*
X3827206Y-4076198D01*
X3827206Y-4076198D02*
X3836729Y-4095246D01*
X3836729Y-4095246D02*
X3846253Y-4104769D01*
X3846253Y-4104769D02*
X3865301Y-4114293D01*
X3865301Y-4114293D02*
X3903396Y-4114293D01*
X3903396Y-4114293D02*
X3922444Y-4104769D01*
X3922444Y-4104769D02*
X3931968Y-4095246D01*
X3931968Y-4095246D02*
X3941491Y-4076198D01*
X4179587Y-4190484D02*
X4179587Y-3990484D01*
X4265301Y-4190484D02*
X4265301Y-4085722D01*
X4265301Y-4085722D02*
X4255777Y-4066674D01*
X4255777Y-4066674D02*
X4236730Y-4057150D01*
X4236730Y-4057150D02*
X4208158Y-4057150D01*
X4208158Y-4057150D02*
X4189110Y-4066674D01*
X4189110Y-4066674D02*
X4179587Y-4076198D01*
X4389111Y-4190484D02*
X4370063Y-4180960D01*
X4370063Y-4180960D02*
X4360539Y-4171436D01*
X4360539Y-4171436D02*
X4351015Y-4152388D01*
X4351015Y-4152388D02*
X4351015Y-4095246D01*
X4351015Y-4095246D02*
X4360539Y-4076198D01*
X4360539Y-4076198D02*
X4370063Y-4066674D01*
X4370063Y-4066674D02*
X4389111Y-4057150D01*
X4389111Y-4057150D02*
X4417682Y-4057150D01*
X4417682Y-4057150D02*
X4436730Y-4066674D01*
X4436730Y-4066674D02*
X4446253Y-4076198D01*
X4446253Y-4076198D02*
X4455777Y-4095246D01*
X4455777Y-4095246D02*
X4455777Y-4152388D01*
X4455777Y-4152388D02*
X4446253Y-4171436D01*
X4446253Y-4171436D02*
X4436730Y-4180960D01*
X4436730Y-4180960D02*
X4417682Y-4190484D01*
X4417682Y-4190484D02*
X4389111Y-4190484D01*
X4570063Y-4190484D02*
X4551015Y-4180960D01*
X4551015Y-4180960D02*
X4541492Y-4161912D01*
X4541492Y-4161912D02*
X4541492Y-3990484D01*
X4722444Y-4180960D02*
X4703396Y-4190484D01*
X4703396Y-4190484D02*
X4665301Y-4190484D01*
X4665301Y-4190484D02*
X4646253Y-4180960D01*
X4646253Y-4180960D02*
X4636730Y-4161912D01*
X4636730Y-4161912D02*
X4636730Y-4085722D01*
X4636730Y-4085722D02*
X4646253Y-4066674D01*
X4646253Y-4066674D02*
X4665301Y-4057150D01*
X4665301Y-4057150D02*
X4703396Y-4057150D01*
X4703396Y-4057150D02*
X4722444Y-4066674D01*
X4722444Y-4066674D02*
X4731968Y-4085722D01*
X4731968Y-4085722D02*
X4731968Y-4104769D01*
X4731968Y-4104769D02*
X4636730Y-4123817D01*
X4808158Y-4180960D02*
X4827206Y-4190484D01*
X4827206Y-4190484D02*
X4865301Y-4190484D01*
X4865301Y-4190484D02*
X4884349Y-4180960D01*
X4884349Y-4180960D02*
X4893873Y-4161912D01*
X4893873Y-4161912D02*
X4893873Y-4152388D01*
X4893873Y-4152388D02*
X4884349Y-4133341D01*
X4884349Y-4133341D02*
X4865301Y-4123817D01*
X4865301Y-4123817D02*
X4836730Y-4123817D01*
X4836730Y-4123817D02*
X4817682Y-4114293D01*
X4817682Y-4114293D02*
X4808158Y-4095246D01*
X4808158Y-4095246D02*
X4808158Y-4085722D01*
X4808158Y-4085722D02*
X4817682Y-4066674D01*
X4817682Y-4066674D02*
X4836730Y-4057150D01*
X4836730Y-4057150D02*
X4865301Y-4057150D01*
X4865301Y-4057150D02*
X4884349Y-4066674D01*
X4960539Y-4266674D02*
X4970063Y-4257150D01*
X4970063Y-4257150D02*
X4989111Y-4228579D01*
X4989111Y-4228579D02*
X4998634Y-4209531D01*
X4998634Y-4209531D02*
X5008158Y-4180960D01*
X5008158Y-4180960D02*
X5017682Y-4133341D01*
X5017682Y-4133341D02*
X5017682Y-4095246D01*
X5017682Y-4095246D02*
X5008158Y-4047627D01*
X5008158Y-4047627D02*
X4998634Y-4019055D01*
X4998634Y-4019055D02*
X4989111Y-4000008D01*
X4989111Y-4000008D02*
X4970063Y-3971436D01*
X4970063Y-3971436D02*
X4960539Y-3961912D01*
D10*
X-5000Y-4363000D02*
G75*
G02*
X-105000Y-4363000I-50000J0D01*
G01*
X-105000Y-4363000D02*
G75*
G02*
X-5000Y-4363000I50000J0D01*
G01*
D11*
X360539Y-4454484D02*
X246253Y-4454484D01*
X303396Y-4454484D02*
X303396Y-4254484D01*
X303396Y-4254484D02*
X284348Y-4283055D01*
X284348Y-4283055D02*
X265301Y-4302103D01*
X265301Y-4302103D02*
X246253Y-4311627D01*
X455777Y-4444960D02*
X455777Y-4454484D01*
X455777Y-4454484D02*
X446253Y-4473531D01*
X446253Y-4473531D02*
X436729Y-4483055D01*
X579586Y-4254484D02*
X598634Y-4254484D01*
X598634Y-4254484D02*
X617682Y-4264008D01*
X617682Y-4264008D02*
X627205Y-4273531D01*
X627205Y-4273531D02*
X636729Y-4292579D01*
X636729Y-4292579D02*
X646253Y-4330674D01*
X646253Y-4330674D02*
X646253Y-4378293D01*
X646253Y-4378293D02*
X636729Y-4416389D01*
X636729Y-4416389D02*
X627205Y-4435436D01*
X627205Y-4435436D02*
X617682Y-4444960D01*
X617682Y-4444960D02*
X598634Y-4454484D01*
X598634Y-4454484D02*
X579586Y-4454484D01*
X579586Y-4454484D02*
X560539Y-4444960D01*
X560539Y-4444960D02*
X551015Y-4435436D01*
X551015Y-4435436D02*
X541491Y-4416389D01*
X541491Y-4416389D02*
X531967Y-4378293D01*
X531967Y-4378293D02*
X531967Y-4330674D01*
X531967Y-4330674D02*
X541491Y-4292579D01*
X541491Y-4292579D02*
X551015Y-4273531D01*
X551015Y-4273531D02*
X560539Y-4264008D01*
X560539Y-4264008D02*
X579586Y-4254484D01*
X770062Y-4254484D02*
X789110Y-4254484D01*
X789110Y-4254484D02*
X808158Y-4264008D01*
X808158Y-4264008D02*
X817682Y-4273531D01*
X817682Y-4273531D02*
X827205Y-4292579D01*
X827205Y-4292579D02*
X836729Y-4330674D01*
X836729Y-4330674D02*
X836729Y-4378293D01*
X836729Y-4378293D02*
X827205Y-4416389D01*
X827205Y-4416389D02*
X817682Y-4435436D01*
X817682Y-4435436D02*
X808158Y-4444960D01*
X808158Y-4444960D02*
X789110Y-4454484D01*
X789110Y-4454484D02*
X770062Y-4454484D01*
X770062Y-4454484D02*
X751015Y-4444960D01*
X751015Y-4444960D02*
X741491Y-4435436D01*
X741491Y-4435436D02*
X731967Y-4416389D01*
X731967Y-4416389D02*
X722443Y-4378293D01*
X722443Y-4378293D02*
X722443Y-4330674D01*
X722443Y-4330674D02*
X731967Y-4292579D01*
X731967Y-4292579D02*
X741491Y-4273531D01*
X741491Y-4273531D02*
X751015Y-4264008D01*
X751015Y-4264008D02*
X770062Y-4254484D01*
X960539Y-4254484D02*
X979586Y-4254484D01*
X979586Y-4254484D02*
X998634Y-4264008D01*
X998634Y-4264008D02*
X1008158Y-4273531D01*
X1008158Y-4273531D02*
X1017682Y-4292579D01*
X1017682Y-4292579D02*
X1027205Y-4330674D01*
X1027205Y-4330674D02*
X1027205Y-4378293D01*
X1027205Y-4378293D02*
X1017682Y-4416389D01*
X1017682Y-4416389D02*
X1008158Y-4435436D01*
X1008158Y-4435436D02*
X998634Y-4444960D01*
X998634Y-4444960D02*
X979586Y-4454484D01*
X979586Y-4454484D02*
X960539Y-4454484D01*
X960539Y-4454484D02*
X941491Y-4444960D01*
X941491Y-4444960D02*
X931967Y-4435436D01*
X931967Y-4435436D02*
X922443Y-4416389D01*
X922443Y-4416389D02*
X912920Y-4378293D01*
X912920Y-4378293D02*
X912920Y-4330674D01*
X912920Y-4330674D02*
X922443Y-4292579D01*
X922443Y-4292579D02*
X931967Y-4273531D01*
X931967Y-4273531D02*
X941491Y-4264008D01*
X941491Y-4264008D02*
X960539Y-4254484D01*
X1112920Y-4454484D02*
X1112920Y-4321150D01*
X1112920Y-4340198D02*
X1122444Y-4330674D01*
X1122444Y-4330674D02*
X1141491Y-4321150D01*
X1141491Y-4321150D02*
X1170063Y-4321150D01*
X1170063Y-4321150D02*
X1189110Y-4330674D01*
X1189110Y-4330674D02*
X1198634Y-4349722D01*
X1198634Y-4349722D02*
X1198634Y-4454484D01*
X1198634Y-4349722D02*
X1208158Y-4330674D01*
X1208158Y-4330674D02*
X1227205Y-4321150D01*
X1227205Y-4321150D02*
X1255777Y-4321150D01*
X1255777Y-4321150D02*
X1274825Y-4330674D01*
X1274825Y-4330674D02*
X1284348Y-4349722D01*
X1284348Y-4349722D02*
X1284348Y-4454484D01*
X1379586Y-4454484D02*
X1379586Y-4321150D01*
X1379586Y-4340198D02*
X1389110Y-4330674D01*
X1389110Y-4330674D02*
X1408158Y-4321150D01*
X1408158Y-4321150D02*
X1436729Y-4321150D01*
X1436729Y-4321150D02*
X1455777Y-4330674D01*
X1455777Y-4330674D02*
X1465301Y-4349722D01*
X1465301Y-4349722D02*
X1465301Y-4454484D01*
X1465301Y-4349722D02*
X1474824Y-4330674D01*
X1474824Y-4330674D02*
X1493872Y-4321150D01*
X1493872Y-4321150D02*
X1522443Y-4321150D01*
X1522443Y-4321150D02*
X1541491Y-4330674D01*
X1541491Y-4330674D02*
X1551015Y-4349722D01*
X1551015Y-4349722D02*
X1551015Y-4454484D01*
X1941491Y-4244960D02*
X1770063Y-4502103D01*
X2198634Y-4254484D02*
X2217682Y-4254484D01*
X2217682Y-4254484D02*
X2236729Y-4264008D01*
X2236729Y-4264008D02*
X2246253Y-4273531D01*
X2246253Y-4273531D02*
X2255777Y-4292579D01*
X2255777Y-4292579D02*
X2265301Y-4330674D01*
X2265301Y-4330674D02*
X2265301Y-4378293D01*
X2265301Y-4378293D02*
X2255777Y-4416389D01*
X2255777Y-4416389D02*
X2246253Y-4435436D01*
X2246253Y-4435436D02*
X2236729Y-4444960D01*
X2236729Y-4444960D02*
X2217682Y-4454484D01*
X2217682Y-4454484D02*
X2198634Y-4454484D01*
X2198634Y-4454484D02*
X2179587Y-4444960D01*
X2179587Y-4444960D02*
X2170063Y-4435436D01*
X2170063Y-4435436D02*
X2160539Y-4416389D01*
X2160539Y-4416389D02*
X2151015Y-4378293D01*
X2151015Y-4378293D02*
X2151015Y-4330674D01*
X2151015Y-4330674D02*
X2160539Y-4292579D01*
X2160539Y-4292579D02*
X2170063Y-4273531D01*
X2170063Y-4273531D02*
X2179587Y-4264008D01*
X2179587Y-4264008D02*
X2198634Y-4254484D01*
X2360539Y-4444960D02*
X2360539Y-4454484D01*
X2360539Y-4454484D02*
X2351015Y-4473531D01*
X2351015Y-4473531D02*
X2341491Y-4483055D01*
X2484348Y-4254484D02*
X2503396Y-4254484D01*
X2503396Y-4254484D02*
X2522444Y-4264008D01*
X2522444Y-4264008D02*
X2531968Y-4273531D01*
X2531968Y-4273531D02*
X2541491Y-4292579D01*
X2541491Y-4292579D02*
X2551015Y-4330674D01*
X2551015Y-4330674D02*
X2551015Y-4378293D01*
X2551015Y-4378293D02*
X2541491Y-4416389D01*
X2541491Y-4416389D02*
X2531968Y-4435436D01*
X2531968Y-4435436D02*
X2522444Y-4444960D01*
X2522444Y-4444960D02*
X2503396Y-4454484D01*
X2503396Y-4454484D02*
X2484348Y-4454484D01*
X2484348Y-4454484D02*
X2465301Y-4444960D01*
X2465301Y-4444960D02*
X2455777Y-4435436D01*
X2455777Y-4435436D02*
X2446253Y-4416389D01*
X2446253Y-4416389D02*
X2436729Y-4378293D01*
X2436729Y-4378293D02*
X2436729Y-4330674D01*
X2436729Y-4330674D02*
X2446253Y-4292579D01*
X2446253Y-4292579D02*
X2455777Y-4273531D01*
X2455777Y-4273531D02*
X2465301Y-4264008D01*
X2465301Y-4264008D02*
X2484348Y-4254484D01*
X2617682Y-4254484D02*
X2741491Y-4254484D01*
X2741491Y-4254484D02*
X2674825Y-4330674D01*
X2674825Y-4330674D02*
X2703396Y-4330674D01*
X2703396Y-4330674D02*
X2722444Y-4340198D01*
X2722444Y-4340198D02*
X2731968Y-4349722D01*
X2731968Y-4349722D02*
X2741491Y-4368770D01*
X2741491Y-4368770D02*
X2741491Y-4416389D01*
X2741491Y-4416389D02*
X2731968Y-4435436D01*
X2731968Y-4435436D02*
X2722444Y-4444960D01*
X2722444Y-4444960D02*
X2703396Y-4454484D01*
X2703396Y-4454484D02*
X2646253Y-4454484D01*
X2646253Y-4454484D02*
X2627206Y-4444960D01*
X2627206Y-4444960D02*
X2617682Y-4435436D01*
X2836729Y-4454484D02*
X2874825Y-4454484D01*
X2874825Y-4454484D02*
X2893872Y-4444960D01*
X2893872Y-4444960D02*
X2903396Y-4435436D01*
X2903396Y-4435436D02*
X2922444Y-4406865D01*
X2922444Y-4406865D02*
X2931967Y-4368770D01*
X2931967Y-4368770D02*
X2931967Y-4292579D01*
X2931967Y-4292579D02*
X2922444Y-4273531D01*
X2922444Y-4273531D02*
X2912920Y-4264008D01*
X2912920Y-4264008D02*
X2893872Y-4254484D01*
X2893872Y-4254484D02*
X2855777Y-4254484D01*
X2855777Y-4254484D02*
X2836729Y-4264008D01*
X2836729Y-4264008D02*
X2827206Y-4273531D01*
X2827206Y-4273531D02*
X2817682Y-4292579D01*
X2817682Y-4292579D02*
X2817682Y-4340198D01*
X2817682Y-4340198D02*
X2827206Y-4359246D01*
X2827206Y-4359246D02*
X2836729Y-4368770D01*
X2836729Y-4368770D02*
X2855777Y-4378293D01*
X2855777Y-4378293D02*
X2893872Y-4378293D01*
X2893872Y-4378293D02*
X2912920Y-4368770D01*
X2912920Y-4368770D02*
X2922444Y-4359246D01*
X2922444Y-4359246D02*
X2931967Y-4340198D01*
X3103396Y-4321150D02*
X3103396Y-4454484D01*
X3055777Y-4244960D02*
X3008158Y-4387817D01*
X3008158Y-4387817D02*
X3131967Y-4387817D01*
X3198634Y-4254484D02*
X3198634Y-4292579D01*
X3274825Y-4254484D02*
X3274825Y-4292579D01*
X3570063Y-4530674D02*
X3560539Y-4521150D01*
X3560539Y-4521150D02*
X3541491Y-4492579D01*
X3541491Y-4492579D02*
X3531968Y-4473531D01*
X3531968Y-4473531D02*
X3522444Y-4444960D01*
X3522444Y-4444960D02*
X3512920Y-4397341D01*
X3512920Y-4397341D02*
X3512920Y-4359246D01*
X3512920Y-4359246D02*
X3522444Y-4311627D01*
X3522444Y-4311627D02*
X3531968Y-4283055D01*
X3531968Y-4283055D02*
X3541491Y-4264008D01*
X3541491Y-4264008D02*
X3560539Y-4235436D01*
X3560539Y-4235436D02*
X3570063Y-4225912D01*
X3674825Y-4340198D02*
X3655777Y-4330674D01*
X3655777Y-4330674D02*
X3646253Y-4321150D01*
X3646253Y-4321150D02*
X3636729Y-4302103D01*
X3636729Y-4302103D02*
X3636729Y-4292579D01*
X3636729Y-4292579D02*
X3646253Y-4273531D01*
X3646253Y-4273531D02*
X3655777Y-4264008D01*
X3655777Y-4264008D02*
X3674825Y-4254484D01*
X3674825Y-4254484D02*
X3712920Y-4254484D01*
X3712920Y-4254484D02*
X3731968Y-4264008D01*
X3731968Y-4264008D02*
X3741491Y-4273531D01*
X3741491Y-4273531D02*
X3751015Y-4292579D01*
X3751015Y-4292579D02*
X3751015Y-4302103D01*
X3751015Y-4302103D02*
X3741491Y-4321150D01*
X3741491Y-4321150D02*
X3731968Y-4330674D01*
X3731968Y-4330674D02*
X3712920Y-4340198D01*
X3712920Y-4340198D02*
X3674825Y-4340198D01*
X3674825Y-4340198D02*
X3655777Y-4349722D01*
X3655777Y-4349722D02*
X3646253Y-4359246D01*
X3646253Y-4359246D02*
X3636729Y-4378293D01*
X3636729Y-4378293D02*
X3636729Y-4416389D01*
X3636729Y-4416389D02*
X3646253Y-4435436D01*
X3646253Y-4435436D02*
X3655777Y-4444960D01*
X3655777Y-4444960D02*
X3674825Y-4454484D01*
X3674825Y-4454484D02*
X3712920Y-4454484D01*
X3712920Y-4454484D02*
X3731968Y-4444960D01*
X3731968Y-4444960D02*
X3741491Y-4435436D01*
X3741491Y-4435436D02*
X3751015Y-4416389D01*
X3751015Y-4416389D02*
X3751015Y-4378293D01*
X3751015Y-4378293D02*
X3741491Y-4359246D01*
X3741491Y-4359246D02*
X3731968Y-4349722D01*
X3731968Y-4349722D02*
X3712920Y-4340198D01*
X3865301Y-4340198D02*
X3846253Y-4330674D01*
X3846253Y-4330674D02*
X3836729Y-4321150D01*
X3836729Y-4321150D02*
X3827206Y-4302103D01*
X3827206Y-4302103D02*
X3827206Y-4292579D01*
X3827206Y-4292579D02*
X3836729Y-4273531D01*
X3836729Y-4273531D02*
X3846253Y-4264008D01*
X3846253Y-4264008D02*
X3865301Y-4254484D01*
X3865301Y-4254484D02*
X3903396Y-4254484D01*
X3903396Y-4254484D02*
X3922444Y-4264008D01*
X3922444Y-4264008D02*
X3931968Y-4273531D01*
X3931968Y-4273531D02*
X3941491Y-4292579D01*
X3941491Y-4292579D02*
X3941491Y-4302103D01*
X3941491Y-4302103D02*
X3931968Y-4321150D01*
X3931968Y-4321150D02*
X3922444Y-4330674D01*
X3922444Y-4330674D02*
X3903396Y-4340198D01*
X3903396Y-4340198D02*
X3865301Y-4340198D01*
X3865301Y-4340198D02*
X3846253Y-4349722D01*
X3846253Y-4349722D02*
X3836729Y-4359246D01*
X3836729Y-4359246D02*
X3827206Y-4378293D01*
X3827206Y-4378293D02*
X3827206Y-4416389D01*
X3827206Y-4416389D02*
X3836729Y-4435436D01*
X3836729Y-4435436D02*
X3846253Y-4444960D01*
X3846253Y-4444960D02*
X3865301Y-4454484D01*
X3865301Y-4454484D02*
X3903396Y-4454484D01*
X3903396Y-4454484D02*
X3922444Y-4444960D01*
X3922444Y-4444960D02*
X3931968Y-4435436D01*
X3931968Y-4435436D02*
X3941491Y-4416389D01*
X3941491Y-4416389D02*
X3941491Y-4378293D01*
X3941491Y-4378293D02*
X3931968Y-4359246D01*
X3931968Y-4359246D02*
X3922444Y-4349722D01*
X3922444Y-4349722D02*
X3903396Y-4340198D01*
X4179587Y-4454484D02*
X4179587Y-4254484D01*
X4265301Y-4454484D02*
X4265301Y-4349722D01*
X4265301Y-4349722D02*
X4255777Y-4330674D01*
X4255777Y-4330674D02*
X4236730Y-4321150D01*
X4236730Y-4321150D02*
X4208158Y-4321150D01*
X4208158Y-4321150D02*
X4189110Y-4330674D01*
X4189110Y-4330674D02*
X4179587Y-4340198D01*
X4389111Y-4454484D02*
X4370063Y-4444960D01*
X4370063Y-4444960D02*
X4360539Y-4435436D01*
X4360539Y-4435436D02*
X4351015Y-4416389D01*
X4351015Y-4416389D02*
X4351015Y-4359246D01*
X4351015Y-4359246D02*
X4360539Y-4340198D01*
X4360539Y-4340198D02*
X4370063Y-4330674D01*
X4370063Y-4330674D02*
X4389111Y-4321150D01*
X4389111Y-4321150D02*
X4417682Y-4321150D01*
X4417682Y-4321150D02*
X4436730Y-4330674D01*
X4436730Y-4330674D02*
X4446253Y-4340198D01*
X4446253Y-4340198D02*
X4455777Y-4359246D01*
X4455777Y-4359246D02*
X4455777Y-4416389D01*
X4455777Y-4416389D02*
X4446253Y-4435436D01*
X4446253Y-4435436D02*
X4436730Y-4444960D01*
X4436730Y-4444960D02*
X4417682Y-4454484D01*
X4417682Y-4454484D02*
X4389111Y-4454484D01*
X4570063Y-4454484D02*
X4551015Y-4444960D01*
X4551015Y-4444960D02*
X4541492Y-4425912D01*
X4541492Y-4425912D02*
X4541492Y-4254484D01*
X4722444Y-4444960D02*
X4703396Y-4454484D01*
X4703396Y-4454484D02*
X4665301Y-4454484D01*
X4665301Y-4454484D02*
X4646253Y-4444960D01*
X4646253Y-4444960D02*
X4636730Y-4425912D01*
X4636730Y-4425912D02*
X4636730Y-4349722D01*
X4636730Y-4349722D02*
X4646253Y-4330674D01*
X4646253Y-4330674D02*
X4665301Y-4321150D01*
X4665301Y-4321150D02*
X4703396Y-4321150D01*
X4703396Y-4321150D02*
X4722444Y-4330674D01*
X4722444Y-4330674D02*
X4731968Y-4349722D01*
X4731968Y-4349722D02*
X4731968Y-4368770D01*
X4731968Y-4368770D02*
X4636730Y-4387817D01*
X4808158Y-4444960D02*
X4827206Y-4454484D01*
X4827206Y-4454484D02*
X4865301Y-4454484D01*
X4865301Y-4454484D02*
X4884349Y-4444960D01*
X4884349Y-4444960D02*
X4893873Y-4425912D01*
X4893873Y-4425912D02*
X4893873Y-4416389D01*
X4893873Y-4416389D02*
X4884349Y-4397341D01*
X4884349Y-4397341D02*
X4865301Y-4387817D01*
X4865301Y-4387817D02*
X4836730Y-4387817D01*
X4836730Y-4387817D02*
X4817682Y-4378293D01*
X4817682Y-4378293D02*
X4808158Y-4359246D01*
X4808158Y-4359246D02*
X4808158Y-4349722D01*
X4808158Y-4349722D02*
X4817682Y-4330674D01*
X4817682Y-4330674D02*
X4836730Y-4321150D01*
X4836730Y-4321150D02*
X4865301Y-4321150D01*
X4865301Y-4321150D02*
X4884349Y-4330674D01*
X4960539Y-4530674D02*
X4970063Y-4521150D01*
X4970063Y-4521150D02*
X4989111Y-4492579D01*
X4989111Y-4492579D02*
X4998634Y-4473531D01*
X4998634Y-4473531D02*
X5008158Y-4444960D01*
X5008158Y-4444960D02*
X5017682Y-4397341D01*
X5017682Y-4397341D02*
X5017682Y-4359246D01*
X5017682Y-4359246D02*
X5008158Y-4311627D01*
X5008158Y-4311627D02*
X4998634Y-4283055D01*
X4998634Y-4283055D02*
X4989111Y-4264008D01*
X4989111Y-4264008D02*
X4970063Y-4235436D01*
X4970063Y-4235436D02*
X4960539Y-4225912D01*
M02*
