%TF.GenerationSoftware,KiCad,Pcbnew,10.0.4*%
%TF.CreationDate,2026-09-14T23:59:08-03:00*%
%TF.ProjectId,tia-fpga,7469612d-6670-4676-912e-6b696361645f,B*%
%TF.SameCoordinates,Original*%
%TF.FileFunction,Copper,L1,Top*%
%TF.FilePolarity,Positive*%
%FSLAX46Y46*%
G04 Gerber Fmt 4.6, Leading zero omitted, Abs format (unit mm)*
G04 Created by KiCad (PCBNEW 10.0.4) date 2026-09-14 23:59:08*
%MOMM*%
%LPD*%
G01*
G04 APERTURE LIST*
G04 Aperture macros list*
%AMRoundRect*
0 Rectangle with rounded corners*
0 $1 Rounding radius*
0 $2 $3 $4 $5 $6 $7 $8 $9 X,Y pos of 4 corners*
0 Add a 4 corners polygon primitive as box body*
4,1,4,$2,$3,$4,$5,$6,$7,$8,$9,$2,$3,0*
0 Add four circle primitives for the rounded corners*
1,1,$1+$1,$2,$3*
1,1,$1+$1,$4,$5*
1,1,$1+$1,$6,$7*
1,1,$1+$1,$8,$9*
0 Add four rect primitives between the rounded corners*
20,1,$1+$1,$2,$3,$4,$5,0*
20,1,$1+$1,$4,$5,$6,$7,0*
20,1,$1+$1,$6,$7,$8,$9,0*
20,1,$1+$1,$8,$9,$2,$3,0*%
G04 Aperture macros list end*
%TA.AperFunction,SMDPad,CuDef*%
%ADD10RoundRect,0.150000X-0.512500X-0.150000X0.512500X-0.150000X0.512500X0.150000X-0.512500X0.150000X0*%
%TD*%
%TA.AperFunction,SMDPad,CuDef*%
%ADD11RoundRect,0.250000X-0.250000X-0.475000X0.250000X-0.475000X0.250000X0.475000X-0.250000X0.475000X0*%
%TD*%
%TA.AperFunction,SMDPad,CuDef*%
%ADD12RoundRect,0.250000X0.475000X-0.250000X0.475000X0.250000X-0.475000X0.250000X-0.475000X-0.250000X0*%
%TD*%
%TA.AperFunction,ComponentPad*%
%ADD13R,1.700000X1.700000*%
%TD*%
%TA.AperFunction,ComponentPad*%
%ADD14C,1.700000*%
%TD*%
%TA.AperFunction,SMDPad,CuDef*%
%ADD15RoundRect,0.150000X0.150000X-0.875000X0.150000X0.875000X-0.150000X0.875000X-0.150000X-0.875000X0*%
%TD*%
%TA.AperFunction,SMDPad,CuDef*%
%ADD16RoundRect,0.150000X0.150000X-0.825000X0.150000X0.825000X-0.150000X0.825000X-0.150000X-0.825000X0*%
%TD*%
%TA.AperFunction,ViaPad*%
%ADD17C,0.600000*%
%TD*%
%TA.AperFunction,Conductor*%
%ADD18C,0.180000*%
%TD*%
%TA.AperFunction,Conductor*%
%ADD19C,0.300000*%
%TD*%
G04 APERTURE END LIST*
D10*
%TO.P,U5,1*%
%TO.N,/F_CS0_N*%
X6862500Y-1250000D03*
%TO.P,U5,2*%
%TO.N,/F_CS3_N*%
X6862500Y-2200000D03*
%TO.P,U5,3*%
%TO.N,GND*%
X6862500Y-3150000D03*
%TO.P,U5,4*%
%TO.N,/F_CS_N*%
X9137500Y-3150000D03*
%TO.P,U5,5*%
%TO.N,+3V3*%
X9137500Y-1250000D03*
%TD*%
%TO.P,U8,1*%
%TO.N,/F_LUM0*%
X29362500Y-1250000D03*
%TO.P,U8,2*%
%TO.N,GND*%
X29362500Y-2200000D03*
%TO.P,U8,3*%
%TO.N,/F_COL*%
X29362500Y-3150000D03*
%TO.P,U8,4*%
%TO.N,/TIA_COL*%
X31637500Y-3150000D03*
%TO.P,U8,5*%
%TO.N,+3V3*%
X31637500Y-2200000D03*
%TO.P,U8,6*%
%TO.N,/TIA_LUM0*%
X31637500Y-1250000D03*
%TD*%
D11*
%TO.P,C3,1*%
%TO.N,+3V3*%
X37050000Y-29500000D03*
%TO.P,C3,2*%
%TO.N,GND*%
X38950000Y-29500000D03*
%TD*%
%TO.P,C1,1*%
%TO.N,+5V*%
X9050000Y-29500000D03*
%TO.P,C1,2*%
%TO.N,GND*%
X10950000Y-29500000D03*
%TD*%
%TO.P,C2,1*%
%TO.N,+3V3*%
X23050000Y-29500000D03*
%TO.P,C2,2*%
%TO.N,GND*%
X24950000Y-29500000D03*
%TD*%
D12*
%TO.P,C8,1*%
%TO.N,+3V3*%
X27000000Y-3150000D03*
%TO.P,C8,2*%
%TO.N,GND*%
X27000000Y-1250000D03*
%TD*%
D11*
%TO.P,C5,1*%
%TO.N,+5V*%
X15050000Y-29500000D03*
%TO.P,C5,2*%
%TO.N,GND*%
X16950000Y-29500000D03*
%TD*%
D12*
%TO.P,C7,1*%
%TO.N,+3V3*%
X20000000Y-3150000D03*
%TO.P,C7,2*%
%TO.N,GND*%
X20000000Y-1250000D03*
%TD*%
D13*
%TO.P,J4,1*%
%TO.N,/F_OSC*%
X5790000Y-26160000D03*
D14*
%TO.P,J4,2*%
%TO.N,unconnected-(J4-Pin_2-Pad2)*%
X8330000Y-26160000D03*
%TO.P,J4,3*%
%TO.N,unconnected-(J4-Pin_3-Pad3)*%
X10870000Y-26160000D03*
%TO.P,J4,4*%
%TO.N,unconnected-(J4-Pin_4-Pad4)*%
X13410000Y-26160000D03*
%TO.P,J4,5*%
%TO.N,unconnected-(J4-Pin_5-Pad5)*%
X15950000Y-26160000D03*
%TO.P,J4,6*%
%TO.N,unconnected-(J4-Pin_6-Pad6)*%
X18490000Y-26160000D03*
%TO.P,J4,7*%
%TO.N,unconnected-(J4-Pin_7-Pad7)*%
X21030000Y-26160000D03*
%TO.P,J4,8*%
%TO.N,unconnected-(J4-Pin_8-Pad8)*%
X23570000Y-26160000D03*
%TO.P,J4,9*%
%TO.N,unconnected-(J4-Pin_9-Pad9)*%
X26110000Y-26160000D03*
%TO.P,J4,10*%
%TO.N,/F_D0*%
X28650000Y-26160000D03*
%TO.P,J4,11*%
%TO.N,/F_A1*%
X31190000Y-26160000D03*
%TO.P,J4,12*%
%TO.N,unconnected-(J4-Pin_12-Pad12)*%
X33730000Y-26160000D03*
%TO.P,J4,13*%
%TO.N,unconnected-(J4-Pin_13-Pad13)*%
X36270000Y-26160000D03*
%TO.P,J4,14*%
%TO.N,unconnected-(J4-Pin_14-Pad14)*%
X38810000Y-26160000D03*
%TO.P,J4,15*%
%TO.N,unconnected-(J4-Pin_15-Pad15)*%
X41350000Y-26160000D03*
%TO.P,J4,16*%
%TO.N,unconnected-(J4-Pin_16-Pad16)*%
X43890000Y-26160000D03*
%TO.P,J4,17*%
%TO.N,unconnected-(J4-Pin_17-Pad17)*%
X46430000Y-26160000D03*
%TO.P,J4,18*%
%TO.N,unconnected-(J4-Pin_18-Pad18)*%
X48970000Y-26160000D03*
%TO.P,J4,19*%
%TO.N,/F_D3*%
X51510000Y-26160000D03*
%TO.P,J4,20*%
%TO.N,/F_D4*%
X54050000Y-26160000D03*
%TO.P,J4,21*%
%TO.N,/F_D6*%
X56590000Y-26160000D03*
%TO.P,J4,22*%
%TO.N,/F_D7*%
X59130000Y-26160000D03*
%TO.P,J4,23*%
%TO.N,GND*%
X61670000Y-26160000D03*
%TO.P,J4,24*%
%TO.N,+3V3*%
X64210000Y-26160000D03*
%TD*%
D15*
%TO.P,U4,1*%
%TO.N,GND*%
X18285000Y-20650000D03*
%TO.P,U4,2*%
%TO.N,/TIA_CS0_N*%
X19555000Y-20650000D03*
%TO.P,U4,3*%
%TO.N,/TIA_CS3_N*%
X20825000Y-20650000D03*
%TO.P,U4,4*%
%TO.N,/TIA_I4*%
X22095000Y-20650000D03*
%TO.P,U4,5*%
%TO.N,/TIA_I5*%
X23365000Y-20650000D03*
%TO.P,U4,6*%
%TO.N,/TIA_OSC*%
X24635000Y-20650000D03*
%TO.P,U4,7*%
%TO.N,GND*%
X25905000Y-20650000D03*
%TO.P,U4,8*%
X27175000Y-20650000D03*
%TO.P,U4,9*%
X28445000Y-20650000D03*
%TO.P,U4,10*%
X29715000Y-20650000D03*
%TO.P,U4,11*%
%TO.N,unconnected-(U4-Y7-Pad11)*%
X29715000Y-11350000D03*
%TO.P,U4,12*%
%TO.N,unconnected-(U4-Y6-Pad12)*%
X28445000Y-11350000D03*
%TO.P,U4,13*%
%TO.N,unconnected-(U4-Y5-Pad13)*%
X27175000Y-11350000D03*
%TO.P,U4,14*%
%TO.N,/F_OSC*%
X25905000Y-11350000D03*
%TO.P,U4,15*%
%TO.N,/F_I5*%
X24635000Y-11350000D03*
%TO.P,U4,16*%
%TO.N,/F_I4*%
X23365000Y-11350000D03*
%TO.P,U4,17*%
%TO.N,/F_CS3_N*%
X22095000Y-11350000D03*
%TO.P,U4,18*%
%TO.N,/F_CS0_N*%
X20825000Y-11350000D03*
%TO.P,U4,19*%
%TO.N,GND*%
X19555000Y-11350000D03*
%TO.P,U4,20*%
%TO.N,+3V3*%
X18285000Y-11350000D03*
%TD*%
D10*
%TO.P,U9,1*%
%TO.N,/F_AU1*%
X39862500Y-1250000D03*
%TO.P,U9,2*%
%TO.N,GND*%
X39862500Y-2200000D03*
%TO.P,U9,3*%
%TO.N,/F_AU0*%
X39862500Y-3150000D03*
%TO.P,U9,4*%
%TO.N,/TIA_AU0*%
X42137500Y-3150000D03*
%TO.P,U9,5*%
%TO.N,+3V3*%
X42137500Y-2200000D03*
%TO.P,U9,6*%
%TO.N,/TIA_AU1*%
X42137500Y-1250000D03*
%TD*%
D15*
%TO.P,U2,1*%
%TO.N,/F_RW*%
X46285000Y-20650000D03*
%TO.P,U2,2*%
%TO.N,/F_D0*%
X47555000Y-20650000D03*
%TO.P,U2,3*%
%TO.N,/F_D1*%
X48825000Y-20650000D03*
%TO.P,U2,4*%
%TO.N,/F_D2*%
X50095000Y-20650000D03*
%TO.P,U2,5*%
%TO.N,/F_D3*%
X51365000Y-20650000D03*
%TO.P,U2,6*%
%TO.N,/F_D4*%
X52635000Y-20650000D03*
%TO.P,U2,7*%
%TO.N,/F_D5*%
X53905000Y-20650000D03*
%TO.P,U2,8*%
%TO.N,/F_D6*%
X55175000Y-20650000D03*
%TO.P,U2,9*%
%TO.N,/F_D7*%
X56445000Y-20650000D03*
%TO.P,U2,10*%
%TO.N,GND*%
X57715000Y-20650000D03*
%TO.P,U2,11*%
%TO.N,/TIA_D7*%
X57715000Y-11350000D03*
%TO.P,U2,12*%
%TO.N,/TIA_D6*%
X56445000Y-11350000D03*
%TO.P,U2,13*%
%TO.N,/TIA_D5*%
X55175000Y-11350000D03*
%TO.P,U2,14*%
%TO.N,/TIA_D4*%
X53905000Y-11350000D03*
%TO.P,U2,15*%
%TO.N,/TIA_D3*%
X52635000Y-11350000D03*
%TO.P,U2,16*%
%TO.N,/TIA_D2*%
X51365000Y-11350000D03*
%TO.P,U2,17*%
%TO.N,/TIA_D1*%
X50095000Y-11350000D03*
%TO.P,U2,18*%
%TO.N,/TIA_D0*%
X48825000Y-11350000D03*
%TO.P,U2,19*%
%TO.N,/F_CS_N*%
X47555000Y-11350000D03*
%TO.P,U2,20*%
%TO.N,+3V3*%
X46285000Y-11350000D03*
%TD*%
D10*
%TO.P,U7,1*%
%TO.N,/F_BLK*%
X22362500Y-1250000D03*
%TO.P,U7,2*%
%TO.N,GND*%
X22362500Y-2200000D03*
%TO.P,U7,3*%
%TO.N,/F_LUM2*%
X22362500Y-3150000D03*
%TO.P,U7,4*%
%TO.N,/TIA_LUM2*%
X24637500Y-3150000D03*
%TO.P,U7,5*%
%TO.N,+3V3*%
X24637500Y-2200000D03*
%TO.P,U7,6*%
%TO.N,/TIA_BLK*%
X24637500Y-1250000D03*
%TD*%
D11*
%TO.P,C6,1*%
%TO.N,+3V3*%
X44050000Y-29500000D03*
%TO.P,C6,2*%
%TO.N,GND*%
X45950000Y-29500000D03*
%TD*%
%TO.P,C4,1*%
%TO.N,+3V3*%
X51050000Y-29500000D03*
%TO.P,C4,2*%
%TO.N,GND*%
X52950000Y-29500000D03*
%TD*%
D12*
%TO.P,C10,1*%
%TO.N,+3V3*%
X44500000Y-3150000D03*
%TO.P,C10,2*%
%TO.N,GND*%
X44500000Y-1250000D03*
%TD*%
D13*
%TO.P,J1,1*%
%TO.N,/F_PHI0*%
X5790000Y-5840000D03*
D14*
%TO.P,J1,2*%
%TO.N,/F_CS_N*%
X8330000Y-5840000D03*
%TO.P,J1,3*%
%TO.N,/F_RDY*%
X10870000Y-5840000D03*
%TO.P,J1,4*%
%TO.N,/F_LUM1*%
X13410000Y-5840000D03*
%TO.P,J1,5*%
%TO.N,/F_CSYNC*%
X15950000Y-5840000D03*
%TO.P,J1,6*%
%TO.N,/F_I4*%
X18490000Y-5840000D03*
%TO.P,J1,7*%
%TO.N,/F_LUM2*%
X21030000Y-5840000D03*
%TO.P,J1,8*%
%TO.N,/F_BLK*%
X23570000Y-5840000D03*
%TO.P,J1,9*%
%TO.N,/F_I5*%
X26110000Y-5840000D03*
%TO.P,J1,10*%
%TO.N,/F_LUM0*%
X28650000Y-5840000D03*
%TO.P,J1,11*%
%TO.N,/F_COL*%
X31190000Y-5840000D03*
%TO.P,J1,12*%
%TO.N,/F_A0*%
X33730000Y-5840000D03*
%TO.P,J1,13*%
%TO.N,/F_A2*%
X36270000Y-5840000D03*
%TO.P,J1,14*%
%TO.N,/F_A3*%
X38810000Y-5840000D03*
%TO.P,J1,15*%
%TO.N,/F_A4*%
X41350000Y-5840000D03*
%TO.P,J1,16*%
%TO.N,/F_AU0*%
X43890000Y-5840000D03*
%TO.P,J1,17*%
%TO.N,/F_RW*%
X46430000Y-5840000D03*
%TO.P,J1,18*%
%TO.N,/F_D1*%
X48970000Y-5840000D03*
%TO.P,J1,19*%
%TO.N,/F_D2*%
X51510000Y-5840000D03*
%TO.P,J1,20*%
%TO.N,/F_D5*%
X54050000Y-5840000D03*
%TO.P,J1,21*%
%TO.N,/F_AU1*%
X56590000Y-5840000D03*
%TO.P,J1,22*%
%TO.N,/F_A5*%
X59130000Y-5840000D03*
%TO.P,J1,23*%
%TO.N,unconnected-(J1-Pin_23-Pad23)*%
X61670000Y-5840000D03*
%TO.P,J1,24*%
%TO.N,unconnected-(J1-Pin_24-Pad24)*%
X64210000Y-5840000D03*
%TD*%
D16*
%TO.P,U1,1*%
%TO.N,GND*%
X6190000Y-18475000D03*
%TO.P,U1,2*%
%TO.N,/F_PHI0*%
X7460000Y-18475000D03*
%TO.P,U1,3*%
%TO.N,/TIA_PHI0*%
X8730000Y-18475000D03*
%TO.P,U1,4*%
%TO.N,GND*%
X10000000Y-18475000D03*
%TO.P,U1,5*%
%TO.N,/F_RDY*%
X11270000Y-18475000D03*
%TO.P,U1,6*%
%TO.N,/TIA_RDY*%
X12540000Y-18475000D03*
%TO.P,U1,7*%
%TO.N,GND*%
X13810000Y-18475000D03*
%TO.P,U1,8*%
%TO.N,unconnected-(U1-Pad8)*%
X13810000Y-13525000D03*
%TO.P,U1,9*%
%TO.N,GND*%
X12540000Y-13525000D03*
%TO.P,U1,10*%
%TO.N,+5V*%
X11270000Y-13525000D03*
%TO.P,U1,11*%
%TO.N,unconnected-(U1-Pad11)*%
X10000000Y-13525000D03*
%TO.P,U1,12*%
%TO.N,GND*%
X8730000Y-13525000D03*
%TO.P,U1,13*%
%TO.N,+5V*%
X7460000Y-13525000D03*
%TO.P,U1,14*%
X6190000Y-13525000D03*
%TD*%
D10*
%TO.P,U6,1*%
%TO.N,/F_CSYNC*%
X15362500Y-1250000D03*
%TO.P,U6,2*%
%TO.N,GND*%
X15362500Y-2200000D03*
%TO.P,U6,3*%
%TO.N,/F_LUM1*%
X15362500Y-3150000D03*
%TO.P,U6,4*%
%TO.N,/TIA_LUM1*%
X17637500Y-3150000D03*
%TO.P,U6,5*%
%TO.N,+3V3*%
X17637500Y-2200000D03*
%TO.P,U6,6*%
%TO.N,/TIA_CSYNC*%
X17637500Y-1250000D03*
%TD*%
D15*
%TO.P,U3,1*%
%TO.N,GND*%
X32285000Y-20650000D03*
%TO.P,U3,2*%
%TO.N,/TIA_A0*%
X33555000Y-20650000D03*
%TO.P,U3,3*%
%TO.N,/TIA_A1*%
X34825000Y-20650000D03*
%TO.P,U3,4*%
%TO.N,/TIA_A2*%
X36095000Y-20650000D03*
%TO.P,U3,5*%
%TO.N,/TIA_A3*%
X37365000Y-20650000D03*
%TO.P,U3,6*%
%TO.N,/TIA_A4*%
X38635000Y-20650000D03*
%TO.P,U3,7*%
%TO.N,/TIA_A5*%
X39905000Y-20650000D03*
%TO.P,U3,8*%
%TO.N,/TIA_RW*%
X41175000Y-20650000D03*
%TO.P,U3,9*%
%TO.N,/TIA_PHI2*%
X42445000Y-20650000D03*
%TO.P,U3,10*%
%TO.N,GND*%
X43715000Y-20650000D03*
%TO.P,U3,11*%
%TO.N,unconnected-(U3-Y7-Pad11)*%
X43715000Y-11350000D03*
%TO.P,U3,12*%
%TO.N,/F_RW*%
X42445000Y-11350000D03*
%TO.P,U3,13*%
%TO.N,/F_A5*%
X41175000Y-11350000D03*
%TO.P,U3,14*%
%TO.N,/F_A4*%
X39905000Y-11350000D03*
%TO.P,U3,15*%
%TO.N,/F_A3*%
X38635000Y-11350000D03*
%TO.P,U3,16*%
%TO.N,/F_A2*%
X37365000Y-11350000D03*
%TO.P,U3,17*%
%TO.N,/F_A1*%
X36095000Y-11350000D03*
%TO.P,U3,18*%
%TO.N,/F_A0*%
X34825000Y-11350000D03*
%TO.P,U3,19*%
%TO.N,GND*%
X33555000Y-11350000D03*
%TO.P,U3,20*%
%TO.N,+3V3*%
X32285000Y-11350000D03*
%TD*%
D12*
%TO.P,C9,1*%
%TO.N,+3V3*%
X34000000Y-3150000D03*
%TO.P,C9,2*%
%TO.N,GND*%
X34000000Y-1250000D03*
%TD*%
D13*
%TO.P,J3,1*%
%TO.N,/TIA_CS3_N*%
X59130000Y-23620000D03*
D14*
%TO.P,J3,2*%
%TO.N,GND*%
X56590000Y-23620000D03*
%TO.P,J3,3*%
%TO.N,+5V*%
X54050000Y-23620000D03*
%TO.P,J3,4*%
%TO.N,/TIA_CS0_N*%
X51510000Y-23620000D03*
%TO.P,J3,5*%
%TO.N,/TIA_RW*%
X48970000Y-23620000D03*
%TO.P,J3,6*%
%TO.N,/TIA_PHI2*%
X46430000Y-23620000D03*
%TO.P,J3,7*%
%TO.N,/TIA_A5*%
X43890000Y-23620000D03*
%TO.P,J3,8*%
%TO.N,/TIA_A4*%
X41350000Y-23620000D03*
%TO.P,J3,9*%
%TO.N,/TIA_A3*%
X38810000Y-23620000D03*
%TO.P,J3,10*%
%TO.N,/TIA_A2*%
X36270000Y-23620000D03*
%TO.P,J3,11*%
%TO.N,/TIA_A1*%
X33730000Y-23620000D03*
%TO.P,J3,12*%
%TO.N,/TIA_A0*%
X31190000Y-23620000D03*
%TO.P,J3,13*%
%TO.N,/TIA_D6*%
X28650000Y-23620000D03*
%TO.P,J3,14*%
%TO.N,/TIA_D7*%
X26110000Y-23620000D03*
%TO.P,J3,15*%
%TO.N,/TIA_I5*%
X23570000Y-23620000D03*
%TO.P,J3,16*%
%TO.N,/TIA_I4*%
X21030000Y-23620000D03*
%TO.P,J3,17*%
%TO.N,unconnected-(J3-Pin_17-Pad17)*%
X18490000Y-23620000D03*
%TO.P,J3,18*%
%TO.N,unconnected-(J3-Pin_18-Pad18)*%
X15950000Y-23620000D03*
%TO.P,J3,19*%
%TO.N,unconnected-(J3-Pin_19-Pad19)*%
X13410000Y-23620000D03*
%TO.P,J3,20*%
%TO.N,unconnected-(J3-Pin_20-Pad20)*%
X10870000Y-23620000D03*
%TD*%
D13*
%TO.P,J2,1*%
%TO.N,GND*%
X10870000Y-8380000D03*
D14*
%TO.P,J2,2*%
%TO.N,/TIA_CSYNC*%
X13410000Y-8380000D03*
%TO.P,J2,3*%
%TO.N,/TIA_RDY*%
X15950000Y-8380000D03*
%TO.P,J2,4*%
%TO.N,/TIA_PHI0*%
X18490000Y-8380000D03*
%TO.P,J2,5*%
%TO.N,/TIA_LUM1*%
X21030000Y-8380000D03*
%TO.P,J2,6*%
%TO.N,/TIA_BLK*%
X23570000Y-8380000D03*
%TO.P,J2,7*%
%TO.N,/TIA_LUM2*%
X26110000Y-8380000D03*
%TO.P,J2,8*%
%TO.N,/TIA_LUM0*%
X28650000Y-8380000D03*
%TO.P,J2,9*%
%TO.N,/TIA_COL*%
X31190000Y-8380000D03*
%TO.P,J2,10*%
%TO.N,unconnected-(J2-Pin_10-Pad10)*%
X33730000Y-8380000D03*
%TO.P,J2,11*%
%TO.N,/TIA_OSC*%
X36270000Y-8380000D03*
%TO.P,J2,12*%
%TO.N,/TIA_AU1*%
X38810000Y-8380000D03*
%TO.P,J2,13*%
%TO.N,/TIA_AU0*%
X41350000Y-8380000D03*
%TO.P,J2,14*%
%TO.N,/TIA_D0*%
X43890000Y-8380000D03*
%TO.P,J2,15*%
%TO.N,/TIA_D1*%
X46430000Y-8380000D03*
%TO.P,J2,16*%
%TO.N,/TIA_D2*%
X48970000Y-8380000D03*
%TO.P,J2,17*%
%TO.N,/TIA_D3*%
X51510000Y-8380000D03*
%TO.P,J2,18*%
%TO.N,/TIA_D4*%
X54050000Y-8380000D03*
%TO.P,J2,19*%
%TO.N,/TIA_D5*%
X56590000Y-8380000D03*
%TO.P,J2,20*%
%TO.N,+5V*%
X59130000Y-8380000D03*
%TD*%
D17*
%TO.N,/F_CS0_N*%
X18920000Y-12591500D03*
X13920200Y-1619500D03*
%TO.N,/F_CS3_N*%
X17901800Y-9770000D03*
X7970600Y-2004700D03*
%TO.N,GND*%
X45369333Y-1482937D03*
X53000000Y-1300000D03*
%TO.N,/F_CS_N*%
X42978700Y-9999200D03*
%TO.N,+3V3*%
X14667400Y-4869000D03*
X12736300Y-1672800D03*
%TO.N,/F_COL*%
X28719400Y-3892100D03*
%TO.N,/F_OSC*%
X25521300Y-9891600D03*
%TO.N,/F_D0*%
X52214600Y-18081100D03*
%TO.N,/F_A1*%
X36095000Y-12811900D03*
%TO.N,/TIA_CS3_N*%
X20385500Y-22060000D03*
%TO.N,/F_AU1*%
X38757400Y-1103900D03*
%TO.N,/F_AU0*%
X42181900Y-4131900D03*
%TO.N,/TIA_AU0*%
X42913700Y-3898000D03*
%TO.N,/TIA_AU1*%
X43232600Y-1250000D03*
%TO.N,/F_D1*%
X48577300Y-19190100D03*
%TO.N,/F_D2*%
X50095000Y-19174700D03*
%TO.N,/F_D5*%
X53526900Y-18888300D03*
%TO.N,/TIA_D7*%
X52693600Y-13165000D03*
%TO.N,/TIA_D6*%
X56309000Y-9884800D03*
%TO.N,/TIA_BLK*%
X25751800Y-1249400D03*
%TO.N,/F_PHI0*%
X5573300Y-19674100D03*
%TO.N,/TIA_PHI0*%
X9265900Y-19751600D03*
%TO.N,/TIA_LUM1*%
X22207100Y-7202900D03*
X18819000Y-3150100D03*
%TO.N,/TIA_CSYNC*%
X16813200Y-3831100D03*
%TD*%
%TO.N,/F_CS0_N*%
D18*
X13026800Y-726100D02*
X13920200Y-1619500D01*
X19891100Y-10095300D02*
X20825000Y-11029200D01*
X6862500Y-1250000D02*
X7386400Y-726100D01*
X19187800Y-10095300D02*
X19891100Y-10095300D01*
X18920000Y-10363100D02*
X19187800Y-10095300D01*
X20825000Y-11029200D02*
X20825000Y-11350000D01*
X18920000Y-12591500D02*
X18920000Y-10363100D01*
X7386400Y-726100D02*
X13026800Y-726100D01*
%TO.N,/F_CS3_N*%
X7057800Y-2004700D02*
X6862500Y-2200000D01*
X20361700Y-9862800D02*
X20268900Y-9770000D01*
X7970600Y-2004700D02*
X7057800Y-2004700D01*
X20268900Y-9770000D02*
X17901800Y-9770000D01*
X22095000Y-11016200D02*
X20941600Y-9862800D01*
X22095000Y-11350000D02*
X22095000Y-11016200D01*
X20941600Y-9862800D02*
X20361700Y-9862800D01*
%TO.N,GND*%
X44412000Y-20650000D02*
X45708600Y-21946600D01*
X32285000Y-20650000D02*
X29715000Y-20650000D01*
X24965000Y-21931400D02*
X24321600Y-21931400D01*
X15362500Y-2200000D02*
X15055700Y-2200000D01*
X32605900Y-12614800D02*
X20533900Y-12614800D01*
X27000000Y-1250000D02*
X27950000Y-2200000D01*
X45708600Y-21946600D02*
X49130000Y-21946600D01*
X17897700Y-28552300D02*
X16950000Y-29500000D01*
X43715000Y-20650000D02*
X44412000Y-20650000D01*
X43715000Y-20650000D02*
X43715000Y-20338600D01*
X33555000Y-11350000D02*
X33555000Y-11665700D01*
X57715000Y-20650000D02*
X57715000Y-22495000D01*
X49460000Y-21616600D02*
X49460000Y-19052500D01*
X27000000Y-1250000D02*
X27522300Y-727700D01*
X24950000Y-29500000D02*
X24002300Y-28552300D01*
X24321600Y-21931400D02*
X24000000Y-21609800D01*
X10870000Y-9451700D02*
X10870000Y-12290400D01*
X18285000Y-19376000D02*
X14711000Y-19376000D01*
X10000000Y-17215400D02*
X7206800Y-17215400D01*
X20950000Y-2200000D02*
X22362500Y-2200000D01*
X20102100Y-12182900D02*
X13810000Y-18475000D01*
X61670000Y-26160000D02*
X59308300Y-28521700D01*
X24002300Y-28552300D02*
X17897700Y-28552300D01*
X33555000Y-11665700D02*
X32605900Y-12614800D01*
X15055700Y-2200000D02*
X14456200Y-1600500D01*
X27522300Y-727700D02*
X33477700Y-727700D01*
X8730000Y-13525000D02*
X8730000Y-13289800D01*
X33206200Y-19400900D02*
X32285000Y-20322100D01*
D19*
X44500000Y-1250000D02*
X45369333Y-1482937D01*
D18*
X45950000Y-28523200D02*
X45950000Y-29500000D01*
X23646800Y-19376000D02*
X18285000Y-19376000D01*
X10870000Y-8380000D02*
X10870000Y-9126800D01*
X10870000Y-9126800D02*
X10080200Y-9126800D01*
X12540000Y-14675400D02*
X10000000Y-17215400D01*
X27950000Y-2200000D02*
X29362500Y-2200000D01*
X27175000Y-20650000D02*
X25905000Y-20650000D01*
X7592500Y-3150000D02*
X8542500Y-2200000D01*
X11897700Y-28552300D02*
X10950000Y-29500000D01*
X29715000Y-20650000D02*
X28445000Y-20650000D01*
X10080200Y-9126800D02*
X6862500Y-5909100D01*
X6190000Y-18232200D02*
X6190000Y-18475000D01*
X19472800Y-722800D02*
X20000000Y-1250000D01*
X38950000Y-28523200D02*
X38950000Y-29500000D01*
X49909700Y-18602800D02*
X52430800Y-18602800D01*
X57715000Y-22495000D02*
X56590000Y-23620000D01*
X9729400Y-12290400D02*
X10870000Y-12290400D01*
X7206800Y-17215400D02*
X6190000Y-18232200D01*
X24000000Y-19729200D02*
X23646800Y-19376000D01*
X6862500Y-5909100D02*
X6862500Y-3150000D01*
X18285000Y-19376000D02*
X18285000Y-20650000D01*
X20522300Y-727700D02*
X26477700Y-727700D01*
X10000000Y-17215400D02*
X10000000Y-18475000D01*
X43715000Y-20338600D02*
X42777300Y-19400900D01*
X34950000Y-2200000D02*
X39862500Y-2200000D01*
X26477700Y-727700D02*
X27000000Y-1250000D01*
X20533900Y-12614800D02*
X20102100Y-12182900D01*
X32285000Y-20322100D02*
X32285000Y-20650000D01*
X8542500Y-2200000D02*
X15362500Y-2200000D01*
X45950000Y-28523200D02*
X38950000Y-28523200D01*
D19*
X45369333Y-1482937D02*
X53000000Y-1300000D01*
D18*
X24000000Y-21609800D02*
X24000000Y-19729200D01*
X16002300Y-28552300D02*
X11897700Y-28552300D01*
X19555000Y-11635900D02*
X19555000Y-11350000D01*
X12844400Y-19702900D02*
X13810000Y-18737300D01*
X14456200Y-1600500D02*
X14456200Y-907400D01*
X16950000Y-29500000D02*
X16002300Y-28552300D01*
X59308300Y-28521700D02*
X56262800Y-28521700D01*
X45950000Y-28523200D02*
X52950000Y-28523200D01*
X10000000Y-18731100D02*
X10971800Y-19702900D01*
X8730000Y-13289800D02*
X9729400Y-12290400D01*
X52430800Y-18602800D02*
X52700900Y-18332700D01*
X25926800Y-28523200D02*
X24950000Y-29500000D01*
X56262800Y-28521700D02*
X56261300Y-28523200D01*
X25905000Y-20991400D02*
X24965000Y-21931400D01*
X6862500Y-3150000D02*
X7592500Y-3150000D01*
X56261300Y-28523200D02*
X52950000Y-28523200D01*
X14711000Y-19376000D02*
X13810000Y-18475000D01*
X38950000Y-28523200D02*
X25926800Y-28523200D01*
X33477700Y-727700D02*
X34000000Y-1250000D01*
X52950000Y-28523200D02*
X52950000Y-29500000D01*
X10971800Y-19702900D02*
X12844400Y-19702900D01*
X13810000Y-18737300D02*
X13810000Y-18475000D01*
X25905000Y-20650000D02*
X25905000Y-20991400D01*
X34000000Y-1250000D02*
X34950000Y-2200000D01*
X28445000Y-20650000D02*
X27175000Y-20650000D01*
X20102100Y-12182900D02*
X19555000Y-11635900D01*
X52700900Y-18332700D02*
X55728000Y-18332700D01*
X14640800Y-722800D02*
X19472800Y-722800D01*
X11537000Y-12290400D02*
X12540000Y-13293400D01*
X55728000Y-18332700D02*
X57715000Y-20319700D01*
X20000000Y-1250000D02*
X20950000Y-2200000D01*
X14456200Y-907400D02*
X14640800Y-722800D01*
X49460000Y-19052500D02*
X49909700Y-18602800D01*
X10870000Y-9126800D02*
X10870000Y-9451700D01*
X57715000Y-20319700D02*
X57715000Y-20650000D01*
X10870000Y-12290400D02*
X11537000Y-12290400D01*
X12540000Y-13525000D02*
X12540000Y-14675400D01*
X10000000Y-18475000D02*
X10000000Y-18731100D01*
X20000000Y-1250000D02*
X20522300Y-727700D01*
X49130000Y-21946600D02*
X49460000Y-21616600D01*
X12540000Y-13293400D02*
X12540000Y-13525000D01*
X42777300Y-19400900D02*
X33206200Y-19400900D01*
%TO.N,/F_CS_N*%
X8330000Y-3957500D02*
X9137500Y-3150000D01*
X47555000Y-11068400D02*
X46485800Y-9999200D01*
X46485800Y-9999200D02*
X42978700Y-9999200D01*
X8330000Y-5840000D02*
X8330000Y-3957500D01*
X47555000Y-11350000D02*
X47555000Y-11068400D01*
%TO.N,+3V3*%
X19636000Y-5370500D02*
X18707800Y-4442200D01*
X32285000Y-11350000D02*
X31022400Y-10087400D01*
X38003300Y-30453300D02*
X37050000Y-29500000D01*
X64210000Y-26160000D02*
X59922300Y-30447700D01*
X34000000Y-3150000D02*
X33050000Y-2200000D01*
X60222600Y-5370800D02*
X60222600Y-6285200D01*
X23725000Y-2812300D02*
X23725000Y-3573100D01*
X17111100Y-5650800D02*
X17111100Y-6216600D01*
X51892900Y-13217500D02*
X47851200Y-13217500D01*
X18707800Y-4442200D02*
X20000000Y-3150000D01*
X64210000Y-25534600D02*
X51892900Y-13217500D01*
X59922300Y-30447700D02*
X51997700Y-30447700D01*
X23050000Y-29500000D02*
X23997700Y-30447700D01*
X44050000Y-30453300D02*
X38003300Y-30453300D01*
X51997700Y-30447700D02*
X51050000Y-29500000D01*
X15456500Y-6917200D02*
X14667400Y-6128100D01*
X34000000Y-3150000D02*
X34000000Y-4168200D01*
X26050000Y-2200000D02*
X27000000Y-3150000D01*
X44500000Y-3150000D02*
X43550000Y-2200000D01*
X50096700Y-30453300D02*
X44050000Y-30453300D01*
X34485400Y-4653600D02*
X34000000Y-4168200D01*
X27501700Y-8771100D02*
X27501700Y-3651700D01*
X57112900Y-9531500D02*
X57112900Y-12296900D01*
X33839900Y-4168200D02*
X34000000Y-4168200D01*
X14667400Y-6128100D02*
X14667400Y-4869000D01*
X20529300Y-6911700D02*
X19636000Y-6018400D01*
X42996400Y-4653600D02*
X34485400Y-4653600D01*
X33050000Y-2200000D02*
X31637500Y-2200000D01*
X24337300Y-2200000D02*
X23725000Y-2812300D01*
X24637500Y-2200000D02*
X24337300Y-2200000D01*
X24679100Y-6292900D02*
X24035900Y-6936100D01*
X31022400Y-10087400D02*
X28818000Y-10087400D01*
X24637500Y-2200000D02*
X26050000Y-2200000D01*
X21734900Y-6650800D02*
X21474000Y-6911700D01*
X59397800Y-7110000D02*
X58880400Y-7110000D01*
X32616000Y-5392100D02*
X33839900Y-4168200D01*
X60222600Y-6285200D02*
X59397800Y-7110000D01*
X19636000Y-6018400D02*
X19636000Y-5370500D01*
X16410500Y-6917200D02*
X15456500Y-6917200D01*
X57112900Y-12296900D02*
X56789500Y-12620300D01*
X18319700Y-4442200D02*
X17111100Y-5650800D01*
X57969800Y-8674600D02*
X57112900Y-9531500D01*
X23997700Y-30447700D02*
X36102300Y-30447700D01*
X21474000Y-6911700D02*
X20529300Y-6911700D01*
X24679100Y-4527200D02*
X24679100Y-6292900D01*
X19050000Y-2200000D02*
X17637500Y-2200000D01*
X32616000Y-8493800D02*
X32616000Y-5392100D01*
X18707800Y-4442200D02*
X18707700Y-4442200D01*
X23725000Y-3573100D02*
X24679100Y-4527200D01*
X64210000Y-26160000D02*
X64210000Y-25534600D01*
X51050000Y-29500000D02*
X50096700Y-30453300D01*
X43550000Y-2200000D02*
X42137500Y-2200000D01*
X17370600Y-7877300D02*
X17370600Y-10435600D01*
X44050000Y-30453300D02*
X44050000Y-29500000D01*
X44500000Y-3150000D02*
X58001800Y-3150000D01*
X22739700Y-6936100D02*
X22454400Y-6650800D01*
X57969800Y-8020600D02*
X57969800Y-8674600D01*
X22454400Y-6650800D02*
X21734900Y-6650800D01*
X20000000Y-3150000D02*
X19050000Y-2200000D01*
X46285000Y-11651300D02*
X46285000Y-11350000D01*
X36102300Y-30447700D02*
X37050000Y-29500000D01*
X17370600Y-10435600D02*
X18285000Y-11350000D01*
X56789500Y-12620300D02*
X52490100Y-12620300D01*
X58880400Y-7110000D02*
X57969800Y-8020600D01*
X24035900Y-6936100D02*
X22739700Y-6936100D01*
X52490100Y-12620300D02*
X51892900Y-13217500D01*
X31022400Y-10087400D02*
X32616000Y-8493800D01*
X58001800Y-3150000D02*
X60222600Y-5370800D01*
X18707700Y-4442200D02*
X18319700Y-4442200D01*
X44500000Y-3150000D02*
X42996400Y-4653600D01*
X17111100Y-6216600D02*
X16410500Y-6917200D01*
X27501700Y-3651700D02*
X27000000Y-3150000D01*
X47851200Y-13217500D02*
X46285000Y-11651300D01*
X12313500Y-1250000D02*
X12736300Y-1672800D01*
X16410500Y-6917200D02*
X17370600Y-7877300D01*
X9137500Y-1250000D02*
X12313500Y-1250000D01*
X28818000Y-10087400D02*
X27501700Y-8771100D01*
%TO.N,/F_LUM0*%
X30275000Y-3774100D02*
X28650000Y-5399100D01*
X29362500Y-1250000D02*
X29612900Y-1250000D01*
X30275000Y-1912100D02*
X30275000Y-3774100D01*
X28650000Y-5399100D02*
X28650000Y-5840000D01*
X29612900Y-1250000D02*
X30275000Y-1912100D01*
%TO.N,/F_COL*%
X28719400Y-3892100D02*
X29362500Y-3249000D01*
X29362500Y-3249000D02*
X29362500Y-3150000D01*
%TO.N,/TIA_COL*%
X32304300Y-7265700D02*
X31190000Y-8380000D01*
X32304300Y-3816800D02*
X32304300Y-7265700D01*
X31637500Y-3150000D02*
X32304300Y-3816800D01*
%TO.N,/TIA_LUM0*%
X29742400Y-4966800D02*
X30669700Y-4039500D01*
X30669700Y-1948500D02*
X31368200Y-1250000D01*
X29742400Y-7287600D02*
X29742400Y-4966800D01*
X28650000Y-8380000D02*
X29742400Y-7287600D01*
X31368200Y-1250000D02*
X31637500Y-1250000D01*
X30669700Y-4039500D02*
X30669700Y-1948500D01*
%TO.N,+5V*%
X11270000Y-13525000D02*
X11270000Y-13781100D01*
X55136000Y-25416000D02*
X55136000Y-26615900D01*
X9492300Y-24646700D02*
X5048600Y-20203000D01*
X55136000Y-26615900D02*
X54520200Y-27231700D01*
X9050000Y-29500000D02*
X9050000Y-27674000D01*
X5048600Y-18093600D02*
X8417200Y-14725000D01*
X54050000Y-24330000D02*
X55136000Y-25416000D01*
X54520200Y-27231700D02*
X9492300Y-27231700D01*
X15050000Y-29500000D02*
X14095000Y-30455000D01*
X9050000Y-27674000D02*
X9492300Y-27231700D01*
X9492300Y-27231700D02*
X9492300Y-24646700D01*
X10326100Y-14725000D02*
X8417200Y-14725000D01*
X7460000Y-13767800D02*
X7460000Y-13525000D01*
X6190000Y-13525000D02*
X7460000Y-13525000D01*
X8417200Y-14725000D02*
X7460000Y-13767800D01*
X10005000Y-30455000D02*
X9050000Y-29500000D01*
X11270000Y-13781100D02*
X10326100Y-14725000D01*
X14095000Y-30455000D02*
X10005000Y-30455000D01*
X5048600Y-20203000D02*
X5048600Y-18093600D01*
X54050000Y-23620000D02*
X54050000Y-24330000D01*
%TO.N,/F_OSC*%
X25905000Y-11350000D02*
X25521300Y-10966300D01*
X25521300Y-10966300D02*
X25521300Y-9891600D01*
%TO.N,/F_D0*%
X47555000Y-19458600D02*
X48932500Y-18081100D01*
X48932500Y-18081100D02*
X52214600Y-18081100D01*
X47555000Y-20650000D02*
X47555000Y-19458600D01*
%TO.N,/F_A1*%
X36095000Y-11350000D02*
X36095000Y-12811900D01*
%TO.N,/F_D3*%
X51365000Y-20650000D02*
X51365000Y-21649700D01*
X52635000Y-25035000D02*
X51510000Y-26160000D01*
X51365000Y-21649700D02*
X52635000Y-22919700D01*
X52635000Y-22919700D02*
X52635000Y-25035000D01*
%TO.N,/F_D4*%
X52946700Y-20961700D02*
X52635000Y-20650000D01*
X52946700Y-25056700D02*
X52946700Y-20961700D01*
X54050000Y-26160000D02*
X52946700Y-25056700D01*
%TO.N,/F_D6*%
X55175000Y-20650000D02*
X55142100Y-20682900D01*
X55142100Y-24712100D02*
X56590000Y-26160000D01*
X55142100Y-20682900D02*
X55142100Y-24712100D01*
%TO.N,/F_D7*%
X57860000Y-24890000D02*
X56285100Y-24890000D01*
X55474100Y-24079000D02*
X55474100Y-22503900D01*
X56445000Y-21533000D02*
X56445000Y-20650000D01*
X55474100Y-22503900D02*
X56445000Y-21533000D01*
X56285100Y-24890000D02*
X55474100Y-24079000D01*
X59130000Y-26160000D02*
X57860000Y-24890000D01*
%TO.N,/TIA_CS0_N*%
X19555000Y-20650000D02*
X19664000Y-20759000D01*
X50062000Y-25068000D02*
X51510000Y-23620000D01*
X19664000Y-20759000D02*
X19664000Y-23829000D01*
X19664000Y-23829000D02*
X20903000Y-25068000D01*
X20903000Y-25068000D02*
X50062000Y-25068000D01*
%TO.N,/TIA_CS3_N*%
X20825000Y-21620500D02*
X20825000Y-20650000D01*
X20385500Y-22060000D02*
X20825000Y-21620500D01*
%TO.N,/TIA_I4*%
X22095000Y-22555000D02*
X22095000Y-20650000D01*
X21030000Y-23620000D02*
X22095000Y-22555000D01*
%TO.N,/TIA_I5*%
X23570000Y-23620000D02*
X23365000Y-23415000D01*
X23365000Y-23415000D02*
X23365000Y-20650000D01*
%TO.N,/TIA_OSC*%
X26009100Y-18958600D02*
X24635000Y-20332700D01*
X35428500Y-12338400D02*
X28808300Y-18958600D01*
X28808300Y-18958600D02*
X26009100Y-18958600D01*
X24635000Y-20332700D02*
X24635000Y-20650000D01*
X35428500Y-9221500D02*
X35428500Y-12338400D01*
X36270000Y-8380000D02*
X35428500Y-9221500D01*
%TO.N,/F_I5*%
X24993600Y-6956400D02*
X26110000Y-5840000D01*
X24993600Y-10991400D02*
X24993600Y-6956400D01*
X24635000Y-11350000D02*
X24993600Y-10991400D01*
%TO.N,/F_I4*%
X23365000Y-11350000D02*
X23365000Y-10990900D01*
X19760000Y-8626400D02*
X19760000Y-7110000D01*
X19760000Y-7110000D02*
X18490000Y-5840000D01*
X23365000Y-10990900D02*
X21839600Y-9465500D01*
X20599100Y-9465500D02*
X19760000Y-8626400D01*
X21839600Y-9465500D02*
X20599100Y-9465500D01*
%TO.N,/F_AU1*%
X39862500Y-1250000D02*
X39716400Y-1103900D01*
X39716400Y-1103900D02*
X38757400Y-1103900D01*
%TO.N,/F_AU0*%
X39862500Y-3150000D02*
X40844400Y-4131900D01*
X40844400Y-4131900D02*
X42181900Y-4131900D01*
%TO.N,/TIA_AU0*%
X42885500Y-3898000D02*
X42913700Y-3898000D01*
X42137500Y-3150000D02*
X42885500Y-3898000D01*
%TO.N,/TIA_AU1*%
X42137500Y-1250000D02*
X43232600Y-1250000D01*
%TO.N,/F_RW*%
X45113400Y-7156600D02*
X43557700Y-7156600D01*
X46430000Y-5840000D02*
X45113400Y-7156600D01*
X42445000Y-8269300D02*
X42445000Y-11350000D01*
X42445000Y-16810000D02*
X42445000Y-11350000D01*
X43557700Y-7156600D02*
X42445000Y-8269300D01*
X46285000Y-20650000D02*
X42445000Y-16810000D01*
%TO.N,/F_D1*%
X48825000Y-19437800D02*
X48577300Y-19190100D01*
X48825000Y-20650000D02*
X48825000Y-19437800D01*
%TO.N,/F_D2*%
X50095000Y-20650000D02*
X50095000Y-19174700D01*
%TO.N,/F_D5*%
X53905000Y-19266400D02*
X53526900Y-18888300D01*
X53905000Y-20650000D02*
X53905000Y-19266400D01*
%TO.N,/TIA_D7*%
X56685700Y-13165000D02*
X57715000Y-12135700D01*
X52693600Y-13165000D02*
X56685700Y-13165000D01*
X57715000Y-12135700D02*
X57715000Y-11350000D01*
%TO.N,/TIA_D6*%
X56445000Y-10020800D02*
X56445000Y-11350000D01*
X56309000Y-9884800D02*
X56445000Y-10020800D01*
%TO.N,/TIA_D5*%
X55175000Y-9795000D02*
X55175000Y-11350000D01*
X56590000Y-8380000D02*
X55175000Y-9795000D01*
%TO.N,/TIA_D4*%
X54050000Y-8380000D02*
X53905000Y-8525000D01*
X53905000Y-8525000D02*
X53905000Y-11350000D01*
%TO.N,/TIA_D3*%
X51510000Y-8380000D02*
X52635000Y-9505000D01*
X52635000Y-9505000D02*
X52635000Y-11350000D01*
%TO.N,/TIA_D2*%
X51365000Y-10775000D02*
X51365000Y-11350000D01*
X48970000Y-8380000D02*
X51365000Y-10775000D01*
%TO.N,/TIA_D1*%
X50095000Y-11062400D02*
X50095000Y-11350000D01*
X46430000Y-8380000D02*
X47412600Y-8380000D01*
X47412600Y-8380000D02*
X50095000Y-11062400D01*
%TO.N,/TIA_D0*%
X47364500Y-9514600D02*
X45024600Y-9514600D01*
X48825000Y-10975100D02*
X47364500Y-9514600D01*
X48825000Y-11350000D02*
X48825000Y-10975100D01*
X45024600Y-9514600D02*
X43890000Y-8380000D01*
%TO.N,/F_BLK*%
X23258300Y-5528300D02*
X23570000Y-5840000D01*
X22362500Y-1250000D02*
X22628100Y-1250000D01*
X22628100Y-1250000D02*
X23258300Y-1880200D01*
X23258300Y-1880200D02*
X23258300Y-5528300D01*
%TO.N,/F_LUM2*%
X22362500Y-4507500D02*
X22362500Y-3150000D01*
X21030000Y-5840000D02*
X22362500Y-4507500D01*
%TO.N,/TIA_LUM2*%
X27190000Y-7300000D02*
X26110000Y-8380000D01*
X27190000Y-5336900D02*
X27190000Y-7300000D01*
X24637500Y-3150000D02*
X25003100Y-3150000D01*
X25003100Y-3150000D02*
X27190000Y-5336900D01*
%TO.N,/TIA_BLK*%
X24637500Y-1250000D02*
X24638100Y-1249400D01*
X24638100Y-1249400D02*
X25751800Y-1249400D01*
%TO.N,/F_PHI0*%
X6552300Y-19674100D02*
X5573300Y-19674100D01*
X7460000Y-18475000D02*
X7460000Y-18766400D01*
X7460000Y-18766400D02*
X6552300Y-19674100D01*
%TO.N,/F_RDY*%
X13090000Y-15506900D02*
X13090000Y-10802700D01*
X13090000Y-10802700D02*
X12030300Y-9743000D01*
X12030300Y-9743000D02*
X12030300Y-7000300D01*
X12030300Y-7000300D02*
X10870000Y-5840000D01*
X11270000Y-18475000D02*
X11270000Y-17326900D01*
X11270000Y-17326900D02*
X13090000Y-15506900D01*
%TO.N,/F_LUM1*%
X13410000Y-5102500D02*
X13410000Y-5840000D01*
X15362500Y-3150000D02*
X13410000Y-5102500D01*
%TO.N,/F_CSYNC*%
X15362500Y-1250000D02*
X15628100Y-1250000D01*
X16285400Y-1907300D02*
X16285400Y-5504600D01*
X16285400Y-5504600D02*
X15950000Y-5840000D01*
X15628100Y-1250000D02*
X16285400Y-1907300D01*
%TO.N,/F_A0*%
X33730000Y-5840000D02*
X34825000Y-6935000D01*
X34825000Y-6935000D02*
X34825000Y-11350000D01*
%TO.N,/F_A2*%
X37365000Y-6935000D02*
X37365000Y-11350000D01*
X36270000Y-5840000D02*
X37365000Y-6935000D01*
%TO.N,/F_A3*%
X38635000Y-10440700D02*
X37707500Y-9513200D01*
X37707500Y-6942500D02*
X38810000Y-5840000D01*
X37707500Y-9513200D02*
X37707500Y-6942500D01*
X38635000Y-11350000D02*
X38635000Y-10440700D01*
%TO.N,/F_A4*%
X41350000Y-5840000D02*
X39905000Y-7285000D01*
X39905000Y-7285000D02*
X39905000Y-11350000D01*
%TO.N,/F_A5*%
X41175000Y-10440700D02*
X40247500Y-9513200D01*
X40247500Y-7966900D02*
X41212800Y-7001600D01*
X41212800Y-7001600D02*
X41758300Y-7001600D01*
X43437100Y-4735500D02*
X58025500Y-4735500D01*
X40247500Y-9513200D02*
X40247500Y-7966900D01*
X42510300Y-5662300D02*
X43437100Y-4735500D01*
X58025500Y-4735500D02*
X59130000Y-5840000D01*
X41175000Y-11350000D02*
X41175000Y-10440700D01*
X42510300Y-6249600D02*
X42510300Y-5662300D01*
X41758300Y-7001600D02*
X42510300Y-6249600D01*
%TO.N,/TIA_PHI0*%
X8730000Y-19215700D02*
X9265900Y-19751600D01*
X8730000Y-18475000D02*
X8730000Y-19215700D01*
%TO.N,/TIA_RDY*%
X15950000Y-8380000D02*
X15950000Y-13625400D01*
X15950000Y-13625400D02*
X12540000Y-17035400D01*
X12540000Y-17035400D02*
X12540000Y-18475000D01*
%TO.N,/TIA_LUM1*%
X17637500Y-3150000D02*
X17637600Y-3150100D01*
X21030000Y-8380000D02*
X22207100Y-7202900D01*
X17637600Y-3150100D02*
X18819000Y-3150100D01*
%TO.N,/TIA_CSYNC*%
X16746100Y-1874700D02*
X16746100Y-3764000D01*
X17637500Y-1250000D02*
X17370800Y-1250000D01*
X17370800Y-1250000D02*
X16746100Y-1874700D01*
X16746100Y-3764000D02*
X16813200Y-3831100D01*
%TO.N,/TIA_A0*%
X31190000Y-23620000D02*
X33555000Y-21255000D01*
X33555000Y-21255000D02*
X33555000Y-20650000D01*
%TO.N,/TIA_A1*%
X33730000Y-23620000D02*
X34825000Y-22525000D01*
X34825000Y-22525000D02*
X34825000Y-20650000D01*
%TO.N,/TIA_A2*%
X36270000Y-23620000D02*
X36095000Y-23445000D01*
X36095000Y-23445000D02*
X36095000Y-20650000D01*
%TO.N,/TIA_A3*%
X38810000Y-23620000D02*
X37365000Y-22175000D01*
X37365000Y-22175000D02*
X37365000Y-20650000D01*
%TO.N,/TIA_A4*%
X41350000Y-23620000D02*
X41238100Y-23620000D01*
X41238100Y-23620000D02*
X38635000Y-21016900D01*
X38635000Y-21016900D02*
X38635000Y-20650000D01*
%TO.N,/TIA_A5*%
X39905000Y-20965500D02*
X41181500Y-22242000D01*
X41181500Y-22242000D02*
X42512000Y-22242000D01*
X39905000Y-20650000D02*
X39905000Y-20965500D01*
X42512000Y-22242000D02*
X43890000Y-23620000D01*
%TO.N,/TIA_RW*%
X45160000Y-23301500D02*
X44140900Y-22282400D01*
X48970000Y-23620000D02*
X47854000Y-24736000D01*
X47854000Y-24736000D02*
X45971000Y-24736000D01*
X45160000Y-23925000D02*
X45160000Y-23301500D01*
X41175000Y-20948700D02*
X41175000Y-20650000D01*
X42677100Y-21930300D02*
X42156600Y-21930300D01*
X44140900Y-22282400D02*
X43029200Y-22282400D01*
X42156600Y-21930300D02*
X41175000Y-20948700D01*
X43029200Y-22282400D02*
X42677100Y-21930300D01*
X45971000Y-24736000D02*
X45160000Y-23925000D01*
%TO.N,/TIA_PHI2*%
X43428100Y-21931800D02*
X44741800Y-21931800D01*
X42445000Y-20650000D02*
X42445000Y-20948700D01*
X44741800Y-21931800D02*
X46430000Y-23620000D01*
X42445000Y-20948700D02*
X43428100Y-21931800D01*
%TD*%
M02*
