%TF.GenerationSoftware,KiCad,Pcbnew,10.0.4*%
%TF.CreationDate,2026-09-11T23:24:11-03:00*%
%TF.ProjectId,tia-fpga,7469612d-6670-4676-912e-6b696361645f,rev?*%
%TF.SameCoordinates,Original*%
%TF.FileFunction,Drillmap*%
%TF.FilePolarity,Positive*%
%FSLAX45Y45*%
G04 Gerber Fmt 4.5, Leading zero omitted, Abs format (unit mm)*
G04 Created by KiCad (PCBNEW 10.0.4) date 2026-09-11 23:24:11*
%MOMM*%
%LPD*%
G01*
G04 APERTURE LIST*
%ADD10C,0.100000*%
%ADD11C,0.200000*%
G04 APERTURE END LIST*
D10*
X0Y0D02*
X7200000Y0D01*
X0Y-10000000D02*
X0Y0D01*
X7200000Y0D02*
X7200000Y-10000000D01*
X7200000Y-10000000D02*
X0Y-10000000D01*
D11*
D10*
X608040Y-5992500D02*
X638040Y-6022500D01*
X638040Y-5992500D02*
X608040Y-6022500D01*
X731150Y-8162500D02*
X761150Y-8192500D01*
X761150Y-8162500D02*
X731150Y-8192500D01*
X760020Y-6301870D02*
X790020Y-6331870D01*
X790020Y-6301870D02*
X760020Y-6331870D01*
X767910Y-5524940D02*
X797910Y-5554940D01*
X797910Y-5524940D02*
X767910Y-5554940D01*
X817690Y-8057630D02*
X847690Y-8087630D01*
X847690Y-8057630D02*
X817690Y-8087630D01*
X933960Y-6194770D02*
X963960Y-6224770D01*
X963960Y-6194770D02*
X933960Y-6224770D01*
X1070400Y-5244090D02*
X1100400Y-5274090D01*
X1100400Y-5244090D02*
X1070400Y-5274090D01*
X1112280Y-5716570D02*
X1142280Y-5746570D01*
X1142280Y-5716570D02*
X1112280Y-5746570D01*
X1144930Y-5301830D02*
X1174930Y-5331830D01*
X1174930Y-5301830D02*
X1144930Y-5331830D01*
X1230530Y-1719030D02*
X1260530Y-1749030D01*
X1260530Y-1719030D02*
X1230530Y-1749030D01*
X1246640Y-5716570D02*
X1276640Y-5746570D01*
X1276640Y-5716570D02*
X1246640Y-5746570D01*
X1261680Y-6518190D02*
X1291680Y-6548190D01*
X1291680Y-6518190D02*
X1261680Y-6548190D01*
X1269830Y-4768650D02*
X1299830Y-4798650D01*
X1299830Y-4768650D02*
X1269830Y-4798650D01*
X1320730Y-5110230D02*
X1350730Y-5140230D01*
X1350730Y-5110230D02*
X1320730Y-5140230D01*
X1646280Y-5107610D02*
X1676280Y-5137610D01*
X1676280Y-5107610D02*
X1646280Y-5137610D01*
X1699520Y-4836370D02*
X1729520Y-4866370D01*
X1729520Y-4836370D02*
X1699520Y-4866370D01*
X1703000Y-4911550D02*
X1733000Y-4941550D01*
X1733000Y-4911550D02*
X1703000Y-4941550D01*
X1716070Y-5067680D02*
X1746070Y-5097680D01*
X1746070Y-5067680D02*
X1716070Y-5097680D01*
X2001960Y-4741140D02*
X2031960Y-4771140D01*
X2031960Y-4741140D02*
X2001960Y-4771140D01*
X2040290Y-4892780D02*
X2070290Y-4922780D01*
X2070290Y-4892780D02*
X2040290Y-4922780D01*
X2056380Y-3825180D02*
X2086380Y-3855180D01*
X2086380Y-3825180D02*
X2056380Y-3855180D01*
X2167670Y-4992480D02*
X2197670Y-5022480D01*
X2197670Y-4992480D02*
X2167670Y-5022480D01*
X2283030Y-5016910D02*
X2313030Y-5046910D01*
X2313030Y-5016910D02*
X2283030Y-5046910D01*
X2345440Y-3540970D02*
X2375440Y-3570970D01*
X2375440Y-3540970D02*
X2345440Y-3570970D01*
X2457830Y-4872770D02*
X2487830Y-4902770D01*
X2487830Y-4872770D02*
X2457830Y-4902770D01*
X2479170Y-4266310D02*
X2509170Y-4296310D01*
X2509170Y-4266310D02*
X2479170Y-4296310D01*
X2565090Y-4103550D02*
X2595090Y-4133550D01*
X2595090Y-4103550D02*
X2565090Y-4133550D01*
X2581730Y-4748860D02*
X2611730Y-4778860D01*
X2611730Y-4748860D02*
X2581730Y-4778860D01*
X2597640Y-6412760D02*
X2627640Y-6442760D01*
X2627640Y-6412760D02*
X2597640Y-6442760D01*
X2672820Y-6409230D02*
X2702820Y-6439230D01*
X2702820Y-6409230D02*
X2672820Y-6439230D01*
X2808860Y-1160270D02*
X2838860Y-1190270D01*
X2838860Y-1160270D02*
X2808860Y-1190270D01*
X2844820Y-1258690D02*
X2874820Y-1288690D01*
X2874820Y-1258690D02*
X2844820Y-1288690D01*
X2854950Y-6900450D02*
X2884950Y-6930450D01*
X2884950Y-6900450D02*
X2854950Y-6930450D01*
X2867620Y-3478440D02*
X2897620Y-3508440D01*
X2897620Y-3478440D02*
X2867620Y-3508440D01*
X2931890Y-6887310D02*
X2961890Y-6917310D01*
X2961890Y-6887310D02*
X2931890Y-6917310D01*
X3056400Y-3165650D02*
X3086400Y-3195650D01*
X3086400Y-3165650D02*
X3056400Y-3195650D01*
X3120000Y-4535650D02*
X3150000Y-4565650D01*
X3150000Y-4535650D02*
X3120000Y-4565650D01*
X3180830Y-3897920D02*
X3210830Y-3927920D01*
X3210830Y-3897920D02*
X3180830Y-3927920D01*
X3202260Y-2846930D02*
X3232260Y-2876930D01*
X3232260Y-2846930D02*
X3202260Y-2876930D01*
X3625280Y-3274080D02*
X3655280Y-3304080D01*
X3655280Y-3274080D02*
X3625280Y-3304080D01*
X3633820Y-2771160D02*
X3663820Y-2801160D01*
X3663820Y-2771160D02*
X3633820Y-2801160D01*
X3712780Y-2787870D02*
X3742780Y-2817870D01*
X3742780Y-2787870D02*
X3712780Y-2817870D01*
X3735730Y-6009220D02*
X3765730Y-6039220D01*
X3765730Y-6009220D02*
X3735730Y-6039220D01*
X3775900Y-6250760D02*
X3805900Y-6280760D01*
X3805900Y-6250760D02*
X3775900Y-6280760D01*
X3853330Y-3311030D02*
X3883330Y-3341030D01*
X3883330Y-3311030D02*
X3853330Y-3341030D01*
X3892790Y-6363640D02*
X3922790Y-6393640D01*
X3922790Y-6363640D02*
X3892790Y-6393640D01*
X3956240Y-7070020D02*
X3986240Y-7100020D01*
X3986240Y-7070020D02*
X3956240Y-7100020D01*
X4178740Y-5566290D02*
X4208740Y-5596290D01*
X4208740Y-5566290D02*
X4178740Y-5596290D01*
X4237140Y-5710820D02*
X4267140Y-5740820D01*
X4267140Y-5710820D02*
X4237140Y-5740820D01*
X5309580Y-4517480D02*
X5339580Y-4547480D01*
X5339580Y-4517480D02*
X5309580Y-4547480D01*
X5594570Y-4218000D02*
X5624570Y-4248000D01*
X5624570Y-4218000D02*
X5594570Y-4248000D01*
X6099710Y-5099920D02*
X6129710Y-5129920D01*
X6129710Y-5099920D02*
X6099710Y-5129920D01*
X6100660Y-5262960D02*
X6130660Y-5292960D01*
X6130660Y-5262960D02*
X6100660Y-5292960D01*
X6101730Y-4851340D02*
X6131730Y-4881340D01*
X6131730Y-4851340D02*
X6101730Y-4881340D01*
X6111210Y-5424400D02*
X6141210Y-5454400D01*
X6141210Y-5424400D02*
X6111210Y-5454400D01*
X6120140Y-5179660D02*
X6150140Y-5209660D01*
X6150140Y-5179660D02*
X6120140Y-5209660D01*
X6293750Y-3339520D02*
X6323750Y-3369520D01*
X6323750Y-3339520D02*
X6293750Y-3369520D01*
X1175610Y-7402220D02*
G75*
G02*
X1135610Y-7402220I-20000J0D01*
G01*
X1135610Y-7402220D02*
G75*
G02*
X1175610Y-7402220I20000J0D01*
G01*
X3645380Y-6042000D02*
G75*
G02*
X3605380Y-6042000I-20000J0D01*
G01*
X3605380Y-6042000D02*
G75*
G02*
X3645380Y-6042000I20000J0D01*
G01*
X4349190Y-4815420D02*
G75*
G02*
X4309190Y-4815420I-20000J0D01*
G01*
X4309190Y-4815420D02*
G75*
G02*
X4349190Y-4815420I20000J0D01*
G01*
X5477820Y-7054990D02*
G75*
G02*
X5437820Y-7054990I-20000J0D01*
G01*
X5437820Y-7054990D02*
G75*
G02*
X5477820Y-7054990I20000J0D01*
G01*
X679000Y-950000D02*
X679000Y-1050000D01*
X629000Y-1000000D02*
X729000Y-1000000D01*
X679000Y-2982000D02*
X679000Y-3082000D01*
X629000Y-3032000D02*
X729000Y-3032000D01*
X933000Y-950000D02*
X933000Y-1050000D01*
X883000Y-1000000D02*
X983000Y-1000000D01*
X933000Y-2982000D02*
X933000Y-3082000D01*
X883000Y-3032000D02*
X983000Y-3032000D01*
X1187000Y-950000D02*
X1187000Y-1050000D01*
X1137000Y-1000000D02*
X1237000Y-1000000D01*
X1187000Y-2982000D02*
X1187000Y-3082000D01*
X1137000Y-3032000D02*
X1237000Y-3032000D01*
X1187000Y-7950000D02*
X1187000Y-8050000D01*
X1137000Y-8000000D02*
X1237000Y-8000000D01*
X1187000Y-9474000D02*
X1187000Y-9574000D01*
X1137000Y-9524000D02*
X1237000Y-9524000D01*
X1441000Y-950000D02*
X1441000Y-1050000D01*
X1391000Y-1000000D02*
X1491000Y-1000000D01*
X1441000Y-2982000D02*
X1441000Y-3082000D01*
X1391000Y-3032000D02*
X1491000Y-3032000D01*
X1441000Y-7950000D02*
X1441000Y-8050000D01*
X1391000Y-8000000D02*
X1491000Y-8000000D01*
X1441000Y-9474000D02*
X1441000Y-9574000D01*
X1391000Y-9524000D02*
X1491000Y-9524000D01*
X1695000Y-950000D02*
X1695000Y-1050000D01*
X1645000Y-1000000D02*
X1745000Y-1000000D01*
X1695000Y-2982000D02*
X1695000Y-3082000D01*
X1645000Y-3032000D02*
X1745000Y-3032000D01*
X1695000Y-7950000D02*
X1695000Y-8050000D01*
X1645000Y-8000000D02*
X1745000Y-8000000D01*
X1695000Y-9474000D02*
X1695000Y-9574000D01*
X1645000Y-9524000D02*
X1745000Y-9524000D01*
X1949000Y-950000D02*
X1949000Y-1050000D01*
X1899000Y-1000000D02*
X1999000Y-1000000D01*
X1949000Y-2982000D02*
X1949000Y-3082000D01*
X1899000Y-3032000D02*
X1999000Y-3032000D01*
X1949000Y-7950000D02*
X1949000Y-8050000D01*
X1899000Y-8000000D02*
X1999000Y-8000000D01*
X1949000Y-9474000D02*
X1949000Y-9574000D01*
X1899000Y-9524000D02*
X1999000Y-9524000D01*
X2203000Y-950000D02*
X2203000Y-1050000D01*
X2153000Y-1000000D02*
X2253000Y-1000000D01*
X2203000Y-2982000D02*
X2203000Y-3082000D01*
X2153000Y-3032000D02*
X2253000Y-3032000D01*
X2203000Y-7950000D02*
X2203000Y-8050000D01*
X2153000Y-8000000D02*
X2253000Y-8000000D01*
X2203000Y-9474000D02*
X2203000Y-9574000D01*
X2153000Y-9524000D02*
X2253000Y-9524000D01*
X2457000Y-950000D02*
X2457000Y-1050000D01*
X2407000Y-1000000D02*
X2507000Y-1000000D01*
X2457000Y-2982000D02*
X2457000Y-3082000D01*
X2407000Y-3032000D02*
X2507000Y-3032000D01*
X2457000Y-7950000D02*
X2457000Y-8050000D01*
X2407000Y-8000000D02*
X2507000Y-8000000D01*
X2457000Y-9474000D02*
X2457000Y-9574000D01*
X2407000Y-9524000D02*
X2507000Y-9524000D01*
X2711000Y-950000D02*
X2711000Y-1050000D01*
X2661000Y-1000000D02*
X2761000Y-1000000D01*
X2711000Y-2982000D02*
X2711000Y-3082000D01*
X2661000Y-3032000D02*
X2761000Y-3032000D01*
X2711000Y-7950000D02*
X2711000Y-8050000D01*
X2661000Y-8000000D02*
X2761000Y-8000000D01*
X2711000Y-9474000D02*
X2711000Y-9574000D01*
X2661000Y-9524000D02*
X2761000Y-9524000D01*
X2965000Y-950000D02*
X2965000Y-1050000D01*
X2915000Y-1000000D02*
X3015000Y-1000000D01*
X2965000Y-2982000D02*
X2965000Y-3082000D01*
X2915000Y-3032000D02*
X3015000Y-3032000D01*
X2965000Y-7950000D02*
X2965000Y-8050000D01*
X2915000Y-8000000D02*
X3015000Y-8000000D01*
X2965000Y-9474000D02*
X2965000Y-9574000D01*
X2915000Y-9524000D02*
X3015000Y-9524000D01*
X3219000Y-950000D02*
X3219000Y-1050000D01*
X3169000Y-1000000D02*
X3269000Y-1000000D01*
X3219000Y-2982000D02*
X3219000Y-3082000D01*
X3169000Y-3032000D02*
X3269000Y-3032000D01*
X3219000Y-7950000D02*
X3219000Y-8050000D01*
X3169000Y-8000000D02*
X3269000Y-8000000D01*
X3219000Y-9474000D02*
X3219000Y-9574000D01*
X3169000Y-9524000D02*
X3269000Y-9524000D01*
X3473000Y-950000D02*
X3473000Y-1050000D01*
X3423000Y-1000000D02*
X3523000Y-1000000D01*
X3473000Y-2982000D02*
X3473000Y-3082000D01*
X3423000Y-3032000D02*
X3523000Y-3032000D01*
X3473000Y-7950000D02*
X3473000Y-8050000D01*
X3423000Y-8000000D02*
X3523000Y-8000000D01*
X3473000Y-9474000D02*
X3473000Y-9574000D01*
X3423000Y-9524000D02*
X3523000Y-9524000D01*
X3727000Y-950000D02*
X3727000Y-1050000D01*
X3677000Y-1000000D02*
X3777000Y-1000000D01*
X3727000Y-2982000D02*
X3727000Y-3082000D01*
X3677000Y-3032000D02*
X3777000Y-3032000D01*
X3727000Y-7950000D02*
X3727000Y-8050000D01*
X3677000Y-8000000D02*
X3777000Y-8000000D01*
X3727000Y-9474000D02*
X3727000Y-9574000D01*
X3677000Y-9524000D02*
X3777000Y-9524000D01*
X3981000Y-950000D02*
X3981000Y-1050000D01*
X3931000Y-1000000D02*
X4031000Y-1000000D01*
X3981000Y-2982000D02*
X3981000Y-3082000D01*
X3931000Y-3032000D02*
X4031000Y-3032000D01*
X3981000Y-7950000D02*
X3981000Y-8050000D01*
X3931000Y-8000000D02*
X4031000Y-8000000D01*
X3981000Y-9474000D02*
X3981000Y-9574000D01*
X3931000Y-9524000D02*
X4031000Y-9524000D01*
X4235000Y-950000D02*
X4235000Y-1050000D01*
X4185000Y-1000000D02*
X4285000Y-1000000D01*
X4235000Y-2982000D02*
X4235000Y-3082000D01*
X4185000Y-3032000D02*
X4285000Y-3032000D01*
X4235000Y-7950000D02*
X4235000Y-8050000D01*
X4185000Y-8000000D02*
X4285000Y-8000000D01*
X4235000Y-9474000D02*
X4235000Y-9574000D01*
X4185000Y-9524000D02*
X4285000Y-9524000D01*
X4489000Y-950000D02*
X4489000Y-1050000D01*
X4439000Y-1000000D02*
X4539000Y-1000000D01*
X4489000Y-2982000D02*
X4489000Y-3082000D01*
X4439000Y-3032000D02*
X4539000Y-3032000D01*
X4489000Y-7950000D02*
X4489000Y-8050000D01*
X4439000Y-8000000D02*
X4539000Y-8000000D01*
X4489000Y-9474000D02*
X4489000Y-9574000D01*
X4439000Y-9524000D02*
X4539000Y-9524000D01*
X4743000Y-950000D02*
X4743000Y-1050000D01*
X4693000Y-1000000D02*
X4793000Y-1000000D01*
X4743000Y-2982000D02*
X4743000Y-3082000D01*
X4693000Y-3032000D02*
X4793000Y-3032000D01*
X4743000Y-7950000D02*
X4743000Y-8050000D01*
X4693000Y-8000000D02*
X4793000Y-8000000D01*
X4743000Y-9474000D02*
X4743000Y-9574000D01*
X4693000Y-9524000D02*
X4793000Y-9524000D01*
X4997000Y-950000D02*
X4997000Y-1050000D01*
X4947000Y-1000000D02*
X5047000Y-1000000D01*
X4997000Y-2982000D02*
X4997000Y-3082000D01*
X4947000Y-3032000D02*
X5047000Y-3032000D01*
X4997000Y-7950000D02*
X4997000Y-8050000D01*
X4947000Y-8000000D02*
X5047000Y-8000000D01*
X4997000Y-9474000D02*
X4997000Y-9574000D01*
X4947000Y-9524000D02*
X5047000Y-9524000D01*
X5251000Y-950000D02*
X5251000Y-1050000D01*
X5201000Y-1000000D02*
X5301000Y-1000000D01*
X5251000Y-2982000D02*
X5251000Y-3082000D01*
X5201000Y-3032000D02*
X5301000Y-3032000D01*
X5251000Y-7950000D02*
X5251000Y-8050000D01*
X5201000Y-8000000D02*
X5301000Y-8000000D01*
X5251000Y-9474000D02*
X5251000Y-9574000D01*
X5201000Y-9524000D02*
X5301000Y-9524000D01*
X5505000Y-950000D02*
X5505000Y-1050000D01*
X5455000Y-1000000D02*
X5555000Y-1000000D01*
X5505000Y-2982000D02*
X5505000Y-3082000D01*
X5455000Y-3032000D02*
X5555000Y-3032000D01*
X5505000Y-7950000D02*
X5505000Y-8050000D01*
X5455000Y-8000000D02*
X5555000Y-8000000D01*
X5505000Y-9474000D02*
X5505000Y-9574000D01*
X5455000Y-9524000D02*
X5555000Y-9524000D01*
X5759000Y-950000D02*
X5759000Y-1050000D01*
X5709000Y-1000000D02*
X5809000Y-1000000D01*
X5759000Y-2982000D02*
X5759000Y-3082000D01*
X5709000Y-3032000D02*
X5809000Y-3032000D01*
X5759000Y-7950000D02*
X5759000Y-8050000D01*
X5709000Y-8000000D02*
X5809000Y-8000000D01*
X5759000Y-9474000D02*
X5759000Y-9574000D01*
X5709000Y-9524000D02*
X5809000Y-9524000D01*
X6013000Y-950000D02*
X6013000Y-1050000D01*
X5963000Y-1000000D02*
X6063000Y-1000000D01*
X6013000Y-2982000D02*
X6013000Y-3082000D01*
X5963000Y-3032000D02*
X6063000Y-3032000D01*
X6013000Y-7950000D02*
X6013000Y-8050000D01*
X5963000Y-8000000D02*
X6063000Y-8000000D01*
X6013000Y-9474000D02*
X6013000Y-9574000D01*
X5963000Y-9524000D02*
X6063000Y-9524000D01*
X6267000Y-950000D02*
X6267000Y-1050000D01*
X6217000Y-1000000D02*
X6317000Y-1000000D01*
X6267000Y-2982000D02*
X6267000Y-3082000D01*
X6217000Y-3032000D02*
X6317000Y-3032000D01*
X6521000Y-950000D02*
X6521000Y-1050000D01*
X6471000Y-1000000D02*
X6571000Y-1000000D01*
X6521000Y-2982000D02*
X6521000Y-3082000D01*
X6471000Y-3032000D02*
X6571000Y-3032000D01*
D11*
X255777Y-10316484D02*
X255777Y-10116484D01*
X255777Y-10116484D02*
X303396Y-10116484D01*
X303396Y-10116484D02*
X331967Y-10126008D01*
X331967Y-10126008D02*
X351015Y-10145055D01*
X351015Y-10145055D02*
X360539Y-10164103D01*
X360539Y-10164103D02*
X370062Y-10202198D01*
X370062Y-10202198D02*
X370062Y-10230770D01*
X370062Y-10230770D02*
X360539Y-10268865D01*
X360539Y-10268865D02*
X351015Y-10287912D01*
X351015Y-10287912D02*
X331967Y-10306960D01*
X331967Y-10306960D02*
X303396Y-10316484D01*
X303396Y-10316484D02*
X255777Y-10316484D01*
X455777Y-10316484D02*
X455777Y-10183150D01*
X455777Y-10221246D02*
X465301Y-10202198D01*
X465301Y-10202198D02*
X474824Y-10192674D01*
X474824Y-10192674D02*
X493872Y-10183150D01*
X493872Y-10183150D02*
X512920Y-10183150D01*
X579586Y-10316484D02*
X579586Y-10183150D01*
X579586Y-10116484D02*
X570063Y-10126008D01*
X570063Y-10126008D02*
X579586Y-10135531D01*
X579586Y-10135531D02*
X589110Y-10126008D01*
X589110Y-10126008D02*
X579586Y-10116484D01*
X579586Y-10116484D02*
X579586Y-10135531D01*
X703396Y-10316484D02*
X684348Y-10306960D01*
X684348Y-10306960D02*
X674824Y-10287912D01*
X674824Y-10287912D02*
X674824Y-10116484D01*
X808158Y-10316484D02*
X789110Y-10306960D01*
X789110Y-10306960D02*
X779586Y-10287912D01*
X779586Y-10287912D02*
X779586Y-10116484D01*
X1036729Y-10316484D02*
X1036729Y-10116484D01*
X1036729Y-10116484D02*
X1103396Y-10259341D01*
X1103396Y-10259341D02*
X1170063Y-10116484D01*
X1170063Y-10116484D02*
X1170063Y-10316484D01*
X1351015Y-10316484D02*
X1351015Y-10211722D01*
X1351015Y-10211722D02*
X1341491Y-10192674D01*
X1341491Y-10192674D02*
X1322444Y-10183150D01*
X1322444Y-10183150D02*
X1284348Y-10183150D01*
X1284348Y-10183150D02*
X1265301Y-10192674D01*
X1351015Y-10306960D02*
X1331967Y-10316484D01*
X1331967Y-10316484D02*
X1284348Y-10316484D01*
X1284348Y-10316484D02*
X1265301Y-10306960D01*
X1265301Y-10306960D02*
X1255777Y-10287912D01*
X1255777Y-10287912D02*
X1255777Y-10268865D01*
X1255777Y-10268865D02*
X1265301Y-10249817D01*
X1265301Y-10249817D02*
X1284348Y-10240293D01*
X1284348Y-10240293D02*
X1331967Y-10240293D01*
X1331967Y-10240293D02*
X1351015Y-10230770D01*
X1446253Y-10183150D02*
X1446253Y-10383150D01*
X1446253Y-10192674D02*
X1465301Y-10183150D01*
X1465301Y-10183150D02*
X1503396Y-10183150D01*
X1503396Y-10183150D02*
X1522443Y-10192674D01*
X1522443Y-10192674D02*
X1531967Y-10202198D01*
X1531967Y-10202198D02*
X1541491Y-10221246D01*
X1541491Y-10221246D02*
X1541491Y-10278389D01*
X1541491Y-10278389D02*
X1531967Y-10297436D01*
X1531967Y-10297436D02*
X1522443Y-10306960D01*
X1522443Y-10306960D02*
X1503396Y-10316484D01*
X1503396Y-10316484D02*
X1465301Y-10316484D01*
X1465301Y-10316484D02*
X1446253Y-10306960D01*
X1627205Y-10297436D02*
X1636729Y-10306960D01*
X1636729Y-10306960D02*
X1627205Y-10316484D01*
X1627205Y-10316484D02*
X1617682Y-10306960D01*
X1617682Y-10306960D02*
X1627205Y-10297436D01*
X1627205Y-10297436D02*
X1627205Y-10316484D01*
X1627205Y-10192674D02*
X1636729Y-10202198D01*
X1636729Y-10202198D02*
X1627205Y-10211722D01*
X1627205Y-10211722D02*
X1617682Y-10202198D01*
X1617682Y-10202198D02*
X1627205Y-10192674D01*
X1627205Y-10192674D02*
X1627205Y-10211722D01*
D10*
X-35000Y-10630000D02*
X-5000Y-10660000D01*
X-5000Y-10630000D02*
X-35000Y-10660000D01*
D11*
X293872Y-10536484D02*
X312920Y-10536484D01*
X312920Y-10536484D02*
X331967Y-10546008D01*
X331967Y-10546008D02*
X341491Y-10555531D01*
X341491Y-10555531D02*
X351015Y-10574579D01*
X351015Y-10574579D02*
X360539Y-10612674D01*
X360539Y-10612674D02*
X360539Y-10660293D01*
X360539Y-10660293D02*
X351015Y-10698389D01*
X351015Y-10698389D02*
X341491Y-10717436D01*
X341491Y-10717436D02*
X331967Y-10726960D01*
X331967Y-10726960D02*
X312920Y-10736484D01*
X312920Y-10736484D02*
X293872Y-10736484D01*
X293872Y-10736484D02*
X274824Y-10726960D01*
X274824Y-10726960D02*
X265301Y-10717436D01*
X265301Y-10717436D02*
X255777Y-10698389D01*
X255777Y-10698389D02*
X246253Y-10660293D01*
X246253Y-10660293D02*
X246253Y-10612674D01*
X246253Y-10612674D02*
X255777Y-10574579D01*
X255777Y-10574579D02*
X265301Y-10555531D01*
X265301Y-10555531D02*
X274824Y-10546008D01*
X274824Y-10546008D02*
X293872Y-10536484D01*
X455777Y-10726960D02*
X455777Y-10736484D01*
X455777Y-10736484D02*
X446253Y-10755531D01*
X446253Y-10755531D02*
X436729Y-10765055D01*
X522443Y-10536484D02*
X646253Y-10536484D01*
X646253Y-10536484D02*
X579586Y-10612674D01*
X579586Y-10612674D02*
X608158Y-10612674D01*
X608158Y-10612674D02*
X627205Y-10622198D01*
X627205Y-10622198D02*
X636729Y-10631722D01*
X636729Y-10631722D02*
X646253Y-10650770D01*
X646253Y-10650770D02*
X646253Y-10698389D01*
X646253Y-10698389D02*
X636729Y-10717436D01*
X636729Y-10717436D02*
X627205Y-10726960D01*
X627205Y-10726960D02*
X608158Y-10736484D01*
X608158Y-10736484D02*
X551015Y-10736484D01*
X551015Y-10736484D02*
X531967Y-10726960D01*
X531967Y-10726960D02*
X522443Y-10717436D01*
X770062Y-10536484D02*
X789110Y-10536484D01*
X789110Y-10536484D02*
X808158Y-10546008D01*
X808158Y-10546008D02*
X817682Y-10555531D01*
X817682Y-10555531D02*
X827205Y-10574579D01*
X827205Y-10574579D02*
X836729Y-10612674D01*
X836729Y-10612674D02*
X836729Y-10660293D01*
X836729Y-10660293D02*
X827205Y-10698389D01*
X827205Y-10698389D02*
X817682Y-10717436D01*
X817682Y-10717436D02*
X808158Y-10726960D01*
X808158Y-10726960D02*
X789110Y-10736484D01*
X789110Y-10736484D02*
X770062Y-10736484D01*
X770062Y-10736484D02*
X751015Y-10726960D01*
X751015Y-10726960D02*
X741491Y-10717436D01*
X741491Y-10717436D02*
X731967Y-10698389D01*
X731967Y-10698389D02*
X722443Y-10660293D01*
X722443Y-10660293D02*
X722443Y-10612674D01*
X722443Y-10612674D02*
X731967Y-10574579D01*
X731967Y-10574579D02*
X741491Y-10555531D01*
X741491Y-10555531D02*
X751015Y-10546008D01*
X751015Y-10546008D02*
X770062Y-10536484D01*
X960539Y-10536484D02*
X979586Y-10536484D01*
X979586Y-10536484D02*
X998634Y-10546008D01*
X998634Y-10546008D02*
X1008158Y-10555531D01*
X1008158Y-10555531D02*
X1017682Y-10574579D01*
X1017682Y-10574579D02*
X1027205Y-10612674D01*
X1027205Y-10612674D02*
X1027205Y-10660293D01*
X1027205Y-10660293D02*
X1017682Y-10698389D01*
X1017682Y-10698389D02*
X1008158Y-10717436D01*
X1008158Y-10717436D02*
X998634Y-10726960D01*
X998634Y-10726960D02*
X979586Y-10736484D01*
X979586Y-10736484D02*
X960539Y-10736484D01*
X960539Y-10736484D02*
X941491Y-10726960D01*
X941491Y-10726960D02*
X931967Y-10717436D01*
X931967Y-10717436D02*
X922443Y-10698389D01*
X922443Y-10698389D02*
X912920Y-10660293D01*
X912920Y-10660293D02*
X912920Y-10612674D01*
X912920Y-10612674D02*
X922443Y-10574579D01*
X922443Y-10574579D02*
X931967Y-10555531D01*
X931967Y-10555531D02*
X941491Y-10546008D01*
X941491Y-10546008D02*
X960539Y-10536484D01*
X1112920Y-10736484D02*
X1112920Y-10603150D01*
X1112920Y-10622198D02*
X1122444Y-10612674D01*
X1122444Y-10612674D02*
X1141491Y-10603150D01*
X1141491Y-10603150D02*
X1170063Y-10603150D01*
X1170063Y-10603150D02*
X1189110Y-10612674D01*
X1189110Y-10612674D02*
X1198634Y-10631722D01*
X1198634Y-10631722D02*
X1198634Y-10736484D01*
X1198634Y-10631722D02*
X1208158Y-10612674D01*
X1208158Y-10612674D02*
X1227205Y-10603150D01*
X1227205Y-10603150D02*
X1255777Y-10603150D01*
X1255777Y-10603150D02*
X1274825Y-10612674D01*
X1274825Y-10612674D02*
X1284348Y-10631722D01*
X1284348Y-10631722D02*
X1284348Y-10736484D01*
X1379586Y-10736484D02*
X1379586Y-10603150D01*
X1379586Y-10622198D02*
X1389110Y-10612674D01*
X1389110Y-10612674D02*
X1408158Y-10603150D01*
X1408158Y-10603150D02*
X1436729Y-10603150D01*
X1436729Y-10603150D02*
X1455777Y-10612674D01*
X1455777Y-10612674D02*
X1465301Y-10631722D01*
X1465301Y-10631722D02*
X1465301Y-10736484D01*
X1465301Y-10631722D02*
X1474824Y-10612674D01*
X1474824Y-10612674D02*
X1493872Y-10603150D01*
X1493872Y-10603150D02*
X1522443Y-10603150D01*
X1522443Y-10603150D02*
X1541491Y-10612674D01*
X1541491Y-10612674D02*
X1551015Y-10631722D01*
X1551015Y-10631722D02*
X1551015Y-10736484D01*
X1941491Y-10526960D02*
X1770063Y-10784103D01*
X2198634Y-10536484D02*
X2217682Y-10536484D01*
X2217682Y-10536484D02*
X2236729Y-10546008D01*
X2236729Y-10546008D02*
X2246253Y-10555531D01*
X2246253Y-10555531D02*
X2255777Y-10574579D01*
X2255777Y-10574579D02*
X2265301Y-10612674D01*
X2265301Y-10612674D02*
X2265301Y-10660293D01*
X2265301Y-10660293D02*
X2255777Y-10698389D01*
X2255777Y-10698389D02*
X2246253Y-10717436D01*
X2246253Y-10717436D02*
X2236729Y-10726960D01*
X2236729Y-10726960D02*
X2217682Y-10736484D01*
X2217682Y-10736484D02*
X2198634Y-10736484D01*
X2198634Y-10736484D02*
X2179587Y-10726960D01*
X2179587Y-10726960D02*
X2170063Y-10717436D01*
X2170063Y-10717436D02*
X2160539Y-10698389D01*
X2160539Y-10698389D02*
X2151015Y-10660293D01*
X2151015Y-10660293D02*
X2151015Y-10612674D01*
X2151015Y-10612674D02*
X2160539Y-10574579D01*
X2160539Y-10574579D02*
X2170063Y-10555531D01*
X2170063Y-10555531D02*
X2179587Y-10546008D01*
X2179587Y-10546008D02*
X2198634Y-10536484D01*
X2360539Y-10726960D02*
X2360539Y-10736484D01*
X2360539Y-10736484D02*
X2351015Y-10755531D01*
X2351015Y-10755531D02*
X2341491Y-10765055D01*
X2484348Y-10536484D02*
X2503396Y-10536484D01*
X2503396Y-10536484D02*
X2522444Y-10546008D01*
X2522444Y-10546008D02*
X2531968Y-10555531D01*
X2531968Y-10555531D02*
X2541491Y-10574579D01*
X2541491Y-10574579D02*
X2551015Y-10612674D01*
X2551015Y-10612674D02*
X2551015Y-10660293D01*
X2551015Y-10660293D02*
X2541491Y-10698389D01*
X2541491Y-10698389D02*
X2531968Y-10717436D01*
X2531968Y-10717436D02*
X2522444Y-10726960D01*
X2522444Y-10726960D02*
X2503396Y-10736484D01*
X2503396Y-10736484D02*
X2484348Y-10736484D01*
X2484348Y-10736484D02*
X2465301Y-10726960D01*
X2465301Y-10726960D02*
X2455777Y-10717436D01*
X2455777Y-10717436D02*
X2446253Y-10698389D01*
X2446253Y-10698389D02*
X2436729Y-10660293D01*
X2436729Y-10660293D02*
X2436729Y-10612674D01*
X2436729Y-10612674D02*
X2446253Y-10574579D01*
X2446253Y-10574579D02*
X2455777Y-10555531D01*
X2455777Y-10555531D02*
X2465301Y-10546008D01*
X2465301Y-10546008D02*
X2484348Y-10536484D01*
X2741491Y-10736484D02*
X2627206Y-10736484D01*
X2684348Y-10736484D02*
X2684348Y-10536484D01*
X2684348Y-10536484D02*
X2665301Y-10565055D01*
X2665301Y-10565055D02*
X2646253Y-10584103D01*
X2646253Y-10584103D02*
X2627206Y-10593627D01*
X2931967Y-10736484D02*
X2817682Y-10736484D01*
X2874825Y-10736484D02*
X2874825Y-10536484D01*
X2874825Y-10536484D02*
X2855777Y-10565055D01*
X2855777Y-10565055D02*
X2836729Y-10584103D01*
X2836729Y-10584103D02*
X2817682Y-10593627D01*
X3046253Y-10622198D02*
X3027206Y-10612674D01*
X3027206Y-10612674D02*
X3017682Y-10603150D01*
X3017682Y-10603150D02*
X3008158Y-10584103D01*
X3008158Y-10584103D02*
X3008158Y-10574579D01*
X3008158Y-10574579D02*
X3017682Y-10555531D01*
X3017682Y-10555531D02*
X3027206Y-10546008D01*
X3027206Y-10546008D02*
X3046253Y-10536484D01*
X3046253Y-10536484D02*
X3084348Y-10536484D01*
X3084348Y-10536484D02*
X3103396Y-10546008D01*
X3103396Y-10546008D02*
X3112920Y-10555531D01*
X3112920Y-10555531D02*
X3122444Y-10574579D01*
X3122444Y-10574579D02*
X3122444Y-10584103D01*
X3122444Y-10584103D02*
X3112920Y-10603150D01*
X3112920Y-10603150D02*
X3103396Y-10612674D01*
X3103396Y-10612674D02*
X3084348Y-10622198D01*
X3084348Y-10622198D02*
X3046253Y-10622198D01*
X3046253Y-10622198D02*
X3027206Y-10631722D01*
X3027206Y-10631722D02*
X3017682Y-10641246D01*
X3017682Y-10641246D02*
X3008158Y-10660293D01*
X3008158Y-10660293D02*
X3008158Y-10698389D01*
X3008158Y-10698389D02*
X3017682Y-10717436D01*
X3017682Y-10717436D02*
X3027206Y-10726960D01*
X3027206Y-10726960D02*
X3046253Y-10736484D01*
X3046253Y-10736484D02*
X3084348Y-10736484D01*
X3084348Y-10736484D02*
X3103396Y-10726960D01*
X3103396Y-10726960D02*
X3112920Y-10717436D01*
X3112920Y-10717436D02*
X3122444Y-10698389D01*
X3122444Y-10698389D02*
X3122444Y-10660293D01*
X3122444Y-10660293D02*
X3112920Y-10641246D01*
X3112920Y-10641246D02*
X3103396Y-10631722D01*
X3103396Y-10631722D02*
X3084348Y-10622198D01*
X3198634Y-10536484D02*
X3198634Y-10574579D01*
X3274825Y-10536484D02*
X3274825Y-10574579D01*
X3570063Y-10812674D02*
X3560539Y-10803150D01*
X3560539Y-10803150D02*
X3541491Y-10774579D01*
X3541491Y-10774579D02*
X3531968Y-10755531D01*
X3531968Y-10755531D02*
X3522444Y-10726960D01*
X3522444Y-10726960D02*
X3512920Y-10679341D01*
X3512920Y-10679341D02*
X3512920Y-10641246D01*
X3512920Y-10641246D02*
X3522444Y-10593627D01*
X3522444Y-10593627D02*
X3531968Y-10565055D01*
X3531968Y-10565055D02*
X3541491Y-10546008D01*
X3541491Y-10546008D02*
X3560539Y-10517436D01*
X3560539Y-10517436D02*
X3570063Y-10507912D01*
X3741491Y-10536484D02*
X3646253Y-10536484D01*
X3646253Y-10536484D02*
X3636729Y-10631722D01*
X3636729Y-10631722D02*
X3646253Y-10622198D01*
X3646253Y-10622198D02*
X3665301Y-10612674D01*
X3665301Y-10612674D02*
X3712920Y-10612674D01*
X3712920Y-10612674D02*
X3731968Y-10622198D01*
X3731968Y-10622198D02*
X3741491Y-10631722D01*
X3741491Y-10631722D02*
X3751015Y-10650770D01*
X3751015Y-10650770D02*
X3751015Y-10698389D01*
X3751015Y-10698389D02*
X3741491Y-10717436D01*
X3741491Y-10717436D02*
X3731968Y-10726960D01*
X3731968Y-10726960D02*
X3712920Y-10736484D01*
X3712920Y-10736484D02*
X3665301Y-10736484D01*
X3665301Y-10736484D02*
X3646253Y-10726960D01*
X3646253Y-10726960D02*
X3636729Y-10717436D01*
X3817682Y-10536484D02*
X3951015Y-10536484D01*
X3951015Y-10536484D02*
X3865301Y-10736484D01*
X4179587Y-10736484D02*
X4179587Y-10536484D01*
X4265301Y-10736484D02*
X4265301Y-10631722D01*
X4265301Y-10631722D02*
X4255777Y-10612674D01*
X4255777Y-10612674D02*
X4236730Y-10603150D01*
X4236730Y-10603150D02*
X4208158Y-10603150D01*
X4208158Y-10603150D02*
X4189110Y-10612674D01*
X4189110Y-10612674D02*
X4179587Y-10622198D01*
X4389111Y-10736484D02*
X4370063Y-10726960D01*
X4370063Y-10726960D02*
X4360539Y-10717436D01*
X4360539Y-10717436D02*
X4351015Y-10698389D01*
X4351015Y-10698389D02*
X4351015Y-10641246D01*
X4351015Y-10641246D02*
X4360539Y-10622198D01*
X4360539Y-10622198D02*
X4370063Y-10612674D01*
X4370063Y-10612674D02*
X4389111Y-10603150D01*
X4389111Y-10603150D02*
X4417682Y-10603150D01*
X4417682Y-10603150D02*
X4436730Y-10612674D01*
X4436730Y-10612674D02*
X4446253Y-10622198D01*
X4446253Y-10622198D02*
X4455777Y-10641246D01*
X4455777Y-10641246D02*
X4455777Y-10698389D01*
X4455777Y-10698389D02*
X4446253Y-10717436D01*
X4446253Y-10717436D02*
X4436730Y-10726960D01*
X4436730Y-10726960D02*
X4417682Y-10736484D01*
X4417682Y-10736484D02*
X4389111Y-10736484D01*
X4570063Y-10736484D02*
X4551015Y-10726960D01*
X4551015Y-10726960D02*
X4541492Y-10707912D01*
X4541492Y-10707912D02*
X4541492Y-10536484D01*
X4722444Y-10726960D02*
X4703396Y-10736484D01*
X4703396Y-10736484D02*
X4665301Y-10736484D01*
X4665301Y-10736484D02*
X4646253Y-10726960D01*
X4646253Y-10726960D02*
X4636730Y-10707912D01*
X4636730Y-10707912D02*
X4636730Y-10631722D01*
X4636730Y-10631722D02*
X4646253Y-10612674D01*
X4646253Y-10612674D02*
X4665301Y-10603150D01*
X4665301Y-10603150D02*
X4703396Y-10603150D01*
X4703396Y-10603150D02*
X4722444Y-10612674D01*
X4722444Y-10612674D02*
X4731968Y-10631722D01*
X4731968Y-10631722D02*
X4731968Y-10650770D01*
X4731968Y-10650770D02*
X4636730Y-10669817D01*
X4808158Y-10726960D02*
X4827206Y-10736484D01*
X4827206Y-10736484D02*
X4865301Y-10736484D01*
X4865301Y-10736484D02*
X4884349Y-10726960D01*
X4884349Y-10726960D02*
X4893873Y-10707912D01*
X4893873Y-10707912D02*
X4893873Y-10698389D01*
X4893873Y-10698389D02*
X4884349Y-10679341D01*
X4884349Y-10679341D02*
X4865301Y-10669817D01*
X4865301Y-10669817D02*
X4836730Y-10669817D01*
X4836730Y-10669817D02*
X4817682Y-10660293D01*
X4817682Y-10660293D02*
X4808158Y-10641246D01*
X4808158Y-10641246D02*
X4808158Y-10631722D01*
X4808158Y-10631722D02*
X4817682Y-10612674D01*
X4817682Y-10612674D02*
X4836730Y-10603150D01*
X4836730Y-10603150D02*
X4865301Y-10603150D01*
X4865301Y-10603150D02*
X4884349Y-10612674D01*
X4960539Y-10812674D02*
X4970063Y-10803150D01*
X4970063Y-10803150D02*
X4989111Y-10774579D01*
X4989111Y-10774579D02*
X4998634Y-10755531D01*
X4998634Y-10755531D02*
X5008158Y-10726960D01*
X5008158Y-10726960D02*
X5017682Y-10679341D01*
X5017682Y-10679341D02*
X5017682Y-10641246D01*
X5017682Y-10641246D02*
X5008158Y-10593627D01*
X5008158Y-10593627D02*
X4998634Y-10565055D01*
X4998634Y-10565055D02*
X4989111Y-10546008D01*
X4989111Y-10546008D02*
X4970063Y-10517436D01*
X4970063Y-10517436D02*
X4960539Y-10507912D01*
D10*
X-5000Y-10909000D02*
G75*
G02*
X-45000Y-10909000I-20000J0D01*
G01*
X-45000Y-10909000D02*
G75*
G02*
X-5000Y-10909000I20000J0D01*
G01*
D11*
X293872Y-10800484D02*
X312920Y-10800484D01*
X312920Y-10800484D02*
X331967Y-10810008D01*
X331967Y-10810008D02*
X341491Y-10819531D01*
X341491Y-10819531D02*
X351015Y-10838579D01*
X351015Y-10838579D02*
X360539Y-10876674D01*
X360539Y-10876674D02*
X360539Y-10924293D01*
X360539Y-10924293D02*
X351015Y-10962389D01*
X351015Y-10962389D02*
X341491Y-10981436D01*
X341491Y-10981436D02*
X331967Y-10990960D01*
X331967Y-10990960D02*
X312920Y-11000484D01*
X312920Y-11000484D02*
X293872Y-11000484D01*
X293872Y-11000484D02*
X274824Y-10990960D01*
X274824Y-10990960D02*
X265301Y-10981436D01*
X265301Y-10981436D02*
X255777Y-10962389D01*
X255777Y-10962389D02*
X246253Y-10924293D01*
X246253Y-10924293D02*
X246253Y-10876674D01*
X246253Y-10876674D02*
X255777Y-10838579D01*
X255777Y-10838579D02*
X265301Y-10819531D01*
X265301Y-10819531D02*
X274824Y-10810008D01*
X274824Y-10810008D02*
X293872Y-10800484D01*
X455777Y-10990960D02*
X455777Y-11000484D01*
X455777Y-11000484D02*
X446253Y-11019531D01*
X446253Y-11019531D02*
X436729Y-11029055D01*
X627205Y-10867150D02*
X627205Y-11000484D01*
X579586Y-10790960D02*
X531967Y-10933817D01*
X531967Y-10933817D02*
X655777Y-10933817D01*
X770062Y-10800484D02*
X789110Y-10800484D01*
X789110Y-10800484D02*
X808158Y-10810008D01*
X808158Y-10810008D02*
X817682Y-10819531D01*
X817682Y-10819531D02*
X827205Y-10838579D01*
X827205Y-10838579D02*
X836729Y-10876674D01*
X836729Y-10876674D02*
X836729Y-10924293D01*
X836729Y-10924293D02*
X827205Y-10962389D01*
X827205Y-10962389D02*
X817682Y-10981436D01*
X817682Y-10981436D02*
X808158Y-10990960D01*
X808158Y-10990960D02*
X789110Y-11000484D01*
X789110Y-11000484D02*
X770062Y-11000484D01*
X770062Y-11000484D02*
X751015Y-10990960D01*
X751015Y-10990960D02*
X741491Y-10981436D01*
X741491Y-10981436D02*
X731967Y-10962389D01*
X731967Y-10962389D02*
X722443Y-10924293D01*
X722443Y-10924293D02*
X722443Y-10876674D01*
X722443Y-10876674D02*
X731967Y-10838579D01*
X731967Y-10838579D02*
X741491Y-10819531D01*
X741491Y-10819531D02*
X751015Y-10810008D01*
X751015Y-10810008D02*
X770062Y-10800484D01*
X960539Y-10800484D02*
X979586Y-10800484D01*
X979586Y-10800484D02*
X998634Y-10810008D01*
X998634Y-10810008D02*
X1008158Y-10819531D01*
X1008158Y-10819531D02*
X1017682Y-10838579D01*
X1017682Y-10838579D02*
X1027205Y-10876674D01*
X1027205Y-10876674D02*
X1027205Y-10924293D01*
X1027205Y-10924293D02*
X1017682Y-10962389D01*
X1017682Y-10962389D02*
X1008158Y-10981436D01*
X1008158Y-10981436D02*
X998634Y-10990960D01*
X998634Y-10990960D02*
X979586Y-11000484D01*
X979586Y-11000484D02*
X960539Y-11000484D01*
X960539Y-11000484D02*
X941491Y-10990960D01*
X941491Y-10990960D02*
X931967Y-10981436D01*
X931967Y-10981436D02*
X922443Y-10962389D01*
X922443Y-10962389D02*
X912920Y-10924293D01*
X912920Y-10924293D02*
X912920Y-10876674D01*
X912920Y-10876674D02*
X922443Y-10838579D01*
X922443Y-10838579D02*
X931967Y-10819531D01*
X931967Y-10819531D02*
X941491Y-10810008D01*
X941491Y-10810008D02*
X960539Y-10800484D01*
X1112920Y-11000484D02*
X1112920Y-10867150D01*
X1112920Y-10886198D02*
X1122444Y-10876674D01*
X1122444Y-10876674D02*
X1141491Y-10867150D01*
X1141491Y-10867150D02*
X1170063Y-10867150D01*
X1170063Y-10867150D02*
X1189110Y-10876674D01*
X1189110Y-10876674D02*
X1198634Y-10895722D01*
X1198634Y-10895722D02*
X1198634Y-11000484D01*
X1198634Y-10895722D02*
X1208158Y-10876674D01*
X1208158Y-10876674D02*
X1227205Y-10867150D01*
X1227205Y-10867150D02*
X1255777Y-10867150D01*
X1255777Y-10867150D02*
X1274825Y-10876674D01*
X1274825Y-10876674D02*
X1284348Y-10895722D01*
X1284348Y-10895722D02*
X1284348Y-11000484D01*
X1379586Y-11000484D02*
X1379586Y-10867150D01*
X1379586Y-10886198D02*
X1389110Y-10876674D01*
X1389110Y-10876674D02*
X1408158Y-10867150D01*
X1408158Y-10867150D02*
X1436729Y-10867150D01*
X1436729Y-10867150D02*
X1455777Y-10876674D01*
X1455777Y-10876674D02*
X1465301Y-10895722D01*
X1465301Y-10895722D02*
X1465301Y-11000484D01*
X1465301Y-10895722D02*
X1474824Y-10876674D01*
X1474824Y-10876674D02*
X1493872Y-10867150D01*
X1493872Y-10867150D02*
X1522443Y-10867150D01*
X1522443Y-10867150D02*
X1541491Y-10876674D01*
X1541491Y-10876674D02*
X1551015Y-10895722D01*
X1551015Y-10895722D02*
X1551015Y-11000484D01*
X1941491Y-10790960D02*
X1770063Y-11048103D01*
X2198634Y-10800484D02*
X2217682Y-10800484D01*
X2217682Y-10800484D02*
X2236729Y-10810008D01*
X2236729Y-10810008D02*
X2246253Y-10819531D01*
X2246253Y-10819531D02*
X2255777Y-10838579D01*
X2255777Y-10838579D02*
X2265301Y-10876674D01*
X2265301Y-10876674D02*
X2265301Y-10924293D01*
X2265301Y-10924293D02*
X2255777Y-10962389D01*
X2255777Y-10962389D02*
X2246253Y-10981436D01*
X2246253Y-10981436D02*
X2236729Y-10990960D01*
X2236729Y-10990960D02*
X2217682Y-11000484D01*
X2217682Y-11000484D02*
X2198634Y-11000484D01*
X2198634Y-11000484D02*
X2179587Y-10990960D01*
X2179587Y-10990960D02*
X2170063Y-10981436D01*
X2170063Y-10981436D02*
X2160539Y-10962389D01*
X2160539Y-10962389D02*
X2151015Y-10924293D01*
X2151015Y-10924293D02*
X2151015Y-10876674D01*
X2151015Y-10876674D02*
X2160539Y-10838579D01*
X2160539Y-10838579D02*
X2170063Y-10819531D01*
X2170063Y-10819531D02*
X2179587Y-10810008D01*
X2179587Y-10810008D02*
X2198634Y-10800484D01*
X2360539Y-10990960D02*
X2360539Y-11000484D01*
X2360539Y-11000484D02*
X2351015Y-11019531D01*
X2351015Y-11019531D02*
X2341491Y-11029055D01*
X2484348Y-10800484D02*
X2503396Y-10800484D01*
X2503396Y-10800484D02*
X2522444Y-10810008D01*
X2522444Y-10810008D02*
X2531968Y-10819531D01*
X2531968Y-10819531D02*
X2541491Y-10838579D01*
X2541491Y-10838579D02*
X2551015Y-10876674D01*
X2551015Y-10876674D02*
X2551015Y-10924293D01*
X2551015Y-10924293D02*
X2541491Y-10962389D01*
X2541491Y-10962389D02*
X2531968Y-10981436D01*
X2531968Y-10981436D02*
X2522444Y-10990960D01*
X2522444Y-10990960D02*
X2503396Y-11000484D01*
X2503396Y-11000484D02*
X2484348Y-11000484D01*
X2484348Y-11000484D02*
X2465301Y-10990960D01*
X2465301Y-10990960D02*
X2455777Y-10981436D01*
X2455777Y-10981436D02*
X2446253Y-10962389D01*
X2446253Y-10962389D02*
X2436729Y-10924293D01*
X2436729Y-10924293D02*
X2436729Y-10876674D01*
X2436729Y-10876674D02*
X2446253Y-10838579D01*
X2446253Y-10838579D02*
X2455777Y-10819531D01*
X2455777Y-10819531D02*
X2465301Y-10810008D01*
X2465301Y-10810008D02*
X2484348Y-10800484D01*
X2741491Y-11000484D02*
X2627206Y-11000484D01*
X2684348Y-11000484D02*
X2684348Y-10800484D01*
X2684348Y-10800484D02*
X2665301Y-10829055D01*
X2665301Y-10829055D02*
X2646253Y-10848103D01*
X2646253Y-10848103D02*
X2627206Y-10857627D01*
X2922444Y-10800484D02*
X2827206Y-10800484D01*
X2827206Y-10800484D02*
X2817682Y-10895722D01*
X2817682Y-10895722D02*
X2827206Y-10886198D01*
X2827206Y-10886198D02*
X2846253Y-10876674D01*
X2846253Y-10876674D02*
X2893872Y-10876674D01*
X2893872Y-10876674D02*
X2912920Y-10886198D01*
X2912920Y-10886198D02*
X2922444Y-10895722D01*
X2922444Y-10895722D02*
X2931967Y-10914770D01*
X2931967Y-10914770D02*
X2931967Y-10962389D01*
X2931967Y-10962389D02*
X2922444Y-10981436D01*
X2922444Y-10981436D02*
X2912920Y-10990960D01*
X2912920Y-10990960D02*
X2893872Y-11000484D01*
X2893872Y-11000484D02*
X2846253Y-11000484D01*
X2846253Y-11000484D02*
X2827206Y-10990960D01*
X2827206Y-10990960D02*
X2817682Y-10981436D01*
X2998634Y-10800484D02*
X3131967Y-10800484D01*
X3131967Y-10800484D02*
X3046253Y-11000484D01*
X3198634Y-10800484D02*
X3198634Y-10838579D01*
X3274825Y-10800484D02*
X3274825Y-10838579D01*
X3570063Y-11076674D02*
X3560539Y-11067150D01*
X3560539Y-11067150D02*
X3541491Y-11038579D01*
X3541491Y-11038579D02*
X3531968Y-11019531D01*
X3531968Y-11019531D02*
X3522444Y-10990960D01*
X3522444Y-10990960D02*
X3512920Y-10943341D01*
X3512920Y-10943341D02*
X3512920Y-10905246D01*
X3512920Y-10905246D02*
X3522444Y-10857627D01*
X3522444Y-10857627D02*
X3531968Y-10829055D01*
X3531968Y-10829055D02*
X3541491Y-10810008D01*
X3541491Y-10810008D02*
X3560539Y-10781436D01*
X3560539Y-10781436D02*
X3570063Y-10771912D01*
X3731968Y-10867150D02*
X3731968Y-11000484D01*
X3684348Y-10790960D02*
X3636729Y-10933817D01*
X3636729Y-10933817D02*
X3760539Y-10933817D01*
X3989110Y-11000484D02*
X3989110Y-10800484D01*
X4074825Y-11000484D02*
X4074825Y-10895722D01*
X4074825Y-10895722D02*
X4065301Y-10876674D01*
X4065301Y-10876674D02*
X4046253Y-10867150D01*
X4046253Y-10867150D02*
X4017682Y-10867150D01*
X4017682Y-10867150D02*
X3998634Y-10876674D01*
X3998634Y-10876674D02*
X3989110Y-10886198D01*
X4198634Y-11000484D02*
X4179587Y-10990960D01*
X4179587Y-10990960D02*
X4170063Y-10981436D01*
X4170063Y-10981436D02*
X4160539Y-10962389D01*
X4160539Y-10962389D02*
X4160539Y-10905246D01*
X4160539Y-10905246D02*
X4170063Y-10886198D01*
X4170063Y-10886198D02*
X4179587Y-10876674D01*
X4179587Y-10876674D02*
X4198634Y-10867150D01*
X4198634Y-10867150D02*
X4227206Y-10867150D01*
X4227206Y-10867150D02*
X4246253Y-10876674D01*
X4246253Y-10876674D02*
X4255777Y-10886198D01*
X4255777Y-10886198D02*
X4265301Y-10905246D01*
X4265301Y-10905246D02*
X4265301Y-10962389D01*
X4265301Y-10962389D02*
X4255777Y-10981436D01*
X4255777Y-10981436D02*
X4246253Y-10990960D01*
X4246253Y-10990960D02*
X4227206Y-11000484D01*
X4227206Y-11000484D02*
X4198634Y-11000484D01*
X4379587Y-11000484D02*
X4360539Y-10990960D01*
X4360539Y-10990960D02*
X4351015Y-10971912D01*
X4351015Y-10971912D02*
X4351015Y-10800484D01*
X4531968Y-10990960D02*
X4512920Y-11000484D01*
X4512920Y-11000484D02*
X4474825Y-11000484D01*
X4474825Y-11000484D02*
X4455777Y-10990960D01*
X4455777Y-10990960D02*
X4446253Y-10971912D01*
X4446253Y-10971912D02*
X4446253Y-10895722D01*
X4446253Y-10895722D02*
X4455777Y-10876674D01*
X4455777Y-10876674D02*
X4474825Y-10867150D01*
X4474825Y-10867150D02*
X4512920Y-10867150D01*
X4512920Y-10867150D02*
X4531968Y-10876674D01*
X4531968Y-10876674D02*
X4541492Y-10895722D01*
X4541492Y-10895722D02*
X4541492Y-10914770D01*
X4541492Y-10914770D02*
X4446253Y-10933817D01*
X4617682Y-10990960D02*
X4636730Y-11000484D01*
X4636730Y-11000484D02*
X4674825Y-11000484D01*
X4674825Y-11000484D02*
X4693873Y-10990960D01*
X4693873Y-10990960D02*
X4703396Y-10971912D01*
X4703396Y-10971912D02*
X4703396Y-10962389D01*
X4703396Y-10962389D02*
X4693873Y-10943341D01*
X4693873Y-10943341D02*
X4674825Y-10933817D01*
X4674825Y-10933817D02*
X4646253Y-10933817D01*
X4646253Y-10933817D02*
X4627206Y-10924293D01*
X4627206Y-10924293D02*
X4617682Y-10905246D01*
X4617682Y-10905246D02*
X4617682Y-10895722D01*
X4617682Y-10895722D02*
X4627206Y-10876674D01*
X4627206Y-10876674D02*
X4646253Y-10867150D01*
X4646253Y-10867150D02*
X4674825Y-10867150D01*
X4674825Y-10867150D02*
X4693873Y-10876674D01*
X4770063Y-11076674D02*
X4779587Y-11067150D01*
X4779587Y-11067150D02*
X4798634Y-11038579D01*
X4798634Y-11038579D02*
X4808158Y-11019531D01*
X4808158Y-11019531D02*
X4817682Y-10990960D01*
X4817682Y-10990960D02*
X4827206Y-10943341D01*
X4827206Y-10943341D02*
X4827206Y-10905246D01*
X4827206Y-10905246D02*
X4817682Y-10857627D01*
X4817682Y-10857627D02*
X4808158Y-10829055D01*
X4808158Y-10829055D02*
X4798634Y-10810008D01*
X4798634Y-10810008D02*
X4779587Y-10781436D01*
X4779587Y-10781436D02*
X4770063Y-10771912D01*
D10*
X-55000Y-11123000D02*
X-55000Y-11223000D01*
X-105000Y-11173000D02*
X-5000Y-11173000D01*
D11*
X360539Y-11264484D02*
X246253Y-11264484D01*
X303396Y-11264484D02*
X303396Y-11064484D01*
X303396Y-11064484D02*
X284348Y-11093055D01*
X284348Y-11093055D02*
X265301Y-11112103D01*
X265301Y-11112103D02*
X246253Y-11121627D01*
X455777Y-11254960D02*
X455777Y-11264484D01*
X455777Y-11264484D02*
X446253Y-11283531D01*
X446253Y-11283531D02*
X436729Y-11293055D01*
X579586Y-11064484D02*
X598634Y-11064484D01*
X598634Y-11064484D02*
X617682Y-11074008D01*
X617682Y-11074008D02*
X627205Y-11083531D01*
X627205Y-11083531D02*
X636729Y-11102579D01*
X636729Y-11102579D02*
X646253Y-11140674D01*
X646253Y-11140674D02*
X646253Y-11188293D01*
X646253Y-11188293D02*
X636729Y-11226388D01*
X636729Y-11226388D02*
X627205Y-11245436D01*
X627205Y-11245436D02*
X617682Y-11254960D01*
X617682Y-11254960D02*
X598634Y-11264484D01*
X598634Y-11264484D02*
X579586Y-11264484D01*
X579586Y-11264484D02*
X560539Y-11254960D01*
X560539Y-11254960D02*
X551015Y-11245436D01*
X551015Y-11245436D02*
X541491Y-11226388D01*
X541491Y-11226388D02*
X531967Y-11188293D01*
X531967Y-11188293D02*
X531967Y-11140674D01*
X531967Y-11140674D02*
X541491Y-11102579D01*
X541491Y-11102579D02*
X551015Y-11083531D01*
X551015Y-11083531D02*
X560539Y-11074008D01*
X560539Y-11074008D02*
X579586Y-11064484D01*
X770062Y-11064484D02*
X789110Y-11064484D01*
X789110Y-11064484D02*
X808158Y-11074008D01*
X808158Y-11074008D02*
X817682Y-11083531D01*
X817682Y-11083531D02*
X827205Y-11102579D01*
X827205Y-11102579D02*
X836729Y-11140674D01*
X836729Y-11140674D02*
X836729Y-11188293D01*
X836729Y-11188293D02*
X827205Y-11226388D01*
X827205Y-11226388D02*
X817682Y-11245436D01*
X817682Y-11245436D02*
X808158Y-11254960D01*
X808158Y-11254960D02*
X789110Y-11264484D01*
X789110Y-11264484D02*
X770062Y-11264484D01*
X770062Y-11264484D02*
X751015Y-11254960D01*
X751015Y-11254960D02*
X741491Y-11245436D01*
X741491Y-11245436D02*
X731967Y-11226388D01*
X731967Y-11226388D02*
X722443Y-11188293D01*
X722443Y-11188293D02*
X722443Y-11140674D01*
X722443Y-11140674D02*
X731967Y-11102579D01*
X731967Y-11102579D02*
X741491Y-11083531D01*
X741491Y-11083531D02*
X751015Y-11074008D01*
X751015Y-11074008D02*
X770062Y-11064484D01*
X960539Y-11064484D02*
X979586Y-11064484D01*
X979586Y-11064484D02*
X998634Y-11074008D01*
X998634Y-11074008D02*
X1008158Y-11083531D01*
X1008158Y-11083531D02*
X1017682Y-11102579D01*
X1017682Y-11102579D02*
X1027205Y-11140674D01*
X1027205Y-11140674D02*
X1027205Y-11188293D01*
X1027205Y-11188293D02*
X1017682Y-11226388D01*
X1017682Y-11226388D02*
X1008158Y-11245436D01*
X1008158Y-11245436D02*
X998634Y-11254960D01*
X998634Y-11254960D02*
X979586Y-11264484D01*
X979586Y-11264484D02*
X960539Y-11264484D01*
X960539Y-11264484D02*
X941491Y-11254960D01*
X941491Y-11254960D02*
X931967Y-11245436D01*
X931967Y-11245436D02*
X922443Y-11226388D01*
X922443Y-11226388D02*
X912920Y-11188293D01*
X912920Y-11188293D02*
X912920Y-11140674D01*
X912920Y-11140674D02*
X922443Y-11102579D01*
X922443Y-11102579D02*
X931967Y-11083531D01*
X931967Y-11083531D02*
X941491Y-11074008D01*
X941491Y-11074008D02*
X960539Y-11064484D01*
X1112920Y-11264484D02*
X1112920Y-11131150D01*
X1112920Y-11150198D02*
X1122444Y-11140674D01*
X1122444Y-11140674D02*
X1141491Y-11131150D01*
X1141491Y-11131150D02*
X1170063Y-11131150D01*
X1170063Y-11131150D02*
X1189110Y-11140674D01*
X1189110Y-11140674D02*
X1198634Y-11159722D01*
X1198634Y-11159722D02*
X1198634Y-11264484D01*
X1198634Y-11159722D02*
X1208158Y-11140674D01*
X1208158Y-11140674D02*
X1227205Y-11131150D01*
X1227205Y-11131150D02*
X1255777Y-11131150D01*
X1255777Y-11131150D02*
X1274825Y-11140674D01*
X1274825Y-11140674D02*
X1284348Y-11159722D01*
X1284348Y-11159722D02*
X1284348Y-11264484D01*
X1379586Y-11264484D02*
X1379586Y-11131150D01*
X1379586Y-11150198D02*
X1389110Y-11140674D01*
X1389110Y-11140674D02*
X1408158Y-11131150D01*
X1408158Y-11131150D02*
X1436729Y-11131150D01*
X1436729Y-11131150D02*
X1455777Y-11140674D01*
X1455777Y-11140674D02*
X1465301Y-11159722D01*
X1465301Y-11159722D02*
X1465301Y-11264484D01*
X1465301Y-11159722D02*
X1474824Y-11140674D01*
X1474824Y-11140674D02*
X1493872Y-11131150D01*
X1493872Y-11131150D02*
X1522443Y-11131150D01*
X1522443Y-11131150D02*
X1541491Y-11140674D01*
X1541491Y-11140674D02*
X1551015Y-11159722D01*
X1551015Y-11159722D02*
X1551015Y-11264484D01*
X1941491Y-11054960D02*
X1770063Y-11312103D01*
X2198634Y-11064484D02*
X2217682Y-11064484D01*
X2217682Y-11064484D02*
X2236729Y-11074008D01*
X2236729Y-11074008D02*
X2246253Y-11083531D01*
X2246253Y-11083531D02*
X2255777Y-11102579D01*
X2255777Y-11102579D02*
X2265301Y-11140674D01*
X2265301Y-11140674D02*
X2265301Y-11188293D01*
X2265301Y-11188293D02*
X2255777Y-11226388D01*
X2255777Y-11226388D02*
X2246253Y-11245436D01*
X2246253Y-11245436D02*
X2236729Y-11254960D01*
X2236729Y-11254960D02*
X2217682Y-11264484D01*
X2217682Y-11264484D02*
X2198634Y-11264484D01*
X2198634Y-11264484D02*
X2179587Y-11254960D01*
X2179587Y-11254960D02*
X2170063Y-11245436D01*
X2170063Y-11245436D02*
X2160539Y-11226388D01*
X2160539Y-11226388D02*
X2151015Y-11188293D01*
X2151015Y-11188293D02*
X2151015Y-11140674D01*
X2151015Y-11140674D02*
X2160539Y-11102579D01*
X2160539Y-11102579D02*
X2170063Y-11083531D01*
X2170063Y-11083531D02*
X2179587Y-11074008D01*
X2179587Y-11074008D02*
X2198634Y-11064484D01*
X2360539Y-11254960D02*
X2360539Y-11264484D01*
X2360539Y-11264484D02*
X2351015Y-11283531D01*
X2351015Y-11283531D02*
X2341491Y-11293055D01*
X2484348Y-11064484D02*
X2503396Y-11064484D01*
X2503396Y-11064484D02*
X2522444Y-11074008D01*
X2522444Y-11074008D02*
X2531968Y-11083531D01*
X2531968Y-11083531D02*
X2541491Y-11102579D01*
X2541491Y-11102579D02*
X2551015Y-11140674D01*
X2551015Y-11140674D02*
X2551015Y-11188293D01*
X2551015Y-11188293D02*
X2541491Y-11226388D01*
X2541491Y-11226388D02*
X2531968Y-11245436D01*
X2531968Y-11245436D02*
X2522444Y-11254960D01*
X2522444Y-11254960D02*
X2503396Y-11264484D01*
X2503396Y-11264484D02*
X2484348Y-11264484D01*
X2484348Y-11264484D02*
X2465301Y-11254960D01*
X2465301Y-11254960D02*
X2455777Y-11245436D01*
X2455777Y-11245436D02*
X2446253Y-11226388D01*
X2446253Y-11226388D02*
X2436729Y-11188293D01*
X2436729Y-11188293D02*
X2436729Y-11140674D01*
X2436729Y-11140674D02*
X2446253Y-11102579D01*
X2446253Y-11102579D02*
X2455777Y-11083531D01*
X2455777Y-11083531D02*
X2465301Y-11074008D01*
X2465301Y-11074008D02*
X2484348Y-11064484D01*
X2617682Y-11064484D02*
X2741491Y-11064484D01*
X2741491Y-11064484D02*
X2674825Y-11140674D01*
X2674825Y-11140674D02*
X2703396Y-11140674D01*
X2703396Y-11140674D02*
X2722444Y-11150198D01*
X2722444Y-11150198D02*
X2731968Y-11159722D01*
X2731968Y-11159722D02*
X2741491Y-11178770D01*
X2741491Y-11178770D02*
X2741491Y-11226388D01*
X2741491Y-11226388D02*
X2731968Y-11245436D01*
X2731968Y-11245436D02*
X2722444Y-11254960D01*
X2722444Y-11254960D02*
X2703396Y-11264484D01*
X2703396Y-11264484D02*
X2646253Y-11264484D01*
X2646253Y-11264484D02*
X2627206Y-11254960D01*
X2627206Y-11254960D02*
X2617682Y-11245436D01*
X2836729Y-11264484D02*
X2874825Y-11264484D01*
X2874825Y-11264484D02*
X2893872Y-11254960D01*
X2893872Y-11254960D02*
X2903396Y-11245436D01*
X2903396Y-11245436D02*
X2922444Y-11216865D01*
X2922444Y-11216865D02*
X2931967Y-11178770D01*
X2931967Y-11178770D02*
X2931967Y-11102579D01*
X2931967Y-11102579D02*
X2922444Y-11083531D01*
X2922444Y-11083531D02*
X2912920Y-11074008D01*
X2912920Y-11074008D02*
X2893872Y-11064484D01*
X2893872Y-11064484D02*
X2855777Y-11064484D01*
X2855777Y-11064484D02*
X2836729Y-11074008D01*
X2836729Y-11074008D02*
X2827206Y-11083531D01*
X2827206Y-11083531D02*
X2817682Y-11102579D01*
X2817682Y-11102579D02*
X2817682Y-11150198D01*
X2817682Y-11150198D02*
X2827206Y-11169246D01*
X2827206Y-11169246D02*
X2836729Y-11178770D01*
X2836729Y-11178770D02*
X2855777Y-11188293D01*
X2855777Y-11188293D02*
X2893872Y-11188293D01*
X2893872Y-11188293D02*
X2912920Y-11178770D01*
X2912920Y-11178770D02*
X2922444Y-11169246D01*
X2922444Y-11169246D02*
X2931967Y-11150198D01*
X3103396Y-11131150D02*
X3103396Y-11264484D01*
X3055777Y-11054960D02*
X3008158Y-11197817D01*
X3008158Y-11197817D02*
X3131967Y-11197817D01*
X3198634Y-11064484D02*
X3198634Y-11102579D01*
X3274825Y-11064484D02*
X3274825Y-11102579D01*
X3570063Y-11340674D02*
X3560539Y-11331150D01*
X3560539Y-11331150D02*
X3541491Y-11302579D01*
X3541491Y-11302579D02*
X3531968Y-11283531D01*
X3531968Y-11283531D02*
X3522444Y-11254960D01*
X3522444Y-11254960D02*
X3512920Y-11207341D01*
X3512920Y-11207341D02*
X3512920Y-11169246D01*
X3512920Y-11169246D02*
X3522444Y-11121627D01*
X3522444Y-11121627D02*
X3531968Y-11093055D01*
X3531968Y-11093055D02*
X3541491Y-11074008D01*
X3541491Y-11074008D02*
X3560539Y-11045436D01*
X3560539Y-11045436D02*
X3570063Y-11035912D01*
X3674825Y-11150198D02*
X3655777Y-11140674D01*
X3655777Y-11140674D02*
X3646253Y-11131150D01*
X3646253Y-11131150D02*
X3636729Y-11112103D01*
X3636729Y-11112103D02*
X3636729Y-11102579D01*
X3636729Y-11102579D02*
X3646253Y-11083531D01*
X3646253Y-11083531D02*
X3655777Y-11074008D01*
X3655777Y-11074008D02*
X3674825Y-11064484D01*
X3674825Y-11064484D02*
X3712920Y-11064484D01*
X3712920Y-11064484D02*
X3731968Y-11074008D01*
X3731968Y-11074008D02*
X3741491Y-11083531D01*
X3741491Y-11083531D02*
X3751015Y-11102579D01*
X3751015Y-11102579D02*
X3751015Y-11112103D01*
X3751015Y-11112103D02*
X3741491Y-11131150D01*
X3741491Y-11131150D02*
X3731968Y-11140674D01*
X3731968Y-11140674D02*
X3712920Y-11150198D01*
X3712920Y-11150198D02*
X3674825Y-11150198D01*
X3674825Y-11150198D02*
X3655777Y-11159722D01*
X3655777Y-11159722D02*
X3646253Y-11169246D01*
X3646253Y-11169246D02*
X3636729Y-11188293D01*
X3636729Y-11188293D02*
X3636729Y-11226388D01*
X3636729Y-11226388D02*
X3646253Y-11245436D01*
X3646253Y-11245436D02*
X3655777Y-11254960D01*
X3655777Y-11254960D02*
X3674825Y-11264484D01*
X3674825Y-11264484D02*
X3712920Y-11264484D01*
X3712920Y-11264484D02*
X3731968Y-11254960D01*
X3731968Y-11254960D02*
X3741491Y-11245436D01*
X3741491Y-11245436D02*
X3751015Y-11226388D01*
X3751015Y-11226388D02*
X3751015Y-11188293D01*
X3751015Y-11188293D02*
X3741491Y-11169246D01*
X3741491Y-11169246D02*
X3731968Y-11159722D01*
X3731968Y-11159722D02*
X3712920Y-11150198D01*
X3865301Y-11150198D02*
X3846253Y-11140674D01*
X3846253Y-11140674D02*
X3836729Y-11131150D01*
X3836729Y-11131150D02*
X3827206Y-11112103D01*
X3827206Y-11112103D02*
X3827206Y-11102579D01*
X3827206Y-11102579D02*
X3836729Y-11083531D01*
X3836729Y-11083531D02*
X3846253Y-11074008D01*
X3846253Y-11074008D02*
X3865301Y-11064484D01*
X3865301Y-11064484D02*
X3903396Y-11064484D01*
X3903396Y-11064484D02*
X3922444Y-11074008D01*
X3922444Y-11074008D02*
X3931968Y-11083531D01*
X3931968Y-11083531D02*
X3941491Y-11102579D01*
X3941491Y-11102579D02*
X3941491Y-11112103D01*
X3941491Y-11112103D02*
X3931968Y-11131150D01*
X3931968Y-11131150D02*
X3922444Y-11140674D01*
X3922444Y-11140674D02*
X3903396Y-11150198D01*
X3903396Y-11150198D02*
X3865301Y-11150198D01*
X3865301Y-11150198D02*
X3846253Y-11159722D01*
X3846253Y-11159722D02*
X3836729Y-11169246D01*
X3836729Y-11169246D02*
X3827206Y-11188293D01*
X3827206Y-11188293D02*
X3827206Y-11226388D01*
X3827206Y-11226388D02*
X3836729Y-11245436D01*
X3836729Y-11245436D02*
X3846253Y-11254960D01*
X3846253Y-11254960D02*
X3865301Y-11264484D01*
X3865301Y-11264484D02*
X3903396Y-11264484D01*
X3903396Y-11264484D02*
X3922444Y-11254960D01*
X3922444Y-11254960D02*
X3931968Y-11245436D01*
X3931968Y-11245436D02*
X3941491Y-11226388D01*
X3941491Y-11226388D02*
X3941491Y-11188293D01*
X3941491Y-11188293D02*
X3931968Y-11169246D01*
X3931968Y-11169246D02*
X3922444Y-11159722D01*
X3922444Y-11159722D02*
X3903396Y-11150198D01*
X4179587Y-11264484D02*
X4179587Y-11064484D01*
X4265301Y-11264484D02*
X4265301Y-11159722D01*
X4265301Y-11159722D02*
X4255777Y-11140674D01*
X4255777Y-11140674D02*
X4236730Y-11131150D01*
X4236730Y-11131150D02*
X4208158Y-11131150D01*
X4208158Y-11131150D02*
X4189110Y-11140674D01*
X4189110Y-11140674D02*
X4179587Y-11150198D01*
X4389111Y-11264484D02*
X4370063Y-11254960D01*
X4370063Y-11254960D02*
X4360539Y-11245436D01*
X4360539Y-11245436D02*
X4351015Y-11226388D01*
X4351015Y-11226388D02*
X4351015Y-11169246D01*
X4351015Y-11169246D02*
X4360539Y-11150198D01*
X4360539Y-11150198D02*
X4370063Y-11140674D01*
X4370063Y-11140674D02*
X4389111Y-11131150D01*
X4389111Y-11131150D02*
X4417682Y-11131150D01*
X4417682Y-11131150D02*
X4436730Y-11140674D01*
X4436730Y-11140674D02*
X4446253Y-11150198D01*
X4446253Y-11150198D02*
X4455777Y-11169246D01*
X4455777Y-11169246D02*
X4455777Y-11226388D01*
X4455777Y-11226388D02*
X4446253Y-11245436D01*
X4446253Y-11245436D02*
X4436730Y-11254960D01*
X4436730Y-11254960D02*
X4417682Y-11264484D01*
X4417682Y-11264484D02*
X4389111Y-11264484D01*
X4570063Y-11264484D02*
X4551015Y-11254960D01*
X4551015Y-11254960D02*
X4541492Y-11235912D01*
X4541492Y-11235912D02*
X4541492Y-11064484D01*
X4722444Y-11254960D02*
X4703396Y-11264484D01*
X4703396Y-11264484D02*
X4665301Y-11264484D01*
X4665301Y-11264484D02*
X4646253Y-11254960D01*
X4646253Y-11254960D02*
X4636730Y-11235912D01*
X4636730Y-11235912D02*
X4636730Y-11159722D01*
X4636730Y-11159722D02*
X4646253Y-11140674D01*
X4646253Y-11140674D02*
X4665301Y-11131150D01*
X4665301Y-11131150D02*
X4703396Y-11131150D01*
X4703396Y-11131150D02*
X4722444Y-11140674D01*
X4722444Y-11140674D02*
X4731968Y-11159722D01*
X4731968Y-11159722D02*
X4731968Y-11178770D01*
X4731968Y-11178770D02*
X4636730Y-11197817D01*
X4808158Y-11254960D02*
X4827206Y-11264484D01*
X4827206Y-11264484D02*
X4865301Y-11264484D01*
X4865301Y-11264484D02*
X4884349Y-11254960D01*
X4884349Y-11254960D02*
X4893873Y-11235912D01*
X4893873Y-11235912D02*
X4893873Y-11226388D01*
X4893873Y-11226388D02*
X4884349Y-11207341D01*
X4884349Y-11207341D02*
X4865301Y-11197817D01*
X4865301Y-11197817D02*
X4836730Y-11197817D01*
X4836730Y-11197817D02*
X4817682Y-11188293D01*
X4817682Y-11188293D02*
X4808158Y-11169246D01*
X4808158Y-11169246D02*
X4808158Y-11159722D01*
X4808158Y-11159722D02*
X4817682Y-11140674D01*
X4817682Y-11140674D02*
X4836730Y-11131150D01*
X4836730Y-11131150D02*
X4865301Y-11131150D01*
X4865301Y-11131150D02*
X4884349Y-11140674D01*
X4960539Y-11340674D02*
X4970063Y-11331150D01*
X4970063Y-11331150D02*
X4989111Y-11302579D01*
X4989111Y-11302579D02*
X4998634Y-11283531D01*
X4998634Y-11283531D02*
X5008158Y-11254960D01*
X5008158Y-11254960D02*
X5017682Y-11207341D01*
X5017682Y-11207341D02*
X5017682Y-11169246D01*
X5017682Y-11169246D02*
X5008158Y-11121627D01*
X5008158Y-11121627D02*
X4998634Y-11093055D01*
X4998634Y-11093055D02*
X4989111Y-11074008D01*
X4989111Y-11074008D02*
X4970063Y-11045436D01*
X4970063Y-11045436D02*
X4960539Y-11035912D01*
M02*
