M48
; DRILL file KiCad 10.0.4 date 2026-09-15T23:07:38
; FORMAT={-:-/ absolute / metric / decimal}
; #@! TF.CreationDate,2026-09-15T23:07:38-03:00
; #@! TF.GenerationSoftware,Kicad,Pcbnew,10.0.4
; #@! TF.FileFunction,MixedPlating,1,2
FMAT,2
METRIC
; #@! TA.AperFunction,Plated,PTH,ViaDrill
T1C0.300
; #@! TA.AperFunction,Plated,PTH,ComponentDrill
T2C1.000
%
G90
G05
T1
X3.799Y-3.269
X4.697Y-2.2
X5.162Y-18.554
X5.98Y-16.676
X8.918Y-20.987
X9.739Y-1.13
X9.877Y-11.201
X10.417Y-7.503
X10.852Y-4.748
X11.313Y-3.887
X12.335Y-1.252
X13.836Y-4.369
X16.625Y-23.405
X17.013Y-3.345
X17.051Y-1.146
X18.612Y-11.309
X21.025Y-11.326
X22.788Y-20.052
X24.924Y-19.478
X25.333Y-15.509
X26.199Y-23.118
X26.609Y-32.988
X27.11Y-12.702
X30.645Y-14.119
X31.925Y-14.102
X33.374Y-14.078
X34.556Y-1.203
X36.02Y-14.088
X36.8Y-2.156
X38.532Y-23.385
X38.877Y-26.582
X38.927Y-3.66
X39.047Y-1.53
X39.515Y-21.63
X40.251Y-13.47
X40.475Y-23.492
X41.087Y-11.047
X50.612Y-32.04
X52.444Y-0.814
T2
X1.59Y-5.84
X1.59Y-28.7
X4.13Y-5.84
X4.13Y-28.7
X6.67Y-5.84
X6.67Y-9.65
X6.67Y-24.89
X6.67Y-28.7
X9.21Y-5.84
X9.21Y-9.65
X9.21Y-24.89
X9.21Y-28.7
X11.75Y-5.84
X11.75Y-9.65
X11.75Y-24.89
X11.75Y-28.7
X14.29Y-5.84
X14.29Y-9.65
X14.29Y-24.89
X14.29Y-28.7
X16.83Y-5.84
X16.83Y-9.65
X16.83Y-24.89
X16.83Y-28.7
X19.37Y-5.84
X19.37Y-9.65
X19.37Y-24.89
X19.37Y-28.7
X21.91Y-5.84
X21.91Y-9.65
X21.91Y-24.89
X21.91Y-28.7
X24.45Y-5.84
X24.45Y-9.65
X24.45Y-24.89
X24.45Y-28.7
X26.99Y-5.84
X26.99Y-9.65
X26.99Y-24.89
X26.99Y-28.7
X29.53Y-5.84
X29.53Y-9.65
X29.53Y-24.89
X29.53Y-28.7
X32.07Y-5.84
X32.07Y-9.65
X32.07Y-24.89
X32.07Y-28.7
X34.61Y-5.84
X34.61Y-9.65
X34.61Y-24.89
X34.61Y-28.7
X37.15Y-5.84
X37.15Y-9.65
X37.15Y-24.89
X37.15Y-28.7
X39.69Y-5.84
X39.69Y-9.65
X39.69Y-24.89
X39.69Y-28.7
X42.23Y-5.84
X42.23Y-9.65
X42.23Y-24.89
X42.23Y-28.7
X44.77Y-5.84
X44.77Y-9.65
X44.77Y-24.89
X44.77Y-28.7
X47.31Y-5.84
X47.31Y-9.65
X47.31Y-24.89
X47.31Y-28.7
X49.85Y-5.84
X49.85Y-9.65
X49.85Y-24.89
X49.85Y-28.7
X52.39Y-5.84
X52.39Y-9.65
X52.39Y-24.89
X52.39Y-28.7
X54.93Y-5.84
X54.93Y-9.65
X54.93Y-24.89
X54.93Y-28.7
X57.47Y-5.84
X57.47Y-28.7
X60.01Y-5.84
X60.01Y-28.7
M30
