%TF.GenerationSoftware,KiCad,Pcbnew,10.0.4*%
%TF.CreationDate,2026-09-12T00:06:02-03:00*%
%TF.ProjectId,tia-fpga,7469612d-6670-4676-912e-6b696361645f,rev?*%
%TF.SameCoordinates,Original*%
%TF.FileFunction,Legend,Top*%
%TF.FilePolarity,Positive*%
%FSLAX46Y46*%
G04 Gerber Fmt 4.6, Leading zero omitted, Abs format (unit mm)*
G04 Created by KiCad (PCBNEW 10.0.4) date 2026-09-12 00:06:02*
%MOMM*%
%LPD*%
G01*
G04 APERTURE LIST*
G04 Aperture macros list*
%AMRoundRect*
0 Rectangle with rounded corners*
0 $1 Rounding radius*
0 $2 $3 $4 $5 $6 $7 $8 $9 X,Y pos of 4 corners*
0 Add a 4 corners polygon primitive as box body*
4,1,4,$2,$3,$4,$5,$6,$7,$8,$9,$2,$3,0*
0 Add four circle primitives for the rounded corners*
1,1,$1+$1,$2,$3*
1,1,$1+$1,$4,$5*
1,1,$1+$1,$6,$7*
1,1,$1+$1,$8,$9*
0 Add four rect primitives between the rounded corners*
20,1,$1+$1,$2,$3,$4,$5,0*
20,1,$1+$1,$4,$5,$6,$7,0*
20,1,$1+$1,$6,$7,$8,$9,0*
20,1,$1+$1,$8,$9,$2,$3,0*%
G04 Aperture macros list end*
%ADD10C,0.120000*%
%ADD11RoundRect,0.250000X-0.250000X-0.475000X0.250000X-0.475000X0.250000X0.475000X-0.250000X0.475000X0*%
%ADD12RoundRect,0.150000X0.150000X-0.875000X0.150000X0.875000X-0.150000X0.875000X-0.150000X-0.875000X0*%
%ADD13RoundRect,0.250000X-0.262500X-0.450000X0.262500X-0.450000X0.262500X0.450000X-0.262500X0.450000X0*%
%ADD14RoundRect,0.150000X-0.512500X-0.150000X0.512500X-0.150000X0.512500X0.150000X-0.512500X0.150000X0*%
%ADD15C,2.200000*%
%ADD16RoundRect,0.150000X0.150000X-0.825000X0.150000X0.825000X-0.150000X0.825000X-0.150000X-0.825000X0*%
%ADD17R,1.700000X1.700000*%
%ADD18C,1.700000*%
G04 APERTURE END LIST*
D10*
X24866667Y-2107664D02*
X24828571Y-2145760D01*
X24828571Y-2145760D02*
X24714286Y-2183855D01*
X24714286Y-2183855D02*
X24638095Y-2183855D01*
X24638095Y-2183855D02*
X24523809Y-2145760D01*
X24523809Y-2145760D02*
X24447619Y-2069569D01*
X24447619Y-2069569D02*
X24409524Y-1993379D01*
X24409524Y-1993379D02*
X24371428Y-1840998D01*
X24371428Y-1840998D02*
X24371428Y-1726712D01*
X24371428Y-1726712D02*
X24409524Y-1574331D01*
X24409524Y-1574331D02*
X24447619Y-1498140D01*
X24447619Y-1498140D02*
X24523809Y-1421950D01*
X24523809Y-1421950D02*
X24638095Y-1383855D01*
X24638095Y-1383855D02*
X24714286Y-1383855D01*
X24714286Y-1383855D02*
X24828571Y-1421950D01*
X24828571Y-1421950D02*
X24866667Y-1460045D01*
X25171428Y-1460045D02*
X25209524Y-1421950D01*
X25209524Y-1421950D02*
X25285714Y-1383855D01*
X25285714Y-1383855D02*
X25476190Y-1383855D01*
X25476190Y-1383855D02*
X25552381Y-1421950D01*
X25552381Y-1421950D02*
X25590476Y-1460045D01*
X25590476Y-1460045D02*
X25628571Y-1536236D01*
X25628571Y-1536236D02*
X25628571Y-1612426D01*
X25628571Y-1612426D02*
X25590476Y-1726712D01*
X25590476Y-1726712D02*
X25133333Y-2183855D01*
X25133333Y-2183855D02*
X25628571Y-2183855D01*
X26213855Y-18609523D02*
X26861474Y-18609523D01*
X26861474Y-18609523D02*
X26937664Y-18571428D01*
X26937664Y-18571428D02*
X26975760Y-18533333D01*
X26975760Y-18533333D02*
X27013855Y-18457142D01*
X27013855Y-18457142D02*
X27013855Y-18304761D01*
X27013855Y-18304761D02*
X26975760Y-18228571D01*
X26975760Y-18228571D02*
X26937664Y-18190476D01*
X26937664Y-18190476D02*
X26861474Y-18152380D01*
X26861474Y-18152380D02*
X26213855Y-18152380D01*
X26213855Y-17847619D02*
X26213855Y-17352381D01*
X26213855Y-17352381D02*
X26518617Y-17619047D01*
X26518617Y-17619047D02*
X26518617Y-17504762D01*
X26518617Y-17504762D02*
X26556712Y-17428571D01*
X26556712Y-17428571D02*
X26594807Y-17390476D01*
X26594807Y-17390476D02*
X26670998Y-17352381D01*
X26670998Y-17352381D02*
X26861474Y-17352381D01*
X26861474Y-17352381D02*
X26937664Y-17390476D01*
X26937664Y-17390476D02*
X26975760Y-17428571D01*
X26975760Y-17428571D02*
X27013855Y-17504762D01*
X27013855Y-17504762D02*
X27013855Y-17733333D01*
X27013855Y-17733333D02*
X26975760Y-17809524D01*
X26975760Y-17809524D02*
X26937664Y-17847619D01*
X45866667Y-2107664D02*
X45828571Y-2145760D01*
X45828571Y-2145760D02*
X45714286Y-2183855D01*
X45714286Y-2183855D02*
X45638095Y-2183855D01*
X45638095Y-2183855D02*
X45523809Y-2145760D01*
X45523809Y-2145760D02*
X45447619Y-2069569D01*
X45447619Y-2069569D02*
X45409524Y-1993379D01*
X45409524Y-1993379D02*
X45371428Y-1840998D01*
X45371428Y-1840998D02*
X45371428Y-1726712D01*
X45371428Y-1726712D02*
X45409524Y-1574331D01*
X45409524Y-1574331D02*
X45447619Y-1498140D01*
X45447619Y-1498140D02*
X45523809Y-1421950D01*
X45523809Y-1421950D02*
X45638095Y-1383855D01*
X45638095Y-1383855D02*
X45714286Y-1383855D01*
X45714286Y-1383855D02*
X45828571Y-1421950D01*
X45828571Y-1421950D02*
X45866667Y-1460045D01*
X46590476Y-1383855D02*
X46209524Y-1383855D01*
X46209524Y-1383855D02*
X46171428Y-1764807D01*
X46171428Y-1764807D02*
X46209524Y-1726712D01*
X46209524Y-1726712D02*
X46285714Y-1688617D01*
X46285714Y-1688617D02*
X46476190Y-1688617D01*
X46476190Y-1688617D02*
X46552381Y-1726712D01*
X46552381Y-1726712D02*
X46590476Y-1764807D01*
X46590476Y-1764807D02*
X46628571Y-1840998D01*
X46628571Y-1840998D02*
X46628571Y-2031474D01*
X46628571Y-2031474D02*
X46590476Y-2107664D01*
X46590476Y-2107664D02*
X46552381Y-2145760D01*
X46552381Y-2145760D02*
X46476190Y-2183855D01*
X46476190Y-2183855D02*
X46285714Y-2183855D01*
X46285714Y-2183855D02*
X46209524Y-2145760D01*
X46209524Y-2145760D02*
X46171428Y-2107664D01*
X29866667Y-31213855D02*
X29600000Y-30832902D01*
X29409524Y-31213855D02*
X29409524Y-30413855D01*
X29409524Y-30413855D02*
X29714286Y-30413855D01*
X29714286Y-30413855D02*
X29790476Y-30451950D01*
X29790476Y-30451950D02*
X29828571Y-30490045D01*
X29828571Y-30490045D02*
X29866667Y-30566236D01*
X29866667Y-30566236D02*
X29866667Y-30680521D01*
X29866667Y-30680521D02*
X29828571Y-30756712D01*
X29828571Y-30756712D02*
X29790476Y-30794807D01*
X29790476Y-30794807D02*
X29714286Y-30832902D01*
X29714286Y-30832902D02*
X29409524Y-30832902D01*
X30552381Y-30680521D02*
X30552381Y-31213855D01*
X30361905Y-30375760D02*
X30171428Y-30947188D01*
X30171428Y-30947188D02*
X30666667Y-30947188D01*
X41866667Y-31213855D02*
X41600000Y-30832902D01*
X41409524Y-31213855D02*
X41409524Y-30413855D01*
X41409524Y-30413855D02*
X41714286Y-30413855D01*
X41714286Y-30413855D02*
X41790476Y-30451950D01*
X41790476Y-30451950D02*
X41828571Y-30490045D01*
X41828571Y-30490045D02*
X41866667Y-30566236D01*
X41866667Y-30566236D02*
X41866667Y-30680521D01*
X41866667Y-30680521D02*
X41828571Y-30756712D01*
X41828571Y-30756712D02*
X41790476Y-30794807D01*
X41790476Y-30794807D02*
X41714286Y-30832902D01*
X41714286Y-30832902D02*
X41409524Y-30832902D01*
X42552381Y-30413855D02*
X42400000Y-30413855D01*
X42400000Y-30413855D02*
X42323809Y-30451950D01*
X42323809Y-30451950D02*
X42285714Y-30490045D01*
X42285714Y-30490045D02*
X42209524Y-30604331D01*
X42209524Y-30604331D02*
X42171428Y-30756712D01*
X42171428Y-30756712D02*
X42171428Y-31061474D01*
X42171428Y-31061474D02*
X42209524Y-31137664D01*
X42209524Y-31137664D02*
X42247619Y-31175760D01*
X42247619Y-31175760D02*
X42323809Y-31213855D01*
X42323809Y-31213855D02*
X42476190Y-31213855D01*
X42476190Y-31213855D02*
X42552381Y-31175760D01*
X42552381Y-31175760D02*
X42590476Y-31137664D01*
X42590476Y-31137664D02*
X42628571Y-31061474D01*
X42628571Y-31061474D02*
X42628571Y-30870998D01*
X42628571Y-30870998D02*
X42590476Y-30794807D01*
X42590476Y-30794807D02*
X42552381Y-30756712D01*
X42552381Y-30756712D02*
X42476190Y-30718617D01*
X42476190Y-30718617D02*
X42323809Y-30718617D01*
X42323809Y-30718617D02*
X42247619Y-30756712D01*
X42247619Y-30756712D02*
X42209524Y-30794807D01*
X42209524Y-30794807D02*
X42171428Y-30870998D01*
X9390476Y-663855D02*
X9390476Y-1311474D01*
X9390476Y-1311474D02*
X9428571Y-1387664D01*
X9428571Y-1387664D02*
X9466666Y-1425760D01*
X9466666Y-1425760D02*
X9542857Y-1463855D01*
X9542857Y-1463855D02*
X9695238Y-1463855D01*
X9695238Y-1463855D02*
X9771428Y-1425760D01*
X9771428Y-1425760D02*
X9809523Y-1387664D01*
X9809523Y-1387664D02*
X9847619Y-1311474D01*
X9847619Y-1311474D02*
X9847619Y-663855D01*
X10609523Y-663855D02*
X10228571Y-663855D01*
X10228571Y-663855D02*
X10190475Y-1044807D01*
X10190475Y-1044807D02*
X10228571Y-1006712D01*
X10228571Y-1006712D02*
X10304761Y-968617D01*
X10304761Y-968617D02*
X10495237Y-968617D01*
X10495237Y-968617D02*
X10571428Y-1006712D01*
X10571428Y-1006712D02*
X10609523Y-1044807D01*
X10609523Y-1044807D02*
X10647618Y-1120998D01*
X10647618Y-1120998D02*
X10647618Y-1311474D01*
X10647618Y-1311474D02*
X10609523Y-1387664D01*
X10609523Y-1387664D02*
X10571428Y-1425760D01*
X10571428Y-1425760D02*
X10495237Y-1463855D01*
X10495237Y-1463855D02*
X10304761Y-1463855D01*
X10304761Y-1463855D02*
X10228571Y-1425760D01*
X10228571Y-1425760D02*
X10190475Y-1387664D01*
X17866667Y-2107664D02*
X17828571Y-2145760D01*
X17828571Y-2145760D02*
X17714286Y-2183855D01*
X17714286Y-2183855D02*
X17638095Y-2183855D01*
X17638095Y-2183855D02*
X17523809Y-2145760D01*
X17523809Y-2145760D02*
X17447619Y-2069569D01*
X17447619Y-2069569D02*
X17409524Y-1993379D01*
X17409524Y-1993379D02*
X17371428Y-1840998D01*
X17371428Y-1840998D02*
X17371428Y-1726712D01*
X17371428Y-1726712D02*
X17409524Y-1574331D01*
X17409524Y-1574331D02*
X17447619Y-1498140D01*
X17447619Y-1498140D02*
X17523809Y-1421950D01*
X17523809Y-1421950D02*
X17638095Y-1383855D01*
X17638095Y-1383855D02*
X17714286Y-1383855D01*
X17714286Y-1383855D02*
X17828571Y-1421950D01*
X17828571Y-1421950D02*
X17866667Y-1460045D01*
X18628571Y-2183855D02*
X18171428Y-2183855D01*
X18400000Y-2183855D02*
X18400000Y-1383855D01*
X18400000Y-1383855D02*
X18323809Y-1498140D01*
X18323809Y-1498140D02*
X18247619Y-1574331D01*
X18247619Y-1574331D02*
X18171428Y-1612426D01*
X55283855Y-18609523D02*
X55931474Y-18609523D01*
X55931474Y-18609523D02*
X56007664Y-18571428D01*
X56007664Y-18571428D02*
X56045760Y-18533333D01*
X56045760Y-18533333D02*
X56083855Y-18457142D01*
X56083855Y-18457142D02*
X56083855Y-18304761D01*
X56083855Y-18304761D02*
X56045760Y-18228571D01*
X56045760Y-18228571D02*
X56007664Y-18190476D01*
X56007664Y-18190476D02*
X55931474Y-18152380D01*
X55931474Y-18152380D02*
X55283855Y-18152380D01*
X56083855Y-17352381D02*
X56083855Y-17809524D01*
X56083855Y-17580952D02*
X55283855Y-17580952D01*
X55283855Y-17580952D02*
X55398140Y-17657143D01*
X55398140Y-17657143D02*
X55474331Y-17733333D01*
X55474331Y-17733333D02*
X55512426Y-17809524D01*
X38866667Y-2107664D02*
X38828571Y-2145760D01*
X38828571Y-2145760D02*
X38714286Y-2183855D01*
X38714286Y-2183855D02*
X38638095Y-2183855D01*
X38638095Y-2183855D02*
X38523809Y-2145760D01*
X38523809Y-2145760D02*
X38447619Y-2069569D01*
X38447619Y-2069569D02*
X38409524Y-1993379D01*
X38409524Y-1993379D02*
X38371428Y-1840998D01*
X38371428Y-1840998D02*
X38371428Y-1726712D01*
X38371428Y-1726712D02*
X38409524Y-1574331D01*
X38409524Y-1574331D02*
X38447619Y-1498140D01*
X38447619Y-1498140D02*
X38523809Y-1421950D01*
X38523809Y-1421950D02*
X38638095Y-1383855D01*
X38638095Y-1383855D02*
X38714286Y-1383855D01*
X38714286Y-1383855D02*
X38828571Y-1421950D01*
X38828571Y-1421950D02*
X38866667Y-1460045D01*
X39552381Y-1650521D02*
X39552381Y-2183855D01*
X39361905Y-1345760D02*
X39171428Y-1917188D01*
X39171428Y-1917188D02*
X39666667Y-1917188D01*
X53866667Y-31213855D02*
X53600000Y-30832902D01*
X53409524Y-31213855D02*
X53409524Y-30413855D01*
X53409524Y-30413855D02*
X53714286Y-30413855D01*
X53714286Y-30413855D02*
X53790476Y-30451950D01*
X53790476Y-30451950D02*
X53828571Y-30490045D01*
X53828571Y-30490045D02*
X53866667Y-30566236D01*
X53866667Y-30566236D02*
X53866667Y-30680521D01*
X53866667Y-30680521D02*
X53828571Y-30756712D01*
X53828571Y-30756712D02*
X53790476Y-30794807D01*
X53790476Y-30794807D02*
X53714286Y-30832902D01*
X53714286Y-30832902D02*
X53409524Y-30832902D01*
X54323809Y-30756712D02*
X54247619Y-30718617D01*
X54247619Y-30718617D02*
X54209524Y-30680521D01*
X54209524Y-30680521D02*
X54171428Y-30604331D01*
X54171428Y-30604331D02*
X54171428Y-30566236D01*
X54171428Y-30566236D02*
X54209524Y-30490045D01*
X54209524Y-30490045D02*
X54247619Y-30451950D01*
X54247619Y-30451950D02*
X54323809Y-30413855D01*
X54323809Y-30413855D02*
X54476190Y-30413855D01*
X54476190Y-30413855D02*
X54552381Y-30451950D01*
X54552381Y-30451950D02*
X54590476Y-30490045D01*
X54590476Y-30490045D02*
X54628571Y-30566236D01*
X54628571Y-30566236D02*
X54628571Y-30604331D01*
X54628571Y-30604331D02*
X54590476Y-30680521D01*
X54590476Y-30680521D02*
X54552381Y-30718617D01*
X54552381Y-30718617D02*
X54476190Y-30756712D01*
X54476190Y-30756712D02*
X54323809Y-30756712D01*
X54323809Y-30756712D02*
X54247619Y-30794807D01*
X54247619Y-30794807D02*
X54209524Y-30832902D01*
X54209524Y-30832902D02*
X54171428Y-30909093D01*
X54171428Y-30909093D02*
X54171428Y-31061474D01*
X54171428Y-31061474D02*
X54209524Y-31137664D01*
X54209524Y-31137664D02*
X54247619Y-31175760D01*
X54247619Y-31175760D02*
X54323809Y-31213855D01*
X54323809Y-31213855D02*
X54476190Y-31213855D01*
X54476190Y-31213855D02*
X54552381Y-31175760D01*
X54552381Y-31175760D02*
X54590476Y-31137664D01*
X54590476Y-31137664D02*
X54628571Y-31061474D01*
X54628571Y-31061474D02*
X54628571Y-30909093D01*
X54628571Y-30909093D02*
X54590476Y-30832902D01*
X54590476Y-30832902D02*
X54552381Y-30794807D01*
X54552381Y-30794807D02*
X54476190Y-30756712D01*
X17866667Y-31213855D02*
X17600000Y-30832902D01*
X17409524Y-31213855D02*
X17409524Y-30413855D01*
X17409524Y-30413855D02*
X17714286Y-30413855D01*
X17714286Y-30413855D02*
X17790476Y-30451950D01*
X17790476Y-30451950D02*
X17828571Y-30490045D01*
X17828571Y-30490045D02*
X17866667Y-30566236D01*
X17866667Y-30566236D02*
X17866667Y-30680521D01*
X17866667Y-30680521D02*
X17828571Y-30756712D01*
X17828571Y-30756712D02*
X17790476Y-30794807D01*
X17790476Y-30794807D02*
X17714286Y-30832902D01*
X17714286Y-30832902D02*
X17409524Y-30832902D01*
X18171428Y-30490045D02*
X18209524Y-30451950D01*
X18209524Y-30451950D02*
X18285714Y-30413855D01*
X18285714Y-30413855D02*
X18476190Y-30413855D01*
X18476190Y-30413855D02*
X18552381Y-30451950D01*
X18552381Y-30451950D02*
X18590476Y-30490045D01*
X18590476Y-30490045D02*
X18628571Y-30566236D01*
X18628571Y-30566236D02*
X18628571Y-30642426D01*
X18628571Y-30642426D02*
X18590476Y-30756712D01*
X18590476Y-30756712D02*
X18133333Y-31213855D01*
X18133333Y-31213855D02*
X18628571Y-31213855D01*
X31866667Y-2107664D02*
X31828571Y-2145760D01*
X31828571Y-2145760D02*
X31714286Y-2183855D01*
X31714286Y-2183855D02*
X31638095Y-2183855D01*
X31638095Y-2183855D02*
X31523809Y-2145760D01*
X31523809Y-2145760D02*
X31447619Y-2069569D01*
X31447619Y-2069569D02*
X31409524Y-1993379D01*
X31409524Y-1993379D02*
X31371428Y-1840998D01*
X31371428Y-1840998D02*
X31371428Y-1726712D01*
X31371428Y-1726712D02*
X31409524Y-1574331D01*
X31409524Y-1574331D02*
X31447619Y-1498140D01*
X31447619Y-1498140D02*
X31523809Y-1421950D01*
X31523809Y-1421950D02*
X31638095Y-1383855D01*
X31638095Y-1383855D02*
X31714286Y-1383855D01*
X31714286Y-1383855D02*
X31828571Y-1421950D01*
X31828571Y-1421950D02*
X31866667Y-1460045D01*
X32133333Y-1383855D02*
X32628571Y-1383855D01*
X32628571Y-1383855D02*
X32361905Y-1688617D01*
X32361905Y-1688617D02*
X32476190Y-1688617D01*
X32476190Y-1688617D02*
X32552381Y-1726712D01*
X32552381Y-1726712D02*
X32590476Y-1764807D01*
X32590476Y-1764807D02*
X32628571Y-1840998D01*
X32628571Y-1840998D02*
X32628571Y-2031474D01*
X32628571Y-2031474D02*
X32590476Y-2107664D01*
X32590476Y-2107664D02*
X32552381Y-2145760D01*
X32552381Y-2145760D02*
X32476190Y-2183855D01*
X32476190Y-2183855D02*
X32247619Y-2183855D01*
X32247619Y-2183855D02*
X32171428Y-2145760D01*
X32171428Y-2145760D02*
X32133333Y-2107664D01*
X52866667Y-2107664D02*
X52828571Y-2145760D01*
X52828571Y-2145760D02*
X52714286Y-2183855D01*
X52714286Y-2183855D02*
X52638095Y-2183855D01*
X52638095Y-2183855D02*
X52523809Y-2145760D01*
X52523809Y-2145760D02*
X52447619Y-2069569D01*
X52447619Y-2069569D02*
X52409524Y-1993379D01*
X52409524Y-1993379D02*
X52371428Y-1840998D01*
X52371428Y-1840998D02*
X52371428Y-1726712D01*
X52371428Y-1726712D02*
X52409524Y-1574331D01*
X52409524Y-1574331D02*
X52447619Y-1498140D01*
X52447619Y-1498140D02*
X52523809Y-1421950D01*
X52523809Y-1421950D02*
X52638095Y-1383855D01*
X52638095Y-1383855D02*
X52714286Y-1383855D01*
X52714286Y-1383855D02*
X52828571Y-1421950D01*
X52828571Y-1421950D02*
X52866667Y-1460045D01*
X53552381Y-1383855D02*
X53400000Y-1383855D01*
X53400000Y-1383855D02*
X53323809Y-1421950D01*
X53323809Y-1421950D02*
X53285714Y-1460045D01*
X53285714Y-1460045D02*
X53209524Y-1574331D01*
X53209524Y-1574331D02*
X53171428Y-1726712D01*
X53171428Y-1726712D02*
X53171428Y-2031474D01*
X53171428Y-2031474D02*
X53209524Y-2107664D01*
X53209524Y-2107664D02*
X53247619Y-2145760D01*
X53247619Y-2145760D02*
X53323809Y-2183855D01*
X53323809Y-2183855D02*
X53476190Y-2183855D01*
X53476190Y-2183855D02*
X53552381Y-2145760D01*
X53552381Y-2145760D02*
X53590476Y-2107664D01*
X53590476Y-2107664D02*
X53628571Y-2031474D01*
X53628571Y-2031474D02*
X53628571Y-1840998D01*
X53628571Y-1840998D02*
X53590476Y-1764807D01*
X53590476Y-1764807D02*
X53552381Y-1726712D01*
X53552381Y-1726712D02*
X53476190Y-1688617D01*
X53476190Y-1688617D02*
X53323809Y-1688617D01*
X53323809Y-1688617D02*
X53247619Y-1726712D01*
X53247619Y-1726712D02*
X53209524Y-1764807D01*
X53209524Y-1764807D02*
X53171428Y-1840998D01*
X12213855Y-18609523D02*
X12861474Y-18609523D01*
X12861474Y-18609523D02*
X12937664Y-18571428D01*
X12937664Y-18571428D02*
X12975760Y-18533333D01*
X12975760Y-18533333D02*
X13013855Y-18457142D01*
X13013855Y-18457142D02*
X13013855Y-18304761D01*
X13013855Y-18304761D02*
X12975760Y-18228571D01*
X12975760Y-18228571D02*
X12937664Y-18190476D01*
X12937664Y-18190476D02*
X12861474Y-18152380D01*
X12861474Y-18152380D02*
X12213855Y-18152380D01*
X12290045Y-17809524D02*
X12251950Y-17771428D01*
X12251950Y-17771428D02*
X12213855Y-17695238D01*
X12213855Y-17695238D02*
X12213855Y-17504762D01*
X12213855Y-17504762D02*
X12251950Y-17428571D01*
X12251950Y-17428571D02*
X12290045Y-17390476D01*
X12290045Y-17390476D02*
X12366236Y-17352381D01*
X12366236Y-17352381D02*
X12442426Y-17352381D01*
X12442426Y-17352381D02*
X12556712Y-17390476D01*
X12556712Y-17390476D02*
X13013855Y-17847619D01*
X13013855Y-17847619D02*
X13013855Y-17352381D01*
X23866667Y-31213855D02*
X23600000Y-30832902D01*
X23409524Y-31213855D02*
X23409524Y-30413855D01*
X23409524Y-30413855D02*
X23714286Y-30413855D01*
X23714286Y-30413855D02*
X23790476Y-30451950D01*
X23790476Y-30451950D02*
X23828571Y-30490045D01*
X23828571Y-30490045D02*
X23866667Y-30566236D01*
X23866667Y-30566236D02*
X23866667Y-30680521D01*
X23866667Y-30680521D02*
X23828571Y-30756712D01*
X23828571Y-30756712D02*
X23790476Y-30794807D01*
X23790476Y-30794807D02*
X23714286Y-30832902D01*
X23714286Y-30832902D02*
X23409524Y-30832902D01*
X24133333Y-30413855D02*
X24628571Y-30413855D01*
X24628571Y-30413855D02*
X24361905Y-30718617D01*
X24361905Y-30718617D02*
X24476190Y-30718617D01*
X24476190Y-30718617D02*
X24552381Y-30756712D01*
X24552381Y-30756712D02*
X24590476Y-30794807D01*
X24590476Y-30794807D02*
X24628571Y-30870998D01*
X24628571Y-30870998D02*
X24628571Y-31061474D01*
X24628571Y-31061474D02*
X24590476Y-31137664D01*
X24590476Y-31137664D02*
X24552381Y-31175760D01*
X24552381Y-31175760D02*
X24476190Y-31213855D01*
X24476190Y-31213855D02*
X24247619Y-31213855D01*
X24247619Y-31213855D02*
X24171428Y-31175760D01*
X24171428Y-31175760D02*
X24133333Y-31137664D01*
X59866667Y-31213855D02*
X59600000Y-30832902D01*
X59409524Y-31213855D02*
X59409524Y-30413855D01*
X59409524Y-30413855D02*
X59714286Y-30413855D01*
X59714286Y-30413855D02*
X59790476Y-30451950D01*
X59790476Y-30451950D02*
X59828571Y-30490045D01*
X59828571Y-30490045D02*
X59866667Y-30566236D01*
X59866667Y-30566236D02*
X59866667Y-30680521D01*
X59866667Y-30680521D02*
X59828571Y-30756712D01*
X59828571Y-30756712D02*
X59790476Y-30794807D01*
X59790476Y-30794807D02*
X59714286Y-30832902D01*
X59714286Y-30832902D02*
X59409524Y-30832902D01*
X60247619Y-31213855D02*
X60400000Y-31213855D01*
X60400000Y-31213855D02*
X60476190Y-31175760D01*
X60476190Y-31175760D02*
X60514286Y-31137664D01*
X60514286Y-31137664D02*
X60590476Y-31023379D01*
X60590476Y-31023379D02*
X60628571Y-30870998D01*
X60628571Y-30870998D02*
X60628571Y-30566236D01*
X60628571Y-30566236D02*
X60590476Y-30490045D01*
X60590476Y-30490045D02*
X60552381Y-30451950D01*
X60552381Y-30451950D02*
X60476190Y-30413855D01*
X60476190Y-30413855D02*
X60323809Y-30413855D01*
X60323809Y-30413855D02*
X60247619Y-30451950D01*
X60247619Y-30451950D02*
X60209524Y-30490045D01*
X60209524Y-30490045D02*
X60171428Y-30566236D01*
X60171428Y-30566236D02*
X60171428Y-30756712D01*
X60171428Y-30756712D02*
X60209524Y-30832902D01*
X60209524Y-30832902D02*
X60247619Y-30870998D01*
X60247619Y-30870998D02*
X60323809Y-30909093D01*
X60323809Y-30909093D02*
X60476190Y-30909093D01*
X60476190Y-30909093D02*
X60552381Y-30870998D01*
X60552381Y-30870998D02*
X60590476Y-30832902D01*
X60590476Y-30832902D02*
X60628571Y-30756712D01*
X35866667Y-31213855D02*
X35600000Y-30832902D01*
X35409524Y-31213855D02*
X35409524Y-30413855D01*
X35409524Y-30413855D02*
X35714286Y-30413855D01*
X35714286Y-30413855D02*
X35790476Y-30451950D01*
X35790476Y-30451950D02*
X35828571Y-30490045D01*
X35828571Y-30490045D02*
X35866667Y-30566236D01*
X35866667Y-30566236D02*
X35866667Y-30680521D01*
X35866667Y-30680521D02*
X35828571Y-30756712D01*
X35828571Y-30756712D02*
X35790476Y-30794807D01*
X35790476Y-30794807D02*
X35714286Y-30832902D01*
X35714286Y-30832902D02*
X35409524Y-30832902D01*
X36590476Y-30413855D02*
X36209524Y-30413855D01*
X36209524Y-30413855D02*
X36171428Y-30794807D01*
X36171428Y-30794807D02*
X36209524Y-30756712D01*
X36209524Y-30756712D02*
X36285714Y-30718617D01*
X36285714Y-30718617D02*
X36476190Y-30718617D01*
X36476190Y-30718617D02*
X36552381Y-30756712D01*
X36552381Y-30756712D02*
X36590476Y-30794807D01*
X36590476Y-30794807D02*
X36628571Y-30870998D01*
X36628571Y-30870998D02*
X36628571Y-31061474D01*
X36628571Y-31061474D02*
X36590476Y-31137664D01*
X36590476Y-31137664D02*
X36552381Y-31175760D01*
X36552381Y-31175760D02*
X36476190Y-31213855D01*
X36476190Y-31213855D02*
X36285714Y-31213855D01*
X36285714Y-31213855D02*
X36209524Y-31175760D01*
X36209524Y-31175760D02*
X36171428Y-31137664D01*
X40213855Y-18609523D02*
X40861474Y-18609523D01*
X40861474Y-18609523D02*
X40937664Y-18571428D01*
X40937664Y-18571428D02*
X40975760Y-18533333D01*
X40975760Y-18533333D02*
X41013855Y-18457142D01*
X41013855Y-18457142D02*
X41013855Y-18304761D01*
X41013855Y-18304761D02*
X40975760Y-18228571D01*
X40975760Y-18228571D02*
X40937664Y-18190476D01*
X40937664Y-18190476D02*
X40861474Y-18152380D01*
X40861474Y-18152380D02*
X40213855Y-18152380D01*
X40480521Y-17428571D02*
X41013855Y-17428571D01*
X40175760Y-17619047D02*
X40747188Y-17809524D01*
X40747188Y-17809524D02*
X40747188Y-17314285D01*
X11866667Y-31213855D02*
X11600000Y-30832902D01*
X11409524Y-31213855D02*
X11409524Y-30413855D01*
X11409524Y-30413855D02*
X11714286Y-30413855D01*
X11714286Y-30413855D02*
X11790476Y-30451950D01*
X11790476Y-30451950D02*
X11828571Y-30490045D01*
X11828571Y-30490045D02*
X11866667Y-30566236D01*
X11866667Y-30566236D02*
X11866667Y-30680521D01*
X11866667Y-30680521D02*
X11828571Y-30756712D01*
X11828571Y-30756712D02*
X11790476Y-30794807D01*
X11790476Y-30794807D02*
X11714286Y-30832902D01*
X11714286Y-30832902D02*
X11409524Y-30832902D01*
X12628571Y-31213855D02*
X12171428Y-31213855D01*
X12400000Y-31213855D02*
X12400000Y-30413855D01*
X12400000Y-30413855D02*
X12323809Y-30528140D01*
X12323809Y-30528140D02*
X12247619Y-30604331D01*
X12247619Y-30604331D02*
X12171428Y-30642426D01*
X47866667Y-31213855D02*
X47600000Y-30832902D01*
X47409524Y-31213855D02*
X47409524Y-30413855D01*
X47409524Y-30413855D02*
X47714286Y-30413855D01*
X47714286Y-30413855D02*
X47790476Y-30451950D01*
X47790476Y-30451950D02*
X47828571Y-30490045D01*
X47828571Y-30490045D02*
X47866667Y-30566236D01*
X47866667Y-30566236D02*
X47866667Y-30680521D01*
X47866667Y-30680521D02*
X47828571Y-30756712D01*
X47828571Y-30756712D02*
X47790476Y-30794807D01*
X47790476Y-30794807D02*
X47714286Y-30832902D01*
X47714286Y-30832902D02*
X47409524Y-30832902D01*
X48133333Y-30413855D02*
X48666667Y-30413855D01*
X48666667Y-30413855D02*
X48323809Y-31213855D01*
%TO.C,C2*%
X24738748Y-2765000D02*
X25261252Y-2765000D01*
X24738748Y-4235000D02*
X25261252Y-4235000D01*
%TO.C,U3*%
X27490000Y-14140000D02*
X27725000Y-14140000D01*
X27490000Y-21860000D02*
X27490000Y-14140000D01*
X27725000Y-21860000D02*
X27490000Y-21860000D01*
X40275000Y-14140000D02*
X40510000Y-14140000D01*
X40510000Y-14140000D02*
X40510000Y-21860000D01*
X40510000Y-21860000D02*
X40275000Y-21860000D01*
X27720000Y-22650000D02*
X27250000Y-22990000D01*
X27250000Y-22310000D01*
X27720000Y-22650000D01*
G36*
X27720000Y-22650000D02*
G01*
X27250000Y-22990000D01*
X27250000Y-22310000D01*
X27720000Y-22650000D01*
G37*
%TO.C,C5*%
X45738748Y-2765000D02*
X46261252Y-2765000D01*
X45738748Y-4235000D02*
X46261252Y-4235000D01*
%TO.C,R4*%
X29772936Y-31765000D02*
X30227064Y-31765000D01*
X29772936Y-33235000D02*
X30227064Y-33235000D01*
%TO.C,R6*%
X41772936Y-31765000D02*
X42227064Y-31765000D01*
X41772936Y-33235000D02*
X42227064Y-33235000D01*
%TO.C,U5*%
X9090000Y-1940000D02*
X10910000Y-1940000D01*
X9090000Y-1990000D02*
X9090000Y-1940000D01*
X9090000Y-5060000D02*
X9090000Y-5010000D01*
X10910000Y-1940000D02*
X10910000Y-1990000D01*
X10910000Y-3110000D02*
X10910000Y-3890000D01*
X10910000Y-5010000D02*
X10910000Y-5060000D01*
X10910000Y-5060000D02*
X9090000Y-5060000D01*
X8550000Y-1990000D02*
X8310000Y-1660000D01*
X8790000Y-1660000D01*
X8550000Y-1990000D01*
G36*
X8550000Y-1990000D02*
G01*
X8310000Y-1660000D01*
X8790000Y-1660000D01*
X8550000Y-1990000D01*
G37*
%TO.C,C1*%
X17738748Y-2765000D02*
X18261252Y-2765000D01*
X17738748Y-4235000D02*
X18261252Y-4235000D01*
%TO.C,U1*%
X56565000Y-15940000D02*
X56630000Y-15940000D01*
X56565000Y-20060000D02*
X56565000Y-15940000D01*
X56630000Y-20060000D02*
X56565000Y-20060000D01*
X65370000Y-15940000D02*
X65435000Y-15940000D01*
X65435000Y-15940000D02*
X65435000Y-20060000D01*
X65435000Y-20060000D02*
X65370000Y-20060000D01*
X56630000Y-20600000D02*
X56300000Y-20840000D01*
X56300000Y-20360000D01*
X56630000Y-20600000D01*
G36*
X56630000Y-20600000D02*
G01*
X56300000Y-20840000D01*
X56300000Y-20360000D01*
X56630000Y-20600000D01*
G37*
%TO.C,C4*%
X38738748Y-2765000D02*
X39261252Y-2765000D01*
X38738748Y-4235000D02*
X39261252Y-4235000D01*
%TO.C,R8*%
X53772936Y-31765000D02*
X54227064Y-31765000D01*
X53772936Y-33235000D02*
X54227064Y-33235000D01*
%TO.C,R2*%
X17772936Y-31765000D02*
X18227064Y-31765000D01*
X17772936Y-33235000D02*
X18227064Y-33235000D01*
%TO.C,C3*%
X31738748Y-2765000D02*
X32261252Y-2765000D01*
X31738748Y-4235000D02*
X32261252Y-4235000D01*
%TO.C,C6*%
X52738748Y-2765000D02*
X53261252Y-2765000D01*
X52738748Y-4235000D02*
X53261252Y-4235000D01*
%TO.C,U2*%
X13490000Y-14140000D02*
X13725000Y-14140000D01*
X13490000Y-21860000D02*
X13490000Y-14140000D01*
X13725000Y-21860000D02*
X13490000Y-21860000D01*
X26275000Y-14140000D02*
X26510000Y-14140000D01*
X26510000Y-14140000D02*
X26510000Y-21860000D01*
X26510000Y-21860000D02*
X26275000Y-21860000D01*
X13720000Y-22650000D02*
X13250000Y-22990000D01*
X13250000Y-22310000D01*
X13720000Y-22650000D01*
G36*
X13720000Y-22650000D02*
G01*
X13250000Y-22990000D01*
X13250000Y-22310000D01*
X13720000Y-22650000D01*
G37*
%TO.C,R3*%
X23772936Y-31765000D02*
X24227064Y-31765000D01*
X23772936Y-33235000D02*
X24227064Y-33235000D01*
%TO.C,R9*%
X59772936Y-31765000D02*
X60227064Y-31765000D01*
X59772936Y-33235000D02*
X60227064Y-33235000D01*
%TO.C,R5*%
X35772936Y-31765000D02*
X36227064Y-31765000D01*
X35772936Y-33235000D02*
X36227064Y-33235000D01*
%TO.C,J1*%
X7460000Y-6510000D02*
X8790000Y-6510000D01*
X7460000Y-7840000D02*
X7460000Y-6510000D01*
X10060000Y-6510000D02*
X68540000Y-6510000D01*
X10060000Y-9170000D02*
X10060000Y-6510000D01*
X10060000Y-9170000D02*
X68540000Y-9170000D01*
X68540000Y-9170000D02*
X68540000Y-6510000D01*
%TO.C,J4*%
X7460000Y-26830000D02*
X8790000Y-26830000D01*
X7460000Y-28160000D02*
X7460000Y-26830000D01*
X10060000Y-26830000D02*
X68540000Y-26830000D01*
X10060000Y-29490000D02*
X10060000Y-26830000D01*
X10060000Y-29490000D02*
X68540000Y-29490000D01*
X68540000Y-29490000D02*
X68540000Y-26830000D01*
%TO.C,U4*%
X41490000Y-14140000D02*
X41725000Y-14140000D01*
X41490000Y-21860000D02*
X41490000Y-14140000D01*
X41725000Y-21860000D02*
X41490000Y-21860000D01*
X54275000Y-14140000D02*
X54510000Y-14140000D01*
X54510000Y-14140000D02*
X54510000Y-21860000D01*
X54510000Y-21860000D02*
X54275000Y-21860000D01*
X41720000Y-22650000D02*
X41250000Y-22990000D01*
X41250000Y-22310000D01*
X41720000Y-22650000D01*
G36*
X41720000Y-22650000D02*
G01*
X41250000Y-22990000D01*
X41250000Y-22310000D01*
X41720000Y-22650000D01*
G37*
%TO.C,R1*%
X11772936Y-31765000D02*
X12227064Y-31765000D01*
X11772936Y-33235000D02*
X12227064Y-33235000D01*
%TO.C,R7*%
X47772936Y-31765000D02*
X48227064Y-31765000D01*
X47772936Y-33235000D02*
X48227064Y-33235000D01*
%TD*%
%LPC*%
D11*
%TO.C,C2*%
X24050000Y-3500000D03*
X25950000Y-3500000D03*
%TD*%
D12*
%TO.C,U3*%
X28285000Y-22650000D03*
X29555000Y-22650000D03*
X30825000Y-22650000D03*
X32095000Y-22650000D03*
X33365000Y-22650000D03*
X34635000Y-22650000D03*
X35905000Y-22650000D03*
X37175000Y-22650000D03*
X38445000Y-22650000D03*
X39715000Y-22650000D03*
X39715000Y-13350000D03*
X38445000Y-13350000D03*
X37175000Y-13350000D03*
X35905000Y-13350000D03*
X34635000Y-13350000D03*
X33365000Y-13350000D03*
X32095000Y-13350000D03*
X30825000Y-13350000D03*
X29555000Y-13350000D03*
X28285000Y-13350000D03*
%TD*%
D11*
%TO.C,C5*%
X45050000Y-3500000D03*
X46950000Y-3500000D03*
%TD*%
D13*
%TO.C,R4*%
X29087500Y-32500000D03*
X30912500Y-32500000D03*
%TD*%
%TO.C,R6*%
X41087500Y-32500000D03*
X42912500Y-32500000D03*
%TD*%
D14*
%TO.C,U5*%
X8862500Y-2550000D03*
X8862500Y-3500000D03*
X8862500Y-4450000D03*
X11137500Y-4450000D03*
X11137500Y-2550000D03*
%TD*%
D15*
%TO.C,H4*%
X72000000Y-32000000D03*
%TD*%
D11*
%TO.C,C1*%
X17050000Y-3500000D03*
X18950000Y-3500000D03*
%TD*%
D15*
%TO.C,H1*%
X4000000Y-4000000D03*
%TD*%
D16*
%TO.C,U1*%
X57190000Y-20475000D03*
X58460000Y-20475000D03*
X59730000Y-20475000D03*
X61000000Y-20475000D03*
X62270000Y-20475000D03*
X63540000Y-20475000D03*
X64810000Y-20475000D03*
X64810000Y-15525000D03*
X63540000Y-15525000D03*
X62270000Y-15525000D03*
X61000000Y-15525000D03*
X59730000Y-15525000D03*
X58460000Y-15525000D03*
X57190000Y-15525000D03*
%TD*%
D11*
%TO.C,C4*%
X38050000Y-3500000D03*
X39950000Y-3500000D03*
%TD*%
D15*
%TO.C,H3*%
X4000000Y-32000000D03*
%TD*%
D13*
%TO.C,R8*%
X53087500Y-32500000D03*
X54912500Y-32500000D03*
%TD*%
%TO.C,R2*%
X17087500Y-32500000D03*
X18912500Y-32500000D03*
%TD*%
D11*
%TO.C,C3*%
X31050000Y-3500000D03*
X32950000Y-3500000D03*
%TD*%
D15*
%TO.C,H2*%
X72000000Y-4000000D03*
%TD*%
D11*
%TO.C,C6*%
X52050000Y-3500000D03*
X53950000Y-3500000D03*
%TD*%
D12*
%TO.C,U2*%
X14285000Y-22650000D03*
X15555000Y-22650000D03*
X16825000Y-22650000D03*
X18095000Y-22650000D03*
X19365000Y-22650000D03*
X20635000Y-22650000D03*
X21905000Y-22650000D03*
X23175000Y-22650000D03*
X24445000Y-22650000D03*
X25715000Y-22650000D03*
X25715000Y-13350000D03*
X24445000Y-13350000D03*
X23175000Y-13350000D03*
X21905000Y-13350000D03*
X20635000Y-13350000D03*
X19365000Y-13350000D03*
X18095000Y-13350000D03*
X16825000Y-13350000D03*
X15555000Y-13350000D03*
X14285000Y-13350000D03*
%TD*%
D13*
%TO.C,R3*%
X23087500Y-32500000D03*
X24912500Y-32500000D03*
%TD*%
%TO.C,R9*%
X59087500Y-32500000D03*
X60912500Y-32500000D03*
%TD*%
%TO.C,R5*%
X35087500Y-32500000D03*
X36912500Y-32500000D03*
%TD*%
D17*
%TO.C,J1*%
X8790000Y-7840000D03*
D18*
X11330000Y-7840000D03*
X13870000Y-7840000D03*
X16410000Y-7840000D03*
X18950000Y-7840000D03*
X21490000Y-7840000D03*
X24030000Y-7840000D03*
X26570000Y-7840000D03*
X29110000Y-7840000D03*
X31650000Y-7840000D03*
X34190000Y-7840000D03*
X36730000Y-7840000D03*
X39270000Y-7840000D03*
X41810000Y-7840000D03*
X44350000Y-7840000D03*
X46890000Y-7840000D03*
X49430000Y-7840000D03*
X51970000Y-7840000D03*
X54510000Y-7840000D03*
X57050000Y-7840000D03*
X59590000Y-7840000D03*
X62130000Y-7840000D03*
X64670000Y-7840000D03*
X67210000Y-7840000D03*
%TD*%
D17*
%TO.C,J4*%
X8790000Y-28160000D03*
D18*
X11330000Y-28160000D03*
X13870000Y-28160000D03*
X16410000Y-28160000D03*
X18950000Y-28160000D03*
X21490000Y-28160000D03*
X24030000Y-28160000D03*
X26570000Y-28160000D03*
X29110000Y-28160000D03*
X31650000Y-28160000D03*
X34190000Y-28160000D03*
X36730000Y-28160000D03*
X39270000Y-28160000D03*
X41810000Y-28160000D03*
X44350000Y-28160000D03*
X46890000Y-28160000D03*
X49430000Y-28160000D03*
X51970000Y-28160000D03*
X54510000Y-28160000D03*
X57050000Y-28160000D03*
X59590000Y-28160000D03*
X62130000Y-28160000D03*
X64670000Y-28160000D03*
X67210000Y-28160000D03*
%TD*%
D12*
%TO.C,U4*%
X42285000Y-22650000D03*
X43555000Y-22650000D03*
X44825000Y-22650000D03*
X46095000Y-22650000D03*
X47365000Y-22650000D03*
X48635000Y-22650000D03*
X49905000Y-22650000D03*
X51175000Y-22650000D03*
X52445000Y-22650000D03*
X53715000Y-22650000D03*
X53715000Y-13350000D03*
X52445000Y-13350000D03*
X51175000Y-13350000D03*
X49905000Y-13350000D03*
X48635000Y-13350000D03*
X47365000Y-13350000D03*
X46095000Y-13350000D03*
X44825000Y-13350000D03*
X43555000Y-13350000D03*
X42285000Y-13350000D03*
%TD*%
D13*
%TO.C,R1*%
X11087500Y-32500000D03*
X12912500Y-32500000D03*
%TD*%
%TO.C,R7*%
X47087500Y-32500000D03*
X48912500Y-32500000D03*
%TD*%
D17*
%TO.C,J2*%
X13870000Y-10380000D03*
D18*
X16410000Y-10380000D03*
X18950000Y-10380000D03*
X21490000Y-10380000D03*
X24030000Y-10380000D03*
X26570000Y-10380000D03*
X29110000Y-10380000D03*
X31650000Y-10380000D03*
X34190000Y-10380000D03*
X36730000Y-10380000D03*
X39270000Y-10380000D03*
X41810000Y-10380000D03*
X44350000Y-10380000D03*
X46890000Y-10380000D03*
X49430000Y-10380000D03*
X51970000Y-10380000D03*
X54510000Y-10380000D03*
X57050000Y-10380000D03*
X59590000Y-10380000D03*
X62130000Y-10380000D03*
%TD*%
D17*
%TO.C,J3*%
X62130000Y-25620000D03*
D18*
X59590000Y-25620000D03*
X57050000Y-25620000D03*
X54510000Y-25620000D03*
X51970000Y-25620000D03*
X49430000Y-25620000D03*
X46890000Y-25620000D03*
X44350000Y-25620000D03*
X41810000Y-25620000D03*
X39270000Y-25620000D03*
X36730000Y-25620000D03*
X34190000Y-25620000D03*
X31650000Y-25620000D03*
X29110000Y-25620000D03*
X26570000Y-25620000D03*
X24030000Y-25620000D03*
X21490000Y-25620000D03*
X18950000Y-25620000D03*
X16410000Y-25620000D03*
X13870000Y-25620000D03*
%TD*%
%LPD*%
M02*
