%TF.GenerationSoftware,KiCad,Pcbnew,10.0.4*%
%TF.CreationDate,2026-09-11T23:24:11-03:00*%
%TF.ProjectId,tia-fpga,7469612d-6670-4676-912e-6b696361645f,rev?*%
%TF.SameCoordinates,Original*%
%TF.FileFunction,Legend,Top*%
%TF.FilePolarity,Positive*%
%FSLAX46Y46*%
G04 Gerber Fmt 4.6, Leading zero omitted, Abs format (unit mm)*
G04 Created by KiCad (PCBNEW 10.0.4) date 2026-09-11 23:24:11*
%MOMM*%
%LPD*%
G01*
G04 APERTURE LIST*
G04 Aperture macros list*
%AMRoundRect*
0 Rectangle with rounded corners*
0 $1 Rounding radius*
0 $2 $3 $4 $5 $6 $7 $8 $9 X,Y pos of 4 corners*
0 Add a 4 corners polygon primitive as box body*
4,1,4,$2,$3,$4,$5,$6,$7,$8,$9,$2,$3,0*
0 Add four circle primitives for the rounded corners*
1,1,$1+$1,$2,$3*
1,1,$1+$1,$4,$5*
1,1,$1+$1,$6,$7*
1,1,$1+$1,$8,$9*
0 Add four rect primitives between the rounded corners*
20,1,$1+$1,$2,$3,$4,$5,0*
20,1,$1+$1,$4,$5,$6,$7,0*
20,1,$1+$1,$6,$7,$8,$9,0*
20,1,$1+$1,$8,$9,$2,$3,0*%
G04 Aperture macros list end*
%ADD10C,0.150000*%
%ADD11C,0.120000*%
%ADD12RoundRect,0.250000X-0.250000X-0.475000X0.250000X-0.475000X0.250000X0.475000X-0.250000X0.475000X0*%
%ADD13RoundRect,0.250000X-0.262500X-0.450000X0.262500X-0.450000X0.262500X0.450000X-0.262500X0.450000X0*%
%ADD14RoundRect,0.150000X-0.875000X-0.150000X0.875000X-0.150000X0.875000X0.150000X-0.875000X0.150000X0*%
%ADD15R,1.700000X1.700000*%
%ADD16C,1.700000*%
%ADD17RoundRect,0.150000X-0.512500X-0.150000X0.512500X-0.150000X0.512500X0.150000X-0.512500X0.150000X0*%
%ADD18RoundRect,0.150000X-0.825000X-0.150000X0.825000X-0.150000X0.825000X0.150000X-0.825000X0.150000X0*%
G04 APERTURE END LIST*
D10*
X55833333Y-64679580D02*
X55785714Y-64727200D01*
X55785714Y-64727200D02*
X55642857Y-64774819D01*
X55642857Y-64774819D02*
X55547619Y-64774819D01*
X55547619Y-64774819D02*
X55404762Y-64727200D01*
X55404762Y-64727200D02*
X55309524Y-64631961D01*
X55309524Y-64631961D02*
X55261905Y-64536723D01*
X55261905Y-64536723D02*
X55214286Y-64346247D01*
X55214286Y-64346247D02*
X55214286Y-64203390D01*
X55214286Y-64203390D02*
X55261905Y-64012914D01*
X55261905Y-64012914D02*
X55309524Y-63917676D01*
X55309524Y-63917676D02*
X55404762Y-63822438D01*
X55404762Y-63822438D02*
X55547619Y-63774819D01*
X55547619Y-63774819D02*
X55642857Y-63774819D01*
X55642857Y-63774819D02*
X55785714Y-63822438D01*
X55785714Y-63822438D02*
X55833333Y-63870057D01*
X56690476Y-64108152D02*
X56690476Y-64774819D01*
X56452381Y-63727200D02*
X56214286Y-64441485D01*
X56214286Y-64441485D02*
X56833333Y-64441485D01*
X55833333Y-38804819D02*
X55500000Y-38328628D01*
X55261905Y-38804819D02*
X55261905Y-37804819D01*
X55261905Y-37804819D02*
X55642857Y-37804819D01*
X55642857Y-37804819D02*
X55738095Y-37852438D01*
X55738095Y-37852438D02*
X55785714Y-37900057D01*
X55785714Y-37900057D02*
X55833333Y-37995295D01*
X55833333Y-37995295D02*
X55833333Y-38138152D01*
X55833333Y-38138152D02*
X55785714Y-38233390D01*
X55785714Y-38233390D02*
X55738095Y-38281009D01*
X55738095Y-38281009D02*
X55642857Y-38328628D01*
X55642857Y-38328628D02*
X55261905Y-38328628D01*
X56166667Y-37804819D02*
X56833333Y-37804819D01*
X56833333Y-37804819D02*
X56404762Y-38804819D01*
X7833333Y-38804819D02*
X7500000Y-38328628D01*
X7261905Y-38804819D02*
X7261905Y-37804819D01*
X7261905Y-37804819D02*
X7642857Y-37804819D01*
X7642857Y-37804819D02*
X7738095Y-37852438D01*
X7738095Y-37852438D02*
X7785714Y-37900057D01*
X7785714Y-37900057D02*
X7833333Y-37995295D01*
X7833333Y-37995295D02*
X7833333Y-38138152D01*
X7833333Y-38138152D02*
X7785714Y-38233390D01*
X7785714Y-38233390D02*
X7738095Y-38281009D01*
X7738095Y-38281009D02*
X7642857Y-38328628D01*
X7642857Y-38328628D02*
X7261905Y-38328628D01*
X8785714Y-38804819D02*
X8214286Y-38804819D01*
X8500000Y-38804819D02*
X8500000Y-37804819D01*
X8500000Y-37804819D02*
X8404762Y-37947676D01*
X8404762Y-37947676D02*
X8309524Y-38042914D01*
X8309524Y-38042914D02*
X8214286Y-38090533D01*
X49833333Y-64679580D02*
X49785714Y-64727200D01*
X49785714Y-64727200D02*
X49642857Y-64774819D01*
X49642857Y-64774819D02*
X49547619Y-64774819D01*
X49547619Y-64774819D02*
X49404762Y-64727200D01*
X49404762Y-64727200D02*
X49309524Y-64631961D01*
X49309524Y-64631961D02*
X49261905Y-64536723D01*
X49261905Y-64536723D02*
X49214286Y-64346247D01*
X49214286Y-64346247D02*
X49214286Y-64203390D01*
X49214286Y-64203390D02*
X49261905Y-64012914D01*
X49261905Y-64012914D02*
X49309524Y-63917676D01*
X49309524Y-63917676D02*
X49404762Y-63822438D01*
X49404762Y-63822438D02*
X49547619Y-63774819D01*
X49547619Y-63774819D02*
X49642857Y-63774819D01*
X49642857Y-63774819D02*
X49785714Y-63822438D01*
X49785714Y-63822438D02*
X49833333Y-63870057D01*
X50166667Y-63774819D02*
X50785714Y-63774819D01*
X50785714Y-63774819D02*
X50452381Y-64155771D01*
X50452381Y-64155771D02*
X50595238Y-64155771D01*
X50595238Y-64155771D02*
X50690476Y-64203390D01*
X50690476Y-64203390D02*
X50738095Y-64251009D01*
X50738095Y-64251009D02*
X50785714Y-64346247D01*
X50785714Y-64346247D02*
X50785714Y-64584342D01*
X50785714Y-64584342D02*
X50738095Y-64679580D01*
X50738095Y-64679580D02*
X50690476Y-64727200D01*
X50690476Y-64727200D02*
X50595238Y-64774819D01*
X50595238Y-64774819D02*
X50309524Y-64774819D01*
X50309524Y-64774819D02*
X50214286Y-64727200D01*
X50214286Y-64727200D02*
X50166667Y-64679580D01*
X57238095Y-44104819D02*
X57238095Y-44914342D01*
X57238095Y-44914342D02*
X57285714Y-45009580D01*
X57285714Y-45009580D02*
X57333333Y-45057200D01*
X57333333Y-45057200D02*
X57428571Y-45104819D01*
X57428571Y-45104819D02*
X57619047Y-45104819D01*
X57619047Y-45104819D02*
X57714285Y-45057200D01*
X57714285Y-45057200D02*
X57761904Y-45009580D01*
X57761904Y-45009580D02*
X57809523Y-44914342D01*
X57809523Y-44914342D02*
X57809523Y-44104819D01*
X58714285Y-44438152D02*
X58714285Y-45104819D01*
X58476190Y-44057200D02*
X58238095Y-44771485D01*
X58238095Y-44771485D02*
X58857142Y-44771485D01*
X8944819Y-80333333D02*
X9659104Y-80333333D01*
X9659104Y-80333333D02*
X9801961Y-80380952D01*
X9801961Y-80380952D02*
X9897200Y-80476190D01*
X9897200Y-80476190D02*
X9944819Y-80619047D01*
X9944819Y-80619047D02*
X9944819Y-80714285D01*
X9040057Y-79904761D02*
X8992438Y-79857142D01*
X8992438Y-79857142D02*
X8944819Y-79761904D01*
X8944819Y-79761904D02*
X8944819Y-79523809D01*
X8944819Y-79523809D02*
X8992438Y-79428571D01*
X8992438Y-79428571D02*
X9040057Y-79380952D01*
X9040057Y-79380952D02*
X9135295Y-79333333D01*
X9135295Y-79333333D02*
X9230533Y-79333333D01*
X9230533Y-79333333D02*
X9373390Y-79380952D01*
X9373390Y-79380952D02*
X9944819Y-79952380D01*
X9944819Y-79952380D02*
X9944819Y-79333333D01*
X63833333Y-38804819D02*
X63500000Y-38328628D01*
X63261905Y-38804819D02*
X63261905Y-37804819D01*
X63261905Y-37804819D02*
X63642857Y-37804819D01*
X63642857Y-37804819D02*
X63738095Y-37852438D01*
X63738095Y-37852438D02*
X63785714Y-37900057D01*
X63785714Y-37900057D02*
X63833333Y-37995295D01*
X63833333Y-37995295D02*
X63833333Y-38138152D01*
X63833333Y-38138152D02*
X63785714Y-38233390D01*
X63785714Y-38233390D02*
X63738095Y-38281009D01*
X63738095Y-38281009D02*
X63642857Y-38328628D01*
X63642857Y-38328628D02*
X63261905Y-38328628D01*
X64404762Y-38233390D02*
X64309524Y-38185771D01*
X64309524Y-38185771D02*
X64261905Y-38138152D01*
X64261905Y-38138152D02*
X64214286Y-38042914D01*
X64214286Y-38042914D02*
X64214286Y-37995295D01*
X64214286Y-37995295D02*
X64261905Y-37900057D01*
X64261905Y-37900057D02*
X64309524Y-37852438D01*
X64309524Y-37852438D02*
X64404762Y-37804819D01*
X64404762Y-37804819D02*
X64595238Y-37804819D01*
X64595238Y-37804819D02*
X64690476Y-37852438D01*
X64690476Y-37852438D02*
X64738095Y-37900057D01*
X64738095Y-37900057D02*
X64785714Y-37995295D01*
X64785714Y-37995295D02*
X64785714Y-38042914D01*
X64785714Y-38042914D02*
X64738095Y-38138152D01*
X64738095Y-38138152D02*
X64690476Y-38185771D01*
X64690476Y-38185771D02*
X64595238Y-38233390D01*
X64595238Y-38233390D02*
X64404762Y-38233390D01*
X64404762Y-38233390D02*
X64309524Y-38281009D01*
X64309524Y-38281009D02*
X64261905Y-38328628D01*
X64261905Y-38328628D02*
X64214286Y-38423866D01*
X64214286Y-38423866D02*
X64214286Y-38614342D01*
X64214286Y-38614342D02*
X64261905Y-38709580D01*
X64261905Y-38709580D02*
X64309524Y-38757200D01*
X64309524Y-38757200D02*
X64404762Y-38804819D01*
X64404762Y-38804819D02*
X64595238Y-38804819D01*
X64595238Y-38804819D02*
X64690476Y-38757200D01*
X64690476Y-38757200D02*
X64738095Y-38709580D01*
X64738095Y-38709580D02*
X64785714Y-38614342D01*
X64785714Y-38614342D02*
X64785714Y-38423866D01*
X64785714Y-38423866D02*
X64738095Y-38328628D01*
X64738095Y-38328628D02*
X64690476Y-38281009D01*
X64690476Y-38281009D02*
X64595238Y-38233390D01*
X15833333Y-38804819D02*
X15500000Y-38328628D01*
X15261905Y-38804819D02*
X15261905Y-37804819D01*
X15261905Y-37804819D02*
X15642857Y-37804819D01*
X15642857Y-37804819D02*
X15738095Y-37852438D01*
X15738095Y-37852438D02*
X15785714Y-37900057D01*
X15785714Y-37900057D02*
X15833333Y-37995295D01*
X15833333Y-37995295D02*
X15833333Y-38138152D01*
X15833333Y-38138152D02*
X15785714Y-38233390D01*
X15785714Y-38233390D02*
X15738095Y-38281009D01*
X15738095Y-38281009D02*
X15642857Y-38328628D01*
X15642857Y-38328628D02*
X15261905Y-38328628D01*
X16214286Y-37900057D02*
X16261905Y-37852438D01*
X16261905Y-37852438D02*
X16357143Y-37804819D01*
X16357143Y-37804819D02*
X16595238Y-37804819D01*
X16595238Y-37804819D02*
X16690476Y-37852438D01*
X16690476Y-37852438D02*
X16738095Y-37900057D01*
X16738095Y-37900057D02*
X16785714Y-37995295D01*
X16785714Y-37995295D02*
X16785714Y-38090533D01*
X16785714Y-38090533D02*
X16738095Y-38233390D01*
X16738095Y-38233390D02*
X16166667Y-38804819D01*
X16166667Y-38804819D02*
X16785714Y-38804819D01*
X37833333Y-64679580D02*
X37785714Y-64727200D01*
X37785714Y-64727200D02*
X37642857Y-64774819D01*
X37642857Y-64774819D02*
X37547619Y-64774819D01*
X37547619Y-64774819D02*
X37404762Y-64727200D01*
X37404762Y-64727200D02*
X37309524Y-64631961D01*
X37309524Y-64631961D02*
X37261905Y-64536723D01*
X37261905Y-64536723D02*
X37214286Y-64346247D01*
X37214286Y-64346247D02*
X37214286Y-64203390D01*
X37214286Y-64203390D02*
X37261905Y-64012914D01*
X37261905Y-64012914D02*
X37309524Y-63917676D01*
X37309524Y-63917676D02*
X37404762Y-63822438D01*
X37404762Y-63822438D02*
X37547619Y-63774819D01*
X37547619Y-63774819D02*
X37642857Y-63774819D01*
X37642857Y-63774819D02*
X37785714Y-63822438D01*
X37785714Y-63822438D02*
X37833333Y-63870057D01*
X38785714Y-64774819D02*
X38214286Y-64774819D01*
X38500000Y-64774819D02*
X38500000Y-63774819D01*
X38500000Y-63774819D02*
X38404762Y-63917676D01*
X38404762Y-63917676D02*
X38309524Y-64012914D01*
X38309524Y-64012914D02*
X38214286Y-64060533D01*
X3474819Y-10333333D02*
X4189104Y-10333333D01*
X4189104Y-10333333D02*
X4331961Y-10380952D01*
X4331961Y-10380952D02*
X4427200Y-10476190D01*
X4427200Y-10476190D02*
X4474819Y-10619047D01*
X4474819Y-10619047D02*
X4474819Y-10714285D01*
X4474819Y-9333333D02*
X4474819Y-9904761D01*
X4474819Y-9619047D02*
X3474819Y-9619047D01*
X3474819Y-9619047D02*
X3617676Y-9714285D01*
X3617676Y-9714285D02*
X3712914Y-9809523D01*
X3712914Y-9809523D02*
X3760533Y-9904761D01*
X67833333Y-64679580D02*
X67785714Y-64727200D01*
X67785714Y-64727200D02*
X67642857Y-64774819D01*
X67642857Y-64774819D02*
X67547619Y-64774819D01*
X67547619Y-64774819D02*
X67404762Y-64727200D01*
X67404762Y-64727200D02*
X67309524Y-64631961D01*
X67309524Y-64631961D02*
X67261905Y-64536723D01*
X67261905Y-64536723D02*
X67214286Y-64346247D01*
X67214286Y-64346247D02*
X67214286Y-64203390D01*
X67214286Y-64203390D02*
X67261905Y-64012914D01*
X67261905Y-64012914D02*
X67309524Y-63917676D01*
X67309524Y-63917676D02*
X67404762Y-63822438D01*
X67404762Y-63822438D02*
X67547619Y-63774819D01*
X67547619Y-63774819D02*
X67642857Y-63774819D01*
X67642857Y-63774819D02*
X67785714Y-63822438D01*
X67785714Y-63822438D02*
X67833333Y-63870057D01*
X68690476Y-63774819D02*
X68500000Y-63774819D01*
X68500000Y-63774819D02*
X68404762Y-63822438D01*
X68404762Y-63822438D02*
X68357143Y-63870057D01*
X68357143Y-63870057D02*
X68261905Y-64012914D01*
X68261905Y-64012914D02*
X68214286Y-64203390D01*
X68214286Y-64203390D02*
X68214286Y-64584342D01*
X68214286Y-64584342D02*
X68261905Y-64679580D01*
X68261905Y-64679580D02*
X68309524Y-64727200D01*
X68309524Y-64727200D02*
X68404762Y-64774819D01*
X68404762Y-64774819D02*
X68595238Y-64774819D01*
X68595238Y-64774819D02*
X68690476Y-64727200D01*
X68690476Y-64727200D02*
X68738095Y-64679580D01*
X68738095Y-64679580D02*
X68785714Y-64584342D01*
X68785714Y-64584342D02*
X68785714Y-64346247D01*
X68785714Y-64346247D02*
X68738095Y-64251009D01*
X68738095Y-64251009D02*
X68690476Y-64203390D01*
X68690476Y-64203390D02*
X68595238Y-64155771D01*
X68595238Y-64155771D02*
X68404762Y-64155771D01*
X68404762Y-64155771D02*
X68309524Y-64203390D01*
X68309524Y-64203390D02*
X68261905Y-64251009D01*
X68261905Y-64251009D02*
X68214286Y-64346247D01*
X39833333Y-38804819D02*
X39500000Y-38328628D01*
X39261905Y-38804819D02*
X39261905Y-37804819D01*
X39261905Y-37804819D02*
X39642857Y-37804819D01*
X39642857Y-37804819D02*
X39738095Y-37852438D01*
X39738095Y-37852438D02*
X39785714Y-37900057D01*
X39785714Y-37900057D02*
X39833333Y-37995295D01*
X39833333Y-37995295D02*
X39833333Y-38138152D01*
X39833333Y-38138152D02*
X39785714Y-38233390D01*
X39785714Y-38233390D02*
X39738095Y-38281009D01*
X39738095Y-38281009D02*
X39642857Y-38328628D01*
X39642857Y-38328628D02*
X39261905Y-38328628D01*
X40738095Y-37804819D02*
X40261905Y-37804819D01*
X40261905Y-37804819D02*
X40214286Y-38281009D01*
X40214286Y-38281009D02*
X40261905Y-38233390D01*
X40261905Y-38233390D02*
X40357143Y-38185771D01*
X40357143Y-38185771D02*
X40595238Y-38185771D01*
X40595238Y-38185771D02*
X40690476Y-38233390D01*
X40690476Y-38233390D02*
X40738095Y-38281009D01*
X40738095Y-38281009D02*
X40785714Y-38376247D01*
X40785714Y-38376247D02*
X40785714Y-38614342D01*
X40785714Y-38614342D02*
X40738095Y-38709580D01*
X40738095Y-38709580D02*
X40690476Y-38757200D01*
X40690476Y-38757200D02*
X40595238Y-38804819D01*
X40595238Y-38804819D02*
X40357143Y-38804819D01*
X40357143Y-38804819D02*
X40261905Y-38757200D01*
X40261905Y-38757200D02*
X40214286Y-38709580D01*
X61833333Y-64679580D02*
X61785714Y-64727200D01*
X61785714Y-64727200D02*
X61642857Y-64774819D01*
X61642857Y-64774819D02*
X61547619Y-64774819D01*
X61547619Y-64774819D02*
X61404762Y-64727200D01*
X61404762Y-64727200D02*
X61309524Y-64631961D01*
X61309524Y-64631961D02*
X61261905Y-64536723D01*
X61261905Y-64536723D02*
X61214286Y-64346247D01*
X61214286Y-64346247D02*
X61214286Y-64203390D01*
X61214286Y-64203390D02*
X61261905Y-64012914D01*
X61261905Y-64012914D02*
X61309524Y-63917676D01*
X61309524Y-63917676D02*
X61404762Y-63822438D01*
X61404762Y-63822438D02*
X61547619Y-63774819D01*
X61547619Y-63774819D02*
X61642857Y-63774819D01*
X61642857Y-63774819D02*
X61785714Y-63822438D01*
X61785714Y-63822438D02*
X61833333Y-63870057D01*
X62738095Y-63774819D02*
X62261905Y-63774819D01*
X62261905Y-63774819D02*
X62214286Y-64251009D01*
X62214286Y-64251009D02*
X62261905Y-64203390D01*
X62261905Y-64203390D02*
X62357143Y-64155771D01*
X62357143Y-64155771D02*
X62595238Y-64155771D01*
X62595238Y-64155771D02*
X62690476Y-64203390D01*
X62690476Y-64203390D02*
X62738095Y-64251009D01*
X62738095Y-64251009D02*
X62785714Y-64346247D01*
X62785714Y-64346247D02*
X62785714Y-64584342D01*
X62785714Y-64584342D02*
X62738095Y-64679580D01*
X62738095Y-64679580D02*
X62690476Y-64727200D01*
X62690476Y-64727200D02*
X62595238Y-64774819D01*
X62595238Y-64774819D02*
X62357143Y-64774819D01*
X62357143Y-64774819D02*
X62261905Y-64727200D01*
X62261905Y-64727200D02*
X62214286Y-64679580D01*
X13238095Y-44104819D02*
X13238095Y-44914342D01*
X13238095Y-44914342D02*
X13285714Y-45009580D01*
X13285714Y-45009580D02*
X13333333Y-45057200D01*
X13333333Y-45057200D02*
X13428571Y-45104819D01*
X13428571Y-45104819D02*
X13619047Y-45104819D01*
X13619047Y-45104819D02*
X13714285Y-45057200D01*
X13714285Y-45057200D02*
X13761904Y-45009580D01*
X13761904Y-45009580D02*
X13809523Y-44914342D01*
X13809523Y-44914342D02*
X13809523Y-44104819D01*
X14190476Y-44104819D02*
X14809523Y-44104819D01*
X14809523Y-44104819D02*
X14476190Y-44485771D01*
X14476190Y-44485771D02*
X14619047Y-44485771D01*
X14619047Y-44485771D02*
X14714285Y-44533390D01*
X14714285Y-44533390D02*
X14761904Y-44581009D01*
X14761904Y-44581009D02*
X14809523Y-44676247D01*
X14809523Y-44676247D02*
X14809523Y-44914342D01*
X14809523Y-44914342D02*
X14761904Y-45009580D01*
X14761904Y-45009580D02*
X14714285Y-45057200D01*
X14714285Y-45057200D02*
X14619047Y-45104819D01*
X14619047Y-45104819D02*
X14333333Y-45104819D01*
X14333333Y-45104819D02*
X14238095Y-45057200D01*
X14238095Y-45057200D02*
X14190476Y-45009580D01*
X27238095Y-63054819D02*
X27238095Y-63864342D01*
X27238095Y-63864342D02*
X27285714Y-63959580D01*
X27285714Y-63959580D02*
X27333333Y-64007200D01*
X27333333Y-64007200D02*
X27428571Y-64054819D01*
X27428571Y-64054819D02*
X27619047Y-64054819D01*
X27619047Y-64054819D02*
X27714285Y-64007200D01*
X27714285Y-64007200D02*
X27761904Y-63959580D01*
X27761904Y-63959580D02*
X27809523Y-63864342D01*
X27809523Y-63864342D02*
X27809523Y-63054819D01*
X28761904Y-63054819D02*
X28285714Y-63054819D01*
X28285714Y-63054819D02*
X28238095Y-63531009D01*
X28238095Y-63531009D02*
X28285714Y-63483390D01*
X28285714Y-63483390D02*
X28380952Y-63435771D01*
X28380952Y-63435771D02*
X28619047Y-63435771D01*
X28619047Y-63435771D02*
X28714285Y-63483390D01*
X28714285Y-63483390D02*
X28761904Y-63531009D01*
X28761904Y-63531009D02*
X28809523Y-63626247D01*
X28809523Y-63626247D02*
X28809523Y-63864342D01*
X28809523Y-63864342D02*
X28761904Y-63959580D01*
X28761904Y-63959580D02*
X28714285Y-64007200D01*
X28714285Y-64007200D02*
X28619047Y-64054819D01*
X28619047Y-64054819D02*
X28380952Y-64054819D01*
X28380952Y-64054819D02*
X28285714Y-64007200D01*
X28285714Y-64007200D02*
X28238095Y-63959580D01*
X35238095Y-44104819D02*
X35238095Y-44914342D01*
X35238095Y-44914342D02*
X35285714Y-45009580D01*
X35285714Y-45009580D02*
X35333333Y-45057200D01*
X35333333Y-45057200D02*
X35428571Y-45104819D01*
X35428571Y-45104819D02*
X35619047Y-45104819D01*
X35619047Y-45104819D02*
X35714285Y-45057200D01*
X35714285Y-45057200D02*
X35761904Y-45009580D01*
X35761904Y-45009580D02*
X35809523Y-44914342D01*
X35809523Y-44914342D02*
X35809523Y-44104819D01*
X36238095Y-44200057D02*
X36285714Y-44152438D01*
X36285714Y-44152438D02*
X36380952Y-44104819D01*
X36380952Y-44104819D02*
X36619047Y-44104819D01*
X36619047Y-44104819D02*
X36714285Y-44152438D01*
X36714285Y-44152438D02*
X36761904Y-44200057D01*
X36761904Y-44200057D02*
X36809523Y-44295295D01*
X36809523Y-44295295D02*
X36809523Y-44390533D01*
X36809523Y-44390533D02*
X36761904Y-44533390D01*
X36761904Y-44533390D02*
X36190476Y-45104819D01*
X36190476Y-45104819D02*
X36809523Y-45104819D01*
X3474819Y-30653333D02*
X4189104Y-30653333D01*
X4189104Y-30653333D02*
X4331961Y-30700952D01*
X4331961Y-30700952D02*
X4427200Y-30796190D01*
X4427200Y-30796190D02*
X4474819Y-30939047D01*
X4474819Y-30939047D02*
X4474819Y-31034285D01*
X3808152Y-29748571D02*
X4474819Y-29748571D01*
X3427200Y-29986666D02*
X4141485Y-30224761D01*
X4141485Y-30224761D02*
X4141485Y-29605714D01*
X13238095Y-60174819D02*
X13238095Y-60984342D01*
X13238095Y-60984342D02*
X13285714Y-61079580D01*
X13285714Y-61079580D02*
X13333333Y-61127200D01*
X13333333Y-61127200D02*
X13428571Y-61174819D01*
X13428571Y-61174819D02*
X13619047Y-61174819D01*
X13619047Y-61174819D02*
X13714285Y-61127200D01*
X13714285Y-61127200D02*
X13761904Y-61079580D01*
X13761904Y-61079580D02*
X13809523Y-60984342D01*
X13809523Y-60984342D02*
X13809523Y-60174819D01*
X14809523Y-61174819D02*
X14238095Y-61174819D01*
X14523809Y-61174819D02*
X14523809Y-60174819D01*
X14523809Y-60174819D02*
X14428571Y-60317676D01*
X14428571Y-60317676D02*
X14333333Y-60412914D01*
X14333333Y-60412914D02*
X14238095Y-60460533D01*
X47833333Y-38804819D02*
X47500000Y-38328628D01*
X47261905Y-38804819D02*
X47261905Y-37804819D01*
X47261905Y-37804819D02*
X47642857Y-37804819D01*
X47642857Y-37804819D02*
X47738095Y-37852438D01*
X47738095Y-37852438D02*
X47785714Y-37900057D01*
X47785714Y-37900057D02*
X47833333Y-37995295D01*
X47833333Y-37995295D02*
X47833333Y-38138152D01*
X47833333Y-38138152D02*
X47785714Y-38233390D01*
X47785714Y-38233390D02*
X47738095Y-38281009D01*
X47738095Y-38281009D02*
X47642857Y-38328628D01*
X47642857Y-38328628D02*
X47261905Y-38328628D01*
X48690476Y-37804819D02*
X48500000Y-37804819D01*
X48500000Y-37804819D02*
X48404762Y-37852438D01*
X48404762Y-37852438D02*
X48357143Y-37900057D01*
X48357143Y-37900057D02*
X48261905Y-38042914D01*
X48261905Y-38042914D02*
X48214286Y-38233390D01*
X48214286Y-38233390D02*
X48214286Y-38614342D01*
X48214286Y-38614342D02*
X48261905Y-38709580D01*
X48261905Y-38709580D02*
X48309524Y-38757200D01*
X48309524Y-38757200D02*
X48404762Y-38804819D01*
X48404762Y-38804819D02*
X48595238Y-38804819D01*
X48595238Y-38804819D02*
X48690476Y-38757200D01*
X48690476Y-38757200D02*
X48738095Y-38709580D01*
X48738095Y-38709580D02*
X48785714Y-38614342D01*
X48785714Y-38614342D02*
X48785714Y-38376247D01*
X48785714Y-38376247D02*
X48738095Y-38281009D01*
X48738095Y-38281009D02*
X48690476Y-38233390D01*
X48690476Y-38233390D02*
X48595238Y-38185771D01*
X48595238Y-38185771D02*
X48404762Y-38185771D01*
X48404762Y-38185771D02*
X48309524Y-38233390D01*
X48309524Y-38233390D02*
X48261905Y-38281009D01*
X48261905Y-38281009D02*
X48214286Y-38376247D01*
X43833333Y-64679580D02*
X43785714Y-64727200D01*
X43785714Y-64727200D02*
X43642857Y-64774819D01*
X43642857Y-64774819D02*
X43547619Y-64774819D01*
X43547619Y-64774819D02*
X43404762Y-64727200D01*
X43404762Y-64727200D02*
X43309524Y-64631961D01*
X43309524Y-64631961D02*
X43261905Y-64536723D01*
X43261905Y-64536723D02*
X43214286Y-64346247D01*
X43214286Y-64346247D02*
X43214286Y-64203390D01*
X43214286Y-64203390D02*
X43261905Y-64012914D01*
X43261905Y-64012914D02*
X43309524Y-63917676D01*
X43309524Y-63917676D02*
X43404762Y-63822438D01*
X43404762Y-63822438D02*
X43547619Y-63774819D01*
X43547619Y-63774819D02*
X43642857Y-63774819D01*
X43642857Y-63774819D02*
X43785714Y-63822438D01*
X43785714Y-63822438D02*
X43833333Y-63870057D01*
X44214286Y-63870057D02*
X44261905Y-63822438D01*
X44261905Y-63822438D02*
X44357143Y-63774819D01*
X44357143Y-63774819D02*
X44595238Y-63774819D01*
X44595238Y-63774819D02*
X44690476Y-63822438D01*
X44690476Y-63822438D02*
X44738095Y-63870057D01*
X44738095Y-63870057D02*
X44785714Y-63965295D01*
X44785714Y-63965295D02*
X44785714Y-64060533D01*
X44785714Y-64060533D02*
X44738095Y-64203390D01*
X44738095Y-64203390D02*
X44166667Y-64774819D01*
X44166667Y-64774819D02*
X44785714Y-64774819D01*
X23833333Y-38804819D02*
X23500000Y-38328628D01*
X23261905Y-38804819D02*
X23261905Y-37804819D01*
X23261905Y-37804819D02*
X23642857Y-37804819D01*
X23642857Y-37804819D02*
X23738095Y-37852438D01*
X23738095Y-37852438D02*
X23785714Y-37900057D01*
X23785714Y-37900057D02*
X23833333Y-37995295D01*
X23833333Y-37995295D02*
X23833333Y-38138152D01*
X23833333Y-38138152D02*
X23785714Y-38233390D01*
X23785714Y-38233390D02*
X23738095Y-38281009D01*
X23738095Y-38281009D02*
X23642857Y-38328628D01*
X23642857Y-38328628D02*
X23261905Y-38328628D01*
X24166667Y-37804819D02*
X24785714Y-37804819D01*
X24785714Y-37804819D02*
X24452381Y-38185771D01*
X24452381Y-38185771D02*
X24595238Y-38185771D01*
X24595238Y-38185771D02*
X24690476Y-38233390D01*
X24690476Y-38233390D02*
X24738095Y-38281009D01*
X24738095Y-38281009D02*
X24785714Y-38376247D01*
X24785714Y-38376247D02*
X24785714Y-38614342D01*
X24785714Y-38614342D02*
X24738095Y-38709580D01*
X24738095Y-38709580D02*
X24690476Y-38757200D01*
X24690476Y-38757200D02*
X24595238Y-38804819D01*
X24595238Y-38804819D02*
X24309524Y-38804819D01*
X24309524Y-38804819D02*
X24214286Y-38757200D01*
X24214286Y-38757200D02*
X24166667Y-38709580D01*
X61964819Y-95573333D02*
X62679104Y-95573333D01*
X62679104Y-95573333D02*
X62821961Y-95620952D01*
X62821961Y-95620952D02*
X62917200Y-95716190D01*
X62917200Y-95716190D02*
X62964819Y-95859047D01*
X62964819Y-95859047D02*
X62964819Y-95954285D01*
X61964819Y-95192380D02*
X61964819Y-94573333D01*
X61964819Y-94573333D02*
X62345771Y-94906666D01*
X62345771Y-94906666D02*
X62345771Y-94763809D01*
X62345771Y-94763809D02*
X62393390Y-94668571D01*
X62393390Y-94668571D02*
X62441009Y-94620952D01*
X62441009Y-94620952D02*
X62536247Y-94573333D01*
X62536247Y-94573333D02*
X62774342Y-94573333D01*
X62774342Y-94573333D02*
X62869580Y-94620952D01*
X62869580Y-94620952D02*
X62917200Y-94668571D01*
X62917200Y-94668571D02*
X62964819Y-94763809D01*
X62964819Y-94763809D02*
X62964819Y-95049523D01*
X62964819Y-95049523D02*
X62917200Y-95144761D01*
X62917200Y-95144761D02*
X62869580Y-95192380D01*
X31833333Y-38804819D02*
X31500000Y-38328628D01*
X31261905Y-38804819D02*
X31261905Y-37804819D01*
X31261905Y-37804819D02*
X31642857Y-37804819D01*
X31642857Y-37804819D02*
X31738095Y-37852438D01*
X31738095Y-37852438D02*
X31785714Y-37900057D01*
X31785714Y-37900057D02*
X31833333Y-37995295D01*
X31833333Y-37995295D02*
X31833333Y-38138152D01*
X31833333Y-38138152D02*
X31785714Y-38233390D01*
X31785714Y-38233390D02*
X31738095Y-38281009D01*
X31738095Y-38281009D02*
X31642857Y-38328628D01*
X31642857Y-38328628D02*
X31261905Y-38328628D01*
X32690476Y-38138152D02*
X32690476Y-38804819D01*
X32452381Y-37757200D02*
X32214286Y-38471485D01*
X32214286Y-38471485D02*
X32833333Y-38471485D01*
%TO.C,C4*%
D11*
X55738748Y-65265000D02*
X56261252Y-65265000D01*
X55738748Y-66735000D02*
X56261252Y-66735000D01*
%TO.C,R7*%
X55772936Y-39265000D02*
X56227064Y-39265000D01*
X55772936Y-40735000D02*
X56227064Y-40735000D01*
%TO.C,R1*%
X7772936Y-39265000D02*
X8227064Y-39265000D01*
X7772936Y-40735000D02*
X8227064Y-40735000D01*
%TO.C,C3*%
X49738748Y-65265000D02*
X50261252Y-65265000D01*
X49738748Y-66735000D02*
X50261252Y-66735000D01*
%TO.C,U4*%
X54140000Y-45490000D02*
X61860000Y-45490000D01*
X54140000Y-45725000D02*
X54140000Y-45490000D01*
X54140000Y-58510000D02*
X54140000Y-58275000D01*
X61860000Y-45490000D02*
X61860000Y-45725000D01*
X61860000Y-58275000D02*
X61860000Y-58510000D01*
X61860000Y-58510000D02*
X54140000Y-58510000D01*
X53350000Y-45720000D02*
X53010000Y-45250000D01*
X53690000Y-45250000D01*
X53350000Y-45720000D01*
G36*
X53350000Y-45720000D02*
G01*
X53010000Y-45250000D01*
X53690000Y-45250000D01*
X53350000Y-45720000D01*
G37*
%TO.C,J2*%
X10490000Y-81380000D02*
X10490000Y-80000000D01*
X11870000Y-81380000D02*
X10490000Y-81380000D01*
X13140000Y-78620000D02*
X61510000Y-78620000D01*
X13140000Y-81380000D02*
X13140000Y-78620000D01*
X13140000Y-81380000D02*
X61510000Y-81380000D01*
X61510000Y-81380000D02*
X61510000Y-78620000D01*
%TO.C,R8*%
X63772936Y-39265000D02*
X64227064Y-39265000D01*
X63772936Y-40735000D02*
X64227064Y-40735000D01*
%TO.C,R2*%
X15772936Y-39265000D02*
X16227064Y-39265000D01*
X15772936Y-40735000D02*
X16227064Y-40735000D01*
%TO.C,C1*%
X37738748Y-65265000D02*
X38261252Y-65265000D01*
X37738748Y-66735000D02*
X38261252Y-66735000D01*
%TO.C,J1*%
X5460000Y-8670000D02*
X6790000Y-8670000D01*
X5460000Y-10000000D02*
X5460000Y-8670000D01*
X8060000Y-8670000D02*
X66540000Y-8670000D01*
X8060000Y-11330000D02*
X8060000Y-8670000D01*
X8060000Y-11330000D02*
X66540000Y-11330000D01*
X66540000Y-11330000D02*
X66540000Y-8670000D01*
%TO.C,C6*%
X67738748Y-65265000D02*
X68261252Y-65265000D01*
X67738748Y-66735000D02*
X68261252Y-66735000D01*
%TO.C,R5*%
X39772936Y-39265000D02*
X40227064Y-39265000D01*
X39772936Y-40735000D02*
X40227064Y-40735000D01*
%TO.C,C5*%
X61738748Y-65265000D02*
X62261252Y-65265000D01*
X61738748Y-66735000D02*
X62261252Y-66735000D01*
%TO.C,U3*%
X10140000Y-45490000D02*
X17860000Y-45490000D01*
X10140000Y-45725000D02*
X10140000Y-45490000D01*
X10140000Y-58510000D02*
X10140000Y-58275000D01*
X17860000Y-45490000D02*
X17860000Y-45725000D01*
X17860000Y-58275000D02*
X17860000Y-58510000D01*
X17860000Y-58510000D02*
X10140000Y-58510000D01*
X9350000Y-45720000D02*
X9010000Y-45250000D01*
X9690000Y-45250000D01*
X9350000Y-45720000D01*
G36*
X9350000Y-45720000D02*
G01*
X9010000Y-45250000D01*
X9690000Y-45250000D01*
X9350000Y-45720000D01*
G37*
%TO.C,U5*%
X27090000Y-64440000D02*
X28910000Y-64440000D01*
X27090000Y-64490000D02*
X27090000Y-64440000D01*
X27090000Y-67560000D02*
X27090000Y-67510000D01*
X28910000Y-64440000D02*
X28910000Y-64490000D01*
X28910000Y-65610000D02*
X28910000Y-66390000D01*
X28910000Y-67510000D02*
X28910000Y-67560000D01*
X28910000Y-67560000D02*
X27090000Y-67560000D01*
X26550000Y-64490000D02*
X26310000Y-64160000D01*
X26790000Y-64160000D01*
X26550000Y-64490000D01*
G36*
X26550000Y-64490000D02*
G01*
X26310000Y-64160000D01*
X26790000Y-64160000D01*
X26550000Y-64490000D01*
G37*
%TO.C,U2*%
X32140000Y-45490000D02*
X39860000Y-45490000D01*
X32140000Y-45725000D02*
X32140000Y-45490000D01*
X32140000Y-58510000D02*
X32140000Y-58275000D01*
X39860000Y-45490000D02*
X39860000Y-45725000D01*
X39860000Y-58275000D02*
X39860000Y-58510000D01*
X39860000Y-58510000D02*
X32140000Y-58510000D01*
X31350000Y-45720000D02*
X31010000Y-45250000D01*
X31690000Y-45250000D01*
X31350000Y-45720000D01*
G36*
X31350000Y-45720000D02*
G01*
X31010000Y-45250000D01*
X31690000Y-45250000D01*
X31350000Y-45720000D01*
G37*
%TO.C,J4*%
X5460000Y-28990000D02*
X6790000Y-28990000D01*
X5460000Y-30320000D02*
X5460000Y-28990000D01*
X8060000Y-28990000D02*
X66540000Y-28990000D01*
X8060000Y-31650000D02*
X8060000Y-28990000D01*
X8060000Y-31650000D02*
X66540000Y-31650000D01*
X66540000Y-31650000D02*
X66540000Y-28990000D01*
%TO.C,U1*%
X11940000Y-61565000D02*
X16060000Y-61565000D01*
X11940000Y-61630000D02*
X11940000Y-61565000D01*
X11940000Y-70435000D02*
X11940000Y-70370000D01*
X16060000Y-61565000D02*
X16060000Y-61630000D01*
X16060000Y-70370000D02*
X16060000Y-70435000D01*
X16060000Y-70435000D02*
X11940000Y-70435000D01*
X11400000Y-61630000D02*
X11160000Y-61300000D01*
X11640000Y-61300000D01*
X11400000Y-61630000D01*
G36*
X11400000Y-61630000D02*
G01*
X11160000Y-61300000D01*
X11640000Y-61300000D01*
X11400000Y-61630000D01*
G37*
%TO.C,R6*%
X47772936Y-39265000D02*
X48227064Y-39265000D01*
X47772936Y-40735000D02*
X48227064Y-40735000D01*
%TO.C,C2*%
X43738748Y-65265000D02*
X44261252Y-65265000D01*
X43738748Y-66735000D02*
X44261252Y-66735000D01*
%TO.C,R3*%
X23772936Y-39265000D02*
X24227064Y-39265000D01*
X23772936Y-40735000D02*
X24227064Y-40735000D01*
%TO.C,J3*%
X10490000Y-93860000D02*
X10490000Y-96620000D01*
X58860000Y-93860000D02*
X10490000Y-93860000D01*
X58860000Y-93860000D02*
X58860000Y-96620000D01*
X58860000Y-96620000D02*
X10490000Y-96620000D01*
X60130000Y-93860000D02*
X61510000Y-93860000D01*
X61510000Y-93860000D02*
X61510000Y-95240000D01*
%TO.C,R4*%
X31772936Y-39265000D02*
X32227064Y-39265000D01*
X31772936Y-40735000D02*
X32227064Y-40735000D01*
%TD*%
%LPC*%
D12*
%TO.C,C4*%
X55050000Y-66000000D03*
X56950000Y-66000000D03*
%TD*%
D13*
%TO.C,R7*%
X55087500Y-40000000D03*
X56912500Y-40000000D03*
%TD*%
%TO.C,R1*%
X7087500Y-40000000D03*
X8912500Y-40000000D03*
%TD*%
D12*
%TO.C,C3*%
X49050000Y-66000000D03*
X50950000Y-66000000D03*
%TD*%
D14*
%TO.C,U4*%
X53350000Y-46285000D03*
X53350000Y-47555000D03*
X53350000Y-48825000D03*
X53350000Y-50095000D03*
X53350000Y-51365000D03*
X53350000Y-52635000D03*
X53350000Y-53905000D03*
X53350000Y-55175000D03*
X53350000Y-56445000D03*
X53350000Y-57715000D03*
X62650000Y-57715000D03*
X62650000Y-56445000D03*
X62650000Y-55175000D03*
X62650000Y-53905000D03*
X62650000Y-52635000D03*
X62650000Y-51365000D03*
X62650000Y-50095000D03*
X62650000Y-48825000D03*
X62650000Y-47555000D03*
X62650000Y-46285000D03*
%TD*%
D15*
%TO.C,J2*%
X11870000Y-80000000D03*
D16*
X14410000Y-80000000D03*
X16950000Y-80000000D03*
X19490000Y-80000000D03*
X22030000Y-80000000D03*
X24570000Y-80000000D03*
X27110000Y-80000000D03*
X29650000Y-80000000D03*
X32190000Y-80000000D03*
X34730000Y-80000000D03*
X37270000Y-80000000D03*
X39810000Y-80000000D03*
X42350000Y-80000000D03*
X44890000Y-80000000D03*
X47430000Y-80000000D03*
X49970000Y-80000000D03*
X52510000Y-80000000D03*
X55050000Y-80000000D03*
X57590000Y-80000000D03*
X60130000Y-80000000D03*
%TD*%
D13*
%TO.C,R8*%
X63087500Y-40000000D03*
X64912500Y-40000000D03*
%TD*%
%TO.C,R2*%
X15087500Y-40000000D03*
X16912500Y-40000000D03*
%TD*%
D12*
%TO.C,C1*%
X37050000Y-66000000D03*
X38950000Y-66000000D03*
%TD*%
D15*
%TO.C,J1*%
X6790000Y-10000000D03*
D16*
X9330000Y-10000000D03*
X11870000Y-10000000D03*
X14410000Y-10000000D03*
X16950000Y-10000000D03*
X19490000Y-10000000D03*
X22030000Y-10000000D03*
X24570000Y-10000000D03*
X27110000Y-10000000D03*
X29650000Y-10000000D03*
X32190000Y-10000000D03*
X34730000Y-10000000D03*
X37270000Y-10000000D03*
X39810000Y-10000000D03*
X42350000Y-10000000D03*
X44890000Y-10000000D03*
X47430000Y-10000000D03*
X49970000Y-10000000D03*
X52510000Y-10000000D03*
X55050000Y-10000000D03*
X57590000Y-10000000D03*
X60130000Y-10000000D03*
X62670000Y-10000000D03*
X65210000Y-10000000D03*
%TD*%
D12*
%TO.C,C6*%
X67050000Y-66000000D03*
X68950000Y-66000000D03*
%TD*%
D13*
%TO.C,R5*%
X39087500Y-40000000D03*
X40912500Y-40000000D03*
%TD*%
D12*
%TO.C,C5*%
X61050000Y-66000000D03*
X62950000Y-66000000D03*
%TD*%
D14*
%TO.C,U3*%
X9350000Y-46285000D03*
X9350000Y-47555000D03*
X9350000Y-48825000D03*
X9350000Y-50095000D03*
X9350000Y-51365000D03*
X9350000Y-52635000D03*
X9350000Y-53905000D03*
X9350000Y-55175000D03*
X9350000Y-56445000D03*
X9350000Y-57715000D03*
X18650000Y-57715000D03*
X18650000Y-56445000D03*
X18650000Y-55175000D03*
X18650000Y-53905000D03*
X18650000Y-52635000D03*
X18650000Y-51365000D03*
X18650000Y-50095000D03*
X18650000Y-48825000D03*
X18650000Y-47555000D03*
X18650000Y-46285000D03*
%TD*%
D17*
%TO.C,U5*%
X26862500Y-65050000D03*
X26862500Y-66000000D03*
X26862500Y-66950000D03*
X29137500Y-66950000D03*
X29137500Y-65050000D03*
%TD*%
D14*
%TO.C,U2*%
X31350000Y-46285000D03*
X31350000Y-47555000D03*
X31350000Y-48825000D03*
X31350000Y-50095000D03*
X31350000Y-51365000D03*
X31350000Y-52635000D03*
X31350000Y-53905000D03*
X31350000Y-55175000D03*
X31350000Y-56445000D03*
X31350000Y-57715000D03*
X40650000Y-57715000D03*
X40650000Y-56445000D03*
X40650000Y-55175000D03*
X40650000Y-53905000D03*
X40650000Y-52635000D03*
X40650000Y-51365000D03*
X40650000Y-50095000D03*
X40650000Y-48825000D03*
X40650000Y-47555000D03*
X40650000Y-46285000D03*
%TD*%
D15*
%TO.C,J4*%
X6790000Y-30320000D03*
D16*
X9330000Y-30320000D03*
X11870000Y-30320000D03*
X14410000Y-30320000D03*
X16950000Y-30320000D03*
X19490000Y-30320000D03*
X22030000Y-30320000D03*
X24570000Y-30320000D03*
X27110000Y-30320000D03*
X29650000Y-30320000D03*
X32190000Y-30320000D03*
X34730000Y-30320000D03*
X37270000Y-30320000D03*
X39810000Y-30320000D03*
X42350000Y-30320000D03*
X44890000Y-30320000D03*
X47430000Y-30320000D03*
X49970000Y-30320000D03*
X52510000Y-30320000D03*
X55050000Y-30320000D03*
X57590000Y-30320000D03*
X60130000Y-30320000D03*
X62670000Y-30320000D03*
X65210000Y-30320000D03*
%TD*%
D18*
%TO.C,U1*%
X11525000Y-62190000D03*
X11525000Y-63460000D03*
X11525000Y-64730000D03*
X11525000Y-66000000D03*
X11525000Y-67270000D03*
X11525000Y-68540000D03*
X11525000Y-69810000D03*
X16475000Y-69810000D03*
X16475000Y-68540000D03*
X16475000Y-67270000D03*
X16475000Y-66000000D03*
X16475000Y-64730000D03*
X16475000Y-63460000D03*
X16475000Y-62190000D03*
%TD*%
D13*
%TO.C,R6*%
X47087500Y-40000000D03*
X48912500Y-40000000D03*
%TD*%
D12*
%TO.C,C2*%
X43050000Y-66000000D03*
X44950000Y-66000000D03*
%TD*%
D13*
%TO.C,R3*%
X23087500Y-40000000D03*
X24912500Y-40000000D03*
%TD*%
D15*
%TO.C,J3*%
X60130000Y-95240000D03*
D16*
X57590000Y-95240000D03*
X55050000Y-95240000D03*
X52510000Y-95240000D03*
X49970000Y-95240000D03*
X47430000Y-95240000D03*
X44890000Y-95240000D03*
X42350000Y-95240000D03*
X39810000Y-95240000D03*
X37270000Y-95240000D03*
X34730000Y-95240000D03*
X32190000Y-95240000D03*
X29650000Y-95240000D03*
X27110000Y-95240000D03*
X24570000Y-95240000D03*
X22030000Y-95240000D03*
X19490000Y-95240000D03*
X16950000Y-95240000D03*
X14410000Y-95240000D03*
X11870000Y-95240000D03*
%TD*%
D13*
%TO.C,R4*%
X31087500Y-40000000D03*
X32912500Y-40000000D03*
%TD*%
%LPD*%
M02*
