%TF.GenerationSoftware,KiCad,Pcbnew,10.0.4*%
%TF.CreationDate,2026-09-11T23:24:11-03:00*%
%TF.ProjectId,tia-fpga,7469612d-6670-4676-912e-6b696361645f,rev?*%
%TF.SameCoordinates,Original*%
%TF.FileFunction,Soldermask,Top*%
%TF.FilePolarity,Negative*%
%FSLAX46Y46*%
G04 Gerber Fmt 4.6, Leading zero omitted, Abs format (unit mm)*
G04 Created by KiCad (PCBNEW 10.0.4) date 2026-09-11 23:24:11*
%MOMM*%
%LPD*%
G01*
G04 APERTURE LIST*
G04 Aperture macros list*
%AMRoundRect*
0 Rectangle with rounded corners*
0 $1 Rounding radius*
0 $2 $3 $4 $5 $6 $7 $8 $9 X,Y pos of 4 corners*
0 Add a 4 corners polygon primitive as box body*
4,1,4,$2,$3,$4,$5,$6,$7,$8,$9,$2,$3,0*
0 Add four circle primitives for the rounded corners*
1,1,$1+$1,$2,$3*
1,1,$1+$1,$4,$5*
1,1,$1+$1,$6,$7*
1,1,$1+$1,$8,$9*
0 Add four rect primitives between the rounded corners*
20,1,$1+$1,$2,$3,$4,$5,0*
20,1,$1+$1,$4,$5,$6,$7,0*
20,1,$1+$1,$6,$7,$8,$9,0*
20,1,$1+$1,$8,$9,$2,$3,0*%
G04 Aperture macros list end*
%ADD10RoundRect,0.250000X-0.250000X-0.475000X0.250000X-0.475000X0.250000X0.475000X-0.250000X0.475000X0*%
%ADD11RoundRect,0.250000X-0.262500X-0.450000X0.262500X-0.450000X0.262500X0.450000X-0.262500X0.450000X0*%
%ADD12RoundRect,0.150000X-0.875000X-0.150000X0.875000X-0.150000X0.875000X0.150000X-0.875000X0.150000X0*%
%ADD13R,1.700000X1.700000*%
%ADD14C,1.700000*%
%ADD15RoundRect,0.150000X-0.512500X-0.150000X0.512500X-0.150000X0.512500X0.150000X-0.512500X0.150000X0*%
%ADD16RoundRect,0.150000X-0.825000X-0.150000X0.825000X-0.150000X0.825000X0.150000X-0.825000X0.150000X0*%
G04 APERTURE END LIST*
D10*
%TO.C,C4*%
X55050000Y-66000000D03*
X56950000Y-66000000D03*
%TD*%
D11*
%TO.C,R7*%
X55087500Y-40000000D03*
X56912500Y-40000000D03*
%TD*%
%TO.C,R1*%
X7087500Y-40000000D03*
X8912500Y-40000000D03*
%TD*%
D10*
%TO.C,C3*%
X49050000Y-66000000D03*
X50950000Y-66000000D03*
%TD*%
D12*
%TO.C,U4*%
X53350000Y-46285000D03*
X53350000Y-47555000D03*
X53350000Y-48825000D03*
X53350000Y-50095000D03*
X53350000Y-51365000D03*
X53350000Y-52635000D03*
X53350000Y-53905000D03*
X53350000Y-55175000D03*
X53350000Y-56445000D03*
X53350000Y-57715000D03*
X62650000Y-57715000D03*
X62650000Y-56445000D03*
X62650000Y-55175000D03*
X62650000Y-53905000D03*
X62650000Y-52635000D03*
X62650000Y-51365000D03*
X62650000Y-50095000D03*
X62650000Y-48825000D03*
X62650000Y-47555000D03*
X62650000Y-46285000D03*
%TD*%
D13*
%TO.C,J2*%
X11870000Y-80000000D03*
D14*
X14410000Y-80000000D03*
X16950000Y-80000000D03*
X19490000Y-80000000D03*
X22030000Y-80000000D03*
X24570000Y-80000000D03*
X27110000Y-80000000D03*
X29650000Y-80000000D03*
X32190000Y-80000000D03*
X34730000Y-80000000D03*
X37270000Y-80000000D03*
X39810000Y-80000000D03*
X42350000Y-80000000D03*
X44890000Y-80000000D03*
X47430000Y-80000000D03*
X49970000Y-80000000D03*
X52510000Y-80000000D03*
X55050000Y-80000000D03*
X57590000Y-80000000D03*
X60130000Y-80000000D03*
%TD*%
D11*
%TO.C,R8*%
X63087500Y-40000000D03*
X64912500Y-40000000D03*
%TD*%
%TO.C,R2*%
X15087500Y-40000000D03*
X16912500Y-40000000D03*
%TD*%
D10*
%TO.C,C1*%
X37050000Y-66000000D03*
X38950000Y-66000000D03*
%TD*%
D13*
%TO.C,J1*%
X6790000Y-10000000D03*
D14*
X9330000Y-10000000D03*
X11870000Y-10000000D03*
X14410000Y-10000000D03*
X16950000Y-10000000D03*
X19490000Y-10000000D03*
X22030000Y-10000000D03*
X24570000Y-10000000D03*
X27110000Y-10000000D03*
X29650000Y-10000000D03*
X32190000Y-10000000D03*
X34730000Y-10000000D03*
X37270000Y-10000000D03*
X39810000Y-10000000D03*
X42350000Y-10000000D03*
X44890000Y-10000000D03*
X47430000Y-10000000D03*
X49970000Y-10000000D03*
X52510000Y-10000000D03*
X55050000Y-10000000D03*
X57590000Y-10000000D03*
X60130000Y-10000000D03*
X62670000Y-10000000D03*
X65210000Y-10000000D03*
%TD*%
D10*
%TO.C,C6*%
X67050000Y-66000000D03*
X68950000Y-66000000D03*
%TD*%
D11*
%TO.C,R5*%
X39087500Y-40000000D03*
X40912500Y-40000000D03*
%TD*%
D10*
%TO.C,C5*%
X61050000Y-66000000D03*
X62950000Y-66000000D03*
%TD*%
D12*
%TO.C,U3*%
X9350000Y-46285000D03*
X9350000Y-47555000D03*
X9350000Y-48825000D03*
X9350000Y-50095000D03*
X9350000Y-51365000D03*
X9350000Y-52635000D03*
X9350000Y-53905000D03*
X9350000Y-55175000D03*
X9350000Y-56445000D03*
X9350000Y-57715000D03*
X18650000Y-57715000D03*
X18650000Y-56445000D03*
X18650000Y-55175000D03*
X18650000Y-53905000D03*
X18650000Y-52635000D03*
X18650000Y-51365000D03*
X18650000Y-50095000D03*
X18650000Y-48825000D03*
X18650000Y-47555000D03*
X18650000Y-46285000D03*
%TD*%
D15*
%TO.C,U5*%
X26862500Y-65050000D03*
X26862500Y-66000000D03*
X26862500Y-66950000D03*
X29137500Y-66950000D03*
X29137500Y-65050000D03*
%TD*%
D12*
%TO.C,U2*%
X31350000Y-46285000D03*
X31350000Y-47555000D03*
X31350000Y-48825000D03*
X31350000Y-50095000D03*
X31350000Y-51365000D03*
X31350000Y-52635000D03*
X31350000Y-53905000D03*
X31350000Y-55175000D03*
X31350000Y-56445000D03*
X31350000Y-57715000D03*
X40650000Y-57715000D03*
X40650000Y-56445000D03*
X40650000Y-55175000D03*
X40650000Y-53905000D03*
X40650000Y-52635000D03*
X40650000Y-51365000D03*
X40650000Y-50095000D03*
X40650000Y-48825000D03*
X40650000Y-47555000D03*
X40650000Y-46285000D03*
%TD*%
D13*
%TO.C,J4*%
X6790000Y-30320000D03*
D14*
X9330000Y-30320000D03*
X11870000Y-30320000D03*
X14410000Y-30320000D03*
X16950000Y-30320000D03*
X19490000Y-30320000D03*
X22030000Y-30320000D03*
X24570000Y-30320000D03*
X27110000Y-30320000D03*
X29650000Y-30320000D03*
X32190000Y-30320000D03*
X34730000Y-30320000D03*
X37270000Y-30320000D03*
X39810000Y-30320000D03*
X42350000Y-30320000D03*
X44890000Y-30320000D03*
X47430000Y-30320000D03*
X49970000Y-30320000D03*
X52510000Y-30320000D03*
X55050000Y-30320000D03*
X57590000Y-30320000D03*
X60130000Y-30320000D03*
X62670000Y-30320000D03*
X65210000Y-30320000D03*
%TD*%
D16*
%TO.C,U1*%
X11525000Y-62190000D03*
X11525000Y-63460000D03*
X11525000Y-64730000D03*
X11525000Y-66000000D03*
X11525000Y-67270000D03*
X11525000Y-68540000D03*
X11525000Y-69810000D03*
X16475000Y-69810000D03*
X16475000Y-68540000D03*
X16475000Y-67270000D03*
X16475000Y-66000000D03*
X16475000Y-64730000D03*
X16475000Y-63460000D03*
X16475000Y-62190000D03*
%TD*%
D11*
%TO.C,R6*%
X47087500Y-40000000D03*
X48912500Y-40000000D03*
%TD*%
D10*
%TO.C,C2*%
X43050000Y-66000000D03*
X44950000Y-66000000D03*
%TD*%
D11*
%TO.C,R3*%
X23087500Y-40000000D03*
X24912500Y-40000000D03*
%TD*%
D13*
%TO.C,J3*%
X60130000Y-95240000D03*
D14*
X57590000Y-95240000D03*
X55050000Y-95240000D03*
X52510000Y-95240000D03*
X49970000Y-95240000D03*
X47430000Y-95240000D03*
X44890000Y-95240000D03*
X42350000Y-95240000D03*
X39810000Y-95240000D03*
X37270000Y-95240000D03*
X34730000Y-95240000D03*
X32190000Y-95240000D03*
X29650000Y-95240000D03*
X27110000Y-95240000D03*
X24570000Y-95240000D03*
X22030000Y-95240000D03*
X19490000Y-95240000D03*
X16950000Y-95240000D03*
X14410000Y-95240000D03*
X11870000Y-95240000D03*
%TD*%
D11*
%TO.C,R4*%
X31087500Y-40000000D03*
X32912500Y-40000000D03*
%TD*%
M02*
