M48
; DRILL file KiCad 10.0.4 date 2026-09-12T00:26:14
; FORMAT={-:-/ absolute / metric / decimal}
; #@! TF.CreationDate,2026-09-12T00:26:14-03:00
; #@! TF.GenerationSoftware,Kicad,Pcbnew,10.0.4
; #@! TF.FileFunction,MixedPlating,1,2
FMAT,2
METRIC
; #@! TA.AperFunction,Plated,PTH,ViaDrill
T1C0.300
; #@! TA.AperFunction,Plated,PTH,ComponentDrill
T2C1.000
%
G90
G05
T1
X4.718Y-24.901
X5.573Y-19.674
X9.23Y-19.784
X10.665Y-12.29
X10.731Y-4.45
X14.104Y-2.287
X15.372Y-3.682
X17.393Y-6.596
X18.014Y-9.778
X19.726Y-3.423
X19.79Y-4.879
X20.168Y-30.263
X24.635Y-19.182
X28.094Y-19.168
X29.472Y-4.715
X32.653Y-9.886
X33.89Y-2.538
X44.414Y-13.256
X45.16Y-6.401
X46.987Y-10.043
X48.032Y-19.276
X50.558Y-19.248
X52.114Y-12.701
X52.615Y-18.264
X53.106Y-19.265
X53.748Y-30.462
X54.862Y-19.127
X56.0Y-2.166
X56.216Y-4.197
X58.461Y-10.604
X60.4Y-13.136
T2
X5.79Y-5.84
X5.79Y-26.16
X8.33Y-5.84
X8.33Y-26.16
X10.87Y-5.84
X10.87Y-8.38
X10.87Y-23.62
X10.87Y-26.16
X13.41Y-5.84
X13.41Y-8.38
X13.41Y-23.62
X13.41Y-26.16
X15.95Y-5.84
X15.95Y-8.38
X15.95Y-23.62
X15.95Y-26.16
X18.49Y-5.84
X18.49Y-8.38
X18.49Y-23.62
X18.49Y-26.16
X21.03Y-5.84
X21.03Y-8.38
X21.03Y-23.62
X21.03Y-26.16
X23.57Y-5.84
X23.57Y-8.38
X23.57Y-23.62
X23.57Y-26.16
X26.11Y-5.84
X26.11Y-8.38
X26.11Y-23.62
X26.11Y-26.16
X28.65Y-5.84
X28.65Y-8.38
X28.65Y-23.62
X28.65Y-26.16
X31.19Y-5.84
X31.19Y-8.38
X31.19Y-23.62
X31.19Y-26.16
X33.73Y-5.84
X33.73Y-8.38
X33.73Y-23.62
X33.73Y-26.16
X36.27Y-5.84
X36.27Y-8.38
X36.27Y-23.62
X36.27Y-26.16
X38.81Y-5.84
X38.81Y-8.38
X38.81Y-23.62
X38.81Y-26.16
X41.35Y-5.84
X41.35Y-8.38
X41.35Y-23.62
X41.35Y-26.16
X43.89Y-5.84
X43.89Y-8.38
X43.89Y-23.62
X43.89Y-26.16
X46.43Y-5.84
X46.43Y-8.38
X46.43Y-23.62
X46.43Y-26.16
X48.97Y-5.84
X48.97Y-8.38
X48.97Y-23.62
X48.97Y-26.16
X51.51Y-5.84
X51.51Y-8.38
X51.51Y-23.62
X51.51Y-26.16
X54.05Y-5.84
X54.05Y-8.38
X54.05Y-23.62
X54.05Y-26.16
X56.59Y-5.84
X56.59Y-8.38
X56.59Y-23.62
X56.59Y-26.16
X59.13Y-5.84
X59.13Y-8.38
X59.13Y-23.62
X59.13Y-26.16
X61.67Y-5.84
X61.67Y-26.16
X64.21Y-5.84
X64.21Y-26.16
M30
