M48
; DRILL file KiCad 10.0.4 date 2026-09-11T23:24:11
; FORMAT={-:-/ absolute / metric / decimal}
; #@! TF.CreationDate,2026-09-11T23:24:11-03:00
; #@! TF.GenerationSoftware,Kicad,Pcbnew,10.0.4
; #@! TF.FileFunction,MixedPlating,1,2
FMAT,2
METRIC
; #@! TA.AperFunction,Plated,PTH,ViaDrill
T1C0.300
; #@! TA.AperFunction,Plated,PTH,ViaDrill
T2C0.400
; #@! TA.AperFunction,Plated,PTH,ComponentDrill
T3C1.000
%
G90
G05
T1
X6.23Y-60.075
X7.462Y-81.775
X7.75Y-63.169
X7.829Y-55.399
X8.327Y-80.726
X9.49Y-62.098
X10.854Y-52.591
X11.273Y-57.316
X11.599Y-53.168
X12.455Y-17.34
X12.616Y-57.316
X12.767Y-65.332
X12.848Y-47.837
X13.357Y-51.252
X16.613Y-51.226
X17.145Y-48.514
X17.18Y-49.265
X17.311Y-50.827
X20.17Y-47.561
X20.553Y-49.078
X20.714Y-38.402
X21.827Y-50.075
X22.98Y-50.319
X23.604Y-35.56
X24.728Y-48.878
X24.942Y-42.813
X25.801Y-41.185
X25.967Y-47.639
X26.126Y-64.278
X26.878Y-64.242
X28.239Y-11.753
X28.598Y-12.737
X28.7Y-69.154
X28.826Y-34.934
X29.469Y-69.023
X30.714Y-31.806
X31.35Y-45.506
X31.958Y-39.129
X32.173Y-28.619
X36.403Y-32.891
X36.488Y-27.862
X37.278Y-28.029
X37.507Y-60.242
X37.909Y-62.658
X38.683Y-33.26
X39.078Y-63.786
X39.712Y-70.85
X41.937Y-55.813
X42.521Y-57.258
X53.246Y-45.325
X56.096Y-42.33
X61.147Y-51.149
X61.157Y-52.78
X61.167Y-48.663
X61.262Y-54.394
X61.351Y-51.947
X63.087Y-33.545
T2
X11.556Y-74.022
X36.254Y-60.42
X43.292Y-48.154
X54.578Y-70.55
T3
X6.79Y-10.0
X6.79Y-30.32
X9.33Y-10.0
X9.33Y-30.32
X11.87Y-10.0
X11.87Y-30.32
X11.87Y-80.0
X11.87Y-95.24
X14.41Y-10.0
X14.41Y-30.32
X14.41Y-80.0
X14.41Y-95.24
X16.95Y-10.0
X16.95Y-30.32
X16.95Y-80.0
X16.95Y-95.24
X19.49Y-10.0
X19.49Y-30.32
X19.49Y-80.0
X19.49Y-95.24
X22.03Y-10.0
X22.03Y-30.32
X22.03Y-80.0
X22.03Y-95.24
X24.57Y-10.0
X24.57Y-30.32
X24.57Y-80.0
X24.57Y-95.24
X27.11Y-10.0
X27.11Y-30.32
X27.11Y-80.0
X27.11Y-95.24
X29.65Y-10.0
X29.65Y-30.32
X29.65Y-80.0
X29.65Y-95.24
X32.19Y-10.0
X32.19Y-30.32
X32.19Y-80.0
X32.19Y-95.24
X34.73Y-10.0
X34.73Y-30.32
X34.73Y-80.0
X34.73Y-95.24
X37.27Y-10.0
X37.27Y-30.32
X37.27Y-80.0
X37.27Y-95.24
X39.81Y-10.0
X39.81Y-30.32
X39.81Y-80.0
X39.81Y-95.24
X42.35Y-10.0
X42.35Y-30.32
X42.35Y-80.0
X42.35Y-95.24
X44.89Y-10.0
X44.89Y-30.32
X44.89Y-80.0
X44.89Y-95.24
X47.43Y-10.0
X47.43Y-30.32
X47.43Y-80.0
X47.43Y-95.24
X49.97Y-10.0
X49.97Y-30.32
X49.97Y-80.0
X49.97Y-95.24
X52.51Y-10.0
X52.51Y-30.32
X52.51Y-80.0
X52.51Y-95.24
X55.05Y-10.0
X55.05Y-30.32
X55.05Y-80.0
X55.05Y-95.24
X57.59Y-10.0
X57.59Y-30.32
X57.59Y-80.0
X57.59Y-95.24
X60.13Y-10.0
X60.13Y-30.32
X60.13Y-80.0
X60.13Y-95.24
X62.67Y-10.0
X62.67Y-30.32
X65.21Y-10.0
X65.21Y-30.32
M30
