%TF.GenerationSoftware,KiCad,Pcbnew,10.0.4*%
%TF.CreationDate,2026-09-12T00:06:03-03:00*%
%TF.ProjectId,tia-fpga,7469612d-6670-4676-912e-6b696361645f,rev?*%
%TF.SameCoordinates,Original*%
%TF.FileFunction,Drillmap*%
%TF.FilePolarity,Positive*%
%FSLAX45Y45*%
G04 Gerber Fmt 4.5, Leading zero omitted, Abs format (unit mm)*
G04 Created by KiCad (PCBNEW 10.0.4) date 2026-09-12 00:06:03*
%MOMM*%
%LPD*%
G01*
G04 APERTURE LIST*
%ADD10C,0.100000*%
%ADD11C,0.200000*%
%ADD12C,0.220000*%
G04 APERTURE END LIST*
D10*
X0Y0D02*
X7600000Y0D01*
X0Y-3600000D02*
X0Y0D01*
X7600000Y0D02*
X7600000Y-3600000D01*
X7600000Y-3600000D02*
X0Y-3600000D01*
D11*
D10*
X1251930Y-449120D02*
X1281930Y-479120D01*
X1281930Y-449120D02*
X1251930Y-479120D01*
X1338540Y-2382390D02*
X1368540Y-2412390D01*
X1368540Y-2382390D02*
X1338540Y-2412390D01*
X1339560Y-1445730D02*
X1369560Y-1475730D01*
X1369560Y-1445730D02*
X1339560Y-1475730D01*
X1731850Y-2063020D02*
X1761850Y-2093020D01*
X1761850Y-2063020D02*
X1731850Y-2093020D01*
X1802050Y-1916440D02*
X1832050Y-1946440D01*
X1832050Y-1916440D02*
X1802050Y-1946440D01*
X1811980Y-1592360D02*
X1841980Y-1622360D01*
X1841980Y-1592360D02*
X1811980Y-1622360D01*
X1936970Y-1916720D02*
X1966970Y-1946720D01*
X1966970Y-1916720D02*
X1936970Y-1946720D01*
X1972670Y-2426800D02*
X2002670Y-2456800D01*
X2002670Y-2426800D02*
X1972670Y-2456800D01*
X1977930Y-2121190D02*
X2007930Y-2151190D01*
X2007930Y-2121190D02*
X1977930Y-2151190D01*
X2021440Y-1990680D02*
X2051440Y-2020680D01*
X2051440Y-1990680D02*
X2021440Y-2020680D01*
X2104930Y-2121190D02*
X2134930Y-2151190D01*
X2134930Y-2121190D02*
X2104930Y-2151190D01*
X2175500Y-2084940D02*
X2205500Y-2114940D01*
X2205500Y-2084940D02*
X2175500Y-2114940D01*
X2389170Y-3104600D02*
X2419170Y-3134600D01*
X2419170Y-3104600D02*
X2389170Y-3134600D01*
X2437840Y-1465880D02*
X2467840Y-1495880D01*
X2467840Y-1465880D02*
X2437840Y-1495880D01*
X2703280Y-1341160D02*
X2733280Y-1371160D01*
X2733280Y-1341160D02*
X2703280Y-1371160D01*
X2800900Y-3158190D02*
X2830900Y-3188190D01*
X2830900Y-3158190D02*
X2800900Y-3188190D01*
X2981190Y-1137480D02*
X3011190Y-1167480D01*
X3011190Y-1137480D02*
X2981190Y-1167480D01*
X3235650Y-2019560D02*
X3265650Y-2049560D01*
X3265650Y-2019560D02*
X3235650Y-2049560D01*
X3254920Y-2889560D02*
X3284920Y-2919560D01*
X3284920Y-2889560D02*
X3254920Y-2919560D01*
X3356120Y-1546730D02*
X3386120Y-1576730D01*
X3386120Y-1546730D02*
X3356120Y-1576730D01*
X3370520Y-3017950D02*
X3400520Y-3047950D01*
X3400520Y-3017950D02*
X3370520Y-3047950D01*
X3385870Y-2122570D02*
X3415870Y-2152570D01*
X3415870Y-2122570D02*
X3385870Y-2152570D01*
X3486370Y-1172300D02*
X3516370Y-1202300D01*
X3516370Y-1172300D02*
X3486370Y-1202300D01*
X3550820Y-2398210D02*
X3580820Y-2428210D01*
X3580820Y-2398210D02*
X3550820Y-2428210D01*
X3735470Y-1964910D02*
X3765470Y-1994910D01*
X3765470Y-1964910D02*
X3735470Y-1994910D01*
X3766000Y-2371710D02*
X3796000Y-2401710D01*
X3796000Y-2371710D02*
X3766000Y-2401710D01*
X4031010Y-2120380D02*
X4061010Y-2150380D01*
X4061010Y-2120380D02*
X4031010Y-2150380D01*
X4031010Y-2284270D02*
X4061010Y-2314270D01*
X4061010Y-2284270D02*
X4031010Y-2314270D01*
X4032780Y-1870560D02*
X4062780Y-1900560D01*
X4062780Y-1870560D02*
X4032780Y-1900560D01*
X4099270Y-1379860D02*
X4129270Y-1409860D01*
X4129270Y-1379860D02*
X4099270Y-1409860D01*
X4105050Y-1986860D02*
X4135050Y-2016860D01*
X4135050Y-1986860D02*
X4105050Y-2016860D01*
X4107320Y-1296620D02*
X4137320Y-1326620D01*
X4137320Y-1296620D02*
X4107320Y-1326620D01*
X4439630Y-1874140D02*
X4469630Y-1904140D01*
X4469630Y-1874140D02*
X4439630Y-1904140D01*
X4474840Y-1682610D02*
X4504840Y-1712610D01*
X4504840Y-1682610D02*
X4474840Y-1712610D01*
X4569140Y-1681190D02*
X4599140Y-1711190D01*
X4599140Y-1681190D02*
X4569140Y-1711190D01*
X4627130Y-1747620D02*
X4657130Y-1777620D01*
X4657130Y-1747620D02*
X4627130Y-1777620D01*
X4733870Y-1540880D02*
X4763870Y-1570880D01*
X4763870Y-1540880D02*
X4733870Y-1570880D01*
X4743380Y-2686490D02*
X4773380Y-2716490D01*
X4773380Y-2686490D02*
X4743380Y-2716490D01*
X4756140Y-176480D02*
X4786140Y-206480D01*
X4786140Y-176480D02*
X4756140Y-206480D01*
X4812190Y-2103280D02*
X4842190Y-2133280D01*
X4842190Y-2103280D02*
X4812190Y-2133280D01*
X4825180Y-236260D02*
X4855180Y-266260D01*
X4855180Y-236260D02*
X4825180Y-266260D01*
X4842110Y-1616890D02*
X4872110Y-1646890D01*
X4872110Y-1616890D02*
X4842110Y-1646890D01*
X4961260Y-2072260D02*
X4991260Y-2102260D01*
X4991260Y-2072260D02*
X4961260Y-2102260D01*
X5285000Y-365880D02*
X5315000Y-395880D01*
X5315000Y-365880D02*
X5285000Y-395880D01*
X5796680Y-3205250D02*
X5826680Y-3235250D01*
X5826680Y-3205250D02*
X5796680Y-3235250D01*
X5858250Y-2175230D02*
X5888250Y-2205230D01*
X5888250Y-2175230D02*
X5858250Y-2205230D01*
X6365630Y-1890330D02*
X6395630Y-1920330D01*
X6395630Y-1890330D02*
X6365630Y-1920330D01*
X929000Y-784000D02*
G75*
G02*
X829000Y-784000I-50000J0D01*
G01*
X829000Y-784000D02*
G75*
G02*
X929000Y-784000I50000J0D01*
G01*
X929000Y-2816000D02*
G75*
G02*
X829000Y-2816000I-50000J0D01*
G01*
X829000Y-2816000D02*
G75*
G02*
X929000Y-2816000I50000J0D01*
G01*
X1183000Y-784000D02*
G75*
G02*
X1083000Y-784000I-50000J0D01*
G01*
X1083000Y-784000D02*
G75*
G02*
X1183000Y-784000I50000J0D01*
G01*
X1183000Y-2816000D02*
G75*
G02*
X1083000Y-2816000I-50000J0D01*
G01*
X1083000Y-2816000D02*
G75*
G02*
X1183000Y-2816000I50000J0D01*
G01*
X1437000Y-784000D02*
G75*
G02*
X1337000Y-784000I-50000J0D01*
G01*
X1337000Y-784000D02*
G75*
G02*
X1437000Y-784000I50000J0D01*
G01*
X1437000Y-1038000D02*
G75*
G02*
X1337000Y-1038000I-50000J0D01*
G01*
X1337000Y-1038000D02*
G75*
G02*
X1437000Y-1038000I50000J0D01*
G01*
X1437000Y-2562000D02*
G75*
G02*
X1337000Y-2562000I-50000J0D01*
G01*
X1337000Y-2562000D02*
G75*
G02*
X1437000Y-2562000I50000J0D01*
G01*
X1437000Y-2816000D02*
G75*
G02*
X1337000Y-2816000I-50000J0D01*
G01*
X1337000Y-2816000D02*
G75*
G02*
X1437000Y-2816000I50000J0D01*
G01*
X1691000Y-784000D02*
G75*
G02*
X1591000Y-784000I-50000J0D01*
G01*
X1591000Y-784000D02*
G75*
G02*
X1691000Y-784000I50000J0D01*
G01*
X1691000Y-1038000D02*
G75*
G02*
X1591000Y-1038000I-50000J0D01*
G01*
X1591000Y-1038000D02*
G75*
G02*
X1691000Y-1038000I50000J0D01*
G01*
X1691000Y-2562000D02*
G75*
G02*
X1591000Y-2562000I-50000J0D01*
G01*
X1591000Y-2562000D02*
G75*
G02*
X1691000Y-2562000I50000J0D01*
G01*
X1691000Y-2816000D02*
G75*
G02*
X1591000Y-2816000I-50000J0D01*
G01*
X1591000Y-2816000D02*
G75*
G02*
X1691000Y-2816000I50000J0D01*
G01*
X1945000Y-784000D02*
G75*
G02*
X1845000Y-784000I-50000J0D01*
G01*
X1845000Y-784000D02*
G75*
G02*
X1945000Y-784000I50000J0D01*
G01*
X1945000Y-1038000D02*
G75*
G02*
X1845000Y-1038000I-50000J0D01*
G01*
X1845000Y-1038000D02*
G75*
G02*
X1945000Y-1038000I50000J0D01*
G01*
X1945000Y-2562000D02*
G75*
G02*
X1845000Y-2562000I-50000J0D01*
G01*
X1845000Y-2562000D02*
G75*
G02*
X1945000Y-2562000I50000J0D01*
G01*
X1945000Y-2816000D02*
G75*
G02*
X1845000Y-2816000I-50000J0D01*
G01*
X1845000Y-2816000D02*
G75*
G02*
X1945000Y-2816000I50000J0D01*
G01*
X2199000Y-784000D02*
G75*
G02*
X2099000Y-784000I-50000J0D01*
G01*
X2099000Y-784000D02*
G75*
G02*
X2199000Y-784000I50000J0D01*
G01*
X2199000Y-1038000D02*
G75*
G02*
X2099000Y-1038000I-50000J0D01*
G01*
X2099000Y-1038000D02*
G75*
G02*
X2199000Y-1038000I50000J0D01*
G01*
X2199000Y-2562000D02*
G75*
G02*
X2099000Y-2562000I-50000J0D01*
G01*
X2099000Y-2562000D02*
G75*
G02*
X2199000Y-2562000I50000J0D01*
G01*
X2199000Y-2816000D02*
G75*
G02*
X2099000Y-2816000I-50000J0D01*
G01*
X2099000Y-2816000D02*
G75*
G02*
X2199000Y-2816000I50000J0D01*
G01*
X2453000Y-784000D02*
G75*
G02*
X2353000Y-784000I-50000J0D01*
G01*
X2353000Y-784000D02*
G75*
G02*
X2453000Y-784000I50000J0D01*
G01*
X2453000Y-1038000D02*
G75*
G02*
X2353000Y-1038000I-50000J0D01*
G01*
X2353000Y-1038000D02*
G75*
G02*
X2453000Y-1038000I50000J0D01*
G01*
X2453000Y-2562000D02*
G75*
G02*
X2353000Y-2562000I-50000J0D01*
G01*
X2353000Y-2562000D02*
G75*
G02*
X2453000Y-2562000I50000J0D01*
G01*
X2453000Y-2816000D02*
G75*
G02*
X2353000Y-2816000I-50000J0D01*
G01*
X2353000Y-2816000D02*
G75*
G02*
X2453000Y-2816000I50000J0D01*
G01*
X2707000Y-784000D02*
G75*
G02*
X2607000Y-784000I-50000J0D01*
G01*
X2607000Y-784000D02*
G75*
G02*
X2707000Y-784000I50000J0D01*
G01*
X2707000Y-1038000D02*
G75*
G02*
X2607000Y-1038000I-50000J0D01*
G01*
X2607000Y-1038000D02*
G75*
G02*
X2707000Y-1038000I50000J0D01*
G01*
X2707000Y-2562000D02*
G75*
G02*
X2607000Y-2562000I-50000J0D01*
G01*
X2607000Y-2562000D02*
G75*
G02*
X2707000Y-2562000I50000J0D01*
G01*
X2707000Y-2816000D02*
G75*
G02*
X2607000Y-2816000I-50000J0D01*
G01*
X2607000Y-2816000D02*
G75*
G02*
X2707000Y-2816000I50000J0D01*
G01*
X2961000Y-784000D02*
G75*
G02*
X2861000Y-784000I-50000J0D01*
G01*
X2861000Y-784000D02*
G75*
G02*
X2961000Y-784000I50000J0D01*
G01*
X2961000Y-1038000D02*
G75*
G02*
X2861000Y-1038000I-50000J0D01*
G01*
X2861000Y-1038000D02*
G75*
G02*
X2961000Y-1038000I50000J0D01*
G01*
X2961000Y-2562000D02*
G75*
G02*
X2861000Y-2562000I-50000J0D01*
G01*
X2861000Y-2562000D02*
G75*
G02*
X2961000Y-2562000I50000J0D01*
G01*
X2961000Y-2816000D02*
G75*
G02*
X2861000Y-2816000I-50000J0D01*
G01*
X2861000Y-2816000D02*
G75*
G02*
X2961000Y-2816000I50000J0D01*
G01*
X3215000Y-784000D02*
G75*
G02*
X3115000Y-784000I-50000J0D01*
G01*
X3115000Y-784000D02*
G75*
G02*
X3215000Y-784000I50000J0D01*
G01*
X3215000Y-1038000D02*
G75*
G02*
X3115000Y-1038000I-50000J0D01*
G01*
X3115000Y-1038000D02*
G75*
G02*
X3215000Y-1038000I50000J0D01*
G01*
X3215000Y-2562000D02*
G75*
G02*
X3115000Y-2562000I-50000J0D01*
G01*
X3115000Y-2562000D02*
G75*
G02*
X3215000Y-2562000I50000J0D01*
G01*
X3215000Y-2816000D02*
G75*
G02*
X3115000Y-2816000I-50000J0D01*
G01*
X3115000Y-2816000D02*
G75*
G02*
X3215000Y-2816000I50000J0D01*
G01*
X3469000Y-784000D02*
G75*
G02*
X3369000Y-784000I-50000J0D01*
G01*
X3369000Y-784000D02*
G75*
G02*
X3469000Y-784000I50000J0D01*
G01*
X3469000Y-1038000D02*
G75*
G02*
X3369000Y-1038000I-50000J0D01*
G01*
X3369000Y-1038000D02*
G75*
G02*
X3469000Y-1038000I50000J0D01*
G01*
X3469000Y-2562000D02*
G75*
G02*
X3369000Y-2562000I-50000J0D01*
G01*
X3369000Y-2562000D02*
G75*
G02*
X3469000Y-2562000I50000J0D01*
G01*
X3469000Y-2816000D02*
G75*
G02*
X3369000Y-2816000I-50000J0D01*
G01*
X3369000Y-2816000D02*
G75*
G02*
X3469000Y-2816000I50000J0D01*
G01*
X3723000Y-784000D02*
G75*
G02*
X3623000Y-784000I-50000J0D01*
G01*
X3623000Y-784000D02*
G75*
G02*
X3723000Y-784000I50000J0D01*
G01*
X3723000Y-1038000D02*
G75*
G02*
X3623000Y-1038000I-50000J0D01*
G01*
X3623000Y-1038000D02*
G75*
G02*
X3723000Y-1038000I50000J0D01*
G01*
X3723000Y-2562000D02*
G75*
G02*
X3623000Y-2562000I-50000J0D01*
G01*
X3623000Y-2562000D02*
G75*
G02*
X3723000Y-2562000I50000J0D01*
G01*
X3723000Y-2816000D02*
G75*
G02*
X3623000Y-2816000I-50000J0D01*
G01*
X3623000Y-2816000D02*
G75*
G02*
X3723000Y-2816000I50000J0D01*
G01*
X3977000Y-784000D02*
G75*
G02*
X3877000Y-784000I-50000J0D01*
G01*
X3877000Y-784000D02*
G75*
G02*
X3977000Y-784000I50000J0D01*
G01*
X3977000Y-1038000D02*
G75*
G02*
X3877000Y-1038000I-50000J0D01*
G01*
X3877000Y-1038000D02*
G75*
G02*
X3977000Y-1038000I50000J0D01*
G01*
X3977000Y-2562000D02*
G75*
G02*
X3877000Y-2562000I-50000J0D01*
G01*
X3877000Y-2562000D02*
G75*
G02*
X3977000Y-2562000I50000J0D01*
G01*
X3977000Y-2816000D02*
G75*
G02*
X3877000Y-2816000I-50000J0D01*
G01*
X3877000Y-2816000D02*
G75*
G02*
X3977000Y-2816000I50000J0D01*
G01*
X4231000Y-784000D02*
G75*
G02*
X4131000Y-784000I-50000J0D01*
G01*
X4131000Y-784000D02*
G75*
G02*
X4231000Y-784000I50000J0D01*
G01*
X4231000Y-1038000D02*
G75*
G02*
X4131000Y-1038000I-50000J0D01*
G01*
X4131000Y-1038000D02*
G75*
G02*
X4231000Y-1038000I50000J0D01*
G01*
X4231000Y-2562000D02*
G75*
G02*
X4131000Y-2562000I-50000J0D01*
G01*
X4131000Y-2562000D02*
G75*
G02*
X4231000Y-2562000I50000J0D01*
G01*
X4231000Y-2816000D02*
G75*
G02*
X4131000Y-2816000I-50000J0D01*
G01*
X4131000Y-2816000D02*
G75*
G02*
X4231000Y-2816000I50000J0D01*
G01*
X4485000Y-784000D02*
G75*
G02*
X4385000Y-784000I-50000J0D01*
G01*
X4385000Y-784000D02*
G75*
G02*
X4485000Y-784000I50000J0D01*
G01*
X4485000Y-1038000D02*
G75*
G02*
X4385000Y-1038000I-50000J0D01*
G01*
X4385000Y-1038000D02*
G75*
G02*
X4485000Y-1038000I50000J0D01*
G01*
X4485000Y-2562000D02*
G75*
G02*
X4385000Y-2562000I-50000J0D01*
G01*
X4385000Y-2562000D02*
G75*
G02*
X4485000Y-2562000I50000J0D01*
G01*
X4485000Y-2816000D02*
G75*
G02*
X4385000Y-2816000I-50000J0D01*
G01*
X4385000Y-2816000D02*
G75*
G02*
X4485000Y-2816000I50000J0D01*
G01*
X4739000Y-784000D02*
G75*
G02*
X4639000Y-784000I-50000J0D01*
G01*
X4639000Y-784000D02*
G75*
G02*
X4739000Y-784000I50000J0D01*
G01*
X4739000Y-1038000D02*
G75*
G02*
X4639000Y-1038000I-50000J0D01*
G01*
X4639000Y-1038000D02*
G75*
G02*
X4739000Y-1038000I50000J0D01*
G01*
X4739000Y-2562000D02*
G75*
G02*
X4639000Y-2562000I-50000J0D01*
G01*
X4639000Y-2562000D02*
G75*
G02*
X4739000Y-2562000I50000J0D01*
G01*
X4739000Y-2816000D02*
G75*
G02*
X4639000Y-2816000I-50000J0D01*
G01*
X4639000Y-2816000D02*
G75*
G02*
X4739000Y-2816000I50000J0D01*
G01*
X4993000Y-784000D02*
G75*
G02*
X4893000Y-784000I-50000J0D01*
G01*
X4893000Y-784000D02*
G75*
G02*
X4993000Y-784000I50000J0D01*
G01*
X4993000Y-1038000D02*
G75*
G02*
X4893000Y-1038000I-50000J0D01*
G01*
X4893000Y-1038000D02*
G75*
G02*
X4993000Y-1038000I50000J0D01*
G01*
X4993000Y-2562000D02*
G75*
G02*
X4893000Y-2562000I-50000J0D01*
G01*
X4893000Y-2562000D02*
G75*
G02*
X4993000Y-2562000I50000J0D01*
G01*
X4993000Y-2816000D02*
G75*
G02*
X4893000Y-2816000I-50000J0D01*
G01*
X4893000Y-2816000D02*
G75*
G02*
X4993000Y-2816000I50000J0D01*
G01*
X5247000Y-784000D02*
G75*
G02*
X5147000Y-784000I-50000J0D01*
G01*
X5147000Y-784000D02*
G75*
G02*
X5247000Y-784000I50000J0D01*
G01*
X5247000Y-1038000D02*
G75*
G02*
X5147000Y-1038000I-50000J0D01*
G01*
X5147000Y-1038000D02*
G75*
G02*
X5247000Y-1038000I50000J0D01*
G01*
X5247000Y-2562000D02*
G75*
G02*
X5147000Y-2562000I-50000J0D01*
G01*
X5147000Y-2562000D02*
G75*
G02*
X5247000Y-2562000I50000J0D01*
G01*
X5247000Y-2816000D02*
G75*
G02*
X5147000Y-2816000I-50000J0D01*
G01*
X5147000Y-2816000D02*
G75*
G02*
X5247000Y-2816000I50000J0D01*
G01*
X5501000Y-784000D02*
G75*
G02*
X5401000Y-784000I-50000J0D01*
G01*
X5401000Y-784000D02*
G75*
G02*
X5501000Y-784000I50000J0D01*
G01*
X5501000Y-1038000D02*
G75*
G02*
X5401000Y-1038000I-50000J0D01*
G01*
X5401000Y-1038000D02*
G75*
G02*
X5501000Y-1038000I50000J0D01*
G01*
X5501000Y-2562000D02*
G75*
G02*
X5401000Y-2562000I-50000J0D01*
G01*
X5401000Y-2562000D02*
G75*
G02*
X5501000Y-2562000I50000J0D01*
G01*
X5501000Y-2816000D02*
G75*
G02*
X5401000Y-2816000I-50000J0D01*
G01*
X5401000Y-2816000D02*
G75*
G02*
X5501000Y-2816000I50000J0D01*
G01*
X5755000Y-784000D02*
G75*
G02*
X5655000Y-784000I-50000J0D01*
G01*
X5655000Y-784000D02*
G75*
G02*
X5755000Y-784000I50000J0D01*
G01*
X5755000Y-1038000D02*
G75*
G02*
X5655000Y-1038000I-50000J0D01*
G01*
X5655000Y-1038000D02*
G75*
G02*
X5755000Y-1038000I50000J0D01*
G01*
X5755000Y-2562000D02*
G75*
G02*
X5655000Y-2562000I-50000J0D01*
G01*
X5655000Y-2562000D02*
G75*
G02*
X5755000Y-2562000I50000J0D01*
G01*
X5755000Y-2816000D02*
G75*
G02*
X5655000Y-2816000I-50000J0D01*
G01*
X5655000Y-2816000D02*
G75*
G02*
X5755000Y-2816000I50000J0D01*
G01*
X6009000Y-784000D02*
G75*
G02*
X5909000Y-784000I-50000J0D01*
G01*
X5909000Y-784000D02*
G75*
G02*
X6009000Y-784000I50000J0D01*
G01*
X6009000Y-1038000D02*
G75*
G02*
X5909000Y-1038000I-50000J0D01*
G01*
X5909000Y-1038000D02*
G75*
G02*
X6009000Y-1038000I50000J0D01*
G01*
X6009000Y-2562000D02*
G75*
G02*
X5909000Y-2562000I-50000J0D01*
G01*
X5909000Y-2562000D02*
G75*
G02*
X6009000Y-2562000I50000J0D01*
G01*
X6009000Y-2816000D02*
G75*
G02*
X5909000Y-2816000I-50000J0D01*
G01*
X5909000Y-2816000D02*
G75*
G02*
X6009000Y-2816000I50000J0D01*
G01*
X6263000Y-784000D02*
G75*
G02*
X6163000Y-784000I-50000J0D01*
G01*
X6163000Y-784000D02*
G75*
G02*
X6263000Y-784000I50000J0D01*
G01*
X6263000Y-1038000D02*
G75*
G02*
X6163000Y-1038000I-50000J0D01*
G01*
X6163000Y-1038000D02*
G75*
G02*
X6263000Y-1038000I50000J0D01*
G01*
X6263000Y-2562000D02*
G75*
G02*
X6163000Y-2562000I-50000J0D01*
G01*
X6163000Y-2562000D02*
G75*
G02*
X6263000Y-2562000I50000J0D01*
G01*
X6263000Y-2816000D02*
G75*
G02*
X6163000Y-2816000I-50000J0D01*
G01*
X6163000Y-2816000D02*
G75*
G02*
X6263000Y-2816000I50000J0D01*
G01*
X6517000Y-784000D02*
G75*
G02*
X6417000Y-784000I-50000J0D01*
G01*
X6417000Y-784000D02*
G75*
G02*
X6517000Y-784000I50000J0D01*
G01*
X6517000Y-2816000D02*
G75*
G02*
X6417000Y-2816000I-50000J0D01*
G01*
X6417000Y-2816000D02*
G75*
G02*
X6517000Y-2816000I50000J0D01*
G01*
X6771000Y-784000D02*
G75*
G02*
X6671000Y-784000I-50000J0D01*
G01*
X6671000Y-784000D02*
G75*
G02*
X6771000Y-784000I50000J0D01*
G01*
X6771000Y-2816000D02*
G75*
G02*
X6671000Y-2816000I-50000J0D01*
G01*
X6671000Y-2816000D02*
G75*
G02*
X6771000Y-2816000I50000J0D01*
G01*
D12*
X400000Y-290000D02*
X400000Y-510000D01*
X290000Y-400000D02*
X510000Y-400000D01*
X400000Y-3090000D02*
X400000Y-3310000D01*
X290000Y-3200000D02*
X510000Y-3200000D01*
X7200000Y-290000D02*
X7200000Y-510000D01*
X7090000Y-400000D02*
X7310000Y-400000D01*
X7200000Y-3090000D02*
X7200000Y-3310000D01*
X7090000Y-3200000D02*
X7310000Y-3200000D01*
D11*
X255777Y-3916484D02*
X255777Y-3716484D01*
X255777Y-3716484D02*
X303396Y-3716484D01*
X303396Y-3716484D02*
X331967Y-3726008D01*
X331967Y-3726008D02*
X351015Y-3745055D01*
X351015Y-3745055D02*
X360539Y-3764103D01*
X360539Y-3764103D02*
X370062Y-3802198D01*
X370062Y-3802198D02*
X370062Y-3830769D01*
X370062Y-3830769D02*
X360539Y-3868865D01*
X360539Y-3868865D02*
X351015Y-3887912D01*
X351015Y-3887912D02*
X331967Y-3906960D01*
X331967Y-3906960D02*
X303396Y-3916484D01*
X303396Y-3916484D02*
X255777Y-3916484D01*
X455777Y-3916484D02*
X455777Y-3783150D01*
X455777Y-3821246D02*
X465301Y-3802198D01*
X465301Y-3802198D02*
X474824Y-3792674D01*
X474824Y-3792674D02*
X493872Y-3783150D01*
X493872Y-3783150D02*
X512920Y-3783150D01*
X579586Y-3916484D02*
X579586Y-3783150D01*
X579586Y-3716484D02*
X570063Y-3726008D01*
X570063Y-3726008D02*
X579586Y-3735531D01*
X579586Y-3735531D02*
X589110Y-3726008D01*
X589110Y-3726008D02*
X579586Y-3716484D01*
X579586Y-3716484D02*
X579586Y-3735531D01*
X703396Y-3916484D02*
X684348Y-3906960D01*
X684348Y-3906960D02*
X674824Y-3887912D01*
X674824Y-3887912D02*
X674824Y-3716484D01*
X808158Y-3916484D02*
X789110Y-3906960D01*
X789110Y-3906960D02*
X779586Y-3887912D01*
X779586Y-3887912D02*
X779586Y-3716484D01*
X1036729Y-3916484D02*
X1036729Y-3716484D01*
X1036729Y-3716484D02*
X1103396Y-3859341D01*
X1103396Y-3859341D02*
X1170063Y-3716484D01*
X1170063Y-3716484D02*
X1170063Y-3916484D01*
X1351015Y-3916484D02*
X1351015Y-3811722D01*
X1351015Y-3811722D02*
X1341491Y-3792674D01*
X1341491Y-3792674D02*
X1322444Y-3783150D01*
X1322444Y-3783150D02*
X1284348Y-3783150D01*
X1284348Y-3783150D02*
X1265301Y-3792674D01*
X1351015Y-3906960D02*
X1331967Y-3916484D01*
X1331967Y-3916484D02*
X1284348Y-3916484D01*
X1284348Y-3916484D02*
X1265301Y-3906960D01*
X1265301Y-3906960D02*
X1255777Y-3887912D01*
X1255777Y-3887912D02*
X1255777Y-3868865D01*
X1255777Y-3868865D02*
X1265301Y-3849817D01*
X1265301Y-3849817D02*
X1284348Y-3840293D01*
X1284348Y-3840293D02*
X1331967Y-3840293D01*
X1331967Y-3840293D02*
X1351015Y-3830769D01*
X1446253Y-3783150D02*
X1446253Y-3983150D01*
X1446253Y-3792674D02*
X1465301Y-3783150D01*
X1465301Y-3783150D02*
X1503396Y-3783150D01*
X1503396Y-3783150D02*
X1522443Y-3792674D01*
X1522443Y-3792674D02*
X1531967Y-3802198D01*
X1531967Y-3802198D02*
X1541491Y-3821246D01*
X1541491Y-3821246D02*
X1541491Y-3878388D01*
X1541491Y-3878388D02*
X1531967Y-3897436D01*
X1531967Y-3897436D02*
X1522443Y-3906960D01*
X1522443Y-3906960D02*
X1503396Y-3916484D01*
X1503396Y-3916484D02*
X1465301Y-3916484D01*
X1465301Y-3916484D02*
X1446253Y-3906960D01*
X1627205Y-3897436D02*
X1636729Y-3906960D01*
X1636729Y-3906960D02*
X1627205Y-3916484D01*
X1627205Y-3916484D02*
X1617682Y-3906960D01*
X1617682Y-3906960D02*
X1627205Y-3897436D01*
X1627205Y-3897436D02*
X1627205Y-3916484D01*
X1627205Y-3792674D02*
X1636729Y-3802198D01*
X1636729Y-3802198D02*
X1627205Y-3811722D01*
X1627205Y-3811722D02*
X1617682Y-3802198D01*
X1617682Y-3802198D02*
X1627205Y-3792674D01*
X1627205Y-3792674D02*
X1627205Y-3811722D01*
D10*
X-35000Y-4230000D02*
X-5000Y-4260000D01*
X-5000Y-4230000D02*
X-35000Y-4260000D01*
D11*
X293872Y-4136484D02*
X312920Y-4136484D01*
X312920Y-4136484D02*
X331967Y-4146008D01*
X331967Y-4146008D02*
X341491Y-4155531D01*
X341491Y-4155531D02*
X351015Y-4174579D01*
X351015Y-4174579D02*
X360539Y-4212674D01*
X360539Y-4212674D02*
X360539Y-4260293D01*
X360539Y-4260293D02*
X351015Y-4298389D01*
X351015Y-4298389D02*
X341491Y-4317436D01*
X341491Y-4317436D02*
X331967Y-4326960D01*
X331967Y-4326960D02*
X312920Y-4336484D01*
X312920Y-4336484D02*
X293872Y-4336484D01*
X293872Y-4336484D02*
X274824Y-4326960D01*
X274824Y-4326960D02*
X265301Y-4317436D01*
X265301Y-4317436D02*
X255777Y-4298389D01*
X255777Y-4298389D02*
X246253Y-4260293D01*
X246253Y-4260293D02*
X246253Y-4212674D01*
X246253Y-4212674D02*
X255777Y-4174579D01*
X255777Y-4174579D02*
X265301Y-4155531D01*
X265301Y-4155531D02*
X274824Y-4146008D01*
X274824Y-4146008D02*
X293872Y-4136484D01*
X455777Y-4326960D02*
X455777Y-4336484D01*
X455777Y-4336484D02*
X446253Y-4355531D01*
X446253Y-4355531D02*
X436729Y-4365055D01*
X522443Y-4136484D02*
X646253Y-4136484D01*
X646253Y-4136484D02*
X579586Y-4212674D01*
X579586Y-4212674D02*
X608158Y-4212674D01*
X608158Y-4212674D02*
X627205Y-4222198D01*
X627205Y-4222198D02*
X636729Y-4231722D01*
X636729Y-4231722D02*
X646253Y-4250770D01*
X646253Y-4250770D02*
X646253Y-4298389D01*
X646253Y-4298389D02*
X636729Y-4317436D01*
X636729Y-4317436D02*
X627205Y-4326960D01*
X627205Y-4326960D02*
X608158Y-4336484D01*
X608158Y-4336484D02*
X551015Y-4336484D01*
X551015Y-4336484D02*
X531967Y-4326960D01*
X531967Y-4326960D02*
X522443Y-4317436D01*
X770062Y-4136484D02*
X789110Y-4136484D01*
X789110Y-4136484D02*
X808158Y-4146008D01*
X808158Y-4146008D02*
X817682Y-4155531D01*
X817682Y-4155531D02*
X827205Y-4174579D01*
X827205Y-4174579D02*
X836729Y-4212674D01*
X836729Y-4212674D02*
X836729Y-4260293D01*
X836729Y-4260293D02*
X827205Y-4298389D01*
X827205Y-4298389D02*
X817682Y-4317436D01*
X817682Y-4317436D02*
X808158Y-4326960D01*
X808158Y-4326960D02*
X789110Y-4336484D01*
X789110Y-4336484D02*
X770062Y-4336484D01*
X770062Y-4336484D02*
X751015Y-4326960D01*
X751015Y-4326960D02*
X741491Y-4317436D01*
X741491Y-4317436D02*
X731967Y-4298389D01*
X731967Y-4298389D02*
X722443Y-4260293D01*
X722443Y-4260293D02*
X722443Y-4212674D01*
X722443Y-4212674D02*
X731967Y-4174579D01*
X731967Y-4174579D02*
X741491Y-4155531D01*
X741491Y-4155531D02*
X751015Y-4146008D01*
X751015Y-4146008D02*
X770062Y-4136484D01*
X960539Y-4136484D02*
X979586Y-4136484D01*
X979586Y-4136484D02*
X998634Y-4146008D01*
X998634Y-4146008D02*
X1008158Y-4155531D01*
X1008158Y-4155531D02*
X1017682Y-4174579D01*
X1017682Y-4174579D02*
X1027205Y-4212674D01*
X1027205Y-4212674D02*
X1027205Y-4260293D01*
X1027205Y-4260293D02*
X1017682Y-4298389D01*
X1017682Y-4298389D02*
X1008158Y-4317436D01*
X1008158Y-4317436D02*
X998634Y-4326960D01*
X998634Y-4326960D02*
X979586Y-4336484D01*
X979586Y-4336484D02*
X960539Y-4336484D01*
X960539Y-4336484D02*
X941491Y-4326960D01*
X941491Y-4326960D02*
X931967Y-4317436D01*
X931967Y-4317436D02*
X922443Y-4298389D01*
X922443Y-4298389D02*
X912920Y-4260293D01*
X912920Y-4260293D02*
X912920Y-4212674D01*
X912920Y-4212674D02*
X922443Y-4174579D01*
X922443Y-4174579D02*
X931967Y-4155531D01*
X931967Y-4155531D02*
X941491Y-4146008D01*
X941491Y-4146008D02*
X960539Y-4136484D01*
X1112920Y-4336484D02*
X1112920Y-4203150D01*
X1112920Y-4222198D02*
X1122444Y-4212674D01*
X1122444Y-4212674D02*
X1141491Y-4203150D01*
X1141491Y-4203150D02*
X1170063Y-4203150D01*
X1170063Y-4203150D02*
X1189110Y-4212674D01*
X1189110Y-4212674D02*
X1198634Y-4231722D01*
X1198634Y-4231722D02*
X1198634Y-4336484D01*
X1198634Y-4231722D02*
X1208158Y-4212674D01*
X1208158Y-4212674D02*
X1227205Y-4203150D01*
X1227205Y-4203150D02*
X1255777Y-4203150D01*
X1255777Y-4203150D02*
X1274825Y-4212674D01*
X1274825Y-4212674D02*
X1284348Y-4231722D01*
X1284348Y-4231722D02*
X1284348Y-4336484D01*
X1379586Y-4336484D02*
X1379586Y-4203150D01*
X1379586Y-4222198D02*
X1389110Y-4212674D01*
X1389110Y-4212674D02*
X1408158Y-4203150D01*
X1408158Y-4203150D02*
X1436729Y-4203150D01*
X1436729Y-4203150D02*
X1455777Y-4212674D01*
X1455777Y-4212674D02*
X1465301Y-4231722D01*
X1465301Y-4231722D02*
X1465301Y-4336484D01*
X1465301Y-4231722D02*
X1474824Y-4212674D01*
X1474824Y-4212674D02*
X1493872Y-4203150D01*
X1493872Y-4203150D02*
X1522443Y-4203150D01*
X1522443Y-4203150D02*
X1541491Y-4212674D01*
X1541491Y-4212674D02*
X1551015Y-4231722D01*
X1551015Y-4231722D02*
X1551015Y-4336484D01*
X1941491Y-4126960D02*
X1770063Y-4384103D01*
X2198634Y-4136484D02*
X2217682Y-4136484D01*
X2217682Y-4136484D02*
X2236729Y-4146008D01*
X2236729Y-4146008D02*
X2246253Y-4155531D01*
X2246253Y-4155531D02*
X2255777Y-4174579D01*
X2255777Y-4174579D02*
X2265301Y-4212674D01*
X2265301Y-4212674D02*
X2265301Y-4260293D01*
X2265301Y-4260293D02*
X2255777Y-4298389D01*
X2255777Y-4298389D02*
X2246253Y-4317436D01*
X2246253Y-4317436D02*
X2236729Y-4326960D01*
X2236729Y-4326960D02*
X2217682Y-4336484D01*
X2217682Y-4336484D02*
X2198634Y-4336484D01*
X2198634Y-4336484D02*
X2179587Y-4326960D01*
X2179587Y-4326960D02*
X2170063Y-4317436D01*
X2170063Y-4317436D02*
X2160539Y-4298389D01*
X2160539Y-4298389D02*
X2151015Y-4260293D01*
X2151015Y-4260293D02*
X2151015Y-4212674D01*
X2151015Y-4212674D02*
X2160539Y-4174579D01*
X2160539Y-4174579D02*
X2170063Y-4155531D01*
X2170063Y-4155531D02*
X2179587Y-4146008D01*
X2179587Y-4146008D02*
X2198634Y-4136484D01*
X2360539Y-4326960D02*
X2360539Y-4336484D01*
X2360539Y-4336484D02*
X2351015Y-4355531D01*
X2351015Y-4355531D02*
X2341491Y-4365055D01*
X2484348Y-4136484D02*
X2503396Y-4136484D01*
X2503396Y-4136484D02*
X2522444Y-4146008D01*
X2522444Y-4146008D02*
X2531968Y-4155531D01*
X2531968Y-4155531D02*
X2541491Y-4174579D01*
X2541491Y-4174579D02*
X2551015Y-4212674D01*
X2551015Y-4212674D02*
X2551015Y-4260293D01*
X2551015Y-4260293D02*
X2541491Y-4298389D01*
X2541491Y-4298389D02*
X2531968Y-4317436D01*
X2531968Y-4317436D02*
X2522444Y-4326960D01*
X2522444Y-4326960D02*
X2503396Y-4336484D01*
X2503396Y-4336484D02*
X2484348Y-4336484D01*
X2484348Y-4336484D02*
X2465301Y-4326960D01*
X2465301Y-4326960D02*
X2455777Y-4317436D01*
X2455777Y-4317436D02*
X2446253Y-4298389D01*
X2446253Y-4298389D02*
X2436729Y-4260293D01*
X2436729Y-4260293D02*
X2436729Y-4212674D01*
X2436729Y-4212674D02*
X2446253Y-4174579D01*
X2446253Y-4174579D02*
X2455777Y-4155531D01*
X2455777Y-4155531D02*
X2465301Y-4146008D01*
X2465301Y-4146008D02*
X2484348Y-4136484D01*
X2741491Y-4336484D02*
X2627206Y-4336484D01*
X2684348Y-4336484D02*
X2684348Y-4136484D01*
X2684348Y-4136484D02*
X2665301Y-4165055D01*
X2665301Y-4165055D02*
X2646253Y-4184103D01*
X2646253Y-4184103D02*
X2627206Y-4193627D01*
X2931967Y-4336484D02*
X2817682Y-4336484D01*
X2874825Y-4336484D02*
X2874825Y-4136484D01*
X2874825Y-4136484D02*
X2855777Y-4165055D01*
X2855777Y-4165055D02*
X2836729Y-4184103D01*
X2836729Y-4184103D02*
X2817682Y-4193627D01*
X3046253Y-4222198D02*
X3027206Y-4212674D01*
X3027206Y-4212674D02*
X3017682Y-4203150D01*
X3017682Y-4203150D02*
X3008158Y-4184103D01*
X3008158Y-4184103D02*
X3008158Y-4174579D01*
X3008158Y-4174579D02*
X3017682Y-4155531D01*
X3017682Y-4155531D02*
X3027206Y-4146008D01*
X3027206Y-4146008D02*
X3046253Y-4136484D01*
X3046253Y-4136484D02*
X3084348Y-4136484D01*
X3084348Y-4136484D02*
X3103396Y-4146008D01*
X3103396Y-4146008D02*
X3112920Y-4155531D01*
X3112920Y-4155531D02*
X3122444Y-4174579D01*
X3122444Y-4174579D02*
X3122444Y-4184103D01*
X3122444Y-4184103D02*
X3112920Y-4203150D01*
X3112920Y-4203150D02*
X3103396Y-4212674D01*
X3103396Y-4212674D02*
X3084348Y-4222198D01*
X3084348Y-4222198D02*
X3046253Y-4222198D01*
X3046253Y-4222198D02*
X3027206Y-4231722D01*
X3027206Y-4231722D02*
X3017682Y-4241246D01*
X3017682Y-4241246D02*
X3008158Y-4260293D01*
X3008158Y-4260293D02*
X3008158Y-4298389D01*
X3008158Y-4298389D02*
X3017682Y-4317436D01*
X3017682Y-4317436D02*
X3027206Y-4326960D01*
X3027206Y-4326960D02*
X3046253Y-4336484D01*
X3046253Y-4336484D02*
X3084348Y-4336484D01*
X3084348Y-4336484D02*
X3103396Y-4326960D01*
X3103396Y-4326960D02*
X3112920Y-4317436D01*
X3112920Y-4317436D02*
X3122444Y-4298389D01*
X3122444Y-4298389D02*
X3122444Y-4260293D01*
X3122444Y-4260293D02*
X3112920Y-4241246D01*
X3112920Y-4241246D02*
X3103396Y-4231722D01*
X3103396Y-4231722D02*
X3084348Y-4222198D01*
X3198634Y-4136484D02*
X3198634Y-4174579D01*
X3274825Y-4136484D02*
X3274825Y-4174579D01*
X3570063Y-4412674D02*
X3560539Y-4403150D01*
X3560539Y-4403150D02*
X3541491Y-4374579D01*
X3541491Y-4374579D02*
X3531968Y-4355531D01*
X3531968Y-4355531D02*
X3522444Y-4326960D01*
X3522444Y-4326960D02*
X3512920Y-4279341D01*
X3512920Y-4279341D02*
X3512920Y-4241246D01*
X3512920Y-4241246D02*
X3522444Y-4193627D01*
X3522444Y-4193627D02*
X3531968Y-4165055D01*
X3531968Y-4165055D02*
X3541491Y-4146008D01*
X3541491Y-4146008D02*
X3560539Y-4117436D01*
X3560539Y-4117436D02*
X3570063Y-4107912D01*
X3731968Y-4203150D02*
X3731968Y-4336484D01*
X3684348Y-4126960D02*
X3636729Y-4269817D01*
X3636729Y-4269817D02*
X3760539Y-4269817D01*
X3817682Y-4136484D02*
X3951015Y-4136484D01*
X3951015Y-4136484D02*
X3865301Y-4336484D01*
X4179587Y-4336484D02*
X4179587Y-4136484D01*
X4265301Y-4336484D02*
X4265301Y-4231722D01*
X4265301Y-4231722D02*
X4255777Y-4212674D01*
X4255777Y-4212674D02*
X4236730Y-4203150D01*
X4236730Y-4203150D02*
X4208158Y-4203150D01*
X4208158Y-4203150D02*
X4189110Y-4212674D01*
X4189110Y-4212674D02*
X4179587Y-4222198D01*
X4389111Y-4336484D02*
X4370063Y-4326960D01*
X4370063Y-4326960D02*
X4360539Y-4317436D01*
X4360539Y-4317436D02*
X4351015Y-4298389D01*
X4351015Y-4298389D02*
X4351015Y-4241246D01*
X4351015Y-4241246D02*
X4360539Y-4222198D01*
X4360539Y-4222198D02*
X4370063Y-4212674D01*
X4370063Y-4212674D02*
X4389111Y-4203150D01*
X4389111Y-4203150D02*
X4417682Y-4203150D01*
X4417682Y-4203150D02*
X4436730Y-4212674D01*
X4436730Y-4212674D02*
X4446253Y-4222198D01*
X4446253Y-4222198D02*
X4455777Y-4241246D01*
X4455777Y-4241246D02*
X4455777Y-4298389D01*
X4455777Y-4298389D02*
X4446253Y-4317436D01*
X4446253Y-4317436D02*
X4436730Y-4326960D01*
X4436730Y-4326960D02*
X4417682Y-4336484D01*
X4417682Y-4336484D02*
X4389111Y-4336484D01*
X4570063Y-4336484D02*
X4551015Y-4326960D01*
X4551015Y-4326960D02*
X4541492Y-4307912D01*
X4541492Y-4307912D02*
X4541492Y-4136484D01*
X4722444Y-4326960D02*
X4703396Y-4336484D01*
X4703396Y-4336484D02*
X4665301Y-4336484D01*
X4665301Y-4336484D02*
X4646253Y-4326960D01*
X4646253Y-4326960D02*
X4636730Y-4307912D01*
X4636730Y-4307912D02*
X4636730Y-4231722D01*
X4636730Y-4231722D02*
X4646253Y-4212674D01*
X4646253Y-4212674D02*
X4665301Y-4203150D01*
X4665301Y-4203150D02*
X4703396Y-4203150D01*
X4703396Y-4203150D02*
X4722444Y-4212674D01*
X4722444Y-4212674D02*
X4731968Y-4231722D01*
X4731968Y-4231722D02*
X4731968Y-4250770D01*
X4731968Y-4250770D02*
X4636730Y-4269817D01*
X4808158Y-4326960D02*
X4827206Y-4336484D01*
X4827206Y-4336484D02*
X4865301Y-4336484D01*
X4865301Y-4336484D02*
X4884349Y-4326960D01*
X4884349Y-4326960D02*
X4893873Y-4307912D01*
X4893873Y-4307912D02*
X4893873Y-4298389D01*
X4893873Y-4298389D02*
X4884349Y-4279341D01*
X4884349Y-4279341D02*
X4865301Y-4269817D01*
X4865301Y-4269817D02*
X4836730Y-4269817D01*
X4836730Y-4269817D02*
X4817682Y-4260293D01*
X4817682Y-4260293D02*
X4808158Y-4241246D01*
X4808158Y-4241246D02*
X4808158Y-4231722D01*
X4808158Y-4231722D02*
X4817682Y-4212674D01*
X4817682Y-4212674D02*
X4836730Y-4203150D01*
X4836730Y-4203150D02*
X4865301Y-4203150D01*
X4865301Y-4203150D02*
X4884349Y-4212674D01*
X4960539Y-4412674D02*
X4970063Y-4403150D01*
X4970063Y-4403150D02*
X4989111Y-4374579D01*
X4989111Y-4374579D02*
X4998634Y-4355531D01*
X4998634Y-4355531D02*
X5008158Y-4326960D01*
X5008158Y-4326960D02*
X5017682Y-4279341D01*
X5017682Y-4279341D02*
X5017682Y-4241246D01*
X5017682Y-4241246D02*
X5008158Y-4193627D01*
X5008158Y-4193627D02*
X4998634Y-4165055D01*
X4998634Y-4165055D02*
X4989111Y-4146008D01*
X4989111Y-4146008D02*
X4970063Y-4117436D01*
X4970063Y-4117436D02*
X4960539Y-4107912D01*
D10*
X-5000Y-4509000D02*
G75*
G02*
X-105000Y-4509000I-50000J0D01*
G01*
X-105000Y-4509000D02*
G75*
G02*
X-5000Y-4509000I50000J0D01*
G01*
D11*
X360539Y-4600484D02*
X246253Y-4600484D01*
X303396Y-4600484D02*
X303396Y-4400484D01*
X303396Y-4400484D02*
X284348Y-4429055D01*
X284348Y-4429055D02*
X265301Y-4448103D01*
X265301Y-4448103D02*
X246253Y-4457627D01*
X455777Y-4590960D02*
X455777Y-4600484D01*
X455777Y-4600484D02*
X446253Y-4619531D01*
X446253Y-4619531D02*
X436729Y-4629055D01*
X579586Y-4400484D02*
X598634Y-4400484D01*
X598634Y-4400484D02*
X617682Y-4410008D01*
X617682Y-4410008D02*
X627205Y-4419531D01*
X627205Y-4419531D02*
X636729Y-4438579D01*
X636729Y-4438579D02*
X646253Y-4476674D01*
X646253Y-4476674D02*
X646253Y-4524293D01*
X646253Y-4524293D02*
X636729Y-4562389D01*
X636729Y-4562389D02*
X627205Y-4581436D01*
X627205Y-4581436D02*
X617682Y-4590960D01*
X617682Y-4590960D02*
X598634Y-4600484D01*
X598634Y-4600484D02*
X579586Y-4600484D01*
X579586Y-4600484D02*
X560539Y-4590960D01*
X560539Y-4590960D02*
X551015Y-4581436D01*
X551015Y-4581436D02*
X541491Y-4562389D01*
X541491Y-4562389D02*
X531967Y-4524293D01*
X531967Y-4524293D02*
X531967Y-4476674D01*
X531967Y-4476674D02*
X541491Y-4438579D01*
X541491Y-4438579D02*
X551015Y-4419531D01*
X551015Y-4419531D02*
X560539Y-4410008D01*
X560539Y-4410008D02*
X579586Y-4400484D01*
X770062Y-4400484D02*
X789110Y-4400484D01*
X789110Y-4400484D02*
X808158Y-4410008D01*
X808158Y-4410008D02*
X817682Y-4419531D01*
X817682Y-4419531D02*
X827205Y-4438579D01*
X827205Y-4438579D02*
X836729Y-4476674D01*
X836729Y-4476674D02*
X836729Y-4524293D01*
X836729Y-4524293D02*
X827205Y-4562389D01*
X827205Y-4562389D02*
X817682Y-4581436D01*
X817682Y-4581436D02*
X808158Y-4590960D01*
X808158Y-4590960D02*
X789110Y-4600484D01*
X789110Y-4600484D02*
X770062Y-4600484D01*
X770062Y-4600484D02*
X751015Y-4590960D01*
X751015Y-4590960D02*
X741491Y-4581436D01*
X741491Y-4581436D02*
X731967Y-4562389D01*
X731967Y-4562389D02*
X722443Y-4524293D01*
X722443Y-4524293D02*
X722443Y-4476674D01*
X722443Y-4476674D02*
X731967Y-4438579D01*
X731967Y-4438579D02*
X741491Y-4419531D01*
X741491Y-4419531D02*
X751015Y-4410008D01*
X751015Y-4410008D02*
X770062Y-4400484D01*
X960539Y-4400484D02*
X979586Y-4400484D01*
X979586Y-4400484D02*
X998634Y-4410008D01*
X998634Y-4410008D02*
X1008158Y-4419531D01*
X1008158Y-4419531D02*
X1017682Y-4438579D01*
X1017682Y-4438579D02*
X1027205Y-4476674D01*
X1027205Y-4476674D02*
X1027205Y-4524293D01*
X1027205Y-4524293D02*
X1017682Y-4562389D01*
X1017682Y-4562389D02*
X1008158Y-4581436D01*
X1008158Y-4581436D02*
X998634Y-4590960D01*
X998634Y-4590960D02*
X979586Y-4600484D01*
X979586Y-4600484D02*
X960539Y-4600484D01*
X960539Y-4600484D02*
X941491Y-4590960D01*
X941491Y-4590960D02*
X931967Y-4581436D01*
X931967Y-4581436D02*
X922443Y-4562389D01*
X922443Y-4562389D02*
X912920Y-4524293D01*
X912920Y-4524293D02*
X912920Y-4476674D01*
X912920Y-4476674D02*
X922443Y-4438579D01*
X922443Y-4438579D02*
X931967Y-4419531D01*
X931967Y-4419531D02*
X941491Y-4410008D01*
X941491Y-4410008D02*
X960539Y-4400484D01*
X1112920Y-4600484D02*
X1112920Y-4467150D01*
X1112920Y-4486198D02*
X1122444Y-4476674D01*
X1122444Y-4476674D02*
X1141491Y-4467150D01*
X1141491Y-4467150D02*
X1170063Y-4467150D01*
X1170063Y-4467150D02*
X1189110Y-4476674D01*
X1189110Y-4476674D02*
X1198634Y-4495722D01*
X1198634Y-4495722D02*
X1198634Y-4600484D01*
X1198634Y-4495722D02*
X1208158Y-4476674D01*
X1208158Y-4476674D02*
X1227205Y-4467150D01*
X1227205Y-4467150D02*
X1255777Y-4467150D01*
X1255777Y-4467150D02*
X1274825Y-4476674D01*
X1274825Y-4476674D02*
X1284348Y-4495722D01*
X1284348Y-4495722D02*
X1284348Y-4600484D01*
X1379586Y-4600484D02*
X1379586Y-4467150D01*
X1379586Y-4486198D02*
X1389110Y-4476674D01*
X1389110Y-4476674D02*
X1408158Y-4467150D01*
X1408158Y-4467150D02*
X1436729Y-4467150D01*
X1436729Y-4467150D02*
X1455777Y-4476674D01*
X1455777Y-4476674D02*
X1465301Y-4495722D01*
X1465301Y-4495722D02*
X1465301Y-4600484D01*
X1465301Y-4495722D02*
X1474824Y-4476674D01*
X1474824Y-4476674D02*
X1493872Y-4467150D01*
X1493872Y-4467150D02*
X1522443Y-4467150D01*
X1522443Y-4467150D02*
X1541491Y-4476674D01*
X1541491Y-4476674D02*
X1551015Y-4495722D01*
X1551015Y-4495722D02*
X1551015Y-4600484D01*
X1941491Y-4390960D02*
X1770063Y-4648103D01*
X2198634Y-4400484D02*
X2217682Y-4400484D01*
X2217682Y-4400484D02*
X2236729Y-4410008D01*
X2236729Y-4410008D02*
X2246253Y-4419531D01*
X2246253Y-4419531D02*
X2255777Y-4438579D01*
X2255777Y-4438579D02*
X2265301Y-4476674D01*
X2265301Y-4476674D02*
X2265301Y-4524293D01*
X2265301Y-4524293D02*
X2255777Y-4562389D01*
X2255777Y-4562389D02*
X2246253Y-4581436D01*
X2246253Y-4581436D02*
X2236729Y-4590960D01*
X2236729Y-4590960D02*
X2217682Y-4600484D01*
X2217682Y-4600484D02*
X2198634Y-4600484D01*
X2198634Y-4600484D02*
X2179587Y-4590960D01*
X2179587Y-4590960D02*
X2170063Y-4581436D01*
X2170063Y-4581436D02*
X2160539Y-4562389D01*
X2160539Y-4562389D02*
X2151015Y-4524293D01*
X2151015Y-4524293D02*
X2151015Y-4476674D01*
X2151015Y-4476674D02*
X2160539Y-4438579D01*
X2160539Y-4438579D02*
X2170063Y-4419531D01*
X2170063Y-4419531D02*
X2179587Y-4410008D01*
X2179587Y-4410008D02*
X2198634Y-4400484D01*
X2360539Y-4590960D02*
X2360539Y-4600484D01*
X2360539Y-4600484D02*
X2351015Y-4619531D01*
X2351015Y-4619531D02*
X2341491Y-4629055D01*
X2484348Y-4400484D02*
X2503396Y-4400484D01*
X2503396Y-4400484D02*
X2522444Y-4410008D01*
X2522444Y-4410008D02*
X2531968Y-4419531D01*
X2531968Y-4419531D02*
X2541491Y-4438579D01*
X2541491Y-4438579D02*
X2551015Y-4476674D01*
X2551015Y-4476674D02*
X2551015Y-4524293D01*
X2551015Y-4524293D02*
X2541491Y-4562389D01*
X2541491Y-4562389D02*
X2531968Y-4581436D01*
X2531968Y-4581436D02*
X2522444Y-4590960D01*
X2522444Y-4590960D02*
X2503396Y-4600484D01*
X2503396Y-4600484D02*
X2484348Y-4600484D01*
X2484348Y-4600484D02*
X2465301Y-4590960D01*
X2465301Y-4590960D02*
X2455777Y-4581436D01*
X2455777Y-4581436D02*
X2446253Y-4562389D01*
X2446253Y-4562389D02*
X2436729Y-4524293D01*
X2436729Y-4524293D02*
X2436729Y-4476674D01*
X2436729Y-4476674D02*
X2446253Y-4438579D01*
X2446253Y-4438579D02*
X2455777Y-4419531D01*
X2455777Y-4419531D02*
X2465301Y-4410008D01*
X2465301Y-4410008D02*
X2484348Y-4400484D01*
X2617682Y-4400484D02*
X2741491Y-4400484D01*
X2741491Y-4400484D02*
X2674825Y-4476674D01*
X2674825Y-4476674D02*
X2703396Y-4476674D01*
X2703396Y-4476674D02*
X2722444Y-4486198D01*
X2722444Y-4486198D02*
X2731968Y-4495722D01*
X2731968Y-4495722D02*
X2741491Y-4514770D01*
X2741491Y-4514770D02*
X2741491Y-4562389D01*
X2741491Y-4562389D02*
X2731968Y-4581436D01*
X2731968Y-4581436D02*
X2722444Y-4590960D01*
X2722444Y-4590960D02*
X2703396Y-4600484D01*
X2703396Y-4600484D02*
X2646253Y-4600484D01*
X2646253Y-4600484D02*
X2627206Y-4590960D01*
X2627206Y-4590960D02*
X2617682Y-4581436D01*
X2836729Y-4600484D02*
X2874825Y-4600484D01*
X2874825Y-4600484D02*
X2893872Y-4590960D01*
X2893872Y-4590960D02*
X2903396Y-4581436D01*
X2903396Y-4581436D02*
X2922444Y-4552865D01*
X2922444Y-4552865D02*
X2931967Y-4514770D01*
X2931967Y-4514770D02*
X2931967Y-4438579D01*
X2931967Y-4438579D02*
X2922444Y-4419531D01*
X2922444Y-4419531D02*
X2912920Y-4410008D01*
X2912920Y-4410008D02*
X2893872Y-4400484D01*
X2893872Y-4400484D02*
X2855777Y-4400484D01*
X2855777Y-4400484D02*
X2836729Y-4410008D01*
X2836729Y-4410008D02*
X2827206Y-4419531D01*
X2827206Y-4419531D02*
X2817682Y-4438579D01*
X2817682Y-4438579D02*
X2817682Y-4486198D01*
X2817682Y-4486198D02*
X2827206Y-4505246D01*
X2827206Y-4505246D02*
X2836729Y-4514770D01*
X2836729Y-4514770D02*
X2855777Y-4524293D01*
X2855777Y-4524293D02*
X2893872Y-4524293D01*
X2893872Y-4524293D02*
X2912920Y-4514770D01*
X2912920Y-4514770D02*
X2922444Y-4505246D01*
X2922444Y-4505246D02*
X2931967Y-4486198D01*
X3103396Y-4467150D02*
X3103396Y-4600484D01*
X3055777Y-4390960D02*
X3008158Y-4533817D01*
X3008158Y-4533817D02*
X3131967Y-4533817D01*
X3198634Y-4400484D02*
X3198634Y-4438579D01*
X3274825Y-4400484D02*
X3274825Y-4438579D01*
X3570063Y-4676674D02*
X3560539Y-4667150D01*
X3560539Y-4667150D02*
X3541491Y-4638579D01*
X3541491Y-4638579D02*
X3531968Y-4619531D01*
X3531968Y-4619531D02*
X3522444Y-4590960D01*
X3522444Y-4590960D02*
X3512920Y-4543341D01*
X3512920Y-4543341D02*
X3512920Y-4505246D01*
X3512920Y-4505246D02*
X3522444Y-4457627D01*
X3522444Y-4457627D02*
X3531968Y-4429055D01*
X3531968Y-4429055D02*
X3541491Y-4410008D01*
X3541491Y-4410008D02*
X3560539Y-4381436D01*
X3560539Y-4381436D02*
X3570063Y-4371912D01*
X3674825Y-4486198D02*
X3655777Y-4476674D01*
X3655777Y-4476674D02*
X3646253Y-4467150D01*
X3646253Y-4467150D02*
X3636729Y-4448103D01*
X3636729Y-4448103D02*
X3636729Y-4438579D01*
X3636729Y-4438579D02*
X3646253Y-4419531D01*
X3646253Y-4419531D02*
X3655777Y-4410008D01*
X3655777Y-4410008D02*
X3674825Y-4400484D01*
X3674825Y-4400484D02*
X3712920Y-4400484D01*
X3712920Y-4400484D02*
X3731968Y-4410008D01*
X3731968Y-4410008D02*
X3741491Y-4419531D01*
X3741491Y-4419531D02*
X3751015Y-4438579D01*
X3751015Y-4438579D02*
X3751015Y-4448103D01*
X3751015Y-4448103D02*
X3741491Y-4467150D01*
X3741491Y-4467150D02*
X3731968Y-4476674D01*
X3731968Y-4476674D02*
X3712920Y-4486198D01*
X3712920Y-4486198D02*
X3674825Y-4486198D01*
X3674825Y-4486198D02*
X3655777Y-4495722D01*
X3655777Y-4495722D02*
X3646253Y-4505246D01*
X3646253Y-4505246D02*
X3636729Y-4524293D01*
X3636729Y-4524293D02*
X3636729Y-4562389D01*
X3636729Y-4562389D02*
X3646253Y-4581436D01*
X3646253Y-4581436D02*
X3655777Y-4590960D01*
X3655777Y-4590960D02*
X3674825Y-4600484D01*
X3674825Y-4600484D02*
X3712920Y-4600484D01*
X3712920Y-4600484D02*
X3731968Y-4590960D01*
X3731968Y-4590960D02*
X3741491Y-4581436D01*
X3741491Y-4581436D02*
X3751015Y-4562389D01*
X3751015Y-4562389D02*
X3751015Y-4524293D01*
X3751015Y-4524293D02*
X3741491Y-4505246D01*
X3741491Y-4505246D02*
X3731968Y-4495722D01*
X3731968Y-4495722D02*
X3712920Y-4486198D01*
X3865301Y-4486198D02*
X3846253Y-4476674D01*
X3846253Y-4476674D02*
X3836729Y-4467150D01*
X3836729Y-4467150D02*
X3827206Y-4448103D01*
X3827206Y-4448103D02*
X3827206Y-4438579D01*
X3827206Y-4438579D02*
X3836729Y-4419531D01*
X3836729Y-4419531D02*
X3846253Y-4410008D01*
X3846253Y-4410008D02*
X3865301Y-4400484D01*
X3865301Y-4400484D02*
X3903396Y-4400484D01*
X3903396Y-4400484D02*
X3922444Y-4410008D01*
X3922444Y-4410008D02*
X3931968Y-4419531D01*
X3931968Y-4419531D02*
X3941491Y-4438579D01*
X3941491Y-4438579D02*
X3941491Y-4448103D01*
X3941491Y-4448103D02*
X3931968Y-4467150D01*
X3931968Y-4467150D02*
X3922444Y-4476674D01*
X3922444Y-4476674D02*
X3903396Y-4486198D01*
X3903396Y-4486198D02*
X3865301Y-4486198D01*
X3865301Y-4486198D02*
X3846253Y-4495722D01*
X3846253Y-4495722D02*
X3836729Y-4505246D01*
X3836729Y-4505246D02*
X3827206Y-4524293D01*
X3827206Y-4524293D02*
X3827206Y-4562389D01*
X3827206Y-4562389D02*
X3836729Y-4581436D01*
X3836729Y-4581436D02*
X3846253Y-4590960D01*
X3846253Y-4590960D02*
X3865301Y-4600484D01*
X3865301Y-4600484D02*
X3903396Y-4600484D01*
X3903396Y-4600484D02*
X3922444Y-4590960D01*
X3922444Y-4590960D02*
X3931968Y-4581436D01*
X3931968Y-4581436D02*
X3941491Y-4562389D01*
X3941491Y-4562389D02*
X3941491Y-4524293D01*
X3941491Y-4524293D02*
X3931968Y-4505246D01*
X3931968Y-4505246D02*
X3922444Y-4495722D01*
X3922444Y-4495722D02*
X3903396Y-4486198D01*
X4179587Y-4600484D02*
X4179587Y-4400484D01*
X4265301Y-4600484D02*
X4265301Y-4495722D01*
X4265301Y-4495722D02*
X4255777Y-4476674D01*
X4255777Y-4476674D02*
X4236730Y-4467150D01*
X4236730Y-4467150D02*
X4208158Y-4467150D01*
X4208158Y-4467150D02*
X4189110Y-4476674D01*
X4189110Y-4476674D02*
X4179587Y-4486198D01*
X4389111Y-4600484D02*
X4370063Y-4590960D01*
X4370063Y-4590960D02*
X4360539Y-4581436D01*
X4360539Y-4581436D02*
X4351015Y-4562389D01*
X4351015Y-4562389D02*
X4351015Y-4505246D01*
X4351015Y-4505246D02*
X4360539Y-4486198D01*
X4360539Y-4486198D02*
X4370063Y-4476674D01*
X4370063Y-4476674D02*
X4389111Y-4467150D01*
X4389111Y-4467150D02*
X4417682Y-4467150D01*
X4417682Y-4467150D02*
X4436730Y-4476674D01*
X4436730Y-4476674D02*
X4446253Y-4486198D01*
X4446253Y-4486198D02*
X4455777Y-4505246D01*
X4455777Y-4505246D02*
X4455777Y-4562389D01*
X4455777Y-4562389D02*
X4446253Y-4581436D01*
X4446253Y-4581436D02*
X4436730Y-4590960D01*
X4436730Y-4590960D02*
X4417682Y-4600484D01*
X4417682Y-4600484D02*
X4389111Y-4600484D01*
X4570063Y-4600484D02*
X4551015Y-4590960D01*
X4551015Y-4590960D02*
X4541492Y-4571912D01*
X4541492Y-4571912D02*
X4541492Y-4400484D01*
X4722444Y-4590960D02*
X4703396Y-4600484D01*
X4703396Y-4600484D02*
X4665301Y-4600484D01*
X4665301Y-4600484D02*
X4646253Y-4590960D01*
X4646253Y-4590960D02*
X4636730Y-4571912D01*
X4636730Y-4571912D02*
X4636730Y-4495722D01*
X4636730Y-4495722D02*
X4646253Y-4476674D01*
X4646253Y-4476674D02*
X4665301Y-4467150D01*
X4665301Y-4467150D02*
X4703396Y-4467150D01*
X4703396Y-4467150D02*
X4722444Y-4476674D01*
X4722444Y-4476674D02*
X4731968Y-4495722D01*
X4731968Y-4495722D02*
X4731968Y-4514770D01*
X4731968Y-4514770D02*
X4636730Y-4533817D01*
X4808158Y-4590960D02*
X4827206Y-4600484D01*
X4827206Y-4600484D02*
X4865301Y-4600484D01*
X4865301Y-4600484D02*
X4884349Y-4590960D01*
X4884349Y-4590960D02*
X4893873Y-4571912D01*
X4893873Y-4571912D02*
X4893873Y-4562389D01*
X4893873Y-4562389D02*
X4884349Y-4543341D01*
X4884349Y-4543341D02*
X4865301Y-4533817D01*
X4865301Y-4533817D02*
X4836730Y-4533817D01*
X4836730Y-4533817D02*
X4817682Y-4524293D01*
X4817682Y-4524293D02*
X4808158Y-4505246D01*
X4808158Y-4505246D02*
X4808158Y-4495722D01*
X4808158Y-4495722D02*
X4817682Y-4476674D01*
X4817682Y-4476674D02*
X4836730Y-4467150D01*
X4836730Y-4467150D02*
X4865301Y-4467150D01*
X4865301Y-4467150D02*
X4884349Y-4476674D01*
X4960539Y-4676674D02*
X4970063Y-4667150D01*
X4970063Y-4667150D02*
X4989111Y-4638579D01*
X4989111Y-4638579D02*
X4998634Y-4619531D01*
X4998634Y-4619531D02*
X5008158Y-4590960D01*
X5008158Y-4590960D02*
X5017682Y-4543341D01*
X5017682Y-4543341D02*
X5017682Y-4505246D01*
X5017682Y-4505246D02*
X5008158Y-4457627D01*
X5008158Y-4457627D02*
X4998634Y-4429055D01*
X4998634Y-4429055D02*
X4989111Y-4410008D01*
X4989111Y-4410008D02*
X4970063Y-4381436D01*
X4970063Y-4381436D02*
X4960539Y-4371912D01*
X-105000Y-4673000D02*
X-105000Y-4873000D01*
X-205000Y-4773000D02*
X-5000Y-4773000D01*
X246253Y-4683531D02*
X255777Y-4674008D01*
X255777Y-4674008D02*
X274824Y-4664484D01*
X274824Y-4664484D02*
X322444Y-4664484D01*
X322444Y-4664484D02*
X341491Y-4674008D01*
X341491Y-4674008D02*
X351015Y-4683531D01*
X351015Y-4683531D02*
X360539Y-4702579D01*
X360539Y-4702579D02*
X360539Y-4721627D01*
X360539Y-4721627D02*
X351015Y-4750198D01*
X351015Y-4750198D02*
X236729Y-4864484D01*
X236729Y-4864484D02*
X360539Y-4864484D01*
X455777Y-4854960D02*
X455777Y-4864484D01*
X455777Y-4864484D02*
X446253Y-4883531D01*
X446253Y-4883531D02*
X436729Y-4893055D01*
X531967Y-4683531D02*
X541491Y-4674008D01*
X541491Y-4674008D02*
X560539Y-4664484D01*
X560539Y-4664484D02*
X608158Y-4664484D01*
X608158Y-4664484D02*
X627205Y-4674008D01*
X627205Y-4674008D02*
X636729Y-4683531D01*
X636729Y-4683531D02*
X646253Y-4702579D01*
X646253Y-4702579D02*
X646253Y-4721627D01*
X646253Y-4721627D02*
X636729Y-4750198D01*
X636729Y-4750198D02*
X522443Y-4864484D01*
X522443Y-4864484D02*
X646253Y-4864484D01*
X770062Y-4664484D02*
X789110Y-4664484D01*
X789110Y-4664484D02*
X808158Y-4674008D01*
X808158Y-4674008D02*
X817682Y-4683531D01*
X817682Y-4683531D02*
X827205Y-4702579D01*
X827205Y-4702579D02*
X836729Y-4740674D01*
X836729Y-4740674D02*
X836729Y-4788293D01*
X836729Y-4788293D02*
X827205Y-4826389D01*
X827205Y-4826389D02*
X817682Y-4845436D01*
X817682Y-4845436D02*
X808158Y-4854960D01*
X808158Y-4854960D02*
X789110Y-4864484D01*
X789110Y-4864484D02*
X770062Y-4864484D01*
X770062Y-4864484D02*
X751015Y-4854960D01*
X751015Y-4854960D02*
X741491Y-4845436D01*
X741491Y-4845436D02*
X731967Y-4826389D01*
X731967Y-4826389D02*
X722443Y-4788293D01*
X722443Y-4788293D02*
X722443Y-4740674D01*
X722443Y-4740674D02*
X731967Y-4702579D01*
X731967Y-4702579D02*
X741491Y-4683531D01*
X741491Y-4683531D02*
X751015Y-4674008D01*
X751015Y-4674008D02*
X770062Y-4664484D01*
X960539Y-4664484D02*
X979586Y-4664484D01*
X979586Y-4664484D02*
X998634Y-4674008D01*
X998634Y-4674008D02*
X1008158Y-4683531D01*
X1008158Y-4683531D02*
X1017682Y-4702579D01*
X1017682Y-4702579D02*
X1027205Y-4740674D01*
X1027205Y-4740674D02*
X1027205Y-4788293D01*
X1027205Y-4788293D02*
X1017682Y-4826389D01*
X1017682Y-4826389D02*
X1008158Y-4845436D01*
X1008158Y-4845436D02*
X998634Y-4854960D01*
X998634Y-4854960D02*
X979586Y-4864484D01*
X979586Y-4864484D02*
X960539Y-4864484D01*
X960539Y-4864484D02*
X941491Y-4854960D01*
X941491Y-4854960D02*
X931967Y-4845436D01*
X931967Y-4845436D02*
X922443Y-4826389D01*
X922443Y-4826389D02*
X912920Y-4788293D01*
X912920Y-4788293D02*
X912920Y-4740674D01*
X912920Y-4740674D02*
X922443Y-4702579D01*
X922443Y-4702579D02*
X931967Y-4683531D01*
X931967Y-4683531D02*
X941491Y-4674008D01*
X941491Y-4674008D02*
X960539Y-4664484D01*
X1112920Y-4864484D02*
X1112920Y-4731150D01*
X1112920Y-4750198D02*
X1122444Y-4740674D01*
X1122444Y-4740674D02*
X1141491Y-4731150D01*
X1141491Y-4731150D02*
X1170063Y-4731150D01*
X1170063Y-4731150D02*
X1189110Y-4740674D01*
X1189110Y-4740674D02*
X1198634Y-4759722D01*
X1198634Y-4759722D02*
X1198634Y-4864484D01*
X1198634Y-4759722D02*
X1208158Y-4740674D01*
X1208158Y-4740674D02*
X1227205Y-4731150D01*
X1227205Y-4731150D02*
X1255777Y-4731150D01*
X1255777Y-4731150D02*
X1274825Y-4740674D01*
X1274825Y-4740674D02*
X1284348Y-4759722D01*
X1284348Y-4759722D02*
X1284348Y-4864484D01*
X1379586Y-4864484D02*
X1379586Y-4731150D01*
X1379586Y-4750198D02*
X1389110Y-4740674D01*
X1389110Y-4740674D02*
X1408158Y-4731150D01*
X1408158Y-4731150D02*
X1436729Y-4731150D01*
X1436729Y-4731150D02*
X1455777Y-4740674D01*
X1455777Y-4740674D02*
X1465301Y-4759722D01*
X1465301Y-4759722D02*
X1465301Y-4864484D01*
X1465301Y-4759722D02*
X1474824Y-4740674D01*
X1474824Y-4740674D02*
X1493872Y-4731150D01*
X1493872Y-4731150D02*
X1522443Y-4731150D01*
X1522443Y-4731150D02*
X1541491Y-4740674D01*
X1541491Y-4740674D02*
X1551015Y-4759722D01*
X1551015Y-4759722D02*
X1551015Y-4864484D01*
X1941491Y-4654960D02*
X1770063Y-4912103D01*
X2198634Y-4664484D02*
X2217682Y-4664484D01*
X2217682Y-4664484D02*
X2236729Y-4674008D01*
X2236729Y-4674008D02*
X2246253Y-4683531D01*
X2246253Y-4683531D02*
X2255777Y-4702579D01*
X2255777Y-4702579D02*
X2265301Y-4740674D01*
X2265301Y-4740674D02*
X2265301Y-4788293D01*
X2265301Y-4788293D02*
X2255777Y-4826389D01*
X2255777Y-4826389D02*
X2246253Y-4845436D01*
X2246253Y-4845436D02*
X2236729Y-4854960D01*
X2236729Y-4854960D02*
X2217682Y-4864484D01*
X2217682Y-4864484D02*
X2198634Y-4864484D01*
X2198634Y-4864484D02*
X2179587Y-4854960D01*
X2179587Y-4854960D02*
X2170063Y-4845436D01*
X2170063Y-4845436D02*
X2160539Y-4826389D01*
X2160539Y-4826389D02*
X2151015Y-4788293D01*
X2151015Y-4788293D02*
X2151015Y-4740674D01*
X2151015Y-4740674D02*
X2160539Y-4702579D01*
X2160539Y-4702579D02*
X2170063Y-4683531D01*
X2170063Y-4683531D02*
X2179587Y-4674008D01*
X2179587Y-4674008D02*
X2198634Y-4664484D01*
X2360539Y-4854960D02*
X2360539Y-4864484D01*
X2360539Y-4864484D02*
X2351015Y-4883531D01*
X2351015Y-4883531D02*
X2341491Y-4893055D01*
X2484348Y-4664484D02*
X2503396Y-4664484D01*
X2503396Y-4664484D02*
X2522444Y-4674008D01*
X2522444Y-4674008D02*
X2531968Y-4683531D01*
X2531968Y-4683531D02*
X2541491Y-4702579D01*
X2541491Y-4702579D02*
X2551015Y-4740674D01*
X2551015Y-4740674D02*
X2551015Y-4788293D01*
X2551015Y-4788293D02*
X2541491Y-4826389D01*
X2541491Y-4826389D02*
X2531968Y-4845436D01*
X2531968Y-4845436D02*
X2522444Y-4854960D01*
X2522444Y-4854960D02*
X2503396Y-4864484D01*
X2503396Y-4864484D02*
X2484348Y-4864484D01*
X2484348Y-4864484D02*
X2465301Y-4854960D01*
X2465301Y-4854960D02*
X2455777Y-4845436D01*
X2455777Y-4845436D02*
X2446253Y-4826389D01*
X2446253Y-4826389D02*
X2436729Y-4788293D01*
X2436729Y-4788293D02*
X2436729Y-4740674D01*
X2436729Y-4740674D02*
X2446253Y-4702579D01*
X2446253Y-4702579D02*
X2455777Y-4683531D01*
X2455777Y-4683531D02*
X2465301Y-4674008D01*
X2465301Y-4674008D02*
X2484348Y-4664484D01*
X2665301Y-4750198D02*
X2646253Y-4740674D01*
X2646253Y-4740674D02*
X2636729Y-4731150D01*
X2636729Y-4731150D02*
X2627206Y-4712103D01*
X2627206Y-4712103D02*
X2627206Y-4702579D01*
X2627206Y-4702579D02*
X2636729Y-4683531D01*
X2636729Y-4683531D02*
X2646253Y-4674008D01*
X2646253Y-4674008D02*
X2665301Y-4664484D01*
X2665301Y-4664484D02*
X2703396Y-4664484D01*
X2703396Y-4664484D02*
X2722444Y-4674008D01*
X2722444Y-4674008D02*
X2731968Y-4683531D01*
X2731968Y-4683531D02*
X2741491Y-4702579D01*
X2741491Y-4702579D02*
X2741491Y-4712103D01*
X2741491Y-4712103D02*
X2731968Y-4731150D01*
X2731968Y-4731150D02*
X2722444Y-4740674D01*
X2722444Y-4740674D02*
X2703396Y-4750198D01*
X2703396Y-4750198D02*
X2665301Y-4750198D01*
X2665301Y-4750198D02*
X2646253Y-4759722D01*
X2646253Y-4759722D02*
X2636729Y-4769246D01*
X2636729Y-4769246D02*
X2627206Y-4788293D01*
X2627206Y-4788293D02*
X2627206Y-4826389D01*
X2627206Y-4826389D02*
X2636729Y-4845436D01*
X2636729Y-4845436D02*
X2646253Y-4854960D01*
X2646253Y-4854960D02*
X2665301Y-4864484D01*
X2665301Y-4864484D02*
X2703396Y-4864484D01*
X2703396Y-4864484D02*
X2722444Y-4854960D01*
X2722444Y-4854960D02*
X2731968Y-4845436D01*
X2731968Y-4845436D02*
X2741491Y-4826389D01*
X2741491Y-4826389D02*
X2741491Y-4788293D01*
X2741491Y-4788293D02*
X2731968Y-4769246D01*
X2731968Y-4769246D02*
X2722444Y-4759722D01*
X2722444Y-4759722D02*
X2703396Y-4750198D01*
X2912920Y-4664484D02*
X2874825Y-4664484D01*
X2874825Y-4664484D02*
X2855777Y-4674008D01*
X2855777Y-4674008D02*
X2846253Y-4683531D01*
X2846253Y-4683531D02*
X2827206Y-4712103D01*
X2827206Y-4712103D02*
X2817682Y-4750198D01*
X2817682Y-4750198D02*
X2817682Y-4826389D01*
X2817682Y-4826389D02*
X2827206Y-4845436D01*
X2827206Y-4845436D02*
X2836729Y-4854960D01*
X2836729Y-4854960D02*
X2855777Y-4864484D01*
X2855777Y-4864484D02*
X2893872Y-4864484D01*
X2893872Y-4864484D02*
X2912920Y-4854960D01*
X2912920Y-4854960D02*
X2922444Y-4845436D01*
X2922444Y-4845436D02*
X2931967Y-4826389D01*
X2931967Y-4826389D02*
X2931967Y-4778770D01*
X2931967Y-4778770D02*
X2922444Y-4759722D01*
X2922444Y-4759722D02*
X2912920Y-4750198D01*
X2912920Y-4750198D02*
X2893872Y-4740674D01*
X2893872Y-4740674D02*
X2855777Y-4740674D01*
X2855777Y-4740674D02*
X2836729Y-4750198D01*
X2836729Y-4750198D02*
X2827206Y-4759722D01*
X2827206Y-4759722D02*
X2817682Y-4778770D01*
X3103396Y-4664484D02*
X3065301Y-4664484D01*
X3065301Y-4664484D02*
X3046253Y-4674008D01*
X3046253Y-4674008D02*
X3036729Y-4683531D01*
X3036729Y-4683531D02*
X3017682Y-4712103D01*
X3017682Y-4712103D02*
X3008158Y-4750198D01*
X3008158Y-4750198D02*
X3008158Y-4826389D01*
X3008158Y-4826389D02*
X3017682Y-4845436D01*
X3017682Y-4845436D02*
X3027206Y-4854960D01*
X3027206Y-4854960D02*
X3046253Y-4864484D01*
X3046253Y-4864484D02*
X3084348Y-4864484D01*
X3084348Y-4864484D02*
X3103396Y-4854960D01*
X3103396Y-4854960D02*
X3112920Y-4845436D01*
X3112920Y-4845436D02*
X3122444Y-4826389D01*
X3122444Y-4826389D02*
X3122444Y-4778770D01*
X3122444Y-4778770D02*
X3112920Y-4759722D01*
X3112920Y-4759722D02*
X3103396Y-4750198D01*
X3103396Y-4750198D02*
X3084348Y-4740674D01*
X3084348Y-4740674D02*
X3046253Y-4740674D01*
X3046253Y-4740674D02*
X3027206Y-4750198D01*
X3027206Y-4750198D02*
X3017682Y-4759722D01*
X3017682Y-4759722D02*
X3008158Y-4778770D01*
X3198634Y-4664484D02*
X3198634Y-4702579D01*
X3274825Y-4664484D02*
X3274825Y-4702579D01*
X3570063Y-4940674D02*
X3560539Y-4931150D01*
X3560539Y-4931150D02*
X3541491Y-4902579D01*
X3541491Y-4902579D02*
X3531968Y-4883531D01*
X3531968Y-4883531D02*
X3522444Y-4854960D01*
X3522444Y-4854960D02*
X3512920Y-4807341D01*
X3512920Y-4807341D02*
X3512920Y-4769246D01*
X3512920Y-4769246D02*
X3522444Y-4721627D01*
X3522444Y-4721627D02*
X3531968Y-4693055D01*
X3531968Y-4693055D02*
X3541491Y-4674008D01*
X3541491Y-4674008D02*
X3560539Y-4645436D01*
X3560539Y-4645436D02*
X3570063Y-4635912D01*
X3731968Y-4731150D02*
X3731968Y-4864484D01*
X3684348Y-4654960D02*
X3636729Y-4797817D01*
X3636729Y-4797817D02*
X3760539Y-4797817D01*
X3989110Y-4864484D02*
X3989110Y-4664484D01*
X4074825Y-4864484D02*
X4074825Y-4759722D01*
X4074825Y-4759722D02*
X4065301Y-4740674D01*
X4065301Y-4740674D02*
X4046253Y-4731150D01*
X4046253Y-4731150D02*
X4017682Y-4731150D01*
X4017682Y-4731150D02*
X3998634Y-4740674D01*
X3998634Y-4740674D02*
X3989110Y-4750198D01*
X4198634Y-4864484D02*
X4179587Y-4854960D01*
X4179587Y-4854960D02*
X4170063Y-4845436D01*
X4170063Y-4845436D02*
X4160539Y-4826389D01*
X4160539Y-4826389D02*
X4160539Y-4769246D01*
X4160539Y-4769246D02*
X4170063Y-4750198D01*
X4170063Y-4750198D02*
X4179587Y-4740674D01*
X4179587Y-4740674D02*
X4198634Y-4731150D01*
X4198634Y-4731150D02*
X4227206Y-4731150D01*
X4227206Y-4731150D02*
X4246253Y-4740674D01*
X4246253Y-4740674D02*
X4255777Y-4750198D01*
X4255777Y-4750198D02*
X4265301Y-4769246D01*
X4265301Y-4769246D02*
X4265301Y-4826389D01*
X4265301Y-4826389D02*
X4255777Y-4845436D01*
X4255777Y-4845436D02*
X4246253Y-4854960D01*
X4246253Y-4854960D02*
X4227206Y-4864484D01*
X4227206Y-4864484D02*
X4198634Y-4864484D01*
X4379587Y-4864484D02*
X4360539Y-4854960D01*
X4360539Y-4854960D02*
X4351015Y-4835912D01*
X4351015Y-4835912D02*
X4351015Y-4664484D01*
X4531968Y-4854960D02*
X4512920Y-4864484D01*
X4512920Y-4864484D02*
X4474825Y-4864484D01*
X4474825Y-4864484D02*
X4455777Y-4854960D01*
X4455777Y-4854960D02*
X4446253Y-4835912D01*
X4446253Y-4835912D02*
X4446253Y-4759722D01*
X4446253Y-4759722D02*
X4455777Y-4740674D01*
X4455777Y-4740674D02*
X4474825Y-4731150D01*
X4474825Y-4731150D02*
X4512920Y-4731150D01*
X4512920Y-4731150D02*
X4531968Y-4740674D01*
X4531968Y-4740674D02*
X4541492Y-4759722D01*
X4541492Y-4759722D02*
X4541492Y-4778770D01*
X4541492Y-4778770D02*
X4446253Y-4797817D01*
X4617682Y-4854960D02*
X4636730Y-4864484D01*
X4636730Y-4864484D02*
X4674825Y-4864484D01*
X4674825Y-4864484D02*
X4693873Y-4854960D01*
X4693873Y-4854960D02*
X4703396Y-4835912D01*
X4703396Y-4835912D02*
X4703396Y-4826389D01*
X4703396Y-4826389D02*
X4693873Y-4807341D01*
X4693873Y-4807341D02*
X4674825Y-4797817D01*
X4674825Y-4797817D02*
X4646253Y-4797817D01*
X4646253Y-4797817D02*
X4627206Y-4788293D01*
X4627206Y-4788293D02*
X4617682Y-4769246D01*
X4617682Y-4769246D02*
X4617682Y-4759722D01*
X4617682Y-4759722D02*
X4627206Y-4740674D01*
X4627206Y-4740674D02*
X4646253Y-4731150D01*
X4646253Y-4731150D02*
X4674825Y-4731150D01*
X4674825Y-4731150D02*
X4693873Y-4740674D01*
X4770063Y-4940674D02*
X4779587Y-4931150D01*
X4779587Y-4931150D02*
X4798634Y-4902579D01*
X4798634Y-4902579D02*
X4808158Y-4883531D01*
X4808158Y-4883531D02*
X4817682Y-4854960D01*
X4817682Y-4854960D02*
X4827206Y-4807341D01*
X4827206Y-4807341D02*
X4827206Y-4769246D01*
X4827206Y-4769246D02*
X4817682Y-4721627D01*
X4817682Y-4721627D02*
X4808158Y-4693055D01*
X4808158Y-4693055D02*
X4798634Y-4674008D01*
X4798634Y-4674008D02*
X4779587Y-4645436D01*
X4779587Y-4645436D02*
X4770063Y-4635912D01*
X5131968Y-4940674D02*
X5122444Y-4931150D01*
X5122444Y-4931150D02*
X5103396Y-4902579D01*
X5103396Y-4902579D02*
X5093873Y-4883531D01*
X5093873Y-4883531D02*
X5084349Y-4854960D01*
X5084349Y-4854960D02*
X5074825Y-4807341D01*
X5074825Y-4807341D02*
X5074825Y-4769246D01*
X5074825Y-4769246D02*
X5084349Y-4721627D01*
X5084349Y-4721627D02*
X5093873Y-4693055D01*
X5093873Y-4693055D02*
X5103396Y-4674008D01*
X5103396Y-4674008D02*
X5122444Y-4645436D01*
X5122444Y-4645436D02*
X5131968Y-4635912D01*
X5208158Y-4731150D02*
X5208158Y-4864484D01*
X5208158Y-4750198D02*
X5217682Y-4740674D01*
X5217682Y-4740674D02*
X5236730Y-4731150D01*
X5236730Y-4731150D02*
X5265301Y-4731150D01*
X5265301Y-4731150D02*
X5284349Y-4740674D01*
X5284349Y-4740674D02*
X5293873Y-4759722D01*
X5293873Y-4759722D02*
X5293873Y-4864484D01*
X5417682Y-4864484D02*
X5398634Y-4854960D01*
X5398634Y-4854960D02*
X5389111Y-4845436D01*
X5389111Y-4845436D02*
X5379587Y-4826389D01*
X5379587Y-4826389D02*
X5379587Y-4769246D01*
X5379587Y-4769246D02*
X5389111Y-4750198D01*
X5389111Y-4750198D02*
X5398634Y-4740674D01*
X5398634Y-4740674D02*
X5417682Y-4731150D01*
X5417682Y-4731150D02*
X5446254Y-4731150D01*
X5446254Y-4731150D02*
X5465301Y-4740674D01*
X5465301Y-4740674D02*
X5474825Y-4750198D01*
X5474825Y-4750198D02*
X5484349Y-4769246D01*
X5484349Y-4769246D02*
X5484349Y-4826389D01*
X5484349Y-4826389D02*
X5474825Y-4845436D01*
X5474825Y-4845436D02*
X5465301Y-4854960D01*
X5465301Y-4854960D02*
X5446254Y-4864484D01*
X5446254Y-4864484D02*
X5417682Y-4864484D01*
X5541492Y-4731150D02*
X5617682Y-4731150D01*
X5570063Y-4664484D02*
X5570063Y-4835912D01*
X5570063Y-4835912D02*
X5579587Y-4854960D01*
X5579587Y-4854960D02*
X5598634Y-4864484D01*
X5598634Y-4864484D02*
X5617682Y-4864484D01*
X5836730Y-4731150D02*
X5836730Y-4931150D01*
X5836730Y-4740674D02*
X5855777Y-4731150D01*
X5855777Y-4731150D02*
X5893873Y-4731150D01*
X5893873Y-4731150D02*
X5912920Y-4740674D01*
X5912920Y-4740674D02*
X5922444Y-4750198D01*
X5922444Y-4750198D02*
X5931968Y-4769246D01*
X5931968Y-4769246D02*
X5931968Y-4826389D01*
X5931968Y-4826389D02*
X5922444Y-4845436D01*
X5922444Y-4845436D02*
X5912920Y-4854960D01*
X5912920Y-4854960D02*
X5893873Y-4864484D01*
X5893873Y-4864484D02*
X5855777Y-4864484D01*
X5855777Y-4864484D02*
X5836730Y-4854960D01*
X6046253Y-4864484D02*
X6027206Y-4854960D01*
X6027206Y-4854960D02*
X6017682Y-4835912D01*
X6017682Y-4835912D02*
X6017682Y-4664484D01*
X6208158Y-4864484D02*
X6208158Y-4759722D01*
X6208158Y-4759722D02*
X6198634Y-4740674D01*
X6198634Y-4740674D02*
X6179587Y-4731150D01*
X6179587Y-4731150D02*
X6141492Y-4731150D01*
X6141492Y-4731150D02*
X6122444Y-4740674D01*
X6208158Y-4854960D02*
X6189111Y-4864484D01*
X6189111Y-4864484D02*
X6141492Y-4864484D01*
X6141492Y-4864484D02*
X6122444Y-4854960D01*
X6122444Y-4854960D02*
X6112920Y-4835912D01*
X6112920Y-4835912D02*
X6112920Y-4816865D01*
X6112920Y-4816865D02*
X6122444Y-4797817D01*
X6122444Y-4797817D02*
X6141492Y-4788293D01*
X6141492Y-4788293D02*
X6189111Y-4788293D01*
X6189111Y-4788293D02*
X6208158Y-4778770D01*
X6274825Y-4731150D02*
X6351015Y-4731150D01*
X6303396Y-4664484D02*
X6303396Y-4835912D01*
X6303396Y-4835912D02*
X6312920Y-4854960D01*
X6312920Y-4854960D02*
X6331968Y-4864484D01*
X6331968Y-4864484D02*
X6351015Y-4864484D01*
X6493873Y-4854960D02*
X6474825Y-4864484D01*
X6474825Y-4864484D02*
X6436730Y-4864484D01*
X6436730Y-4864484D02*
X6417682Y-4854960D01*
X6417682Y-4854960D02*
X6408158Y-4835912D01*
X6408158Y-4835912D02*
X6408158Y-4759722D01*
X6408158Y-4759722D02*
X6417682Y-4740674D01*
X6417682Y-4740674D02*
X6436730Y-4731150D01*
X6436730Y-4731150D02*
X6474825Y-4731150D01*
X6474825Y-4731150D02*
X6493873Y-4740674D01*
X6493873Y-4740674D02*
X6503396Y-4759722D01*
X6503396Y-4759722D02*
X6503396Y-4778770D01*
X6503396Y-4778770D02*
X6408158Y-4797817D01*
X6674825Y-4864484D02*
X6674825Y-4664484D01*
X6674825Y-4854960D02*
X6655777Y-4864484D01*
X6655777Y-4864484D02*
X6617682Y-4864484D01*
X6617682Y-4864484D02*
X6598634Y-4854960D01*
X6598634Y-4854960D02*
X6589111Y-4845436D01*
X6589111Y-4845436D02*
X6579587Y-4826389D01*
X6579587Y-4826389D02*
X6579587Y-4769246D01*
X6579587Y-4769246D02*
X6589111Y-4750198D01*
X6589111Y-4750198D02*
X6598634Y-4740674D01*
X6598634Y-4740674D02*
X6617682Y-4731150D01*
X6617682Y-4731150D02*
X6655777Y-4731150D01*
X6655777Y-4731150D02*
X6674825Y-4740674D01*
X6751015Y-4940674D02*
X6760539Y-4931150D01*
X6760539Y-4931150D02*
X6779587Y-4902579D01*
X6779587Y-4902579D02*
X6789111Y-4883531D01*
X6789111Y-4883531D02*
X6798634Y-4854960D01*
X6798634Y-4854960D02*
X6808158Y-4807341D01*
X6808158Y-4807341D02*
X6808158Y-4769246D01*
X6808158Y-4769246D02*
X6798634Y-4721627D01*
X6798634Y-4721627D02*
X6789111Y-4693055D01*
X6789111Y-4693055D02*
X6779587Y-4674008D01*
X6779587Y-4674008D02*
X6760539Y-4645436D01*
X6760539Y-4645436D02*
X6751015Y-4635912D01*
M02*
