%TF.GenerationSoftware,KiCad,Pcbnew,10.0.4*%
%TF.CreationDate,2026-09-11T23:45:20-03:00*%
%TF.ProjectId,tia-fpga,7469612d-6670-4676-912e-6b696361645f,rev?*%
%TF.SameCoordinates,Original*%
%TF.FileFunction,Copper,L2,Bot*%
%TF.FilePolarity,Positive*%
%FSLAX46Y46*%
G04 Gerber Fmt 4.6, Leading zero omitted, Abs format (unit mm)*
G04 Created by KiCad (PCBNEW 10.0.4) date 2026-09-11 23:45:20*
%MOMM*%
%LPD*%
G01*
G04 APERTURE LIST*
%TA.AperFunction,ComponentPad*%
%ADD10R,1.700000X1.700000*%
%TD*%
%TA.AperFunction,ComponentPad*%
%ADD11C,1.700000*%
%TD*%
%TA.AperFunction,ViaPad*%
%ADD12C,0.600000*%
%TD*%
%TA.AperFunction,Conductor*%
%ADD13C,0.200000*%
%TD*%
G04 APERTURE END LIST*
D10*
%TO.P,J1,1*%
%TO.N,/F_D6*%
X5790000Y-5840000D03*
D11*
%TO.P,J1,2*%
%TO.N,/F_D7*%
X8330000Y-5840000D03*
%TO.P,J1,3*%
%TO.N,/F_AU1*%
X10870000Y-5840000D03*
%TO.P,J1,4*%
%TO.N,/F_I4*%
X13410000Y-5840000D03*
%TO.P,J1,5*%
%TO.N,/F_D0*%
X15950000Y-5840000D03*
%TO.P,J1,6*%
%TO.N,/F_D1*%
X18490000Y-5840000D03*
%TO.P,J1,7*%
%TO.N,/F_D2*%
X21030000Y-5840000D03*
%TO.P,J1,8*%
%TO.N,/F_D3*%
X23570000Y-5840000D03*
%TO.P,J1,9*%
%TO.N,/F_D4*%
X26110000Y-5840000D03*
%TO.P,J1,10*%
%TO.N,/F_D5*%
X28650000Y-5840000D03*
%TO.P,J1,11*%
%TO.N,/F_A0*%
X31190000Y-5840000D03*
%TO.P,J1,12*%
%TO.N,/F_A1*%
X33730000Y-5840000D03*
%TO.P,J1,13*%
%TO.N,/F_A2*%
X36270000Y-5840000D03*
%TO.P,J1,14*%
%TO.N,/F_A3*%
X38810000Y-5840000D03*
%TO.P,J1,15*%
%TO.N,/F_A4*%
X41350000Y-5840000D03*
%TO.P,J1,16*%
%TO.N,/F_A5*%
X43890000Y-5840000D03*
%TO.P,J1,17*%
%TO.N,/F_RW*%
X46430000Y-5840000D03*
%TO.P,J1,18*%
%TO.N,/F_CS0_N*%
X48970000Y-5840000D03*
%TO.P,J1,19*%
%TO.N,/F_CS3_N*%
X51510000Y-5840000D03*
%TO.P,J1,20*%
%TO.N,/F_PHI2*%
X54050000Y-5840000D03*
%TO.P,J1,21*%
%TO.N,/F_OSC*%
X56590000Y-5840000D03*
%TO.P,J1,22*%
%TO.N,/F_PHI0*%
X59130000Y-5840000D03*
%TO.P,J1,23*%
%TO.N,unconnected-(J1-Pin_23-Pad23)*%
X61670000Y-5840000D03*
%TO.P,J1,24*%
%TO.N,unconnected-(J1-Pin_24-Pad24)*%
X64210000Y-5840000D03*
%TD*%
D10*
%TO.P,J4,1*%
%TO.N,/F_RDY*%
X5790000Y-26160000D03*
D11*
%TO.P,J4,2*%
%TO.N,unconnected-(J4-Pin_2-Pad2)*%
X8330000Y-26160000D03*
%TO.P,J4,3*%
%TO.N,unconnected-(J4-Pin_3-Pad3)*%
X10870000Y-26160000D03*
%TO.P,J4,4*%
%TO.N,unconnected-(J4-Pin_4-Pad4)*%
X13410000Y-26160000D03*
%TO.P,J4,5*%
%TO.N,unconnected-(J4-Pin_5-Pad5)*%
X15950000Y-26160000D03*
%TO.P,J4,6*%
%TO.N,unconnected-(J4-Pin_6-Pad6)*%
X18490000Y-26160000D03*
%TO.P,J4,7*%
%TO.N,unconnected-(J4-Pin_7-Pad7)*%
X21030000Y-26160000D03*
%TO.P,J4,8*%
%TO.N,unconnected-(J4-Pin_8-Pad8)*%
X23570000Y-26160000D03*
%TO.P,J4,9*%
%TO.N,unconnected-(J4-Pin_9-Pad9)*%
X26110000Y-26160000D03*
%TO.P,J4,10*%
%TO.N,/F_I5*%
X28650000Y-26160000D03*
%TO.P,J4,11*%
%TO.N,/F_CSYNC*%
X31190000Y-26160000D03*
%TO.P,J4,12*%
%TO.N,unconnected-(J4-Pin_12-Pad12)*%
X33730000Y-26160000D03*
%TO.P,J4,13*%
%TO.N,unconnected-(J4-Pin_13-Pad13)*%
X36270000Y-26160000D03*
%TO.P,J4,14*%
%TO.N,unconnected-(J4-Pin_14-Pad14)*%
X38810000Y-26160000D03*
%TO.P,J4,15*%
%TO.N,unconnected-(J4-Pin_15-Pad15)*%
X41350000Y-26160000D03*
%TO.P,J4,16*%
%TO.N,unconnected-(J4-Pin_16-Pad16)*%
X43890000Y-26160000D03*
%TO.P,J4,17*%
%TO.N,unconnected-(J4-Pin_17-Pad17)*%
X46430000Y-26160000D03*
%TO.P,J4,18*%
%TO.N,unconnected-(J4-Pin_18-Pad18)*%
X48970000Y-26160000D03*
%TO.P,J4,19*%
%TO.N,/F_LUM0*%
X51510000Y-26160000D03*
%TO.P,J4,20*%
%TO.N,/F_LUM1*%
X54050000Y-26160000D03*
%TO.P,J4,21*%
%TO.N,/F_LUM2*%
X56590000Y-26160000D03*
%TO.P,J4,22*%
%TO.N,/F_AU0*%
X59130000Y-26160000D03*
%TO.P,J4,23*%
%TO.N,GND*%
X61670000Y-26160000D03*
%TO.P,J4,24*%
%TO.N,+3V3*%
X64210000Y-26160000D03*
%TD*%
D10*
%TO.P,J2,1*%
%TO.N,GND*%
X10870000Y-8380000D03*
D11*
%TO.P,J2,2*%
%TO.N,/F_CSYNC*%
X13410000Y-8380000D03*
%TO.P,J2,3*%
%TO.N,/TIA_RDY*%
X15950000Y-8380000D03*
%TO.P,J2,4*%
%TO.N,/TIA_PHI0*%
X18490000Y-8380000D03*
%TO.P,J2,5*%
%TO.N,/F_LUM1*%
X21030000Y-8380000D03*
%TO.P,J2,6*%
%TO.N,unconnected-(J2-Pin_6-Pad6)*%
X23570000Y-8380000D03*
%TO.P,J2,7*%
%TO.N,/F_LUM2*%
X26110000Y-8380000D03*
%TO.P,J2,8*%
%TO.N,/F_LUM0*%
X28650000Y-8380000D03*
%TO.P,J2,9*%
%TO.N,unconnected-(J2-Pin_9-Pad9)*%
X31190000Y-8380000D03*
%TO.P,J2,10*%
%TO.N,unconnected-(J2-Pin_10-Pad10)*%
X33730000Y-8380000D03*
%TO.P,J2,11*%
%TO.N,/TIA_OSC*%
X36270000Y-8380000D03*
%TO.P,J2,12*%
%TO.N,/F_AU1*%
X38810000Y-8380000D03*
%TO.P,J2,13*%
%TO.N,/F_AU0*%
X41350000Y-8380000D03*
%TO.P,J2,14*%
%TO.N,/TIA_D0*%
X43890000Y-8380000D03*
%TO.P,J2,15*%
%TO.N,/TIA_D1*%
X46430000Y-8380000D03*
%TO.P,J2,16*%
%TO.N,/TIA_D2*%
X48970000Y-8380000D03*
%TO.P,J2,17*%
%TO.N,/TIA_D3*%
X51510000Y-8380000D03*
%TO.P,J2,18*%
%TO.N,/TIA_D4*%
X54050000Y-8380000D03*
%TO.P,J2,19*%
%TO.N,/TIA_D5*%
X56590000Y-8380000D03*
%TO.P,J2,20*%
%TO.N,+5V*%
X59130000Y-8380000D03*
%TD*%
D10*
%TO.P,J3,1*%
%TO.N,/TIA_CS3_N*%
X59130000Y-23620000D03*
D11*
%TO.P,J3,2*%
%TO.N,GND*%
X56590000Y-23620000D03*
%TO.P,J3,3*%
%TO.N,+5V*%
X54050000Y-23620000D03*
%TO.P,J3,4*%
%TO.N,/TIA_CS0_N*%
X51510000Y-23620000D03*
%TO.P,J3,5*%
%TO.N,/TIA_RW*%
X48970000Y-23620000D03*
%TO.P,J3,6*%
%TO.N,/TIA_PHI2*%
X46430000Y-23620000D03*
%TO.P,J3,7*%
%TO.N,/TIA_A5*%
X43890000Y-23620000D03*
%TO.P,J3,8*%
%TO.N,/TIA_A4*%
X41350000Y-23620000D03*
%TO.P,J3,9*%
%TO.N,/TIA_A3*%
X38810000Y-23620000D03*
%TO.P,J3,10*%
%TO.N,/TIA_A2*%
X36270000Y-23620000D03*
%TO.P,J3,11*%
%TO.N,/TIA_A1*%
X33730000Y-23620000D03*
%TO.P,J3,12*%
%TO.N,/TIA_A0*%
X31190000Y-23620000D03*
%TO.P,J3,13*%
%TO.N,/TIA_D6*%
X28650000Y-23620000D03*
%TO.P,J3,14*%
%TO.N,/TIA_D7*%
X26110000Y-23620000D03*
%TO.P,J3,15*%
%TO.N,/TIA_I5*%
X23570000Y-23620000D03*
%TO.P,J3,16*%
%TO.N,/TIA_I4*%
X21030000Y-23620000D03*
%TO.P,J3,17*%
%TO.N,unconnected-(J3-Pin_17-Pad17)*%
X18490000Y-23620000D03*
%TO.P,J3,18*%
%TO.N,unconnected-(J3-Pin_18-Pad18)*%
X15950000Y-23620000D03*
%TO.P,J3,19*%
%TO.N,unconnected-(J3-Pin_19-Pad19)*%
X13410000Y-23620000D03*
%TO.P,J3,20*%
%TO.N,unconnected-(J3-Pin_20-Pad20)*%
X10870000Y-23620000D03*
%TD*%
D12*
%TO.N,/F_RW*%
X49119000Y-17792800D03*
X37793800Y-11969100D03*
X48315400Y-4393900D03*
X43039100Y-17214400D03*
X54459200Y-4471600D03*
%TO.N,/F_D0*%
X14356800Y-17689700D03*
%TO.N,/F_D1*%
X14550300Y-18571900D03*
X14443100Y-9399100D03*
%TO.N,/F_D2*%
X15399500Y-19151000D03*
%TO.N,/F_D3*%
X16365000Y-19002700D03*
%TO.N,/F_D4*%
X18283900Y-19303100D03*
%TO.N,/F_D5*%
X21832100Y-18665100D03*
%TO.N,/F_D6*%
X16255700Y-22133600D03*
%TO.N,/F_D7*%
X19516600Y-22469900D03*
%TO.N,GND*%
X25411800Y-19145200D03*
X20190700Y-9494600D03*
X24151400Y-12701400D03*
%TO.N,/TIA_D7*%
X24203000Y-10469200D03*
%TO.N,/TIA_D6*%
X28276200Y-13870100D03*
%TO.N,/TIA_D3*%
X47133200Y-14902100D03*
%TO.N,/TIA_D2*%
X45945800Y-12980100D03*
%TO.N,/TIA_D1*%
X48264600Y-16823300D03*
%TO.N,/TIA_D0*%
X40080500Y-7110400D03*
X35363800Y-4829500D03*
X42620400Y-7110400D03*
%TO.N,+3V3*%
X57145700Y-1170600D03*
%TO.N,/F_LUM1*%
X16998800Y-31007500D03*
%TO.N,/F_CSYNC*%
X9695900Y-27624400D03*
%TO.N,/F_PHI0*%
X58489200Y-20018500D03*
%TO.N,/F_RDY*%
X20437500Y-24890000D03*
X24713600Y-16196400D03*
%TO.N,/TIA_RDY*%
X15967100Y-15644700D03*
%TO.N,/F_LUM2*%
X27243400Y-30484400D03*
%TO.N,/F_I4*%
X34652500Y-13978200D03*
%TO.N,/F_A3*%
X35438700Y-9486200D03*
X32287800Y-10087100D03*
%TO.N,/F_A5*%
X38369900Y-11445300D03*
%TO.N,/F_CS3_N*%
X10642300Y-2920600D03*
%TO.N,/F_PHI2*%
X41609500Y-9744500D03*
%TO.N,/TIA_A2*%
X31032100Y-19360700D03*
%TO.N,/TIA_A3*%
X33235900Y-22152700D03*
%TO.N,/TIA_A4*%
X37480100Y-19555600D03*
%TO.N,/TIA_RW*%
X44469700Y-24890000D03*
X35079100Y-22130900D03*
%TO.N,/TIA_CS0_N*%
X38788000Y-19253900D03*
%TO.N,/TIA_CS3_N*%
X56022700Y-21964500D03*
%TO.N,/TIA_I5*%
X24713600Y-18003400D03*
%TO.N,/TIA_OSC*%
X44402500Y-19146900D03*
%TO.N,/F_I5*%
X33202200Y-14027300D03*
%TD*%
%TO.N,/F_RW*%
D13*
X47876100Y-4393900D02*
X48315400Y-4393900D01*
X43039100Y-17214400D02*
X37793800Y-11969100D01*
X52779900Y-8074900D02*
X53744800Y-7110000D01*
X52779900Y-14131900D02*
X52779900Y-8074900D01*
X55235100Y-5247500D02*
X54459200Y-4471600D01*
X49119000Y-17792800D02*
X52779900Y-14131900D01*
X53744800Y-7110000D02*
X54364400Y-7110000D01*
X46430000Y-5840000D02*
X47876100Y-4393900D01*
X54364400Y-7110000D02*
X55235100Y-6239300D01*
X55235100Y-6239300D02*
X55235100Y-5247500D01*
%TO.N,/F_D0*%
X14994800Y-9170600D02*
X14994800Y-17051700D01*
X14994800Y-17051700D02*
X14356800Y-17689700D01*
X14810500Y-6979500D02*
X14810500Y-8986300D01*
X14810500Y-8986300D02*
X14994800Y-9170600D01*
X15950000Y-5840000D02*
X14810500Y-6979500D01*
%TO.N,/F_D1*%
X14441100Y-18571800D02*
X14550300Y-18571800D01*
X13786400Y-17917100D02*
X14441100Y-18571800D01*
X13786400Y-10055800D02*
X13786400Y-17917100D01*
X14443100Y-9399100D02*
X13786400Y-10055800D01*
X14550300Y-18571800D02*
X14550300Y-18571900D01*
%TO.N,/F_D2*%
X21030000Y-5840000D02*
X19760000Y-7110000D01*
X17220000Y-17330500D02*
X15399500Y-19151000D01*
X17220000Y-8065700D02*
X17220000Y-17330500D01*
X19760000Y-7110000D02*
X18175700Y-7110000D01*
X18175700Y-7110000D02*
X17220000Y-8065700D01*
%TO.N,/F_D3*%
X19639000Y-8186700D02*
X19639000Y-15728700D01*
X19639000Y-15728700D02*
X16365000Y-19002700D01*
X20715700Y-7110000D02*
X19639000Y-8186700D01*
X23570000Y-5840000D02*
X22300000Y-7110000D01*
X22300000Y-7110000D02*
X20715700Y-7110000D01*
%TO.N,/F_D4*%
X23252500Y-7110000D02*
X22423900Y-7938600D01*
X21223300Y-16363700D02*
X18283900Y-19303100D01*
X22423900Y-9081600D02*
X21223300Y-10282200D01*
X21223300Y-10282200D02*
X21223300Y-16363700D01*
X24840000Y-7110000D02*
X23252500Y-7110000D01*
X22423900Y-7938600D02*
X22423900Y-9081600D01*
X26110000Y-5840000D02*
X24840000Y-7110000D01*
%TO.N,/F_D5*%
X25792500Y-7110000D02*
X27380000Y-7110000D01*
X27380000Y-7110000D02*
X28650000Y-5840000D01*
X24963900Y-8800800D02*
X24963900Y-7938600D01*
X24963900Y-7938600D02*
X25792500Y-7110000D01*
X21832100Y-11932600D02*
X24963900Y-8800800D01*
X21832100Y-18665100D02*
X21832100Y-11932600D01*
%TO.N,/F_D6*%
X16255700Y-22133600D02*
X5790000Y-11667900D01*
X5790000Y-11667900D02*
X5790000Y-5840000D01*
%TO.N,/F_D7*%
X8330000Y-13671800D02*
X15515200Y-20857000D01*
X17903700Y-20857000D02*
X19516600Y-22469900D01*
X8330000Y-5840000D02*
X8330000Y-13671800D01*
X15515200Y-20857000D02*
X17903700Y-20857000D01*
%TO.N,GND*%
X10870000Y-15714400D02*
X10870000Y-8380000D01*
X25411800Y-19145200D02*
X25411800Y-13961800D01*
X20190700Y-15975400D02*
X16447900Y-19718200D01*
X25411800Y-13961800D02*
X24151400Y-12701400D01*
X14873800Y-19718200D02*
X10870000Y-15714400D01*
X56590000Y-23620000D02*
X57736100Y-24766100D01*
X20190700Y-9494600D02*
X20190700Y-15975400D01*
X60276100Y-24766100D02*
X61670000Y-26160000D01*
X16447900Y-19718200D02*
X14873800Y-19718200D01*
X57736100Y-24766100D02*
X60276100Y-24766100D01*
%TO.N,/TIA_D7*%
X24203000Y-10469200D02*
X26110000Y-12376200D01*
X26110000Y-12376200D02*
X26110000Y-23620000D01*
%TO.N,/TIA_D6*%
X28650000Y-23620000D02*
X28650000Y-14243900D01*
X28650000Y-14243900D02*
X28276200Y-13870100D01*
%TO.N,/TIA_D3*%
X51510000Y-8380000D02*
X47133200Y-12756800D01*
X47133200Y-12756800D02*
X47133200Y-14902100D01*
%TO.N,/TIA_D2*%
X48970000Y-8380000D02*
X45945800Y-11404200D01*
X45945800Y-11404200D02*
X45945800Y-12980100D01*
%TO.N,/TIA_D1*%
X46430000Y-8380000D02*
X45391500Y-9418500D01*
X45391500Y-13950200D02*
X48264600Y-16823300D01*
X45391500Y-9418500D02*
X45391500Y-13950200D01*
%TO.N,/TIA_D0*%
X35496100Y-4697200D02*
X39255200Y-4697200D01*
X43890000Y-8380000D02*
X42620400Y-7110400D01*
X35363800Y-4829500D02*
X35496100Y-4697200D01*
X40080500Y-5522500D02*
X40080500Y-7110400D01*
X39255200Y-4697200D02*
X40080500Y-5522500D01*
%TO.N,+3V3*%
X60530000Y-6348500D02*
X60530000Y-4554900D01*
X64210000Y-26160000D02*
X64210000Y-10028500D01*
X64210000Y-10028500D02*
X60530000Y-6348500D01*
X60530000Y-4554900D02*
X57145700Y-1170600D01*
%TO.N,/F_LUM1*%
X18804400Y-24890000D02*
X19760000Y-23934400D01*
X17085800Y-30920500D02*
X17085800Y-25979900D01*
X16998800Y-31007500D02*
X17085800Y-30920500D01*
X19760000Y-23189900D02*
X20104200Y-22845700D01*
X17085800Y-25979900D02*
X18175700Y-24890000D01*
X20871600Y-15935100D02*
X20871600Y-8538400D01*
X20104200Y-22845700D02*
X20104200Y-22058300D01*
X19760000Y-23934400D02*
X19760000Y-23189900D01*
X20104200Y-22058300D02*
X17725600Y-19679700D01*
X18175700Y-24890000D02*
X18804400Y-24890000D01*
X20871600Y-8538400D02*
X21030000Y-8380000D01*
X17725600Y-19679700D02*
X17725600Y-19081100D01*
X17725600Y-19081100D02*
X20871600Y-15935100D01*
%TO.N,/F_CSYNC*%
X13410000Y-8380000D02*
X12263900Y-7233900D01*
X4628700Y-4879400D02*
X4628700Y-20015700D01*
X9695900Y-25082900D02*
X9695900Y-27624400D01*
X10634500Y-7233900D02*
X9600000Y-6199400D01*
X9600000Y-6199400D02*
X9600000Y-5469600D01*
X4769800Y-4738300D02*
X4628700Y-4879400D01*
X12263900Y-7233900D02*
X10634500Y-7233900D01*
X9600000Y-5469600D02*
X8868700Y-4738300D01*
X4628700Y-20015700D02*
X9695900Y-25082900D01*
X8868700Y-4738300D02*
X4769800Y-4738300D01*
%TO.N,/F_PHI0*%
X59130000Y-5840000D02*
X60257800Y-6967800D01*
X60257800Y-18249900D02*
X58489200Y-20018500D01*
X60257800Y-6967800D02*
X60257800Y-18249900D01*
%TO.N,/F_RDY*%
X24713600Y-17170600D02*
X24713600Y-16196400D01*
X21389800Y-24890000D02*
X22382300Y-23897500D01*
X22382300Y-23897500D02*
X22382300Y-19501900D01*
X22382300Y-19501900D02*
X24713600Y-17170600D01*
X20437500Y-24890000D02*
X21389800Y-24890000D01*
%TO.N,/TIA_RDY*%
X15950000Y-15627600D02*
X15967100Y-15644700D01*
X15950000Y-8380000D02*
X15950000Y-15627600D01*
%TO.N,+5V*%
X59130000Y-8380000D02*
X54050000Y-13460000D01*
X54050000Y-13460000D02*
X54050000Y-23620000D01*
%TO.N,/F_LUM2*%
X31643600Y-25029300D02*
X32460100Y-25845800D01*
X30756800Y-25029300D02*
X31643600Y-25029300D01*
X27243400Y-27287300D02*
X29135700Y-27287300D01*
X33608900Y-27613400D02*
X55136600Y-27613400D01*
X55136600Y-27613400D02*
X56590000Y-26160000D01*
X27243400Y-9513400D02*
X27243400Y-27287300D01*
X29920000Y-26503000D02*
X29920000Y-25866100D01*
X27243400Y-27287300D02*
X27243400Y-30484400D01*
X26110000Y-8380000D02*
X27243400Y-9513400D01*
X32460100Y-25845800D02*
X32460100Y-26464600D01*
X29135700Y-27287300D02*
X29920000Y-26503000D01*
X29920000Y-25866100D02*
X30756800Y-25029300D01*
X32460100Y-26464600D02*
X33608900Y-27613400D01*
%TO.N,/F_AU1*%
X12360000Y-4350000D02*
X10870000Y-5840000D01*
X33435000Y-7110000D02*
X32460100Y-6135100D01*
X32460100Y-5509000D02*
X31301100Y-4350000D01*
X31301100Y-4350000D02*
X12360000Y-4350000D01*
X38810000Y-8380000D02*
X37540000Y-7110000D01*
X32460100Y-6135100D02*
X32460100Y-5509000D01*
X37540000Y-7110000D02*
X33435000Y-7110000D01*
%TO.N,/F_I4*%
X29920000Y-9245700D02*
X34652500Y-13978200D01*
X29076100Y-4701700D02*
X29920000Y-5545600D01*
X29920000Y-5545600D02*
X29920000Y-9245700D01*
X14548300Y-4701700D02*
X29076100Y-4701700D01*
X13410000Y-5840000D02*
X14548300Y-4701700D01*
%TO.N,/F_A3*%
X34837800Y-10087100D02*
X35438700Y-9486200D01*
X32287800Y-10087100D02*
X34837800Y-10087100D01*
%TO.N,/F_A5*%
X39911700Y-9903500D02*
X38369900Y-11445300D01*
X43890000Y-5840000D02*
X42988300Y-5840000D01*
X39911700Y-8229800D02*
X39911700Y-9903500D01*
X42988300Y-5840000D02*
X41594600Y-7233700D01*
X40907800Y-7233700D02*
X39911700Y-8229800D01*
X41594600Y-7233700D02*
X40907800Y-7233700D01*
%TO.N,/F_CS3_N*%
X10642300Y-2920600D02*
X48590600Y-2920600D01*
X48590600Y-2920600D02*
X51510000Y-5840000D01*
%TO.N,/F_PHI2*%
X45160100Y-8723600D02*
X45160100Y-8014800D01*
X41609500Y-9744500D02*
X44139200Y-9744500D01*
X52948300Y-6941700D02*
X54050000Y-5840000D01*
X46233200Y-6941700D02*
X52948300Y-6941700D01*
X44139200Y-9744500D02*
X45160100Y-8723600D01*
X45160100Y-8014800D02*
X46233200Y-6941700D01*
%TO.N,/F_LUM0*%
X47700000Y-23250300D02*
X47700000Y-23980800D01*
X47700000Y-23980800D02*
X48777500Y-25058300D01*
X28650000Y-8380000D02*
X28650000Y-8653600D01*
X50408300Y-25058300D02*
X51510000Y-26160000D01*
X38446800Y-18552600D02*
X43002300Y-18552600D01*
X28650000Y-8653600D02*
X34100800Y-14104400D01*
X34100800Y-14104400D02*
X34100800Y-14206600D01*
X48777500Y-25058300D02*
X50408300Y-25058300D01*
X34100800Y-14206600D02*
X38446800Y-18552600D01*
X43002300Y-18552600D02*
X47700000Y-23250300D01*
%TO.N,/TIA_A2*%
X31528800Y-19360700D02*
X34850700Y-22682600D01*
X31032100Y-19360700D02*
X31528800Y-19360700D01*
X35332600Y-22682600D02*
X36270000Y-23620000D01*
X34850700Y-22682600D02*
X35332600Y-22682600D01*
%TO.N,/TIA_A3*%
X33823500Y-22152700D02*
X35123800Y-23453000D01*
X35123900Y-24061400D02*
X35813400Y-24750900D01*
X35123900Y-23453000D02*
X35123900Y-24061400D01*
X35123800Y-23453000D02*
X35123900Y-23453000D01*
X37679100Y-24750900D02*
X38810000Y-23620000D01*
X33235900Y-22152700D02*
X33823500Y-22152700D01*
X35813400Y-24750900D02*
X37679100Y-24750900D01*
%TO.N,/TIA_A4*%
X41350000Y-23425500D02*
X37480100Y-19555600D01*
X41350000Y-23620000D02*
X41350000Y-23425500D01*
%TO.N,/TIA_RW*%
X38879000Y-22130900D02*
X35079100Y-22130900D01*
X41035700Y-24890000D02*
X39949000Y-23803300D01*
X44469700Y-24890000D02*
X41035700Y-24890000D01*
X39949000Y-23200900D02*
X38879000Y-22130900D01*
X39949000Y-23803300D02*
X39949000Y-23200900D01*
%TO.N,/TIA_CS0_N*%
X46115700Y-24890000D02*
X45160000Y-23934300D01*
X48491800Y-27261700D02*
X47700000Y-26469900D01*
X52624400Y-24734400D02*
X52624400Y-26625300D01*
X52624400Y-26625300D02*
X51988000Y-27261700D01*
X51988000Y-27261700D02*
X48491800Y-27261700D01*
X51510000Y-23620000D02*
X52624400Y-24734400D01*
X45160000Y-23267900D02*
X41146000Y-19253900D01*
X45160000Y-23934300D02*
X45160000Y-23267900D01*
X41146000Y-19253900D02*
X38788000Y-19253900D01*
X47700000Y-25845600D02*
X46744400Y-24890000D01*
X47700000Y-26469900D02*
X47700000Y-25845600D01*
X46744400Y-24890000D02*
X46115700Y-24890000D01*
%TO.N,/TIA_CS3_N*%
X56510500Y-21964500D02*
X56022700Y-21964500D01*
X59130000Y-23620000D02*
X58028300Y-23620000D01*
X58028300Y-23620000D02*
X58028300Y-23482300D01*
X58028300Y-23482300D02*
X56510500Y-21964500D01*
%TO.N,/TIA_I5*%
X24713600Y-22476400D02*
X23570000Y-23620000D01*
X24713600Y-18003400D02*
X24713600Y-22476400D01*
%TO.N,/TIA_OSC*%
X36270000Y-8380000D02*
X36270000Y-11265700D01*
X36270000Y-11265700D02*
X44151200Y-19146900D01*
X44151200Y-19146900D02*
X44402500Y-19146900D01*
%TO.N,/F_I5*%
X29920000Y-17309500D02*
X33202200Y-14027300D01*
X29920000Y-24890000D02*
X29920000Y-17309500D01*
X28650000Y-26160000D02*
X29920000Y-24890000D01*
%TO.N,/F_AU0*%
X57239900Y-24890000D02*
X58509900Y-26160000D01*
X52780100Y-22234000D02*
X52780100Y-23982000D01*
X41350000Y-8380000D02*
X41057800Y-8672200D01*
X52780100Y-23982000D02*
X53688100Y-24890000D01*
X53688100Y-24890000D02*
X57239900Y-24890000D01*
X41057800Y-10511700D02*
X52780100Y-22234000D01*
X58509900Y-26160000D02*
X59130000Y-26160000D01*
X41057800Y-8672200D02*
X41057800Y-10511700D01*
%TD*%
M02*
