%TF.GenerationSoftware,KiCad,Pcbnew,10.0.4*%
%TF.CreationDate,2026-09-15T23:23:50-03:00*%
%TF.ProjectId,tia-fpga,7469612d-6670-4676-912e-6b696361645f,B*%
%TF.SameCoordinates,Original*%
%TF.FileFunction,Legend,Top*%
%TF.FilePolarity,Positive*%
%FSLAX46Y46*%
G04 Gerber Fmt 4.6, Leading zero omitted, Abs format (unit mm)*
G04 Created by KiCad (PCBNEW 10.0.4) date 2026-09-15 23:23:50*
%MOMM*%
%LPD*%
G01*
G04 APERTURE LIST*
G04 Aperture macros list*
%AMRoundRect*
0 Rectangle with rounded corners*
0 $1 Rounding radius*
0 $2 $3 $4 $5 $6 $7 $8 $9 X,Y pos of 4 corners*
0 Add a 4 corners polygon primitive as box body*
4,1,4,$2,$3,$4,$5,$6,$7,$8,$9,$2,$3,0*
0 Add four circle primitives for the rounded corners*
1,1,$1+$1,$2,$3*
1,1,$1+$1,$4,$5*
1,1,$1+$1,$6,$7*
1,1,$1+$1,$8,$9*
0 Add four rect primitives between the rounded corners*
20,1,$1+$1,$2,$3,$4,$5,0*
20,1,$1+$1,$4,$5,$6,$7,0*
20,1,$1+$1,$6,$7,$8,$9,0*
20,1,$1+$1,$8,$9,$2,$3,0*%
G04 Aperture macros list end*
%ADD10C,0.180000*%
%ADD11C,0.120000*%
%ADD12RoundRect,0.150000X-0.512500X-0.150000X0.512500X-0.150000X0.512500X0.150000X-0.512500X0.150000X0*%
%ADD13RoundRect,0.250000X-0.250000X-0.475000X0.250000X-0.475000X0.250000X0.475000X-0.250000X0.475000X0*%
%ADD14RoundRect,0.225000X-0.225000X-0.375000X0.225000X-0.375000X0.225000X0.375000X-0.225000X0.375000X0*%
%ADD15RoundRect,0.250000X0.475000X-0.250000X0.475000X0.250000X-0.475000X0.250000X-0.475000X-0.250000X0*%
%ADD16R,1.700000X1.700000*%
%ADD17C,1.700000*%
%ADD18RoundRect,0.150000X0.150000X-0.875000X0.150000X0.875000X-0.150000X0.875000X-0.150000X-0.875000X0*%
%ADD19RoundRect,0.150000X0.150000X-0.825000X0.150000X0.825000X-0.150000X0.825000X-0.150000X-0.825000X0*%
G04 APERTURE END LIST*
D10*
X7012857Y-12095782D02*
X6327143Y-12095782D01*
X6670000Y-12095782D02*
X6670000Y-10895782D01*
X6670000Y-10895782D02*
X6555714Y-11067211D01*
X6555714Y-11067211D02*
X6441429Y-11181497D01*
X6441429Y-11181497D02*
X6327143Y-11238640D01*
X6327143Y-22735782D02*
X6327143Y-23535782D01*
X6041428Y-22278640D02*
X5755714Y-23135782D01*
X5755714Y-23135782D02*
X6498571Y-23135782D01*
X7184285Y-22335782D02*
X7298571Y-22335782D01*
X7298571Y-22335782D02*
X7412857Y-22392925D01*
X7412857Y-22392925D02*
X7470000Y-22450068D01*
X7470000Y-22450068D02*
X7527142Y-22564354D01*
X7527142Y-22564354D02*
X7584285Y-22792925D01*
X7584285Y-22792925D02*
X7584285Y-23078640D01*
X7584285Y-23078640D02*
X7527142Y-23307211D01*
X7527142Y-23307211D02*
X7470000Y-23421497D01*
X7470000Y-23421497D02*
X7412857Y-23478640D01*
X7412857Y-23478640D02*
X7298571Y-23535782D01*
X7298571Y-23535782D02*
X7184285Y-23535782D01*
X7184285Y-23535782D02*
X7070000Y-23478640D01*
X7070000Y-23478640D02*
X7012857Y-23421497D01*
X7012857Y-23421497D02*
X6955714Y-23307211D01*
X6955714Y-23307211D02*
X6898571Y-23078640D01*
X6898571Y-23078640D02*
X6898571Y-22792925D01*
X6898571Y-22792925D02*
X6955714Y-22564354D01*
X6955714Y-22564354D02*
X7012857Y-22450068D01*
X7012857Y-22450068D02*
X7070000Y-22392925D01*
X7070000Y-22392925D02*
X7184285Y-22335782D01*
D11*
X36366667Y-32327664D02*
X36328571Y-32365760D01*
X36328571Y-32365760D02*
X36214286Y-32403855D01*
X36214286Y-32403855D02*
X36138095Y-32403855D01*
X36138095Y-32403855D02*
X36023809Y-32365760D01*
X36023809Y-32365760D02*
X35947619Y-32289569D01*
X35947619Y-32289569D02*
X35909524Y-32213379D01*
X35909524Y-32213379D02*
X35871428Y-32060998D01*
X35871428Y-32060998D02*
X35871428Y-31946712D01*
X35871428Y-31946712D02*
X35909524Y-31794331D01*
X35909524Y-31794331D02*
X35947619Y-31718140D01*
X35947619Y-31718140D02*
X36023809Y-31641950D01*
X36023809Y-31641950D02*
X36138095Y-31603855D01*
X36138095Y-31603855D02*
X36214286Y-31603855D01*
X36214286Y-31603855D02*
X36328571Y-31641950D01*
X36328571Y-31641950D02*
X36366667Y-31680045D01*
X36633333Y-31603855D02*
X37128571Y-31603855D01*
X37128571Y-31603855D02*
X36861905Y-31908617D01*
X36861905Y-31908617D02*
X36976190Y-31908617D01*
X36976190Y-31908617D02*
X37052381Y-31946712D01*
X37052381Y-31946712D02*
X37090476Y-31984807D01*
X37090476Y-31984807D02*
X37128571Y-32060998D01*
X37128571Y-32060998D02*
X37128571Y-32251474D01*
X37128571Y-32251474D02*
X37090476Y-32327664D01*
X37090476Y-32327664D02*
X37052381Y-32365760D01*
X37052381Y-32365760D02*
X36976190Y-32403855D01*
X36976190Y-32403855D02*
X36747619Y-32403855D01*
X36747619Y-32403855D02*
X36671428Y-32365760D01*
X36671428Y-32365760D02*
X36633333Y-32327664D01*
X8366667Y-32327664D02*
X8328571Y-32365760D01*
X8328571Y-32365760D02*
X8214286Y-32403855D01*
X8214286Y-32403855D02*
X8138095Y-32403855D01*
X8138095Y-32403855D02*
X8023809Y-32365760D01*
X8023809Y-32365760D02*
X7947619Y-32289569D01*
X7947619Y-32289569D02*
X7909524Y-32213379D01*
X7909524Y-32213379D02*
X7871428Y-32060998D01*
X7871428Y-32060998D02*
X7871428Y-31946712D01*
X7871428Y-31946712D02*
X7909524Y-31794331D01*
X7909524Y-31794331D02*
X7947619Y-31718140D01*
X7947619Y-31718140D02*
X8023809Y-31641950D01*
X8023809Y-31641950D02*
X8138095Y-31603855D01*
X8138095Y-31603855D02*
X8214286Y-31603855D01*
X8214286Y-31603855D02*
X8328571Y-31641950D01*
X8328571Y-31641950D02*
X8366667Y-31680045D01*
X9128571Y-32403855D02*
X8671428Y-32403855D01*
X8900000Y-32403855D02*
X8900000Y-31603855D01*
X8900000Y-31603855D02*
X8823809Y-31718140D01*
X8823809Y-31718140D02*
X8747619Y-31794331D01*
X8747619Y-31794331D02*
X8671428Y-31832426D01*
X22366667Y-32327664D02*
X22328571Y-32365760D01*
X22328571Y-32365760D02*
X22214286Y-32403855D01*
X22214286Y-32403855D02*
X22138095Y-32403855D01*
X22138095Y-32403855D02*
X22023809Y-32365760D01*
X22023809Y-32365760D02*
X21947619Y-32289569D01*
X21947619Y-32289569D02*
X21909524Y-32213379D01*
X21909524Y-32213379D02*
X21871428Y-32060998D01*
X21871428Y-32060998D02*
X21871428Y-31946712D01*
X21871428Y-31946712D02*
X21909524Y-31794331D01*
X21909524Y-31794331D02*
X21947619Y-31718140D01*
X21947619Y-31718140D02*
X22023809Y-31641950D01*
X22023809Y-31641950D02*
X22138095Y-31603855D01*
X22138095Y-31603855D02*
X22214286Y-31603855D01*
X22214286Y-31603855D02*
X22328571Y-31641950D01*
X22328571Y-31641950D02*
X22366667Y-31680045D01*
X22671428Y-31680045D02*
X22709524Y-31641950D01*
X22709524Y-31641950D02*
X22785714Y-31603855D01*
X22785714Y-31603855D02*
X22976190Y-31603855D01*
X22976190Y-31603855D02*
X23052381Y-31641950D01*
X23052381Y-31641950D02*
X23090476Y-31680045D01*
X23090476Y-31680045D02*
X23128571Y-31756236D01*
X23128571Y-31756236D02*
X23128571Y-31832426D01*
X23128571Y-31832426D02*
X23090476Y-31946712D01*
X23090476Y-31946712D02*
X22633333Y-32403855D01*
X22633333Y-32403855D02*
X23128571Y-32403855D01*
X14366667Y-32327664D02*
X14328571Y-32365760D01*
X14328571Y-32365760D02*
X14214286Y-32403855D01*
X14214286Y-32403855D02*
X14138095Y-32403855D01*
X14138095Y-32403855D02*
X14023809Y-32365760D01*
X14023809Y-32365760D02*
X13947619Y-32289569D01*
X13947619Y-32289569D02*
X13909524Y-32213379D01*
X13909524Y-32213379D02*
X13871428Y-32060998D01*
X13871428Y-32060998D02*
X13871428Y-31946712D01*
X13871428Y-31946712D02*
X13909524Y-31794331D01*
X13909524Y-31794331D02*
X13947619Y-31718140D01*
X13947619Y-31718140D02*
X14023809Y-31641950D01*
X14023809Y-31641950D02*
X14138095Y-31603855D01*
X14138095Y-31603855D02*
X14214286Y-31603855D01*
X14214286Y-31603855D02*
X14328571Y-31641950D01*
X14328571Y-31641950D02*
X14366667Y-31680045D01*
X15090476Y-31603855D02*
X14709524Y-31603855D01*
X14709524Y-31603855D02*
X14671428Y-31984807D01*
X14671428Y-31984807D02*
X14709524Y-31946712D01*
X14709524Y-31946712D02*
X14785714Y-31908617D01*
X14785714Y-31908617D02*
X14976190Y-31908617D01*
X14976190Y-31908617D02*
X15052381Y-31946712D01*
X15052381Y-31946712D02*
X15090476Y-31984807D01*
X15090476Y-31984807D02*
X15128571Y-32060998D01*
X15128571Y-32060998D02*
X15128571Y-32251474D01*
X15128571Y-32251474D02*
X15090476Y-32327664D01*
X15090476Y-32327664D02*
X15052381Y-32365760D01*
X15052381Y-32365760D02*
X14976190Y-32403855D01*
X14976190Y-32403855D02*
X14785714Y-32403855D01*
X14785714Y-32403855D02*
X14709524Y-32365760D01*
X14709524Y-32365760D02*
X14671428Y-32327664D01*
X19363855Y-17879523D02*
X20011474Y-17879523D01*
X20011474Y-17879523D02*
X20087664Y-17841428D01*
X20087664Y-17841428D02*
X20125760Y-17803333D01*
X20125760Y-17803333D02*
X20163855Y-17727142D01*
X20163855Y-17727142D02*
X20163855Y-17574761D01*
X20163855Y-17574761D02*
X20125760Y-17498571D01*
X20125760Y-17498571D02*
X20087664Y-17460476D01*
X20087664Y-17460476D02*
X20011474Y-17422380D01*
X20011474Y-17422380D02*
X19363855Y-17422380D01*
X19630521Y-16698571D02*
X20163855Y-16698571D01*
X19325760Y-16889047D02*
X19897188Y-17079524D01*
X19897188Y-17079524D02*
X19897188Y-16584285D01*
X47363855Y-17879523D02*
X48011474Y-17879523D01*
X48011474Y-17879523D02*
X48087664Y-17841428D01*
X48087664Y-17841428D02*
X48125760Y-17803333D01*
X48125760Y-17803333D02*
X48163855Y-17727142D01*
X48163855Y-17727142D02*
X48163855Y-17574761D01*
X48163855Y-17574761D02*
X48125760Y-17498571D01*
X48125760Y-17498571D02*
X48087664Y-17460476D01*
X48087664Y-17460476D02*
X48011474Y-17422380D01*
X48011474Y-17422380D02*
X47363855Y-17422380D01*
X47440045Y-17079524D02*
X47401950Y-17041428D01*
X47401950Y-17041428D02*
X47363855Y-16965238D01*
X47363855Y-16965238D02*
X47363855Y-16774762D01*
X47363855Y-16774762D02*
X47401950Y-16698571D01*
X47401950Y-16698571D02*
X47440045Y-16660476D01*
X47440045Y-16660476D02*
X47516236Y-16622381D01*
X47516236Y-16622381D02*
X47592426Y-16622381D01*
X47592426Y-16622381D02*
X47706712Y-16660476D01*
X47706712Y-16660476D02*
X48163855Y-17117619D01*
X48163855Y-17117619D02*
X48163855Y-16622381D01*
X43366667Y-32327664D02*
X43328571Y-32365760D01*
X43328571Y-32365760D02*
X43214286Y-32403855D01*
X43214286Y-32403855D02*
X43138095Y-32403855D01*
X43138095Y-32403855D02*
X43023809Y-32365760D01*
X43023809Y-32365760D02*
X42947619Y-32289569D01*
X42947619Y-32289569D02*
X42909524Y-32213379D01*
X42909524Y-32213379D02*
X42871428Y-32060998D01*
X42871428Y-32060998D02*
X42871428Y-31946712D01*
X42871428Y-31946712D02*
X42909524Y-31794331D01*
X42909524Y-31794331D02*
X42947619Y-31718140D01*
X42947619Y-31718140D02*
X43023809Y-31641950D01*
X43023809Y-31641950D02*
X43138095Y-31603855D01*
X43138095Y-31603855D02*
X43214286Y-31603855D01*
X43214286Y-31603855D02*
X43328571Y-31641950D01*
X43328571Y-31641950D02*
X43366667Y-31680045D01*
X44052381Y-31603855D02*
X43900000Y-31603855D01*
X43900000Y-31603855D02*
X43823809Y-31641950D01*
X43823809Y-31641950D02*
X43785714Y-31680045D01*
X43785714Y-31680045D02*
X43709524Y-31794331D01*
X43709524Y-31794331D02*
X43671428Y-31946712D01*
X43671428Y-31946712D02*
X43671428Y-32251474D01*
X43671428Y-32251474D02*
X43709524Y-32327664D01*
X43709524Y-32327664D02*
X43747619Y-32365760D01*
X43747619Y-32365760D02*
X43823809Y-32403855D01*
X43823809Y-32403855D02*
X43976190Y-32403855D01*
X43976190Y-32403855D02*
X44052381Y-32365760D01*
X44052381Y-32365760D02*
X44090476Y-32327664D01*
X44090476Y-32327664D02*
X44128571Y-32251474D01*
X44128571Y-32251474D02*
X44128571Y-32060998D01*
X44128571Y-32060998D02*
X44090476Y-31984807D01*
X44090476Y-31984807D02*
X44052381Y-31946712D01*
X44052381Y-31946712D02*
X43976190Y-31908617D01*
X43976190Y-31908617D02*
X43823809Y-31908617D01*
X43823809Y-31908617D02*
X43747619Y-31946712D01*
X43747619Y-31946712D02*
X43709524Y-31984807D01*
X43709524Y-31984807D02*
X43671428Y-32060998D01*
X50366667Y-32327664D02*
X50328571Y-32365760D01*
X50328571Y-32365760D02*
X50214286Y-32403855D01*
X50214286Y-32403855D02*
X50138095Y-32403855D01*
X50138095Y-32403855D02*
X50023809Y-32365760D01*
X50023809Y-32365760D02*
X49947619Y-32289569D01*
X49947619Y-32289569D02*
X49909524Y-32213379D01*
X49909524Y-32213379D02*
X49871428Y-32060998D01*
X49871428Y-32060998D02*
X49871428Y-31946712D01*
X49871428Y-31946712D02*
X49909524Y-31794331D01*
X49909524Y-31794331D02*
X49947619Y-31718140D01*
X49947619Y-31718140D02*
X50023809Y-31641950D01*
X50023809Y-31641950D02*
X50138095Y-31603855D01*
X50138095Y-31603855D02*
X50214286Y-31603855D01*
X50214286Y-31603855D02*
X50328571Y-31641950D01*
X50328571Y-31641950D02*
X50366667Y-31680045D01*
X51052381Y-31870521D02*
X51052381Y-32403855D01*
X50861905Y-31565760D02*
X50671428Y-32137188D01*
X50671428Y-32137188D02*
X51166667Y-32137188D01*
X5363855Y-17879523D02*
X6011474Y-17879523D01*
X6011474Y-17879523D02*
X6087664Y-17841428D01*
X6087664Y-17841428D02*
X6125760Y-17803333D01*
X6125760Y-17803333D02*
X6163855Y-17727142D01*
X6163855Y-17727142D02*
X6163855Y-17574761D01*
X6163855Y-17574761D02*
X6125760Y-17498571D01*
X6125760Y-17498571D02*
X6087664Y-17460476D01*
X6087664Y-17460476D02*
X6011474Y-17422380D01*
X6011474Y-17422380D02*
X5363855Y-17422380D01*
X6163855Y-16622381D02*
X6163855Y-17079524D01*
X6163855Y-16850952D02*
X5363855Y-16850952D01*
X5363855Y-16850952D02*
X5478140Y-16927143D01*
X5478140Y-16927143D02*
X5554331Y-17003333D01*
X5554331Y-17003333D02*
X5592426Y-17079524D01*
X33363855Y-17879523D02*
X34011474Y-17879523D01*
X34011474Y-17879523D02*
X34087664Y-17841428D01*
X34087664Y-17841428D02*
X34125760Y-17803333D01*
X34125760Y-17803333D02*
X34163855Y-17727142D01*
X34163855Y-17727142D02*
X34163855Y-17574761D01*
X34163855Y-17574761D02*
X34125760Y-17498571D01*
X34125760Y-17498571D02*
X34087664Y-17460476D01*
X34087664Y-17460476D02*
X34011474Y-17422380D01*
X34011474Y-17422380D02*
X33363855Y-17422380D01*
X33363855Y-17117619D02*
X33363855Y-16622381D01*
X33363855Y-16622381D02*
X33668617Y-16889047D01*
X33668617Y-16889047D02*
X33668617Y-16774762D01*
X33668617Y-16774762D02*
X33706712Y-16698571D01*
X33706712Y-16698571D02*
X33744807Y-16660476D01*
X33744807Y-16660476D02*
X33820998Y-16622381D01*
X33820998Y-16622381D02*
X34011474Y-16622381D01*
X34011474Y-16622381D02*
X34087664Y-16660476D01*
X34087664Y-16660476D02*
X34125760Y-16698571D01*
X34125760Y-16698571D02*
X34163855Y-16774762D01*
X34163855Y-16774762D02*
X34163855Y-17003333D01*
X34163855Y-17003333D02*
X34125760Y-17079524D01*
X34125760Y-17079524D02*
X34087664Y-17117619D01*
%TO.C,U5*%
X2890000Y-640000D02*
X4710000Y-640000D01*
X2890000Y-690000D02*
X2890000Y-640000D01*
X2890000Y-3760000D02*
X2890000Y-3710000D01*
X4710000Y-640000D02*
X4710000Y-690000D01*
X4710000Y-1810000D02*
X4710000Y-2590000D01*
X4710000Y-3710000D02*
X4710000Y-3760000D01*
X4710000Y-3760000D02*
X2890000Y-3760000D01*
X2350000Y-690000D02*
X2110000Y-360000D01*
X2590000Y-360000D01*
X2350000Y-690000D01*
G36*
X2350000Y-690000D02*
G01*
X2110000Y-360000D01*
X2590000Y-360000D01*
X2350000Y-690000D01*
G37*
%TO.C,U8*%
X25390000Y-640000D02*
X27210000Y-640000D01*
X25390000Y-690000D02*
X25390000Y-640000D01*
X25390000Y-3760000D02*
X25390000Y-3710000D01*
X27210000Y-640000D02*
X27210000Y-690000D01*
X27210000Y-3710000D02*
X27210000Y-3760000D01*
X27210000Y-3760000D02*
X25390000Y-3760000D01*
X24850000Y-690000D02*
X24610000Y-360000D01*
X25090000Y-360000D01*
X24850000Y-690000D01*
G36*
X24850000Y-690000D02*
G01*
X24610000Y-360000D01*
X25090000Y-360000D01*
X24850000Y-690000D01*
G37*
%TO.C,C3*%
X33538748Y-31305000D02*
X34061252Y-31305000D01*
X33538748Y-32775000D02*
X34061252Y-32775000D01*
%TO.C,D1*%
X46940000Y-1200000D02*
X46940000Y-3200000D01*
X46940000Y-1200000D02*
X50950000Y-1200000D01*
X46940000Y-3200000D02*
X50950000Y-3200000D01*
%TO.C,C1*%
X5538748Y-31305000D02*
X6061252Y-31305000D01*
X5538748Y-32775000D02*
X6061252Y-32775000D01*
%TO.C,C2*%
X19538748Y-31305000D02*
X20061252Y-31305000D01*
X19538748Y-32775000D02*
X20061252Y-32775000D01*
%TO.C,C8*%
X22065000Y-2461252D02*
X22065000Y-1938748D01*
X23535000Y-2461252D02*
X23535000Y-1938748D01*
%TO.C,C5*%
X11538748Y-31305000D02*
X12061252Y-31305000D01*
X11538748Y-32775000D02*
X12061252Y-32775000D01*
%TO.C,C7*%
X15065000Y-2461252D02*
X15065000Y-1938748D01*
X16535000Y-2461252D02*
X16535000Y-1938748D01*
%TO.C,J4*%
X260000Y-27370000D02*
X1590000Y-27370000D01*
X260000Y-28700000D02*
X260000Y-27370000D01*
X2860000Y-27370000D02*
X61340000Y-27370000D01*
X2860000Y-30030000D02*
X2860000Y-27370000D01*
X2860000Y-30030000D02*
X61340000Y-30030000D01*
X61340000Y-30030000D02*
X61340000Y-27370000D01*
%TO.C,U4*%
X13290000Y-13410000D02*
X13525000Y-13410000D01*
X13290000Y-21130000D02*
X13290000Y-13410000D01*
X13525000Y-21130000D02*
X13290000Y-21130000D01*
X26075000Y-13410000D02*
X26310000Y-13410000D01*
X26310000Y-13410000D02*
X26310000Y-21130000D01*
X26310000Y-21130000D02*
X26075000Y-21130000D01*
X13520000Y-21920000D02*
X13050000Y-22260000D01*
X13050000Y-21580000D01*
X13520000Y-21920000D01*
G36*
X13520000Y-21920000D02*
G01*
X13050000Y-22260000D01*
X13050000Y-21580000D01*
X13520000Y-21920000D01*
G37*
%TO.C,U9*%
X35890000Y-640000D02*
X37710000Y-640000D01*
X35890000Y-690000D02*
X35890000Y-640000D01*
X35890000Y-3760000D02*
X35890000Y-3710000D01*
X37710000Y-640000D02*
X37710000Y-690000D01*
X37710000Y-3710000D02*
X37710000Y-3760000D01*
X37710000Y-3760000D02*
X35890000Y-3760000D01*
X35350000Y-690000D02*
X35110000Y-360000D01*
X35590000Y-360000D01*
X35350000Y-690000D01*
G36*
X35350000Y-690000D02*
G01*
X35110000Y-360000D01*
X35590000Y-360000D01*
X35350000Y-690000D01*
G37*
%TO.C,U2*%
X41290000Y-13410000D02*
X41525000Y-13410000D01*
X41290000Y-21130000D02*
X41290000Y-13410000D01*
X41525000Y-21130000D02*
X41290000Y-21130000D01*
X54075000Y-13410000D02*
X54310000Y-13410000D01*
X54310000Y-13410000D02*
X54310000Y-21130000D01*
X54310000Y-21130000D02*
X54075000Y-21130000D01*
X41520000Y-21920000D02*
X41050000Y-22260000D01*
X41050000Y-21580000D01*
X41520000Y-21920000D01*
G36*
X41520000Y-21920000D02*
G01*
X41050000Y-22260000D01*
X41050000Y-21580000D01*
X41520000Y-21920000D01*
G37*
%TO.C,U7*%
X18390000Y-640000D02*
X20210000Y-640000D01*
X18390000Y-690000D02*
X18390000Y-640000D01*
X18390000Y-3760000D02*
X18390000Y-3710000D01*
X20210000Y-640000D02*
X20210000Y-690000D01*
X20210000Y-3710000D02*
X20210000Y-3760000D01*
X20210000Y-3760000D02*
X18390000Y-3760000D01*
X17850000Y-690000D02*
X17610000Y-360000D01*
X18090000Y-360000D01*
X17850000Y-690000D01*
G36*
X17850000Y-690000D02*
G01*
X17610000Y-360000D01*
X18090000Y-360000D01*
X17850000Y-690000D01*
G37*
%TO.C,C6*%
X40538748Y-31305000D02*
X41061252Y-31305000D01*
X40538748Y-32775000D02*
X41061252Y-32775000D01*
%TO.C,C4*%
X47538748Y-31305000D02*
X48061252Y-31305000D01*
X47538748Y-32775000D02*
X48061252Y-32775000D01*
%TO.C,C10*%
X39565000Y-2461252D02*
X39565000Y-1938748D01*
X41035000Y-2461252D02*
X41035000Y-1938748D01*
%TO.C,J1*%
X260000Y-4510000D02*
X1590000Y-4510000D01*
X260000Y-5840000D02*
X260000Y-4510000D01*
X2860000Y-4510000D02*
X61340000Y-4510000D01*
X2860000Y-7170000D02*
X2860000Y-4510000D01*
X2860000Y-7170000D02*
X61340000Y-7170000D01*
X61340000Y-7170000D02*
X61340000Y-4510000D01*
%TO.C,U1*%
X1365000Y-15210000D02*
X1430000Y-15210000D01*
X1365000Y-19330000D02*
X1365000Y-15210000D01*
X1430000Y-19330000D02*
X1365000Y-19330000D01*
X10170000Y-15210000D02*
X10235000Y-15210000D01*
X10235000Y-15210000D02*
X10235000Y-19330000D01*
X10235000Y-19330000D02*
X10170000Y-19330000D01*
X1430000Y-19870000D02*
X1100000Y-20110000D01*
X1100000Y-19630000D01*
X1430000Y-19870000D01*
G36*
X1430000Y-19870000D02*
G01*
X1100000Y-20110000D01*
X1100000Y-19630000D01*
X1430000Y-19870000D01*
G37*
%TO.C,U6*%
X11390000Y-640000D02*
X13210000Y-640000D01*
X11390000Y-690000D02*
X11390000Y-640000D01*
X11390000Y-3760000D02*
X11390000Y-3710000D01*
X13210000Y-640000D02*
X13210000Y-690000D01*
X13210000Y-3710000D02*
X13210000Y-3760000D01*
X13210000Y-3760000D02*
X11390000Y-3760000D01*
X10850000Y-690000D02*
X10610000Y-360000D01*
X11090000Y-360000D01*
X10850000Y-690000D01*
G36*
X10850000Y-690000D02*
G01*
X10610000Y-360000D01*
X11090000Y-360000D01*
X10850000Y-690000D01*
G37*
%TO.C,U3*%
X27290000Y-13410000D02*
X27525000Y-13410000D01*
X27290000Y-21130000D02*
X27290000Y-13410000D01*
X27525000Y-21130000D02*
X27290000Y-21130000D01*
X40075000Y-13410000D02*
X40310000Y-13410000D01*
X40310000Y-13410000D02*
X40310000Y-21130000D01*
X40310000Y-21130000D02*
X40075000Y-21130000D01*
X27520000Y-21920000D02*
X27050000Y-22260000D01*
X27050000Y-21580000D01*
X27520000Y-21920000D01*
G36*
X27520000Y-21920000D02*
G01*
X27050000Y-22260000D01*
X27050000Y-21580000D01*
X27520000Y-21920000D01*
G37*
%TO.C,C9*%
X29065000Y-2461252D02*
X29065000Y-1938748D01*
X30535000Y-2461252D02*
X30535000Y-1938748D01*
%TD*%
%LPC*%
D12*
%TO.C,U5*%
X2662500Y-1250000D03*
X2662500Y-2200000D03*
X2662500Y-3150000D03*
X4937500Y-3150000D03*
X4937500Y-1250000D03*
%TD*%
%TO.C,U8*%
X25162500Y-1250000D03*
X25162500Y-2200000D03*
X25162500Y-3150000D03*
X27437500Y-3150000D03*
X27437500Y-2200000D03*
X27437500Y-1250000D03*
%TD*%
D13*
%TO.C,C3*%
X32850000Y-32040000D03*
X34750000Y-32040000D03*
%TD*%
D14*
%TO.C,D1*%
X47650000Y-2200000D03*
X50950000Y-2200000D03*
%TD*%
D13*
%TO.C,C1*%
X4850000Y-32040000D03*
X6750000Y-32040000D03*
%TD*%
%TO.C,C2*%
X18850000Y-32040000D03*
X20750000Y-32040000D03*
%TD*%
D15*
%TO.C,C8*%
X22800000Y-3150000D03*
X22800000Y-1250000D03*
%TD*%
D13*
%TO.C,C5*%
X10850000Y-32040000D03*
X12750000Y-32040000D03*
%TD*%
D15*
%TO.C,C7*%
X15800000Y-3150000D03*
X15800000Y-1250000D03*
%TD*%
D16*
%TO.C,J4*%
X1590000Y-28700000D03*
D17*
X4130000Y-28700000D03*
X6670000Y-28700000D03*
X9210000Y-28700000D03*
X11750000Y-28700000D03*
X14290000Y-28700000D03*
X16830000Y-28700000D03*
X19370000Y-28700000D03*
X21910000Y-28700000D03*
X24450000Y-28700000D03*
X26990000Y-28700000D03*
X29530000Y-28700000D03*
X32070000Y-28700000D03*
X34610000Y-28700000D03*
X37150000Y-28700000D03*
X39690000Y-28700000D03*
X42230000Y-28700000D03*
X44770000Y-28700000D03*
X47310000Y-28700000D03*
X49850000Y-28700000D03*
X52390000Y-28700000D03*
X54930000Y-28700000D03*
X57470000Y-28700000D03*
X60010000Y-28700000D03*
%TD*%
D18*
%TO.C,U4*%
X14085000Y-21920000D03*
X15355000Y-21920000D03*
X16625000Y-21920000D03*
X17895000Y-21920000D03*
X19165000Y-21920000D03*
X20435000Y-21920000D03*
X21705000Y-21920000D03*
X22975000Y-21920000D03*
X24245000Y-21920000D03*
X25515000Y-21920000D03*
X25515000Y-12620000D03*
X24245000Y-12620000D03*
X22975000Y-12620000D03*
X21705000Y-12620000D03*
X20435000Y-12620000D03*
X19165000Y-12620000D03*
X17895000Y-12620000D03*
X16625000Y-12620000D03*
X15355000Y-12620000D03*
X14085000Y-12620000D03*
%TD*%
D12*
%TO.C,U9*%
X35662500Y-1250000D03*
X35662500Y-2200000D03*
X35662500Y-3150000D03*
X37937500Y-3150000D03*
X37937500Y-2200000D03*
X37937500Y-1250000D03*
%TD*%
D18*
%TO.C,U2*%
X42085000Y-21920000D03*
X43355000Y-21920000D03*
X44625000Y-21920000D03*
X45895000Y-21920000D03*
X47165000Y-21920000D03*
X48435000Y-21920000D03*
X49705000Y-21920000D03*
X50975000Y-21920000D03*
X52245000Y-21920000D03*
X53515000Y-21920000D03*
X53515000Y-12620000D03*
X52245000Y-12620000D03*
X50975000Y-12620000D03*
X49705000Y-12620000D03*
X48435000Y-12620000D03*
X47165000Y-12620000D03*
X45895000Y-12620000D03*
X44625000Y-12620000D03*
X43355000Y-12620000D03*
X42085000Y-12620000D03*
%TD*%
D12*
%TO.C,U7*%
X18162500Y-1250000D03*
X18162500Y-2200000D03*
X18162500Y-3150000D03*
X20437500Y-3150000D03*
X20437500Y-2200000D03*
X20437500Y-1250000D03*
%TD*%
D13*
%TO.C,C6*%
X39850000Y-32040000D03*
X41750000Y-32040000D03*
%TD*%
%TO.C,C4*%
X46850000Y-32040000D03*
X48750000Y-32040000D03*
%TD*%
D15*
%TO.C,C10*%
X40300000Y-3150000D03*
X40300000Y-1250000D03*
%TD*%
D16*
%TO.C,J1*%
X1590000Y-5840000D03*
D17*
X4130000Y-5840000D03*
X6670000Y-5840000D03*
X9210000Y-5840000D03*
X11750000Y-5840000D03*
X14290000Y-5840000D03*
X16830000Y-5840000D03*
X19370000Y-5840000D03*
X21910000Y-5840000D03*
X24450000Y-5840000D03*
X26990000Y-5840000D03*
X29530000Y-5840000D03*
X32070000Y-5840000D03*
X34610000Y-5840000D03*
X37150000Y-5840000D03*
X39690000Y-5840000D03*
X42230000Y-5840000D03*
X44770000Y-5840000D03*
X47310000Y-5840000D03*
X49850000Y-5840000D03*
X52390000Y-5840000D03*
X54930000Y-5840000D03*
X57470000Y-5840000D03*
X60010000Y-5840000D03*
%TD*%
D19*
%TO.C,U1*%
X1990000Y-19745000D03*
X3260000Y-19745000D03*
X4530000Y-19745000D03*
X5800000Y-19745000D03*
X7070000Y-19745000D03*
X8340000Y-19745000D03*
X9610000Y-19745000D03*
X9610000Y-14795000D03*
X8340000Y-14795000D03*
X7070000Y-14795000D03*
X5800000Y-14795000D03*
X4530000Y-14795000D03*
X3260000Y-14795000D03*
X1990000Y-14795000D03*
%TD*%
D12*
%TO.C,U6*%
X11162500Y-1250000D03*
X11162500Y-2200000D03*
X11162500Y-3150000D03*
X13437500Y-3150000D03*
X13437500Y-2200000D03*
X13437500Y-1250000D03*
%TD*%
D18*
%TO.C,U3*%
X28085000Y-21920000D03*
X29355000Y-21920000D03*
X30625000Y-21920000D03*
X31895000Y-21920000D03*
X33165000Y-21920000D03*
X34435000Y-21920000D03*
X35705000Y-21920000D03*
X36975000Y-21920000D03*
X38245000Y-21920000D03*
X39515000Y-21920000D03*
X39515000Y-12620000D03*
X38245000Y-12620000D03*
X36975000Y-12620000D03*
X35705000Y-12620000D03*
X34435000Y-12620000D03*
X33165000Y-12620000D03*
X31895000Y-12620000D03*
X30625000Y-12620000D03*
X29355000Y-12620000D03*
X28085000Y-12620000D03*
%TD*%
D15*
%TO.C,C9*%
X29800000Y-3150000D03*
X29800000Y-1250000D03*
%TD*%
D16*
%TO.C,J3*%
X54930000Y-24890000D03*
D17*
X52390000Y-24890000D03*
X49850000Y-24890000D03*
X47310000Y-24890000D03*
X44770000Y-24890000D03*
X42230000Y-24890000D03*
X39690000Y-24890000D03*
X37150000Y-24890000D03*
X34610000Y-24890000D03*
X32070000Y-24890000D03*
X29530000Y-24890000D03*
X26990000Y-24890000D03*
X24450000Y-24890000D03*
X21910000Y-24890000D03*
X19370000Y-24890000D03*
X16830000Y-24890000D03*
X14290000Y-24890000D03*
X11750000Y-24890000D03*
X9210000Y-24890000D03*
X6670000Y-24890000D03*
%TD*%
D16*
%TO.C,J2*%
X6670000Y-9650000D03*
D17*
X9210000Y-9650000D03*
X11750000Y-9650000D03*
X14290000Y-9650000D03*
X16830000Y-9650000D03*
X19370000Y-9650000D03*
X21910000Y-9650000D03*
X24450000Y-9650000D03*
X26990000Y-9650000D03*
X29530000Y-9650000D03*
X32070000Y-9650000D03*
X34610000Y-9650000D03*
X37150000Y-9650000D03*
X39690000Y-9650000D03*
X42230000Y-9650000D03*
X44770000Y-9650000D03*
X47310000Y-9650000D03*
X49850000Y-9650000D03*
X52390000Y-9650000D03*
X54930000Y-9650000D03*
%TD*%
%LPD*%
M02*
