%TF.GenerationSoftware,KiCad,Pcbnew,10.0.4*%
%TF.CreationDate,2026-09-15T20:31:30-03:00*%
%TF.ProjectId,tia-fpga,7469612d-6670-4676-912e-6b696361645f,B*%
%TF.SameCoordinates,Original*%
%TF.FileFunction,Legend,Bot*%
%TF.FilePolarity,Positive*%
%FSLAX46Y46*%
G04 Gerber Fmt 4.6, Leading zero omitted, Abs format (unit mm)*
G04 Created by KiCad (PCBNEW 10.0.4) date 2026-09-15 20:31:30*
%MOMM*%
%LPD*%
G01*
G04 APERTURE LIST*
%ADD10C,0.120000*%
%ADD11R,1.700000X1.700000*%
%ADD12C,1.700000*%
G04 APERTURE END LIST*
D10*
X31109523Y-1763855D02*
X31109523Y-2411474D01*
X31109523Y-2411474D02*
X31071428Y-2487664D01*
X31071428Y-2487664D02*
X31033333Y-2525760D01*
X31033333Y-2525760D02*
X30957142Y-2563855D01*
X30957142Y-2563855D02*
X30804761Y-2563855D01*
X30804761Y-2563855D02*
X30728571Y-2525760D01*
X30728571Y-2525760D02*
X30690476Y-2487664D01*
X30690476Y-2487664D02*
X30652380Y-2411474D01*
X30652380Y-2411474D02*
X30652380Y-1763855D01*
X30157143Y-2106712D02*
X30233333Y-2068617D01*
X30233333Y-2068617D02*
X30271428Y-2030521D01*
X30271428Y-2030521D02*
X30309524Y-1954331D01*
X30309524Y-1954331D02*
X30309524Y-1916236D01*
X30309524Y-1916236D02*
X30271428Y-1840045D01*
X30271428Y-1840045D02*
X30233333Y-1801950D01*
X30233333Y-1801950D02*
X30157143Y-1763855D01*
X30157143Y-1763855D02*
X30004762Y-1763855D01*
X30004762Y-1763855D02*
X29928571Y-1801950D01*
X29928571Y-1801950D02*
X29890476Y-1840045D01*
X29890476Y-1840045D02*
X29852381Y-1916236D01*
X29852381Y-1916236D02*
X29852381Y-1954331D01*
X29852381Y-1954331D02*
X29890476Y-2030521D01*
X29890476Y-2030521D02*
X29928571Y-2068617D01*
X29928571Y-2068617D02*
X30004762Y-2106712D01*
X30004762Y-2106712D02*
X30157143Y-2106712D01*
X30157143Y-2106712D02*
X30233333Y-2144807D01*
X30233333Y-2144807D02*
X30271428Y-2182902D01*
X30271428Y-2182902D02*
X30309524Y-2259093D01*
X30309524Y-2259093D02*
X30309524Y-2411474D01*
X30309524Y-2411474D02*
X30271428Y-2487664D01*
X30271428Y-2487664D02*
X30233333Y-2525760D01*
X30233333Y-2525760D02*
X30157143Y-2563855D01*
X30157143Y-2563855D02*
X30004762Y-2563855D01*
X30004762Y-2563855D02*
X29928571Y-2525760D01*
X29928571Y-2525760D02*
X29890476Y-2487664D01*
X29890476Y-2487664D02*
X29852381Y-2411474D01*
X29852381Y-2411474D02*
X29852381Y-2259093D01*
X29852381Y-2259093D02*
X29890476Y-2182902D01*
X29890476Y-2182902D02*
X29928571Y-2144807D01*
X29928571Y-2144807D02*
X30004762Y-2106712D01*
X54090475Y-2563855D02*
X54090475Y-1763855D01*
X54090475Y-1763855D02*
X53899999Y-1763855D01*
X53899999Y-1763855D02*
X53785713Y-1801950D01*
X53785713Y-1801950D02*
X53709523Y-1878140D01*
X53709523Y-1878140D02*
X53671428Y-1954331D01*
X53671428Y-1954331D02*
X53633332Y-2106712D01*
X53633332Y-2106712D02*
X53633332Y-2220998D01*
X53633332Y-2220998D02*
X53671428Y-2373379D01*
X53671428Y-2373379D02*
X53709523Y-2449569D01*
X53709523Y-2449569D02*
X53785713Y-2525760D01*
X53785713Y-2525760D02*
X53899999Y-2563855D01*
X53899999Y-2563855D02*
X54090475Y-2563855D01*
X52871428Y-2563855D02*
X53328571Y-2563855D01*
X53099999Y-2563855D02*
X53099999Y-1763855D01*
X53099999Y-1763855D02*
X53176190Y-1878140D01*
X53176190Y-1878140D02*
X53252380Y-1954331D01*
X53252380Y-1954331D02*
X53328571Y-1992426D01*
X27133332Y-2487664D02*
X27171428Y-2525760D01*
X27171428Y-2525760D02*
X27285713Y-2563855D01*
X27285713Y-2563855D02*
X27361904Y-2563855D01*
X27361904Y-2563855D02*
X27476190Y-2525760D01*
X27476190Y-2525760D02*
X27552380Y-2449569D01*
X27552380Y-2449569D02*
X27590475Y-2373379D01*
X27590475Y-2373379D02*
X27628571Y-2220998D01*
X27628571Y-2220998D02*
X27628571Y-2106712D01*
X27628571Y-2106712D02*
X27590475Y-1954331D01*
X27590475Y-1954331D02*
X27552380Y-1878140D01*
X27552380Y-1878140D02*
X27476190Y-1801950D01*
X27476190Y-1801950D02*
X27361904Y-1763855D01*
X27361904Y-1763855D02*
X27285713Y-1763855D01*
X27285713Y-1763855D02*
X27171428Y-1801950D01*
X27171428Y-1801950D02*
X27133332Y-1840045D01*
X26676190Y-2106712D02*
X26752380Y-2068617D01*
X26752380Y-2068617D02*
X26790475Y-2030521D01*
X26790475Y-2030521D02*
X26828571Y-1954331D01*
X26828571Y-1954331D02*
X26828571Y-1916236D01*
X26828571Y-1916236D02*
X26790475Y-1840045D01*
X26790475Y-1840045D02*
X26752380Y-1801950D01*
X26752380Y-1801950D02*
X26676190Y-1763855D01*
X26676190Y-1763855D02*
X26523809Y-1763855D01*
X26523809Y-1763855D02*
X26447618Y-1801950D01*
X26447618Y-1801950D02*
X26409523Y-1840045D01*
X26409523Y-1840045D02*
X26371428Y-1916236D01*
X26371428Y-1916236D02*
X26371428Y-1954331D01*
X26371428Y-1954331D02*
X26409523Y-2030521D01*
X26409523Y-2030521D02*
X26447618Y-2068617D01*
X26447618Y-2068617D02*
X26523809Y-2106712D01*
X26523809Y-2106712D02*
X26676190Y-2106712D01*
X26676190Y-2106712D02*
X26752380Y-2144807D01*
X26752380Y-2144807D02*
X26790475Y-2182902D01*
X26790475Y-2182902D02*
X26828571Y-2259093D01*
X26828571Y-2259093D02*
X26828571Y-2411474D01*
X26828571Y-2411474D02*
X26790475Y-2487664D01*
X26790475Y-2487664D02*
X26752380Y-2525760D01*
X26752380Y-2525760D02*
X26676190Y-2563855D01*
X26676190Y-2563855D02*
X26523809Y-2563855D01*
X26523809Y-2563855D02*
X26447618Y-2525760D01*
X26447618Y-2525760D02*
X26409523Y-2487664D01*
X26409523Y-2487664D02*
X26371428Y-2411474D01*
X26371428Y-2411474D02*
X26371428Y-2259093D01*
X26371428Y-2259093D02*
X26409523Y-2182902D01*
X26409523Y-2182902D02*
X26447618Y-2144807D01*
X26447618Y-2144807D02*
X26523809Y-2106712D01*
X20133332Y-2487664D02*
X20171428Y-2525760D01*
X20171428Y-2525760D02*
X20285713Y-2563855D01*
X20285713Y-2563855D02*
X20361904Y-2563855D01*
X20361904Y-2563855D02*
X20476190Y-2525760D01*
X20476190Y-2525760D02*
X20552380Y-2449569D01*
X20552380Y-2449569D02*
X20590475Y-2373379D01*
X20590475Y-2373379D02*
X20628571Y-2220998D01*
X20628571Y-2220998D02*
X20628571Y-2106712D01*
X20628571Y-2106712D02*
X20590475Y-1954331D01*
X20590475Y-1954331D02*
X20552380Y-1878140D01*
X20552380Y-1878140D02*
X20476190Y-1801950D01*
X20476190Y-1801950D02*
X20361904Y-1763855D01*
X20361904Y-1763855D02*
X20285713Y-1763855D01*
X20285713Y-1763855D02*
X20171428Y-1801950D01*
X20171428Y-1801950D02*
X20133332Y-1840045D01*
X19866666Y-1763855D02*
X19333332Y-1763855D01*
X19333332Y-1763855D02*
X19676190Y-2563855D01*
X41609523Y-1763855D02*
X41609523Y-2411474D01*
X41609523Y-2411474D02*
X41571428Y-2487664D01*
X41571428Y-2487664D02*
X41533333Y-2525760D01*
X41533333Y-2525760D02*
X41457142Y-2563855D01*
X41457142Y-2563855D02*
X41304761Y-2563855D01*
X41304761Y-2563855D02*
X41228571Y-2525760D01*
X41228571Y-2525760D02*
X41190476Y-2487664D01*
X41190476Y-2487664D02*
X41152380Y-2411474D01*
X41152380Y-2411474D02*
X41152380Y-1763855D01*
X40733333Y-2563855D02*
X40580952Y-2563855D01*
X40580952Y-2563855D02*
X40504762Y-2525760D01*
X40504762Y-2525760D02*
X40466666Y-2487664D01*
X40466666Y-2487664D02*
X40390476Y-2373379D01*
X40390476Y-2373379D02*
X40352381Y-2220998D01*
X40352381Y-2220998D02*
X40352381Y-1916236D01*
X40352381Y-1916236D02*
X40390476Y-1840045D01*
X40390476Y-1840045D02*
X40428571Y-1801950D01*
X40428571Y-1801950D02*
X40504762Y-1763855D01*
X40504762Y-1763855D02*
X40657143Y-1763855D01*
X40657143Y-1763855D02*
X40733333Y-1801950D01*
X40733333Y-1801950D02*
X40771428Y-1840045D01*
X40771428Y-1840045D02*
X40809524Y-1916236D01*
X40809524Y-1916236D02*
X40809524Y-2106712D01*
X40809524Y-2106712D02*
X40771428Y-2182902D01*
X40771428Y-2182902D02*
X40733333Y-2220998D01*
X40733333Y-2220998D02*
X40657143Y-2259093D01*
X40657143Y-2259093D02*
X40504762Y-2259093D01*
X40504762Y-2259093D02*
X40428571Y-2220998D01*
X40428571Y-2220998D02*
X40390476Y-2182902D01*
X40390476Y-2182902D02*
X40352381Y-2106712D01*
X24109523Y-1763855D02*
X24109523Y-2411474D01*
X24109523Y-2411474D02*
X24071428Y-2487664D01*
X24071428Y-2487664D02*
X24033333Y-2525760D01*
X24033333Y-2525760D02*
X23957142Y-2563855D01*
X23957142Y-2563855D02*
X23804761Y-2563855D01*
X23804761Y-2563855D02*
X23728571Y-2525760D01*
X23728571Y-2525760D02*
X23690476Y-2487664D01*
X23690476Y-2487664D02*
X23652380Y-2411474D01*
X23652380Y-2411474D02*
X23652380Y-1763855D01*
X23347619Y-1763855D02*
X22814285Y-1763855D01*
X22814285Y-1763855D02*
X23157143Y-2563855D01*
X45014285Y-2487664D02*
X45052381Y-2525760D01*
X45052381Y-2525760D02*
X45166666Y-2563855D01*
X45166666Y-2563855D02*
X45242857Y-2563855D01*
X45242857Y-2563855D02*
X45357143Y-2525760D01*
X45357143Y-2525760D02*
X45433333Y-2449569D01*
X45433333Y-2449569D02*
X45471428Y-2373379D01*
X45471428Y-2373379D02*
X45509524Y-2220998D01*
X45509524Y-2220998D02*
X45509524Y-2106712D01*
X45509524Y-2106712D02*
X45471428Y-1954331D01*
X45471428Y-1954331D02*
X45433333Y-1878140D01*
X45433333Y-1878140D02*
X45357143Y-1801950D01*
X45357143Y-1801950D02*
X45242857Y-1763855D01*
X45242857Y-1763855D02*
X45166666Y-1763855D01*
X45166666Y-1763855D02*
X45052381Y-1801950D01*
X45052381Y-1801950D02*
X45014285Y-1840045D01*
X44252381Y-2563855D02*
X44709524Y-2563855D01*
X44480952Y-2563855D02*
X44480952Y-1763855D01*
X44480952Y-1763855D02*
X44557143Y-1878140D01*
X44557143Y-1878140D02*
X44633333Y-1954331D01*
X44633333Y-1954331D02*
X44709524Y-1992426D01*
X43757142Y-1763855D02*
X43680952Y-1763855D01*
X43680952Y-1763855D02*
X43604761Y-1801950D01*
X43604761Y-1801950D02*
X43566666Y-1840045D01*
X43566666Y-1840045D02*
X43528571Y-1916236D01*
X43528571Y-1916236D02*
X43490476Y-2068617D01*
X43490476Y-2068617D02*
X43490476Y-2259093D01*
X43490476Y-2259093D02*
X43528571Y-2411474D01*
X43528571Y-2411474D02*
X43566666Y-2487664D01*
X43566666Y-2487664D02*
X43604761Y-2525760D01*
X43604761Y-2525760D02*
X43680952Y-2563855D01*
X43680952Y-2563855D02*
X43757142Y-2563855D01*
X43757142Y-2563855D02*
X43833333Y-2525760D01*
X43833333Y-2525760D02*
X43871428Y-2487664D01*
X43871428Y-2487664D02*
X43909523Y-2411474D01*
X43909523Y-2411474D02*
X43947619Y-2259093D01*
X43947619Y-2259093D02*
X43947619Y-2068617D01*
X43947619Y-2068617D02*
X43909523Y-1916236D01*
X43909523Y-1916236D02*
X43871428Y-1840045D01*
X43871428Y-1840045D02*
X43833333Y-1801950D01*
X43833333Y-1801950D02*
X43757142Y-1763855D01*
X17109523Y-1763855D02*
X17109523Y-2411474D01*
X17109523Y-2411474D02*
X17071428Y-2487664D01*
X17071428Y-2487664D02*
X17033333Y-2525760D01*
X17033333Y-2525760D02*
X16957142Y-2563855D01*
X16957142Y-2563855D02*
X16804761Y-2563855D01*
X16804761Y-2563855D02*
X16728571Y-2525760D01*
X16728571Y-2525760D02*
X16690476Y-2487664D01*
X16690476Y-2487664D02*
X16652380Y-2411474D01*
X16652380Y-2411474D02*
X16652380Y-1763855D01*
X15928571Y-1763855D02*
X16080952Y-1763855D01*
X16080952Y-1763855D02*
X16157143Y-1801950D01*
X16157143Y-1801950D02*
X16195238Y-1840045D01*
X16195238Y-1840045D02*
X16271428Y-1954331D01*
X16271428Y-1954331D02*
X16309524Y-2106712D01*
X16309524Y-2106712D02*
X16309524Y-2411474D01*
X16309524Y-2411474D02*
X16271428Y-2487664D01*
X16271428Y-2487664D02*
X16233333Y-2525760D01*
X16233333Y-2525760D02*
X16157143Y-2563855D01*
X16157143Y-2563855D02*
X16004762Y-2563855D01*
X16004762Y-2563855D02*
X15928571Y-2525760D01*
X15928571Y-2525760D02*
X15890476Y-2487664D01*
X15890476Y-2487664D02*
X15852381Y-2411474D01*
X15852381Y-2411474D02*
X15852381Y-2220998D01*
X15852381Y-2220998D02*
X15890476Y-2144807D01*
X15890476Y-2144807D02*
X15928571Y-2106712D01*
X15928571Y-2106712D02*
X16004762Y-2068617D01*
X16004762Y-2068617D02*
X16157143Y-2068617D01*
X16157143Y-2068617D02*
X16233333Y-2106712D01*
X16233333Y-2106712D02*
X16271428Y-2144807D01*
X16271428Y-2144807D02*
X16309524Y-2220998D01*
X34133332Y-2487664D02*
X34171428Y-2525760D01*
X34171428Y-2525760D02*
X34285713Y-2563855D01*
X34285713Y-2563855D02*
X34361904Y-2563855D01*
X34361904Y-2563855D02*
X34476190Y-2525760D01*
X34476190Y-2525760D02*
X34552380Y-2449569D01*
X34552380Y-2449569D02*
X34590475Y-2373379D01*
X34590475Y-2373379D02*
X34628571Y-2220998D01*
X34628571Y-2220998D02*
X34628571Y-2106712D01*
X34628571Y-2106712D02*
X34590475Y-1954331D01*
X34590475Y-1954331D02*
X34552380Y-1878140D01*
X34552380Y-1878140D02*
X34476190Y-1801950D01*
X34476190Y-1801950D02*
X34361904Y-1763855D01*
X34361904Y-1763855D02*
X34285713Y-1763855D01*
X34285713Y-1763855D02*
X34171428Y-1801950D01*
X34171428Y-1801950D02*
X34133332Y-1840045D01*
X33752380Y-2563855D02*
X33599999Y-2563855D01*
X33599999Y-2563855D02*
X33523809Y-2525760D01*
X33523809Y-2525760D02*
X33485713Y-2487664D01*
X33485713Y-2487664D02*
X33409523Y-2373379D01*
X33409523Y-2373379D02*
X33371428Y-2220998D01*
X33371428Y-2220998D02*
X33371428Y-1916236D01*
X33371428Y-1916236D02*
X33409523Y-1840045D01*
X33409523Y-1840045D02*
X33447618Y-1801950D01*
X33447618Y-1801950D02*
X33523809Y-1763855D01*
X33523809Y-1763855D02*
X33676190Y-1763855D01*
X33676190Y-1763855D02*
X33752380Y-1801950D01*
X33752380Y-1801950D02*
X33790475Y-1840045D01*
X33790475Y-1840045D02*
X33828571Y-1916236D01*
X33828571Y-1916236D02*
X33828571Y-2106712D01*
X33828571Y-2106712D02*
X33790475Y-2182902D01*
X33790475Y-2182902D02*
X33752380Y-2220998D01*
X33752380Y-2220998D02*
X33676190Y-2259093D01*
X33676190Y-2259093D02*
X33523809Y-2259093D01*
X33523809Y-2259093D02*
X33447618Y-2220998D01*
X33447618Y-2220998D02*
X33409523Y-2182902D01*
X33409523Y-2182902D02*
X33371428Y-2106712D01*
%TO.C,J3*%
X9490000Y-25000000D02*
X9490000Y-22240000D01*
X57860000Y-22240000D02*
X9490000Y-22240000D01*
X57860000Y-25000000D02*
X9490000Y-25000000D01*
X57860000Y-25000000D02*
X57860000Y-22240000D01*
X59130000Y-25000000D02*
X60510000Y-25000000D01*
X60510000Y-25000000D02*
X60510000Y-23620000D01*
%TO.C,J2*%
X9490000Y-7000000D02*
X9490000Y-8380000D01*
X10870000Y-7000000D02*
X9490000Y-7000000D01*
X12140000Y-7000000D02*
X12140000Y-9760000D01*
X12140000Y-7000000D02*
X60510000Y-7000000D01*
X12140000Y-9760000D02*
X60510000Y-9760000D01*
X60510000Y-7000000D02*
X60510000Y-9760000D01*
%TD*%
%LPC*%
D11*
%TO.C,J4*%
X5790000Y-28700000D03*
D12*
X8330000Y-28700000D03*
X10870000Y-28700000D03*
X13410000Y-28700000D03*
X15950000Y-28700000D03*
X18490000Y-28700000D03*
X21030000Y-28700000D03*
X23570000Y-28700000D03*
X26110000Y-28700000D03*
X28650000Y-28700000D03*
X31190000Y-28700000D03*
X33730000Y-28700000D03*
X36270000Y-28700000D03*
X38810000Y-28700000D03*
X41350000Y-28700000D03*
X43890000Y-28700000D03*
X46430000Y-28700000D03*
X48970000Y-28700000D03*
X51510000Y-28700000D03*
X54050000Y-28700000D03*
X56590000Y-28700000D03*
X59130000Y-28700000D03*
X61670000Y-28700000D03*
X64210000Y-28700000D03*
%TD*%
D11*
%TO.C,J1*%
X5790000Y-5840000D03*
D12*
X8330000Y-5840000D03*
X10870000Y-5840000D03*
X13410000Y-5840000D03*
X15950000Y-5840000D03*
X18490000Y-5840000D03*
X21030000Y-5840000D03*
X23570000Y-5840000D03*
X26110000Y-5840000D03*
X28650000Y-5840000D03*
X31190000Y-5840000D03*
X33730000Y-5840000D03*
X36270000Y-5840000D03*
X38810000Y-5840000D03*
X41350000Y-5840000D03*
X43890000Y-5840000D03*
X46430000Y-5840000D03*
X48970000Y-5840000D03*
X51510000Y-5840000D03*
X54050000Y-5840000D03*
X56590000Y-5840000D03*
X59130000Y-5840000D03*
X61670000Y-5840000D03*
X64210000Y-5840000D03*
%TD*%
D11*
%TO.C,J3*%
X59130000Y-23620000D03*
D12*
X56590000Y-23620000D03*
X54050000Y-23620000D03*
X51510000Y-23620000D03*
X48970000Y-23620000D03*
X46430000Y-23620000D03*
X43890000Y-23620000D03*
X41350000Y-23620000D03*
X38810000Y-23620000D03*
X36270000Y-23620000D03*
X33730000Y-23620000D03*
X31190000Y-23620000D03*
X28650000Y-23620000D03*
X26110000Y-23620000D03*
X23570000Y-23620000D03*
X21030000Y-23620000D03*
X18490000Y-23620000D03*
X15950000Y-23620000D03*
X13410000Y-23620000D03*
X10870000Y-23620000D03*
%TD*%
D11*
%TO.C,J2*%
X10870000Y-8380000D03*
D12*
X13410000Y-8380000D03*
X15950000Y-8380000D03*
X18490000Y-8380000D03*
X21030000Y-8380000D03*
X23570000Y-8380000D03*
X26110000Y-8380000D03*
X28650000Y-8380000D03*
X31190000Y-8380000D03*
X33730000Y-8380000D03*
X36270000Y-8380000D03*
X38810000Y-8380000D03*
X41350000Y-8380000D03*
X43890000Y-8380000D03*
X46430000Y-8380000D03*
X48970000Y-8380000D03*
X51510000Y-8380000D03*
X54050000Y-8380000D03*
X56590000Y-8380000D03*
X59130000Y-8380000D03*
%TD*%
%LPD*%
M02*
