M48
; DRILL file KiCad 10.0.4 date 2026-09-14T23:59:09
; FORMAT={-:-/ absolute / metric / decimal}
; #@! TF.CreationDate,2026-09-14T23:59:09-03:00
; #@! TF.GenerationSoftware,Kicad,Pcbnew,10.0.4
; #@! TF.FileFunction,MixedPlating,1,2
FMAT,2
METRIC
; #@! TA.AperFunction,Plated,PTH,ViaDrill
T1C0.300
; #@! TA.AperFunction,Plated,PTH,ComponentDrill
T2C1.000
%
G90
G05
T1
X5.573Y-19.674
X7.971Y-2.005
X9.266Y-19.752
X12.736Y-1.673
X13.92Y-1.619
X14.667Y-4.869
X16.813Y-3.831
X17.902Y-9.77
X18.819Y-3.15
X18.92Y-12.591
X20.386Y-22.06
X22.207Y-7.203
X25.521Y-9.892
X25.752Y-1.249
X28.719Y-3.892
X36.095Y-12.812
X38.757Y-1.104
X42.182Y-4.132
X42.914Y-3.898
X42.979Y-9.999
X43.233Y-1.25
X45.369Y-1.483
X48.577Y-19.19
X50.095Y-19.175
X52.215Y-18.081
X52.694Y-13.165
X53.0Y-1.3
X53.527Y-18.888
X56.309Y-9.885
T2
X5.79Y-5.84
X5.79Y-26.16
X8.33Y-5.84
X8.33Y-26.16
X10.87Y-5.84
X10.87Y-8.38
X10.87Y-23.62
X10.87Y-26.16
X13.41Y-5.84
X13.41Y-8.38
X13.41Y-23.62
X13.41Y-26.16
X15.95Y-5.84
X15.95Y-8.38
X15.95Y-23.62
X15.95Y-26.16
X18.49Y-5.84
X18.49Y-8.38
X18.49Y-23.62
X18.49Y-26.16
X21.03Y-5.84
X21.03Y-8.38
X21.03Y-23.62
X21.03Y-26.16
X23.57Y-5.84
X23.57Y-8.38
X23.57Y-23.62
X23.57Y-26.16
X26.11Y-5.84
X26.11Y-8.38
X26.11Y-23.62
X26.11Y-26.16
X28.65Y-5.84
X28.65Y-8.38
X28.65Y-23.62
X28.65Y-26.16
X31.19Y-5.84
X31.19Y-8.38
X31.19Y-23.62
X31.19Y-26.16
X33.73Y-5.84
X33.73Y-8.38
X33.73Y-23.62
X33.73Y-26.16
X36.27Y-5.84
X36.27Y-8.38
X36.27Y-23.62
X36.27Y-26.16
X38.81Y-5.84
X38.81Y-8.38
X38.81Y-23.62
X38.81Y-26.16
X41.35Y-5.84
X41.35Y-8.38
X41.35Y-23.62
X41.35Y-26.16
X43.89Y-5.84
X43.89Y-8.38
X43.89Y-23.62
X43.89Y-26.16
X46.43Y-5.84
X46.43Y-8.38
X46.43Y-23.62
X46.43Y-26.16
X48.97Y-5.84
X48.97Y-8.38
X48.97Y-23.62
X48.97Y-26.16
X51.51Y-5.84
X51.51Y-8.38
X51.51Y-23.62
X51.51Y-26.16
X54.05Y-5.84
X54.05Y-8.38
X54.05Y-23.62
X54.05Y-26.16
X56.59Y-5.84
X56.59Y-8.38
X56.59Y-23.62
X56.59Y-26.16
X59.13Y-5.84
X59.13Y-8.38
X59.13Y-23.62
X59.13Y-26.16
X61.67Y-5.84
X61.67Y-26.16
X64.21Y-5.84
X64.21Y-26.16
M30
