%TF.GenerationSoftware,KiCad,Pcbnew,10.0.4*%
%TF.CreationDate,2026-09-15T23:15:37-03:00*%
%TF.ProjectId,tia-fpga,7469612d-6670-4676-912e-6b696361645f,B*%
%TF.SameCoordinates,Original*%
%TF.FileFunction,Soldermask,Bot*%
%TF.FilePolarity,Negative*%
%FSLAX46Y46*%
G04 Gerber Fmt 4.6, Leading zero omitted, Abs format (unit mm)*
G04 Created by KiCad (PCBNEW 10.0.4) date 2026-09-15 23:15:37*
%MOMM*%
%LPD*%
G01*
G04 APERTURE LIST*
%ADD10R,1.700000X1.700000*%
%ADD11C,1.700000*%
G04 APERTURE END LIST*
D10*
%TO.C,J4*%
X1590000Y-28700000D03*
D11*
X4130000Y-28700000D03*
X6670000Y-28700000D03*
X9210000Y-28700000D03*
X11750000Y-28700000D03*
X14290000Y-28700000D03*
X16830000Y-28700000D03*
X19370000Y-28700000D03*
X21910000Y-28700000D03*
X24450000Y-28700000D03*
X26990000Y-28700000D03*
X29530000Y-28700000D03*
X32070000Y-28700000D03*
X34610000Y-28700000D03*
X37150000Y-28700000D03*
X39690000Y-28700000D03*
X42230000Y-28700000D03*
X44770000Y-28700000D03*
X47310000Y-28700000D03*
X49850000Y-28700000D03*
X52390000Y-28700000D03*
X54930000Y-28700000D03*
X57470000Y-28700000D03*
X60010000Y-28700000D03*
%TD*%
D10*
%TO.C,J1*%
X1590000Y-5840000D03*
D11*
X4130000Y-5840000D03*
X6670000Y-5840000D03*
X9210000Y-5840000D03*
X11750000Y-5840000D03*
X14290000Y-5840000D03*
X16830000Y-5840000D03*
X19370000Y-5840000D03*
X21910000Y-5840000D03*
X24450000Y-5840000D03*
X26990000Y-5840000D03*
X29530000Y-5840000D03*
X32070000Y-5840000D03*
X34610000Y-5840000D03*
X37150000Y-5840000D03*
X39690000Y-5840000D03*
X42230000Y-5840000D03*
X44770000Y-5840000D03*
X47310000Y-5840000D03*
X49850000Y-5840000D03*
X52390000Y-5840000D03*
X54930000Y-5840000D03*
X57470000Y-5840000D03*
X60010000Y-5840000D03*
%TD*%
D10*
%TO.C,J3*%
X54930000Y-24890000D03*
D11*
X52390000Y-24890000D03*
X49850000Y-24890000D03*
X47310000Y-24890000D03*
X44770000Y-24890000D03*
X42230000Y-24890000D03*
X39690000Y-24890000D03*
X37150000Y-24890000D03*
X34610000Y-24890000D03*
X32070000Y-24890000D03*
X29530000Y-24890000D03*
X26990000Y-24890000D03*
X24450000Y-24890000D03*
X21910000Y-24890000D03*
X19370000Y-24890000D03*
X16830000Y-24890000D03*
X14290000Y-24890000D03*
X11750000Y-24890000D03*
X9210000Y-24890000D03*
X6670000Y-24890000D03*
%TD*%
D10*
%TO.C,J2*%
X6670000Y-9650000D03*
D11*
X9210000Y-9650000D03*
X11750000Y-9650000D03*
X14290000Y-9650000D03*
X16830000Y-9650000D03*
X19370000Y-9650000D03*
X21910000Y-9650000D03*
X24450000Y-9650000D03*
X26990000Y-9650000D03*
X29530000Y-9650000D03*
X32070000Y-9650000D03*
X34610000Y-9650000D03*
X37150000Y-9650000D03*
X39690000Y-9650000D03*
X42230000Y-9650000D03*
X44770000Y-9650000D03*
X47310000Y-9650000D03*
X49850000Y-9650000D03*
X52390000Y-9650000D03*
X54930000Y-9650000D03*
%TD*%
M02*
