%TF.GenerationSoftware,KiCad,Pcbnew,10.0.4*%
%TF.CreationDate,2026-09-11T23:45:20-03:00*%
%TF.ProjectId,tia-fpga,7469612d-6670-4676-912e-6b696361645f,rev?*%
%TF.SameCoordinates,Original*%
%TF.FileFunction,Legend,Top*%
%TF.FilePolarity,Positive*%
%FSLAX46Y46*%
G04 Gerber Fmt 4.6, Leading zero omitted, Abs format (unit mm)*
G04 Created by KiCad (PCBNEW 10.0.4) date 2026-09-11 23:45:20*
%MOMM*%
%LPD*%
G01*
G04 APERTURE LIST*
G04 Aperture macros list*
%AMRoundRect*
0 Rectangle with rounded corners*
0 $1 Rounding radius*
0 $2 $3 $4 $5 $6 $7 $8 $9 X,Y pos of 4 corners*
0 Add a 4 corners polygon primitive as box body*
4,1,4,$2,$3,$4,$5,$6,$7,$8,$9,$2,$3,0*
0 Add four circle primitives for the rounded corners*
1,1,$1+$1,$2,$3*
1,1,$1+$1,$4,$5*
1,1,$1+$1,$6,$7*
1,1,$1+$1,$8,$9*
0 Add four rect primitives between the rounded corners*
20,1,$1+$1,$2,$3,$4,$5,0*
20,1,$1+$1,$4,$5,$6,$7,0*
20,1,$1+$1,$6,$7,$8,$9,0*
20,1,$1+$1,$8,$9,$2,$3,0*%
G04 Aperture macros list end*
%ADD10C,0.120000*%
%ADD11RoundRect,0.150000X0.150000X-0.875000X0.150000X0.875000X-0.150000X0.875000X-0.150000X-0.875000X0*%
%ADD12RoundRect,0.250000X-0.262500X-0.450000X0.262500X-0.450000X0.262500X0.450000X-0.262500X0.450000X0*%
%ADD13RoundRect,0.250000X-0.250000X-0.475000X0.250000X-0.475000X0.250000X0.475000X-0.250000X0.475000X0*%
%ADD14RoundRect,0.150000X0.150000X-0.825000X0.150000X0.825000X-0.150000X0.825000X-0.150000X-0.825000X0*%
%ADD15R,1.700000X1.700000*%
%ADD16C,1.700000*%
%ADD17RoundRect,0.150000X-0.512500X-0.150000X0.512500X-0.150000X0.512500X0.150000X-0.512500X0.150000X0*%
G04 APERTURE END LIST*
D10*
X16510117Y-16685714D02*
X17238688Y-16685714D01*
X17238688Y-16685714D02*
X17324402Y-16642857D01*
X17324402Y-16642857D02*
X17367260Y-16600000D01*
X17367260Y-16600000D02*
X17410117Y-16514285D01*
X17410117Y-16514285D02*
X17410117Y-16342857D01*
X17410117Y-16342857D02*
X17367260Y-16257142D01*
X17367260Y-16257142D02*
X17324402Y-16214285D01*
X17324402Y-16214285D02*
X17238688Y-16171428D01*
X17238688Y-16171428D02*
X16510117Y-16171428D01*
X16595831Y-15785714D02*
X16552974Y-15742857D01*
X16552974Y-15742857D02*
X16510117Y-15657143D01*
X16510117Y-15657143D02*
X16510117Y-15442857D01*
X16510117Y-15442857D02*
X16552974Y-15357143D01*
X16552974Y-15357143D02*
X16595831Y-15314285D01*
X16595831Y-15314285D02*
X16681545Y-15271428D01*
X16681545Y-15271428D02*
X16767260Y-15271428D01*
X16767260Y-15271428D02*
X16895831Y-15314285D01*
X16895831Y-15314285D02*
X17410117Y-15828571D01*
X17410117Y-15828571D02*
X17410117Y-15271428D01*
X47866667Y-31863855D02*
X47600000Y-31482902D01*
X47409524Y-31863855D02*
X47409524Y-31063855D01*
X47409524Y-31063855D02*
X47714286Y-31063855D01*
X47714286Y-31063855D02*
X47790476Y-31101950D01*
X47790476Y-31101950D02*
X47828571Y-31140045D01*
X47828571Y-31140045D02*
X47866667Y-31216236D01*
X47866667Y-31216236D02*
X47866667Y-31330521D01*
X47866667Y-31330521D02*
X47828571Y-31406712D01*
X47828571Y-31406712D02*
X47790476Y-31444807D01*
X47790476Y-31444807D02*
X47714286Y-31482902D01*
X47714286Y-31482902D02*
X47409524Y-31482902D01*
X48552381Y-31063855D02*
X48400000Y-31063855D01*
X48400000Y-31063855D02*
X48323809Y-31101950D01*
X48323809Y-31101950D02*
X48285714Y-31140045D01*
X48285714Y-31140045D02*
X48209524Y-31254331D01*
X48209524Y-31254331D02*
X48171428Y-31406712D01*
X48171428Y-31406712D02*
X48171428Y-31711474D01*
X48171428Y-31711474D02*
X48209524Y-31787664D01*
X48209524Y-31787664D02*
X48247619Y-31825760D01*
X48247619Y-31825760D02*
X48323809Y-31863855D01*
X48323809Y-31863855D02*
X48476190Y-31863855D01*
X48476190Y-31863855D02*
X48552381Y-31825760D01*
X48552381Y-31825760D02*
X48590476Y-31787664D01*
X48590476Y-31787664D02*
X48628571Y-31711474D01*
X48628571Y-31711474D02*
X48628571Y-31520998D01*
X48628571Y-31520998D02*
X48590476Y-31444807D01*
X48590476Y-31444807D02*
X48552381Y-31406712D01*
X48552381Y-31406712D02*
X48476190Y-31368617D01*
X48476190Y-31368617D02*
X48323809Y-31368617D01*
X48323809Y-31368617D02*
X48247619Y-31406712D01*
X48247619Y-31406712D02*
X48209524Y-31444807D01*
X48209524Y-31444807D02*
X48171428Y-31520998D01*
X23866667Y-787664D02*
X23828571Y-825760D01*
X23828571Y-825760D02*
X23714286Y-863855D01*
X23714286Y-863855D02*
X23638095Y-863855D01*
X23638095Y-863855D02*
X23523809Y-825760D01*
X23523809Y-825760D02*
X23447619Y-749569D01*
X23447619Y-749569D02*
X23409524Y-673379D01*
X23409524Y-673379D02*
X23371428Y-520998D01*
X23371428Y-520998D02*
X23371428Y-406712D01*
X23371428Y-406712D02*
X23409524Y-254331D01*
X23409524Y-254331D02*
X23447619Y-178140D01*
X23447619Y-178140D02*
X23523809Y-101950D01*
X23523809Y-101950D02*
X23638095Y-63855D01*
X23638095Y-63855D02*
X23714286Y-63855D01*
X23714286Y-63855D02*
X23828571Y-101950D01*
X23828571Y-101950D02*
X23866667Y-140045D01*
X24171428Y-140045D02*
X24209524Y-101950D01*
X24209524Y-101950D02*
X24285714Y-63855D01*
X24285714Y-63855D02*
X24476190Y-63855D01*
X24476190Y-63855D02*
X24552381Y-101950D01*
X24552381Y-101950D02*
X24590476Y-140045D01*
X24590476Y-140045D02*
X24628571Y-216236D01*
X24628571Y-216236D02*
X24628571Y-292426D01*
X24628571Y-292426D02*
X24590476Y-406712D01*
X24590476Y-406712D02*
X24133333Y-863855D01*
X24133333Y-863855D02*
X24628571Y-863855D01*
X39866667Y-31863855D02*
X39600000Y-31482902D01*
X39409524Y-31863855D02*
X39409524Y-31063855D01*
X39409524Y-31063855D02*
X39714286Y-31063855D01*
X39714286Y-31063855D02*
X39790476Y-31101950D01*
X39790476Y-31101950D02*
X39828571Y-31140045D01*
X39828571Y-31140045D02*
X39866667Y-31216236D01*
X39866667Y-31216236D02*
X39866667Y-31330521D01*
X39866667Y-31330521D02*
X39828571Y-31406712D01*
X39828571Y-31406712D02*
X39790476Y-31444807D01*
X39790476Y-31444807D02*
X39714286Y-31482902D01*
X39714286Y-31482902D02*
X39409524Y-31482902D01*
X40590476Y-31063855D02*
X40209524Y-31063855D01*
X40209524Y-31063855D02*
X40171428Y-31444807D01*
X40171428Y-31444807D02*
X40209524Y-31406712D01*
X40209524Y-31406712D02*
X40285714Y-31368617D01*
X40285714Y-31368617D02*
X40476190Y-31368617D01*
X40476190Y-31368617D02*
X40552381Y-31406712D01*
X40552381Y-31406712D02*
X40590476Y-31444807D01*
X40590476Y-31444807D02*
X40628571Y-31520998D01*
X40628571Y-31520998D02*
X40628571Y-31711474D01*
X40628571Y-31711474D02*
X40590476Y-31787664D01*
X40590476Y-31787664D02*
X40552381Y-31825760D01*
X40552381Y-31825760D02*
X40476190Y-31863855D01*
X40476190Y-31863855D02*
X40285714Y-31863855D01*
X40285714Y-31863855D02*
X40209524Y-31825760D01*
X40209524Y-31825760D02*
X40171428Y-31787664D01*
X57510117Y-16685714D02*
X58238688Y-16685714D01*
X58238688Y-16685714D02*
X58324402Y-16642857D01*
X58324402Y-16642857D02*
X58367260Y-16600000D01*
X58367260Y-16600000D02*
X58410117Y-16514285D01*
X58410117Y-16514285D02*
X58410117Y-16342857D01*
X58410117Y-16342857D02*
X58367260Y-16257142D01*
X58367260Y-16257142D02*
X58324402Y-16214285D01*
X58324402Y-16214285D02*
X58238688Y-16171428D01*
X58238688Y-16171428D02*
X57510117Y-16171428D01*
X58410117Y-15271428D02*
X58410117Y-15785714D01*
X58410117Y-15528571D02*
X57510117Y-15528571D01*
X57510117Y-15528571D02*
X57638688Y-15614285D01*
X57638688Y-15614285D02*
X57724402Y-15700000D01*
X57724402Y-15700000D02*
X57767260Y-15785714D01*
X23866667Y-31863855D02*
X23600000Y-31482902D01*
X23409524Y-31863855D02*
X23409524Y-31063855D01*
X23409524Y-31063855D02*
X23714286Y-31063855D01*
X23714286Y-31063855D02*
X23790476Y-31101950D01*
X23790476Y-31101950D02*
X23828571Y-31140045D01*
X23828571Y-31140045D02*
X23866667Y-31216236D01*
X23866667Y-31216236D02*
X23866667Y-31330521D01*
X23866667Y-31330521D02*
X23828571Y-31406712D01*
X23828571Y-31406712D02*
X23790476Y-31444807D01*
X23790476Y-31444807D02*
X23714286Y-31482902D01*
X23714286Y-31482902D02*
X23409524Y-31482902D01*
X24133333Y-31063855D02*
X24628571Y-31063855D01*
X24628571Y-31063855D02*
X24361905Y-31368617D01*
X24361905Y-31368617D02*
X24476190Y-31368617D01*
X24476190Y-31368617D02*
X24552381Y-31406712D01*
X24552381Y-31406712D02*
X24590476Y-31444807D01*
X24590476Y-31444807D02*
X24628571Y-31520998D01*
X24628571Y-31520998D02*
X24628571Y-31711474D01*
X24628571Y-31711474D02*
X24590476Y-31787664D01*
X24590476Y-31787664D02*
X24552381Y-31825760D01*
X24552381Y-31825760D02*
X24476190Y-31863855D01*
X24476190Y-31863855D02*
X24247619Y-31863855D01*
X24247619Y-31863855D02*
X24171428Y-31825760D01*
X24171428Y-31825760D02*
X24133333Y-31787664D01*
X55866667Y-31863855D02*
X55600000Y-31482902D01*
X55409524Y-31863855D02*
X55409524Y-31063855D01*
X55409524Y-31063855D02*
X55714286Y-31063855D01*
X55714286Y-31063855D02*
X55790476Y-31101950D01*
X55790476Y-31101950D02*
X55828571Y-31140045D01*
X55828571Y-31140045D02*
X55866667Y-31216236D01*
X55866667Y-31216236D02*
X55866667Y-31330521D01*
X55866667Y-31330521D02*
X55828571Y-31406712D01*
X55828571Y-31406712D02*
X55790476Y-31444807D01*
X55790476Y-31444807D02*
X55714286Y-31482902D01*
X55714286Y-31482902D02*
X55409524Y-31482902D01*
X56133333Y-31063855D02*
X56666667Y-31063855D01*
X56666667Y-31063855D02*
X56323809Y-31863855D01*
X47866667Y-787664D02*
X47828571Y-825760D01*
X47828571Y-825760D02*
X47714286Y-863855D01*
X47714286Y-863855D02*
X47638095Y-863855D01*
X47638095Y-863855D02*
X47523809Y-825760D01*
X47523809Y-825760D02*
X47447619Y-749569D01*
X47447619Y-749569D02*
X47409524Y-673379D01*
X47409524Y-673379D02*
X47371428Y-520998D01*
X47371428Y-520998D02*
X47371428Y-406712D01*
X47371428Y-406712D02*
X47409524Y-254331D01*
X47409524Y-254331D02*
X47447619Y-178140D01*
X47447619Y-178140D02*
X47523809Y-101950D01*
X47523809Y-101950D02*
X47638095Y-63855D01*
X47638095Y-63855D02*
X47714286Y-63855D01*
X47714286Y-63855D02*
X47828571Y-101950D01*
X47828571Y-101950D02*
X47866667Y-140045D01*
X48590476Y-63855D02*
X48209524Y-63855D01*
X48209524Y-63855D02*
X48171428Y-444807D01*
X48171428Y-444807D02*
X48209524Y-406712D01*
X48209524Y-406712D02*
X48285714Y-368617D01*
X48285714Y-368617D02*
X48476190Y-368617D01*
X48476190Y-368617D02*
X48552381Y-406712D01*
X48552381Y-406712D02*
X48590476Y-444807D01*
X48590476Y-444807D02*
X48628571Y-520998D01*
X48628571Y-520998D02*
X48628571Y-711474D01*
X48628571Y-711474D02*
X48590476Y-787664D01*
X48590476Y-787664D02*
X48552381Y-825760D01*
X48552381Y-825760D02*
X48476190Y-863855D01*
X48476190Y-863855D02*
X48285714Y-863855D01*
X48285714Y-863855D02*
X48209524Y-825760D01*
X48209524Y-825760D02*
X48171428Y-787664D01*
X31866667Y-787664D02*
X31828571Y-825760D01*
X31828571Y-825760D02*
X31714286Y-863855D01*
X31714286Y-863855D02*
X31638095Y-863855D01*
X31638095Y-863855D02*
X31523809Y-825760D01*
X31523809Y-825760D02*
X31447619Y-749569D01*
X31447619Y-749569D02*
X31409524Y-673379D01*
X31409524Y-673379D02*
X31371428Y-520998D01*
X31371428Y-520998D02*
X31371428Y-406712D01*
X31371428Y-406712D02*
X31409524Y-254331D01*
X31409524Y-254331D02*
X31447619Y-178140D01*
X31447619Y-178140D02*
X31523809Y-101950D01*
X31523809Y-101950D02*
X31638095Y-63855D01*
X31638095Y-63855D02*
X31714286Y-63855D01*
X31714286Y-63855D02*
X31828571Y-101950D01*
X31828571Y-101950D02*
X31866667Y-140045D01*
X32133333Y-63855D02*
X32628571Y-63855D01*
X32628571Y-63855D02*
X32361905Y-368617D01*
X32361905Y-368617D02*
X32476190Y-368617D01*
X32476190Y-368617D02*
X32552381Y-406712D01*
X32552381Y-406712D02*
X32590476Y-444807D01*
X32590476Y-444807D02*
X32628571Y-520998D01*
X32628571Y-520998D02*
X32628571Y-711474D01*
X32628571Y-711474D02*
X32590476Y-787664D01*
X32590476Y-787664D02*
X32552381Y-825760D01*
X32552381Y-825760D02*
X32476190Y-863855D01*
X32476190Y-863855D02*
X32247619Y-863855D01*
X32247619Y-863855D02*
X32171428Y-825760D01*
X32171428Y-825760D02*
X32133333Y-787664D01*
X31866667Y-31863855D02*
X31600000Y-31482902D01*
X31409524Y-31863855D02*
X31409524Y-31063855D01*
X31409524Y-31063855D02*
X31714286Y-31063855D01*
X31714286Y-31063855D02*
X31790476Y-31101950D01*
X31790476Y-31101950D02*
X31828571Y-31140045D01*
X31828571Y-31140045D02*
X31866667Y-31216236D01*
X31866667Y-31216236D02*
X31866667Y-31330521D01*
X31866667Y-31330521D02*
X31828571Y-31406712D01*
X31828571Y-31406712D02*
X31790476Y-31444807D01*
X31790476Y-31444807D02*
X31714286Y-31482902D01*
X31714286Y-31482902D02*
X31409524Y-31482902D01*
X32552381Y-31330521D02*
X32552381Y-31863855D01*
X32361905Y-31025760D02*
X32171428Y-31597188D01*
X32171428Y-31597188D02*
X32666667Y-31597188D01*
X30510117Y-16685714D02*
X31238688Y-16685714D01*
X31238688Y-16685714D02*
X31324402Y-16642857D01*
X31324402Y-16642857D02*
X31367260Y-16600000D01*
X31367260Y-16600000D02*
X31410117Y-16514285D01*
X31410117Y-16514285D02*
X31410117Y-16342857D01*
X31410117Y-16342857D02*
X31367260Y-16257142D01*
X31367260Y-16257142D02*
X31324402Y-16214285D01*
X31324402Y-16214285D02*
X31238688Y-16171428D01*
X31238688Y-16171428D02*
X30510117Y-16171428D01*
X30510117Y-15828571D02*
X30510117Y-15271428D01*
X30510117Y-15271428D02*
X30852974Y-15571428D01*
X30852974Y-15571428D02*
X30852974Y-15442857D01*
X30852974Y-15442857D02*
X30895831Y-15357143D01*
X30895831Y-15357143D02*
X30938688Y-15314285D01*
X30938688Y-15314285D02*
X31024402Y-15271428D01*
X31024402Y-15271428D02*
X31238688Y-15271428D01*
X31238688Y-15271428D02*
X31324402Y-15314285D01*
X31324402Y-15314285D02*
X31367260Y-15357143D01*
X31367260Y-15357143D02*
X31410117Y-15442857D01*
X31410117Y-15442857D02*
X31410117Y-15700000D01*
X31410117Y-15700000D02*
X31367260Y-15785714D01*
X31367260Y-15785714D02*
X31324402Y-15828571D01*
X44510117Y-16685714D02*
X45238688Y-16685714D01*
X45238688Y-16685714D02*
X45324402Y-16642857D01*
X45324402Y-16642857D02*
X45367260Y-16600000D01*
X45367260Y-16600000D02*
X45410117Y-16514285D01*
X45410117Y-16514285D02*
X45410117Y-16342857D01*
X45410117Y-16342857D02*
X45367260Y-16257142D01*
X45367260Y-16257142D02*
X45324402Y-16214285D01*
X45324402Y-16214285D02*
X45238688Y-16171428D01*
X45238688Y-16171428D02*
X44510117Y-16171428D01*
X44810117Y-15357143D02*
X45410117Y-15357143D01*
X44467260Y-15571428D02*
X45110117Y-15785714D01*
X45110117Y-15785714D02*
X45110117Y-15228571D01*
X7866667Y-31863855D02*
X7600000Y-31482902D01*
X7409524Y-31863855D02*
X7409524Y-31063855D01*
X7409524Y-31063855D02*
X7714286Y-31063855D01*
X7714286Y-31063855D02*
X7790476Y-31101950D01*
X7790476Y-31101950D02*
X7828571Y-31140045D01*
X7828571Y-31140045D02*
X7866667Y-31216236D01*
X7866667Y-31216236D02*
X7866667Y-31330521D01*
X7866667Y-31330521D02*
X7828571Y-31406712D01*
X7828571Y-31406712D02*
X7790476Y-31444807D01*
X7790476Y-31444807D02*
X7714286Y-31482902D01*
X7714286Y-31482902D02*
X7409524Y-31482902D01*
X8628571Y-31863855D02*
X8171428Y-31863855D01*
X8400000Y-31863855D02*
X8400000Y-31063855D01*
X8400000Y-31063855D02*
X8323809Y-31178140D01*
X8323809Y-31178140D02*
X8247619Y-31254331D01*
X8247619Y-31254331D02*
X8171428Y-31292426D01*
X39866667Y-787664D02*
X39828571Y-825760D01*
X39828571Y-825760D02*
X39714286Y-863855D01*
X39714286Y-863855D02*
X39638095Y-863855D01*
X39638095Y-863855D02*
X39523809Y-825760D01*
X39523809Y-825760D02*
X39447619Y-749569D01*
X39447619Y-749569D02*
X39409524Y-673379D01*
X39409524Y-673379D02*
X39371428Y-520998D01*
X39371428Y-520998D02*
X39371428Y-406712D01*
X39371428Y-406712D02*
X39409524Y-254331D01*
X39409524Y-254331D02*
X39447619Y-178140D01*
X39447619Y-178140D02*
X39523809Y-101950D01*
X39523809Y-101950D02*
X39638095Y-63855D01*
X39638095Y-63855D02*
X39714286Y-63855D01*
X39714286Y-63855D02*
X39828571Y-101950D01*
X39828571Y-101950D02*
X39866667Y-140045D01*
X40552381Y-330521D02*
X40552381Y-863855D01*
X40361905Y-25760D02*
X40171428Y-597188D01*
X40171428Y-597188D02*
X40666667Y-597188D01*
X15866667Y-31863855D02*
X15600000Y-31482902D01*
X15409524Y-31863855D02*
X15409524Y-31063855D01*
X15409524Y-31063855D02*
X15714286Y-31063855D01*
X15714286Y-31063855D02*
X15790476Y-31101950D01*
X15790476Y-31101950D02*
X15828571Y-31140045D01*
X15828571Y-31140045D02*
X15866667Y-31216236D01*
X15866667Y-31216236D02*
X15866667Y-31330521D01*
X15866667Y-31330521D02*
X15828571Y-31406712D01*
X15828571Y-31406712D02*
X15790476Y-31444807D01*
X15790476Y-31444807D02*
X15714286Y-31482902D01*
X15714286Y-31482902D02*
X15409524Y-31482902D01*
X16171428Y-31140045D02*
X16209524Y-31101950D01*
X16209524Y-31101950D02*
X16285714Y-31063855D01*
X16285714Y-31063855D02*
X16476190Y-31063855D01*
X16476190Y-31063855D02*
X16552381Y-31101950D01*
X16552381Y-31101950D02*
X16590476Y-31140045D01*
X16590476Y-31140045D02*
X16628571Y-31216236D01*
X16628571Y-31216236D02*
X16628571Y-31292426D01*
X16628571Y-31292426D02*
X16590476Y-31406712D01*
X16590476Y-31406712D02*
X16133333Y-31863855D01*
X16133333Y-31863855D02*
X16628571Y-31863855D01*
X55866667Y-787664D02*
X55828571Y-825760D01*
X55828571Y-825760D02*
X55714286Y-863855D01*
X55714286Y-863855D02*
X55638095Y-863855D01*
X55638095Y-863855D02*
X55523809Y-825760D01*
X55523809Y-825760D02*
X55447619Y-749569D01*
X55447619Y-749569D02*
X55409524Y-673379D01*
X55409524Y-673379D02*
X55371428Y-520998D01*
X55371428Y-520998D02*
X55371428Y-406712D01*
X55371428Y-406712D02*
X55409524Y-254331D01*
X55409524Y-254331D02*
X55447619Y-178140D01*
X55447619Y-178140D02*
X55523809Y-101950D01*
X55523809Y-101950D02*
X55638095Y-63855D01*
X55638095Y-63855D02*
X55714286Y-63855D01*
X55714286Y-63855D02*
X55828571Y-101950D01*
X55828571Y-101950D02*
X55866667Y-140045D01*
X56552381Y-63855D02*
X56400000Y-63855D01*
X56400000Y-63855D02*
X56323809Y-101950D01*
X56323809Y-101950D02*
X56285714Y-140045D01*
X56285714Y-140045D02*
X56209524Y-254331D01*
X56209524Y-254331D02*
X56171428Y-406712D01*
X56171428Y-406712D02*
X56171428Y-711474D01*
X56171428Y-711474D02*
X56209524Y-787664D01*
X56209524Y-787664D02*
X56247619Y-825760D01*
X56247619Y-825760D02*
X56323809Y-863855D01*
X56323809Y-863855D02*
X56476190Y-863855D01*
X56476190Y-863855D02*
X56552381Y-825760D01*
X56552381Y-825760D02*
X56590476Y-787664D01*
X56590476Y-787664D02*
X56628571Y-711474D01*
X56628571Y-711474D02*
X56628571Y-520998D01*
X56628571Y-520998D02*
X56590476Y-444807D01*
X56590476Y-444807D02*
X56552381Y-406712D01*
X56552381Y-406712D02*
X56476190Y-368617D01*
X56476190Y-368617D02*
X56323809Y-368617D01*
X56323809Y-368617D02*
X56247619Y-406712D01*
X56247619Y-406712D02*
X56209524Y-444807D01*
X56209524Y-444807D02*
X56171428Y-520998D01*
X63866667Y-31863855D02*
X63600000Y-31482902D01*
X63409524Y-31863855D02*
X63409524Y-31063855D01*
X63409524Y-31063855D02*
X63714286Y-31063855D01*
X63714286Y-31063855D02*
X63790476Y-31101950D01*
X63790476Y-31101950D02*
X63828571Y-31140045D01*
X63828571Y-31140045D02*
X63866667Y-31216236D01*
X63866667Y-31216236D02*
X63866667Y-31330521D01*
X63866667Y-31330521D02*
X63828571Y-31406712D01*
X63828571Y-31406712D02*
X63790476Y-31444807D01*
X63790476Y-31444807D02*
X63714286Y-31482902D01*
X63714286Y-31482902D02*
X63409524Y-31482902D01*
X64323809Y-31406712D02*
X64247619Y-31368617D01*
X64247619Y-31368617D02*
X64209524Y-31330521D01*
X64209524Y-31330521D02*
X64171428Y-31254331D01*
X64171428Y-31254331D02*
X64171428Y-31216236D01*
X64171428Y-31216236D02*
X64209524Y-31140045D01*
X64209524Y-31140045D02*
X64247619Y-31101950D01*
X64247619Y-31101950D02*
X64323809Y-31063855D01*
X64323809Y-31063855D02*
X64476190Y-31063855D01*
X64476190Y-31063855D02*
X64552381Y-31101950D01*
X64552381Y-31101950D02*
X64590476Y-31140045D01*
X64590476Y-31140045D02*
X64628571Y-31216236D01*
X64628571Y-31216236D02*
X64628571Y-31254331D01*
X64628571Y-31254331D02*
X64590476Y-31330521D01*
X64590476Y-31330521D02*
X64552381Y-31368617D01*
X64552381Y-31368617D02*
X64476190Y-31406712D01*
X64476190Y-31406712D02*
X64323809Y-31406712D01*
X64323809Y-31406712D02*
X64247619Y-31444807D01*
X64247619Y-31444807D02*
X64209524Y-31482902D01*
X64209524Y-31482902D02*
X64171428Y-31559093D01*
X64171428Y-31559093D02*
X64171428Y-31711474D01*
X64171428Y-31711474D02*
X64209524Y-31787664D01*
X64209524Y-31787664D02*
X64247619Y-31825760D01*
X64247619Y-31825760D02*
X64323809Y-31863855D01*
X64323809Y-31863855D02*
X64476190Y-31863855D01*
X64476190Y-31863855D02*
X64552381Y-31825760D01*
X64552381Y-31825760D02*
X64590476Y-31787664D01*
X64590476Y-31787664D02*
X64628571Y-31711474D01*
X64628571Y-31711474D02*
X64628571Y-31559093D01*
X64628571Y-31559093D02*
X64590476Y-31482902D01*
X64590476Y-31482902D02*
X64552381Y-31444807D01*
X64552381Y-31444807D02*
X64476190Y-31406712D01*
X7314285Y-2010117D02*
X7314285Y-2738688D01*
X7314285Y-2738688D02*
X7357142Y-2824402D01*
X7357142Y-2824402D02*
X7400000Y-2867260D01*
X7400000Y-2867260D02*
X7485714Y-2910117D01*
X7485714Y-2910117D02*
X7657142Y-2910117D01*
X7657142Y-2910117D02*
X7742857Y-2867260D01*
X7742857Y-2867260D02*
X7785714Y-2824402D01*
X7785714Y-2824402D02*
X7828571Y-2738688D01*
X7828571Y-2738688D02*
X7828571Y-2010117D01*
X8685714Y-2010117D02*
X8257142Y-2010117D01*
X8257142Y-2010117D02*
X8214285Y-2438688D01*
X8214285Y-2438688D02*
X8257142Y-2395831D01*
X8257142Y-2395831D02*
X8342857Y-2352974D01*
X8342857Y-2352974D02*
X8557142Y-2352974D01*
X8557142Y-2352974D02*
X8642857Y-2395831D01*
X8642857Y-2395831D02*
X8685714Y-2438688D01*
X8685714Y-2438688D02*
X8728571Y-2524402D01*
X8728571Y-2524402D02*
X8728571Y-2738688D01*
X8728571Y-2738688D02*
X8685714Y-2824402D01*
X8685714Y-2824402D02*
X8642857Y-2867260D01*
X8642857Y-2867260D02*
X8557142Y-2910117D01*
X8557142Y-2910117D02*
X8342857Y-2910117D01*
X8342857Y-2910117D02*
X8257142Y-2867260D01*
X8257142Y-2867260D02*
X8214285Y-2824402D01*
X15866667Y-787664D02*
X15828571Y-825760D01*
X15828571Y-825760D02*
X15714286Y-863855D01*
X15714286Y-863855D02*
X15638095Y-863855D01*
X15638095Y-863855D02*
X15523809Y-825760D01*
X15523809Y-825760D02*
X15447619Y-749569D01*
X15447619Y-749569D02*
X15409524Y-673379D01*
X15409524Y-673379D02*
X15371428Y-520998D01*
X15371428Y-520998D02*
X15371428Y-406712D01*
X15371428Y-406712D02*
X15409524Y-254331D01*
X15409524Y-254331D02*
X15447619Y-178140D01*
X15447619Y-178140D02*
X15523809Y-101950D01*
X15523809Y-101950D02*
X15638095Y-63855D01*
X15638095Y-63855D02*
X15714286Y-63855D01*
X15714286Y-63855D02*
X15828571Y-101950D01*
X15828571Y-101950D02*
X15866667Y-140045D01*
X16628571Y-863855D02*
X16171428Y-863855D01*
X16400000Y-863855D02*
X16400000Y-63855D01*
X16400000Y-63855D02*
X16323809Y-178140D01*
X16323809Y-178140D02*
X16247619Y-254331D01*
X16247619Y-254331D02*
X16171428Y-292426D01*
%TO.C,U2*%
X10490000Y-12140000D02*
X10725000Y-12140000D01*
X10490000Y-19860000D02*
X10490000Y-12140000D01*
X10725000Y-19860000D02*
X10490000Y-19860000D01*
X23275000Y-12140000D02*
X23510000Y-12140000D01*
X23510000Y-12140000D02*
X23510000Y-19860000D01*
X23510000Y-19860000D02*
X23275000Y-19860000D01*
X10720000Y-20650000D02*
X10250000Y-20990000D01*
X10250000Y-20310000D01*
X10720000Y-20650000D01*
G36*
X10720000Y-20650000D02*
G01*
X10250000Y-20990000D01*
X10250000Y-20310000D01*
X10720000Y-20650000D01*
G37*
%TO.C,R6*%
X47772936Y-28765000D02*
X48227064Y-28765000D01*
X47772936Y-30235000D02*
X48227064Y-30235000D01*
%TO.C,C2*%
X23738748Y-1765000D02*
X24261252Y-1765000D01*
X23738748Y-3235000D02*
X24261252Y-3235000D01*
%TO.C,R5*%
X39772936Y-28765000D02*
X40227064Y-28765000D01*
X39772936Y-30235000D02*
X40227064Y-30235000D01*
%TO.C,U1*%
X53565000Y-13940000D02*
X53630000Y-13940000D01*
X53565000Y-18060000D02*
X53565000Y-13940000D01*
X53630000Y-18060000D02*
X53565000Y-18060000D01*
X62370000Y-13940000D02*
X62435000Y-13940000D01*
X62435000Y-13940000D02*
X62435000Y-18060000D01*
X62435000Y-18060000D02*
X62370000Y-18060000D01*
X53630000Y-18600000D02*
X53300000Y-18840000D01*
X53300000Y-18360000D01*
X53630000Y-18600000D01*
G36*
X53630000Y-18600000D02*
G01*
X53300000Y-18840000D01*
X53300000Y-18360000D01*
X53630000Y-18600000D01*
G37*
%TO.C,R3*%
X23772936Y-28765000D02*
X24227064Y-28765000D01*
X23772936Y-30235000D02*
X24227064Y-30235000D01*
%TO.C,R7*%
X55772936Y-28765000D02*
X56227064Y-28765000D01*
X55772936Y-30235000D02*
X56227064Y-30235000D01*
%TO.C,J1*%
X4460000Y-4510000D02*
X5790000Y-4510000D01*
X4460000Y-5840000D02*
X4460000Y-4510000D01*
X7060000Y-4510000D02*
X65540000Y-4510000D01*
X7060000Y-7170000D02*
X7060000Y-4510000D01*
X7060000Y-7170000D02*
X65540000Y-7170000D01*
X65540000Y-7170000D02*
X65540000Y-4510000D01*
%TO.C,C5*%
X47738748Y-1765000D02*
X48261252Y-1765000D01*
X47738748Y-3235000D02*
X48261252Y-3235000D01*
%TO.C,C3*%
X31738748Y-1765000D02*
X32261252Y-1765000D01*
X31738748Y-3235000D02*
X32261252Y-3235000D01*
%TO.C,R4*%
X31772936Y-28765000D02*
X32227064Y-28765000D01*
X31772936Y-30235000D02*
X32227064Y-30235000D01*
%TO.C,U3*%
X24490000Y-12140000D02*
X24725000Y-12140000D01*
X24490000Y-19860000D02*
X24490000Y-12140000D01*
X24725000Y-19860000D02*
X24490000Y-19860000D01*
X37275000Y-12140000D02*
X37510000Y-12140000D01*
X37510000Y-12140000D02*
X37510000Y-19860000D01*
X37510000Y-19860000D02*
X37275000Y-19860000D01*
X24720000Y-20650000D02*
X24250000Y-20990000D01*
X24250000Y-20310000D01*
X24720000Y-20650000D01*
G36*
X24720000Y-20650000D02*
G01*
X24250000Y-20990000D01*
X24250000Y-20310000D01*
X24720000Y-20650000D01*
G37*
%TO.C,U4*%
X38490000Y-12140000D02*
X38725000Y-12140000D01*
X38490000Y-19860000D02*
X38490000Y-12140000D01*
X38725000Y-19860000D02*
X38490000Y-19860000D01*
X51275000Y-12140000D02*
X51510000Y-12140000D01*
X51510000Y-12140000D02*
X51510000Y-19860000D01*
X51510000Y-19860000D02*
X51275000Y-19860000D01*
X38720000Y-20650000D02*
X38250000Y-20990000D01*
X38250000Y-20310000D01*
X38720000Y-20650000D01*
G36*
X38720000Y-20650000D02*
G01*
X38250000Y-20990000D01*
X38250000Y-20310000D01*
X38720000Y-20650000D01*
G37*
%TO.C,R1*%
X7772936Y-28765000D02*
X8227064Y-28765000D01*
X7772936Y-30235000D02*
X8227064Y-30235000D01*
%TO.C,C4*%
X39738748Y-1765000D02*
X40261252Y-1765000D01*
X39738748Y-3235000D02*
X40261252Y-3235000D01*
%TO.C,J4*%
X4460000Y-24830000D02*
X5790000Y-24830000D01*
X4460000Y-26160000D02*
X4460000Y-24830000D01*
X7060000Y-24830000D02*
X65540000Y-24830000D01*
X7060000Y-27490000D02*
X7060000Y-24830000D01*
X7060000Y-27490000D02*
X65540000Y-27490000D01*
X65540000Y-27490000D02*
X65540000Y-24830000D01*
%TO.C,R2*%
X15772936Y-28765000D02*
X16227064Y-28765000D01*
X15772936Y-30235000D02*
X16227064Y-30235000D01*
%TO.C,C6*%
X55738748Y-1765000D02*
X56261252Y-1765000D01*
X55738748Y-3235000D02*
X56261252Y-3235000D01*
%TO.C,R8*%
X63772936Y-28765000D02*
X64227064Y-28765000D01*
X63772936Y-30235000D02*
X64227064Y-30235000D01*
%TO.C,U5*%
X7090000Y-940000D02*
X8910000Y-940000D01*
X7090000Y-990000D02*
X7090000Y-940000D01*
X7090000Y-4060000D02*
X7090000Y-4010000D01*
X8910000Y-940000D02*
X8910000Y-990000D01*
X8910000Y-2110000D02*
X8910000Y-2890000D01*
X8910000Y-4010000D02*
X8910000Y-4060000D01*
X8910000Y-4060000D02*
X7090000Y-4060000D01*
X6550000Y-990000D02*
X6310000Y-660000D01*
X6790000Y-660000D01*
X6550000Y-990000D01*
G36*
X6550000Y-990000D02*
G01*
X6310000Y-660000D01*
X6790000Y-660000D01*
X6550000Y-990000D01*
G37*
%TO.C,C1*%
X15738748Y-1765000D02*
X16261252Y-1765000D01*
X15738748Y-3235000D02*
X16261252Y-3235000D01*
%TO.C,J2*%
X9490000Y-9760000D02*
X9490000Y-8380000D01*
X10870000Y-9760000D02*
X9490000Y-9760000D01*
X12140000Y-7000000D02*
X60510000Y-7000000D01*
X12140000Y-9760000D02*
X12140000Y-7000000D01*
X12140000Y-9760000D02*
X60510000Y-9760000D01*
X60510000Y-9760000D02*
X60510000Y-7000000D01*
%TO.C,J3*%
X9490000Y-22240000D02*
X9490000Y-25000000D01*
X57860000Y-22240000D02*
X9490000Y-22240000D01*
X57860000Y-22240000D02*
X57860000Y-25000000D01*
X57860000Y-25000000D02*
X9490000Y-25000000D01*
X59130000Y-22240000D02*
X60510000Y-22240000D01*
X60510000Y-22240000D02*
X60510000Y-23620000D01*
%TD*%
%LPC*%
D11*
%TO.C,U2*%
X11285000Y-20650000D03*
X12555000Y-20650000D03*
X13825000Y-20650000D03*
X15095000Y-20650000D03*
X16365000Y-20650000D03*
X17635000Y-20650000D03*
X18905000Y-20650000D03*
X20175000Y-20650000D03*
X21445000Y-20650000D03*
X22715000Y-20650000D03*
X22715000Y-11350000D03*
X21445000Y-11350000D03*
X20175000Y-11350000D03*
X18905000Y-11350000D03*
X17635000Y-11350000D03*
X16365000Y-11350000D03*
X15095000Y-11350000D03*
X13825000Y-11350000D03*
X12555000Y-11350000D03*
X11285000Y-11350000D03*
%TD*%
D12*
%TO.C,R6*%
X47087500Y-29500000D03*
X48912500Y-29500000D03*
%TD*%
D13*
%TO.C,C2*%
X23050000Y-2500000D03*
X24950000Y-2500000D03*
%TD*%
D12*
%TO.C,R5*%
X39087500Y-29500000D03*
X40912500Y-29500000D03*
%TD*%
D14*
%TO.C,U1*%
X54190000Y-18475000D03*
X55460000Y-18475000D03*
X56730000Y-18475000D03*
X58000000Y-18475000D03*
X59270000Y-18475000D03*
X60540000Y-18475000D03*
X61810000Y-18475000D03*
X61810000Y-13525000D03*
X60540000Y-13525000D03*
X59270000Y-13525000D03*
X58000000Y-13525000D03*
X56730000Y-13525000D03*
X55460000Y-13525000D03*
X54190000Y-13525000D03*
%TD*%
D12*
%TO.C,R3*%
X23087500Y-29500000D03*
X24912500Y-29500000D03*
%TD*%
%TO.C,R7*%
X55087500Y-29500000D03*
X56912500Y-29500000D03*
%TD*%
D15*
%TO.C,J1*%
X5790000Y-5840000D03*
D16*
X8330000Y-5840000D03*
X10870000Y-5840000D03*
X13410000Y-5840000D03*
X15950000Y-5840000D03*
X18490000Y-5840000D03*
X21030000Y-5840000D03*
X23570000Y-5840000D03*
X26110000Y-5840000D03*
X28650000Y-5840000D03*
X31190000Y-5840000D03*
X33730000Y-5840000D03*
X36270000Y-5840000D03*
X38810000Y-5840000D03*
X41350000Y-5840000D03*
X43890000Y-5840000D03*
X46430000Y-5840000D03*
X48970000Y-5840000D03*
X51510000Y-5840000D03*
X54050000Y-5840000D03*
X56590000Y-5840000D03*
X59130000Y-5840000D03*
X61670000Y-5840000D03*
X64210000Y-5840000D03*
%TD*%
D13*
%TO.C,C5*%
X47050000Y-2500000D03*
X48950000Y-2500000D03*
%TD*%
%TO.C,C3*%
X31050000Y-2500000D03*
X32950000Y-2500000D03*
%TD*%
D12*
%TO.C,R4*%
X31087500Y-29500000D03*
X32912500Y-29500000D03*
%TD*%
D11*
%TO.C,U3*%
X25285000Y-20650000D03*
X26555000Y-20650000D03*
X27825000Y-20650000D03*
X29095000Y-20650000D03*
X30365000Y-20650000D03*
X31635000Y-20650000D03*
X32905000Y-20650000D03*
X34175000Y-20650000D03*
X35445000Y-20650000D03*
X36715000Y-20650000D03*
X36715000Y-11350000D03*
X35445000Y-11350000D03*
X34175000Y-11350000D03*
X32905000Y-11350000D03*
X31635000Y-11350000D03*
X30365000Y-11350000D03*
X29095000Y-11350000D03*
X27825000Y-11350000D03*
X26555000Y-11350000D03*
X25285000Y-11350000D03*
%TD*%
%TO.C,U4*%
X39285000Y-20650000D03*
X40555000Y-20650000D03*
X41825000Y-20650000D03*
X43095000Y-20650000D03*
X44365000Y-20650000D03*
X45635000Y-20650000D03*
X46905000Y-20650000D03*
X48175000Y-20650000D03*
X49445000Y-20650000D03*
X50715000Y-20650000D03*
X50715000Y-11350000D03*
X49445000Y-11350000D03*
X48175000Y-11350000D03*
X46905000Y-11350000D03*
X45635000Y-11350000D03*
X44365000Y-11350000D03*
X43095000Y-11350000D03*
X41825000Y-11350000D03*
X40555000Y-11350000D03*
X39285000Y-11350000D03*
%TD*%
D12*
%TO.C,R1*%
X7087500Y-29500000D03*
X8912500Y-29500000D03*
%TD*%
D13*
%TO.C,C4*%
X39050000Y-2500000D03*
X40950000Y-2500000D03*
%TD*%
D15*
%TO.C,J4*%
X5790000Y-26160000D03*
D16*
X8330000Y-26160000D03*
X10870000Y-26160000D03*
X13410000Y-26160000D03*
X15950000Y-26160000D03*
X18490000Y-26160000D03*
X21030000Y-26160000D03*
X23570000Y-26160000D03*
X26110000Y-26160000D03*
X28650000Y-26160000D03*
X31190000Y-26160000D03*
X33730000Y-26160000D03*
X36270000Y-26160000D03*
X38810000Y-26160000D03*
X41350000Y-26160000D03*
X43890000Y-26160000D03*
X46430000Y-26160000D03*
X48970000Y-26160000D03*
X51510000Y-26160000D03*
X54050000Y-26160000D03*
X56590000Y-26160000D03*
X59130000Y-26160000D03*
X61670000Y-26160000D03*
X64210000Y-26160000D03*
%TD*%
D12*
%TO.C,R2*%
X15087500Y-29500000D03*
X16912500Y-29500000D03*
%TD*%
D13*
%TO.C,C6*%
X55050000Y-2500000D03*
X56950000Y-2500000D03*
%TD*%
D12*
%TO.C,R8*%
X63087500Y-29500000D03*
X64912500Y-29500000D03*
%TD*%
D17*
%TO.C,U5*%
X6862500Y-1550000D03*
X6862500Y-2500000D03*
X6862500Y-3450000D03*
X9137500Y-3450000D03*
X9137500Y-1550000D03*
%TD*%
D13*
%TO.C,C1*%
X15050000Y-2500000D03*
X16950000Y-2500000D03*
%TD*%
D15*
%TO.C,J2*%
X10870000Y-8380000D03*
D16*
X13410000Y-8380000D03*
X15950000Y-8380000D03*
X18490000Y-8380000D03*
X21030000Y-8380000D03*
X23570000Y-8380000D03*
X26110000Y-8380000D03*
X28650000Y-8380000D03*
X31190000Y-8380000D03*
X33730000Y-8380000D03*
X36270000Y-8380000D03*
X38810000Y-8380000D03*
X41350000Y-8380000D03*
X43890000Y-8380000D03*
X46430000Y-8380000D03*
X48970000Y-8380000D03*
X51510000Y-8380000D03*
X54050000Y-8380000D03*
X56590000Y-8380000D03*
X59130000Y-8380000D03*
%TD*%
D15*
%TO.C,J3*%
X59130000Y-23620000D03*
D16*
X56590000Y-23620000D03*
X54050000Y-23620000D03*
X51510000Y-23620000D03*
X48970000Y-23620000D03*
X46430000Y-23620000D03*
X43890000Y-23620000D03*
X41350000Y-23620000D03*
X38810000Y-23620000D03*
X36270000Y-23620000D03*
X33730000Y-23620000D03*
X31190000Y-23620000D03*
X28650000Y-23620000D03*
X26110000Y-23620000D03*
X23570000Y-23620000D03*
X21030000Y-23620000D03*
X18490000Y-23620000D03*
X15950000Y-23620000D03*
X13410000Y-23620000D03*
X10870000Y-23620000D03*
%TD*%
%LPD*%
M02*
