%TF.GenerationSoftware,KiCad,Pcbnew,10.0.4*%
%TF.CreationDate,2026-09-12T00:06:02-03:00*%
%TF.ProjectId,tia-fpga,7469612d-6670-4676-912e-6b696361645f,rev?*%
%TF.SameCoordinates,Original*%
%TF.FileFunction,Soldermask,Top*%
%TF.FilePolarity,Negative*%
%FSLAX46Y46*%
G04 Gerber Fmt 4.6, Leading zero omitted, Abs format (unit mm)*
G04 Created by KiCad (PCBNEW 10.0.4) date 2026-09-12 00:06:02*
%MOMM*%
%LPD*%
G01*
G04 APERTURE LIST*
G04 Aperture macros list*
%AMRoundRect*
0 Rectangle with rounded corners*
0 $1 Rounding radius*
0 $2 $3 $4 $5 $6 $7 $8 $9 X,Y pos of 4 corners*
0 Add a 4 corners polygon primitive as box body*
4,1,4,$2,$3,$4,$5,$6,$7,$8,$9,$2,$3,0*
0 Add four circle primitives for the rounded corners*
1,1,$1+$1,$2,$3*
1,1,$1+$1,$4,$5*
1,1,$1+$1,$6,$7*
1,1,$1+$1,$8,$9*
0 Add four rect primitives between the rounded corners*
20,1,$1+$1,$2,$3,$4,$5,0*
20,1,$1+$1,$4,$5,$6,$7,0*
20,1,$1+$1,$6,$7,$8,$9,0*
20,1,$1+$1,$8,$9,$2,$3,0*%
G04 Aperture macros list end*
%ADD10RoundRect,0.250000X-0.250000X-0.475000X0.250000X-0.475000X0.250000X0.475000X-0.250000X0.475000X0*%
%ADD11RoundRect,0.150000X0.150000X-0.875000X0.150000X0.875000X-0.150000X0.875000X-0.150000X-0.875000X0*%
%ADD12RoundRect,0.250000X-0.262500X-0.450000X0.262500X-0.450000X0.262500X0.450000X-0.262500X0.450000X0*%
%ADD13RoundRect,0.150000X-0.512500X-0.150000X0.512500X-0.150000X0.512500X0.150000X-0.512500X0.150000X0*%
%ADD14C,2.200000*%
%ADD15RoundRect,0.150000X0.150000X-0.825000X0.150000X0.825000X-0.150000X0.825000X-0.150000X-0.825000X0*%
%ADD16R,1.700000X1.700000*%
%ADD17C,1.700000*%
G04 APERTURE END LIST*
D10*
%TO.C,C2*%
X24050000Y-3500000D03*
X25950000Y-3500000D03*
%TD*%
D11*
%TO.C,U3*%
X28285000Y-22650000D03*
X29555000Y-22650000D03*
X30825000Y-22650000D03*
X32095000Y-22650000D03*
X33365000Y-22650000D03*
X34635000Y-22650000D03*
X35905000Y-22650000D03*
X37175000Y-22650000D03*
X38445000Y-22650000D03*
X39715000Y-22650000D03*
X39715000Y-13350000D03*
X38445000Y-13350000D03*
X37175000Y-13350000D03*
X35905000Y-13350000D03*
X34635000Y-13350000D03*
X33365000Y-13350000D03*
X32095000Y-13350000D03*
X30825000Y-13350000D03*
X29555000Y-13350000D03*
X28285000Y-13350000D03*
%TD*%
D10*
%TO.C,C5*%
X45050000Y-3500000D03*
X46950000Y-3500000D03*
%TD*%
D12*
%TO.C,R4*%
X29087500Y-32500000D03*
X30912500Y-32500000D03*
%TD*%
%TO.C,R6*%
X41087500Y-32500000D03*
X42912500Y-32500000D03*
%TD*%
D13*
%TO.C,U5*%
X8862500Y-2550000D03*
X8862500Y-3500000D03*
X8862500Y-4450000D03*
X11137500Y-4450000D03*
X11137500Y-2550000D03*
%TD*%
D14*
%TO.C,H4*%
X72000000Y-32000000D03*
%TD*%
D10*
%TO.C,C1*%
X17050000Y-3500000D03*
X18950000Y-3500000D03*
%TD*%
D14*
%TO.C,H1*%
X4000000Y-4000000D03*
%TD*%
D15*
%TO.C,U1*%
X57190000Y-20475000D03*
X58460000Y-20475000D03*
X59730000Y-20475000D03*
X61000000Y-20475000D03*
X62270000Y-20475000D03*
X63540000Y-20475000D03*
X64810000Y-20475000D03*
X64810000Y-15525000D03*
X63540000Y-15525000D03*
X62270000Y-15525000D03*
X61000000Y-15525000D03*
X59730000Y-15525000D03*
X58460000Y-15525000D03*
X57190000Y-15525000D03*
%TD*%
D10*
%TO.C,C4*%
X38050000Y-3500000D03*
X39950000Y-3500000D03*
%TD*%
D14*
%TO.C,H3*%
X4000000Y-32000000D03*
%TD*%
D12*
%TO.C,R8*%
X53087500Y-32500000D03*
X54912500Y-32500000D03*
%TD*%
%TO.C,R2*%
X17087500Y-32500000D03*
X18912500Y-32500000D03*
%TD*%
D10*
%TO.C,C3*%
X31050000Y-3500000D03*
X32950000Y-3500000D03*
%TD*%
D14*
%TO.C,H2*%
X72000000Y-4000000D03*
%TD*%
D10*
%TO.C,C6*%
X52050000Y-3500000D03*
X53950000Y-3500000D03*
%TD*%
D11*
%TO.C,U2*%
X14285000Y-22650000D03*
X15555000Y-22650000D03*
X16825000Y-22650000D03*
X18095000Y-22650000D03*
X19365000Y-22650000D03*
X20635000Y-22650000D03*
X21905000Y-22650000D03*
X23175000Y-22650000D03*
X24445000Y-22650000D03*
X25715000Y-22650000D03*
X25715000Y-13350000D03*
X24445000Y-13350000D03*
X23175000Y-13350000D03*
X21905000Y-13350000D03*
X20635000Y-13350000D03*
X19365000Y-13350000D03*
X18095000Y-13350000D03*
X16825000Y-13350000D03*
X15555000Y-13350000D03*
X14285000Y-13350000D03*
%TD*%
D12*
%TO.C,R3*%
X23087500Y-32500000D03*
X24912500Y-32500000D03*
%TD*%
%TO.C,R9*%
X59087500Y-32500000D03*
X60912500Y-32500000D03*
%TD*%
%TO.C,R5*%
X35087500Y-32500000D03*
X36912500Y-32500000D03*
%TD*%
D16*
%TO.C,J1*%
X8790000Y-7840000D03*
D17*
X11330000Y-7840000D03*
X13870000Y-7840000D03*
X16410000Y-7840000D03*
X18950000Y-7840000D03*
X21490000Y-7840000D03*
X24030000Y-7840000D03*
X26570000Y-7840000D03*
X29110000Y-7840000D03*
X31650000Y-7840000D03*
X34190000Y-7840000D03*
X36730000Y-7840000D03*
X39270000Y-7840000D03*
X41810000Y-7840000D03*
X44350000Y-7840000D03*
X46890000Y-7840000D03*
X49430000Y-7840000D03*
X51970000Y-7840000D03*
X54510000Y-7840000D03*
X57050000Y-7840000D03*
X59590000Y-7840000D03*
X62130000Y-7840000D03*
X64670000Y-7840000D03*
X67210000Y-7840000D03*
%TD*%
D16*
%TO.C,J4*%
X8790000Y-28160000D03*
D17*
X11330000Y-28160000D03*
X13870000Y-28160000D03*
X16410000Y-28160000D03*
X18950000Y-28160000D03*
X21490000Y-28160000D03*
X24030000Y-28160000D03*
X26570000Y-28160000D03*
X29110000Y-28160000D03*
X31650000Y-28160000D03*
X34190000Y-28160000D03*
X36730000Y-28160000D03*
X39270000Y-28160000D03*
X41810000Y-28160000D03*
X44350000Y-28160000D03*
X46890000Y-28160000D03*
X49430000Y-28160000D03*
X51970000Y-28160000D03*
X54510000Y-28160000D03*
X57050000Y-28160000D03*
X59590000Y-28160000D03*
X62130000Y-28160000D03*
X64670000Y-28160000D03*
X67210000Y-28160000D03*
%TD*%
D11*
%TO.C,U4*%
X42285000Y-22650000D03*
X43555000Y-22650000D03*
X44825000Y-22650000D03*
X46095000Y-22650000D03*
X47365000Y-22650000D03*
X48635000Y-22650000D03*
X49905000Y-22650000D03*
X51175000Y-22650000D03*
X52445000Y-22650000D03*
X53715000Y-22650000D03*
X53715000Y-13350000D03*
X52445000Y-13350000D03*
X51175000Y-13350000D03*
X49905000Y-13350000D03*
X48635000Y-13350000D03*
X47365000Y-13350000D03*
X46095000Y-13350000D03*
X44825000Y-13350000D03*
X43555000Y-13350000D03*
X42285000Y-13350000D03*
%TD*%
D12*
%TO.C,R1*%
X11087500Y-32500000D03*
X12912500Y-32500000D03*
%TD*%
%TO.C,R7*%
X47087500Y-32500000D03*
X48912500Y-32500000D03*
%TD*%
D16*
%TO.C,J2*%
X13870000Y-10380000D03*
D17*
X16410000Y-10380000D03*
X18950000Y-10380000D03*
X21490000Y-10380000D03*
X24030000Y-10380000D03*
X26570000Y-10380000D03*
X29110000Y-10380000D03*
X31650000Y-10380000D03*
X34190000Y-10380000D03*
X36730000Y-10380000D03*
X39270000Y-10380000D03*
X41810000Y-10380000D03*
X44350000Y-10380000D03*
X46890000Y-10380000D03*
X49430000Y-10380000D03*
X51970000Y-10380000D03*
X54510000Y-10380000D03*
X57050000Y-10380000D03*
X59590000Y-10380000D03*
X62130000Y-10380000D03*
%TD*%
D16*
%TO.C,J3*%
X62130000Y-25620000D03*
D17*
X59590000Y-25620000D03*
X57050000Y-25620000D03*
X54510000Y-25620000D03*
X51970000Y-25620000D03*
X49430000Y-25620000D03*
X46890000Y-25620000D03*
X44350000Y-25620000D03*
X41810000Y-25620000D03*
X39270000Y-25620000D03*
X36730000Y-25620000D03*
X34190000Y-25620000D03*
X31650000Y-25620000D03*
X29110000Y-25620000D03*
X26570000Y-25620000D03*
X24030000Y-25620000D03*
X21490000Y-25620000D03*
X18950000Y-25620000D03*
X16410000Y-25620000D03*
X13870000Y-25620000D03*
%TD*%
M02*
