M48
; DRILL file KiCad 10.0.4 date 2026-09-11T23:45:20
; FORMAT={-:-/ absolute / metric / decimal}
; #@! TF.CreationDate,2026-09-11T23:45:20-03:00
; #@! TF.GenerationSoftware,Kicad,Pcbnew,10.0.4
; #@! TF.FileFunction,MixedPlating,1,2
FMAT,2
METRIC
; #@! TA.AperFunction,Plated,PTH,ViaDrill
T1C0.300
; #@! TA.AperFunction,Plated,PTH,ComponentDrill
T2C1.000
%
G90
G05
T1
X9.696Y-27.624
X10.642Y-2.921
X14.357Y-17.69
X14.443Y-9.399
X14.55Y-18.572
X15.399Y-19.151
X15.967Y-15.645
X16.256Y-22.134
X16.365Y-19.003
X16.999Y-31.008
X18.284Y-19.303
X19.517Y-22.47
X20.191Y-9.495
X20.438Y-24.89
X21.832Y-18.665
X24.151Y-12.701
X24.203Y-10.469
X24.714Y-16.196
X24.714Y-18.003
X25.412Y-19.145
X27.243Y-30.484
X28.276Y-13.87
X31.032Y-19.361
X32.288Y-10.087
X33.202Y-14.027
X33.236Y-22.153
X34.652Y-13.978
X35.079Y-22.131
X35.364Y-4.829
X35.439Y-9.486
X37.48Y-19.556
X37.794Y-11.969
X38.37Y-11.445
X38.788Y-19.254
X40.081Y-7.11
X41.609Y-9.745
X42.62Y-7.11
X43.039Y-17.214
X44.402Y-19.147
X44.47Y-24.89
X45.946Y-12.98
X47.133Y-14.902
X48.265Y-16.823
X48.315Y-4.394
X49.119Y-17.793
X54.459Y-4.472
X56.023Y-21.964
X57.146Y-1.171
X58.489Y-20.018
T2
X5.79Y-5.84
X5.79Y-26.16
X8.33Y-5.84
X8.33Y-26.16
X10.87Y-5.84
X10.87Y-8.38
X10.87Y-23.62
X10.87Y-26.16
X13.41Y-5.84
X13.41Y-8.38
X13.41Y-23.62
X13.41Y-26.16
X15.95Y-5.84
X15.95Y-8.38
X15.95Y-23.62
X15.95Y-26.16
X18.49Y-5.84
X18.49Y-8.38
X18.49Y-23.62
X18.49Y-26.16
X21.03Y-5.84
X21.03Y-8.38
X21.03Y-23.62
X21.03Y-26.16
X23.57Y-5.84
X23.57Y-8.38
X23.57Y-23.62
X23.57Y-26.16
X26.11Y-5.84
X26.11Y-8.38
X26.11Y-23.62
X26.11Y-26.16
X28.65Y-5.84
X28.65Y-8.38
X28.65Y-23.62
X28.65Y-26.16
X31.19Y-5.84
X31.19Y-8.38
X31.19Y-23.62
X31.19Y-26.16
X33.73Y-5.84
X33.73Y-8.38
X33.73Y-23.62
X33.73Y-26.16
X36.27Y-5.84
X36.27Y-8.38
X36.27Y-23.62
X36.27Y-26.16
X38.81Y-5.84
X38.81Y-8.38
X38.81Y-23.62
X38.81Y-26.16
X41.35Y-5.84
X41.35Y-8.38
X41.35Y-23.62
X41.35Y-26.16
X43.89Y-5.84
X43.89Y-8.38
X43.89Y-23.62
X43.89Y-26.16
X46.43Y-5.84
X46.43Y-8.38
X46.43Y-23.62
X46.43Y-26.16
X48.97Y-5.84
X48.97Y-8.38
X48.97Y-23.62
X48.97Y-26.16
X51.51Y-5.84
X51.51Y-8.38
X51.51Y-23.62
X51.51Y-26.16
X54.05Y-5.84
X54.05Y-8.38
X54.05Y-23.62
X54.05Y-26.16
X56.59Y-5.84
X56.59Y-8.38
X56.59Y-23.62
X56.59Y-26.16
X59.13Y-5.84
X59.13Y-8.38
X59.13Y-23.62
X59.13Y-26.16
X61.67Y-5.84
X61.67Y-26.16
X64.21Y-5.84
X64.21Y-26.16
M30
