M48
; DRILL file KiCad 10.0.4 date 2026-09-15T20:31:30
; FORMAT={-:-/ absolute / metric / decimal}
; #@! TF.CreationDate,2026-09-15T20:31:30-03:00
; #@! TF.GenerationSoftware,Kicad,Pcbnew,10.0.4
; #@! TF.FileFunction,MixedPlating,1,2
FMAT,2
METRIC
; #@! TA.AperFunction,Plated,PTH,ViaDrill
T1C0.300
; #@! TA.AperFunction,Plated,PTH,ComponentDrill
T2C1.000
%
G90
G05
T1
X8.0Y-3.224
X11.769Y-2.2
X14.263Y-1.519
X15.739Y-3.898
X15.901Y-19.726
X16.473Y-16.271
X16.899Y-9.454
X18.105Y-4.349
X18.737Y-1.519
X19.073Y-32.817
X20.279Y-2.2
X21.213Y-3.295
X22.881Y-3.9
X23.951Y-10.085
X24.182Y-4.623
X25.238Y-12.657
X25.544Y-19.106
X25.737Y-1.487
X27.219Y-1.469
X32.922Y-13.94
X34.825Y-12.826
X35.998Y-12.818
X37.145Y-12.843
X37.381Y-2.264
X38.738Y-3.145
X38.816Y-1.698
X39.864Y-12.808
X44.772Y-22.464
X45.495Y-9.736
X46.176Y-24.913
X46.445Y-13.788
X49.974Y-3.7
X50.697Y-19.401
X53.07Y-12.88
X55.877Y-7.252
X56.544Y-22.13
X57.001Y-32.995
T2
X5.79Y-5.84
X5.79Y-28.7
X8.33Y-5.84
X8.33Y-28.7
X10.87Y-5.84
X10.87Y-8.38
X10.87Y-23.62
X10.87Y-28.7
X13.41Y-5.84
X13.41Y-8.38
X13.41Y-23.62
X13.41Y-28.7
X15.95Y-5.84
X15.95Y-8.38
X15.95Y-23.62
X15.95Y-28.7
X18.49Y-5.84
X18.49Y-8.38
X18.49Y-23.62
X18.49Y-28.7
X21.03Y-5.84
X21.03Y-8.38
X21.03Y-23.62
X21.03Y-28.7
X23.57Y-5.84
X23.57Y-8.38
X23.57Y-23.62
X23.57Y-28.7
X26.11Y-5.84
X26.11Y-8.38
X26.11Y-23.62
X26.11Y-28.7
X28.65Y-5.84
X28.65Y-8.38
X28.65Y-23.62
X28.65Y-28.7
X31.19Y-5.84
X31.19Y-8.38
X31.19Y-23.62
X31.19Y-28.7
X33.73Y-5.84
X33.73Y-8.38
X33.73Y-23.62
X33.73Y-28.7
X36.27Y-5.84
X36.27Y-8.38
X36.27Y-23.62
X36.27Y-28.7
X38.81Y-5.84
X38.81Y-8.38
X38.81Y-23.62
X38.81Y-28.7
X41.35Y-5.84
X41.35Y-8.38
X41.35Y-23.62
X41.35Y-28.7
X43.89Y-5.84
X43.89Y-8.38
X43.89Y-23.62
X43.89Y-28.7
X46.43Y-5.84
X46.43Y-8.38
X46.43Y-23.62
X46.43Y-28.7
X48.97Y-5.84
X48.97Y-8.38
X48.97Y-23.62
X48.97Y-28.7
X51.51Y-5.84
X51.51Y-8.38
X51.51Y-23.62
X51.51Y-28.7
X54.05Y-5.84
X54.05Y-8.38
X54.05Y-23.62
X54.05Y-28.7
X56.59Y-5.84
X56.59Y-8.38
X56.59Y-23.62
X56.59Y-28.7
X59.13Y-5.84
X59.13Y-8.38
X59.13Y-23.62
X59.13Y-28.7
X61.67Y-5.84
X61.67Y-28.7
X64.21Y-5.84
X64.21Y-28.7
M30
